<svg preserveAspectRatio="none" width="100%" height="100%" overflow="visible" style="display: block;" viewBox="0 0 2308.03 1076" fill="none" xmlns="http://www.w3.org/2000/svg">
<g id="Petal 4" style="mix-blend-mode:plus-lighter" opacity="0.03">
<path id="Vector" fill-rule="evenodd" clip-rule="evenodd" d="M1161.02 2.02352e-05C1147.25 2.02352e-05 1134.53 7.25129 1127.41 19.0639L873.664 441.745C790.637 578.759 748.861 690.628 748.861 777.352C748.861 869.221 784.511 942.26 855.518 995.943C925.767 1049.22 1023.38 1076 1147.37 1076C1271.35 1076 1376.55 1049.57 1452.57 996.938C1527.72 944.892 1565.42 873.724 1565.42 783.96C1565.42 727.002 1549.37 664.43 1517.22 595.309C1485.72 527.533 1378.94 335.724 1194.98 19.5902C1187.97 7.48519 1175.02 0.0584664 1161.08 0.0584664L1161.02 2.02352e-05Z" fill="var(--fill-0, #08A03F)"/>
<path id="Vector_2" fill-rule="evenodd" clip-rule="evenodd" d="M1210.85 28.7347C1206.07 41.4829 1208.4 55.8686 1217.04 66.3947C1378.72 264.461 1592.73 619.131 1785.91 736.907C1859.02 781.701 1934.76 786.262 2013.23 750.766C2090.89 715.854 2154.49 664.51 2216.74 557.378C2280.92 447.147 2311.26 346.447 2307.76 255.396C2304.26 164.989 2266.57 97.9145 2195.1 54.4066C2149.82 26.7464 2092.12 10.2556 2021.28 4.46621C1951.97 -1.1477 1594.19 -1.67405 1245.86 4.05682C1230.23 4.29074 1216.34 14.1151 1210.85 28.7931V28.7347Z" fill="var(--fill-0, #08A03F)"/>
<path id="Vector_3" fill-rule="evenodd" clip-rule="evenodd" d="M1097.65 25.8546C1091.75 12.814 1078.92 4.33462 1064.68 4.10071C715.596 -1.68864 356.476 -1.16239 286.985 4.51001C215.978 10.2994 158.274 26.7903 112.997 54.4505C41.4645 98.0168 3.77282 165.091 0.272048 255.499C-3.22872 346.549 27.0529 447.249 91.3505 557.481C153.723 664.613 217.378 716.015 294.979 750.868C373.454 786.365 449.246 781.803 522.12 737.009C715.888 618.824 930.66 262.282 1092.51 64.5672C1101.44 53.6903 1103.42 38.6614 1097.65 25.8546Z" fill="var(--fill-0, #08A03F)"/>
</g>
</svg>
