<svg preserveAspectRatio="none" width="100%" height="100%" overflow="visible" style="display: block;" viewBox="0 0 365.595 697.259" fill="none" xmlns="http://www.w3.org/2000/svg">
<g id="Half Round ">
<path id="Ellipse 59" d="M325.891 680.236C246.162 674.666 170.799 640.517 113.919 583.637" stroke="var(--stroke-0, white)" stroke-width="0.786226" stroke-linecap="round"/>
<path id="Ellipse 59_2" d="M84.9295 550.532C45.3062 498.734 21.6782 436.258 17.2658 370.879" stroke="var(--stroke-0, white)" stroke-width="0.786226" stroke-linecap="round"/>
<path id="Ellipse 59_3" d="M17.2658 326.064C21.5561 262.494 44.0133 201.669 81.677 150.736" stroke="var(--stroke-0, white)" stroke-width="0.786226" stroke-linecap="round"/>
<path id="Ellipse 59_4" d="M325.891 16.7071C246.162 22.2778 170.799 56.4265 113.919 113.307C113.114 114.112 112.313 114.922 111.516 115.735" stroke="var(--stroke-0, white)" stroke-width="0.786226" stroke-linecap="round"/>
<g id="Group">
<g id="Group_2">
<path id="Vector" d="M349.454 14.4831C349.252 14.497 349.05 14.3863 348.949 14.2203L345.384 8.54878C344.214 6.709 343.623 5.2012 343.623 4.0254C343.623 2.78043 344.128 1.79829 345.124 1.07897C346.12 0.359658 347.491 0 349.238 0C351.027 0 352.471 0.359658 353.539 1.06514C354.593 1.77062 355.127 2.7251 355.127 3.92857C355.127 4.68938 354.896 5.53319 354.448 6.47384C354.001 7.38681 352.5 9.95975 349.916 14.2065C349.829 14.3725 349.642 14.4693 349.454 14.4831Z" fill="var(--fill-0, white)"/>
</g>
<g id="Group_3">
<path id="Vector_2" d="M349.424 17.4277C349.236 17.4277 349.049 17.5245 348.948 17.6905L345.368 23.3897C344.199 25.2295 343.607 26.7373 343.607 27.9131C343.607 29.1442 344.112 30.1402 345.108 30.8595C346.104 31.5788 347.475 31.9385 349.222 31.9385C351.012 31.9385 352.455 31.5788 353.523 30.8733C354.577 30.1679 355.111 29.2134 355.111 28.0099C355.111 27.2491 354.88 26.4053 354.433 25.4646C353.985 24.5517 352.484 21.9649 349.886 17.7043C349.814 17.5383 349.626 17.4277 349.424 17.4277Z" fill="var(--fill-0, white)"/>
</g>
<g id="Group_4">
<path id="Vector_3" d="M350.133 16.7374C350.061 16.9034 350.104 17.097 350.219 17.2492C352.5 19.919 355.517 24.6913 358.23 26.2821C359.255 26.8908 360.323 26.9461 361.435 26.462C362.532 25.9917 363.427 25.3 364.307 23.8614C365.217 22.3812 365.635 21.0256 365.592 19.7945C365.549 18.5772 365.015 17.678 364.004 17.0832C363.369 16.7097 362.546 16.4884 361.55 16.4054C360.569 16.3362 355.531 16.3224 350.623 16.4054C350.407 16.4054 350.205 16.5437 350.133 16.7374Z" fill="var(--fill-0, white)"/>
</g>
<g id="Group_5">
<path id="Vector_4" d="M350.118 15.2022C350.205 15.3405 350.363 15.4373 350.537 15.4373C355.473 15.5203 360.568 15.5065 361.55 15.4373C362.546 15.3543 363.354 15.133 364.004 14.7595C365.014 14.1785 365.548 13.2655 365.592 12.0482C365.635 10.8171 365.216 9.46147 364.307 7.98134C363.426 6.54271 362.532 5.85106 361.434 5.38074C360.323 4.89659 359.255 4.96575 358.23 5.56057C355.488 7.1652 352.442 12.0067 350.161 14.6627C350.031 14.8148 350.017 15.0362 350.118 15.2022Z" fill="var(--fill-0, white)"/>
</g>
<g id="Group_6">
<path id="Vector_5" d="M348.53 16.6959C348.443 16.5161 348.27 16.4054 348.068 16.4054C343.145 16.3224 338.093 16.3362 337.112 16.4054C336.116 16.4884 335.293 16.7097 334.658 17.0832C333.648 17.6642 333.114 18.5772 333.07 19.7945C333.027 21.0256 333.446 22.3813 334.355 23.8614C335.235 25.3 336.13 25.9917 337.227 26.462C338.339 26.9461 339.407 26.877 340.432 26.2822C343.16 24.6914 346.191 19.8913 348.472 17.2216C348.587 17.0694 348.616 16.8757 348.53 16.6959Z" fill="var(--fill-0, white)"/>
</g>
<path id="Vector_6" d="M348.486 15.2022C348.4 15.3543 348.226 15.4373 348.039 15.4511C343.131 15.5341 338.093 15.5203 337.112 15.4511C336.116 15.3681 335.293 15.1468 334.658 14.7733C333.648 14.1785 333.128 13.2655 333.07 12.0482C333.027 10.8171 333.445 9.46146 334.355 7.98133C335.235 6.5427 336.13 5.85106 337.227 5.38073C338.339 4.89658 339.407 4.96574 340.432 5.56056C343.16 7.15136 346.177 11.9237 348.443 14.5935C348.457 14.6073 348.457 14.6212 348.472 14.6212C348.472 14.635 348.616 14.9255 348.486 15.2022Z" fill="var(--fill-0, white)"/>
</g>
<g id="Group_7">
<g id="Group_8">
<path id="Vector_7" d="M16.3871 347.23C16.185 347.244 15.9829 347.133 15.8818 346.967L12.3165 341.296C11.1474 339.456 10.5555 337.948 10.5555 336.772C10.5555 335.527 11.0607 334.545 12.0567 333.826C13.0527 333.107 14.424 332.747 16.1705 332.747C17.9604 332.747 19.4038 333.107 20.472 333.812C21.5257 334.518 22.0598 335.472 22.0598 336.676C22.0598 337.436 21.8288 338.28 21.3814 339.221C20.9339 340.134 19.4327 342.707 16.849 346.954C16.7623 347.119 16.5747 347.216 16.3871 347.23Z" fill="var(--fill-0, white)"/>
</g>
<g id="Group_9">
<path id="Vector_8" d="M16.3568 350.175C16.1692 350.175 15.9816 350.272 15.8805 350.438L12.3008 356.137C11.1316 357.977 10.5398 359.484 10.5398 360.66C10.5398 361.891 11.045 362.887 12.041 363.607C13.0369 364.326 14.4082 364.686 16.1548 364.686C17.9446 364.686 19.3881 364.326 20.4562 363.62C21.5099 362.915 22.044 361.96 22.044 360.757C22.044 359.996 21.8131 359.152 21.3656 358.212C20.9181 357.299 19.4169 354.712 16.8187 350.451C16.7466 350.285 16.5589 350.175 16.3568 350.175Z" fill="var(--fill-0, white)"/>
</g>
<g id="Group_10">
<path id="Vector_9" d="M17.0657 349.484C16.9935 349.65 17.0368 349.844 17.1523 349.996C19.4329 352.666 22.4497 357.438 25.1634 359.029C26.1882 359.638 27.2564 359.693 28.3678 359.209C29.4648 358.739 30.3598 358.047 31.2403 356.608C32.1496 355.128 32.5682 353.773 32.5249 352.542C32.4816 351.324 31.9476 350.425 30.9372 349.83C30.302 349.457 29.4793 349.235 28.4833 349.152C27.5018 349.083 22.4641 349.069 17.5564 349.152C17.3399 349.152 17.1378 349.291 17.0657 349.484Z" fill="var(--fill-0, white)"/>
</g>
<g id="Group_11">
<path id="Vector_10" d="M17.0508 347.949C17.1374 348.088 17.2962 348.184 17.4694 348.184C22.406 348.267 27.5014 348.254 28.4829 348.184C29.4789 348.101 30.2872 347.88 30.9368 347.507C31.9472 346.926 32.4812 346.013 32.5245 344.795C32.5678 343.564 32.1492 342.209 31.2399 340.728C30.3594 339.29 29.4644 338.598 28.3674 338.128C27.256 337.644 26.1878 337.713 25.163 338.308C22.4204 339.912 19.3748 344.754 17.0941 347.41C16.9642 347.562 16.9498 347.783 17.0508 347.949Z" fill="var(--fill-0, white)"/>
</g>
<g id="Group_12">
<path id="Vector_11" d="M15.4624 349.443C15.3758 349.263 15.2026 349.152 15.0005 349.152C10.0783 349.069 5.02629 349.083 4.04475 349.152C3.04877 349.235 2.22601 349.457 1.5909 349.83C0.580486 350.411 0.046412 351.324 0.00310873 352.542C-0.0401945 353.773 0.378404 355.128 1.28777 356.608C2.16827 358.047 3.06321 358.739 4.16022 359.209C5.27167 359.693 6.33982 359.624 7.36466 359.029C10.0928 357.438 13.124 352.638 15.4046 349.969C15.5201 349.816 15.549 349.623 15.4624 349.443Z" fill="var(--fill-0, white)"/>
</g>
<path id="Vector_12" d="M15.419 347.949C15.3324 348.101 15.1592 348.184 14.9715 348.198C10.0638 348.281 5.02622 348.267 4.04468 348.198C3.04871 348.115 2.22594 347.894 1.59083 347.52C0.580419 346.926 0.0607795 346.013 0.0030418 344.795C-0.0402615 343.564 0.378337 342.209 1.28771 340.728C2.16821 339.29 3.06314 338.598 4.16016 338.128C5.27161 337.644 6.33976 337.713 7.3646 338.308C10.0927 339.898 13.1095 344.671 15.3757 347.341C15.3901 347.354 15.3901 347.368 15.4046 347.368C15.4046 347.382 15.5489 347.673 15.419 347.949Z" fill="var(--fill-0, white)"/>
</g>
<g id="Group_13">
<g id="Group_14">
<path id="Vector_13" d="M348.961 679.804C348.758 679.818 348.556 679.707 348.455 679.541L344.89 673.869C343.721 672.03 343.129 670.522 343.129 669.346C343.129 668.101 343.634 667.119 344.63 666.4C345.626 665.68 346.997 665.321 348.744 665.321C350.534 665.321 351.977 665.68 353.045 666.386C354.099 667.091 354.633 668.046 354.633 669.249C354.633 670.01 354.402 670.854 353.955 671.794C353.507 672.707 352.006 675.28 349.422 679.527C349.336 679.693 349.148 679.79 348.961 679.804Z" fill="var(--fill-0, white)"/>
</g>
<g id="Group_15">
<path id="Vector_14" d="M348.93 682.748C348.743 682.748 348.555 682.845 348.454 683.011L344.874 688.71C343.705 690.55 343.113 692.058 343.113 693.234C343.113 694.465 343.619 695.461 344.614 696.18C345.61 696.9 346.982 697.259 348.728 697.259C350.518 697.259 351.962 696.9 353.03 696.194C354.083 695.489 354.618 694.534 354.618 693.331C354.618 692.57 354.387 691.726 353.939 690.785C353.492 689.872 351.99 687.286 349.392 683.025C349.32 682.859 349.132 682.748 348.93 682.748Z" fill="var(--fill-0, white)"/>
</g>
<g id="Group_16">
<path id="Vector_15" d="M349.639 682.058C349.567 682.224 349.61 682.418 349.726 682.57C352.006 685.24 355.023 690.012 357.737 691.603C358.762 692.212 359.83 692.267 360.941 691.783C362.038 691.313 362.933 690.621 363.814 689.182C364.723 687.702 365.142 686.346 365.098 685.115C365.055 683.898 364.521 682.999 363.511 682.404C362.876 682.031 362.053 681.809 361.057 681.726C360.075 681.657 355.038 681.643 350.13 681.726C349.913 681.726 349.711 681.865 349.639 682.058Z" fill="var(--fill-0, white)"/>
</g>
<g id="Group_17">
<path id="Vector_16" d="M349.624 680.523C349.711 680.661 349.87 680.758 350.043 680.758C354.979 680.841 360.075 680.827 361.056 680.758C362.052 680.675 362.861 680.454 363.51 680.08C364.521 679.499 365.055 678.586 365.098 677.369C365.141 676.138 364.723 674.782 363.813 673.302C362.933 671.864 362.038 671.172 360.941 670.702C359.829 670.217 358.761 670.287 357.736 670.881C354.994 672.486 351.948 677.328 349.668 679.984C349.538 680.136 349.523 680.357 349.624 680.523Z" fill="var(--fill-0, white)"/>
</g>
<g id="Group_18">
<path id="Vector_17" d="M348.036 682.017C347.949 681.837 347.776 681.726 347.574 681.726C342.652 681.643 337.6 681.657 336.618 681.726C335.622 681.809 334.8 682.031 334.164 682.404C333.154 682.985 332.62 683.898 332.577 685.115C332.533 686.346 332.952 687.702 333.861 689.182C334.742 690.621 335.637 691.312 336.734 691.783C337.845 692.267 338.913 692.198 339.938 691.603C342.666 690.012 345.698 685.212 347.978 682.542C348.094 682.39 348.123 682.197 348.036 682.017Z" fill="var(--fill-0, white)"/>
</g>
<path id="Vector_18" d="M347.993 680.523C347.906 680.675 347.733 680.758 347.545 680.772C342.637 680.855 337.6 680.841 336.618 680.772C335.622 680.689 334.799 680.468 334.164 680.094C333.154 679.499 332.634 678.586 332.577 677.369C332.533 676.138 332.952 674.782 333.861 673.302C334.742 671.864 335.637 671.172 336.734 670.702C337.845 670.217 338.913 670.287 339.938 670.881C342.666 672.472 345.683 677.245 347.949 679.914C347.964 679.928 347.964 679.942 347.978 679.942C347.978 679.956 348.122 680.246 347.993 680.523Z" fill="var(--fill-0, white)"/>
</g>
<g id="Group_19">
<g id="Group_20">
<path id="Vector_19" d="M97.3683 565.015C97.1662 565.029 96.9642 564.918 96.8631 564.752L93.2978 559.081C92.1286 557.241 91.5368 555.733 91.5368 554.557C91.5368 553.312 92.042 552.33 93.038 551.611C94.034 550.891 95.4052 550.532 97.1518 550.532C98.9417 550.532 100.385 550.891 101.453 551.597C102.507 552.302 103.041 553.257 103.041 554.46C103.041 555.221 102.81 556.065 102.363 557.006C101.915 557.919 100.414 560.492 97.8302 564.738C97.7436 564.904 97.556 565.001 97.3683 565.015Z" fill="var(--fill-0, white)"/>
</g>
<g id="Group_21">
<path id="Vector_20" d="M97.3381 567.959C97.1505 567.959 96.9628 568.056 96.8618 568.222L93.282 573.921C92.1129 575.761 91.521 577.269 91.521 578.445C91.521 579.676 92.0262 580.672 93.0222 581.391C94.0182 582.11 95.3895 582.47 97.136 582.47C98.9259 582.47 100.369 582.11 101.437 581.405C102.491 580.699 103.025 579.745 103.025 578.542C103.025 577.781 102.794 576.937 102.347 575.996C101.899 575.083 100.398 572.497 97.8 568.236C97.7278 568.07 97.5402 567.959 97.3381 567.959Z" fill="var(--fill-0, white)"/>
</g>
<g id="Group_22">
<path id="Vector_21" d="M98.0469 567.269C97.9748 567.435 98.0181 567.629 98.1335 567.781C100.414 570.451 103.431 575.223 106.145 576.814C107.169 577.423 108.238 577.478 109.349 576.994C110.446 576.524 111.341 575.832 112.222 574.393C113.131 572.913 113.55 571.557 113.506 570.326C113.463 569.109 112.929 568.21 111.918 567.615C111.283 567.242 110.461 567.02 109.465 566.937C108.483 566.868 103.445 566.854 98.5377 566.937C98.3212 566.937 98.1191 567.076 98.0469 567.269Z" fill="var(--fill-0, white)"/>
</g>
<g id="Group_23">
<path id="Vector_22" d="M98.0321 565.734C98.1187 565.872 98.2775 565.969 98.4507 565.969C103.387 566.052 108.483 566.038 109.464 565.969C110.46 565.886 111.268 565.665 111.918 565.291C112.928 564.71 113.463 563.797 113.506 562.58C113.549 561.349 113.131 559.993 112.221 558.513C111.341 557.075 110.446 556.383 109.349 555.913C108.237 555.428 107.169 555.498 106.144 556.092C103.402 557.697 100.356 562.539 98.0754 565.194C97.9455 565.347 97.9311 565.568 98.0321 565.734Z" fill="var(--fill-0, white)"/>
</g>
<g id="Group_24">
<path id="Vector_23" d="M96.4436 567.228C96.357 567.048 96.1838 566.937 95.9817 566.937C91.0596 566.854 86.0076 566.868 85.026 566.937C84.03 567.02 83.2073 567.241 82.5722 567.615C81.5618 568.196 81.0277 569.109 80.9844 570.326C80.9411 571.557 81.3597 572.913 82.269 574.393C83.1495 575.832 84.0445 576.523 85.1415 576.994C86.2529 577.478 87.3211 577.409 88.3459 576.814C91.074 575.223 94.1053 570.423 96.3859 567.753C96.5014 567.601 96.5303 567.407 96.4436 567.228Z" fill="var(--fill-0, white)"/>
</g>
<path id="Vector_24" d="M96.4003 565.734C96.3137 565.886 96.1405 565.969 95.9528 565.983C91.0451 566.066 86.0075 566.052 85.026 565.983C84.03 565.9 83.2072 565.679 82.5721 565.305C81.5617 564.71 81.0421 563.797 80.9843 562.58C80.941 561.349 81.3596 559.993 82.269 558.513C83.1495 557.075 84.0444 556.383 85.1414 555.913C86.2529 555.428 87.321 555.498 88.3459 556.092C91.074 557.683 94.0908 562.456 96.357 565.125C96.3714 565.139 96.3714 565.153 96.3858 565.153C96.3858 565.167 96.5302 565.457 96.4003 565.734Z" fill="var(--fill-0, white)"/>
</g>
<g id="Group_25">
<g id="Group_26">
<path id="Vector_25" d="M95.7958 131.804C95.5938 131.818 95.3917 131.707 95.2906 131.541L91.7253 125.87C90.5561 124.03 89.9643 122.522 89.9643 121.347C89.9643 120.102 90.4695 119.119 91.4655 118.4C92.4615 117.681 93.8328 117.321 95.5793 117.321C97.3692 117.321 98.8126 117.681 99.8808 118.386C100.934 119.092 101.469 120.046 101.469 121.25C101.469 122.01 101.238 122.854 100.79 123.795C100.343 124.708 98.8415 127.281 96.2577 131.528C96.1711 131.694 95.9835 131.79 95.7958 131.804Z" fill="var(--fill-0, white)"/>
</g>
<g id="Group_27">
<path id="Vector_26" d="M95.7657 134.749C95.578 134.749 95.3904 134.846 95.2894 135.012L91.7096 140.711C90.5404 142.551 89.9486 144.058 89.9486 145.234C89.9486 146.465 90.4538 147.461 91.4498 148.181C92.4458 148.9 93.817 149.26 95.5636 149.26C97.3535 149.26 98.7969 148.9 99.8651 148.194C100.919 147.489 101.453 146.535 101.453 145.331C101.453 144.57 101.222 143.726 100.774 142.786C100.327 141.873 98.8258 139.286 96.2276 135.025C96.1554 134.859 95.9678 134.749 95.7657 134.749Z" fill="var(--fill-0, white)"/>
</g>
<g id="Group_28">
<path id="Vector_27" d="M96.4745 134.058C96.4023 134.224 96.4456 134.418 96.5611 134.57C98.8417 137.24 101.859 142.012 104.572 143.603C105.597 144.212 106.665 144.267 107.777 143.783C108.874 143.313 109.769 142.621 110.649 141.182C111.558 139.702 111.977 138.347 111.934 137.116C111.89 135.898 111.356 134.999 110.346 134.404C109.711 134.031 108.888 133.81 107.892 133.727C106.911 133.657 101.873 133.644 96.9652 133.727C96.7487 133.727 96.5466 133.865 96.4745 134.058Z" fill="var(--fill-0, white)"/>
</g>
<g id="Group_29">
<path id="Vector_28" d="M96.4596 132.523C96.5462 132.662 96.705 132.758 96.8782 132.758C101.815 132.841 106.91 132.828 107.892 132.758C108.888 132.675 109.696 132.454 110.346 132.081C111.356 131.5 111.89 130.587 111.933 129.369C111.977 128.138 111.558 126.783 110.649 125.302C109.768 123.864 108.873 123.172 107.776 122.702C106.665 122.218 105.597 122.287 104.572 122.882C101.829 124.486 98.7836 129.328 96.5029 131.984C96.373 132.136 96.3586 132.357 96.4596 132.523Z" fill="var(--fill-0, white)"/>
</g>
<g id="Group_30">
<path id="Vector_29" d="M94.8712 134.017C94.7846 133.837 94.6113 133.727 94.4093 133.727C89.4871 133.644 84.4351 133.657 83.4535 133.727C82.4576 133.81 81.6348 134.031 80.9997 134.404C79.9893 134.985 79.4552 135.898 79.4119 137.116C79.3686 138.347 79.7872 139.702 80.6966 141.183C81.5771 142.621 82.472 143.313 83.569 143.783C84.6805 144.267 85.7486 144.198 86.7735 143.603C89.5016 142.012 92.5328 137.212 94.8134 134.543C94.9289 134.391 94.9578 134.197 94.8712 134.017Z" fill="var(--fill-0, white)"/>
</g>
<path id="Vector_30" d="M94.8278 132.523C94.7412 132.675 94.568 132.758 94.3803 132.772C89.4726 132.855 84.435 132.841 83.4535 132.772C82.4575 132.689 81.6347 132.468 80.9996 132.094C79.9892 131.5 79.4696 130.587 79.4118 129.369C79.3685 128.138 79.7871 126.783 80.6965 125.302C81.577 123.864 82.4719 123.172 83.5689 122.702C84.6804 122.218 85.7485 122.287 86.7734 122.882C89.5015 124.472 92.5183 129.245 94.7845 131.915C94.7989 131.928 94.7989 131.942 94.8134 131.942C94.8134 131.956 94.9577 132.247 94.8278 132.523Z" fill="var(--fill-0, white)"/>
</g>
</g>
</svg>
