<svg width="547" height="274" viewBox="0 0 547 274" fill="none" xmlns="http://www.w3.org/2000/svg">
<g opacity="0.05">
<path fill-rule="evenodd" clip-rule="evenodd" d="M274.923 19.0547C271.662 19.0547 268.65 20.7717 266.965 23.5689L206.879 123.657C187.218 156.102 177.326 182.592 177.326 203.127C177.326 224.881 185.768 242.177 202.582 254.888C219.216 267.503 242.331 273.845 271.69 273.845C301.049 273.845 325.959 267.586 343.961 255.124C361.757 242.8 370.682 225.947 370.682 204.692C370.682 191.205 366.882 176.388 359.27 160.02C351.809 143.971 326.526 98.5521 282.964 23.6935C281.306 20.8271 278.239 19.0685 274.937 19.0685L274.923 19.0547Z" fill="#08A03F"/>
<path fill-rule="evenodd" clip-rule="evenodd" d="M286.723 6.82764C285.59 9.84636 286.143 13.2528 288.188 15.7453C326.472 62.6462 377.149 146.63 422.894 174.519C440.206 185.126 458.139 186.206 476.721 177.8C495.111 169.534 510.17 157.376 524.912 132.007C540.109 105.905 547.294 82.0601 546.465 60.4998C545.636 39.0919 536.711 23.209 519.786 12.9066C509.065 6.35683 495.401 2.4519 478.628 1.08101C462.215 -0.248331 377.495 -0.372967 295.013 0.98407C291.31 1.03946 288.022 3.3658 286.723 6.84148V6.82764Z" fill="#08A03F"/>
<path fill-rule="evenodd" clip-rule="evenodd" d="M259.917 6.12222C258.521 3.03426 255.482 1.0264 252.111 0.971011C169.449 -0.399874 84.4116 -0.275259 67.9567 1.06793C51.1426 2.43882 37.4785 6.34377 26.7573 12.8936C9.81879 23.2098 0.893626 39.0927 0.0646636 60.5006C-0.764299 82.0609 6.40623 105.906 21.6315 132.008C36.4009 157.376 51.4742 169.548 69.8495 177.801C88.4321 186.207 106.379 185.127 123.635 174.519C169.518 146.534 220.375 62.1069 258.701 15.2891C260.815 12.7135 261.285 9.15478 259.917 6.12222Z" fill="#08A03F"/>
</g>
</svg>
