<svg width="1909" height="1636" viewBox="0 0 1909 1636" fill="none" xmlns="http://www.w3.org/2000/svg">
<g opacity="0.03" clip-path="url(#clip0_2421_370)">
<path fill-rule="evenodd" clip-rule="evenodd" d="M961.738 567.646C949.529 568.176 938.044 562.002 931.77 551.534L722.619 204.179C653.947 91.1598 619.395 -1.16599 619.395 -72.6533C619.395 -148.627 648.88 -208.682 707.611 -252.963C765.714 -296.907 846.45 -319 948.998 -319C1051.55 -319 1138.56 -297.197 1201.44 -253.783C1263.59 -210.852 1294.77 -152.341 1294.77 -78.0558C1294.77 -31.0729 1281.5 20.5407 1254.91 77.5569C1228.9 133.367 1140.82 291.199 989.101 551.197C983.406 560.989 973.079 567.211 961.787 567.694L961.738 567.646Z" fill="white"/>
<path fill-rule="evenodd" clip-rule="evenodd" d="M960.291 748.492C948.902 748.492 938.382 754.474 932.494 764.217L722.619 1112.87C653.947 1225.89 619.395 1318.17 619.395 1389.71C619.395 1465.49 648.88 1525.74 707.611 1570.02C765.714 1613.96 846.45 1636.05 948.998 1636.05C1051.55 1636.05 1138.56 1614.25 1201.44 1570.84C1263.59 1527.91 1294.77 1469.2 1294.77 1395.16C1294.77 1348.18 1281.5 1296.56 1254.91 1239.55C1228.85 1183.64 1140.54 1025.42 988.377 764.652C982.586 754.666 971.873 748.54 960.339 748.54L960.291 748.492Z" fill="white"/>
<path fill-rule="evenodd" clip-rule="evenodd" d="M1001.55 705.898C997.591 716.413 999.522 728.28 1006.66 736.962C1140.39 900.341 1317.4 1192.9 1477.18 1290.05C1537.65 1327 1600.29 1330.76 1665.2 1301.48C1729.43 1272.68 1782.03 1230.33 1833.52 1141.96C1886.6 1051.03 1911.7 967.97 1908.8 892.865C1905.91 818.29 1874.73 762.962 1815.62 727.074C1778.17 704.258 1730.44 690.655 1671.86 685.879C1614.52 681.249 1318.61 680.814 1030.5 685.542C1017.57 685.735 1006.08 693.838 1001.55 705.946V705.898Z" fill="white"/>
<path fill-rule="evenodd" clip-rule="evenodd" d="M1000.83 611.739C1005.94 620.518 1015.3 626.017 1025.49 626.161C1315.13 630.985 1614.19 630.551 1671.86 625.872C1730.44 621.145 1778.12 607.494 1815.62 584.678C1874.69 548.789 1905.91 493.413 1908.81 418.887C1911.7 343.782 1886.66 260.718 1833.52 169.791C1782.08 81.4203 1729.43 39.02 1665.2 10.2707C1600.29 -18.961 1537.65 -15.2468 1477.18 21.7028C1316.15 119.624 1137.59 416.089 1003.48 578.696C995.76 588.054 994.698 601.271 1000.83 611.787V611.739Z" fill="white"/>
<path fill-rule="evenodd" clip-rule="evenodd" d="M907.882 703.428C903.008 692.671 892.391 685.677 880.616 685.484C591.887 680.709 294.857 681.143 237.382 685.822C178.651 690.597 130.924 704.2 93.4756 727.016C34.311 762.953 3.13613 818.281 0.240637 892.855C-2.65486 967.96 22.3912 1051.02 75.5718 1141.95C127.16 1230.32 179.81 1272.72 243.993 1301.47C308.9 1330.75 371.588 1326.99 431.862 1290.04C592.128 1192.55 769.767 898.451 903.635 735.361C911.019 726.389 912.659 713.992 907.882 703.428Z" fill="white"/>
<path fill-rule="evenodd" clip-rule="evenodd" d="M904.745 611.401C911.839 599.969 910.922 585.256 902.381 574.837C768.657 411.458 591.597 118.852 431.814 21.7028C371.54 -15.2468 308.852 -18.961 243.945 10.2707C179.761 39.0682 127.112 81.4203 75.5235 169.791C22.3912 260.717 -2.65485 343.782 0.240643 418.887C3.13614 493.461 34.311 548.789 93.4273 584.678C130.876 607.494 178.603 621.145 237.333 625.872C294.664 630.503 590.439 630.937 878.493 626.21C889.206 626.017 899.099 620.421 904.745 611.353V611.401Z" fill="white"/>
</g>
<defs>
<clipPath id="clip0_2421_370">
<rect width="1909" height="1955" fill="white" transform="translate(0 -319)"/>
</clipPath>
</defs>
</svg>
