<svg width="1452" height="767" viewBox="0 0 1452 767" fill="none" xmlns="http://www.w3.org/2000/svg">
<g opacity="0.1">
<path fill-rule="evenodd" clip-rule="evenodd" d="M691.269 53.3712C682.137 53.3712 673.701 58.1804 668.98 66.0149L500.687 346.348C445.622 437.22 417.915 511.415 417.915 568.932C417.915 629.862 441.559 678.304 488.653 713.908C535.244 749.24 599.983 767.004 682.214 767.004C764.445 767.004 834.215 749.473 884.637 714.567C934.478 680.049 959.476 632.848 959.476 573.314C959.476 535.538 948.835 494.039 927.513 448.196C906.617 403.245 835.801 276.032 713.791 66.3639C709.147 58.3356 700.556 53.41 691.308 53.41L691.269 53.3712Z" fill="#08A03F"/>
<path fill-rule="evenodd" clip-rule="evenodd" d="M724.321 19.1241C721.148 27.5791 722.696 37.1201 728.423 44.1013C835.652 175.464 977.591 410.691 1105.72 488.803C1154.2 518.512 1204.43 521.537 1256.48 497.995C1307.98 474.84 1350.16 440.788 1391.45 369.735C1434.02 296.626 1454.14 229.84 1451.82 169.452C1449.5 109.492 1424.5 65.006 1377.1 36.1504C1347.07 17.8054 1308.8 6.86826 1261.82 3.02861C1215.85 -0.694688 978.559 -1.04376 747.539 2.75713C737.168 2.91227 727.958 9.42803 724.321 19.1629L724.321 19.1241Z" fill="#08A03F"/>
<path fill-rule="evenodd" clip-rule="evenodd" d="M649.239 17.1475C645.331 8.49861 636.818 2.87487 627.376 2.71974C395.853 -1.1199 157.674 -0.770848 111.586 2.99124C64.4924 6.8309 26.2213 17.7681 -3.8074 36.1131C-51.2496 65.0075 -76.2478 109.493 -78.5696 169.454C-80.8914 229.841 -60.8077 296.628 -18.1639 369.736C23.203 440.789 65.4212 474.881 116.888 497.996C168.935 521.538 219.202 518.513 267.534 488.804C396.046 410.421 538.489 173.953 645.834 42.8228C651.755 35.6089 653.07 25.6413 649.239 17.1475Z" fill="#08A03F"/>
</g>
</svg>
