<svg width="1452" height="767" viewBox="0 0 1452 767" fill="none" xmlns="http://www.w3.org/2000/svg">
<g style="mix-blend-mode:plus-lighter" opacity="0.07">
<path fill-rule="evenodd" clip-rule="evenodd" d="M760.732 53.3712C769.864 53.3712 778.3 58.1804 783.021 66.0149L951.313 346.348C1006.38 437.22 1034.09 511.415 1034.09 568.932C1034.09 629.862 1010.44 678.304 963.348 713.908C916.757 749.24 852.017 767.004 769.787 767.004C687.556 767.004 617.786 749.473 567.364 714.567C517.522 680.049 492.524 632.848 492.524 573.314C492.524 535.538 503.166 494.039 524.488 448.196C545.384 403.245 616.199 276.032 738.21 66.3639C742.854 58.3356 751.444 53.41 760.693 53.41L760.732 53.3712Z" fill="#08A03F"/>
<path fill-rule="evenodd" clip-rule="evenodd" d="M727.68 19.1241C730.853 27.5791 729.305 37.1201 723.578 44.1013C616.349 175.464 474.409 410.691 346.284 488.803C297.797 518.512 247.569 521.537 195.522 497.995C144.016 474.84 101.837 440.788 60.5472 369.735C17.9808 296.626 -2.14162 229.84 0.180167 169.452C2.50201 109.492 27.5001 65.006 74.9037 36.1504C104.932 17.8054 143.203 6.86826 190.181 3.02861C236.153 -0.694688 473.442 -1.04376 704.462 2.75713C714.832 2.91227 724.042 9.42803 727.68 19.1629L727.68 19.1241Z" fill="#08A03F"/>
<path fill-rule="evenodd" clip-rule="evenodd" d="M802.761 17.1475C806.67 8.49861 815.183 2.87487 824.625 2.71974C1056.15 -1.1199 1294.33 -0.770848 1340.41 2.99124C1387.51 6.8309 1425.78 17.7681 1455.81 36.1131C1503.25 65.0075 1528.25 109.493 1530.57 169.454C1532.89 229.841 1512.81 296.628 1470.16 369.736C1428.8 440.789 1386.58 474.881 1335.11 497.996C1283.07 521.538 1232.8 518.513 1184.47 488.804C1055.95 410.421 913.511 173.953 806.167 42.8228C800.246 35.6089 798.93 25.6413 802.761 17.1475Z" fill="#08A03F"/>
</g>
</svg>
