<svg width="366" height="698" viewBox="0 0 366 698" fill="none" xmlns="http://www.w3.org/2000/svg">
<path d="M325.891 680.236C246.162 674.666 170.8 640.517 113.92 583.637" stroke="white" stroke-width="0.786226" stroke-linecap="round"/>
<path d="M84.9293 550.532C45.306 498.734 21.678 436.258 17.2656 370.879" stroke="white" stroke-width="0.786226" stroke-linecap="round"/>
<path d="M17.2656 326.064C21.5559 262.494 44.0131 201.669 81.6768 150.736" stroke="white" stroke-width="0.786226" stroke-linecap="round"/>
<path d="M325.89 16.707C246.161 22.2777 170.799 56.4264 113.919 113.306C113.113 114.112 112.312 114.922 111.516 115.735" stroke="white" stroke-width="0.786226" stroke-linecap="round"/>
<path d="M349.453 14.4831C349.251 14.497 349.048 14.3863 348.947 14.2203L345.382 8.54878C344.213 6.709 343.621 5.2012 343.621 4.0254C343.621 2.78043 344.126 1.79829 345.122 1.07897C346.118 0.359658 347.49 0 349.236 0C351.026 0 352.469 0.359658 353.538 1.06514C354.591 1.77062 355.125 2.7251 355.125 3.92857C355.125 4.68938 354.894 5.53319 354.447 6.47384C353.999 7.38681 352.498 9.95975 349.915 14.2065C349.828 14.3725 349.64 14.4693 349.453 14.4831Z" fill="white"/>
<path d="M349.423 17.4276C349.235 17.4276 349.047 17.5244 348.946 17.6904L345.366 23.3896C344.197 25.2294 343.605 26.7372 343.605 27.913C343.605 29.1442 344.111 30.1401 345.107 30.8594C346.103 31.5788 347.474 31.9384 349.22 31.9384C351.01 31.9384 352.454 31.5788 353.522 30.8733C354.576 30.1678 355.11 29.2133 355.11 28.0098C355.11 27.249 354.879 26.4052 354.431 25.4646C353.984 24.5516 352.483 21.9648 349.884 17.7043C349.812 17.5383 349.625 17.4276 349.423 17.4276Z" fill="white"/>
<path d="M350.133 16.7373C350.061 16.9033 350.104 17.097 350.22 17.2491C352.5 19.9189 355.517 24.6913 358.231 26.2821C359.255 26.8907 360.324 26.9461 361.435 26.4619C362.532 25.9916 363.427 25.2999 364.308 23.8613C365.217 22.3812 365.636 21.0255 365.592 19.7944C365.549 18.5771 365.015 17.678 364.004 17.0831C363.369 16.7096 362.547 16.4883 361.551 16.4053C360.569 16.3362 355.531 16.3223 350.624 16.4053C350.407 16.4053 350.205 16.5437 350.133 16.7373Z" fill="white"/>
<path d="M350.117 15.202C350.204 15.3404 350.362 15.4372 350.536 15.4372C355.472 15.5202 360.568 15.5064 361.549 15.4372C362.545 15.3542 363.353 15.1329 364.003 14.7594C365.013 14.1784 365.547 13.2654 365.591 12.0481C365.634 10.817 365.215 9.46136 364.306 7.98123C363.426 6.5426 362.531 5.85095 361.434 5.38063C360.322 4.89647 359.254 4.96564 358.229 5.56046C355.487 7.16508 352.441 12.0066 350.16 14.6626C350.03 14.8147 350.016 15.0361 350.117 15.202Z" fill="white"/>
<path d="M348.529 16.6959C348.442 16.5161 348.269 16.4054 348.067 16.4054C343.145 16.3224 338.093 16.3363 337.111 16.4054C336.115 16.4884 335.292 16.7098 334.657 17.0833C333.647 17.6642 333.113 18.5772 333.069 19.7945C333.026 21.0257 333.445 22.3813 334.354 23.8614C335.235 25.3001 336.13 25.9917 337.227 26.462C338.338 26.9462 339.406 26.877 340.431 26.2822C343.159 24.6914 346.19 19.8914 348.471 17.2216C348.586 17.0694 348.615 16.8758 348.529 16.6959Z" fill="white"/>
<path d="M348.485 15.202C348.399 15.3542 348.226 15.4372 348.038 15.451C343.13 15.534 338.093 15.5202 337.111 15.451C336.115 15.368 335.292 15.1467 334.657 14.7732C333.647 14.1784 333.127 13.2654 333.069 12.0481C333.026 10.817 333.445 9.46136 334.354 7.98123C335.235 6.5426 336.13 5.85095 337.227 5.38063C338.338 4.89647 339.406 4.96564 340.431 5.56046C343.159 7.15125 346.176 11.9236 348.442 14.5934C348.457 14.6072 348.457 14.6211 348.471 14.6211C348.471 14.6349 348.615 14.9254 348.485 15.202Z" fill="white"/>
<path d="M16.3862 347.23C16.1841 347.244 15.982 347.133 15.881 346.967L12.3157 341.296C11.1465 339.456 10.5547 337.948 10.5547 336.772C10.5547 335.527 11.0599 334.545 12.0559 333.826C13.0518 333.107 14.4231 332.747 16.1697 332.747C17.9595 332.747 19.403 333.107 20.4711 333.812C21.5248 334.518 22.0589 335.472 22.0589 336.676C22.0589 337.436 21.828 338.28 21.3805 339.221C20.933 340.134 19.4319 342.707 16.8481 346.954C16.7615 347.12 16.5738 347.216 16.3862 347.23Z" fill="white"/>
<path d="M16.3561 350.175C16.1685 350.175 15.9808 350.272 15.8798 350.438L12.3001 356.137C11.1309 357.977 10.5391 359.484 10.5391 360.66C10.5391 361.891 11.0443 362.887 12.0402 363.607C13.0362 364.326 14.4075 364.686 16.1541 364.686C17.9439 364.686 19.3874 364.326 20.4555 363.62C21.5092 362.915 22.0433 361.961 22.0433 360.757C22.0433 359.996 21.8123 359.152 21.3649 358.212C20.9174 357.299 19.4162 354.712 16.818 350.451C16.7459 350.285 16.5582 350.175 16.3561 350.175Z" fill="white"/>
<path d="M17.0665 349.484C16.9944 349.65 17.0377 349.844 17.1531 349.996C19.4338 352.666 22.4506 357.438 25.1642 359.029C26.1891 359.638 27.2572 359.693 28.3687 359.209C29.4657 358.739 30.3606 358.047 31.2411 356.608C32.1505 355.128 32.5691 353.773 32.5258 352.541C32.4825 351.324 31.9484 350.425 30.938 349.83C30.3029 349.457 29.4801 349.235 28.4842 349.152C27.5026 349.083 22.465 349.069 17.5573 349.152C17.3408 349.152 17.1387 349.291 17.0665 349.484Z" fill="white"/>
<path d="M17.0507 347.949C17.1373 348.087 17.2961 348.184 17.4693 348.184C22.4059 348.267 27.5012 348.253 28.4827 348.184C29.4787 348.101 30.287 347.88 30.9366 347.506C31.947 346.925 32.4811 346.012 32.5244 344.795C32.5677 343.564 32.1491 342.208 31.2397 340.728C30.3592 339.29 29.4643 338.598 28.3673 338.128C27.2558 337.644 26.1877 337.713 25.1628 338.308C22.4203 339.912 19.3746 344.754 17.094 347.41C16.9641 347.562 16.9496 347.783 17.0507 347.949Z" fill="white"/>
<path d="M15.4623 349.443C15.3757 349.263 15.2025 349.152 15.0004 349.152C10.0783 349.069 5.02622 349.083 4.04468 349.152C3.0487 349.235 2.22594 349.457 1.59083 349.83C0.580419 350.411 0.0463451 351.324 0.00304179 352.541C-0.0402615 353.773 0.378337 355.128 1.28771 356.608C2.16821 358.047 3.06314 358.739 4.16015 359.209C5.27161 359.693 6.33975 359.624 7.3646 359.029C10.0927 357.438 13.1239 352.638 15.4046 349.969C15.52 349.816 15.5489 349.623 15.4623 349.443Z" fill="white"/>
<path d="M15.419 347.949C15.3324 348.101 15.1592 348.184 14.9715 348.198C10.0638 348.281 5.02622 348.267 4.04468 348.198C3.04871 348.115 2.22594 347.894 1.59083 347.52C0.580419 346.925 0.0607795 346.012 0.0030418 344.795C-0.0402615 343.564 0.378337 342.208 1.28771 340.728C2.16821 339.29 3.06314 338.598 4.16016 338.128C5.27161 337.644 6.33976 337.713 7.3646 338.308C10.0927 339.898 13.1095 344.671 15.3757 347.34C15.3901 347.354 15.3901 347.368 15.4046 347.368C15.4046 347.382 15.5489 347.672 15.419 347.949Z" fill="white"/>
<path d="M348.96 679.804C348.758 679.818 348.556 679.707 348.455 679.541L344.89 673.869C343.721 672.03 343.129 670.522 343.129 669.346C343.129 668.101 343.634 667.119 344.63 666.4C345.626 665.68 346.997 665.321 348.744 665.321C350.534 665.321 351.977 665.68 353.045 666.386C354.099 667.091 354.633 668.046 354.633 669.249C354.633 670.01 354.402 670.854 353.955 671.794C353.507 672.707 352.006 675.28 349.422 679.527C349.336 679.693 349.148 679.79 348.96 679.804Z" fill="white"/>
<path d="M348.93 682.748C348.743 682.748 348.555 682.845 348.454 683.011L344.874 688.71C343.705 690.55 343.113 692.058 343.113 693.234C343.113 694.465 343.618 695.461 344.614 696.18C345.61 696.899 346.982 697.259 348.728 697.259C350.518 697.259 351.962 696.899 353.03 696.194C354.083 695.488 354.618 694.534 354.618 693.331C354.618 692.57 354.387 691.726 353.939 690.785C353.492 689.872 351.99 687.286 349.392 683.025C349.32 682.859 349.132 682.748 348.93 682.748Z" fill="white"/>
<path d="M349.641 682.058C349.569 682.224 349.612 682.418 349.727 682.57C352.008 685.24 355.025 690.012 357.738 691.603C358.763 692.212 359.831 692.267 360.943 691.783C362.04 691.313 362.935 690.621 363.815 689.182C364.725 687.702 365.143 686.347 365.1 685.115C365.057 683.898 364.523 682.999 363.512 682.404C362.877 682.031 362.054 681.809 361.058 681.726C360.077 681.657 355.039 681.643 350.132 681.726C349.915 681.726 349.713 681.865 349.641 682.058Z" fill="white"/>
<path d="M349.625 680.523C349.712 680.661 349.87 680.758 350.044 680.758C354.98 680.841 360.075 680.827 361.057 680.758C362.053 680.675 362.861 680.454 363.511 680.08C364.521 679.499 365.055 678.586 365.099 677.369C365.142 676.138 364.723 674.782 363.814 673.302C362.933 671.864 362.039 671.172 360.941 670.702C359.83 670.218 358.762 670.287 357.737 670.882C354.995 672.486 351.949 677.328 349.668 679.984C349.538 680.136 349.524 680.357 349.625 680.523Z" fill="white"/>
<path d="M348.037 682.017C347.95 681.837 347.777 681.726 347.575 681.726C342.652 681.643 337.6 681.657 336.619 681.726C335.623 681.809 334.8 682.03 334.165 682.404C333.155 682.985 332.621 683.898 332.577 685.115C332.534 686.346 332.953 687.702 333.862 689.182C334.742 690.621 335.637 691.312 336.734 691.783C337.846 692.267 338.914 692.198 339.939 691.603C342.667 690.012 345.698 685.212 347.979 682.542C348.094 682.39 348.123 682.196 348.037 682.017Z" fill="white"/>
<path d="M347.993 680.523C347.907 680.675 347.733 680.758 347.546 680.772C342.638 680.855 337.6 680.841 336.619 680.772C335.623 680.689 334.8 680.468 334.165 680.094C333.155 679.499 332.635 678.586 332.577 677.369C332.534 676.138 332.953 674.782 333.862 673.302C334.742 671.864 335.637 671.172 336.734 670.702C337.846 670.218 338.914 670.287 339.939 670.882C342.667 672.472 345.684 677.245 347.95 679.914C347.964 679.928 347.964 679.942 347.979 679.942C347.979 679.956 348.123 680.246 347.993 680.523Z" fill="white"/>
<path d="M97.3667 565.015C97.1646 565.029 96.9625 564.918 96.8615 564.752L93.2962 559.081C92.127 557.241 91.5352 555.733 91.5352 554.557C91.5352 553.312 92.0404 552.33 93.0363 551.611C94.0323 550.891 95.4036 550.532 97.1501 550.532C98.94 550.532 100.383 550.891 101.452 551.597C102.505 552.302 103.039 553.257 103.039 554.46C103.039 555.221 102.808 556.065 102.361 557.006C101.914 557.919 100.412 560.491 97.8286 564.738C97.742 564.904 97.5543 565.001 97.3667 565.015Z" fill="white"/>
<path d="M97.3366 567.959C97.149 567.959 96.9613 568.056 96.8603 568.222L93.2805 573.921C92.1113 575.761 91.5195 577.269 91.5195 578.445C91.5195 579.676 92.0247 580.672 93.0207 581.391C94.0167 582.11 95.388 582.47 97.1345 582.47C98.9244 582.47 100.368 582.11 101.436 581.405C102.49 580.699 103.024 579.745 103.024 578.541C103.024 577.781 102.793 576.937 102.345 575.996C101.898 575.083 100.397 572.496 97.7985 568.236C97.7263 568.07 97.5387 567.959 97.3366 567.959Z" fill="white"/>
<path d="M98.047 567.269C97.9748 567.435 98.0181 567.629 98.1336 567.781C100.414 570.451 103.431 575.223 106.145 576.814C107.17 577.423 108.238 577.478 109.349 576.994C110.446 576.524 111.341 575.832 112.222 574.393C113.131 572.913 113.55 571.558 113.506 570.326C113.463 569.109 112.929 568.21 111.918 567.615C111.283 567.242 110.461 567.02 109.465 566.937C108.483 566.868 103.445 566.854 98.5378 566.937C98.3213 566.937 98.1192 567.076 98.047 567.269Z" fill="white"/>
<path d="M98.0312 565.734C98.1178 565.872 98.2765 565.969 98.4498 565.969C103.386 566.052 108.482 566.038 109.463 565.969C110.459 565.886 111.268 565.665 111.917 565.291C112.927 564.71 113.462 563.797 113.505 562.58C113.548 561.349 113.13 559.993 112.22 558.513C111.34 557.075 110.445 556.383 109.348 555.913C108.236 555.428 107.168 555.498 106.143 556.092C103.401 557.697 100.355 562.539 98.0745 565.195C97.9445 565.347 97.9301 565.568 98.0312 565.734Z" fill="white"/>
<path d="M96.4428 567.228C96.3562 567.048 96.183 566.937 95.9809 566.937C91.0587 566.854 86.0067 566.868 85.0251 566.937C84.0292 567.02 83.2064 567.241 82.5713 567.615C81.5609 568.196 81.0268 569.109 80.9835 570.326C80.9402 571.557 81.3588 572.913 82.2682 574.393C83.1487 575.832 84.0436 576.523 85.1406 576.994C86.2521 577.478 87.3202 577.409 88.3451 576.814C91.0732 575.223 94.1044 570.423 96.385 567.753C96.5005 567.601 96.5294 567.407 96.4428 567.228Z" fill="white"/>
<path d="M96.3995 565.734C96.3129 565.886 96.1397 565.969 95.952 565.983C91.0443 566.066 86.0067 566.052 85.0251 565.983C84.0292 565.9 83.2064 565.679 82.5713 565.305C81.5609 564.71 81.0412 563.797 80.9835 562.58C80.9402 561.349 81.3588 559.993 82.2682 558.513C83.1487 557.075 84.0436 556.383 85.1406 555.913C86.2521 555.428 87.3202 555.498 88.3451 556.092C91.0732 557.683 94.09 562.456 96.3562 565.125C96.3706 565.139 96.3706 565.153 96.385 565.153C96.385 565.167 96.5294 565.457 96.3995 565.734Z" fill="white"/>
<path d="M95.7944 131.804C95.5923 131.818 95.3902 131.707 95.2892 131.541L91.7239 125.87C90.5547 124.03 89.9629 122.522 89.9629 121.347C89.9629 120.102 90.4681 119.119 91.4641 118.4C92.46 117.681 93.8313 117.321 95.5779 117.321C97.3677 117.321 98.8112 117.681 99.8793 118.386C100.933 119.092 101.467 120.046 101.467 121.25C101.467 122.011 101.236 122.854 100.789 123.795C100.341 124.708 98.8401 127.281 96.2563 131.528C96.1697 131.694 95.982 131.79 95.7944 131.804Z" fill="white"/>
<path d="M95.7643 134.749C95.5767 134.749 95.389 134.846 95.288 135.012L91.7083 140.711C90.5391 142.551 89.9473 144.058 89.9473 145.234C89.9473 146.465 90.4525 147.461 91.4484 148.181C92.4444 148.9 93.8157 149.26 95.5623 149.26C97.3521 149.26 98.7956 148.9 99.8637 148.194C100.917 147.489 101.452 146.534 101.452 145.331C101.452 144.57 101.221 143.726 100.773 142.786C100.326 141.873 98.8244 139.286 96.2262 135.025C96.1541 134.859 95.9664 134.749 95.7643 134.749Z" fill="white"/>
<path d="M96.4747 134.059C96.4026 134.225 96.4459 134.418 96.5613 134.57C98.842 137.24 101.859 142.013 104.572 143.603C105.597 144.212 106.665 144.267 107.777 143.783C108.874 143.313 109.769 142.621 110.649 141.183C111.559 139.702 111.977 138.347 111.934 137.116C111.891 135.898 111.357 134.999 110.346 134.404C109.711 134.031 108.888 133.81 107.892 133.727C106.911 133.657 101.873 133.644 96.9655 133.727C96.749 133.727 96.5469 133.865 96.4747 134.059Z" fill="white"/>
<path d="M96.4589 132.523C96.5455 132.662 96.7043 132.758 96.8775 132.758C101.814 132.841 106.909 132.828 107.891 132.758C108.887 132.675 109.695 132.454 110.345 132.081C111.355 131.5 111.889 130.587 111.933 129.369C111.976 128.138 111.557 126.783 110.648 125.303C109.767 123.864 108.872 123.172 107.775 122.702C106.664 122.218 105.596 122.287 104.571 122.882C101.828 124.486 98.7828 129.328 96.5022 131.984C96.3723 132.136 96.3578 132.357 96.4589 132.523Z" fill="white"/>
<path d="M94.8705 134.017C94.7839 133.837 94.6107 133.726 94.4086 133.726C89.4865 133.643 84.4344 133.657 83.4529 133.726C82.4569 133.809 81.6341 134.031 80.999 134.404C79.9886 134.985 79.4545 135.898 79.4112 137.115C79.3679 138.347 79.7865 139.702 80.6959 141.182C81.5764 142.621 82.4713 143.313 83.5684 143.783C84.6798 144.267 85.748 144.198 86.7728 143.603C89.5009 142.012 92.5321 137.212 94.8128 134.543C94.9282 134.39 94.9571 134.197 94.8705 134.017Z" fill="white"/>
<path d="M94.8272 132.523C94.7406 132.675 94.5674 132.758 94.3797 132.772C89.472 132.855 84.4344 132.841 83.4529 132.772C82.4569 132.689 81.6341 132.468 80.999 132.095C79.9886 131.5 79.469 130.587 79.4112 129.369C79.3679 128.138 79.7865 126.783 80.6959 125.303C81.5764 123.864 82.4713 123.172 83.5684 122.702C84.6798 122.218 85.748 122.287 86.7728 122.882C89.5009 124.473 92.5177 129.245 94.7839 131.915C94.7983 131.929 94.7983 131.942 94.8128 131.942C94.8128 131.956 94.9571 132.247 94.8272 132.523Z" fill="white"/>
</svg>
