<svg width="601" height="282" viewBox="0 0 601 282" fill="none" xmlns="http://www.w3.org/2000/svg">
<g opacity="0.1">
<path d="M298.306 0.4375C330.49 0.437519 357.748 6.89101 377.419 19.6973C396.843 32.3477 406.558 49.5581 406.558 71.418C406.558 84.8246 402.667 99.5382 394.843 115.773L394.073 117.35C385.908 133.869 358.237 180.631 310.539 257.704V257.705C308.86 260.428 305.83 262.185 302.489 262.377L302.477 262.365L302.292 262.373C298.602 262.524 295.143 260.764 293.26 257.8H293.259L227.514 154.84L227.513 154.838C205.938 121.355 195.135 94.0783 195.135 73.0195C195.135 50.6437 204.333 32.975 222.681 19.9307H222.682C240.846 6.97669 266.123 0.4375 298.306 0.4375Z" fill="#08A03F" stroke="#08A03F" stroke-width="0.875276"/>
<path d="M464.56 101.365C483.446 90.4826 502.992 89.3881 523.271 97.9998H523.271C543.377 106.485 559.858 118.992 575.981 145.11V145.111C592.655 172.018 600.486 196.552 599.581 218.697C598.691 240.3 589.242 256.407 571.365 266.978L570.508 267.477C559.16 273.988 544.805 277.978 527.215 279.492L525.502 279.631C507.399 281.016 413.418 281.146 322.36 279.716H322.359C319.301 279.674 316.5 278.117 314.975 275.648L314.798 275.362C313.173 272.462 313.541 268.914 315.766 266.372C336.846 242.27 361.454 208.207 387.055 176.62C412.687 144.995 439.328 115.832 464.559 101.365H464.56Z" fill="#08A03F" stroke="#08A03F" stroke-width="0.875276"/>
<path d="M76.8486 98.0002C97.1276 89.3885 116.688 90.4826 135.514 101.365L135.515 101.365C160.549 115.718 186.974 144.538 212.424 175.877C237.842 207.177 262.303 241.014 283.32 265.228C285.797 268.077 286.131 272.056 284.221 275.233L284.029 275.523C282.391 278.004 279.55 279.575 276.437 279.721L276.135 279.73C185.578 281.131 92.6283 281.002 74.6318 279.631C56.7887 278.277 42.2162 274.448 30.6875 268.1L29.5811 267.478C11.1337 256.918 1.41209 240.657 0.507812 218.698C-0.397577 196.553 7.43338 172.019 24.1074 145.112V145.111C40.2768 118.993 56.7571 106.5 76.8477 98.0002H76.8486Z" fill="#08A03F" stroke="#08A03F" stroke-width="0.875276"/>
</g>
</svg>
