<svg width="33" height="32" viewBox="0 0 33 32" fill="none" xmlns="http://www.w3.org/2000/svg">
<path d="M16.3862 14.4831C16.1841 14.497 15.982 14.3863 15.881 14.2203L12.3157 8.54878C11.1465 6.709 10.5547 5.2012 10.5547 4.0254C10.5547 2.78043 11.0599 1.79829 12.0559 1.07897C13.0518 0.359658 14.4231 0 16.1697 0C17.9595 0 19.403 0.359658 20.4711 1.06514C21.5248 1.77062 22.0589 2.7251 22.0589 3.92857C22.0589 4.68938 21.828 5.53319 21.3805 6.47384C20.933 7.38681 19.4319 9.95975 16.8481 14.2065C16.7615 14.3725 16.5738 14.4693 16.3862 14.4831Z" fill="white"/>
<path d="M16.3561 17.4276C16.1685 17.4276 15.9808 17.5244 15.8798 17.6904L12.3001 23.3896C11.1309 25.2294 10.5391 26.7372 10.5391 27.913C10.5391 29.1442 11.0443 30.1401 12.0402 30.8594C13.0362 31.5788 14.4075 31.9384 16.1541 31.9384C17.9439 31.9384 19.3874 31.5788 20.4555 30.8733C21.5092 30.1678 22.0433 29.2133 22.0433 28.0098C22.0433 27.249 21.8123 26.4052 21.3649 25.4646C20.9174 24.5516 19.4162 21.9648 16.818 17.7043C16.7459 17.5383 16.5582 17.4276 16.3561 17.4276Z" fill="white"/>
<path d="M17.0665 16.7373C16.9944 16.9033 17.0377 17.097 17.1531 17.2491C19.4338 19.9189 22.4506 24.6913 25.1642 26.2821C26.1891 26.8907 27.2572 26.9461 28.3687 26.4619C29.4657 25.9916 30.3606 25.2999 31.2411 23.8613C32.1505 22.3812 32.5691 21.0255 32.5258 19.7944C32.4825 18.5771 31.9484 17.678 30.938 17.0831C30.3029 16.7096 29.4801 16.4883 28.4842 16.4053C27.5026 16.3362 22.465 16.3223 17.5573 16.4053C17.3408 16.4053 17.1387 16.5437 17.0665 16.7373Z" fill="white"/>
<path d="M17.0507 15.202C17.1373 15.3404 17.2961 15.4372 17.4693 15.4372C22.4059 15.5202 27.5012 15.5064 28.4827 15.4372C29.4787 15.3542 30.287 15.1329 30.9366 14.7594C31.947 14.1784 32.4811 13.2654 32.5244 12.0481C32.5677 10.817 32.1491 9.46136 31.2397 7.98123C30.3592 6.5426 29.4643 5.85095 28.3673 5.38063C27.2558 4.89647 26.1877 4.96564 25.1628 5.56046C22.4203 7.16508 19.3746 12.0066 17.094 14.6626C16.9641 14.8147 16.9496 15.0361 17.0507 15.202Z" fill="white"/>
<path d="M15.4623 16.6959C15.3757 16.5161 15.2025 16.4054 15.0004 16.4054C10.0783 16.3224 5.02622 16.3363 4.04468 16.4054C3.0487 16.4884 2.22594 16.7098 1.59083 17.0833C0.580419 17.6642 0.0463451 18.5772 0.00304179 19.7945C-0.0402615 21.0257 0.378337 22.3813 1.28771 23.8614C2.16821 25.3001 3.06314 25.9917 4.16015 26.462C5.27161 26.9462 6.33975 26.877 7.3646 26.2822C10.0927 24.6914 13.1239 19.8914 15.4046 17.2216C15.52 17.0694 15.5489 16.8758 15.4623 16.6959Z" fill="white"/>
<path d="M15.419 15.202C15.3324 15.3542 15.1592 15.4372 14.9715 15.451C10.0638 15.534 5.02622 15.5202 4.04468 15.451C3.04871 15.368 2.22594 15.1467 1.59083 14.7732C0.580419 14.1784 0.0607795 13.2654 0.0030418 12.0481C-0.0402615 10.817 0.378337 9.46136 1.28771 7.98123C2.16821 6.5426 3.06314 5.85095 4.16016 5.38063C5.27161 4.89647 6.33976 4.96564 7.3646 5.56046C10.0927 7.15125 13.1095 11.9236 15.3757 14.5934C15.3901 14.6072 15.3901 14.6211 15.4046 14.6211C15.4046 14.6349 15.5489 14.9254 15.419 15.202Z" fill="white"/>
</svg>
