<svg preserveAspectRatio="none" width="100%" height="100%" overflow="visible" style="display: block;" viewBox="0 0 243.015 64.9724" fill="none" xmlns="http://www.w3.org/2000/svg">
<g id="Group">
<path id="Vector" d="M51.6367 8.60529H42.3488C42.1357 8.60529 41.9227 8.7331 41.8375 8.90352L26.1591 38.0023L10.3104 8.90352C10.3104 8.90352 10.0122 8.60529 9.79921 8.60529H0.553878C0.255647 8.60529 0 8.86092 0 9.15915V63.9484C0 64.2466 0.255647 64.5022 0.553878 64.5022H9.45831C9.75654 64.5022 10.0122 64.2466 10.0122 63.9484V28.2033L23.9439 52.5304C23.9439 52.5304 24.2421 52.8286 24.4551 52.8286H27.6928C27.6928 52.8286 28.0765 52.7008 28.2043 52.5304L42.0931 28.1181V63.9058C42.0931 64.204 42.3488 64.4596 42.647 64.4596H51.5941C51.5941 64.4596 51.8922 64.3744 52.02 64.2892C52.1478 64.1614 52.1904 64.0336 52.1904 63.8632V9.11656C52.1904 8.77572 51.9774 8.5627 51.6791 8.5627L51.6367 8.60529Z" fill="var(--fill-0, white)"/>
<path id="Vector_2" d="M190.996 8.47852H182.646C182.347 8.47852 182.092 8.73415 182.092 9.03238V64.1198C182.092 64.4181 182.347 64.6737 182.646 64.6737H190.996C191.294 64.6737 191.55 64.4181 191.55 64.1198V9.03238C191.55 8.69154 191.337 8.47852 190.996 8.47852Z" fill="var(--fill-0, white)"/>
<path id="Vector_3" d="M168.073 54.3639L162.023 48.2289C161.81 48.0159 161.47 48.0159 161.214 48.2289C156.74 52.4041 152.693 54.9604 146.217 54.9604C136.461 54.9604 129.09 47.0786 129.09 36.5553V36.3849C129.09 31.4002 130.837 26.7989 133.947 23.3905C137.142 19.9396 141.488 18.065 146.217 18.065C151.457 18.065 155.973 20.0674 160.83 24.5835C160.958 24.7113 161.086 24.7539 161.257 24.7539C161.427 24.7539 161.555 24.6687 161.682 24.5835L167.732 17.639C167.903 17.4259 167.903 17.0851 167.732 16.8295C163.344 12.6542 157.337 8.30859 146.388 8.30859C130.326 8.30859 118.184 20.4934 118.184 36.5979V36.7683C118.184 44.3945 121.038 51.4668 126.108 56.7498C131.306 62.0327 138.335 64.9298 146.004 64.9298C152.352 64.9298 159.936 63.7795 168.158 55.2586C168.329 55.0456 168.329 54.7048 168.158 54.4491L168.073 54.3639Z" fill="var(--fill-0, white)"/>
<path id="Vector_4" d="M101.995 36.5979C99.3964 34.5103 95.9881 33.147 91.0886 32.1671C91.0886 32.1671 90.9182 32.1671 90.833 32.0818C90.7478 32.0818 90.6626 32.0818 90.62 32.0818C90.1088 31.954 89.0436 31.741 87.8933 31.528C86.7004 31.315 85.3797 31.0167 85.0389 30.9315C82.0565 30.0794 80.2672 29.3126 79.2021 28.2901C78.1796 27.3528 77.7109 26.1172 77.6257 24.4557V23.8592C77.7962 20.3656 80.4802 17.9372 84.7832 17.3833C85.8483 17.2555 86.8708 17.2129 87.8933 17.2981C92.1963 17.5964 95.8604 19.0875 99.1835 21.7716C99.354 21.942 99.6523 21.942 99.8227 21.8994C99.8227 21.8994 100.121 21.8142 100.249 21.729L105.319 15.7218C105.489 15.5087 105.489 15.1253 105.233 14.9123C99.9503 10.3536 94.1988 8.30859 86.6152 8.30859C75.325 8.30859 67.6988 14.8697 67.6988 24.7113V24.8817C67.6988 29.3978 69.0623 32.8487 71.789 35.4476C74.26 37.7482 77.8388 39.3672 82.6957 40.3897C82.9939 40.4749 83.7607 40.6027 84.5276 40.7731C85.0389 40.9009 85.55 40.9435 85.7631 41.0288C86.1039 41.114 86.8707 41.2418 87.595 41.3696C88.2767 41.4974 88.9586 41.6252 89.1716 41.6678C91.8983 42.3495 93.6877 42.8607 95.0084 43.9259C96.4995 45.1188 97.181 46.5673 97.181 48.7402V48.9106C97.181 52.7876 94.1136 55.3864 89.001 55.7699C88.4472 55.7699 87.8082 55.8551 87.2117 55.8551C86.7005 55.8551 86.1466 55.8551 85.6354 55.8551C80.3524 55.4716 76.2198 53.6823 72.3428 50.1035C72.1724 49.9331 71.9594 49.9331 71.8316 49.9331C71.8316 49.9331 71.5332 50.0183 71.4054 50.1035L65.8669 56.1107C65.6539 56.3237 65.6965 56.6646 65.8669 56.9202C71.6185 62.3735 78.563 64.9724 87.1691 64.9724C99.3539 64.9724 107.151 58.4113 107.151 48.3567V48.1863C107.151 43.2442 105.446 39.3246 101.995 36.6405V36.5979Z" fill="var(--fill-0, white)"/>
<path id="Vector_5" d="M243.015 2.42845C243.015 3.74918 241.907 4.85691 240.587 4.85691C239.266 4.85691 238.158 3.74918 238.158 2.42845C238.158 1.10771 239.266 0 240.587 0C241.907 0 243.015 1.10771 243.015 2.42845Z" fill="var(--fill-0, white)"/>
</g>
</svg>
