<svg preserveAspectRatio="none" width="100%" height="100%" overflow="visible" style="display: block;" viewBox="0 0 7.85367 9.16269" fill="none" xmlns="http://www.w3.org/2000/svg">
<g id="clippath-8">
<path id="Vector" d="M5.89715e-05 4.5814C5.89715e-05 7.232 1.93072 9.16269 4.58132 9.16269C6.15205 9.16269 7.26465 8.41005 7.85367 7.52651L7.1664 7.06839C6.57738 7.98464 5.59575 8.37732 4.58132 8.37732C2.3234 8.37732 0.949067 6.61025 0.949067 4.5814C0.949067 2.55254 2.3234 0.785476 4.58132 0.785476C5.69392 0.785476 6.57756 1.37451 6.93752 1.9308L7.69009 1.3745C7.06835 0.523689 5.85754 0.00011998 4.58132 0.00011998C1.96345 0.00011998 5.89715e-05 1.9308 5.89715e-05 4.5814Z" fill="var(--fill-0, black)"/>
</g>
</svg>
