<svg preserveAspectRatio="none" width="100%" height="100%" overflow="visible" style="display: block;" viewBox="0 0 113.001 110.962" fill="none" xmlns="http://www.w3.org/2000/svg">
<g id="Group">
<g id="Group_2">
<path id="Vector" d="M56.9288 50.315C56.2267 50.3631 55.5247 49.9786 55.1737 49.402L42.7877 29.6988C38.7258 23.3073 36.6699 18.0692 36.6699 13.9844C36.6699 9.65933 38.425 6.24733 41.885 3.7484C45.3451 1.24947 50.1089 0 56.1766 0C62.3947 0 67.4092 1.24947 71.12 3.70034C74.7807 6.15122 76.6361 9.46711 76.6361 13.648C76.6361 16.2911 75.8337 19.2226 74.2792 22.4904C72.7247 25.6621 67.5095 34.6006 58.5334 49.3539C58.2326 49.9306 57.5807 50.267 56.9288 50.315Z" fill="var(--fill-0, white)"/>
</g>
<g id="Group_3">
<path id="Vector_2" d="M56.8261 60.5511C56.1742 60.5511 55.5223 60.8875 55.1712 61.4641L42.7351 81.2634C38.6733 87.6549 36.6173 92.893 36.6173 96.9778C36.6173 101.255 38.3724 104.715 41.8325 107.214C45.2925 109.713 50.0564 110.962 56.124 110.962C62.3421 110.962 67.3567 109.713 71.0675 107.262C74.7281 104.811 76.5835 101.495 76.5835 97.3142C76.5835 94.6711 75.7812 91.7397 74.2266 88.4718C72.6721 85.3001 67.457 76.3136 58.4307 61.5122C58.18 60.9355 57.5281 60.5511 56.8261 60.5511Z" fill="var(--fill-0, white)"/>
</g>
<g id="Group_4">
<path id="Vector_3" d="M59.2808 58.1475C59.03 58.7242 59.1805 59.397 59.5816 59.9256C67.5047 69.2005 77.9851 85.78 87.4126 91.3064C90.9729 93.4209 94.6837 93.6131 98.5449 91.9312C102.356 90.2973 105.465 87.8944 108.524 82.8966C111.683 77.7545 113.137 73.045 112.987 68.768C112.836 64.539 110.981 61.4154 107.471 59.349C105.264 58.0514 102.406 57.2825 98.9461 56.9942C95.5362 56.7539 78.0353 56.7059 60.9857 56.9942C60.2335 56.9942 59.5315 57.4748 59.2808 58.1475Z" fill="var(--fill-0, white)"/>
</g>
<g id="Group_5">
<path id="Vector_4" d="M59.2343 52.8136C59.5351 53.2941 60.0867 53.6305 60.6885 53.6305C77.8384 53.9189 95.5398 53.8708 98.9497 53.6305C102.41 53.3422 105.218 52.5733 107.475 51.2758C110.985 49.2574 112.84 46.0857 112.991 41.8567C113.141 37.5797 111.687 32.8702 108.528 27.7281C105.469 22.7303 102.36 20.3275 98.5486 18.6935C94.6873 17.0116 90.9766 17.2518 87.4162 19.3183C77.8885 24.8928 67.3077 41.7125 59.3847 50.9394C58.9334 51.468 58.8832 52.2369 59.2343 52.8136Z" fill="var(--fill-0, white)"/>
</g>
<g id="Group_6">
<path id="Vector_5" d="M53.7167 58.0042C53.4158 57.3794 52.8141 56.995 52.1121 56.995C35.0123 56.7067 17.4613 56.7547 14.0514 56.995C10.5913 57.2833 7.73302 58.0522 5.52661 59.3498C2.0164 61.3681 0.161005 64.5399 0.0105673 68.7688C-0.13987 73.0458 1.31436 77.7554 4.47354 82.8974C7.53244 87.8953 10.6415 90.2981 14.4526 91.932C18.3138 93.614 22.0246 93.3737 25.5849 91.3073C35.0625 85.7808 45.5931 69.1052 53.5161 59.8303C53.9173 59.3017 54.0176 58.6289 53.7167 58.0042Z" fill="var(--fill-0, white)"/>
</g>
<path id="Vector_6" d="M53.5663 52.8138C53.2654 53.3424 52.6637 53.6308 52.0118 53.6788C34.9622 53.9671 17.4613 53.9191 14.0514 53.6788C10.5913 53.3905 7.73302 52.6216 5.52661 51.324C2.0164 49.2576 0.211151 46.0859 0.0105673 41.8569C-0.13987 37.5799 1.31436 32.8704 4.47354 27.7284C7.53244 22.7305 10.6415 20.3277 14.4526 18.6938C18.3138 17.0118 22.0246 17.2521 25.5849 19.3185C35.0625 24.845 45.543 41.4244 53.4159 50.6993C53.466 50.7474 53.466 50.7954 53.5162 50.7954C53.5162 50.8435 54.0176 51.8527 53.5663 52.8138Z" fill="var(--fill-0, white)"/>
</g>
</svg>
