<svg preserveAspectRatio="none" width="100%" height="100%" overflow="visible" style="display: block;" viewBox="0 0 5.6285 9.16279" fill="none" xmlns="http://www.w3.org/2000/svg">
<g id="clippath">
<path id="Vector" d="M3.04331 0.000211186C1.7671 0.000211186 0.229044 0.720138 0.229044 2.38903C0.229044 3.99248 1.43982 4.48334 2.58514 4.84329C3.69774 5.17053 4.71224 5.49776 4.71224 6.70853C4.71224 7.82113 3.665 8.41015 2.78147 8.41015C1.89794 8.41015 1.14535 7.9193 0.785387 7.29755L5.60682e-05 7.85385C0.621802 8.70466 1.70166 9.16279 2.74881 9.16279C4.1232 9.16279 5.6285 8.41015 5.6285 6.64308C5.6285 4.87602 4.25405 4.51605 3.01056 4.09064C2.02885 3.76341 1.11264 3.50163 1.11264 2.38903C1.11264 1.27644 2.12709 0.752862 2.9779 0.752862C3.82871 0.752862 4.4177 1.11281 4.77765 1.63638L5.49757 1.08009C5.07217 0.523793 4.1886 0.0329416 3.01056 0.0329416L3.04331 0.000211186Z" fill="var(--fill-0, black)"/>
</g>
</svg>
