<svg preserveAspectRatio="none" width="100%" height="100%" overflow="visible" style="display: block;" viewBox="0 0 135.129 132.657" fill="none" xmlns="http://www.w3.org/2000/svg">
<g id="Group 319">
<g id="Ellipse 59" opacity="0.5">
<path d="M67.5645 0C104.879 3.23826e-05 135.129 29.6961 135.129 66.3281C135.129 102.96 104.879 132.657 67.5645 132.657C30.2497 132.657 0 102.96 0 66.3281C0.000180603 29.6961 30.2498 0 67.5645 0Z" fill="var(--fill-0, white)"/>
<path d="M67.5645 0C104.879 3.23826e-05 135.129 29.6961 135.129 66.3281C135.129 102.96 104.879 132.657 67.5645 132.657C30.2497 132.657 0 102.96 0 66.3281C0.000180603 29.6961 30.2498 0 67.5645 0Z" stroke="var(--stroke-0, white)"/>
</g>
<path id="Ellipse 60" d="M135.129 66.3285C135.129 52.3213 130.612 38.6736 122.225 27.3416C113.838 16.0095 102.013 7.57481 88.4429 3.24634C74.8731 -1.08212 60.2557 -1.08211 46.6858 3.24635C33.116 7.57481 21.2903 16.0095 12.9036 27.3416C4.51701 38.6736 -1.24737e-06 52.3213 0 66.3285C1.24737e-06 80.3357 4.51702 93.9833 12.9037 105.315C21.2903 116.647 33.116 125.082 46.6859 129.411C60.2557 133.739 74.8731 133.739 88.4429 129.411L67.5644 66.3285H135.129Z" fill="var(--fill-0, white)"/>
</g>
</svg>
