<svg preserveAspectRatio="none" width="100%" height="100%" overflow="visible" style="display: block;" viewBox="0 0 252 97.9619" fill="none" xmlns="http://www.w3.org/2000/svg">
<g id="Group">
<path id="Vector" fill-rule="evenodd" clip-rule="evenodd" d="M33.2605 4.76634C27.0908 7.3235 22.3012 11.2607 18.2016 15.3603C17.7552 15.8068 17.3898 16.3751 17.0245 16.8215C16.2127 17.6333 15.3197 18.2828 14.5891 19.0946C13.8585 19.8252 13.4932 20.7588 12.8844 21.4894C11.2608 23.3971 9.79955 25.5078 8.70363 27.9026C8.62245 28.2679 8.70359 28.552 8.54123 28.9173C8.46005 29.1203 8.17586 29.3638 8.09468 29.5668C7.93232 30.0133 8.09477 30.3786 7.93241 30.8656C7.77005 31.4339 7.28288 32.0428 7.2017 32.611C7.12052 33.0575 7.20174 33.3416 7.12056 33.7069C6.9582 34.8029 6.30881 36.1017 6.02468 37.1977C5.74055 38.2124 5.94342 38.943 5.94342 40.1201C5.94342 40.4854 5.6593 41.0537 5.57813 41.2972C5.57813 42.109 5.74052 42.6773 5.74052 43.4891C5.74052 43.7732 5.57816 44.0574 5.74052 44.5039C5.8217 44.8692 6.55226 44.9503 6.18695 44.585C7.56701 41.3784 8.54122 37.9283 9.92127 34.5999C10.8143 32.2051 12.1943 30.135 13.2902 27.9432C13.6555 27.2126 14.0209 25.3048 15.2792 25.3048C15.3604 25.3048 15.7257 25.5078 15.9286 25.5078C16.9434 25.8731 18.2827 26.2384 19.3787 26.4413C20.2716 26.6443 21.0835 26.4413 21.8141 26.7255C22.0982 26.8067 22.2606 27.172 22.4635 27.2937C23.5595 27.7402 25.386 27.3749 25.1019 29.2015C25.1019 29.4856 24.8177 29.7697 24.7366 30.0133C24.6554 30.2974 24.8177 30.5815 24.7366 30.9468C24.6554 31.231 24.3713 31.5151 24.2901 31.6774C24.006 32.4892 23.9248 33.3416 23.9248 34.0723C25.0208 32.3269 25.9137 30.4192 27.0096 28.6738C28.2679 28.8361 28.9173 29.3232 29.9321 29.6885C30.4597 29.8915 31.028 29.8915 31.6369 30.0538C31.7993 30.135 32.0834 30.4192 32.3675 30.5003C32.7328 30.5815 33.2605 30.5003 33.6258 30.6627C33.7069 30.6627 33.9099 31.1092 33.9911 31.1092C34.1534 31.2716 34.4375 31.1904 34.7216 31.2715C35.0058 31.4745 35.2494 31.8398 35.5335 32.0022C36.1829 32.3675 36.9136 32.5704 37.4412 32.9357C37.6036 33.1387 38.1719 33.3822 38.2531 33.5852C38.3342 33.6663 38.4153 34.0317 38.4153 34.3158C38.4153 34.7623 35.7771 38.1718 35.3306 38.9836C34.8029 39.9984 33.9505 40.8913 33.4229 41.9873C31.7993 44.9097 30.6221 48.1164 29.0797 51.2418C27.0908 50.9576 25.5484 49.6994 23.7218 49.0499C22.7071 48.6034 21.6518 48.4817 20.4747 48.3193C17.8363 47.751 14.7514 47.0204 11.6666 47.1422H11.3013C10.936 47.2234 10.043 47.3046 9.59649 47.5075C9.51531 47.5887 9.15011 48.0758 8.94716 48.2381L9.02829 48.5222C10.6519 48.7252 12.1131 48.8064 13.6555 49.0905C15.1979 49.3746 16.8216 49.74 18.4452 50.0241C18.8917 50.1053 19.3381 50.5518 19.9064 50.6735C21.1646 51.0388 22.3418 51.2418 23.5189 51.6883C24.0466 51.8506 24.8989 51.9724 25.5078 52.2565C26.2384 52.6218 27.0502 53.1901 27.7808 53.5554C27.6996 54.286 27.4156 54.8543 27.3344 55.4631C27.3344 56.0314 27.4156 56.3967 27.3344 56.8432C27.172 57.2897 26.8067 57.7767 26.6849 58.2232C26.5226 58.7915 26.6849 59.238 26.5225 59.8874C26.5225 60.3339 26.076 60.821 25.9948 61.2675C25.8325 62.2822 25.7107 63.297 25.7107 64.3929L25.9948 64.4741C27.3749 61.1863 28.7144 58.0609 30.1756 54.976C31.0686 55.3414 31.6368 55.7878 32.4486 56.2749C33.9099 57.0867 35.2494 58.0203 36.5482 59.1974C36.7106 59.2786 37.0759 59.4003 37.2788 59.5627C37.4412 59.7657 37.4412 60.0092 37.563 60.2121C37.8471 60.5775 38.3747 60.6586 38.6589 60.9428C39.0242 61.2269 39.0242 61.5922 39.3083 61.8763C39.4707 62.1605 39.9578 62.3228 40.1202 62.5258C40.4043 62.8911 40.5667 63.7029 40.4043 63.2564C40.4043 63.3376 39.9578 63.1752 40.2419 63.6217C40.3231 63.987 41.6219 65.0829 41.9466 65.5294C40.4854 66.9095 38.7806 68.0866 36.8729 69.1825C36.0611 69.629 35.1682 70.4814 34.3158 70.8467C33.1387 71.4149 32.3269 71.8614 31.0686 72.3891L31.1498 72.7544C31.8805 72.6732 32.4081 72.7544 33.1387 72.4703C34.7623 72.105 36.3047 71.0091 37.6848 70.2784C38.5777 69.8319 39.3895 69.5478 40.3231 68.9796C40.9725 68.6142 42.7585 66.9501 43.7732 67.0718C44.0574 67.0718 46.4927 69.1013 47.0204 69.4666C47.548 69.8319 48.2787 69.8319 48.9281 70.1161C48.644 69.1825 48.4004 68.4519 47.9134 67.6401C47.6292 66.9907 46.4521 66.1789 46.5333 65.1641C46.5333 65.0829 46.6957 64.88 46.8175 64.7988C47.9946 63.4999 49.537 62.6069 50.9171 61.4298C51.4448 61.0645 51.9318 60.4151 52.3783 60.0498C53.393 59.238 54.286 58.5885 55.3008 57.8579C57.2897 56.1126 58.9132 54.0019 61.1051 52.2971C62.2822 53.4742 63.094 54.5702 64.5552 55.3008C63.9058 53.5554 63.0128 52.5406 62.2822 50.9171C65.1641 48.1569 67.7213 45.0721 70.2784 42.0279C71.4555 40.6478 72.2674 38.5371 73.7286 37.563C74.2563 38.0095 74.5404 38.4965 75.1086 39.1054C75.8393 40.1201 77.0976 41.0131 77.8282 42.0279C78.9241 43.4079 79.4518 45.3156 81.1971 45.681C80.6695 43.2861 79.0053 41.0131 77.8282 39.3895C77.3817 38.7401 74.6622 36.1829 74.6622 35.5335L74.8245 35.4523C76.0016 33.5446 76.8134 31.5151 77.9094 29.6074C78.0717 29.242 78.5588 28.8767 78.7212 28.5114C79.1677 27.4967 79.6142 26.4008 79.9795 25.5078C80.1418 25.1425 80.1418 24.7772 80.3448 24.493C80.426 24.3307 80.6289 24.4119 80.7101 24.3307C81.8872 25.9949 83.6325 27.172 84.972 28.7144C84.6067 27.9838 84.079 27.5373 83.7137 26.8878C83.186 26.076 82.8207 25.1425 82.1712 24.4119C82.0089 24.2089 81.4406 24.1277 81.2783 23.8436C81.1971 23.6406 81.1971 23.113 81.1971 22.91C81.1971 22.2606 81.6436 21.4488 81.7248 20.637C81.3595 21.2864 80.913 21.8141 80.2635 22.3012C78.0717 20.2717 76.0016 17.9987 73.8097 15.888C72.1861 14.2238 70.1972 12.9655 68.4518 11.4231C68.533 11.4231 68.4518 11.2201 68.4518 11.139C68.8171 10.8548 69.3449 10.6925 69.629 10.4083C69.7913 10.1242 69.9132 9.7589 70.0755 9.47477C68.9796 9.19064 67.5184 10.2054 66.5442 9.92126C66.3819 9.84008 66.0977 9.47477 65.8948 9.353C65.2453 8.98769 64.3524 8.62238 63.6218 8.25707C62.3635 7.60763 60.9834 7.24232 59.6439 6.79583C58.9945 6.5117 58.3857 5.98403 57.655 5.6999C55.9503 5.13165 54.2049 4.96929 52.2971 4.5228C51.9318 4.44162 51.2823 4.07631 50.8358 4.07631C53.0277 3.711 54.4484 4.15749 56.1937 4.15749C60.0092 4.15749 63.6217 4.60398 66.9095 5.6999C68.0055 6.06521 69.1013 6.79584 70.1567 7.24233C70.8873 7.52645 71.6991 7.60763 72.3486 7.97294C73.3633 8.41943 74.1751 9.35299 75.1493 9.88066C76.6105 10.8142 78.1529 11.4231 79.5736 12.4378C80.7507 13.2496 81.6436 14.4673 82.7396 15.4415C83.1049 15.8068 83.5514 16.0097 83.9167 16.2533C84.9315 17.1868 85.5402 18.5263 86.2709 19.6222C87.3668 21.2864 88.7063 22.9912 90.0052 24.4524C88.544 20.5964 86.3926 17.7957 84.1196 15.0356C83.389 14.2238 82.8613 13.2902 82.0495 12.6408C81.7654 12.3566 81.4001 12.3566 81.2378 12.1943C80.5071 11.5448 79.9794 10.8954 79.2488 10.2866C78.5182 9.63713 77.5441 9.27182 76.6917 8.74415C74.8652 7.44527 73.1603 6.10581 71.2526 5.17224C70.1566 4.60398 69.0607 4.44162 68.0054 4.07631C61.9169 1.88446 55.7473 0.869708 47.5076 1.68151C42.4338 2.12799 37.5224 3.22392 33.4634 4.96929L33.2605 4.76634ZM72.6327 33.5852C71.5368 32.2051 70.2784 31.028 69.1013 29.8509C66.7471 27.4561 64.6771 25.1831 62.2011 23.0724C60.6587 21.6923 58.2232 20.5964 57.0461 18.851C59.4003 16.7404 61.7545 14.9138 64.5552 13.1684C65.0017 12.8031 65.6512 12.0725 66.2601 11.8696C67.1531 11.5854 67.4371 12.4378 67.9648 12.8031C71.9426 15.1979 74.9462 18.2016 78.234 21.6923C78.5182 22.1388 79.4924 22.6259 79.5736 23.2347C79.6547 24.2495 76.9352 27.2531 76.4076 28.1867C75.2304 30.0133 74.4186 32.4081 72.5921 33.5852H72.6327ZM42.0684 35.8582C42.5961 35.8582 46.8581 39.3489 47.5076 39.8766C48.8876 41.0537 50.3082 42.1496 51.6071 43.3673C52.4189 44.1791 53.0683 45.1127 53.8801 45.9245C54.5295 46.4928 55.2602 46.6551 56.072 47.1016C56.9649 47.5481 58.4262 49.3746 58.9944 50.3894C57.9797 51.9318 56.072 53.0277 54.7326 54.3266C54.0831 54.976 53.4742 55.7878 52.906 56.4373C52.1753 57.0867 51.3636 57.5332 50.6329 58.2638C50.4706 58.4668 50.2676 58.9133 50.1053 59.0756C49.6588 59.4409 49.2123 59.6439 48.7252 60.0092C47.4669 61.1051 46.5334 62.2822 44.8286 63.1346C42.1903 60.6586 39.7549 58.3044 36.9542 56.1937C35.7771 55.3819 34.5999 54.5295 33.3416 53.7989C32.5298 53.3524 31.8804 53.1495 31.3527 52.3377C31.5151 51.9724 31.8804 51.6071 32.0022 51.323C32.2863 50.7547 32.2863 50.227 32.5299 49.7805C32.9764 49.0499 33.707 48.4005 34.0723 47.6699C34.6 46.7363 34.8841 45.8433 35.5335 44.9097C36.4265 43.4485 37.6036 42.1496 38.456 40.6884C39.1866 39.5113 40.0796 38.4154 40.8914 37.1977C41.0537 36.9135 41.1755 36.5482 41.3378 36.2641C41.5002 36.0611 41.8655 35.8176 42.1497 35.8176L42.0684 35.8582ZM47.8729 28.2679C48.4005 27.6996 48.7658 26.969 49.2529 26.4413C49.9023 25.7919 50.5112 25.5078 51.1606 24.8989C51.6883 24.3307 52.0536 23.803 52.7031 23.1536C53.0684 22.8694 54.1642 21.4082 54.5295 21.2458C55.179 20.9617 57.3302 22.7071 57.6955 23.0724C59.4003 24.3713 61.3081 25.5484 62.8505 27.0096C65.8542 29.7697 68.736 32.5704 71.5367 35.5335C70.8061 37.0759 69.7102 38.3748 68.6142 39.6331C68.1677 40.2013 67.8837 40.8102 67.5184 41.4596C66.3412 43.1238 64.7988 44.4633 63.4187 45.9245C62.5258 46.9392 61.9575 48.0352 60.618 48.6846C57.2491 44.6662 53.9207 40.8102 50.1053 37.5224C48.1975 35.8582 45.8433 34.6811 44.0168 32.8545C45.0315 31.1092 46.5739 29.648 47.8322 28.2679H47.8729ZM31.2716 22.0576C31.7993 21.327 32.2862 20.3935 32.8139 19.7846C34.2751 18.0392 35.6959 16.4968 37.4412 15.0356C37.8065 14.6703 38.3342 13.7367 38.8213 13.6555C39.5519 13.3714 40.2014 14.0208 40.6479 14.102C40.932 14.102 41.0944 14.0208 41.2973 14.102C42.6774 14.3861 44.6662 15.5632 45.9245 16.1315C47.9134 17.0651 50.2677 17.6739 51.8101 19.4193C50.3488 20.7182 49.0094 22.1794 47.6293 23.4377C46.371 24.6148 45.1939 25.7107 44.0168 27.0096C43.2861 27.7402 42.8397 28.755 42.109 29.4856C41.7437 29.9321 41.0943 30.2974 40.8508 30.7845C40.7696 30.9874 40.4042 30.7845 40.3231 30.7845C39.5113 30.5003 38.6994 29.8509 37.8877 29.4856C35.0869 28.1055 32.2458 26.7255 28.9986 25.8325C29.4451 24.4524 30.4598 23.1942 31.3527 22.0982L31.2716 22.0576ZM29.2826 11.2607C29.8103 11.2607 30.7439 11.829 31.2716 11.9913C32.6517 12.4378 34.2752 12.6408 35.6959 12.9249C33.7882 15.1979 31.5963 17.2274 29.9727 19.5817C29.6886 20.0281 29.0796 20.3935 28.8767 20.9617C28.7955 21.1647 28.8767 21.327 28.8767 21.53C28.5926 22.6259 27.2531 24.5336 26.5225 25.386C24.696 24.7366 22.3417 24.5742 20.2716 24.4524C18.7292 24.3713 16.9028 24.5336 15.2792 24.3713C17.8363 19.9064 21.9765 16.4968 26.1572 13.209C26.8067 12.6408 28.065 11.1795 29.2421 11.3013L29.2826 11.2607ZM46.8581 4.23867C48.1976 4.23867 49.6587 4.96929 50.8358 5.33459C55.9908 6.71465 59.8874 8.33825 64.2711 10.6519C62.0792 11.9508 59.928 12.9249 57.9391 14.305C56.8431 15.0356 55.8691 15.8474 54.8543 16.6998C54.692 16.7809 54.5702 17.1463 54.3266 17.2274C54.1643 17.3086 53.9613 17.2274 53.7989 17.1463C53.5148 17.0651 53.3524 16.6998 53.1495 16.578C51.8912 15.8474 50.5923 15.0356 49.334 14.3861C47.1422 13.3714 45.0721 12.2755 42.7179 11.626C42.7179 11.5448 42.7179 11.2607 42.6367 11.2607C43.895 10.3271 45.4375 9.71831 46.6146 8.70356C47.0611 8.41943 47.1422 7.76999 47.6293 7.40468C47.5481 7.3235 47.3452 7.20173 47.3452 7.12055C46.0057 7.76999 44.7068 7.93234 43.2455 8.5006C42.1496 8.86591 40.0796 10.4083 39.1461 10.5301C38.2531 10.6113 37.0759 10.0836 36.1423 9.96184C34.5187 9.75889 32.4081 9.75889 30.8657 9.75889C32.9358 8.29766 35.4118 7.28291 38.1313 6.18699C38.659 5.98404 39.3895 5.53755 39.9578 5.37519C42.2308 4.56339 44.3821 4.19808 46.8581 4.19808V4.23867Z" fill="var(--fill-0, white)"/>
<path id="Vector_2" d="M33.2605 4.76634C27.0908 7.3235 22.3012 11.2607 18.2016 15.3603C17.7552 15.8068 17.3898 16.3751 17.0245 16.8215C16.2127 17.6333 15.3197 18.2828 14.5891 19.0946C13.8585 19.8252 13.4932 20.7588 12.8844 21.4894C11.2608 23.3971 9.79955 25.5078 8.70363 27.9026C8.62245 28.2679 8.70359 28.552 8.54123 28.9173C8.46005 29.1203 8.17586 29.3638 8.09468 29.5668C7.93232 30.0133 8.09477 30.3786 7.93241 30.8656C7.77005 31.4339 7.28288 32.0428 7.2017 32.611C7.12052 33.0575 7.20174 33.3416 7.12056 33.7069C6.9582 34.8029 6.30881 36.1017 6.02468 37.1977C5.74055 38.2124 5.94342 38.943 5.94342 40.1201C5.94342 40.4854 5.6593 41.0537 5.57813 41.2972C5.57813 42.109 5.74052 42.6773 5.74052 43.4891C5.74052 43.7732 5.57816 44.0574 5.74052 44.5039C5.8217 44.8692 6.55226 44.9503 6.18695 44.585C7.56701 41.3784 8.54122 37.9283 9.92127 34.5999C10.8143 32.2051 12.1943 30.135 13.2902 27.9432C13.6555 27.2126 14.0209 25.3048 15.2792 25.3048C15.2792 25.3048 15.7257 25.5078 15.9286 25.5078C16.9434 25.8731 18.2827 26.2384 19.3787 26.4413C20.2716 26.6443 21.0835 26.4413 21.8141 26.7255C22.0982 26.8067 22.2606 27.172 22.4635 27.2937C23.5595 27.7402 25.386 27.3749 25.1019 29.2015C25.1019 29.4856 24.8177 29.7697 24.7366 30.0133C24.6554 30.2974 24.8177 30.5815 24.7366 30.9468C24.6554 31.231 24.3713 31.5151 24.2901 31.6774C24.006 32.4892 23.9248 33.3416 23.9248 34.0723C25.0208 32.3269 25.9137 30.4192 27.0096 28.6738C28.2679 28.8361 28.9173 29.3232 29.9321 29.6885C30.4597 29.8915 31.028 29.8915 31.6369 30.0538C31.7993 30.135 32.0834 30.4192 32.3675 30.5003C32.7328 30.5815 33.2605 30.5003 33.6258 30.6627C33.7069 30.6627 33.9099 31.1092 33.9911 31.1092C34.1534 31.2716 34.4375 31.1904 34.7216 31.2715C35.0058 31.4745 35.2494 31.8398 35.5335 32.0022C36.1829 32.3675 36.9136 32.5704 37.4412 32.9357C37.6036 33.1387 38.1719 33.3822 38.2531 33.5852C38.3342 33.6663 38.4153 34.0317 38.4153 34.3158C38.4153 34.7623 35.7771 38.1718 35.3306 38.9836C34.8029 39.9984 33.9505 40.8913 33.4229 41.9873C31.7993 44.9097 30.6221 48.1164 29.0797 51.2418C27.0908 50.9576 25.5484 49.6994 23.7218 49.0499C22.7071 48.6034 21.6518 48.4817 20.4747 48.3193C17.8363 47.751 14.7514 47.0204 11.6666 47.1422H11.3013C10.936 47.2234 10.043 47.3046 9.59649 47.5075C9.51531 47.5887 9.15011 48.0758 8.94716 48.2381L9.02829 48.5222C10.6519 48.7252 12.1131 48.8064 13.6555 49.0905C15.1979 49.3746 16.8216 49.74 18.4452 50.0241C18.8917 50.1053 19.3381 50.5518 19.9064 50.6735C21.1646 51.0388 22.3418 51.2418 23.5189 51.6883C24.0466 51.8506 24.8989 51.9724 25.5078 52.2565C26.2384 52.6218 27.0502 53.1901 27.7808 53.5554C27.6996 54.286 27.4156 54.8543 27.3344 55.4631C27.3344 56.0314 27.4156 56.3967 27.3344 56.8432C27.172 57.2897 26.8067 57.7767 26.6849 58.2232C26.5226 58.7915 26.6849 59.238 26.5225 59.8874C26.5225 60.3339 26.076 60.821 25.9948 61.2675C25.8325 62.2822 25.7107 63.297 25.7107 64.3929L25.9948 64.4741C27.3749 61.1863 28.7144 58.0609 30.1756 54.976C31.0686 55.3414 31.6368 55.7878 32.4486 56.2749C33.9099 57.0867 35.2494 58.0203 36.5482 59.1974C36.7106 59.2786 37.0759 59.4003 37.2788 59.5627C37.4412 59.7657 37.4412 60.0092 37.563 60.2121C37.8471 60.5775 38.3747 60.6586 38.6589 60.9428C39.0242 61.2269 39.0242 61.5922 39.3083 61.8763C39.4707 62.1605 39.9578 62.3228 40.1202 62.5258C40.4043 62.8911 40.5667 63.7029 40.4043 63.2564C40.4043 63.2564 39.9578 63.1752 40.2419 63.6217C40.3231 63.987 41.6219 65.0829 41.9466 65.5294C40.4854 66.9095 38.7806 68.0866 36.8729 69.1825C36.0611 69.629 35.1682 70.4814 34.3158 70.8467C33.1387 71.4149 32.3269 71.8614 31.0686 72.3891L31.1498 72.7544C31.8805 72.6732 32.4081 72.7544 33.1387 72.4703C34.7623 72.105 36.3047 71.0091 37.6848 70.2784C38.5777 69.8319 39.3895 69.5478 40.3231 68.9796C40.9725 68.6142 42.7585 66.9501 43.7732 67.0718C44.0574 67.0718 46.4927 69.1013 47.0204 69.4666C47.548 69.8319 48.2787 69.8319 48.9281 70.1161C48.644 69.1825 48.4004 68.4519 47.9134 67.6401C47.6292 66.9907 46.4521 66.1789 46.5333 65.1641C46.5333 65.1641 46.6957 64.88 46.8175 64.7988C47.9946 63.4999 49.537 62.6069 50.9171 61.4298C51.4448 61.0645 51.9318 60.4151 52.3783 60.0498C53.393 59.238 54.286 58.5885 55.3008 57.8579C57.2897 56.1126 58.9132 54.0019 61.1051 52.2971C62.2822 53.4742 63.094 54.5702 64.5552 55.3008C63.9058 53.5554 63.0128 52.5406 62.2822 50.9171C65.1641 48.1569 67.7213 45.0721 70.2784 42.0279C71.4555 40.6478 72.2674 38.5371 73.7286 37.563C74.2563 38.0095 74.5404 38.4965 75.1086 39.1054C75.8393 40.1201 77.0976 41.0131 77.8282 42.0279C78.9241 43.4079 79.4518 45.3156 81.1971 45.681C80.6695 43.2861 79.0053 41.0131 77.8282 39.3895C77.3817 38.7401 74.6622 36.1829 74.6622 35.5335L74.8245 35.4523C76.0016 33.5446 76.8134 31.5151 77.9094 29.6074C78.0717 29.242 78.5588 28.8767 78.7212 28.5114C79.1677 27.4967 79.6142 26.4008 79.9795 25.5078C80.1418 25.1425 80.1418 24.7772 80.3448 24.493C80.426 24.3307 80.6289 24.4119 80.7101 24.3307C81.8872 25.9949 83.6325 27.172 84.972 28.7144C84.6067 27.9838 84.079 27.5373 83.7137 26.8878C83.186 26.076 82.8207 25.1425 82.1712 24.4119C82.0089 24.2089 81.4406 24.1277 81.2783 23.8436C81.1971 23.6406 81.1971 23.113 81.1971 22.91C81.1971 22.2606 81.6436 21.4488 81.7248 20.637C81.3595 21.2864 80.913 21.8141 80.2635 22.3012C78.0717 20.2717 76.0016 17.9987 73.8097 15.888C72.1861 14.2238 70.1972 12.9655 68.4518 11.4231V11.139C68.8171 10.8548 69.3449 10.6925 69.629 10.4083C69.7913 10.1242 69.9132 9.7589 70.0755 9.47477C68.9796 9.19064 67.5184 10.2054 66.5442 9.92126C66.3819 9.84008 66.0977 9.47477 65.8948 9.353C65.2453 8.98769 64.3524 8.62238 63.6218 8.25707C62.3635 7.60763 60.9834 7.24232 59.6439 6.79583C58.9945 6.5117 58.3857 5.98403 57.655 5.6999C55.9503 5.13165 54.2049 4.96929 52.2971 4.5228C51.9318 4.44162 51.2823 4.07631 50.8358 4.07631C53.0277 3.711 54.4484 4.15749 56.1937 4.15749C60.0092 4.15749 63.6217 4.60398 66.9095 5.6999C68.0055 6.06521 69.1013 6.79584 70.1567 7.24233C70.8873 7.52645 71.6991 7.60763 72.3486 7.97294C73.3633 8.41943 74.1751 9.35299 75.1493 9.88066C76.6105 10.8142 78.1529 11.4231 79.5736 12.4378C80.7507 13.2496 81.6436 14.4673 82.7396 15.4415C83.1049 15.8068 83.5514 16.0097 83.9167 16.2533C84.9315 17.1868 85.5402 18.5263 86.2709 19.6222C87.3668 21.2864 88.7063 22.9912 90.0052 24.4524C88.544 20.5964 86.3926 17.7957 84.1196 15.0356C83.389 14.2238 82.8613 13.2902 82.0495 12.6408C81.7654 12.3566 81.4001 12.3566 81.2378 12.1943C80.5071 11.5448 79.9794 10.8954 79.2488 10.2866C78.5182 9.63713 77.5441 9.27182 76.6917 8.74415C74.8652 7.44527 73.1603 6.10581 71.2526 5.17224C70.1566 4.60398 69.0607 4.44162 68.0054 4.07631C61.9169 1.88446 55.7473 0.869708 47.5076 1.68151C42.4338 2.12799 37.5224 3.22392 33.4634 4.96929L33.2605 4.76634ZM72.6327 33.5852C71.5368 32.2051 70.2784 31.028 69.1013 29.8509C66.7471 27.4561 64.6771 25.1831 62.2011 23.0724C60.6587 21.6923 58.2232 20.5964 57.0461 18.851C59.4003 16.7404 61.7545 14.9138 64.5552 13.1684C65.0017 12.8031 65.6512 12.0725 66.2601 11.8696C67.1531 11.5854 67.4371 12.4378 67.9648 12.8031C71.9426 15.1979 74.9462 18.2016 78.234 21.6923C78.5182 22.1388 79.4924 22.6259 79.5736 23.2347C79.6547 24.2495 76.9352 27.2531 76.4076 28.1867C75.2304 30.0133 74.4186 32.4081 72.5921 33.5852H72.6327ZM42.0684 35.8582C42.5961 35.8582 46.8581 39.3489 47.5076 39.8766C48.8876 41.0537 50.3082 42.1496 51.6071 43.3673C52.4189 44.1791 53.0683 45.1127 53.8801 45.9245C54.5295 46.4928 55.2602 46.6551 56.072 47.1016C56.9649 47.5481 58.4262 49.3746 58.9944 50.3894C57.9797 51.9318 56.072 53.0277 54.7326 54.3266C54.0831 54.976 53.4742 55.7878 52.906 56.4373C52.1753 57.0867 51.3636 57.5332 50.6329 58.2638C50.4706 58.4668 50.2676 58.9133 50.1053 59.0756C49.6588 59.4409 49.2123 59.6439 48.7252 60.0092C47.4669 61.1051 46.5334 62.2822 44.8286 63.1346C42.1903 60.6586 39.7549 58.3044 36.9542 56.1937C35.7771 55.3819 34.5999 54.5295 33.3416 53.7989C32.5298 53.3524 31.8804 53.1495 31.3527 52.3377C31.5151 51.9724 31.8804 51.6071 32.0022 51.323C32.2863 50.7547 32.2863 50.227 32.5299 49.7805C32.9764 49.0499 33.707 48.4005 34.0723 47.6699C34.6 46.7363 34.8841 45.8433 35.5335 44.9097C36.4265 43.4485 37.6036 42.1496 38.456 40.6884C39.1866 39.5113 40.0796 38.4154 40.8914 37.1977C41.0537 36.9135 41.1755 36.5482 41.3378 36.2641C41.5002 36.0611 41.8655 35.8176 42.1497 35.8176L42.0684 35.8582ZM47.8729 28.2679C48.4005 27.6996 48.7658 26.969 49.2529 26.4413C49.9023 25.7919 50.5112 25.5078 51.1606 24.8989C51.6883 24.3307 52.0536 23.803 52.7031 23.1536C53.0684 22.8694 54.1642 21.4082 54.5295 21.2458C55.179 20.9617 57.3302 22.7071 57.6955 23.0724C59.4003 24.3713 61.3081 25.5484 62.8505 27.0096C65.8542 29.7697 68.736 32.5704 71.5367 35.5335C70.8061 37.0759 69.7102 38.3748 68.6142 39.6331C68.1677 40.2013 67.8837 40.8102 67.5184 41.4596C66.3412 43.1238 64.7988 44.4633 63.4187 45.9245C62.5258 46.9392 61.9575 48.0352 60.618 48.6846C57.2491 44.6662 53.9207 40.8102 50.1053 37.5224C48.1975 35.8582 45.8433 34.6811 44.0168 32.8545C45.0315 31.1092 46.5739 29.648 47.8322 28.2679H47.8729ZM31.2716 22.0576C31.7993 21.327 32.2862 20.3935 32.8139 19.7846C34.2751 18.0392 35.6959 16.4968 37.4412 15.0356C37.8065 14.6703 38.3342 13.7367 38.8213 13.6555C39.5519 13.3714 40.2014 14.0208 40.6479 14.102C40.932 14.102 41.0944 14.0208 41.2973 14.102C42.6774 14.3861 44.6662 15.5632 45.9245 16.1315C47.9134 17.0651 50.2677 17.6739 51.8101 19.4193C50.3488 20.7182 49.0094 22.1794 47.6293 23.4377C46.371 24.6148 45.1939 25.7107 44.0168 27.0096C43.2861 27.7402 42.8397 28.755 42.109 29.4856C41.7437 29.9321 41.0943 30.2974 40.8508 30.7845C40.7696 30.9874 40.4042 30.7845 40.3231 30.7845C39.5113 30.5003 38.6994 29.8509 37.8877 29.4856C35.0869 28.1055 32.2458 26.7255 28.9986 25.8325C29.4451 24.4524 30.4598 23.1942 31.3527 22.0982L31.2716 22.0576ZM29.2826 11.2607C29.8103 11.2607 30.7439 11.829 31.2716 11.9913C32.6517 12.4378 34.2752 12.6408 35.6959 12.9249C33.7882 15.1979 31.5963 17.2274 29.9727 19.5817C29.6886 20.0281 29.0796 20.3935 28.8767 20.9617C28.7955 21.1647 28.8767 21.327 28.8767 21.53C28.5926 22.6259 27.2531 24.5336 26.5225 25.386C24.696 24.7366 22.3417 24.5742 20.2716 24.4524C18.7292 24.3713 16.9028 24.5336 15.2792 24.3713C17.8363 19.9064 21.9765 16.4968 26.1572 13.209C26.8067 12.6408 28.065 11.1795 29.2421 11.3013L29.2826 11.2607ZM46.8581 4.23867C48.1976 4.23867 49.6587 4.96929 50.8358 5.33459C55.9908 6.71465 59.8874 8.33825 64.2711 10.6519C62.0792 11.9508 59.928 12.9249 57.9391 14.305C56.8431 15.0356 55.8691 15.8474 54.8543 16.6998C54.692 16.7809 54.5702 17.1463 54.3266 17.2274C54.1643 17.3086 53.9613 17.2274 53.7989 17.1463C53.5148 17.0651 53.3524 16.6998 53.1495 16.578C51.8912 15.8474 50.5923 15.0356 49.334 14.3861C47.1422 13.3714 45.0721 12.2755 42.7179 11.626C42.7179 11.626 42.7179 11.2607 42.6367 11.2607C43.895 10.3271 45.4375 9.71831 46.6146 8.70356C47.0611 8.41943 47.1422 7.76999 47.6293 7.40468C47.5481 7.3235 47.3452 7.12055 47.3452 7.12055C46.0057 7.76999 44.7068 7.93234 43.2455 8.5006C42.1496 8.86591 40.0796 10.4083 39.1461 10.5301C38.2531 10.6113 37.0759 10.0836 36.1423 9.96184C34.5187 9.75889 32.4081 9.75889 30.8657 9.75889C32.9358 8.29766 35.4118 7.28291 38.1313 6.18699C38.659 5.98404 39.3895 5.53755 39.9578 5.37519C42.2308 4.56339 44.3821 4.19808 46.8581 4.19808V4.23867Z" stroke="var(--stroke-0, white)" stroke-width="0.284129" stroke-miterlimit="2.61"/>
<path id="Vector_3" fill-rule="evenodd" clip-rule="evenodd" d="M86.6768 32.2858C86.3115 31.5552 85.865 30.4593 85.4185 29.7287C85.2562 29.4445 84.8908 29.1604 84.7691 28.9169C84.3226 27.9021 84.7691 27.9833 85.1344 28.5516C86.758 30.8246 88.138 33.1382 89.3151 35.8577C89.4775 36.426 90.2081 37.4002 90.2081 38.1308C90.2081 38.4149 89.7616 38.3337 89.7616 38.3337C88.5844 36.5884 87.7727 34.3153 86.6768 32.2858Z" fill="var(--fill-0, white)" stroke="var(--stroke-0, #928F35)" stroke-width="0.284129" stroke-miterlimit="2.61"/>
<path id="Vector_4" fill-rule="evenodd" clip-rule="evenodd" d="M96.8651 51.2421H55.2199L67.478 63.7844C64.4744 67.884 56.8841 76.489 44.2606 75.4743C19.3384 73.6478 11.9917 52.541 13.3311 40.1611C15.32 21.6927 23.5598 14.1024 38.6187 6.51207C48.3197 1.68187 63.0131 2.65603 63.0131 2.65603C56.194 -1.36237 39.9581 -0.266448 33.829 2.29072C15.6041 10.0434 0.545326 25.224 0.017657 48.8473C-0.712961 75.7178 21.3273 97.7582 48.0761 97.9611C62.6884 98.0423 75.7584 91.6697 84.7288 81.4004L96.6216 93.5774L96.9057 51.2421H96.8651Z" fill="var(--fill-0, white)"/>
<path id="Vector_5" fill-rule="evenodd" clip-rule="evenodd" d="M117.728 95.0404V95.4057C115.82 95.3245 114.197 95.3245 112.817 95.3245C111.558 95.3245 110.016 95.3245 108.189 95.4057V95.0404C110.26 94.5939 110.381 92.7674 110.381 88.546V78.5609C110.381 77.1808 109.935 76.5314 108.555 76.1661V75.8008C110.097 75.882 111.558 75.882 112.817 75.882C114.197 75.882 115.617 75.882 117.363 75.8008V76.1661C115.983 76.4502 115.455 77.1808 115.455 78.5609V88.546C115.455 92.8485 115.617 94.5939 117.728 95.0404Z" fill="var(--fill-0, white)"/>
<path id="Vector_6" fill-rule="evenodd" clip-rule="evenodd" d="M118.337 95.1211C120.245 94.4717 120.326 92.7263 120.326 89.3574V84.243C120.326 82.0512 120.164 81.2394 118.622 81.1176V80.8335C120.895 80.5494 122.802 80.1841 124.345 79.7376V83.1065C125.359 80.5494 127.145 79.3723 129.703 79.3723C133.802 79.3723 135.669 81.7671 135.669 86.6784V89.3168C135.669 92.8075 135.75 94.5123 137.658 95.0805V95.3647C136.197 95.2835 134.857 95.2835 133.477 95.2835C132.382 95.2835 131.042 95.2835 129.5 95.3647V95.0805C131.326 94.4311 131.407 92.8887 131.407 89.7633V86.922C131.407 82.9036 130.514 80.9958 128.322 80.9958C126.131 80.9958 124.588 83.1877 124.588 86.922V89.0326C124.588 92.6857 124.588 94.5123 126.496 95.0805V95.3647C125.035 95.2835 123.695 95.2835 122.396 95.2835C121.219 95.2835 119.839 95.2835 118.297 95.3647V95.0805L118.337 95.1211Z" fill="var(--fill-0, white)"/>
<path id="Vector_7" fill-rule="evenodd" clip-rule="evenodd" d="M143.746 85.2559V89.3555C143.746 92.8462 143.827 94.551 145.654 95.0381V95.4033C144.273 95.3222 142.934 95.3222 141.554 95.3222C140.377 95.3222 139.119 95.3222 137.576 95.4033V95.0381C139.403 94.4698 139.484 92.8462 139.484 89.5584V84.2411C139.484 82.0493 139.403 81.2375 137.86 81.1157V80.7504C140.133 80.4663 142.122 80.101 143.827 79.7357C143.746 81.481 143.746 83.3076 143.746 85.2153V85.2559ZM141.554 73.5254C142.934 73.5254 143.908 74.5401 143.908 75.9202C143.908 77.3003 142.893 78.315 141.554 78.315C140.214 78.315 139.281 77.3003 139.281 75.9202C139.281 74.5401 140.296 73.5254 141.554 73.5254Z" fill="var(--fill-0, white)"/>
<path id="Vector_8" fill-rule="evenodd" clip-rule="evenodd" d="M154.259 95.0374V95.4027H154.34C154.34 95.4027 152.513 95.4027 149.063 95.3215C148.049 94.875 147.967 93.292 147.967 90.6537V81.2368H146.344L146.506 80.425C148.86 79.1261 150.606 77.5025 151.864 75.2295H152.31C152.229 76.1631 152.148 77.4213 152.148 78.9638V80.0597H155.598L155.233 81.2368H152.148V88.0965C152.148 92.399 152.31 94.5097 154.218 95.0374H154.259Z" fill="var(--fill-0, white)"/>
<path id="Vector_9" fill-rule="evenodd" clip-rule="evenodd" d="M162.418 85.2559V89.3555C162.418 92.8462 162.499 94.551 164.326 95.0381V95.4033C162.945 95.3222 161.606 95.3222 160.226 95.3222C159.049 95.3222 157.79 95.3222 156.248 95.4033V95.0381C158.075 94.4698 158.156 92.8462 158.156 89.5584V84.2411C158.156 82.0493 158.075 81.2375 156.532 81.1157V80.7504C158.805 80.4663 160.794 80.101 162.499 79.7357C162.418 81.481 162.418 83.3076 162.418 85.2153V85.2559ZM160.226 73.5254C161.484 73.5254 162.499 74.5401 162.499 75.9202C162.499 77.3003 161.484 78.315 160.226 78.315C158.846 78.315 157.872 77.3003 157.872 75.9202C157.872 74.5401 158.886 73.5254 160.226 73.5254Z" fill="var(--fill-0, white)"/>
<path id="Vector_10" fill-rule="evenodd" clip-rule="evenodd" d="M181.819 95.4027C180.561 95.4027 179.383 95.3215 178.085 95.3215H176.826C176.38 94.5909 176.015 93.8603 175.812 92.8455C174.634 94.875 173.173 95.768 170.9 95.768C167.166 95.768 164.73 93.6573 164.73 91.019C164.73 87.65 168.262 85.9858 175.446 85.7017V85.6205C175.446 82.0486 174.188 80.2221 171.915 80.2221C169.642 80.2221 168.181 81.8863 167.288 85.3364H166.841L165.461 80.8715C167.734 79.8568 170.007 79.3291 172.443 79.3291C175.243 79.3291 177.354 80.0597 178.531 81.3586C179.789 82.7387 179.789 84.484 179.789 86.8382V88.2183C179.789 92.5208 179.952 94.5097 181.778 94.875V95.4433L181.819 95.4027ZM174.756 86.5947C171.59 86.5947 169.845 88.1371 169.845 90.8972C169.845 93.0891 170.86 94.388 172.28 94.388C174.634 94.388 175.446 92.1149 175.446 87.5283V86.5947H174.716H174.756Z" fill="var(--fill-0, white)"/>
<path id="Vector_11" fill-rule="evenodd" clip-rule="evenodd" d="M190.181 95.0374V95.4027H190.262C190.262 95.4027 188.435 95.4027 184.985 95.3215C183.97 94.875 183.889 93.292 183.889 90.6537V81.2368H182.266L182.428 80.425C184.782 79.1261 186.528 77.5025 187.786 75.2295H188.232C188.151 76.1631 188.07 77.4213 188.07 78.9638V80.0597H191.52L191.155 81.2368H188.07V88.0965C188.07 92.399 188.232 94.5097 190.14 95.0374H190.181Z" fill="var(--fill-0, white)"/>
<path id="Vector_12" fill-rule="evenodd" clip-rule="evenodd" d="M198.34 85.2559V89.3555C198.34 92.8462 198.421 94.551 200.247 95.0381V95.4033C198.867 95.3222 197.528 95.3222 196.148 95.3222C194.971 95.3222 193.712 95.3222 192.17 95.4033V95.0381C193.996 94.4698 194.078 92.8462 194.078 89.5584V84.2411C194.078 82.0493 193.996 81.2375 192.454 81.1157V80.7504C194.727 80.4663 196.716 80.101 198.421 79.7357C198.34 81.481 198.34 83.3076 198.34 85.2153V85.2559ZM196.148 73.5254C197.406 73.5254 198.421 74.5401 198.421 75.9202C198.421 77.3003 197.406 78.315 196.148 78.315C194.768 78.315 193.793 77.3003 193.793 75.9202C193.793 74.5401 194.889 73.5254 196.148 73.5254Z" fill="var(--fill-0, white)"/>
<path id="Vector_13" fill-rule="evenodd" clip-rule="evenodd" d="M207.675 95.7709L201.14 82.6197C200.328 81.1585 199.76 80.2249 198.867 79.9814V79.6973C200.41 79.6973 201.749 79.7784 203.129 79.7784C204.59 79.7784 205.849 79.6973 207.107 79.6973V79.9814C206.092 80.4279 205.646 80.9961 205.646 81.8079C205.646 82.2544 205.808 82.9039 206.173 83.6345L209.339 89.9259L212.059 83.6345C212.424 82.9851 212.505 82.3356 212.505 81.8079C212.505 80.7932 211.978 80.2655 210.679 79.9814V79.6973C211.572 79.6973 212.587 79.7784 213.601 79.7784C214.616 79.7784 215.671 79.6973 216.767 79.6973V79.9814C215.509 80.3467 214.494 81.8079 213.317 84.2027L207.959 95.8115H207.594L207.675 95.7709Z" fill="var(--fill-0, white)"/>
<path id="Vector_14" fill-rule="evenodd" clip-rule="evenodd" d="M220.016 85.7017C219.935 86.1482 219.935 86.6353 219.935 87.0818C219.935 91.7496 221.924 94.3068 225.009 94.3068C227.728 94.3068 229.636 92.399 230.529 88.8271L231.341 89.4766C230.163 93.6979 227.525 95.768 223.466 95.768C218.392 95.768 215.023 92.2773 215.023 87.4471C215.023 82.6169 218.392 79.3291 223.385 79.3291C227.728 79.3291 230.569 81.6021 231.178 85.7423H220.016V85.7017ZM223.182 80.2221C221.64 80.2221 220.381 81.7645 220.016 84.6058H226.105C226.023 81.7645 224.846 80.2221 223.182 80.2221Z" fill="var(--fill-0, white)"/>
<path id="Vector_15" fill-rule="evenodd" clip-rule="evenodd" d="M130.028 28.4716C128.567 28.837 128.12 29.2834 128.12 30.6635V33.9513C128.12 34.6007 128.12 35.2502 128.201 35.859C125.928 37.6855 123.046 38.6191 119.596 38.6191C112.534 38.6191 107.906 34.5195 107.906 28.2687C107.906 22.0179 112.615 18.04 119.799 18.04C122.965 18.04 125.969 18.8518 128.404 20.4348L126.699 25.265L126.253 25.1839C125.604 21.0843 123.615 19.0548 120.164 19.0548C115.74 19.0548 113.548 22.1802 113.548 28.3093C113.548 34.4384 115.375 37.645 119.353 37.645C122.437 37.645 123.168 36.1837 123.168 32.6118C123.168 29.6893 122.884 28.7558 119.718 28.5122V28.0657C121.626 28.1469 123.331 28.2687 124.873 28.2687C126.131 28.2687 127.877 28.1875 130.028 28.0657V28.5122V28.4716Z" fill="var(--fill-0, white)"/>
<path id="Vector_16" fill-rule="evenodd" clip-rule="evenodd" d="M130.394 17.5929V17.2276C132.748 16.9435 134.737 16.5782 136.36 16.2129C136.279 17.39 136.279 19.2165 136.279 21.6925V32.043C136.279 35.5337 136.36 37.2385 138.187 37.7255V38.0908C136.807 38.0097 135.467 38.0097 134.087 38.0097C132.91 38.0097 131.652 38.0097 130.109 38.0908V37.7255C131.936 37.1573 132.017 35.5337 132.017 32.2459V20.6372C132.017 18.5265 131.936 17.7147 130.394 17.6335V17.5929Z" fill="var(--fill-0, white)"/>
<path id="Vector_17" fill-rule="evenodd" clip-rule="evenodd" d="M147.277 22.0586C152.554 22.0586 156.085 25.3464 156.085 30.1766C156.085 35.0068 152.635 38.2946 147.196 38.2946C141.757 38.2946 138.307 34.9256 138.307 30.1766C138.307 25.4276 141.919 22.0586 147.277 22.0586ZM151.255 30.1766C151.255 25.3464 149.875 22.8704 147.155 22.8704C144.598 22.8704 143.177 25.3464 143.177 30.0954C143.177 34.8444 144.557 37.4016 147.155 37.4016C149.753 37.4016 151.255 35.0068 151.255 30.1766Z" fill="var(--fill-0, white)"/>
<path id="Vector_18" fill-rule="evenodd" clip-rule="evenodd" d="M160.955 37.9696H159.859C158.763 37.9696 157.586 37.9696 156.125 38.0508V37.6855C157.83 37.3202 158.033 35.2095 158.033 31.0288V20.6783C158.033 18.5676 158.033 17.6747 156.49 17.5529V17.2688C158.479 16.9846 160.468 16.6193 162.295 16.1729C162.214 18.3647 162.213 20.1912 162.213 21.6525V24.4126C163.472 22.7484 165.217 22.0178 167.206 22.0178C171.549 22.0178 174.918 25.5897 174.918 30.3387C174.918 35.0877 171.671 38.3755 167.044 38.3755C164.771 38.3755 163.147 37.5637 161.97 35.6154C161.686 36.4272 161.442 37.1578 160.955 37.8884V37.9696ZM166.151 23.2355C163.715 23.2355 162.254 25.6303 162.254 30.2575C162.254 34.8848 163.715 37.1984 166.151 37.1984C168.586 37.1984 170.129 34.8036 170.129 30.2575C170.129 25.7115 168.586 23.2355 166.151 23.2355Z" fill="var(--fill-0, white)"/>
<path id="Vector_19" fill-rule="evenodd" clip-rule="evenodd" d="M193.428 38.0502C192.17 38.0502 190.993 37.969 189.816 37.969H188.436C187.989 37.2384 187.624 36.5077 187.421 35.493C186.244 37.5225 184.782 38.4155 182.509 38.4155C178.775 38.4155 176.34 36.3048 176.34 33.6664C176.34 30.2975 179.871 28.6333 187.056 28.3492V28.268C187.056 24.6961 185.797 22.8695 183.524 22.8695C181.251 22.8695 179.79 24.5337 178.897 27.9839H178.532L177.152 23.519C179.344 22.5042 181.576 21.9766 184.052 21.9766C186.974 21.9766 188.963 22.7072 190.14 24.0061C191.399 25.3861 191.399 27.1315 191.399 29.4857V30.8657C191.399 35.1683 191.683 37.1572 193.388 37.5225V38.0907L193.428 38.0502ZM186.366 29.2827C183.2 29.2827 181.454 30.8251 181.454 33.5853C181.454 35.7771 182.469 37.076 183.89 37.076C186.244 37.076 187.056 34.803 187.056 30.2163V29.2827H186.325H186.366Z" fill="var(--fill-0, white)"/>
<path id="Vector_20" fill-rule="evenodd" clip-rule="evenodd" d="M194.362 17.5928V17.2275C196.716 16.9434 198.705 16.5781 200.329 16.2128C200.329 17.3899 200.248 19.2164 200.248 21.6924V32.0428C200.248 35.5336 200.329 37.2383 202.155 37.7254V38.0907C200.816 38.0095 199.436 38.0095 198.056 38.0095C196.879 38.0095 195.62 38.0095 194.078 38.0907V37.7254C195.904 37.1571 195.986 35.5336 195.986 32.2458V20.6371C195.986 18.5264 195.905 17.7146 194.362 17.6334V17.5928Z" fill="var(--fill-0, white)"/>
<path id="Vector_21" fill-rule="evenodd" clip-rule="evenodd" d="M117.525 65.935V66.3815C115.699 66.3003 114.075 66.3003 112.817 66.3003C111.559 66.3003 110.097 66.3003 108.393 66.3815V65.935C110.382 65.5697 110.463 63.7431 110.463 59.5218V49.5367C110.463 48.1566 110.016 47.5072 108.758 47.2636V46.8172C110.828 46.8983 112.492 46.8983 113.547 46.8983H116.632C124.263 46.8983 128.079 47.7101 128.079 51.5662C128.079 54.2045 125.522 55.9499 120.813 56.1528C123.979 56.437 125.724 57.6952 126.983 60.6177C127.997 63.1749 128.525 65.0826 130.514 65.935V66.3003H123.33C122.071 63.9055 121.868 60.983 120.61 58.9129C119.595 57.1676 118.175 56.437 116.064 56.437C115.78 56.437 115.618 56.5181 115.415 56.5181V59.5218C115.415 63.7431 115.496 65.5697 117.485 65.935H117.525ZM117.444 55.5034C120.813 55.5034 122.599 54.0421 122.599 51.6473C122.599 49.0902 120.772 47.7913 117.241 47.7913C116.795 47.7913 116.145 47.7913 115.333 47.8725V55.3816C116.348 55.4628 116.957 55.4628 117.404 55.4628L117.444 55.5034Z" fill="var(--fill-0, white)"/>
<path id="Vector_22" fill-rule="evenodd" clip-rule="evenodd" d="M134.493 56.601C134.411 57.1693 134.411 57.6158 134.411 58.0622C134.411 62.6489 136.4 65.2061 139.485 65.2061C142.205 65.2061 144.112 63.3795 145.005 59.7264L145.817 60.457C144.64 64.5566 142.002 66.6673 137.943 66.6673C132.869 66.6673 129.5 63.2983 129.5 58.4276C129.5 53.5568 132.869 50.3096 137.862 50.3096C142.205 50.3096 145.046 52.5826 145.655 56.601H134.493ZM137.659 51.2431C136.116 51.2431 134.858 52.7044 134.493 55.5457H140.581C140.5 52.7855 139.323 51.2431 137.659 51.2431Z" fill="var(--fill-0, white)"/>
<path id="Vector_23" fill-rule="evenodd" clip-rule="evenodd" d="M146.102 71.9019C148.009 71.3336 148.091 69.6288 148.091 65.6916V55.0977C148.091 53.0682 148.009 52.2564 146.386 52.1752V51.8099C147.928 51.7287 149.755 51.3634 151.906 50.7951V53.6364C152.921 51.4446 154.707 50.3486 157.183 50.3486C161.729 50.3486 164.976 53.5552 164.976 58.3854C164.976 63.2156 161.607 66.7064 157.264 66.7064C155.275 66.7064 153.53 65.8946 152.271 64.3116V65.6104C152.271 69.6288 152.271 71.3742 154.544 71.9019V72.2672C152.921 72.186 151.459 72.186 150.201 72.186C148.943 72.186 147.563 72.186 146.102 72.2672V71.9019ZM160.146 58.4666C160.146 53.7988 158.684 51.4446 156.168 51.4446C153.651 51.4446 152.271 53.8394 152.271 58.4666C152.271 63.0939 153.733 65.4075 156.168 65.4075C158.603 65.4075 160.146 63.0127 160.146 58.4666Z" fill="var(--fill-0, white)"/>
<path id="Vector_24" d="M146.102 71.9019C148.009 71.3336 148.091 69.6288 148.091 65.6916V55.0977C148.091 53.0682 148.009 52.2564 146.386 52.1752V51.8099C147.928 51.7287 149.755 51.3634 151.906 50.7951V53.6364C152.921 51.4446 154.707 50.3486 157.183 50.3486C161.729 50.3486 164.976 53.5552 164.976 58.3854C164.976 63.2156 161.607 66.7064 157.264 66.7064C155.275 66.7064 153.53 65.8946 152.271 64.3116V65.6104C152.271 69.6288 152.271 71.3742 154.544 71.9019V72.2672C152.921 72.186 151.459 72.186 150.201 72.186C148.943 72.186 147.563 72.186 146.102 72.2672V71.9019ZM160.146 58.4666C160.146 53.7988 158.684 51.4446 156.168 51.4446C153.651 51.4446 152.271 53.8394 152.271 58.4666C152.271 63.0939 153.733 65.4075 156.168 65.4075C158.603 65.4075 160.146 63.0127 160.146 58.4666Z" stroke="var(--stroke-0, white)" stroke-width="0.284129" stroke-miterlimit="2.61"/>
<path id="Vector_25" fill-rule="evenodd" clip-rule="evenodd" d="M175.854 50.3096C181.212 50.3096 184.743 53.6785 184.743 58.4276C184.743 63.1766 181.212 66.6673 175.773 66.6673C170.334 66.6673 166.965 63.1766 166.965 58.5493C166.965 53.5973 170.496 50.3096 175.854 50.3096ZM179.913 58.4681C179.913 53.7191 178.452 51.2431 175.813 51.2431C173.175 51.2431 171.714 53.7191 171.714 58.4681C171.714 63.2172 173.175 65.7743 175.813 65.7743C178.452 65.7743 179.913 63.2983 179.913 58.4681Z" fill="var(--fill-0, white)"/>
<path id="Vector_26" fill-rule="evenodd" clip-rule="evenodd" d="M185.027 66.0569C186.854 65.4075 186.935 63.8651 186.935 60.5773V55.1788C186.935 53.0682 186.854 52.2564 185.312 52.1752V51.8099C187.95 51.4446 189.939 51.0793 191.197 50.7139V54.367C192.455 51.6069 194.079 50.3486 196.271 50.3486H196.92L195.297 55.1788H194.931C194.566 54.8135 194.201 54.6106 193.673 54.6106C192.131 54.6106 191.238 56.0718 191.238 58.9131V60.2932C191.238 63.8651 191.319 65.4887 193.145 66.0569V66.4222C191.765 66.341 190.426 66.2193 189.046 66.2193C187.869 66.2193 186.61 66.3005 185.068 66.4222V66.0569H185.027Z" fill="var(--fill-0, white)"/>
<path id="Vector_27" fill-rule="evenodd" clip-rule="evenodd" d="M204.956 65.9363V66.3017H205.037H199.76C198.746 65.8552 198.665 64.2722 198.665 61.6338V52.217H197.041L197.203 51.2834C199.639 49.9845 201.384 48.3609 202.561 46.0879H203.008C202.927 47.0215 202.926 48.2797 202.926 49.9439V50.9587H206.296L205.93 52.2576H202.926V59.0361C202.926 63.4198 203.089 65.5304 204.915 65.9769L204.956 65.9363Z" fill="var(--fill-0, white)"/>
<path id="Vector_28" fill-rule="evenodd" clip-rule="evenodd" d="M213.115 56.1528V60.2524C213.115 63.8243 213.196 65.4479 215.022 66.0161V66.3815C213.642 66.3003 212.303 66.1785 210.923 66.1785C209.746 66.1785 208.488 66.2597 206.945 66.3815V66.0161C208.772 65.3667 208.853 63.8243 208.853 60.5365V55.138C208.853 53.0274 208.772 52.2156 207.229 52.1344V51.7691C209.502 51.4038 211.491 51.1197 213.196 50.6732C213.115 52.4997 213.115 54.3262 213.115 56.1528ZM210.963 44.4629C212.222 44.4629 213.318 45.4776 213.318 46.8577C213.318 48.2378 212.222 49.3337 210.963 49.3337C209.583 49.3337 208.609 48.3189 208.609 46.8577C208.609 45.4776 209.705 44.4629 210.963 44.4629Z" fill="var(--fill-0, white)"/>
<path id="Vector_29" fill-rule="evenodd" clip-rule="evenodd" d="M215.591 66.0569C217.499 65.4887 217.58 63.7839 217.58 60.2932V55.1788C217.58 53.0682 217.418 52.2564 215.875 52.1752V51.8099C218.148 51.5257 220.056 51.1604 221.599 50.7139V54.2047C222.613 51.5663 224.399 50.3486 226.957 50.3486C231.056 50.3486 232.923 52.7434 232.923 57.6548V60.2932C232.923 63.7839 233.004 65.4887 234.831 66.0569V66.4222C233.451 66.341 232.111 66.2193 230.731 66.2193C229.635 66.2193 228.296 66.3005 226.754 66.4222V66.0569C228.58 65.4887 228.661 63.8651 228.661 60.7397V57.8984C228.661 53.88 227.768 52.0534 225.576 52.0534C223.385 52.0534 221.761 54.2453 221.761 57.8984V60.009C221.761 63.7433 221.842 65.4887 223.75 66.0569V66.4222C222.289 66.341 220.949 66.2193 219.65 66.2193C218.473 66.2193 217.093 66.3005 215.551 66.4222V66.0569H215.591Z" fill="var(--fill-0, white)"/>
<path id="Vector_30" fill-rule="evenodd" clip-rule="evenodd" d="M250.742 52.4205H250.458C250.092 51.0404 249.362 50.3098 248.266 50.3098C247.819 50.3098 247.373 50.5939 246.886 50.9592C249.443 52.2581 250.62 53.7193 250.62 55.7894C250.62 58.2654 248.712 60.3761 245.709 60.9037C243.07 61.472 241.731 60.9849 241.731 61.9185C241.731 62.7303 243.111 62.6491 246.358 63.0956C250.255 63.6233 252 64.638 252 67.114C252 70.1177 248.631 72.1471 242.746 72.1471C237.591 72.1471 234.506 70.483 234.506 68.1288C234.506 66.221 236.332 65.1251 240.026 64.5568C238.037 64.3539 237.022 63.9074 237.022 62.8927C237.022 61.8779 238.281 61.2285 240.757 60.8632C237.388 60.1325 235.602 58.306 235.602 55.7488C235.602 52.7452 238.605 50.2692 243.03 50.2692C243.842 50.2692 244.856 50.3504 245.912 50.6345C247.454 48.8891 249.159 48.0773 250.985 48.0773C251.351 48.0773 251.716 48.0773 252 48.1585L250.742 52.3799V52.4205ZM243.151 71.2542C246.033 71.2542 247.779 69.9553 247.779 68.1288C247.779 66.3022 246.074 65.2875 242.867 65.2875C240.432 65.2875 239.052 66.4646 239.052 68.1288C239.052 70.0365 240.513 71.2542 243.151 71.2542ZM240.148 55.7894C240.148 58.6307 241.325 60.2543 243.233 60.2543C244.856 60.2543 245.952 58.5901 245.952 55.5053C245.952 52.7452 244.856 51.2028 243.07 51.2028C241.447 51.2028 240.148 52.9481 240.148 55.7894Z" fill="var(--fill-0, white)"/>
<path id="Vector_31" fill-rule="evenodd" clip-rule="evenodd" d="M235.602 80.4668V81.4004H237.063V85.4188H238.159V81.4004H239.62V80.4668H235.602Z" fill="var(--fill-0, white)"/>
<path id="Vector_32" fill-rule="evenodd" clip-rule="evenodd" d="M240.148 80.4668V85.4188H241.163V81.3192L242.056 85.4188H243.071L243.964 81.3192V85.4188H244.857V80.4668H243.396L242.503 84.404L241.691 80.4668H240.148Z" fill="var(--fill-0, white)"/>
</g>
</svg>
