<svg preserveAspectRatio="none" width="100%" height="100%" overflow="visible" style="display: block;" viewBox="0 0 215.73 64.8779" fill="none" xmlns="http://www.w3.org/2000/svg">
<g id="g3044">
<g id="g3050">
<path id="path3052" d="M3.11371 63.1125C4.55439 63.1125 5.53033 62.1366 5.53033 60.7424C5.53033 59.3017 4.55439 58.3258 3.11371 58.3258H1.76599V63.159H3.11371V63.1125ZM0 56.6992H3.11371C5.62328 56.6992 7.38926 58.4187 7.38926 60.6959C7.38926 62.9731 5.66975 64.7391 3.11371 64.7391H0V56.7457V56.6992Z" fill="var(--fill-0, white)"/>
</g>
<g id="g3054">
<path id="path3056" d="M12.2234 60.5565C13.0599 60.5565 13.5711 60.0918 13.5711 59.4411C13.5711 58.6511 13.0599 58.2793 12.1769 58.2793H10.4109V60.5565H12.1769H12.2234ZM8.69141 56.6992H12.3628C13.3852 56.6992 14.1753 56.9781 14.6865 57.4893C15.1512 57.954 15.3836 58.5581 15.3836 59.3017C15.3836 60.603 14.6865 61.4395 13.6641 61.8113L15.6159 64.6926H13.5711L11.8516 62.1366H10.4574V64.6926H8.69141V56.6992Z" fill="var(--fill-0, white)"/>
</g>
<path id="path3058" d="M17.1016 56.6992H18.8676V64.6926H17.1016V56.6992Z" fill="var(--fill-0, white)"/>
<g id="g3060">
<path id="path3062" d="M19.9375 56.6992H21.8894L23.9807 62.3225L26.072 56.6992H27.9774L24.7243 64.7391H23.1906L19.9375 56.6992Z" fill="var(--fill-0, white)"/>
</g>
<path id="path3064" d="M29.1387 56.6992H30.9047V64.6926H29.1387V56.6992Z" fill="var(--fill-0, white)"/>
<g id="g3066">
<path id="path3068" d="M32.8555 56.6992H34.482L38.2464 61.6254V56.6992H39.9659V64.6926H38.4787L34.6215 59.627V64.6926H32.9019V56.6992H32.8555Z" fill="var(--fill-0, white)"/>
</g>
<g id="g3070">
<path id="path3072" d="M41.3145 60.6953C41.3145 58.4181 43.0804 56.5127 45.4971 56.5127C46.9377 56.5127 47.8207 56.8845 48.6572 57.6281L47.5419 58.9758C46.9377 58.4646 46.38 58.1857 45.4506 58.1857C44.1493 58.1857 43.1734 59.3011 43.1734 60.6953C43.1734 62.1825 44.1958 63.2513 45.59 63.2513C46.2406 63.2513 46.7983 63.1119 47.263 62.7866V61.6248H45.4971V60.0911H48.9826V63.5766C48.146 64.2737 47.0307 64.8314 45.5435 64.8314C43.034 64.8314 41.3145 63.0654 41.3145 60.6953Z" fill="var(--fill-0, white)"/>
</g>
<g id="g3074">
<path id="path3076" d="M53.1656 63.5271L54.188 62.2723C54.9316 62.8764 55.6752 63.2482 56.5582 63.2482C57.3017 63.2482 57.72 62.9694 57.72 62.5047C57.72 62.0399 57.4412 61.8076 56.0934 61.4822C54.4669 61.064 53.4445 60.6457 53.4445 59.0192C53.4445 57.532 54.6063 56.6025 56.2329 56.6025C57.3947 56.6025 58.4171 56.9743 59.2071 57.625L58.2777 58.9727C57.5806 58.4615 56.8835 58.1826 56.1864 58.1826C55.4893 58.1826 55.164 58.5079 55.164 58.8797C55.164 59.4374 55.4893 59.6233 56.8835 59.9486C58.51 60.3669 59.4395 60.971 59.4395 62.3652C59.4395 63.9918 58.2312 64.8748 56.5117 64.8748C55.3034 64.8748 54.0951 64.4565 53.1191 63.5735" fill="var(--fill-0, white)"/>
</g>
<g id="g3078">
<path id="path3080" d="M60.6949 61.2536V56.6992H62.4609V61.2071C62.4609 62.5084 63.1115 63.2055 64.1804 63.2055C65.2493 63.2055 65.8999 62.5549 65.8999 61.3001V56.6992H67.6659V61.2071C67.6659 63.6237 66.3182 64.8321 64.1339 64.8321C61.9962 64.8321 60.6484 63.6237 60.6484 61.2536" fill="var(--fill-0, white)"/>
</g>
<g id="g3082">
<path id="path3084" d="M68.6402 63.5271L69.6626 62.2723C70.4062 62.8764 71.1498 63.2482 72.0328 63.2482C72.7764 63.2482 73.1946 62.9694 73.1946 62.5047C73.1946 62.0399 72.9158 61.8076 71.5681 61.4822C69.9415 61.064 68.9191 60.6457 68.9191 59.0192C68.9191 57.532 70.0809 56.6025 71.7075 56.6025C72.8693 56.6025 73.8917 56.9743 74.6818 57.625L73.7523 58.9727C73.0552 58.4615 72.3581 58.1826 71.661 58.1826C70.9639 58.1826 70.6386 58.5079 70.6386 58.8797C70.6386 59.4374 70.9639 59.6233 72.3581 59.9486C73.9847 60.3669 74.9141 60.971 74.9141 62.3652C74.9141 63.9918 73.7058 64.8748 71.9863 64.8748C70.778 64.8748 69.5697 64.4565 68.5938 63.5735" fill="var(--fill-0, white)"/>
</g>
<g id="g3086">
<path id="path3088" d="M78.0748 58.3258H75.6582V56.6992H82.3039V58.3258H79.8873V64.6926H78.1213V58.3258H78.0748Z" fill="var(--fill-0, white)"/>
</g>
<g id="g3090">
<path id="path3092" d="M87.0437 61.3428L85.9748 58.7403L84.9059 61.3428H87.0437ZM85.1847 56.6025H86.8113L90.2503 64.6889H88.3914L87.6478 62.8764H84.2552L83.5117 64.6889H81.6992L85.1382 56.6025H85.1847Z" fill="var(--fill-0, white)"/>
</g>
<path id="path3094" d="M91.2734 56.6992H93.0394V64.6926H91.2734V56.6992Z" fill="var(--fill-0, white)"/>
<g id="g3096">
<path id="path3098" d="M94.8984 56.6992H96.525L100.289 61.6254V56.6992H102.009V64.6926H100.522L96.6644 59.627V64.6926H94.9449V56.6992H94.8984Z" fill="var(--fill-0, white)"/>
</g>
<g id="g3100">
<path id="path3102" d="M108.423 61.3428L107.354 58.7403L106.285 61.3428H108.423ZM106.611 56.6025H108.237L111.676 64.6889H109.817L109.074 62.8764H105.681L104.937 64.6889H103.125L106.564 56.6025H106.611Z" fill="var(--fill-0, white)"/>
</g>
<g id="g3104">
<path id="path3106" d="M116.602 63.159C117.392 63.159 117.857 62.8802 117.857 62.276C117.857 61.7183 117.438 61.393 116.555 61.393H114.511V63.159H116.602ZM116.137 59.9059C116.927 59.9059 117.392 59.6735 117.392 59.0694C117.392 58.5117 116.974 58.2328 116.23 58.2328H114.511V59.9059H116.137ZM112.791 56.6992H116.509C117.438 56.6992 118.135 56.9316 118.6 57.3963C118.972 57.7681 119.158 58.1864 119.158 58.744C119.158 59.6735 118.693 60.1847 118.089 60.51C119.018 60.8818 119.576 61.393 119.576 62.4619C119.576 63.9491 118.368 64.6926 116.602 64.6926H112.791V56.6992Z" fill="var(--fill-0, white)"/>
</g>
<g id="g3108">
<path id="path3110" d="M121.156 56.6992H122.922V63.1125H126.919V64.6926H121.156V56.6992Z" fill="var(--fill-0, white)"/>
</g>
<g id="g3112">
<path id="path3114" d="M128.082 56.6992H134.124V58.2793H129.848V59.9059H133.612V61.486H129.848V63.159H134.217V64.7391H128.129V56.7457L128.082 56.6992Z" fill="var(--fill-0, white)"/>
</g>
<g id="g3116">
<path id="path3118" d="M139.049 56.6992H145.09V58.2793H140.815V59.9059H144.579V61.486H140.815V63.159H145.183V64.7391H139.095V56.7457L139.049 56.6992Z" fill="var(--fill-0, white)"/>
</g>
<g id="g3120">
<path id="path3122" d="M146.297 60.6953C146.297 58.4181 148.016 56.5127 150.479 56.5127C151.967 56.5127 152.896 57.0239 153.64 57.7675L152.524 59.0687C151.92 58.511 151.27 58.1857 150.479 58.1857C149.132 58.1857 148.156 59.3011 148.156 60.6953C148.156 62.0895 149.085 63.2513 150.479 63.2513C151.409 63.2513 151.967 62.8795 152.571 62.3219L153.686 63.4372C152.85 64.3202 151.967 64.8779 150.387 64.8779C148.016 64.8779 146.297 63.0654 146.297 60.7418" fill="var(--fill-0, white)"/>
</g>
<g id="g3124">
<path id="path3126" d="M160.844 60.6953C160.844 59.3011 159.822 58.1393 158.428 58.1393C157.034 58.1393 156.011 59.2546 156.011 60.6488C156.011 62.043 157.034 63.2049 158.428 63.2049C159.822 63.2049 160.844 62.0895 160.844 60.6953ZM154.152 60.6953C154.152 58.4181 155.965 56.5127 158.428 56.5127C160.891 56.5127 162.657 58.3716 162.657 60.6488C162.657 62.926 160.845 64.8314 158.381 64.8314C155.918 64.8314 154.152 62.9725 154.152 60.6953Z" fill="var(--fill-0, white)"/>
</g>
<g id="g3128">
<path id="path3130" d="M164.004 56.6992H165.63L169.395 61.6254V56.6992H171.114V64.6926H169.627L165.77 59.627V64.6926H164.05V56.6992H164.004Z" fill="var(--fill-0, white)"/>
</g>
<g id="g3132">
<path id="path3134" d="M179.109 60.6953C179.109 59.3011 178.086 58.1393 176.692 58.1393C175.298 58.1393 174.275 59.2546 174.275 60.6488C174.275 62.043 175.298 63.2049 176.692 63.2049C178.086 63.2049 179.109 62.0895 179.109 60.6953ZM172.463 60.6953C172.463 58.4181 174.275 56.5127 176.738 56.5127C179.202 56.5127 180.968 58.3716 180.968 60.6488C180.968 62.926 179.155 64.8314 176.692 64.8314C174.229 64.8314 172.463 62.9725 172.463 60.6953Z" fill="var(--fill-0, white)"/>
</g>
<g id="g3136">
<path id="path3138" d="M182.176 56.6992H184.081L186.172 60.0918L188.264 56.6992H190.169V64.6926H188.403V59.4876L186.172 62.9266L183.942 59.5341V64.7391H182.222V56.7457L182.176 56.6992Z" fill="var(--fill-0, white)"/>
</g>
<path id="path3140" d="M191.936 56.6992H193.702V64.6926H191.936V56.6992Z" fill="var(--fill-0, white)"/>
<g id="g3142">
<path id="path3144" d="M195.699 56.6992H201.741V58.2793H197.465V59.9059H201.23V61.486H197.465V63.159H201.834V64.7391H195.746V56.7457L195.699 56.6992Z" fill="var(--fill-0, white)"/>
</g>
<g id="g3146">
<path id="path3148" d="M202.855 63.5271L203.877 62.2723C204.621 62.8764 205.365 63.2482 206.248 63.2482C206.991 63.2482 207.409 62.9694 207.409 62.5047C207.409 62.0399 207.131 61.8076 205.783 61.4822C204.156 61.064 203.134 60.6457 203.134 59.0192C203.134 57.532 204.296 56.6025 205.922 56.6025C207.084 56.6025 208.107 56.9743 208.897 57.625L207.967 58.9727C207.27 58.4615 206.573 58.1826 205.876 58.1826C205.179 58.1826 204.853 58.5079 204.853 58.8797C204.853 59.4374 205.179 59.6233 206.573 59.9486C208.2 60.3669 209.129 60.971 209.129 62.3652C209.129 63.9918 207.921 64.8748 206.201 64.8748C204.993 64.8748 203.785 64.4565 202.809 63.5735" fill="var(--fill-0, white)"/>
</g>
<g id="g3150">
<path id="path3152" d="M189.194 24.3056V10.0847H197.094C202.206 10.0847 205.413 12.5478 205.413 17.1487V17.2881C205.413 21.2848 202.439 24.352 197.28 24.352H189.147L189.194 24.3056ZM178.923 47.4028H189.147V33.4608H196.908C207.318 33.4608 215.73 27.884 215.73 17.1022V16.9628C215.73 7.48222 209.038 0.882987 197.931 0.882987H175.623V10.1777H178.923V47.4493V47.4028ZM139.188 38.1546V10.0847H147.089C155.454 10.0847 161.124 15.8474 161.124 24.1197V24.2591C161.124 32.4849 155.454 38.1546 147.089 38.1546H139.188ZM128.964 47.4028H147.135C161.774 47.4028 171.859 37.2251 171.859 24.1197V23.9802C171.859 10.8748 161.728 0.836522 147.135 0.836522H125.618V10.1777H129.011V47.4028H128.964ZM103.683 48.1929C112.652 48.1929 117.996 44.9862 122.783 39.8741L116.277 33.2749C112.606 36.621 109.352 38.7123 104.054 38.7123C96.061 38.7123 90.5771 32.0666 90.5771 24.0732V23.9338C90.5771 15.9404 96.2469 9.43408 104.054 9.43408C108.702 9.43408 112.373 11.4324 115.952 14.6856L122.458 7.1569C118.136 2.88135 112.884 0 104.101 0C89.7871 0 79.8418 10.8283 79.8418 24.0732V24.2126C79.8418 37.5505 90.0195 48.1464 103.729 48.1464" fill="var(--fill-0, white)"/>
</g>
<g id="g3154">
<path id="path3156" d="M211.222 1.16039H210.293V0.835083H212.477V1.16039H211.548V3.62348H211.176V1.16039H211.222Z" fill="var(--fill-0, white)"/>
</g>
<g id="g3158">
<path id="path3160" d="M212.848 0.835083H213.359L214.242 3.15875L215.125 0.835083H215.636V3.57701H215.311V1.29981L214.474 3.57701H214.149L213.312 1.29981V3.57701H212.987V0.835083H212.848Z" fill="var(--fill-0, white)"/>
</g>
</g>
</svg>
