<svg preserveAspectRatio="none" width="100%" height="100%" overflow="visible" style="display: block;" viewBox="0 0 5.62844 9.12985" fill="none" xmlns="http://www.w3.org/2000/svg">
<g id="clippath-10">
<path id="Vector" d="M0.229088 2.35609C0.229088 3.92682 1.43986 4.45039 2.58518 4.81035C3.69778 5.17031 4.71219 5.46482 4.71219 6.67559C4.71219 7.78819 3.66505 8.37721 2.78151 8.37721C1.89798 8.37721 1.14529 7.88636 0.785331 7.26461L0 7.8209C0.621746 8.67171 1.70161 9.12985 2.74876 9.12985C4.12314 9.12985 5.62844 8.37721 5.62844 6.61014C5.62844 4.84307 4.25409 4.48312 3.0106 4.05771C2.0289 3.73048 1.11259 3.46869 1.11259 2.35609C1.11259 1.2435 2.12704 0.71992 2.97785 0.71992C3.82866 0.71992 4.41764 1.07988 4.7776 1.60346L5.49752 1.04715C5.07211 0.490851 4.18865 0 3.0106 0C1.73439 0 0.196333 0.719915 0.196333 2.38881L0.229088 2.35609Z" fill="var(--fill-0, black)"/>
</g>
</svg>
