<svg preserveAspectRatio="none" width="100%" height="100%" overflow="visible" style="display: block;" viewBox="0 0 110.009 108.023" fill="none" xmlns="http://www.w3.org/2000/svg">
<g id="Group">
<g id="Group_2">
<path id="Vector" d="M55.4213 48.9824C54.7378 49.0292 54.0544 48.6549 53.7127 48.0935L41.6547 28.9122C37.7005 22.69 35.699 17.5906 35.699 13.614C35.699 9.40349 37.4076 6.08186 40.776 3.64912C44.1444 1.21637 48.7821 0 54.689 0C60.7424 0 65.6242 1.21637 69.2367 3.60233C72.8004 5.98829 74.6066 9.21636 74.6066 13.2865C74.6066 15.8596 73.8255 18.7134 72.3122 21.8947C70.7988 24.9824 65.7218 33.6842 56.9834 48.0467C56.6905 48.6081 56.0559 48.9356 55.4213 48.9824Z" fill="var(--fill-0, white)"/>
</g>
<g id="Group_3">
<path id="Vector_2" d="M55.3206 58.947C54.6859 58.947 54.0513 59.2745 53.7096 59.8359L41.6028 79.1108C37.6486 85.333 35.6471 90.4324 35.6471 94.409C35.6471 98.5727 37.3557 101.941 40.7241 104.374C44.0925 106.807 48.7302 108.023 54.6371 108.023C60.6905 108.023 65.5723 106.807 69.1848 104.421C72.7485 102.035 74.5547 98.8066 74.5547 94.7365C74.5547 92.1634 73.7736 89.3096 72.2603 86.1283C70.7469 83.0406 65.6699 74.292 56.8827 59.8827C56.6386 59.3213 56.004 58.947 55.3206 58.947Z" fill="var(--fill-0, white)"/>
</g>
<g id="Group_4">
<path id="Vector_3" d="M57.711 56.6076C57.4669 57.169 57.6134 57.824 58.0039 58.3386C65.7171 67.3678 75.92 83.5082 85.0977 88.8883C88.5638 90.9467 92.1763 91.1339 95.9352 89.4965C99.6454 87.9058 102.672 85.5666 105.65 80.7012C108.725 75.6953 110.141 71.1105 109.995 66.9468C109.848 62.8298 108.042 59.7889 104.625 57.7772C102.477 56.5141 99.6942 55.7655 96.3258 55.4848C93.0062 55.2509 75.9688 55.2041 59.3708 55.4848C58.6386 55.4848 57.9551 55.9527 57.711 56.6076Z" fill="var(--fill-0, white)"/>
</g>
<g id="Group_5">
<path id="Vector_4" d="M57.6659 51.4156C57.9588 51.8834 58.4958 52.2109 59.0816 52.2109C75.7773 52.4916 93.0099 52.4448 96.3295 52.2109C99.6979 51.9302 102.432 51.1817 104.628 49.9185C108.046 47.9536 109.852 44.8659 109.998 40.7489C110.145 36.5852 108.729 32.0004 105.654 26.9946C102.676 22.1291 99.6491 19.7899 95.9389 18.1993C92.18 16.5618 88.5675 16.7958 85.1014 18.8074C75.8261 24.2343 65.5256 40.6086 57.8124 49.591C57.373 50.1056 57.3242 50.8542 57.6659 51.4156Z" fill="var(--fill-0, white)"/>
</g>
<g id="Group_6">
<path id="Vector_5" d="M52.2948 56.4673C52.0019 55.8591 51.4161 55.4848 50.7326 55.4848C34.0858 55.2041 16.9996 55.2509 13.68 55.4848C10.3116 55.7655 7.52902 56.5141 5.38105 57.7772C1.96381 59.7421 0.15756 62.8298 0.0111073 66.9468C-0.135346 71.1105 1.28037 75.6953 4.35588 80.7012C7.33375 85.5666 10.3604 87.9058 14.0706 89.4965C17.8295 91.1339 21.442 90.9 24.9081 88.8883C34.1346 83.5082 44.3863 67.2743 52.0995 58.245C52.4901 57.7304 52.5877 57.0755 52.2948 56.4673Z" fill="var(--fill-0, white)"/>
</g>
<path id="Vector_6" d="M52.1475 51.4153C51.8546 51.9299 51.2688 52.2106 50.6342 52.2574C34.0362 52.5381 16.9988 52.4913 13.6792 52.2574C10.3108 51.9767 7.52821 51.2281 5.38023 49.965C1.96299 47.9533 0.205558 44.8656 0.0102874 40.7486C-0.136166 36.5849 1.27955 32.0001 4.35506 26.9942C7.33293 22.1287 10.3596 19.7896 14.0698 18.1989C17.8287 16.5615 21.4412 16.7954 24.9073 18.8071C34.1338 24.1872 44.3367 40.3275 52.0011 49.3568C52.0499 49.4036 52.0499 49.4503 52.0987 49.4503C52.0987 49.4971 52.5869 50.4796 52.1475 51.4153Z" fill="var(--fill-0, white)"/>
</g>
</svg>
