<svg preserveAspectRatio="none" width="100%" height="100%" overflow="visible" style="display: block;" viewBox="0 0 7.85375 9.16279" fill="none" xmlns="http://www.w3.org/2000/svg">
<g id="clippath-3">
<path id="Vector" d="M4.45038 0.000211186C1.89795 0.0656581 3.8653e-05 1.96362 3.8653e-05 4.5815C3.8653e-05 7.19938 1.9308 9.16279 4.5814 9.16279C6.15213 9.16279 7.26473 8.41015 7.85375 7.52662L7.16648 7.06848C6.54474 7.98473 5.59583 8.37742 4.5814 8.37742C2.32348 8.37742 0.949147 6.61036 0.949147 4.5815C0.949147 2.55265 2.32348 0.78558 4.5814 0.78558C5.694 0.78558 6.57744 1.3746 6.9374 1.9309L7.69017 1.3746C7.10115 0.556517 5.92299 0.0329346 4.71222 0.000211186H4.45038Z" fill="var(--fill-0, black)"/>
</g>
</svg>
