<svg preserveAspectRatio="none" width="100%" height="100%" overflow="visible" style="display: block;" viewBox="0 0 38.3192 45.0602" fill="none" xmlns="http://www.w3.org/2000/svg">
<g id="clippath-17">
<path id="Vector" d="M13.7439 1.70162C10.897 2.81422 8.47538 4.35222 6.44653 6.34835C4.41767 8.34448 2.81428 10.7006 1.70168 13.4821C0.556363 16.2308 0 19.2414 0 22.5465C0 25.8515 0.490924 28.7639 1.50535 31.5127C2.48705 34.2615 3.92685 36.6503 5.75936 38.6464C7.59187 40.6425 9.88254 42.2133 12.5331 43.3586C15.1837 44.5039 18.1943 45.0602 21.5648 45.0602C25.2299 45.0602 28.404 44.4712 31.0873 43.2931C33.7706 42.1151 35.9959 40.348 37.7957 38.0574L32.3963 32.5926L31.3819 33.4434C31.3819 33.4434 29.4185 34.8178 28.7967 35.1777C28.2077 35.5377 27.5859 35.8322 26.8987 36.0285C26.2442 36.2576 25.5243 36.4212 24.7717 36.4867C23.9863 36.5848 23.1355 36.6175 22.2193 36.6175C20.6158 36.6175 19.0779 36.2903 17.6707 35.6686C16.2636 35.0468 15.0201 34.1306 13.9402 32.9198C12.8931 31.709 12.0423 30.2365 11.4206 28.5021C10.7988 26.7351 10.5043 24.7389 10.5043 22.481C10.5043 20.2231 10.7988 18.3906 11.4206 16.6562C12.0423 14.9219 12.893 13.4493 14.0056 12.2386C15.1182 11.0278 16.4272 10.0788 17.9652 9.42436C19.5033 8.76989 21.2049 8.44265 23.0701 8.44265C24.15 8.44265 25.0662 8.5081 25.8843 8.67172C26.6696 8.83534 27.3896 9.03167 27.9786 9.26073C28.5676 9.4898 29.0912 9.7516 29.5166 10.0134C29.942 10.2752 33.247 12.075 33.247 12.075L38.3192 5.8575C37.5012 4.97397 36.5195 4.18861 35.4723 3.46869C34.3924 2.74878 33.2143 2.12702 31.9381 1.63617C30.6619 1.1126 29.2875 0.71992 27.8149 0.425408C26.3424 0.130897 24.7717 0 23.1355 0C19.6995 0 16.5908 0.556293 13.7439 1.66889V1.70162Z" fill="var(--fill-0, black)"/>
</g>
</svg>
