<svg preserveAspectRatio="none" width="100%" height="100%" overflow="visible" style="display: block;" viewBox="0 0 147.665 145" fill="none" xmlns="http://www.w3.org/2000/svg">
<g id="Group 319">
<g id="Ellipse 59" opacity="0.5">
<path d="M73.4413 22.9999C101.851 23.0002 124.882 45.6097 124.882 73.4999C124.882 101.39 101.851 124 73.4413 124C45.0313 124 22 101.39 21.9999 73.4999C21.9999 45.6096 45.0313 22.9999 73.4413 22.9999Z" fill="var(--fill-0, white)"/>
<path d="M73.4413 22.9999C101.851 23.0002 124.882 45.6097 124.882 73.4999C124.882 101.39 101.851 124 73.4413 124C45.0313 124 22 101.39 21.9999 73.4999C21.9999 45.6096 45.0313 22.9999 73.4413 22.9999Z" stroke="var(--stroke-0, white)"/>
</g>
<path id="Ellipse 61" opacity="0.2" d="M73.832 0.5C114.324 0.5 147.164 32.7269 147.164 72.5C147.164 112.273 114.324 144.5 73.832 144.5C33.3406 144.5 0.500025 112.273 0.5 72.5C0.5 32.7269 33.3406 0.500121 73.832 0.5Z" stroke="var(--stroke-0, white)"/>
<path id="Ellipse 60" d="M124.882 73.4999C124.882 65.5305 122.961 57.6742 119.275 50.5734C115.59 43.4726 110.245 37.3289 103.677 32.6446C97.1096 27.9602 89.506 24.8683 81.488 23.6217C73.4701 22.375 65.2654 23.0089 57.5448 25.4716L73.4409 73.4999H124.882Z" fill="var(--fill-0, white)"/>
</g>
</svg>
