<svg preserveAspectRatio="none" width="100%" height="100%" overflow="visible" style="display: block;" viewBox="0 0 5.62854 9.12985" fill="none" xmlns="http://www.w3.org/2000/svg">
<g id="clippath-16">
<path id="Vector" d="M0.196333 2.35609C0.196333 3.92682 1.4072 4.45039 2.55253 4.81035C3.66512 5.17031 4.67943 5.46482 4.67943 6.67559C4.67943 7.78819 3.63239 8.37721 2.74886 8.37721C1.86533 8.37721 1.11273 7.88636 0.752775 7.26461L0 7.8209C0.621746 8.67171 1.70171 9.12985 2.74886 9.12985C4.12324 9.12985 5.62854 8.37721 5.62854 6.61014C5.62854 4.84307 4.25419 4.48312 3.0107 4.05771C2.029 3.73048 1.11269 3.46869 1.11269 2.35609C1.11269 1.2435 2.12714 0.71992 2.97795 0.71992C3.82876 0.71992 4.41774 1.07988 4.7777 1.60346L5.49752 1.04715C5.07211 0.490851 4.18875 0 3.0107 0C1.73449 0 0.196333 0.719915 0.196333 2.38881V2.35609Z" fill="var(--fill-0, black)"/>
</g>
</svg>
