<svg preserveAspectRatio="none" width="100%" height="100%" overflow="visible" style="display: block;" viewBox="0 0 5.62834 9.12985" fill="none" xmlns="http://www.w3.org/2000/svg">
<g id="clippath-13">
<path id="Vector" d="M0.196333 2.35609C0.196333 3.92682 1.407 4.45039 2.55233 4.81035C3.66492 5.17031 4.67943 5.46482 4.67943 6.67559C4.67943 7.78819 3.63219 8.37721 2.74866 8.37721C1.86513 8.37721 1.11253 7.88636 0.752576 7.26461L0 7.8209C0.621746 8.67171 1.70151 9.12985 2.74866 9.12985C4.12304 9.12985 5.62834 8.37721 5.62834 6.61014C5.62834 4.84307 4.25399 4.48312 3.0105 4.05771C2.0288 3.73048 1.11249 3.46869 1.11249 2.35609C1.11249 1.2435 2.12694 0.71992 2.97775 0.71992C3.82856 0.71992 4.41754 1.07988 4.7775 1.60346L5.49752 1.04715C5.07211 0.490851 4.18855 0 3.0105 0C1.73429 0 0.196333 0.719915 0.196333 2.38881V2.35609Z" fill="var(--fill-0, black)"/>
</g>
</svg>
