<svg preserveAspectRatio="none" width="100%" height="100%" overflow="visible" style="display: block;" viewBox="0 0 285.895 84.4199" fill="none" xmlns="http://www.w3.org/2000/svg">
<path id="Masterbrand Logotype solid" d="M101.259 31.9648V19.1864H104.873V31.5178C104.873 33.9021 106.028 35.6903 108.859 35.6903C111.504 35.6903 112.846 34.3119 112.846 31.5178V19.1864H116.459V31.6668C116.459 36.2864 113.367 38.9688 108.822 38.9688C104.277 39.006 101.185 36.659 101.185 31.9648H101.259ZM119.924 24.6628H123.165V26.3766H123.202C124.134 25.0354 125.587 24.402 127.151 24.402C130.318 24.402 132.032 26.3766 132.032 29.6923V38.6707H128.716V30.5491C128.716 28.4256 127.822 27.308 126.108 27.308C124.395 27.308 123.202 28.4628 123.202 30.8099V38.6335H119.887V24.6628H119.924ZM135.534 19.0001H138.85V22.5393H135.534V19.0001ZM135.534 24.6628H138.85V38.6335H135.534V24.6628ZM142.948 35.355V27.308H141.048V24.6628H142.948V20.453H146.263V24.7001H149.281V27.3452H146.263V34.5727C146.263 35.6158 146.822 35.9139 147.567 35.9139C148.238 35.9139 148.61 35.8766 149.281 35.8021V38.6335C148.536 38.857 147.306 38.8942 146.822 38.8942C144.624 38.8942 142.91 37.8511 142.91 35.355H142.948ZM150.883 33.306V30.5864C150.883 26.6746 153.826 24.4766 157.291 24.4766C160.308 24.4766 163.326 26.2276 163.326 29.9531V32.6354H154.348V33.3805C154.348 35.1315 155.763 36.2119 157.589 36.2119C158.744 36.2119 159.861 35.4668 160.606 34.3864L163.177 35.8766C162.097 38.0746 159.899 39.006 157.403 39.006C153.975 39.006 150.883 37.1433 150.883 33.306ZM160.01 30.3256V29.9531C160.01 28.0531 158.669 27.2707 157.328 27.2707C155.912 27.2707 154.385 28.0158 154.385 30.1393V30.3629H160.01V30.3256ZM165.71 33.455V30.1021C165.71 26.3021 168.356 24.402 171.485 24.402C173.05 24.402 174.316 25.1844 175.024 26.1158H175.099V19.1491H178.414V38.6335H175.173V37.0688C174.391 38.1492 172.491 38.9688 171.261 38.9688C168.132 38.9315 165.71 36.9943 165.71 33.4178V33.455ZM175.099 33.3805V29.9158C175.099 28.2393 173.757 27.2334 172.006 27.2334C170.628 27.2334 169.101 27.9785 169.101 30.0276V33.4923C169.101 35.1688 170.405 36.1746 172.118 36.1746C173.497 36.1374 175.061 35.4295 175.061 33.3805H175.099ZM189.032 19.1864H192.571L201.028 32.4491H201.066V19.1864H204.567V38.6707H201.028L192.609 25.3707H192.571V38.6707H189.069V19.1864H189.032ZM207.436 34.6844C207.436 32.0021 209.895 30.4001 212.615 30.4001H216.303V29.1334C216.303 27.6432 215.334 27.0099 213.62 27.0099C212.205 27.0099 211.087 27.5315 211.087 28.3883V28.9099H208.107V28.5374C208.107 25.4452 211.013 24.4393 213.658 24.4393C216.787 24.4393 219.656 25.4824 219.656 28.9099V35.7276C219.656 36.3609 219.73 38.41 219.917 38.708H216.638C216.601 38.4845 216.526 37.6648 216.526 37.4413H216.489C215.26 38.708 214.217 39.006 212.391 39.006C209.448 38.9315 207.473 37.3295 207.473 34.6844H207.436ZM216.303 33.5295V32.8589H213.024C211.609 32.8589 210.677 33.3805 210.677 34.5727C210.677 35.7648 211.646 36.3237 213.211 36.3237C215.893 36.3237 216.34 35.0197 216.34 33.4923L216.303 33.5295ZM223.605 35.355V27.308H221.705V24.6628H223.605V20.453H226.921V24.7001H229.938V27.3452H226.921V34.5727C226.921 35.6158 227.479 35.9139 228.224 35.9139C228.895 35.9139 229.268 35.8766 229.938 35.8021V38.6335C229.193 38.857 227.964 38.8942 227.479 38.8942C225.281 38.8942 223.568 37.8511 223.568 35.355H223.605ZM232.211 19.0001H235.526V22.5393H232.211V19.0001ZM232.211 24.6628H235.526V38.6335H232.211V24.6628ZM238.47 33.5295V30.3256C238.47 26.5256 241.711 24.4766 244.803 24.4766C248.156 24.4766 251.211 26.7119 251.211 30.2883V33.157C251.211 36.957 247.97 39.006 244.877 39.006C241.525 39.006 238.47 37.106 238.47 33.5295ZM247.821 33.4178V29.9531C247.821 28.2766 246.517 27.2707 244.803 27.2707C243.424 27.2707 241.897 28.0158 241.897 30.0648V33.5295C241.897 35.206 243.201 36.2119 244.915 36.2119C246.293 36.2119 247.821 35.4668 247.821 33.4178ZM254.191 24.6628H257.432V26.3766H257.47C258.401 25.0354 259.854 24.402 261.419 24.402C264.585 24.402 266.299 26.3766 266.299 29.6923V38.6707H262.983V30.5491C262.983 28.4256 262.089 27.308 260.375 27.308C258.662 27.308 257.47 28.4628 257.47 30.8099V38.6335H254.154V24.6628H254.191ZM268.832 36.2491L271.18 34.4982C272.074 35.6531 273.452 36.3237 275.017 36.3237C276.358 36.3237 277.811 35.8766 277.811 34.6099C277.811 33.5295 277.066 33.2687 275.203 32.9334L273.378 32.5982C271.105 32.1884 269.54 31.0707 269.54 28.9844C269.54 26.0785 272.111 24.402 275.091 24.402C277.625 24.402 279.376 25.0354 280.568 26.6746L278.183 28.3138C277.401 27.3452 276.432 26.9726 275.054 26.9726C273.676 26.9726 272.781 27.4942 272.781 28.5374C272.781 29.506 274.011 29.6923 275.427 29.9158L277.55 30.3256C279.897 30.7727 281.313 32.1511 281.313 34.2374C281.313 37.4786 278.034 39.006 275.129 39.006C272.595 39.0433 270.248 38.3727 268.87 36.3237L268.832 36.2491ZM101.259 61.8061V54.8394C101.259 50.8531 104.277 48.0218 108.487 48.0218C112.398 48.0218 115.304 50.257 115.304 53.5727V54.6159H113.665V53.8335C113.665 51.1884 111.691 49.5492 108.412 49.5492C105.134 49.5492 102.973 51.5982 102.973 54.8022V61.4708C102.973 64.6375 105.246 66.6493 108.524 66.6493C111.802 66.6493 113.74 64.9728 113.74 62.3277V59.5335H108.263V57.9688H115.379V62.514C115.379 65.9787 112.659 68.1395 108.524 68.1395C104.426 68.214 101.222 65.9787 101.222 61.7689L101.259 61.8061ZM119.402 64.6748V48.3943H121.004V64.7865C121.004 65.8297 121.601 66.6865 122.979 66.6865C123.538 66.6865 124.022 66.612 124.506 66.5747V67.8042C123.836 68.0277 123.091 68.065 122.495 68.065C120.11 68.065 119.402 66.4257 119.402 64.7493V64.6748ZM126.518 63.0355V59.3845C126.518 55.8453 128.902 53.9826 132.032 53.9826C135.385 53.9826 137.546 55.8826 137.546 59.3473V62.8865C137.546 66.4257 135.236 68.2885 132.069 68.2885C128.753 68.2885 126.518 66.5375 126.518 63.0728V63.0355ZM135.981 62.9238V59.2355C135.981 57.0002 134.751 55.3982 132.069 55.3982C129.387 55.3982 128.157 56.9257 128.157 59.3473V62.9983C128.157 65.3081 129.424 66.9101 132.106 66.9101C134.714 66.8728 135.981 65.4944 135.981 62.9238ZM142.612 65.4571H142.538V67.9159H141.01V48.4316H142.612V56.7394H142.687C143.581 54.7649 145.518 53.9453 147.083 53.9453C149.952 53.9453 151.889 55.8081 151.889 58.6767V63.11C151.889 66.761 149.355 68.2885 146.785 68.2885C145.034 68.2885 143.171 67.2826 142.612 65.4944V65.4571ZM150.25 63.2963V58.6767C150.25 56.7767 148.908 55.3982 146.599 55.3982C144.699 55.3982 142.65 57.112 142.65 59.9434V62.6257C142.65 65.2336 144.512 66.9101 146.636 66.9101C148.387 66.8728 150.25 65.7551 150.25 63.2963ZM154.571 64.3022C154.571 61.21 157.403 60.2041 159.638 60.2041H163.624V58.0806C163.624 55.9198 162.208 55.212 160.159 55.212C158.483 55.212 156.657 55.808 156.657 57.559V57.9688H155.167V57.559C155.167 54.8767 157.701 53.8708 160.234 53.8708C162.879 53.8708 165.263 54.8394 165.263 57.7826V64.3767C165.263 65.1591 165.375 67.2081 165.487 67.8042H163.885C163.848 67.3571 163.773 66.0532 163.773 65.6434H163.736C162.581 67.7669 160.793 68.1022 159.116 68.1022C156.62 68.1395 154.608 66.7983 154.608 64.265L154.571 64.3022ZM163.624 62.961V61.4336H159.973C158.11 61.4336 156.173 61.8806 156.173 64.2277C156.173 66.0532 157.775 66.9101 159.452 66.9101C162.246 66.9473 163.624 65.3081 163.624 62.961ZM169.175 64.6748V48.3943H170.777V64.7865C170.777 65.8297 171.373 66.6865 172.752 66.6865C173.31 66.6865 173.795 66.612 174.279 66.5747V67.8042C173.609 68.0277 172.863 68.065 172.267 68.065C169.883 68.065 169.175 66.4257 169.175 64.7493V64.6748ZM183.258 61.8061V54.8394C183.258 50.8531 186.275 48.0218 190.56 48.0218C194.471 48.0218 197.377 50.3316 197.377 53.6473V54.7276H195.701V53.9453C195.701 51.3002 193.726 49.5492 190.485 49.5492C187.244 49.5492 185.009 51.5982 185.009 54.8022V61.4708C185.009 64.6375 187.281 66.6493 190.597 66.6493C193.913 66.6493 195.701 64.8983 195.701 62.2532V61.8061H197.377V62.5512C197.377 66.0159 194.546 68.1767 190.634 68.1767C186.461 68.1767 183.258 65.9414 183.258 61.7316V61.8061ZM200.134 63.0355V59.3845C200.134 55.8453 202.518 53.9826 205.648 53.9826C209.001 53.9826 211.162 55.8826 211.162 59.3473V62.8865C211.162 66.4257 208.852 68.2885 205.685 68.2885C202.369 68.2885 200.134 66.5375 200.134 63.0728V63.0355ZM209.597 62.9238V59.2355C209.597 57.0002 208.367 55.3982 205.685 55.3982C203.003 55.3982 201.773 56.9257 201.773 59.3473V62.9983C201.773 65.3081 203.04 66.9101 205.722 66.9101C208.33 66.8728 209.597 65.4944 209.597 62.9238ZM214.589 54.2806H216.117V56.8884H216.154C217.122 54.9512 218.948 53.9826 220.885 53.9826C223.121 53.9826 224.35 55.361 224.722 56.963H224.76C225.728 55.0257 227.591 53.9826 229.603 53.9826C232.248 53.9826 233.85 55.6963 233.85 58.1551V67.9159H232.248V59.012C232.248 56.5531 231.056 55.3982 229.081 55.3982C226.958 55.3982 225.095 57.1492 224.983 59.5708V67.9159H223.381V58.9375C223.344 56.5904 222.226 55.3982 220.252 55.3982C218.277 55.3982 216.117 56.9629 216.117 59.6453V67.9532H214.515V54.2806H214.552H214.589ZM237.874 54.2806H239.401V56.7394H239.438C240.407 54.8022 242.344 53.9453 243.909 53.9453C246.777 53.9453 248.715 55.7708 248.715 58.5649V63.0355C248.715 66.6865 246.181 68.214 243.648 68.214C241.897 68.214 240.109 67.2081 239.513 65.4199H239.438V73.1689H237.836V54.2433H237.874V54.2806ZM247.113 63.2963V58.7139C247.113 56.8139 245.772 55.361 243.462 55.361C241.562 55.361 239.513 56.963 239.513 59.8316V62.6257C239.513 65.2336 241.375 66.9101 243.499 66.9101C245.25 66.9101 247.113 65.8297 247.113 63.3336V63.2963ZM251.434 64.3022C251.434 61.21 254.266 60.2041 256.501 60.2041H260.487V58.0806C260.487 55.9198 259.072 55.212 257.023 55.212C255.346 55.212 253.521 55.808 253.521 57.559V57.9688H252.03V57.559C252.03 54.8767 254.564 53.8708 257.097 53.8708C259.742 53.8708 262.126 54.8394 262.126 57.7826V64.3767C262.126 65.1591 262.238 67.2081 262.35 67.8042H260.748C260.711 67.3571 260.636 66.0532 260.636 65.6434H260.599C259.444 67.7669 257.656 68.1022 255.979 68.1022C253.483 68.1395 251.472 66.7983 251.472 64.265L251.434 64.3022ZM260.487 62.961V61.4336H256.836C254.974 61.4336 253.036 61.8806 253.036 64.2277C253.036 66.0532 254.638 66.9101 256.315 66.9101C259.109 66.9473 260.487 65.3081 260.487 62.961ZM265.293 62.7747V59.6081C265.293 56.0688 267.454 53.9826 270.732 53.9826C274.011 53.9826 275.911 55.808 275.911 58.4904V58.9002H274.346V58.3414C274.346 56.963 273.303 55.3237 270.732 55.3237C268.162 55.3237 266.932 57.1492 266.932 59.4963V62.7747C266.932 65.1218 268.087 66.8728 270.77 66.8728C273.452 66.8728 274.346 65.2708 274.346 63.8551V63.4081H275.911V63.7434C275.911 66.4258 273.974 68.2512 270.732 68.2512C267.379 68.2885 265.293 66.314 265.293 62.812V62.7747ZM280.083 65.1963V55.6218H277.55V54.3179H280.083V50.0335H281.685V54.3179H285.746V55.6218H281.685V64.7493C281.685 66.2395 282.431 66.6865 283.846 66.6865C284.554 66.6865 285.262 66.5748 285.895 66.3885V67.7669C285.001 68.0277 283.921 68.1022 283.362 68.1022C281.648 68.1022 280.083 67.4689 280.083 65.1591V65.1963ZM57.0002 46.5688L56.7767 45.7119C56.3296 42.1354 55.4355 38.5217 54.0571 34.9825C53.9826 34.759 53.9454 34.6472 53.9454 34.5354C53.9454 34.3491 54.0198 34.2001 54.4669 33.9766C56.2924 33.1197 57.7453 32.0766 58.8629 30.9962C59.0492 30.8099 59.161 30.7354 59.2355 30.7354C59.2355 30.7354 59.4218 30.8099 59.5708 31.0707C61.21 33.9021 62.4395 37.0688 63.2591 40.3845C63.3336 40.757 63.3709 41.0551 63.3709 41.2786C63.3709 41.7257 63.1846 42.0609 62.7748 42.508C61.6944 43.5884 59.7571 45.1531 57.708 46.3825C57.6335 46.3825 57.1119 46.6806 57.0002 46.606V46.5688ZM55.2492 50.7041C55.2492 50.7041 55.2492 50.0708 55.0257 49.959C54.8021 49.8472 54.3178 50.0335 54.3178 50.0335C50.7786 51.3002 46.9041 51.9335 42.8806 52.0453C42.1355 52.0826 42.1727 52.2688 42.1355 52.9022C42.0982 56.4786 42.0237 59.8689 41.9119 62.9238C41.9119 62.9238 41.8746 63.2218 41.9864 63.3336C42.0609 63.4081 42.3963 63.4081 42.3963 63.4081C46.4571 63.1473 50.257 62.2532 53.759 60.8375C54.2806 60.614 54.3551 60.2787 54.5042 59.6826C55.4728 55.808 55.212 50.6669 55.212 50.6669L55.2492 50.7041ZM53.6845 32.3374C55.2865 31.4805 56.7767 30.4746 57.6709 29.506C57.8944 29.2825 57.9688 29.1334 57.9688 28.9099C57.9688 28.6864 57.8944 28.5001 57.6709 28.1648C55.5101 25.1844 52.9394 22.8001 50.1826 21.0491C49.4002 21.6079 48.1336 22.0922 46.8296 22.3903C49.1022 25.1844 51.1139 28.3138 52.7532 31.8903C52.9394 32.2256 53.014 32.4491 53.1257 32.4864C53.312 32.5237 53.4983 32.4119 53.6845 32.3001V32.3374ZM50.8904 33.5295C51.1139 33.455 51.2257 33.4178 51.3002 33.2315C51.3374 33.0452 51.2257 32.6727 51.2257 32.6727C49.661 28.8354 47.761 25.3334 45.7492 22.6511C44.6688 22.8746 42.5453 22.9864 41.8002 22.9864C41.9119 26.8609 42.0237 30.6981 42.061 34.3864C42.061 34.7217 42.0982 34.908 42.2472 34.9825C42.3217 35.057 42.5079 35.0942 42.657 35.0942C45.1903 35.057 48.8041 34.3119 50.9276 33.4923L50.8904 33.5295ZM53.6472 62.514L53.5728 62.4394C53.4983 62.4394 53.3492 62.4767 53.0512 62.5512C48.6178 63.9297 44.7805 64.2649 42.3217 64.3022C41.9864 64.3022 41.9119 64.414 41.8746 64.8238L41.6511 68.1022C41.6511 68.1022 46.6061 68.214 51.71 66.0904C52.4179 65.1591 53.0139 64.0787 53.5355 62.8492C53.5727 62.7375 53.61 62.6257 53.6472 62.514ZM63.9669 44.3707H63.8924C62.7002 45.5629 60.5767 47.1649 58.0433 48.4316C57.261 48.8414 57.1492 49.1394 57.1119 49.8472C57.1492 53.9453 56.6649 57.0375 55.7708 59.7198C55.7708 59.7198 55.6963 59.9434 55.957 59.7943C56.2178 59.6826 59.8689 57.8943 62.4022 55.3237C63.2591 54.4669 63.9297 53.2002 64.0414 51.859C64.6003 47.3884 64.0041 44.3707 64.0041 44.3707H63.9669ZM65.2336 39.155C66.9101 36.2491 66.91 33.8648 66.91 33.8648C66.91 33.6785 66.91 33.5668 66.8727 33.4923C66.1276 30.1766 64.3395 27.0099 61.6944 24.104C61.7316 24.4021 61.7316 24.6628 61.7316 24.9609C61.7316 25.9668 61.5081 27.0099 61.0238 28.1275C60.8375 28.5001 60.763 28.7609 60.763 28.9844C60.763 29.208 60.8375 29.3197 60.9865 29.5805C61.0238 29.506 63.7062 33.157 65.2336 39.2296V39.155ZM26.7491 47.4257C27.0099 43.2903 28.1276 38.9688 29.6923 34.8335C29.7295 34.759 29.7296 34.6472 29.7296 34.6099C29.7296 34.4982 29.655 34.3864 29.4315 34.3119C26.8236 33.157 24.8491 31.6295 23.5452 29.9158C23.5452 29.9158 23.4707 29.8413 23.5452 29.7295C23.6197 29.655 23.7314 29.7295 23.7314 29.7295C25.2216 31.1452 27.3452 32.3374 29.8413 33.2688C29.9531 33.306 30.0275 33.306 30.102 33.306C30.2138 33.306 30.3256 33.2315 30.4746 32.8962C32.1511 29.0217 34.3491 25.3707 36.8452 22.3158C34.7216 21.7942 32.5981 20.6766 32.0765 19.4471C32.0765 19.4471 32.0021 19.3354 32.1138 19.2236C32.2256 19.1863 32.3374 19.2981 32.3374 19.2981C34.6472 21.8315 41.4276 21.6452 41.4276 21.6452C44.259 21.6452 50.108 20.6765 50.108 18.2922C50.108 16.1314 46.9786 15.0138 41.3531 14.9393C24.2531 14.9393 15.0882 29.7668 15.0882 41.5021C15.0882 55.6963 27.1216 68.065 41.055 68.065C41.055 67.8414 40.8688 64.7493 40.8688 64.7493C40.8688 64.414 40.7942 64.3022 40.3472 64.2277C40.3472 64.2277 34.2746 63.7806 32.3001 62.7375C32.2256 62.7002 32.2629 62.6257 32.3746 62.6257C32.3746 62.6257 36.4727 63.3336 40.3845 63.3336C40.3845 63.3336 40.7942 63.3708 40.7942 62.8865C40.7942 62.4767 40.608 52.8277 40.608 52.8277C40.5707 52.1198 40.4962 51.9708 39.7511 51.9335C35.5413 51.71 31.406 50.8531 27.8295 49.3257C27.755 49.2884 27.7178 49.2884 27.606 49.2884C27.5315 49.3257 27.5314 49.512 27.5314 49.512C27.1961 53.9826 27.7178 58.3042 27.7178 58.3042C27.7178 58.3787 27.7177 58.4159 27.6432 58.4159C27.5687 58.4159 27.5687 58.3414 27.5687 58.3414C26.9354 55.9571 26.6 53.312 26.6 50.5551C26.6 50.3316 26.6373 49.2139 26.6373 49.2139C26.6373 48.9159 26.5255 48.6923 26.2648 48.5806C24.5883 47.7237 23.0608 46.6806 21.7196 45.6374C21.7196 45.6374 21.6451 45.5629 21.7196 45.4511C21.7942 45.4139 21.8314 45.4511 21.8314 45.4511C23.2098 46.3453 24.8119 47.0904 26.4511 47.761H26.6746C26.6746 47.761 26.6746 47.5747 26.7118 47.3512M59.5708 26.6001C60.0178 25.4079 60.1296 23.7687 59.6081 22.6138C59.161 21.5334 57.6709 20.3785 57.6709 20.3785C55.3983 18.6275 52.8649 17.5099 51.6727 17.0628C51.8963 17.4354 52.008 17.8079 52.008 18.2177C52.008 18.8883 51.6727 19.5589 51.0766 20.2667C54.057 21.9805 56.5531 24.0668 58.7512 26.6001C58.7512 26.6001 59.0864 27.0099 59.31 27.0099C59.4217 26.9727 59.5708 26.6374 59.5708 26.6374V26.6001ZM66.016 46.1963C66.016 48.0218 65.8296 49.81 65.4943 51.4865C66.9845 48.9531 68.1395 45.2649 68.1395 40.9433C68.1395 39.7139 68.0649 38.4845 67.8414 37.255C67.5806 38.5217 67.1708 39.7884 66.463 40.9433C66.0159 41.7256 65.7924 42.2845 65.8669 42.8433C65.9414 44.5943 65.9787 46.159 65.9787 46.159L66.016 46.1963ZM54.5786 62.7747C54.1316 63.7434 53.5728 64.6748 52.9767 65.4944C56.1434 63.9297 59.7198 60.8747 62.1414 57.7081C60.2414 59.2355 58.0806 60.5394 55.6591 61.5453C55.212 61.8061 54.7649 62.3277 54.5786 62.7747ZM40.6824 37.4786C40.6824 36.9197 40.4217 36.6217 39.9374 36.5845C36.808 36.4727 33.8276 35.8766 31.1825 34.9452C31.0707 34.908 30.959 34.8707 30.8845 34.8707C30.81 34.8707 30.6982 34.908 30.6609 35.1315C28.2021 41.2786 27.7178 47.9472 27.7178 47.9472C27.6805 48.2453 27.755 48.3198 27.9786 48.3943C27.9786 48.3943 33.157 50.3688 39.8257 50.3688C39.8257 50.3688 40.2727 50.3688 40.4218 50.257C40.608 50.0708 40.6452 49.959 40.608 49.4002C40.6825 46.159 40.7197 37.4786 40.7197 37.4786H40.6824ZM31.406 33.2688C31.2197 33.6041 31.3315 33.7158 31.3315 33.7158C31.3688 33.7903 31.5177 33.8276 31.5177 33.8276C33.4923 34.4982 37.3295 35.1315 40.0119 35.1315C40.3099 35.1315 40.459 35.0942 40.608 34.9452C40.757 34.7962 40.7942 34.6099 40.8315 34.2746C40.906 30.5864 41.0178 26.7119 41.2041 22.9491C40.0492 22.9118 38.6334 22.7256 37.6648 22.5393C35.1315 25.706 33.0825 29.2825 31.4433 33.2315M42.7315 50.3315C44.5943 50.257 49.3257 49.9218 54.1316 48.059C54.8022 47.7982 54.9139 47.5002 54.9139 47.0159C54.9139 46.9041 54.914 46.7551 54.8767 46.606C54.4297 42.955 53.5355 39.2668 52.3061 35.6158C52.1198 35.1688 52.0453 35.057 51.9335 35.057C51.859 35.057 51.71 35.0943 51.561 35.1315C48.9159 36.0256 46.0099 36.51 42.9178 36.6217C42.3217 36.659 42.1727 37.0315 42.1727 37.4786C42.1727 39.3786 42.2099 42.359 42.2099 46.4198V49.7727C42.2099 49.7727 42.2099 50.0708 42.3217 50.2198C42.3217 50.3316 42.508 50.4061 42.6943 50.3315H42.7315ZM2.19803 59.6453C4.20981 65.0473 9.23927 65.4944 12.5922 68.7728C13.2256 69.4061 13.8589 70.0022 14.5667 70.3748H14.6039C13.8216 69.4807 12.9275 68.5493 12.3687 67.4689C10.3942 64.2277 11.102 59.6453 9.57457 56.1434C10.9158 58.0434 12.1452 60.0179 12.9275 62.2159C14.1569 65.7551 14.6039 69.7414 17.398 72.4238C14.3804 71.2316 10.8412 71.4924 8.12157 69.3316C5.32744 67.0963 2.68239 63.5943 2.12357 59.6453H2.19803ZM30.3628 75.1434C30.7726 75.1434 31.108 75.0317 31.108 75.0317C28.5001 74.4356 26.2647 73.9885 24.0294 72.0885C21.0863 69.5924 18.8137 67.1336 15.5353 65.0846C15.9451 65.3454 17.8078 69.1826 19.3726 71.4552C20.453 73.0571 22.204 73.9513 23.7687 74.3238C25.0727 74.6591 25.3707 74.7709 25.3707 74.7709C25.3707 74.7709 25.1471 74.8826 24.6628 74.7709C24.6628 74.7709 20.3413 73.8768 17.957 73.8768C8.60594 73.8768 6.14706 70.3003 6.14706 70.3003C8.94119 75.3297 14.6412 77.1925 18.404 77.1925C23.806 77.1552 27.7922 75.1434 30.3628 75.1434ZM64.7493 77.1925C68.5121 77.1925 74.212 75.3297 77.0061 70.3003C77.0061 70.3003 74.5474 73.8768 65.1963 73.8768C62.8493 73.8768 58.4904 74.7709 58.4904 74.7709C57.9688 74.8826 57.7826 74.7709 57.7826 74.7709C57.7826 74.7709 58.0806 74.6591 59.3846 74.3238C60.912 73.9513 62.663 73.0571 63.7806 71.4552C65.3453 69.1826 67.2081 65.3454 67.6179 65.0846C64.3394 67.0963 62.0669 69.6297 59.1237 72.0885C56.8884 73.9513 54.6532 74.4356 52.0453 75.0317C52.0453 75.0317 52.3805 75.1434 52.7903 75.1434C55.3982 75.1807 59.3846 77.1925 64.7493 77.1925ZM6.55692 62.1787C7.4883 62.961 9.38822 64.712 9.72351 65.1963C9.72351 65.1963 9.50004 64.4885 9.31376 63.5944C9.12749 62.7002 8.79221 60.5767 7.93534 58.7139C7.26475 57.2237 4.39609 52.5296 3.83727 49.9218C3.83727 49.9218 1.78828 58.0806 6.55692 62.1787ZM65.6807 72.4238C68.6983 71.2316 72.2002 71.4924 74.9198 69.3316C77.7512 67.0963 80.4336 63.5943 80.9924 59.6453C78.9807 65.0473 73.9513 65.4571 70.5611 68.7355C69.9277 69.3689 69.2944 69.965 68.5866 70.3375H68.5493C69.2944 69.4434 70.2258 68.512 70.7846 67.4316C72.7591 64.1904 72.0513 59.6081 73.5787 56.1061C72.2375 58.0061 71.0081 59.9806 70.2258 62.1787C68.9964 65.7551 68.5493 69.7042 65.7551 72.4238H65.6807ZM58.2297 78.3101C53.5728 76.4101 48.7296 74.0258 43.1041 75.1434C42.4708 75.2552 41.9491 75.4042 41.3903 75.4042C40.8315 75.4042 40.3472 75.2924 39.7139 75.1434C34.0884 73.9885 29.2452 76.4101 24.5511 78.3101C21.0491 79.5768 16.5039 79.3532 13.449 77.416C14.9765 79.167 16.9883 80.2846 19.0746 81.0297C22.9491 82.4454 27.5688 81.4768 30.7727 79.3905C33.5668 77.9748 35.9138 75.1062 39.5276 76.1493C35.8393 77.7513 32.4491 80.0238 29.3942 82.9297L31.2942 84.4199C31.2942 84.4199 34.8707 79.5768 41.3531 76.6709C47.7983 79.5768 51.4119 84.4199 51.4119 84.4199L53.3493 82.9297C50.2571 80.0238 46.9041 77.7885 43.2159 76.1493C46.8296 75.0689 49.2511 77.9003 51.9707 79.3905C55.2119 81.514 59.7944 82.4827 63.7062 81.0297C65.8297 80.2846 67.8414 79.167 69.3316 77.416C66.2394 79.3905 61.6944 79.614 58.2297 78.3101ZM76.6337 62.1787C81.4396 58.0806 79.4278 49.9218 79.4278 49.9218C78.869 52.5296 76.0003 57.2982 75.3297 58.7139C74.4356 60.5767 74.1376 62.7002 73.9513 63.5944C73.765 64.4885 73.5414 65.1963 73.5414 65.1963C73.8395 64.6748 75.7395 62.961 76.6708 62.1787H76.6337ZM0.819616 38.9688C2.23531 39.0805 3.65094 39.2296 5.06663 39.3413C6.22154 39.4158 6.78044 39.006 6.89221 37.9256C6.92946 37.4041 6.89222 37.0315 6.66869 36.6962C6.4079 36.2864 6.03533 36.0629 5.25298 35.9884C3.91179 35.8021 2.53333 35.6903 1.1549 35.5413C0.968622 35.8394 0.856875 36.1374 0.707855 36.4354C0.633345 36.4354 0.484261 36.4354 0.409751 36.3982C0.484261 35.504 0.633345 34.6472 0.707855 33.7531C0.782365 33.7531 0.931335 33.7903 1.00585 33.7903C1.08036 34.1256 1.19215 34.4237 1.26666 34.759C2.57058 34.9452 3.87447 35.057 5.17839 35.206C6.14702 35.3178 6.74318 35.6531 7.11573 36.3609C7.41377 36.9197 7.52552 37.5531 7.45101 38.3354C7.26473 40.0119 6.40782 40.906 4.95487 40.7943C3.53918 40.6825 2.12355 40.5707 0.707855 40.459C0.52158 40.757 0.409756 41.0551 0.29799 41.3531C0.22348 41.3531 0.0745101 41.3531 0 41.3158C0.0745101 40.2354 0.186303 39.1551 0.260813 38.0747C0.335323 38.0747 0.484293 38.0746 0.558803 38.1119C0.670568 38.4472 0.782397 38.7452 0.856907 39.0433L0.819616 38.9688ZM3.09212 30.6609C4.61958 31.1825 6.18433 31.6668 7.67453 32.1884C7.89806 31.9648 8.08439 31.7413 8.30792 31.5178C8.38243 31.555 8.49414 31.555 8.60591 31.5923C8.34512 32.3374 8.08429 33.1197 7.86076 33.8648C7.78625 33.8276 7.63728 33.8276 7.56277 33.7903C7.52552 33.455 7.52556 33.157 7.4883 32.8217C5.6628 32.2256 3.87448 31.6295 2.04898 31.0707C1.82545 31.3315 1.63924 31.5923 1.41571 31.8158C1.37845 31.8158 1.22941 31.8158 1.1549 31.7786C1.37843 31.108 1.56468 30.4374 1.82546 29.7295C3.72547 29.0589 5.62547 28.3883 7.52548 27.755C6.25881 27.3079 4.95489 26.8236 3.68821 26.4138C3.46468 26.6373 3.27847 26.8609 3.05494 27.1217C2.98043 27.0844 2.8686 27.0844 2.75684 27.0471C3.01762 26.2648 3.3157 25.4452 3.61374 24.7001C3.68825 24.7373 3.80005 24.7746 3.87456 24.7746C3.87456 25.1099 3.87448 25.4452 3.91173 25.7805C5.92351 26.4883 7.97255 27.2707 9.98433 27.9785C9.94707 28.1648 9.87261 28.3138 9.7981 28.5001C7.56279 29.1707 5.32742 29.9158 3.09212 30.7354V30.6609ZM13.0766 18.255L14.6785 19.4099C14.3059 20.3785 14.0079 20.9746 13.6354 21.5334C12.3314 23.3589 10.5059 23.7315 8.71767 22.4275C6.89217 21.1609 6.3333 19.2981 7.86076 17.1373C8.19606 16.6157 8.75493 16.1314 9.42552 15.4981L9.53728 15.3863L10.9157 16.3922L10.6177 16.802L9.23929 16.504C9.01576 16.6158 8.9039 16.7648 8.79214 16.9138C7.45096 18.5903 7.86077 20.155 9.49999 21.3471C10.9902 22.3903 12.5177 22.1295 13.4863 20.7883C13.6726 20.5275 13.7098 20.3785 13.7098 20.3785L12.3314 19.4099L11.4745 19.9314L11.2138 19.7452L13.0393 17.2491L13.3001 17.4354L13.0766 18.3295V18.255ZM15.9824 17.5099L11.9215 13.4118L11.0275 13.7471L10.8039 13.5236L13.0393 11.3255L13.2628 11.5491L12.8902 12.4432L16.9883 16.6157L18.255 15.3491L17.8452 13.9706L18.1432 13.6353L19.2981 15.0138C19.2981 15.0138 17.5471 16.6903 15.7961 18.5158L15.5726 18.2922L15.9824 17.5099ZM17.957 11.8471C16.653 9.9471 16.951 7.93533 18.9255 6.66866C20.751 5.51375 22.5021 6.03532 23.5452 7.74906C24.7001 9.64906 24.402 11.6981 22.5766 12.8902C20.9373 13.9706 19.1119 13.5236 17.957 11.8471ZM19.0001 10.8785C20.0805 12.4432 21.4962 12.9275 22.4648 12.3687C23.3962 11.7726 23.4334 10.3197 22.4648 8.68043C21.5334 7.15298 20.2295 6.48237 19.1119 7.26472C17.8452 8.00982 17.9196 9.42553 19.0373 10.9157L19.0001 10.8785ZM26.8236 9.72357L24.5511 4.43333H23.6197L23.5079 4.17255L26.7118 2.83136C27.4569 2.53332 27.9413 2.49608 28.4256 2.6451C28.8727 2.83138 29.1707 3.09216 29.357 3.53922C29.6923 4.43334 29.2452 5.29022 28.0903 5.8863C29.4688 5.36473 30.4001 5.66277 30.8099 6.66866C31.0334 7.22748 30.9217 7.82356 30.6237 8.27062C30.3256 8.71769 29.8785 9.01572 28.9844 9.42552L26.2648 10.6549L26.153 10.3942L26.8236 9.72357ZM26.8609 6.22159L27.2707 6.0353C28.0531 5.7 28.4256 4.99216 28.053 4.17255C27.755 3.39019 27.1217 3.09216 26.3393 3.42746L25.7433 3.7255L26.8236 6.22159H26.8609ZM28.1275 9.31376L28.5001 9.12747C29.0589 8.90394 29.2825 8.75494 29.4688 8.38239C29.655 8.04709 29.655 7.63727 29.4688 7.22746C29.1335 6.33334 28.4256 6.07256 27.4942 6.48237L26.9726 6.70589L28.1275 9.31376ZM33.604 5.21571L33.2314 7.37648L34.1256 7.60003V7.89805L31.853 8.45688V8.15884L32.5237 7.63727L34.1256 0.633329L34.6471 0.558831L38.2609 6.59413L39.1178 6.81768V7.1157L36.1746 7.52551V7.22746L36.8452 6.70589L35.802 4.8059L33.6413 5.21571H33.604ZM33.6786 4.69412L35.4296 4.35883L34.2001 2.12354L33.6413 4.69412H33.6786ZM40.5707 6.44511V0.707827L39.7139 0.335282V0.0372346C41.3531 -2.0464e-05 42.8433 0 42.8433 0V0.298047L41.9492 0.670592L41.8746 6.51963H43.5139L44.1844 5.29021H44.5943L44.408 7.1157C44.408 7.1157 41.7629 7.00395 39.5648 7.07846V6.78042L40.5335 6.44511H40.5707ZM52.4179 8.1961L53.312 6.96668L53.759 7.07846L53.2002 8.71767H53.014C52.0453 8.68041 51.4865 8.64316 50.8531 8.45688C48.8041 7.89806 47.91 6.29609 48.3571 4.20981C48.8787 2.01176 50.4061 0.968632 53.014 1.60197C53.6473 1.71373 54.2806 2.04902 55.0257 2.49608L54.5786 4.17255L54.1316 4.09805L54.0198 2.57058C54.0198 2.57058 53.7591 2.45882 53.461 2.34706C51.1885 1.75098 50.108 2.86862 49.6982 4.58235C49.2884 6.33334 50.0336 7.71178 51.5983 8.15884C51.9336 8.08433 52.1198 8.12158 52.3433 8.15884L52.4179 8.1961ZM65.6061 13.8961L70.4493 11.6981L72.0513 13.3001L71.8277 13.5236L70.8964 13.2255L66.9473 17.3236L67.3944 18.2177L67.1708 18.4412C66.1277 17.3981 65.0473 16.3922 65.0473 16.3922L65.2708 16.1314L66.165 16.4295L69.3689 13.0765L64.0041 15.4236L63.7806 15.2373L65.3826 9.61181L62.4767 13.2628L62.8865 14.1197L62.663 14.3432L60.6512 12.9275L60.8747 12.704L61.8061 13.002L65.4199 8.60591L65.01 7.74906L65.2336 7.52551L67.0964 8.86669L65.5689 13.9334L65.6061 13.8961ZM71.4924 19.0373L69.6669 20.3785L69.8905 21.3099L69.6669 21.4961C68.7728 20.2667 67.7669 19.0373 67.7669 19.0373L68.0278 18.851L68.8101 19.2981L73.2806 15.7961L73.0571 14.902L73.3179 14.7157L75.1807 17.1001C75.814 17.9569 75.9631 18.4413 76.0376 19.0373C76.0376 19.6334 75.7767 20.1177 75.2924 20.5275C74.2493 21.2726 72.9454 20.9001 71.9768 19.5961L71.5296 18.9628L71.4924 19.0373ZM72.0885 19.0373C72.4238 19.4844 72.6846 19.6706 72.9826 19.7452C73.4297 19.8197 73.9512 19.7824 74.361 19.4471C74.7709 19.1491 75.0316 18.7765 75.0689 18.404C75.1062 18.0314 75.0317 17.7334 74.7336 17.3608L74.3238 16.8393L71.8277 18.7765L72.0885 19.0373ZM74.3238 23.8432L72.163 24.0295V24.9236L71.9395 25.0354C71.3807 24.0295 70.7473 22.9864 70.7473 22.9864L71.0081 22.8001L71.6787 23.3962L78.8317 22.9864L79.0925 23.5825L74.2866 28.6491V29.5433L74.0631 29.655C73.467 28.2393 72.9082 26.9354 72.9082 26.9354L73.1689 26.8236L73.8395 27.3825L75.2551 25.855L74.2493 23.9177L74.3238 23.8432ZM74.8454 23.7687L75.6277 25.3707L77.4533 23.6197L74.8454 23.806V23.7687ZM75.9258 34.1256L77.4905 34.3119L77.6022 34.759L75.9258 35.0942L75.8512 34.9825C75.3297 34.1256 75.1434 33.6413 74.9571 33.0452C74.3611 30.9217 75.2924 29.4687 77.416 28.7609C79.614 28.0531 81.4023 29.1334 81.9984 31.4432C82.1847 32.0766 82.2591 32.8217 82.2591 33.6786L80.5827 34.0884L80.4709 33.6413L81.7003 32.7844C81.7003 32.7844 81.6631 32.3746 81.6258 32.1511C81.067 30.2138 79.6512 29.4687 77.8257 30.0276C76.0748 30.6236 75.2552 31.7785 75.7023 33.455C75.7395 33.7158 75.814 33.8648 75.963 34.1256H75.9258ZM82.4826 39.1178L76.7081 39.5276L76.4101 40.7198H76.112C76.0748 38.857 75.814 37.1433 75.814 37.1433H76.112L76.5591 38.2237L82.3337 37.8139L82.2219 36.3237L80.7316 35.9139V35.5041L82.669 35.3178C82.669 35.3178 83.116 38.4472 83.116 41.5021L81.1415 41.6884V41.2786L82.4826 40.6452V39.1178ZM55.6962 6.29608C56.6649 4.17255 58.6022 3.42747 60.6512 4.54512C62.5885 5.51375 62.9983 7.33922 62.0296 9.09021C60.9865 11.0275 59.0119 11.8098 57.1119 10.8412C55.361 9.94708 54.8021 8.19609 55.6962 6.29608ZM57.0375 6.66866C56.2551 8.38239 56.4786 9.87258 57.4845 10.3569C58.4531 10.8785 59.7571 10.1334 60.6885 8.53141C61.5454 6.9667 61.4335 5.51374 60.2414 4.8804C58.9747 4.20981 57.8571 4.95492 57.0375 6.63139V6.66866ZM57.0002 46.5688L56.7767 45.7119C56.3296 42.1354 55.4355 38.5217 54.0571 34.9825C53.9826 34.759 53.9454 34.6472 53.9454 34.5354C53.9454 34.3491 54.0198 34.2001 54.4669 33.9766C56.2924 33.1197 57.7453 32.0766 58.8629 30.9962C59.0492 30.8099 59.161 30.7354 59.2355 30.7354C59.2355 30.7354 59.4218 30.8099 59.5708 31.0707C61.21 33.9021 62.4395 37.0688 63.2591 40.3845C63.3336 40.757 63.3709 41.0551 63.3709 41.2786C63.3709 41.7257 63.1846 42.0609 62.7748 42.508C61.6944 43.5884 59.7571 45.1531 57.708 46.3825C57.6335 46.3825 57.1119 46.6806 57.0002 46.606V46.5688ZM55.2492 50.7041C55.2492 50.7041 55.2492 50.0708 55.0257 49.959C54.8021 49.8472 54.3178 50.0335 54.3178 50.0335C50.7786 51.3002 46.9041 51.9335 42.8806 52.0453C42.1355 52.0826 42.1727 52.2688 42.1355 52.9022C42.0982 56.4786 42.0237 59.8689 41.9119 62.9238C41.9119 62.9238 41.8746 63.2218 41.9864 63.3336C42.0609 63.4081 42.3963 63.4081 42.3963 63.4081C46.4571 63.1473 50.257 62.2532 53.759 60.8375C54.2806 60.614 54.3551 60.2787 54.5042 59.6826C55.4728 55.808 55.212 50.6669 55.212 50.6669L55.2492 50.7041ZM53.6845 32.3374C55.2865 31.4805 56.7767 30.4746 57.6709 29.506C57.8944 29.2825 57.9688 29.1334 57.9688 28.9099C57.9688 28.6864 57.8944 28.5001 57.6709 28.1648C55.5101 25.1844 52.9394 22.8001 50.1826 21.0491C49.4002 21.6079 48.1336 22.0922 46.8296 22.3903C49.1022 25.1844 51.1139 28.3138 52.7532 31.8903C52.9394 32.2256 53.014 32.4491 53.1257 32.4864C53.312 32.5237 53.4983 32.4119 53.6845 32.3001V32.3374ZM50.8904 33.5295C51.1139 33.455 51.2257 33.4178 51.3002 33.2315C51.3374 33.0452 51.2257 32.6727 51.2257 32.6727C49.661 28.8354 47.761 25.3334 45.7492 22.6511C44.6688 22.8746 42.5453 22.9864 41.8002 22.9864C41.9119 26.8609 42.0237 30.6981 42.061 34.3864C42.061 34.7217 42.0982 34.908 42.2472 34.9825C42.3217 35.057 42.5079 35.0942 42.657 35.0942C45.1903 35.057 48.8041 34.3119 50.9276 33.4923L50.8904 33.5295ZM53.6472 62.514L53.5728 62.4394C53.4983 62.4394 53.3492 62.4767 53.0512 62.5512C48.6178 63.9297 44.7805 64.2649 42.3217 64.3022C41.9864 64.3022 41.9119 64.414 41.8746 64.8238L41.6511 68.1022C41.6511 68.1022 46.6061 68.214 51.71 66.0904C52.4179 65.1591 53.0139 64.0787 53.5355 62.8492C53.5727 62.7375 53.61 62.6257 53.6472 62.514ZM63.9669 44.3707H63.8924C62.7002 45.5629 60.5767 47.1649 58.0433 48.4316C57.261 48.8414 57.1492 49.1394 57.1119 49.8472C57.1492 53.9453 56.6649 57.0375 55.7708 59.7198C55.7708 59.7198 55.6963 59.9434 55.957 59.7943C56.2178 59.6826 59.8689 57.8943 62.4022 55.3237C63.2591 54.4669 63.9297 53.2002 64.0414 51.859C64.6003 47.3884 64.0041 44.3707 64.0041 44.3707H63.9669ZM65.2336 39.155C66.9101 36.2491 66.91 33.8648 66.91 33.8648C66.91 33.6785 66.91 33.5668 66.8727 33.4923C66.1276 30.1766 64.3395 27.0099 61.6944 24.104C61.7316 24.4021 61.7316 24.6628 61.7316 24.9609C61.7316 25.9668 61.5081 27.0099 61.0238 28.1275C60.8375 28.5001 60.763 28.7609 60.763 28.9844C60.763 29.208 60.8375 29.3197 60.9865 29.5805C61.0238 29.506 63.7062 33.157 65.2336 39.2296V39.155ZM26.7491 47.4257C27.0099 43.2903 28.1276 38.9688 29.6923 34.8335C29.7295 34.759 29.7296 34.6472 29.7296 34.6099C29.7296 34.4982 29.655 34.3864 29.4315 34.3119C26.8236 33.157 24.8491 31.6295 23.5452 29.9158C23.5452 29.9158 23.4707 29.8413 23.5452 29.7295C23.6197 29.655 23.7314 29.7295 23.7314 29.7295C25.2216 31.1452 27.3452 32.3374 29.8413 33.2688C29.9531 33.306 30.0275 33.306 30.102 33.306C30.2138 33.306 30.3256 33.2315 30.4746 32.8962C32.1511 29.0217 34.3491 25.3707 36.8452 22.3158C34.7216 21.7942 32.5981 20.6766 32.0765 19.4471C32.0765 19.4471 32.0021 19.3354 32.1138 19.2236C32.2256 19.1863 32.3374 19.2981 32.3374 19.2981C34.6472 21.8315 41.4276 21.6452 41.4276 21.6452C44.259 21.6452 50.108 20.6765 50.108 18.2922C50.108 16.1314 46.9786 15.0138 41.3531 14.9393C24.2531 14.9393 15.0882 29.7668 15.0882 41.5021C15.0882 55.6963 27.1216 68.065 41.055 68.065C41.055 67.8414 40.8688 64.7493 40.8688 64.7493C40.8688 64.414 40.7942 64.3022 40.3472 64.2277C40.3472 64.2277 34.2746 63.7806 32.3001 62.7375C32.2256 62.7002 32.2629 62.6257 32.3746 62.6257C32.3746 62.6257 36.4727 63.3336 40.3845 63.3336C40.3845 63.3336 40.7942 63.3708 40.7942 62.8865C40.7942 62.4767 40.608 52.8277 40.608 52.8277C40.5707 52.1198 40.4962 51.9708 39.7511 51.9335C35.5413 51.71 31.406 50.8531 27.8295 49.3257C27.755 49.2884 27.7178 49.2884 27.606 49.2884C27.5315 49.3257 27.5314 49.512 27.5314 49.512C27.1961 53.9826 27.7178 58.3042 27.7178 58.3042C27.7178 58.3787 27.7177 58.4159 27.6432 58.4159C27.5687 58.4159 27.5687 58.3414 27.5687 58.3414C26.9354 55.9571 26.6 53.312 26.6 50.5551C26.6 50.3316 26.6373 49.2139 26.6373 49.2139C26.6373 48.9159 26.5255 48.6923 26.2648 48.5806C24.5883 47.7237 23.0608 46.6806 21.7196 45.6374C21.7196 45.6374 21.6451 45.5629 21.7196 45.4511C21.7942 45.4139 21.8314 45.4511 21.8314 45.4511C23.2098 46.3453 24.8119 47.0904 26.4511 47.761H26.6746C26.6746 47.761 26.6746 47.5747 26.7118 47.3512M59.5708 26.6001C60.0178 25.4079 60.1296 23.7687 59.6081 22.6138C59.161 21.5334 57.6709 20.3785 57.6709 20.3785C55.3983 18.6275 52.8649 17.5099 51.6727 17.0628C51.8963 17.4354 52.008 17.8079 52.008 18.2177C52.008 18.8883 51.6727 19.5589 51.0766 20.2667C54.057 21.9805 56.5531 24.0668 58.7512 26.6001C58.7512 26.6001 59.0864 27.0099 59.31 27.0099C59.4217 26.9727 59.5708 26.6374 59.5708 26.6374V26.6001ZM66.016 46.1963C66.016 48.0218 65.8296 49.81 65.4943 51.4865C66.9845 48.9531 68.1395 45.2649 68.1395 40.9433C68.1395 39.7139 68.0649 38.4845 67.8414 37.255C67.5806 38.5217 67.1708 39.7884 66.463 40.9433C66.0159 41.7256 65.7924 42.2845 65.8669 42.8433C65.9414 44.5943 65.9787 46.159 65.9787 46.159L66.016 46.1963ZM54.5786 62.7747C54.1316 63.7434 53.5728 64.6748 52.9767 65.4944C56.1434 63.9297 59.7198 60.8747 62.1414 57.7081C60.2414 59.2355 58.0806 60.5394 55.6591 61.5453C55.212 61.8061 54.7649 62.3277 54.5786 62.7747ZM40.6824 37.4786C40.6824 36.9197 40.4217 36.6217 39.9374 36.5845C36.808 36.4727 33.8276 35.8766 31.1825 34.9452C31.0707 34.908 30.959 34.8707 30.8845 34.8707C30.81 34.8707 30.6982 34.908 30.6609 35.1315C28.2021 41.2786 27.7178 47.9472 27.7178 47.9472C27.6805 48.2453 27.755 48.3198 27.9786 48.3943C27.9786 48.3943 33.157 50.3688 39.8257 50.3688C39.8257 50.3688 40.2727 50.3688 40.4218 50.257C40.608 50.0708 40.6452 49.959 40.608 49.4002C40.6825 46.159 40.7197 37.4786 40.7197 37.4786H40.6824ZM31.406 33.2688C31.2197 33.6041 31.3315 33.7158 31.3315 33.7158C31.3688 33.7903 31.5177 33.8276 31.5177 33.8276C33.4923 34.4982 37.3295 35.1315 40.0119 35.1315C40.3099 35.1315 40.459 35.0942 40.608 34.9452C40.757 34.7962 40.7942 34.6099 40.8315 34.2746C40.906 30.5864 41.0178 26.7119 41.2041 22.9491C40.0492 22.9118 38.6334 22.7256 37.6648 22.5393C35.1315 25.706 33.0825 29.2825 31.4433 33.2315M42.7315 50.3315C44.5943 50.257 49.3257 49.9218 54.1316 48.059C54.8022 47.7982 54.9139 47.5002 54.9139 47.0159C54.9139 46.9041 54.914 46.7551 54.8767 46.606C54.4297 42.955 53.5355 39.2668 52.3061 35.6158C52.1198 35.1688 52.0453 35.057 51.9335 35.057C51.859 35.057 51.71 35.0943 51.561 35.1315C48.9159 36.0256 46.0099 36.51 42.9178 36.6217C42.3217 36.659 42.1727 37.0315 42.1727 37.4786C42.1727 39.3786 42.2099 42.359 42.2099 46.4198V49.7727C42.2099 49.7727 42.2099 50.0708 42.3217 50.2198C42.3217 50.3316 42.508 50.4061 42.6943 50.3315H42.7315ZM2.19803 59.6453C4.20981 65.0473 9.23927 65.4944 12.5922 68.7728C13.2256 69.4061 13.8589 70.0022 14.5667 70.3748H14.6039C13.8216 69.4807 12.9275 68.5493 12.3687 67.4689C10.3942 64.2277 11.102 59.6453 9.57457 56.1434C10.9158 58.0434 12.1452 60.0179 12.9275 62.2159C14.1569 65.7551 14.6039 69.7414 17.398 72.4238C14.3804 71.2316 10.8412 71.4924 8.12157 69.3316C5.32744 67.0963 2.68239 63.5943 2.12357 59.6453H2.19803ZM30.3628 75.1434C30.7726 75.1434 31.108 75.0317 31.108 75.0317C28.5001 74.4356 26.2647 73.9885 24.0294 72.0885C21.0863 69.5924 18.8137 67.1336 15.5353 65.0846C15.9451 65.3454 17.8078 69.1826 19.3726 71.4552C20.453 73.0571 22.204 73.9513 23.7687 74.3238C25.0727 74.6591 25.3707 74.7709 25.3707 74.7709C25.3707 74.7709 25.1471 74.8826 24.6628 74.7709C24.6628 74.7709 20.3413 73.8768 17.957 73.8768C8.60594 73.8768 6.14706 70.3003 6.14706 70.3003C8.94119 75.3297 14.6412 77.1925 18.404 77.1925C23.806 77.1552 27.7922 75.1434 30.3628 75.1434ZM64.7493 77.1925C68.5121 77.1925 74.212 75.3297 77.0061 70.3003C77.0061 70.3003 74.5474 73.8768 65.1963 73.8768C62.8493 73.8768 58.4904 74.7709 58.4904 74.7709C57.9688 74.8826 57.7826 74.7709 57.7826 74.7709C57.7826 74.7709 58.0806 74.6591 59.3846 74.3238C60.912 73.9513 62.663 73.0571 63.7806 71.4552C65.3453 69.1826 67.2081 65.3454 67.6179 65.0846C64.3394 67.0963 62.0669 69.6297 59.1237 72.0885C56.8884 73.9513 54.6532 74.4356 52.0453 75.0317C52.0453 75.0317 52.3805 75.1434 52.7903 75.1434C55.3982 75.1807 59.3846 77.1925 64.7493 77.1925ZM6.55692 62.1787C7.4883 62.961 9.38822 64.712 9.72351 65.1963C9.72351 65.1963 9.50004 64.4885 9.31376 63.5944C9.12749 62.7002 8.79221 60.5767 7.93534 58.7139C7.26475 57.2237 4.39609 52.5296 3.83727 49.9218C3.83727 49.9218 1.78828 58.0806 6.55692 62.1787ZM65.6807 72.4238C68.6983 71.2316 72.2002 71.4924 74.9198 69.3316C77.7512 67.0963 80.4336 63.5943 80.9924 59.6453C78.9807 65.0473 73.9513 65.4571 70.5611 68.7355C69.9277 69.3689 69.2944 69.965 68.5866 70.3375H68.5493C69.2944 69.4434 70.2258 68.512 70.7846 67.4316C72.7591 64.1904 72.0513 59.6081 73.5787 56.1061C72.2375 58.0061 71.0081 59.9806 70.2258 62.1787C68.9964 65.7551 68.5493 69.7042 65.7551 72.4238H65.6807ZM58.2297 78.3101C53.5728 76.4101 48.7296 74.0258 43.1041 75.1434C42.4708 75.2552 41.9491 75.4042 41.3903 75.4042C40.8315 75.4042 40.3472 75.2924 39.7139 75.1434C34.0884 73.9885 29.2452 76.4101 24.5511 78.3101C21.0491 79.5768 16.5039 79.3532 13.449 77.416C14.9765 79.167 16.9883 80.2846 19.0746 81.0297C22.9491 82.4454 27.5688 81.4768 30.7727 79.3905C33.5668 77.9748 35.9138 75.1062 39.5276 76.1493C35.8393 77.7513 32.4491 80.0238 29.3942 82.9297L31.2942 84.4199C31.2942 84.4199 34.8707 79.5768 41.3531 76.6709C47.7983 79.5768 51.4119 84.4199 51.4119 84.4199L53.3493 82.9297C50.2571 80.0238 46.9041 77.7885 43.2159 76.1493C46.8296 75.0689 49.2511 77.9003 51.9707 79.3905C55.2119 81.514 59.7944 82.4827 63.7062 81.0297C65.8297 80.2846 67.8414 79.167 69.3316 77.416C66.2394 79.3905 61.6944 79.614 58.2297 78.3101ZM76.6337 62.1787C81.4396 58.0806 79.4278 49.9218 79.4278 49.9218C78.869 52.5296 76.0003 57.2982 75.3297 58.7139C74.4356 60.5767 74.1376 62.7002 73.9513 63.5944C73.765 64.4885 73.5414 65.1963 73.5414 65.1963C73.8395 64.6748 75.7395 62.961 76.6708 62.1787H76.6337ZM0.819616 38.9688C2.23531 39.0805 3.65094 39.2296 5.06663 39.3413C6.22154 39.4158 6.78044 39.006 6.89221 37.9256C6.92946 37.4041 6.89222 37.0315 6.66869 36.6962C6.4079 36.2864 6.03533 36.0629 5.25298 35.9884C3.91179 35.8021 2.53333 35.6903 1.1549 35.5413C0.968622 35.8394 0.856875 36.1374 0.707855 36.4354C0.633345 36.4354 0.484261 36.4354 0.409751 36.3982C0.484261 35.504 0.633345 34.6472 0.707855 33.7531C0.782365 33.7531 0.931335 33.7903 1.00585 33.7903C1.08036 34.1256 1.19215 34.4237 1.26666 34.759C2.57058 34.9452 3.87447 35.057 5.17839 35.206C6.14702 35.3178 6.74318 35.6531 7.11573 36.3609C7.41377 36.9197 7.52552 37.5531 7.45101 38.3354C7.26473 40.0119 6.40782 40.906 4.95487 40.7943C3.53918 40.6825 2.12355 40.5707 0.707855 40.459C0.52158 40.757 0.409756 41.0551 0.29799 41.3531C0.22348 41.3531 0.0745101 41.3531 0 41.3158C0.0745101 40.2354 0.186303 39.1551 0.260813 38.0747C0.335323 38.0747 0.484293 38.0746 0.558803 38.1119C0.670568 38.4472 0.782397 38.7452 0.856907 39.0433L0.819616 38.9688ZM3.09212 30.6609C4.61958 31.1825 6.18433 31.6668 7.67453 32.1884C7.89806 31.9648 8.08439 31.7413 8.30792 31.5178C8.38243 31.555 8.49414 31.555 8.60591 31.5923C8.34512 32.3374 8.08429 33.1197 7.86076 33.8648C7.78625 33.8276 7.63728 33.8276 7.56277 33.7903C7.52552 33.455 7.52556 33.157 7.4883 32.8217C5.6628 32.2256 3.87448 31.6295 2.04898 31.0707C1.82545 31.3315 1.63924 31.5923 1.41571 31.8158C1.37845 31.8158 1.22941 31.8158 1.1549 31.7786C1.37843 31.108 1.56468 30.4374 1.82546 29.7295C3.72547 29.0589 5.62547 28.3883 7.52548 27.755C6.25881 27.3079 4.95489 26.8236 3.68821 26.4138C3.46468 26.6373 3.27847 26.8609 3.05494 27.1217C2.98043 27.0844 2.8686 27.0844 2.75684 27.0471C3.01762 26.2648 3.3157 25.4452 3.61374 24.7001C3.68825 24.7373 3.80005 24.7746 3.87456 24.7746C3.87456 25.1099 3.87448 25.4452 3.91173 25.7805C5.92351 26.4883 7.97255 27.2707 9.98433 27.9785C9.94707 28.1648 9.87261 28.3138 9.7981 28.5001C7.56279 29.1707 5.32742 29.9158 3.09212 30.7354V30.6609ZM13.0766 18.255L14.6785 19.4099C14.3059 20.3785 14.0079 20.9746 13.6354 21.5334C12.3314 23.3589 10.5059 23.7315 8.71767 22.4275C6.89217 21.1609 6.3333 19.2981 7.86076 17.1373C8.19606 16.6157 8.75493 16.1314 9.42552 15.4981L9.53728 15.3863L10.9157 16.3922L10.6177 16.802L9.23929 16.504C9.01576 16.6158 8.9039 16.7648 8.79214 16.9138C7.45096 18.5903 7.86077 20.155 9.49999 21.3471C10.9902 22.3903 12.5177 22.1295 13.4863 20.7883C13.6726 20.5275 13.7098 20.3785 13.7098 20.3785L12.3314 19.4099L11.4745 19.9314L11.2138 19.7452L13.0393 17.2491L13.3001 17.4354L13.0766 18.3295V18.255ZM15.9824 17.5099L11.9215 13.4118L11.0275 13.7471L10.8039 13.5236L13.0393 11.3255L13.2628 11.5491L12.8902 12.4432L16.9883 16.6157L18.255 15.3491L17.8452 13.9706L18.1432 13.6353L19.2981 15.0138C19.2981 15.0138 17.5471 16.6903 15.7961 18.5158L15.5726 18.2922L15.9824 17.5099ZM17.957 11.8471C16.653 9.9471 16.951 7.93533 18.9255 6.66866C20.751 5.51375 22.5021 6.03532 23.5452 7.74906C24.7001 9.64906 24.402 11.6981 22.5766 12.8902C20.9373 13.9706 19.1119 13.5236 17.957 11.8471ZM19.0001 10.8785C20.0805 12.4432 21.4962 12.9275 22.4648 12.3687C23.3962 11.7726 23.4334 10.3197 22.4648 8.68043C21.5334 7.15298 20.2295 6.48237 19.1119 7.26472C17.8452 8.00982 17.9196 9.42553 19.0373 10.9157L19.0001 10.8785ZM26.8236 9.72357L24.5511 4.43333H23.6197L23.5079 4.17255L26.7118 2.83136C27.4569 2.53332 27.9413 2.49608 28.4256 2.6451C28.8727 2.83138 29.1707 3.09216 29.357 3.53922C29.6923 4.43334 29.2452 5.29022 28.0903 5.8863C29.4688 5.36473 30.4001 5.66277 30.8099 6.66866C31.0334 7.22748 30.9217 7.82356 30.6237 8.27062C30.3256 8.71769 29.8785 9.01572 28.9844 9.42552L26.2648 10.6549L26.153 10.3942L26.8236 9.72357ZM26.8609 6.22159L27.2707 6.0353C28.0531 5.7 28.4256 4.99216 28.053 4.17255C27.755 3.39019 27.1217 3.09216 26.3393 3.42746L25.7433 3.7255L26.8236 6.22159H26.8609ZM28.1275 9.31376L28.5001 9.12747C29.0589 8.90394 29.2825 8.75494 29.4688 8.38239C29.655 8.04709 29.655 7.63727 29.4688 7.22746C29.1335 6.33334 28.4256 6.07256 27.4942 6.48237L26.9726 6.70589L28.1275 9.31376ZM33.604 5.21571L33.2314 7.37648L34.1256 7.60003V7.89805L31.853 8.45688V8.15884L32.5237 7.63727L34.1256 0.633329L34.6471 0.558831L38.2609 6.59413L39.1178 6.81768V7.1157L36.1746 7.52551V7.22746L36.8452 6.70589L35.802 4.8059L33.6413 5.21571H33.604ZM33.6786 4.69412L35.4296 4.35883L34.2001 2.12354L33.6413 4.69412H33.6786ZM40.5707 6.44511V0.707827L39.7139 0.335282V0.0372346C41.3531 -2.0464e-05 42.8433 0 42.8433 0V0.298047L41.9492 0.670592L41.8746 6.51963H43.5139L44.1844 5.29021H44.5943L44.408 7.1157C44.408 7.1157 41.7629 7.00395 39.5648 7.07846V6.78042L40.5335 6.44511H40.5707ZM52.4179 8.1961L53.312 6.96668L53.759 7.07846L53.2002 8.71767H53.014C52.0453 8.68041 51.4865 8.64316 50.8531 8.45688C48.8041 7.89806 47.91 6.29609 48.3571 4.20981C48.8787 2.01176 50.4061 0.968632 53.014 1.60197C53.6473 1.71373 54.2806 2.04902 55.0257 2.49608L54.5786 4.17255L54.1316 4.09805L54.0198 2.57058C54.0198 2.57058 53.7591 2.45882 53.461 2.34706C51.1885 1.75098 50.108 2.86862 49.6982 4.58235C49.2884 6.33334 50.0336 7.71178 51.5983 8.15884C51.9336 8.08433 52.1198 8.12158 52.3433 8.15884L52.4179 8.1961ZM65.6061 13.8961L70.4493 11.6981L72.0513 13.3001L71.8277 13.5236L70.8964 13.2255L66.9473 17.3236L67.3944 18.2177L67.1708 18.4412C66.1277 17.3981 65.0473 16.3922 65.0473 16.3922L65.2708 16.1314L66.165 16.4295L69.3689 13.0765L64.0041 15.4236L63.7806 15.2373L65.3826 9.61181L62.4767 13.2628L62.8865 14.1197L62.663 14.3432L60.6512 12.9275L60.8747 12.704L61.8061 13.002L65.4199 8.60591L65.01 7.74906L65.2336 7.52551L67.0964 8.86669L65.5689 13.9334L65.6061 13.8961ZM71.4924 19.0373L69.6669 20.3785L69.8905 21.3099L69.6669 21.4961C68.7728 20.2667 67.7669 19.0373 67.7669 19.0373L68.0278 18.851L68.8101 19.2981L73.2806 15.7961L73.0571 14.902L73.3179 14.7157L75.1807 17.1001C75.814 17.9569 75.9631 18.4413 76.0376 19.0373C76.0376 19.6334 75.7767 20.1177 75.2924 20.5275C74.2493 21.2726 72.9454 20.9001 71.9768 19.5961L71.5296 18.9628L71.4924 19.0373ZM72.0885 19.0373C72.4238 19.4844 72.6846 19.6706 72.9826 19.7452C73.4297 19.8197 73.9512 19.7824 74.361 19.4471C74.7709 19.1491 75.0316 18.7765 75.0689 18.404C75.1062 18.0314 75.0317 17.7334 74.7336 17.3608L74.3238 16.8393L71.8277 18.7765L72.0885 19.0373ZM74.3238 23.8432L72.163 24.0295V24.9236L71.9395 25.0354C71.3807 24.0295 70.7473 22.9864 70.7473 22.9864L71.0081 22.8001L71.6787 23.3962L78.8317 22.9864L79.0925 23.5825L74.2866 28.6491V29.5433L74.0631 29.655C73.467 28.2393 72.9082 26.9354 72.9082 26.9354L73.1689 26.8236L73.8395 27.3825L75.2551 25.855L74.2493 23.9177L74.3238 23.8432ZM74.8454 23.7687L75.6277 25.3707L77.4533 23.6197L74.8454 23.806V23.7687ZM75.9258 34.1256L77.4905 34.3119L77.6022 34.759L75.9258 35.0942L75.8512 34.9825C75.3297 34.1256 75.1434 33.6413 74.9571 33.0452C74.3611 30.9217 75.2924 29.4687 77.416 28.7609C79.614 28.0531 81.4023 29.1334 81.9984 31.4432C82.1847 32.0766 82.2591 32.8217 82.2591 33.6786L80.5827 34.0884L80.4709 33.6413L81.7003 32.7844C81.7003 32.7844 81.6631 32.3746 81.6258 32.1511C81.067 30.2138 79.6512 29.4687 77.8257 30.0276C76.0748 30.6236 75.2552 31.7785 75.7023 33.455C75.7395 33.7158 75.814 33.8648 75.963 34.1256H75.9258ZM82.4826 39.1178L76.7081 39.5276L76.4101 40.7198H76.112C76.0748 38.857 75.814 37.1433 75.814 37.1433H76.112L76.5591 38.2237L82.3337 37.8139L82.2219 36.3237L80.7316 35.9139V35.5041L82.669 35.3178C82.669 35.3178 83.116 38.4472 83.116 41.5021L81.1415 41.6884V41.2786L82.4826 40.6452V39.1178ZM55.6962 6.29608C56.6649 4.17255 58.6022 3.42747 60.6512 4.54512C62.5885 5.51375 62.9983 7.33922 62.0296 9.09021C60.9865 11.0275 59.0119 11.8098 57.1119 10.8412C55.361 9.94708 54.8021 8.19609 55.6962 6.29608ZM57.0375 6.66866C56.2551 8.38239 56.4786 9.87258 57.4845 10.3569C58.4531 10.8785 59.7571 10.1334 60.6885 8.53141C61.5454 6.9667 61.4335 5.51374 60.2414 4.8804C58.9747 4.20981 57.8571 4.95492 57.0375 6.63139V6.66866Z" fill="var(--fill-0, white)"/>
</svg>
