<svg preserveAspectRatio="none" width="100%" height="100%" overflow="visible" style="display: block;" viewBox="0 0 72.0898 44.0458" fill="none" xmlns="http://www.w3.org/2000/svg">
<g id="clippath-18">
<path id="Vector" d="M42.8677 0H0V44.0458H10.3406V26.8987H25.4588V19.0123H10.3406V7.85363H49.1179C51.0813 7.85363 52.8484 8.18087 54.3864 8.83534C55.9244 9.48981 57.2333 10.4388 58.2805 11.6496C59.3276 12.8603 60.1457 14.3656 60.7347 16.0999C61.291 17.867 61.5856 19.8304 61.5856 21.9902C61.5856 24.1499 61.291 26.1788 60.7347 27.9131C60.1784 29.6802 59.3603 31.1527 58.2805 32.3635C57.2006 33.5743 55.9244 34.5232 54.3864 35.1777C52.8484 35.8322 51.0813 36.1594 49.1179 36.1594H42.246V13.842H31.9054V44.0131H49.1179C52.5539 44.0131 55.6953 43.4568 58.5096 42.3769C61.3238 41.2643 63.7453 39.759 65.7414 37.7956C67.7375 35.8322 69.3082 33.5088 70.4208 30.8255C71.5334 28.1422 72.0898 25.1971 72.0898 22.0229C72.0898 18.8487 71.5334 15.9363 70.4208 13.253C69.3082 10.5697 67.7703 8.24631 65.7414 6.2829C63.7453 4.31949 61.3238 2.7815 58.5096 1.70162C55.6953 0.589024 52.5539 0.032718 49.1179 0.032718H42.9005L42.8677 0Z" fill="var(--fill-0, black)"/>
</g>
</svg>
