<svg preserveAspectRatio="none" width="100%" height="100%" overflow="visible" style="display: block;" viewBox="0 0 83.5195 81.9915" fill="none" xmlns="http://www.w3.org/2000/svg">
<g id="Group 320">
<g id="Ellipse 59" opacity="0.3">
<path d="M41.76 0C64.8231 6.67891e-05 83.5198 18.3548 83.5198 40.9961C83.5196 63.6372 64.823 81.9911 41.76 81.9912C18.6969 81.9912 0.000416447 63.6372 0.000219019 40.9961C0.000219019 18.3548 18.6968 0 41.76 0Z" fill="var(--fill-0, white)"/>
<path d="M41.76 0C64.8231 6.67891e-05 83.5198 18.3548 83.5198 40.9961C83.5196 63.6372 64.823 81.9911 41.76 81.9912C18.6969 81.9912 0.000416447 63.6372 0.000219019 40.9961C0.000219019 18.3548 18.6968 0 41.76 0Z" stroke="var(--stroke-0, white)"/>
</g>
<path id="Ellipse 60" d="M83.5195 40.9957C83.5195 34.5262 81.9598 28.1485 78.968 22.3841C75.9761 16.6196 71.6371 11.6322 66.3056 7.82949L41.7599 40.9957H83.5195Z" fill="var(--fill-0, white)"/>
</g>
</svg>
