<svg preserveAspectRatio="none" width="100%" height="100%" overflow="visible" style="display: block;" viewBox="0 0 82.7488 81.7754" fill="none" xmlns="http://www.w3.org/2000/svg">
<g id="Group 373">
<g id="Ellipse 59" opacity="0.5">
<path d="M41.3742 81.7752C64.2246 81.7752 82.7492 63.4691 82.7492 40.8875C82.7491 18.3059 64.2245 -0.000228882 41.3742 -0.000228882C18.5239 -5.9782e-05 0.000194277 18.306 0.000131684 40.8875C0.000131684 63.4689 18.5239 81.775 41.3742 81.7752Z" fill="var(--fill-0, white)"/>
<path d="M41.3742 81.7752C64.2246 81.7752 82.7492 63.4691 82.7492 40.8875C82.7491 18.3059 64.2245 -0.000228882 41.3742 -0.000228882C18.5239 -5.9782e-05 0.000194277 18.306 0.000131684 40.8875C0.000131684 63.4689 18.5239 81.775 41.3742 81.7752Z" stroke="var(--stroke-0, white)"/>
</g>
<path id="Ellipse 60" d="M82.7488 40.8876C82.7488 49.5222 79.9827 57.9352 74.847 64.9207C69.7113 71.9062 62.4696 77.1057 54.1598 79.774C45.8501 82.4422 36.8989 82.4422 28.5891 79.774C20.2793 77.1057 13.0376 71.9062 7.90193 64.9207C2.76621 57.9351 0.00013092 49.5222 0.000131684 40.8876C0.000132448 32.253 2.76621 23.84 7.90193 16.8545C13.0376 9.86892 20.2793 4.66942 28.5891 2.00118C36.8989 -0.667061 45.8501 -0.66706 54.1599 2.00118L41.3745 40.8876H82.7488Z" fill="var(--fill-0, white)"/>
</g>
</svg>
