<svg preserveAspectRatio="none" width="100%" height="100%" overflow="visible" style="display: block;" viewBox="0 0 80.3941 80.3598" fill="none" xmlns="http://www.w3.org/2000/svg">
<g id="Group">
<path id="Vector" d="M66.5057 67.1508C66.5057 67.1508 66.2075 67.1508 66.0797 66.9804L11.5035 12.3616C11.2905 12.1485 11.2905 11.8077 11.5035 11.5521C11.7165 11.2965 12.0574 11.3391 12.313 11.5521L66.9319 66.1709C67.1449 66.3839 67.1449 66.7247 66.9319 66.9804C66.804 67.0656 66.6761 67.1508 66.5057 67.1508Z" fill="var(--fill-0, white)"/>
<path id="Vector_2" d="M11.9295 67.1905C11.9295 67.1905 11.6313 67.1905 11.5035 67.0201C11.2905 66.807 11.2905 66.4662 11.5035 66.2106L66.1224 11.6344C66.3354 11.4214 66.6762 11.4214 66.9319 11.6344C67.1875 11.8474 67.1449 12.1882 66.9319 12.4439L12.3557 67.0201C12.3557 67.0201 12.0999 67.1905 11.9295 67.1905Z" fill="var(--fill-0, white)"/>
<path id="Vector_3" d="M39.3234 78.4838C39.0252 78.4838 38.7695 78.2282 38.7695 77.93V0.645642C38.7695 0.347411 39.0252 0.0917969 39.3234 0.0917969C39.6217 0.0917969 39.8773 0.347411 39.8773 0.645642V77.93C39.8773 78.2282 39.6217 78.4838 39.3234 78.4838Z" fill="var(--fill-0, white)"/>
<path id="Vector_4" d="M77.9666 39.8431H0.639826C0.341595 39.8431 0.085948 39.5874 0.085948 39.2892C0.085948 38.991 0.341595 38.7354 0.639826 38.7354H77.924C78.2222 38.7354 78.4778 38.991 78.4778 39.2892C78.4778 39.5874 78.2648 39.8431 77.9666 39.8431Z" fill="var(--fill-0, white)"/>
<path id="Vector_5" d="M72.6831 20.5423H5.58123C5.283 20.5423 5.02735 20.2867 5.02735 19.9884C5.02735 19.6902 5.283 19.4346 5.58123 19.4346H72.6831C72.9813 19.4346 73.237 19.6902 73.237 19.9884C73.237 20.2867 72.9813 20.5423 72.6831 20.5423Z" fill="var(--fill-0, white)"/>
<path id="Vector_6" d="M72.6408 59.1819H5.6242C5.32597 59.1819 5.07032 58.9263 5.07032 58.6281C5.07032 58.3298 5.32597 58.0742 5.6242 58.0742H72.6408C72.939 58.0742 73.1947 58.3298 73.1947 58.6281C73.1947 58.9263 72.9816 59.1819 72.6408 59.1819Z" fill="var(--fill-0, white)"/>
<path id="Vector_7" d="M39.3234 78.4838C39.0252 78.4838 38.7695 78.2282 38.7695 77.93V0.645642C38.7695 0.347411 39.0252 0.0917969 39.3234 0.0917969C39.6217 0.0917969 39.8773 0.347411 39.8773 0.645642V77.93C39.8773 78.2282 39.6217 78.4838 39.3234 78.4838Z" fill="var(--fill-0, white)"/>
<path id="Vector_8" d="M19.9816 73.2026C19.6834 73.2026 19.4277 72.947 19.4277 72.6488V5.75992C19.4277 5.46169 19.6834 5.20605 19.9816 5.20605C20.2799 5.20605 20.5355 5.46169 20.5355 5.75992V72.6488C20.5355 72.9896 20.2799 73.2026 19.9816 73.2026Z" fill="var(--fill-0, white)"/>
<path id="Vector_9" d="M58.6242 73.1989C58.326 73.1989 58.0703 72.9432 58.0703 72.645V5.88392C58.0703 5.58569 58.326 5.33008 58.6242 5.33008C58.9224 5.33008 59.1781 5.58569 59.1781 5.88392V72.645C59.1781 72.9858 58.9224 73.1989 58.6242 73.1989Z" fill="var(--fill-0, white)"/>
<path id="Vector_10" d="M77.9662 39.8408C77.9662 39.8408 77.6681 39.8408 77.5403 39.6703L38.8981 0.985582C38.685 0.77256 38.685 0.431731 38.8981 0.176105C39.1111 -0.0795216 39.4519 -0.0369172 39.7076 0.176105L78.3497 38.8183C78.5628 39.0313 78.5628 39.3721 78.3497 39.6277C78.2219 39.7556 78.1366 39.7982 77.9662 39.7982V39.8408Z" fill="var(--fill-0, white)"/>
<path id="Vector_11" d="M39.3236 78.4839C39.3236 78.4839 39.0254 78.4839 38.8976 78.3134L0.255431 39.6713C0.0424095 39.4582 0.0424095 39.1174 0.255431 38.8618C0.468453 38.6062 0.809299 38.6488 1.06492 38.8618L39.7071 77.504C39.9201 77.717 39.9201 78.0578 39.7071 78.3134C39.5793 78.4412 39.4514 78.4839 39.3236 78.4839Z" fill="var(--fill-0, white)"/>
<path id="Vector_12" d="M39.324 78.484C39.324 78.484 39.0259 78.484 38.8981 78.3136C38.685 78.1005 38.685 77.7597 38.8981 77.5041L77.5403 38.8619C77.7533 38.6489 78.0941 38.6489 78.3497 38.8619C78.6054 39.0749 78.5628 39.4158 78.3497 39.6714L39.7076 78.3136C39.7076 78.3136 39.4518 78.484 39.324 78.484Z" fill="var(--fill-0, white)"/>
<path id="Vector_13" d="M0.638711 39.842C0.638711 39.842 0.340324 39.842 0.212511 39.6716C-0.000510601 39.4586 -0.000510601 39.1177 0.212511 38.8621L38.8974 0.177345C39.1104 -0.0356773 39.4512 -0.0356773 39.7069 0.177345C39.9625 0.390366 39.9199 0.731196 39.7069 0.986822L1.06465 39.6716C1.06465 39.6716 0.809129 39.842 0.638711 39.842Z" fill="var(--fill-0, white)"/>
<path id="Vector_14" d="M39.1961 78.4406C17.5531 78.4406 0 60.845 0 39.2872C0 17.7294 17.5957 0.133772 39.1961 0.133772C60.7965 0.133772 78.3922 17.7294 78.3922 39.2872C78.3922 60.845 60.7965 78.4406 39.1961 78.4406ZM39.1961 1.19888C18.2347 1.19888 1.10776 18.2832 1.10776 39.2446C1.10776 60.2059 18.1921 77.2903 39.1961 77.2903C60.2 77.2903 77.2844 60.2485 77.2844 39.2446C77.2844 18.2406 60.2 1.19888 39.1961 1.19888Z" fill="var(--fill-0, white)"/>
<path id="Vector_15" d="M42.518 39.2454C42.518 41.0774 41.027 42.5259 39.2377 42.5259C37.4483 42.5259 35.957 41.0348 35.957 39.2454C35.957 37.456 37.4483 35.9648 39.2377 35.9648C41.0696 35.9648 42.518 37.456 42.518 39.2454Z" fill="var(--fill-0, white)"/>
<path id="Vector_16" d="M41.7515 58.5886C41.7515 59.9519 40.6438 61.0171 39.323 61.0171C38.0023 61.0171 36.8945 59.9093 36.8945 58.5886C36.8945 57.2679 38.0023 56.1602 39.323 56.1602C40.6438 56.1602 41.7515 57.2253 41.7515 58.5886Z" fill="var(--fill-0, white)"/>
<path id="Vector_17" d="M22.4099 19.9862C22.4099 21.307 21.3021 22.4147 19.9814 22.4147C18.6607 22.4147 17.5529 21.307 17.5529 19.9862C17.5529 18.6655 18.6607 17.5578 19.9814 17.5578C21.3021 17.5578 22.4099 18.6229 22.4099 19.9862Z" fill="var(--fill-0, white)"/>
<path id="Vector_18" d="M23.2605 58.5882C23.2605 60.4201 21.7692 61.8687 19.9798 61.8687C18.1905 61.8687 16.6992 60.3775 16.6992 58.5882C16.6992 56.7988 18.1905 55.3076 19.9798 55.3076C21.7692 55.3076 23.2605 56.7988 23.2605 58.5882Z" fill="var(--fill-0, white)"/>
<path id="Vector_19" d="M80.3941 39.2868C80.3941 40.6076 79.2863 41.7153 77.9656 41.7153C76.6449 41.7153 75.5371 40.6076 75.5371 39.2868C75.5371 37.9661 76.6449 36.8584 77.9656 36.8584C79.2863 36.8584 80.3941 37.9235 80.3941 39.2868Z" fill="var(--fill-0, white)"/>
<path id="Vector_20" d="M41.7515 77.9314C41.7515 79.2521 40.6438 80.3598 39.323 80.3598C38.0023 80.3598 36.8945 79.2521 36.8945 77.9314C36.8945 76.6107 38.0023 75.5029 39.323 75.5029C40.6438 75.5029 41.7515 76.6107 41.7515 77.9314Z" fill="var(--fill-0, white)"/>
<path id="Vector_21" d="M61.9047 72.6467C61.9047 74.4787 60.4138 75.9273 58.6244 75.9273C56.835 75.9273 55.3438 74.4361 55.3438 72.6467C55.3438 70.8574 56.835 69.3662 58.6244 69.3662C60.4564 69.3662 61.9047 70.8574 61.9047 72.6467Z" fill="var(--fill-0, white)"/>
<path id="Vector_22" d="M8.00932 58.5886C8.00932 59.9519 6.90157 61.0171 5.58083 61.0171C4.2601 61.0171 3.15235 59.9093 3.15235 58.5886C3.15235 57.2679 4.2601 56.1602 5.58083 56.1602C6.90157 56.1602 8.00932 57.2253 8.00932 58.5886Z" fill="var(--fill-0, white)"/>
<path id="Vector_23" d="M61.9047 5.88501C61.9047 7.717 60.4138 9.16555 58.6244 9.16555C56.835 9.16555 55.3438 7.6744 55.3438 5.88501C55.3438 4.09563 56.835 2.60449 58.6244 2.60449C60.4138 2.60449 61.9047 4.09563 61.9047 5.88501Z" fill="var(--fill-0, white)"/>
<path id="Vector_24" d="M8.86197 19.9858C8.86197 21.8178 7.37073 23.2664 5.58135 23.2664C3.79196 23.2664 2.30073 21.7752 2.30073 19.9858C2.30073 18.1965 3.79196 16.7053 5.58135 16.7053C7.41333 16.7053 8.86197 18.1965 8.86197 19.9858Z" fill="var(--fill-0, white)"/>
<path id="Vector_25" d="M75.1109 19.9861C75.1109 21.3068 74.0031 22.4145 72.6824 22.4145C71.3617 22.4145 70.2539 21.3068 70.2539 19.9861C70.2539 18.6653 71.3617 17.5576 72.6824 17.5576C74.0031 17.5576 75.1109 18.6227 75.1109 19.9861Z" fill="var(--fill-0, white)"/>
<path id="Vector_26" d="M61.0523 39.3288C61.0523 40.6922 59.9445 41.7573 58.6238 41.7573C57.3031 41.7573 56.1953 40.6496 56.1953 39.3288C56.1953 38.0081 57.3031 36.9004 58.6238 36.9004C59.9445 36.9004 61.0523 37.9655 61.0523 39.3288Z" fill="var(--fill-0, white)"/>
<path id="Vector_27" d="M14.314 11.9363C14.314 13.257 13.2063 14.3647 11.8855 14.3647C10.5648 14.3647 9.45704 13.257 9.45704 11.9363C9.45704 10.6155 10.5648 9.50781 11.8855 9.50781C13.2063 9.50781 14.314 10.6155 14.314 11.9363Z" fill="var(--fill-0, white)"/>
</g>
</svg>
