<svg width="1169" height="394" viewBox="0 0 1169 394" fill="none" xmlns="http://www.w3.org/2000/svg">
<path d="M761.224 111.876C759.663 111.983 758.102 111.128 757.321 109.846L729.781 66.0358C720.749 51.8242 716.178 40.1771 716.178 31.0945C716.178 21.4777 720.08 13.891 727.774 8.33461C735.467 2.7782 746.06 0 759.551 0C773.377 0 784.527 2.7782 792.778 8.22776C800.918 13.6773 805.043 21.0502 805.043 30.3465C805.043 36.2235 803.259 42.7416 799.803 50.0077C796.346 57.06 784.75 76.9349 764.792 109.739C764.123 111.021 762.673 111.769 761.224 111.876Z" fill="#D9F0E1"/>
<path d="M761.003 134.637C759.553 134.637 758.104 135.385 757.323 136.667L729.671 180.691C720.64 194.902 716.068 206.549 716.068 215.632C716.068 225.142 719.971 232.836 727.664 238.392C735.358 243.948 745.95 246.727 759.442 246.727C773.268 246.727 784.418 243.948 792.669 238.499C800.808 233.049 804.934 225.676 804.934 216.38C804.934 210.503 803.15 203.985 799.693 196.719C796.237 189.667 784.641 169.685 764.571 136.774C764.013 135.492 762.564 134.637 761.003 134.637Z" fill="#D9F0E1"/>
<path d="M766.462 129.293C765.905 130.576 766.239 132.071 767.131 133.247C784.748 153.87 808.051 190.734 829.013 203.023C836.93 207.724 845.181 208.152 853.766 204.412C862.24 200.779 869.153 195.436 875.955 184.323C882.979 172.89 886.213 162.418 885.878 152.908C885.544 143.505 881.418 136.559 873.613 131.965C868.707 129.08 862.352 127.37 854.658 126.729C847.076 126.195 808.163 126.088 770.253 126.729C768.581 126.729 767.02 127.797 766.462 129.293Z" fill="#D9F0E1"/>
<path d="M766.354 117.433C767.023 118.501 768.249 119.249 769.587 119.249C807.72 119.89 847.08 119.783 854.662 119.249C862.355 118.608 868.599 116.898 873.617 114.013C881.422 109.525 885.547 102.473 885.882 93.0699C886.216 83.5599 882.983 73.0882 875.958 61.6548C869.157 50.542 862.244 45.1993 853.77 41.5662C845.184 37.8264 836.933 38.3606 829.017 42.9553C807.832 55.3504 784.305 92.7493 766.689 113.265C765.685 114.441 765.573 116.15 766.354 117.433Z" fill="#D9F0E1"/>
<path d="M754.09 128.973C753.421 127.584 752.083 126.729 750.522 126.729C712.501 126.088 673.476 126.195 665.894 126.729C658.2 127.37 651.845 129.08 646.939 131.965C639.134 136.453 635.008 143.505 634.674 152.908C634.339 162.418 637.573 172.89 644.597 184.323C651.399 195.436 658.312 200.779 666.786 204.412C675.371 208.152 683.622 207.617 691.539 203.023C712.612 190.734 736.027 153.656 753.644 133.033C754.536 131.858 754.759 130.362 754.09 128.973Z" fill="#D9F0E1"/>
<path d="M753.754 117.433C753.085 118.608 751.747 119.249 750.297 119.356C712.387 119.997 673.474 119.89 665.892 119.356C658.198 118.715 651.843 117.005 646.937 114.12C639.132 109.525 635.118 102.473 634.672 93.0699C634.337 83.5599 637.571 73.0882 644.595 61.6548C651.397 50.542 658.31 45.1993 666.784 41.5662C675.369 37.8264 683.62 38.3606 691.537 42.9554C712.61 55.2436 735.914 92.1082 753.419 112.731C753.531 112.838 753.531 112.945 753.642 112.945C753.642 113.052 754.757 115.296 753.754 117.433Z" fill="#D9F0E1"/>
<path opacity="0.2" d="M0.357422 181.218C19.3861 205.532 69.2233 253.255 116.342 249.631C175.24 245.1 219.188 179.859 162.102 164.908C105.015 149.956 108.187 258.239 178.412 294.031C248.637 329.823 391.352 334.807 453.422 221.994C515.492 109.181 626.493 111.899 647.787 118.695" stroke="#08A03F" stroke-width="0.906129"/>
<path opacity="0.2" d="M885.646 174.43C917.814 200.708 993.566 246.286 1039.24 218.377C1096.32 183.491 1046.94 147.699 1022.47 154.042C998.007 160.385 969.463 213.847 1083.18 279.541C1174.16 332.097 1174.55 377.252 1163.38 393.261" stroke="#08A03F" stroke-width="0.906129"/>
</svg>
