<svg width="270" height="388" viewBox="0 0 270 388" fill="none" xmlns="http://www.w3.org/2000/svg">
<g style="mix-blend-mode:soft-light">
<path d="M133.327 187.434C132.448 187.494 131.568 187.012 131.128 186.29L115.609 161.594C110.519 153.583 107.943 147.017 107.943 141.897C107.943 136.476 110.142 132.2 114.478 129.067C118.813 125.935 124.782 124.369 132.385 124.369C140.176 124.369 146.459 125.935 151.109 129.007C155.696 132.079 158.02 136.235 158.02 141.476C158.02 144.789 157.015 148.463 155.067 152.559C153.12 156.534 146.585 167.738 135.338 186.229C134.961 186.952 134.144 187.374 133.327 187.434Z" fill="white"/>
<path d="M133.202 200.264C132.385 200.264 131.568 200.685 131.128 201.408L115.546 226.225C110.456 234.236 107.88 240.801 107.88 245.921C107.88 251.282 110.079 255.619 114.415 258.751C118.75 261.883 124.719 263.449 132.322 263.449C140.113 263.449 146.396 261.883 151.046 258.811C155.633 255.739 157.957 251.583 157.957 246.343C157.957 243.03 156.952 239.356 155.004 235.26C153.057 231.284 146.522 220.02 135.212 201.468C134.898 200.746 134.081 200.264 133.202 200.264Z" fill="white"/>
<path d="M136.281 197.252C135.966 197.975 136.155 198.818 136.658 199.481C146.585 211.106 159.717 231.886 171.529 238.813C175.99 241.464 180.64 241.705 185.478 239.596C190.253 237.548 194.149 234.537 197.982 228.272C201.94 221.827 203.762 215.925 203.574 210.564C203.385 205.263 201.06 201.348 196.662 198.758C193.898 197.132 190.316 196.168 185.981 195.806C181.708 195.505 159.78 195.445 138.417 195.806C137.474 195.806 136.595 196.409 136.281 197.252Z" fill="white"/>
<path d="M136.218 190.566C136.595 191.168 137.286 191.59 138.04 191.59C159.529 191.951 181.708 191.891 185.981 191.59C190.316 191.229 193.835 190.265 196.662 188.639C201.06 186.109 203.385 182.133 203.574 176.833C203.762 171.472 201.94 165.569 197.982 159.124C194.149 152.86 190.253 149.848 185.478 147.8C180.64 145.692 175.99 145.993 171.529 148.583C159.591 155.57 146.334 176.652 136.406 188.217C135.841 188.879 135.778 189.843 136.218 190.566Z" fill="white"/>
<path d="M129.306 197.071C128.929 196.288 128.175 195.806 127.296 195.806C105.87 195.445 83.8788 195.505 79.6062 195.806C75.2708 196.168 71.6894 197.132 68.9248 198.758C64.5265 201.288 62.2017 205.263 62.0132 210.564C61.8247 215.925 63.6469 221.827 67.6053 228.272C71.438 234.537 75.3336 237.548 80.1089 239.596C84.9469 241.705 89.5965 241.403 94.0576 238.813C105.933 231.887 119.128 210.985 129.055 199.36C129.558 198.698 129.683 197.854 129.306 197.071Z" fill="white"/>
<path d="M129.118 190.566C128.741 191.229 127.987 191.59 127.17 191.65C105.807 192.012 83.8788 191.951 79.6062 191.65C75.2708 191.289 71.6894 190.325 68.9248 188.699C64.5265 186.109 62.2646 182.133 62.0132 176.833C61.8247 171.472 63.6469 165.569 67.6053 159.124C71.438 152.86 75.3336 149.848 80.1089 147.8C84.9469 145.692 89.5965 145.993 94.0576 148.583C105.933 155.51 119.065 176.291 128.929 187.916C128.992 187.976 128.992 188.036 129.055 188.036C129.055 188.096 129.683 189.361 129.118 190.566Z" fill="white"/>
<path d="M133.247 0V106.948" stroke="white" stroke-width="0.876623"/>
<path d="M133.247 280.52V387.468" stroke="white" stroke-width="0.876623"/>
<path d="M220.032 193.734H270" stroke="white" stroke-width="0.876623"/>
<path d="M0 193.734H49.9675" stroke="white" stroke-width="0.876623"/>
</g>
</svg>
