<svg width="251" height="284" viewBox="0 0 251 284" fill="none" xmlns="http://www.w3.org/2000/svg">
<path d="M205.042 0C205.3 0 205.51 0.209665 205.51 0.467773V156.322C206.427 156.744 207.352 157.159 208.284 157.557C214.675 160.283 221.39 162.308 228.385 162.091C235.367 161.874 242.667 159.421 250.234 153.125C250.433 152.96 250.727 152.986 250.893 153.185C251.057 153.383 251.031 153.678 250.833 153.843C243.116 160.263 235.618 162.801 228.414 163.025C221.223 163.249 214.362 161.167 207.917 158.417C207.108 158.072 206.306 157.716 205.51 157.353V264.954C205.51 265.212 205.3 265.421 205.042 265.421H103.162C102.904 265.421 102.695 265.212 102.694 264.954C102.694 264.696 102.904 264.487 103.162 264.486H204.574V156.92C202.522 155.964 200.511 154.967 198.548 153.982C195.725 152.567 193.002 151.185 190.376 149.987C189.66 153.503 188.381 156.757 186.652 159.362C183.784 163.687 179.616 166.308 174.733 165.209H174.732C171.123 164.39 168.583 162.901 166.992 161.056C165.398 159.206 164.783 157.026 164.987 154.888C165.394 150.625 169.034 146.609 174.433 145.603L174.889 145.524C179.455 144.82 184.42 146.337 189.673 148.647C189.985 146.753 190.131 144.79 190.088 142.819C189.957 136.846 188.099 130.863 184.003 126.538C180.533 122.874 175.416 120.36 168.27 120.078C163.991 125.921 160.09 130.004 156.945 132.8C155.144 134.401 153.59 135.579 152.358 136.426L166.432 132.397L167.244 132.165L167.009 132.977L166.561 132.847L167.009 132.978V132.979C167.009 132.979 167.008 132.981 167.008 132.982C167.007 132.985 167.005 132.989 167.004 132.994C167.001 133.004 166.997 133.018 166.991 133.036C166.98 133.073 166.962 133.126 166.939 133.193C166.894 133.329 166.824 133.526 166.727 133.775C166.531 134.276 166.224 134.991 165.772 135.859C164.87 137.597 163.391 139.952 161.081 142.442C156.677 147.189 149.269 152.403 137.126 154.781C138.161 155.063 139.591 155.391 141.269 155.606C144.789 156.059 149.362 156.019 153.663 154.099L155 153.502L154.256 154.763L153.854 154.525L154.256 154.764L154.255 154.765C154.254 154.766 154.253 154.768 154.252 154.77C154.249 154.774 154.245 154.78 154.24 154.788C154.23 154.804 154.216 154.829 154.197 154.86C154.159 154.923 154.102 155.016 154.027 155.136C153.877 155.377 153.654 155.73 153.358 156.179C152.767 157.076 151.886 158.359 150.725 159.905C148.403 162.998 144.958 167.15 140.467 171.39C131.488 179.864 118.291 188.719 101.482 190.111L101.474 190.012C95.0266 201.724 89.2622 210.101 84.8672 215.773C84.2359 216.588 83.6322 217.347 83.0596 218.052H90.3193C94.4655 218.052 98.2939 221.25 98.2939 225.489V225.58C98.2936 229.509 95.5853 232.95 92.0068 233.854C94.8477 237.601 97.8262 243.009 99.8574 249.887C99.87 249.929 99.8759 249.974 99.876 250.019V250.415C99.8848 250.434 99.8953 250.453 99.9014 250.474C101.496 255.809 102.59 261.782 102.59 269.344C102.59 277.11 96.3245 283.479 88.5557 283.479H54.2793C46.566 283.479 40.2912 277.482 40.291 269.479C40.291 268.021 40.3279 266.609 40.3984 265.244C40.3129 265.351 40.1828 265.421 40.0352 265.421H0.467773C0.21001 265.421 0.00022559 265.212 0 264.954V62.6064C4.67798e-05 62.487 0.046825 62.3719 0.128906 62.2852L0.194336 62.2148C0.1274 62.1663 0.0721292 62.1006 0.0380859 62.0215C-0.0362685 61.8481 0.00131505 61.6461 0.132812 61.5107L28.8359 32.0098L59.0498 0.146484C59.1378 0.0536355 59.2607 0.00025017 59.3887 0H205.042ZM52.0098 218.987C48.3726 219.555 45.7031 222.784 45.7031 226.395C45.7034 230.004 48.4709 233.175 51.9775 233.902C52.1487 233.938 52.286 234.066 52.333 234.234C52.3797 234.403 52.3291 234.583 52.2012 234.702C49.1195 237.566 45.9423 243.046 43.876 250.194L43.873 250.201C42.2601 255.448 41.2266 261.783 41.2266 269.479C41.2268 276.954 47.0706 282.545 54.2793 282.545H88.5557C95.7995 282.545 101.654 276.603 101.654 269.344C101.654 261.926 100.589 256.069 99.0342 250.839C98.9752 250.759 98.9415 250.662 98.9414 250.562V250.086C96.833 242.978 93.7052 237.487 90.8125 233.835C90.7091 233.704 90.6829 233.528 90.7441 233.373C90.8057 233.218 90.9461 233.107 91.1113 233.083C94.5785 232.575 97.358 229.342 97.3584 225.58V225.489C97.3584 221.854 94.0415 218.987 90.3193 218.987H82.291C80.7714 220.819 79.4967 222.238 78.5088 223.284C77.7567 224.08 77.171 224.66 76.7725 225.043C76.5733 225.234 76.4209 225.376 76.3174 225.471C76.2657 225.518 76.2261 225.553 76.1992 225.577C76.1858 225.589 76.1751 225.598 76.168 225.604C76.1645 225.608 76.1621 225.611 76.1602 225.612L76.1572 225.614L76.1562 225.615C75.9743 225.773 75.7019 225.767 75.5273 225.601C75.3527 225.434 75.3336 225.162 75.4834 224.973L75.4844 224.972C75.485 224.971 75.4859 224.969 75.4873 224.968C75.4901 224.964 75.4943 224.958 75.5 224.951C75.5114 224.937 75.5283 224.915 75.5508 224.886C75.5961 224.828 75.6642 224.741 75.752 224.626C75.9276 224.396 76.1845 224.056 76.5088 223.615C77.1575 222.734 78.0754 221.451 79.1484 219.847C79.3335 219.57 79.5211 219.283 79.7148 218.987H52.0098ZM59.5039 1.02539C59.6353 1.1089 59.7187 1.25257 59.7207 1.41211L60.2178 41.918C60.3544 52.4613 51.9646 61.3407 41.4043 61.748L40.9004 61.7617L1.4082 62.292L0.935547 62.791V264.486H40.0352C40.2024 264.486 40.3482 264.575 40.4307 264.707C40.7642 259.023 41.6846 254.143 42.9775 249.935L43.1777 249.26C45.1419 242.778 48.0231 237.631 50.9668 234.602C47.4525 233.499 44.7688 230.188 44.7686 226.395C44.7686 222.323 47.78 218.682 51.9033 218.058C51.9264 218.054 51.9503 218.052 51.9736 218.052H80.3213C82.2492 215.05 84.4942 211.256 86.542 207.029C89.0237 201.907 91.2127 196.166 92.2158 190.451C93.219 184.735 93.0309 179.076 90.7979 174.086C86.3269 164.095 75.6395 159.569 65.9307 157.557C61.0913 156.554 56.5318 156.183 53.1807 156.064C51.5062 156.005 50.135 156.008 49.1836 156.026C48.708 156.035 48.3369 156.048 48.0859 156.059C47.9605 156.064 47.8646 156.069 47.8008 156.072C47.7692 156.074 47.7453 156.075 47.7295 156.076C47.7218 156.077 47.7157 156.077 47.7119 156.077H47.707C47.4494 156.093 47.2269 155.897 47.2109 155.64C47.1951 155.382 47.3911 155.161 47.6484 155.145L47.6777 155.611C47.651 155.179 47.6492 155.147 47.6494 155.145H47.6514C47.6526 155.144 47.6542 155.144 47.6562 155.144C47.6607 155.143 47.6673 155.143 47.6758 155.143C47.6931 155.142 47.7195 155.14 47.7529 155.139C47.8199 155.135 47.9185 155.13 48.0469 155.125C48.3044 155.114 48.6821 155.101 49.165 155.092C50.1312 155.073 51.52 155.071 53.2139 155.131C56.6004 155.251 61.2148 155.625 66.1201 156.642C75.901 158.669 86.9879 163.283 91.6514 173.704C93.9854 178.92 94.1589 184.784 93.1357 190.613C92.1124 196.443 89.8865 202.269 87.3828 207.437C85.4286 211.47 83.2975 215.11 81.4287 218.052H81.8506C82.56 217.191 83.3216 216.242 84.1289 215.2C88.2891 209.831 93.6978 202.006 99.7588 191.178C99.7526 191.164 99.7458 191.149 99.7393 191.134C99.6441 190.914 99.508 190.589 99.3428 190.167C99.0124 189.324 98.5645 188.091 98.0918 186.526C97.1465 183.396 96.0996 178.933 95.6924 173.592C94.8777 162.906 96.6223 148.702 106.854 134.653L108.186 132.825L107.688 135.031C105.838 143.224 104.804 151.258 104.72 156.71C104.677 159.457 104.879 161.477 105.295 162.539C105.509 163.086 105.716 163.217 105.819 163.236C105.925 163.256 106.195 163.212 106.666 162.713C107.076 162.279 107.49 161.379 107.929 159.998C108.36 158.641 108.792 156.904 109.279 154.871C110.251 150.815 111.43 145.619 113.226 140.107C116.815 129.091 122.899 116.716 134.846 109.501L137.491 107.903L135.437 110.212C133.237 112.683 130.353 116.434 128.249 120.231C127.197 122.13 126.348 124.027 125.872 125.77C125.395 127.519 125.307 129.068 125.718 130.301C125.826 130.626 125.921 130.828 126 130.944C126.011 130.96 126.024 130.971 126.032 130.981C126.046 130.972 126.066 130.962 126.086 130.945C126.193 130.854 126.332 130.694 126.509 130.447C126.862 129.955 127.293 129.225 127.862 128.278C128.426 127.341 129.114 126.214 129.963 124.959C133.366 119.931 139.36 112.873 150.622 107.488C161.665 102.208 169.021 92.4504 173.622 83.9717C175.92 79.7369 177.525 75.8327 178.555 72.9883C179.069 71.5665 179.44 70.4098 179.682 69.6104C179.802 69.2108 179.892 68.9002 179.95 68.6904C179.979 68.5859 180.001 68.5062 180.015 68.4531C180.022 68.4267 180.027 68.4066 180.03 68.3936C180.032 68.3871 180.033 68.382 180.034 68.3789C180.035 68.3777 180.035 68.3766 180.035 68.376V68.375L180.386 66.998L180.921 68.3145L180.922 68.3164C180.922 68.3172 180.922 68.3182 180.923 68.3193C180.924 68.3221 180.926 68.3261 180.928 68.3311C180.932 68.3412 180.937 68.3561 180.944 68.375C180.959 68.4131 180.981 68.4691 181.008 68.542C181.061 68.688 181.137 68.9032 181.229 69.1836C181.411 69.7446 181.654 70.5681 181.903 71.626C182.401 73.7418 182.921 76.7982 183.013 80.5742C183.195 88.1295 181.663 98.5592 174.83 110.094C172.814 113.498 170.833 116.51 168.924 119.175C175.963 119.583 181.123 122.138 184.682 125.896C188.978 130.432 190.888 136.66 191.022 142.799C191.069 144.907 190.906 147.011 190.556 149.041C193.268 150.27 196.079 151.7 198.967 153.147C200.803 154.068 202.672 154.995 204.574 155.888V0.935547H59.5898L59.5039 1.02539ZM80.0322 220.202C80.3626 219.822 80.7089 219.417 81.0713 218.987H80.8301C80.5563 219.409 80.2904 219.815 80.0322 220.202ZM180.521 70.0605C180.275 70.8634 179.917 71.9703 179.434 73.3066C178.392 76.1844 176.769 80.1332 174.443 84.418C169.797 92.9786 162.321 102.93 151.025 108.331C139.949 113.627 134.072 120.554 130.737 125.482C129.902 126.716 129.226 127.827 128.664 128.761C128.108 129.685 127.649 130.461 127.268 130.992C127.077 131.257 126.887 131.49 126.693 131.655C126.507 131.815 126.245 131.974 125.928 131.941C125.601 131.908 125.376 131.689 125.228 131.471C125.076 131.248 124.949 130.949 124.831 130.596C124.337 129.114 124.47 127.357 124.971 125.523C125.473 123.683 126.359 121.715 127.432 119.778C128.955 117.029 130.873 114.314 132.655 112.072C122.734 119.259 117.397 130.322 114.114 140.396C112.332 145.865 111.163 151.02 110.188 155.089C109.703 157.118 109.263 158.887 108.819 160.281C108.384 161.651 107.919 162.747 107.346 163.354C106.834 163.896 106.255 164.268 105.647 164.154C105.037 164.04 104.663 163.487 104.425 162.88C103.935 161.629 103.743 159.442 103.785 156.696C103.863 151.671 104.734 144.53 106.285 137.094C97.3867 150.299 95.8596 163.482 96.625 173.521C97.0261 178.781 98.0565 183.177 98.9863 186.256C99.4511 187.795 99.8907 189.004 100.213 189.826C100.256 189.937 100.299 190.04 100.338 190.137C101.858 187.392 103.418 184.46 105.007 181.332C109.095 173.284 112.463 165.572 115.821 158.446C119.174 151.333 122.512 144.816 126.523 139.222C130.538 133.622 135.231 128.937 141.299 125.493C147.366 122.049 154.783 119.859 164.223 119.21C165.466 119.125 166.661 119.099 167.808 119.128C169.811 116.366 171.897 113.212 174.026 109.617C180.759 98.2517 182.257 87.999 182.078 80.5967C181.989 76.8938 181.48 73.9018 180.994 71.8398C180.828 71.1348 180.663 70.5392 180.521 70.0605ZM167.127 120.053C166.212 120.047 165.265 120.075 164.286 120.143C154.96 120.784 147.685 122.944 141.761 126.307C135.837 129.669 131.238 134.249 127.282 139.766C123.323 145.287 120.014 151.74 116.666 158.845C113.323 165.937 109.936 173.692 105.84 181.755C104.524 184.345 103.227 186.802 101.957 189.13C118.213 187.616 131.03 179.011 139.825 170.71C144.27 166.515 147.68 162.404 149.978 159.344C151.126 157.814 151.996 156.547 152.578 155.664C152.616 155.607 152.651 155.55 152.687 155.496C148.588 156.968 144.402 156.951 141.149 156.533C139.34 156.301 137.809 155.943 136.73 155.644C136.191 155.494 135.763 155.358 135.47 155.26C135.323 155.211 135.209 155.171 135.132 155.143C135.093 155.129 135.062 155.117 135.042 155.109C135.032 155.106 135.024 155.103 135.019 155.101C135.016 155.1 135.014 155.098 135.013 155.098H135.011L135.01 155.097L133.408 154.479L135.102 154.2C148.158 152.045 155.91 146.641 160.396 141.807C162.641 139.386 164.073 137.102 164.942 135.429C165.344 134.656 165.624 134.012 165.81 133.547L149.144 138.319L148.829 137.441H148.83C148.831 137.441 148.832 137.44 148.834 137.439C148.838 137.438 148.846 137.434 148.855 137.43C148.875 137.421 148.907 137.406 148.949 137.386C149.034 137.345 149.163 137.282 149.333 137.192C149.673 137.014 150.178 136.73 150.828 136.318C152.129 135.495 154.015 134.155 156.324 132.102C159.323 129.435 163.039 125.563 167.127 120.053ZM189.502 149.594C184.019 147.164 179.057 145.683 174.605 146.521H174.604C169.558 147.461 166.28 151.184 165.918 154.977C165.738 156.866 166.276 158.793 167.7 160.445C169.128 162.102 171.472 163.51 174.939 164.297H174.938C179.303 165.279 183.127 162.985 185.873 158.846C187.562 156.299 188.816 153.082 189.502 149.594ZM29.4766 32.6914L2.30664 61.3447L40.8877 60.8262H40.8887C51.0042 60.6956 59.1572 52.3934 59.2832 42.4062V41.9297L58.7998 2.55469L29.4766 32.6914Z" fill="white"/>
</svg>
