<svg width="531" height="384" viewBox="0 0 531 384" fill="none" xmlns="http://www.w3.org/2000/svg">
<path d="M0.0102539 382.343C0.0102539 382.343 60.1133 383.643 61.6761 381.507C63.239 379.371 66.69 374.192 72.6906 369.34C78.6912 364.489 81.2408 364.161 83.7877 365.641C86.3374 367.121 93.898 373.861 101.051 372.135C108.204 370.41 114.532 365.969 118.973 364.326C123.413 362.684 125.384 364.081 125.715 362.27C126.046 360.459 127.338 351.849 127.278 346.487C127.215 341.123 127.523 335.265 130.298 328.608C133.073 321.951 135.355 318.312 134.676 318.064C133.997 317.816 132.702 317.385 132.702 315.537C132.702 313.689 134.305 283.107 133.073 282.737C131.841 282.366 124.751 279.037 124.132 274.474C123.516 269.911 126.967 259.367 128.447 259.307C129.927 259.245 137.756 258.506 138.806 257.95C139.855 257.394 148.485 250.304 157.118 246.111C165.751 241.919 170.189 239.945 170.437 241.836C170.682 243.727 170.272 244.055 171.669 244.055C173.067 244.055 177.094 242.575 181.286 246.028C185.479 249.482 190.082 255.483 192.959 257.702C195.837 259.921 203.358 265.901 204.652 264.361C205.947 262.821 206.01 259.798 207.427 259.675C208.845 259.553 210.388 260.169 211.435 259.367C212.484 258.566 212.299 257.887 214.21 257.827C216.12 257.764 225.432 258.691 225.432 260.354C225.432 262.017 224.693 262.758 222.472 262.758C220.25 262.758 216.554 262.202 214.703 263.374C212.852 264.546 211.249 266.52 209.093 266.395C206.934 266.272 204.963 265.163 205.209 264.669C205.454 264.176 207.427 260.731 207.06 260.414C206.692 260.097 194.029 250.549 189.098 245.287C184.167 240.025 180.63 235.094 179.481 232.382C178.329 229.669 175.534 225.805 175.206 223.997C174.878 222.189 171.424 209.529 168.877 205.664C166.327 201.8 163.532 200.978 160.164 201.965C156.793 202.952 153.505 210.35 154.409 214.049C155.313 217.748 162.856 232.054 164.151 231.868C165.446 231.683 166.247 231.312 166.741 232.484C167.234 233.656 175.599 245.184 174.55 243.356C173.5 241.528 166.279 231.529 166.555 230.941C166.832 230.354 174.632 224.715 175.094 225.853C175.556 226.994 180.182 234.301 180.984 233.685C181.785 233.069 186.431 228.64 186.799 224.818C187.17 220.996 185.279 215.158 186.388 214.542C187.498 213.926 197.24 209.857 203.489 204.512C209.738 199.167 221.163 187.249 225.931 179.192C230.7 171.135 233.7 165.094 233.207 164.23C232.713 163.366 230.554 159.114 230.554 157.942C230.554 156.769 230.474 151.037 233.258 148.325C236.042 145.612 246.152 146.599 245.291 148.325C244.429 150.05 237.893 153.997 239.187 154.921C240.482 155.845 244.059 156.094 243.38 157.388C242.701 158.683 241.346 160.349 239.31 160.471C237.274 160.594 236.966 160.779 236.843 161.521C236.72 162.262 235.177 164.849 234.316 163.803C233.452 162.753 231.048 159.117 230.124 160.226C229.2 161.336 211.688 184.271 206.817 188.278C201.946 192.285 200.774 192.534 200.714 193.272C200.654 194.011 202.687 204.247 202.873 201.226C203.058 198.206 201.333 193.027 199.604 193.335C197.879 193.643 183.822 200.18 183.203 199.193C182.587 198.206 181.971 197.468 183.017 197.097C184.064 196.726 187.21 194.693 186.902 192.166C186.594 189.639 185.113 183.287 180.676 179.095C176.235 174.902 171.797 172.498 168.529 173.3C165.261 174.101 164.953 175.211 165.694 176.999C166.433 178.787 167.913 179.158 166.496 180.946C165.078 182.734 163.906 186.37 165.323 187.728C166.741 189.085 172.753 194.325 170.996 193.8C169.239 193.275 166.618 191.889 165.694 193.09C164.77 194.293 165.848 197.713 167.08 198.238C168.312 198.762 171.087 196.666 171.181 197.373C171.276 198.081 171.469 200.488 170.811 202.461C170.152 204.435 169.536 205.504 169.168 204.723C168.8 203.942 166.045 200.077 163.495 200.282C160.946 200.488 157.452 203.816 156.879 202.872C156.303 201.928 156.14 198.845 158.481 197.077C160.826 195.309 164.648 193.212 163.127 192.391C161.607 191.57 157.372 190.46 155.607 186.43C153.838 182.403 156.921 177.387 159.511 175.989C162.101 174.592 162.594 174.181 163.127 173.029C163.661 171.877 164.485 170.316 168.965 169.986C173.446 169.658 176.036 171.138 178.009 173.645C179.983 176.152 181.42 179.275 180.516 178.125C179.612 176.973 176.075 171.426 174.393 172.042C172.707 172.658 171.31 172.906 170.323 172.535C169.336 172.165 166.624 170.85 165.803 172.658C164.981 174.466 165.885 176.029 163.746 177.056C161.61 178.082 156.716 177.301 158.607 180.384C160.498 183.467 164.608 186.179 163.992 187.948C163.376 189.716 162.223 191.276 163.909 191.031C165.594 190.785 166.952 190.66 165.965 191.975C164.978 193.289 161.733 198.386 162.759 198.717C163.786 199.045 164.816 198.717 165.515 199.661C166.213 200.605 167.859 200.399 169.174 200.114C170.488 199.829 170.725 197.927 172.328 197.895C173.931 197.864 177.507 198.326 179.295 197.927C181.084 197.525 181.885 197.587 181.976 197.773C182.068 197.958 182.9 201.041 182.347 203.351C181.791 205.664 182.039 207.666 180.065 207.113C178.092 206.557 171.803 202.952 171.558 203.229C171.313 203.505 169.955 205.416 169.955 205.818C169.955 206.22 175.565 214.48 176.46 213.926C177.356 213.373 180.282 207.883 181.454 208.376C182.627 208.87 185.339 210.41 185.461 209.426C185.584 208.442 184.905 201.349 184.597 200.733C184.289 200.117 183.211 199.994 183.18 200.61C183.148 201.226 182.686 207.609 181.269 207.732C179.852 207.854 174.424 205.79 173.192 205.079C171.96 204.369 170.386 203.2 168.506 201.996C166.627 200.793 164.405 199.498 162.896 199.715C161.385 199.932 158.302 201.965 157.994 200.856C157.686 199.746 157.962 198.203 159.628 197.094C161.294 195.984 164.314 193.64 164.006 192.81C163.698 191.98 159.597 189.388 157.595 190.252C155.59 191.116 153.371 192.009 153.619 192.502C153.867 192.996 157.626 197.311 157.811 197.097C157.997 196.883 159.876 195.711 159.662 195.277C159.448 194.844 157.041 191.147 156.086 191.361C155.13 191.578 135.617 196.11 132.779 201.226C129.944 206.343 136.048 214.42 140.363 214.112C144.678 213.804 154.666 210.381 153.342 210.598C152.016 210.815 141.196 214.052 141.472 213.125C141.749 212.198 145.388 209.643 144.954 205.972C144.521 202.302 141.966 199.127 139.713 198.819C137.462 198.511 134.103 199.712 133.392 201.686C132.682 203.659 133.176 205.909 133.949 207.698C134.719 209.486 134.565 210.935 133.917 211.582C133.27 212.229 126.981 218.612 127.534 220.891C128.091 223.173 140.542 227.921 142.764 227.057C144.983 226.193 148.129 223.789 149.732 220.52C151.334 217.252 153.185 210.41 153 212.629C152.815 214.848 148.93 230.077 145.046 236.982C141.161 243.887 135.058 250.115 136.105 250.115C137.151 250.115 154.417 246.046 159.411 242.595C164.405 239.144 168.321 235.813 168.013 235.319C167.705 234.826 166.749 232.915 166.102 233.223C165.455 233.531 163.133 237.601 155.159 241.26C147.185 244.919 139.293 245.906 139.128 246.191C138.962 246.476 128.812 257.619 127.948 258.974C127.084 260.331 125.398 263.454 124.948 263.454C124.497 263.454 116.808 258.891 115.987 254.821C115.165 250.751 115.987 248.821 115.781 248.327C115.576 247.834 114.712 245.698 114.96 244.833C115.205 243.969 121.702 235.008 121.371 233.942C121.04 232.875 121.083 231.968 121.454 231.475C121.825 230.981 127.167 229.13 127.865 228.432C128.564 227.733 132.346 224.69 131.892 225.554C131.439 226.418 129.508 227.938 129.713 228.637C129.919 229.336 139.168 237.144 138.632 238.995C138.098 240.846 129.836 242.694 128.151 241.297C126.465 239.9 120.835 232.296 121.902 233.035C122.971 233.773 127.74 241.214 129.465 241.049C131.191 240.883 137.522 240.185 137.4 241.582C137.277 242.98 127.124 256.954 125.398 256.378C123.673 255.802 116.5 249.092 116.406 249.402C116.312 249.713 116.129 253.01 117.764 256.062C119.398 259.113 124.269 263.092 124.731 262.473C125.193 261.854 127.229 258.711 129.14 258.743C131.051 258.774 137.525 257.879 138.389 257.385C139.253 256.892 152.478 247.705 155.253 246.134C158.028 244.563 165.888 240.832 168.201 240.584C170.514 240.336 171.099 240.399 171.13 241.354C171.161 242.309 171.869 263.982 170.759 264.906C169.65 265.83 163.792 268.36 163.792 268.36C163.792 268.36 145.357 280.752 147.145 277.731C148.933 274.711 157.073 271.257 157.133 274.095C157.195 276.93 156.639 295.057 154.42 306.28C152.201 317.502 150.844 319.165 149.92 319.413C148.996 319.661 137.896 319.476 140.485 318.734C143.075 317.996 150.228 318.652 149.446 320.543C148.665 322.434 133.703 362.344 131.895 362.755C130.087 363.166 126.964 362.179 126.305 363.659C125.646 365.139 124.58 373.441 126.551 373.935C128.524 374.428 141.635 371.716 141.224 371.017C140.813 370.319 138.634 369.497 137.154 367.729C135.674 365.961 132.18 362.632 132.962 363.248C133.743 363.864 137.36 365.427 137.893 364.934C138.426 364.441 148.291 342.657 154.129 340.723C159.967 338.793 190.855 335.687 189.868 333.468C188.881 331.249 186.477 326.666 186.722 317.87C186.967 309.075 189.845 303.485 188.613 301.677C187.381 299.868 178.83 286.55 178.089 281.947C177.347 277.343 176.364 259.832 175.046 259.67C173.728 259.507 172.539 259.915 172.496 259.299C172.453 258.683 171.056 244.56 172.496 244.172C173.936 243.787 178.825 243.966 183.183 248.404C187.541 252.845 188.773 254.733 188.938 256.749C189.103 258.763 197.734 302.333 196.008 302.743C194.283 303.154 190.501 302.661 190.335 303.565C190.17 304.469 190.335 314.91 191.978 315.238C193.621 315.566 210.394 313.059 210.086 311.579C209.778 310.099 209.407 308.926 206.632 308.559C203.857 308.191 201.022 306.525 199.972 305.353C198.923 304.181 197.445 303.687 197.197 302.455C196.952 301.223 196.581 297.276 196.827 296.537C197.072 295.799 199.456 293.865 199.539 289.673C199.622 285.48 199.456 264.353 202.251 265.505C205.046 266.657 208.58 268.134 211.457 266.737C214.335 265.339 217.623 264.698 221.899 264.484C226.174 264.27 226.502 261.763 230.161 261.475C233.82 261.187 237.396 260.859 238.628 259.912C239.86 258.965 243.006 255.041 249.358 254.239C255.709 253.438 262.551 252.882 270.134 246.348C277.718 239.811 286.411 228.469 289.679 228.406C292.947 228.343 296.153 228.714 296.276 227.234C296.398 225.754 298.763 196.857 301.558 186.83C304.353 176.802 307.148 173.676 306.326 173.183C305.505 172.689 311.751 152.055 316.685 144.492C321.616 136.928 326.878 126.324 324.904 122.953C322.931 119.582 315.122 120.897 311.175 119.91C307.227 118.923 300.16 114.566 298.68 115.801C297.2 117.033 289.371 128.153 288.014 127.659C286.656 127.166 279.198 121 281.788 122.049C284.377 123.099 288.384 125.934 285.672 128.646C282.96 131.358 269.088 142.766 263.084 146.3C257.081 149.833 249.971 153.122 249.355 151.767C248.739 150.412 247.752 147.144 247.321 147.144C246.891 147.144 239.49 153.187 240.539 154.049C241.589 154.91 243.867 155.589 243.867 156.824C243.867 158.059 242.635 158.549 243.497 158.857C244.358 159.165 249.6 154.933 248.901 153.042C248.202 151.151 246.066 148.273 247.832 146.959C249.6 145.644 254.965 143.69 261.807 136.723C268.651 129.755 277.775 120.632 277.435 119.953C277.096 119.274 276.263 118.75 276.417 117.766C276.571 116.782 283.938 107.19 285.481 100.594C287.021 93.997 286.262 93.4837 288.193 90.278C290.124 87.0724 290.783 85.9629 290.66 87.195C290.538 88.4271 288.564 96.9574 290.723 101.15C292.882 105.342 296.147 109.843 304.35 112.866C312.549 115.886 319.209 117.121 320.195 117.86C321.182 118.598 321.736 119.525 321.182 119.893C320.629 120.261 304.658 118.536 298.184 114.035C291.71 109.535 286.904 99.0536 287.024 95.7225C287.144 92.3913 291.955 85.2414 290.538 84.9334C289.12 84.6254 286.59 84.9334 286.345 86.1055C286.1 87.2777 282.709 93.5664 280.921 93.5664C279.132 93.5664 274.817 89.8046 273.089 90.1126C271.361 90.4206 268.648 90.3579 268.589 89.1886C268.529 88.0192 269.205 87.831 268.526 86.8442C267.847 85.8574 263.777 83.2079 263.039 84.3173C262.3 85.4268 253.482 92.2716 251.633 90.0527C249.783 87.8339 258.786 73.7764 258.478 72.5414C258.17 71.3094 256.753 63.8486 259.588 60.5802C262.423 57.3118 267.171 54.7222 273.46 54.9703C279.748 55.2156 284.805 59.7787 283.941 61.2589C283.077 62.7391 277.589 69.7664 274.261 71.8028C270.933 73.8362 268.035 76.2433 266.74 75.9325C265.446 75.6216 256.998 72.6042 260.266 73.4655C263.535 74.3296 267.297 75.2537 266.432 76.5485C265.568 77.8433 262.26 83.9466 263.081 83.3705C263.903 82.7944 265.138 78.1085 268.426 76.2604C271.714 74.4124 272.33 73.7535 273.523 74.7403C274.715 75.7271 276.934 77.29 278.374 77.0419C279.814 76.7938 280.47 76.1378 279.854 75.3564C279.238 74.5749 277.552 73.5881 277.552 72.2334C277.552 70.8787 278.211 67.8756 279.649 68.0011C281.086 68.1265 283.964 70.508 286.348 70.8359C288.732 71.1639 290.706 70.3825 291.034 69.1932C291.362 68.0011 291.405 67.5077 290.335 66.6036C289.266 65.6995 283.881 61.5071 283.881 62.6165C283.881 63.7259 286.841 64.2193 285.239 65.5769C283.636 66.9344 281.579 66.3982 283.265 67.2624C284.95 68.1265 286.06 70.0573 285.689 71.1268C285.318 72.1963 286.553 77.4155 286.716 80.3759C286.881 83.3363 287.127 84.691 287.66 84.6082C288.193 84.5255 290.044 84.1548 290.908 84.8136C291.772 85.4724 292.882 85.595 293.21 85.5523C293.538 85.5095 297.608 82.84 297.568 80.7837C297.528 78.7274 293.458 67.1369 293.005 67.0143C292.551 66.8916 290.58 66.3555 290.375 66.1102C290.17 65.8649 283.51 59.3681 283.553 57.9307C283.593 56.4932 291.61 52.7514 291.693 54.0263C291.775 55.3011 291.775 65.2888 291.57 65.3715C291.365 65.4542 288.57 64.0567 288.57 62.8646C288.57 61.6725 288.53 55.2184 288.898 55.1357C289.266 55.053 308.134 46.8335 307.681 48.0656C307.227 49.2977 305.502 52.1354 306.038 55.0131C306.571 57.8907 306.86 59.0002 306.449 59.1228C306.038 59.2454 304.313 59.5763 303.737 58.2586C303.16 56.941 303.366 49.7511 303.819 49.5857C304.273 49.4203 311.711 45.6813 316.933 45.5159C322.152 45.3505 325.606 46.5426 326.675 48.8442C327.745 51.1457 327.827 54.9674 326.841 57.1891C325.854 59.408 325.278 60.2322 323.675 60.1495C322.072 60.0668 306.7 58.8747 302.958 60.1495C299.216 61.4243 292.848 66.7262 293.957 66.6863C295.067 66.6464 295.272 66.3982 295.394 66.8916C295.517 67.385 299.422 78.7103 303.925 83.5188C308.425 88.3272 316.933 95.0494 324.702 95.7253C332.47 96.4013 338.822 95.7881 341.471 95.3546C344.121 94.9211 348.253 93.9371 348.624 94.9239C348.995 95.9107 352.571 116.502 354.297 116.75C356.022 116.998 360.155 118.601 360.771 119.956C361.387 121.313 362.975 128.264 363.098 130.297C363.221 132.331 363.007 132.824 362.821 132.95C362.636 133.075 361.681 133.243 361.527 132.456C361.373 131.669 360.585 127.939 360.4 129.482C360.215 131.022 360.337 135.032 359.599 135.553C358.86 136.075 358.059 136.047 357.873 134.815C357.688 133.583 357.964 127.539 357.38 128.988C356.795 130.437 356.855 135.707 356.148 136.201C355.44 136.694 354.052 136.603 353.898 135.585C353.744 134.567 355.717 126.952 354.668 128.124C353.618 129.296 351.893 133.951 350.874 134.013C349.856 134.076 348.901 133.181 349.334 132.071C349.765 130.962 353.712 122.885 352.571 123.624C351.431 124.362 349.705 127.477 348.75 127.323C347.794 127.169 347.577 126.644 347.7 126.091C347.823 125.537 348.071 125.66 347.823 125.534C347.575 125.409 335.593 131.053 334.732 132.245C333.868 133.437 323.509 153.866 326.304 150.33C329.099 146.796 336.663 132.613 333.703 132.573C330.742 132.533 323.632 132.49 325.07 131.997C326.507 131.504 332.716 130.6 338.306 128.669C343.896 126.738 348.191 125.112 348.211 124.824C348.231 124.536 348.744 122.009 349.731 121.043C350.718 120.076 353.801 117.095 354.334 117.198C354.867 117.301 359.656 119.46 359.801 118.41C359.944 117.361 359.02 89.6591 357.788 83.4104C356.556 77.1617 355.238 74.6975 345.456 70.1743C335.673 65.6539 335.014 63.2696 330.822 62.1174C326.63 60.9652 310.022 59.4878 306.899 60.2265C303.777 60.9652 299.584 62.2828 299.584 64.6671C299.584 67.0513 305.913 82.4236 313.97 87.0267C322.026 91.6299 332.898 92.2687 337.892 91.9578C342.886 91.647 346.4 89.6762 346.708 90.355C347.016 91.0338 348.31 94.6701 348.125 93.5008C347.94 92.3286 346.585 87.1494 344.303 84.9933C342.022 82.8343 335.054 80.1221 326.918 78.274C318.778 76.423 313.97 75.3136 316.374 76.4857C318.778 77.6579 327.411 79.4461 328.272 78.2112C329.134 76.9763 330.617 73.7108 331.355 69.4556C332.094 65.2004 332.465 63.2896 333.574 64.2136C334.684 65.1376 347.016 70.7504 347.509 69.8235C348.002 68.8966 349.913 60.6971 348.559 58.9716C347.204 57.2462 338.942 54.3485 335.24 53.6698C331.538 52.991 329.136 53.4245 328.766 54.1632C328.395 54.9018 326.67 60.5745 327.964 60.7598C329.259 60.9452 332.465 60.8825 336.349 63.3494C340.234 65.8164 345.966 69.5155 346.277 68.8994C346.588 68.2834 350.655 66.3098 354.168 67.2339C357.682 68.1579 372.849 72.1051 377.352 76.4202C381.853 80.7352 389.87 93.1899 389.128 94.7927C388.39 96.3955 381.545 105.214 377.783 105.953C374.021 106.691 360.334 89.8616 360.334 87.2093C360.334 84.5569 367.918 73.7079 369.275 73.5824C370.633 73.4569 377.723 77.1588 377.167 78.5763C376.611 79.9937 373.037 88.872 371.249 89.3654C369.461 89.8588 362.864 89.3026 363.295 90.2894C363.726 91.2762 375.379 105.148 377.044 104.655C378.71 104.162 382.224 100.463 382.594 100.893C382.965 101.324 383.826 104.47 381.856 108.725C379.882 112.98 370.881 123.521 370.14 122.289C369.398 121.057 369.338 117.54 366.871 109.649C364.404 101.757 359.288 93.187 359.781 94.7899C360.275 96.3927 364.222 104.778 365.576 109.033C366.934 113.288 368.597 118.775 367.981 119.454C367.365 120.133 361.013 122.722 362.308 121.798C363.603 120.874 368.534 118.162 369.027 122.785C369.521 127.408 369.09 134.932 366.375 139.803C363.66 144.674 346.83 173.653 345.413 172.541C343.995 171.429 342.701 170.074 341.899 171.246C341.098 172.418 340.482 177.35 341.16 179.26C341.839 181.171 344.552 184.502 346.896 189.741C349.24 194.983 350.287 201.087 350.164 208.114C350.042 215.144 350.41 220.321 349.24 220.814C348.071 221.307 343.938 221.185 343.63 220.506C343.322 219.827 323.675 175.558 323.92 172.598C324.165 169.638 324.824 166.104 328.851 165.776C332.878 165.448 341.183 167.912 338.799 168.16C336.415 168.406 324.907 165.365 323.755 167.915C322.603 170.465 324.331 176.055 322.603 176.548C320.877 177.041 305.833 173.425 311.34 173.919C316.847 174.412 322.275 176.386 321.616 178.85C320.957 181.314 318.655 182.877 315.532 193.894C312.41 204.908 312.738 208.359 309.777 216.005C306.817 223.652 304.022 233.722 302.83 233.765C301.638 233.805 295.965 233.189 295.76 232.122C295.554 231.053 296.213 227.724 295.72 229.039C295.226 230.354 295.802 233.192 295.392 234.136C294.981 235.08 284.911 246.836 286.636 247.329C288.361 247.822 294.855 247.001 297.981 246.302C301.104 245.604 304.969 242.481 304.763 241.206C304.558 239.931 304.065 234.794 304.065 233.765C304.065 232.735 305.134 230.477 305.955 230.477C306.777 230.477 320.013 232.119 325.643 229.244C331.273 226.367 342.373 219.419 342.783 220.572C343.194 221.724 342.743 223.983 341.141 226.367C339.538 228.751 333.7 233.765 335.468 234.917C337.236 236.069 344.429 235.821 348.499 234.136C352.569 232.45 353.185 230.271 352.896 228.298C352.608 226.324 349.485 220.9 350.429 220.078C351.373 219.257 354.582 218.31 355.937 217.2C357.294 216.091 361.076 207.13 372.667 206.391C384.257 205.653 385.957 207.623 389.177 202.199C392.397 196.774 401.726 193.124 405.425 187.451C409.124 181.779 420.52 184.902 436.397 186.864C452.052 188.797 460.531 176.853 468.177 188.937C475.823 201.021 516.98 229.393 503.171 239.751C492.907 247.452 511.179 258.968 530.148 271.463" stroke="white" stroke-miterlimit="10"/>
<path d="M409.377 0.5C410.518 0.5 411.442 1.42405 411.442 2.56485V185.247H407.312V2.56485C407.312 1.42405 408.237 0.5 409.377 0.5Z" stroke="white" stroke-miterlimit="10"/>
<path d="M411.206 11.4147C411.628 10.6275 420.472 4.55279 428.432 7.78411C436.392 11.0154 443.77 16.1918 449.973 13.8132C456.176 11.4347 463.756 6.495 470.265 8.05505C476.773 9.61509 481.225 9.7691 482.257 7.78411C483.29 5.79912 480.931 4.51001 478.362 6.26684C475.792 8.02367 474.942 9.35556 475.818 17.6349C476.693 25.9143 478.008 35.497 473.376 37.2823C468.745 39.0677 459.225 36.4838 454.758 37.2909C450.292 38.098 439.52 42.2191 433.522 40.1229C427.525 38.0267 419.379 35.1405 414.682 38.4003C409.985 41.6573 411.63 40.6249 411.63 43.1688C411.63 45.7128 405.772 46.9848 406.012 44.8373C406.063 44.3638 406.488 44.0558 407.102 43.9047" stroke="white" stroke-miterlimit="10"/>
<path d="M411.494 44.7146C412.566 45.3763 413.231 46.3859 412.766 47.7006C411.442 51.4368 406.642 53.0282 406.565 51.0403C406.551 50.6582 406.816 50.4015 407.241 50.276" stroke="white" stroke-miterlimit="10"/>
<path d="M411.571 52.3152C412.115 53.3276 412.227 54.7194 411.442 56.5276C408.79 62.6508 405.339 63.4437 406.326 67.8985C407.313 72.3505 413.801 74.3383 413.005 77.678" stroke="white" stroke-miterlimit="10"/>
</svg>
