<svg width="100" height="100" viewBox="0 0 100 100" fill="none" xmlns="http://www.w3.org/2000/svg">
<rect width="100" height="100" rx="50" fill="#F8FBF7"/>
<circle cx="50.358" cy="49.9986" r="41.358" fill="#00AD4D"/>
<line x1="25" y1="70.75" x2="76" y2="70.75" stroke="white" stroke-width="0.5"/>
<path fill-rule="evenodd" clip-rule="evenodd" d="M49.5 42.0469C49.2395 42.0405 49.0234 42.2566 49.0234 42.5171V44.8557L47.6508 46.222C47.4665 46.4126 47.4665 46.7113 47.6508 46.9019C47.8414 47.0862 48.1401 47.0862 48.3307 46.9019L49.8368 45.3895C49.9258 45.3069 49.9766 45.1862 49.9766 45.0527V42.5235C49.9766 42.2566 49.7605 42.0469 49.5 42.0469ZM49.5 42.0469C49.2395 42.0405 49.0234 42.2566 49.0234 42.5171V44.8557L47.6508 46.222C47.4665 46.4126 47.4665 46.7113 47.6508 46.9019C47.8414 47.0862 48.1401 47.0862 48.3307 46.9019L49.8368 45.3895C49.9258 45.3069 49.9766 45.1862 49.9766 45.0527V42.5235C49.9766 42.2566 49.7605 42.0469 49.5 42.0469ZM49.5 42.0469C49.2395 42.0405 49.0234 42.2566 49.0234 42.5171V44.8557L47.6508 46.222C47.4665 46.4126 47.4665 46.7113 47.6508 46.9019C47.8414 47.0862 48.1401 47.0862 48.3307 46.9019L49.8368 45.3895C49.9258 45.3069 49.9766 45.1862 49.9766 45.0527V42.5235C49.9766 42.2566 49.7605 42.0469 49.5 42.0469ZM49.5 42.0469C49.2395 42.0405 49.0234 42.2566 49.0234 42.5171V44.8557L47.6508 46.222C47.4665 46.4126 47.4665 46.7113 47.6508 46.9019C47.8414 47.0862 48.1401 47.0862 48.3307 46.9019L49.8368 45.3895C49.9258 45.3069 49.9766 45.1862 49.9766 45.0527V42.5235C49.9766 42.2566 49.7605 42.0469 49.5 42.0469ZM49.5 42.0469C49.2395 42.0405 49.0234 42.2566 49.0234 42.5171V44.8557L47.6508 46.222C47.4665 46.4126 47.4665 46.7113 47.6508 46.9019C47.8414 47.0862 48.1401 47.0862 48.3307 46.9019L49.8368 45.3895C49.9258 45.3069 49.9766 45.1862 49.9766 45.0527V42.5235C49.9766 42.2566 49.7605 42.0469 49.5 42.0469ZM28.6627 46.1521L26 49.6027H40.4381V46.1521H28.6627ZM70.3373 46.1521H58.5619V49.6027H73L70.3373 46.1521ZM49.9766 33.29V29.6868C53.548 28.1108 55.0541 31.6759 58.0281 29.9156C57.3926 28.651 57.3926 26.8907 58.0281 24.6475C55.016 26.4268 53.5099 22.7538 49.8432 24.4696C49.5635 24.6284 49.2903 24.8508 49.0234 25.1241V33.29L36.7332 43.1653H39.3578L40.5779 42.193C40.5779 42.193 40.6287 42.1486 40.6605 42.1295L49.195 35.3108C49.3665 35.171 49.6144 35.1583 49.7987 35.3045L58.3395 42.1295C58.3713 42.1486 58.3967 42.1676 58.4158 42.193L59.6359 43.1717H62.2604L49.9766 33.29Z" fill="white"/>
<path d="M70.0573 50.5547H58.5615V67.6554H70.0573V50.5547Z" fill="white"/>
<path opacity="0.5" fill-rule="evenodd" clip-rule="evenodd" d="M41.3916 42.7568V67.6548H57.609V42.7568L49.5003 36.2812L41.3916 42.7568ZM53.5483 45.0509C53.5483 47.2877 51.7372 49.0989 49.5003 49.0989C47.2634 49.0989 45.4523 47.2877 45.4523 45.0509C45.4523 42.814 47.2634 41.0029 49.5003 41.0029C51.7372 41.0029 53.5483 42.8203 53.5483 45.0509Z" fill="white"/>
<path d="M40.4377 50.5547H28.9355V67.6554H40.4377V50.5547Z" fill="white"/>
</svg>
