<svg width="100" height="100" viewBox="0 0 100 100" fill="none" xmlns="http://www.w3.org/2000/svg">
<circle cx="50" cy="50" r="50" fill="#F8FBF7"/>
<circle cx="49.9996" cy="49.9986" r="41.358" fill="#00AD4D"/>
<path d="M24.2519 43.8891C24.0309 44.0874 23.9464 44.3929 24.0341 44.6725C25.6985 49.2008 32.6389 53.7941 38.2986 52.9944C39.147 57.0772 40.8472 60.9359 43.2917 64.3137C43.1617 64.2715 43.0219 64.2715 42.8919 64.3137C42.7131 64.3722 42.5668 64.5055 42.492 64.6778C41.9817 65.9358 42.1247 67.3629 42.8756 68.4909C43.5355 69.5149 44.6667 70.1423 45.8891 70.1552H52.0979C53.3235 70.1487 54.4611 69.5213 55.1243 68.4909C55.8752 67.3628 56.0182 65.9358 55.5079 64.6778C55.3649 64.3787 55.0365 64.2162 54.7082 64.278C57.1528 60.9005 58.8562 57.0451 59.7013 52.9619C65.3771 53.7779 72.2332 49.1846 73.9658 44.6401C74.0536 44.3605 73.969 44.0517 73.7512 43.8567C73.6017 43.7234 69.9219 40.7619 61.9351 42.7905L61.9318 42.7937C61.9058 41.8022 61.5547 40.8498 60.9339 40.0794C63.2809 34.7189 58.6713 30.243 58.6356 30.1939H58.6389C58.4373 30.0021 58.1383 29.9468 57.8847 30.0541C57.6279 30.1646 57.4589 30.4149 57.4556 30.6912C57.3581 32.9504 56.6364 35.1382 55.3751 37.0171C54.0781 36.7181 52.742 36.6271 51.4158 36.7506C49.7872 36.9326 48.1488 36.9326 46.5202 36.7506C45.1906 36.6271 43.8481 36.7181 42.5446 37.0171C41.2963 35.135 40.5812 32.9473 40.4804 30.6912C40.4771 30.4149 40.3081 30.1646 40.0513 30.0541C39.7977 29.9468 39.4987 30.0021 39.2971 30.1939C39.2971 30.1939 34.6713 34.6539 37.0021 40.0794C36.3845 40.8791 36.0562 41.864 36.0692 42.875C28.0789 40.7946 24.4019 43.7592 24.253 43.8893L24.2519 43.8891Z" fill="white"/>
</svg>
