<svg width="100" height="100" viewBox="0 0 100 100" fill="none" xmlns="http://www.w3.org/2000/svg">
<rect width="100" height="100" rx="50" fill="#F8FBF7"/>
<circle cx="50.358" cy="49.9986" r="41.358" fill="#00AD4D"/>
<path opacity="0.5" fill-rule="evenodd" clip-rule="evenodd" d="M67.7343 24.8124L64.76 23.095C64.4054 22.8959 63.9449 23.0204 63.7396 23.3688L59.2783 31.0968C59.0792 31.4452 59.1974 31.9119 59.552 32.111L62.5325 33.8346C62.8809 34.0337 63.3476 33.9092 63.5467 33.5608L68.008 25.8328C68.2134 25.4781 68.0827 25.0177 67.7343 24.8124ZM59.4525 33.8408L56.2854 39.3226C55.8809 40.007 56.5032 40.9341 57.3494 40.7039C57.6294 40.6292 57.7974 40.4737 57.9467 40.2248L61.0889 34.7866L59.4525 33.8408ZM59.6889 40.2995L59.2596 41.0399C58.1583 42.9501 55.2712 42.5768 54.6987 40.4364C54.5369 39.8266 54.6054 39.1359 54.9476 38.5448L55.3645 37.823H55.3583C53.6783 37.0204 51.9609 36.367 50.1378 35.8195C48.4952 38.7439 47.1263 41.9484 46.5352 45.0097C48.8374 46.3475 50.6854 48.3759 51.7929 50.815C54.0329 49.5581 56.7458 49.3901 59.1289 50.3608C60.9707 48.4941 62.6072 46.223 64.032 43.8337C62.688 42.5332 61.2507 41.3572 59.6889 40.2995Z" fill="white"/>
<path fill-rule="evenodd" clip-rule="evenodd" d="M74 64.9684C74 65.3977 73.6578 65.74 73.2284 65.7462H18.7778C18.3484 65.7462 18 65.3977 18 64.9684C18 64.5391 18.3484 64.1906 18.7778 64.1906H21.1858C21.8516 60.9488 24.7387 58.5408 28.1111 58.5408C29.3431 58.5408 28.8764 56.836 28.8764 56.0893C28.8764 52.9844 30.1396 50.172 32.1742 48.1311C36.0444 44.2608 42.1298 43.7506 46.5724 46.8617C48.4453 48.1684 49.9013 50.0413 50.704 52.2253C50.8782 52.7168 51.4693 52.8911 51.88 52.5924C56.2978 49.4004 62.5387 52.3684 62.8373 57.8128C62.856 58.2235 63.1982 58.5408 63.6089 58.5408C67.2364 58.5408 70.4347 60.6004 71.1129 64.1968H73.2222C73.6516 64.1968 74 64.5453 74 64.9684Z" fill="white"/>
<line x1="20" y1="68.75" x2="71" y2="68.75" stroke="white" stroke-width="0.5"/>
</svg>
