<svg width="100" height="100" viewBox="0 0 100 100" fill="none" xmlns="http://www.w3.org/2000/svg">
<circle cx="50" cy="50" r="50" fill="#F8FBF7"/>
<circle cx="49.9996" cy="49.9986" r="41.358" fill="#00AD4D"/>
<path opacity="0.5" fill-rule="evenodd" clip-rule="evenodd" d="M62 31.8913V40.1226C62 40.2822 61.8681 40.4141 61.7016 40.4141H54.4072V47.7154C54.4072 47.8751 54.2753 48.0069 54.1157 48.0069H45.8843C45.7178 48.0069 45.5859 47.8751 45.5859 47.7154V40.4141H38.2984C38.1319 40.4141 38 40.2822 38 40.1226V31.8913C38 31.7247 38.1319 31.5928 38.2984 31.5928H45.5859V24.2984C45.5859 24.1388 45.7178 24 45.8843 24H54.1157C54.2753 24 54.4072 24.1319 54.4072 24.2984V31.5928H61.7016C61.8681 31.5928 62 31.7247 62 31.8913Z" fill="white"/>
<path d="M30.1965 54.8335C30.0241 54.9882 29.9582 55.2265 30.0266 55.4446C31.3248 58.9766 36.7384 62.5594 41.1529 61.9356C41.8147 65.1202 43.1408 68.13 45.0475 70.7647C44.9461 70.7317 44.8371 70.7317 44.7357 70.7647C44.5962 70.8103 44.4821 70.9143 44.4238 71.0487C44.0257 72.0299 44.1373 73.1431 44.723 74.0229C45.2377 74.8216 46.1201 75.311 47.0735 75.3211H51.9164C52.8723 75.316 53.7597 74.8267 54.277 74.0229C54.8627 73.143 54.9742 72.0299 54.5762 71.0487C54.4646 70.8154 54.2085 70.6886 53.9524 70.7368C55.8591 68.1024 57.1878 65.0952 57.847 61.9103C62.2741 62.5467 67.6219 58.964 68.9733 55.4193C69.0418 55.2012 68.9759 54.9603 68.806 54.8082C68.6893 54.7042 65.8191 52.3943 59.5893 53.9766L59.5868 53.9791C59.5665 53.2058 59.2927 52.4629 58.8084 51.8619C60.6391 47.6808 57.0436 44.1895 57.0158 44.1512H57.0183C56.8611 44.0016 56.6278 43.9585 56.4301 44.0422C56.2298 44.1284 56.0979 44.3236 56.0954 44.5391C56.0193 46.3013 55.4564 48.0078 54.4726 49.4734C53.4609 49.2401 52.4188 49.1691 51.3843 49.2655C50.114 49.4074 48.8361 49.4074 47.5658 49.2655C46.5287 49.1691 45.4816 49.2401 44.4648 49.4734C43.4911 48.0053 42.9333 46.2989 42.8547 44.5391C42.8522 44.3236 42.7203 44.1284 42.52 44.0422C42.3222 43.9585 42.089 44.0016 41.9318 44.1512C41.9318 44.1512 38.3236 47.63 40.1417 51.8619C39.6599 52.4857 39.4038 53.2539 39.4139 54.0425C33.1815 52.4198 30.3135 54.7322 30.1973 54.8336L30.1965 54.8335Z" fill="white"/>
</svg>
