<svg width="100" height="100" viewBox="0 0 100 100" fill="none" xmlns="http://www.w3.org/2000/svg">
<circle cx="50" cy="50" r="50" fill="#F8FBF7"/>
<circle cx="49.9996" cy="49.9986" r="41.358" fill="#00AD4D"/>
<path fill-rule="evenodd" clip-rule="evenodd" d="M29.551 27.6877L33.9618 25.1409C34.4878 24.8456 35.1706 25.0302 35.4751 25.5469L42.0913 37.0076C42.3866 37.5243 42.2113 38.2164 41.6853 38.5117L37.2653 41.0677C36.7486 41.363 36.0565 41.1785 35.7612 40.6617L29.145 29.2011C28.8405 28.6751 29.0343 27.9922 29.551 27.6877ZM41.8329 41.0769L46.5298 49.2064C47.1296 50.2215 46.2068 51.5964 44.9519 51.255C44.5366 51.1442 44.2875 50.9135 44.066 50.5444L39.4061 42.4795L41.8329 41.0769ZM41.4823 50.6552L42.119 51.7533C43.7523 54.5861 48.0339 54.0325 48.8828 50.8582C49.1227 49.9539 49.0212 48.9296 48.5137 48.053L47.8955 46.9826H47.9047C50.3961 45.7922 52.9429 44.8233 55.6466 44.0113C58.0827 48.3483 60.1128 53.1005 60.9894 57.6404C62.006 62.9052 62.6319 67.6494 60.9894 71.2666C58.753 77.9558 46.5298 71.2666 42.3128 65.5762C39.5814 62.8079 37.1546 59.4398 35.0415 55.8964C37.0346 53.9679 39.1662 52.2239 41.4823 50.6552Z" fill="white"/>
<g opacity="0.5">
<path d="M64.9553 73.624C61.6764 73.5993 59.0241 70.947 59 67.6681C59 66.2934 60.0949 63.7565 62.1674 60.3315C63.2898 58.4762 64.4238 56.821 64.9997 56C65.5755 56.8217 66.7096 58.4762 67.8319 60.3315C69.9044 63.7565 71 66.2934 71 67.6681C70.9752 70.9816 68.2695 73.6482 64.9553 73.624Z" fill="white"/>
</g>
<g opacity="0.5">
<path d="M42.9777 37.6245C41.3382 37.6121 40.0121 36.286 40 34.6465C40 33.9592 40.5475 32.6908 41.5837 30.9783C42.1449 30.0506 42.7119 29.223 42.9998 28.8125C43.2878 29.2233 43.8548 30.0506 44.416 30.9783C45.4522 32.6908 46 33.9592 46 34.6465C45.9876 36.3033 44.6347 37.6366 42.9777 37.6245Z" fill="white"/>
</g>
</svg>
