<svg width="120" height="120" viewBox="0 0 120 120" fill="none" xmlns="http://www.w3.org/2000/svg">
<circle cx="60" cy="60" r="55" fill="#F8FBF7" stroke="#73C386" stroke-width="10"/>
<path fill-rule="evenodd" clip-rule="evenodd" d="M79.5699 47.0427C76.8958 44.428 73.2953 42.9776 69.556 43.0003H69.5446C65.4852 43.0088 61.6298 44.7764 58.9754 47.8472C56.3211 44.7764 52.4657 43.0088 48.4063 43.0003H48.3949C44.6556 42.9776 41.0608 44.4308 38.3866 47.0427C35.3187 50.1078 33.8456 53.493 34.0128 57.1048C34.4519 66.5918 46.3015 76.0421 53.154 81.736C55.1087 83.3592 56.9528 84.8918 58.4514 86.26C58.7488 86.532 59.2049 86.532 59.5052 86.26C61.0037 84.8918 62.8479 83.3592 64.7997 81.736C71.6522 76.0421 83.5047 66.5947 83.9438 57.1048C84.1109 53.493 82.6379 50.1078 79.5699 47.0427ZM66.5447 67.3284C66.5447 67.4304 66.4625 67.5125 66.3577 67.5125H61.7573V72.113C61.7573 72.215 61.6751 72.2971 61.5703 72.2971H56.3806C56.2758 72.2971 56.1936 72.215 56.1936 72.113V67.5125H51.596C51.4912 67.5125 51.409 67.4304 51.409 67.3284V62.1387C51.409 62.0339 51.494 61.9517 51.596 61.9517H56.1936V57.3541C56.1936 57.2493 56.2758 57.1671 56.3806 57.1671H61.5703C61.6751 57.1671 61.7573 57.2493 61.7573 57.3541V61.9517H66.3577C66.4625 61.9517 66.5447 62.0339 66.5447 62.1387V67.3284Z" fill="#00AD4D"/>
</svg>
