<svg width="120" height="120" viewBox="0 0 120 120" fill="none" xmlns="http://www.w3.org/2000/svg">
<circle cx="60" cy="60" r="55" fill="#F8FBF7" stroke="#73C386" stroke-width="10"/>
<path d="M56.3859 36.7021L33 77H47.6278L58.5 53.1814L69.3722 77H84L60.6083 36.7021L62.9545 32.6431C63.4243 31.7832 63.1111 30.6917 62.2526 30.2198C61.3913 29.7508 60.2168 30.0635 59.7499 30.9205L58.4217 33.1845L57.0935 30.9205C56.6237 30.0606 55.4492 29.7479 54.5908 30.2198C53.7294 30.6888 53.4162 31.7803 53.889 32.6431L56.2351 36.7021H56.3888H56.3859Z" fill="#00AD4D"/>
<path fill-rule="evenodd" clip-rule="evenodd" d="M63.5107 67.9442V71.3778C63.5107 71.4444 63.4556 71.4994 63.386 71.4994H60.3381V74.5451C60.3381 74.6117 60.283 74.6667 60.2163 74.6667H56.7769C56.7073 74.6667 56.6522 74.6117 56.6522 74.5451V71.4994H53.6071C53.5375 71.4994 53.4824 71.4444 53.4824 71.3778V67.9442C53.4824 67.8747 53.5375 67.8197 53.6071 67.8197H56.6522V64.7768C56.6522 64.7102 56.7073 64.6523 56.7769 64.6523H60.2163C60.283 64.6523 60.3381 64.7074 60.3381 64.7768V67.8197H63.386C63.4556 67.8197 63.5107 67.8747 63.5107 67.9442Z" fill="#00AD4D"/>
</svg>
