<svg width="1128" height="767" viewBox="0 0 1128 767" fill="none" xmlns="http://www.w3.org/2000/svg">
<g style="mix-blend-mode:plus-lighter" opacity="0.11">
<path fill-rule="evenodd" clip-rule="evenodd" d="M357.731 53.3712C366.863 53.3712 375.299 58.1804 380.02 66.0149L548.313 346.348C603.378 437.22 631.085 511.415 631.085 568.932C631.085 629.862 607.441 678.304 560.347 713.908C513.756 749.24 449.017 767.004 366.786 767.004C284.555 767.004 214.785 749.473 164.363 714.567C114.522 680.049 89.5236 632.848 89.5236 573.314C89.5236 535.538 100.165 494.039 121.487 448.196C142.383 403.245 213.199 276.032 335.209 66.3639C339.853 58.3356 348.444 53.41 357.692 53.41L357.731 53.3712Z" fill="#08A03F"/>
<path fill-rule="evenodd" clip-rule="evenodd" d="M324.679 19.1241C327.852 27.5791 326.304 37.1201 320.577 44.1013C213.348 175.464 71.4086 410.691 -56.7164 488.803C-105.204 518.512 -155.432 521.537 -207.479 497.995C-258.984 474.84 -301.164 440.788 -342.453 369.735C-385.02 296.626 -405.142 229.84 -402.82 169.452C-400.499 109.492 -375.5 65.006 -328.097 36.1504C-298.068 17.8054 -259.797 6.86826 -212.819 3.02861C-166.847 -0.694688 70.4413 -1.04376 301.461 2.75713C311.832 2.91227 321.042 9.42803 324.679 19.1629L324.679 19.1241Z" fill="#08A03F"/>
<path fill-rule="evenodd" clip-rule="evenodd" d="M399.761 17.1475C403.669 8.49861 412.182 2.87487 421.624 2.71974C653.147 -1.1199 891.326 -0.770848 937.414 2.99124C984.508 6.8309 1022.78 17.7681 1052.81 36.1131C1100.25 65.0075 1125.25 109.493 1127.57 169.454C1129.89 229.841 1109.81 296.628 1067.16 369.736C1025.8 440.789 983.579 474.881 932.112 497.996C880.065 521.538 829.798 518.513 781.466 488.804C652.954 410.421 510.511 173.953 403.166 42.8228C397.245 35.6089 395.93 25.6413 399.761 17.1475Z" fill="#08A03F"/>
</g>
</svg>
