<svg width="727" height="407" viewBox="0 0 727 407" fill="none" xmlns="http://www.w3.org/2000/svg">
<path d="M604.172 0.385742C617.495 0.385742 628.196 3.06341 636.092 8.27832C643.864 13.4823 647.78 20.4964 647.78 29.3477C647.78 34.9533 646.079 41.1973 642.752 48.1914C639.419 54.992 628.215 74.1951 608.91 105.926L608.903 105.937L608.897 105.947C608.328 107.039 607.066 107.711 605.761 107.808C604.401 107.9 603.027 107.149 602.345 106.028L602.342 106.024L575.709 63.6562L575.707 63.6543C566.983 49.9264 562.612 38.7401 562.612 30.0703C562.612 20.894 566.328 13.6737 573.667 8.37305C581.019 3.06345 591.173 0.385759 604.172 0.385742Z" stroke="#08A03F" stroke-width="0.772066"/>
<path d="M605.57 130.589C606.953 130.589 608.199 131.348 608.667 132.424L608.678 132.448L608.691 132.471C628.1 164.296 639.303 183.601 642.639 190.406V190.407C645.967 197.403 647.669 203.648 647.669 209.255C647.669 218.106 643.752 225.119 635.98 230.323C628.084 235.538 617.384 238.217 604.061 238.217C591.062 238.217 580.908 235.539 573.556 230.229C566.217 224.929 562.501 217.606 562.501 208.532C562.501 199.862 566.872 188.676 575.596 174.948L575.598 174.946L602.339 132.372L602.342 132.367C603.022 131.25 604.294 130.589 605.57 130.589Z" stroke="#08A03F" stroke-width="0.772066"/>
<path d="M614.526 122.942C651.194 122.322 688.807 122.426 696.119 122.941V122.94C703.291 123.539 709.223 125.1 713.839 127.697L714.281 127.952C721.713 132.327 725.633 138.922 725.952 147.887C726.272 156.985 723.18 167.037 716.412 178.052V178.053C709.875 188.733 703.251 193.845 695.132 197.326H695.131L695.129 197.327C686.936 200.896 679.088 200.487 671.543 196.006L671.541 196.005L670.595 195.435C660.808 189.363 650.49 177.871 640.512 165.38C630.242 152.523 620.318 138.588 611.801 128.616C611.005 127.561 610.739 126.267 611.207 125.19L611.212 125.181L611.215 125.171C611.695 123.881 613.057 122.942 614.52 122.942H614.526Z" stroke="#08A03F" stroke-width="0.772066"/>
<path d="M671.543 41.875C679.093 37.493 686.943 36.9842 695.133 40.5518L695.135 40.5527C703.254 44.0336 709.879 49.1452 716.416 59.8262V59.8271C723.184 70.8423 726.276 80.8943 725.956 89.9922C725.637 98.9599 721.714 105.655 714.288 109.925C709.798 112.506 704.263 114.112 697.489 114.811L696.123 114.938C688.811 115.453 650.766 115.557 613.883 114.937H613.876C612.726 114.936 611.661 114.292 611.079 113.365C610.41 112.265 610.506 110.795 611.366 109.787L611.365 109.786C619.885 99.864 629.865 85.8234 640.219 72.834C650.6 59.8107 661.369 47.8269 671.542 41.874L671.543 41.875Z" stroke="#08A03F" stroke-width="0.772066"/>
<path d="M513.621 122.941C520.933 122.426 558.654 122.322 595.43 122.942H595.436C596.795 122.942 597.955 123.683 598.538 124.894C599.115 126.092 598.93 127.381 598.153 128.41C589.636 138.382 579.687 152.37 569.377 165.277C559.036 178.223 548.32 190.103 538.2 196.004C530.65 200.386 522.8 200.895 514.61 197.327L514.608 197.326C506.489 193.845 499.865 188.733 493.328 178.053L493.327 178.052C486.56 167.037 483.467 156.985 483.787 147.887C484.106 138.919 488.029 132.224 495.455 127.954L495.458 127.952C500.135 125.202 506.218 123.558 513.62 122.94L513.621 122.941Z" stroke="#08A03F" stroke-width="0.772066"/>
<path d="M514.61 40.5518C522.544 37.0956 530.16 37.4651 537.492 41.4756L538.2 41.875C548.32 47.7762 559.01 59.605 569.31 72.499C579.58 85.3567 589.482 99.2996 597.945 109.27L597.958 109.284L597.973 109.298C597.989 109.314 597.974 109.301 598.03 109.382C598.048 109.408 598.085 109.454 598.141 109.499C598.168 109.572 598.203 109.666 598.243 109.782C598.325 110.02 598.423 110.347 598.493 110.729C598.632 111.492 598.652 112.453 598.224 113.381C597.659 114.366 596.511 114.942 595.198 115.04C558.535 115.66 520.931 115.556 513.62 115.041C506.218 114.424 500.136 112.78 495.459 110.03C488.032 105.658 484.213 98.9615 483.787 89.9873C483.468 80.8907 486.561 70.8403 493.327 59.8271L493.328 59.8262C499.865 49.1455 506.489 44.0336 514.608 40.5527L514.61 40.5518Z" stroke="#08A03F" stroke-width="0.772066"/>
<path opacity="0.5" d="M0.162109 372.849C56.7516 397.866 194.493 432.89 292.742 372.849C415.553 297.798 367.392 182.612 482.979 151.709" stroke="#08A03F" stroke-width="0.802687"/>
<path opacity="0.5" d="M358.347 309.917C349.45 313.656 331.64 318.157 331.58 306.249C331.521 294.341 349.4 303.732 358.347 309.917Z" stroke="#08A03F" stroke-width="0.802687"/>
<path opacity="0.5" d="M389.826 247.854C405.126 259.937 430.72 286.851 410.689 297.837C390.659 308.823 388.434 269.092 389.826 247.854Z" stroke="#08A03F" stroke-width="0.802687"/>
<path opacity="0.5" d="M427.808 182.13C411.645 171.227 378.225 155.025 373.848 177.447C369.47 199.87 407.998 189.912 427.808 182.13Z" stroke="#08A03F" stroke-width="0.802687"/>
</svg>
