<svg preserveAspectRatio="none" width="100%" height="100%" overflow="visible" style="display: block;" viewBox="0 0 299.937 308" fill="none" xmlns="http://www.w3.org/2000/svg">
<g id="Petal 2" opacity="0.25">
<path id="Vector" opacity="0.5" fill-rule="evenodd" clip-rule="evenodd" d="M151.103 139.683C149.185 139.766 147.38 138.794 146.395 137.145L113.534 82.4221C102.744 64.6169 97.3153 50.0718 97.3153 38.8097C97.3153 26.8408 101.948 17.3796 111.175 10.4035C120.304 3.48048 132.989 0 149.101 0C165.213 0 178.884 3.43489 188.764 10.2743C198.529 17.0377 203.427 26.2556 203.427 37.9585C203.427 45.3603 201.342 53.4915 197.165 62.4739C193.078 71.2663 179.24 96.1313 155.402 137.092C154.507 138.634 152.885 139.615 151.111 139.691L151.103 139.683Z" fill="var(--fill-0, white)"/>
<path id="Vector_2" opacity="0.5" fill-rule="evenodd" clip-rule="evenodd" d="M150.876 168.173C149.086 168.173 147.433 169.115 146.508 170.65L113.534 225.578C102.744 243.383 97.3153 257.921 97.3153 269.19C97.3153 281.129 101.948 290.62 111.175 297.597C120.304 304.519 132.989 308 149.101 308C165.213 308 178.884 304.565 188.764 297.726C198.529 290.962 203.427 281.714 203.427 270.049C203.427 262.647 201.342 254.516 197.165 245.534C193.07 236.726 179.195 211.8 155.288 170.718C154.379 169.145 152.695 168.18 150.883 168.18L150.876 168.173Z" fill="var(--fill-0, white)"/>
<path id="Vector_3" opacity="0.5" fill-rule="evenodd" clip-rule="evenodd" d="M157.353 161.462C156.731 163.119 157.034 164.989 158.156 166.356C179.166 192.095 206.978 238.185 232.082 253.49C241.583 259.311 251.424 259.904 261.622 255.291C271.714 250.754 279.979 244.082 288.069 230.16C296.409 215.835 300.352 202.749 299.897 190.917C299.442 179.169 294.544 170.452 285.256 164.799C279.372 161.204 271.873 159.061 262.669 158.309C253.661 157.579 207.167 157.511 161.902 158.256C159.87 158.286 158.065 159.563 157.353 161.47V161.462Z" fill="var(--fill-0, white)"/>
<path id="Vector_4" opacity="0.5" fill-rule="evenodd" clip-rule="evenodd" d="M157.244 146.629C158.047 148.012 159.518 148.878 161.118 148.901C206.626 149.661 253.613 149.592 262.673 148.855C271.878 148.11 279.369 145.96 285.261 142.365C294.541 136.712 299.447 127.988 299.902 116.247C300.357 104.414 296.421 91.3284 288.074 77.0037C279.991 63.0818 271.719 56.402 261.627 51.8728C251.429 47.2676 241.587 47.8528 232.087 53.6739C206.785 69.1005 178.731 115.806 157.661 141.423C156.448 142.897 156.281 144.98 157.244 146.636V146.629Z" fill="var(--fill-0, white)"/>
<path id="Vector_5" opacity="0.5" fill-rule="evenodd" clip-rule="evenodd" d="M142.64 161.075C141.875 159.38 140.207 158.278 138.356 158.248C92.9925 157.496 46.3244 157.564 37.2941 158.301C28.0666 159.054 20.5679 161.197 14.6841 164.791C5.38843 170.453 0.490364 179.169 0.0354358 190.917C-0.419493 202.75 3.51564 215.836 11.8712 230.16C19.9765 244.082 28.2486 250.762 38.3328 255.291C48.5308 259.904 58.38 259.311 67.8501 253.49C93.0304 238.132 120.94 191.799 141.973 166.106C143.133 164.692 143.391 162.739 142.64 161.075Z" fill="var(--fill-0, white)"/>
<path id="Vector_6" opacity="0.5" fill-rule="evenodd" clip-rule="evenodd" d="M142.148 146.575C143.262 144.774 143.118 142.457 141.776 140.815C120.766 115.076 92.947 68.9789 67.8426 53.6739C58.3725 47.8528 48.5232 47.2676 38.3253 51.8728C28.241 56.4096 19.9689 63.0818 11.8636 77.0037C3.51564 91.3284 -0.419492 104.414 0.0354368 116.247C0.490366 127.995 5.38843 136.711 14.6766 142.365C20.5603 145.96 28.059 148.11 37.2865 148.855C46.2941 149.585 92.7651 149.653 138.023 148.908C139.706 148.878 141.26 147.996 142.148 146.568V146.575Z" fill="var(--fill-0, white)"/>
</g>
</svg>
