<svg width="18" height="17" viewBox="0 0 18 17" fill="none" xmlns="http://www.w3.org/2000/svg">
<path d="M8.57769 7.58145C8.47191 7.58869 8.36612 7.53076 8.31323 7.44387L6.44691 4.47501C5.83488 3.51194 5.52509 2.72266 5.52509 2.10716C5.52509 1.45546 5.78954 0.941345 6.3109 0.564807C6.83226 0.188269 7.55008 0 8.46435 0C9.40129 0 10.1569 0.188269 10.716 0.557566C11.2676 0.926863 11.5472 1.4265 11.5472 2.05648C11.5472 2.45474 11.4263 2.89645 11.192 3.38884C10.9578 3.86676 10.172 5.2136 8.81948 7.43663C8.77414 7.52352 8.67592 7.57421 8.57769 7.58145Z" fill="white"/>
<path d="M8.56244 9.12549C8.46422 9.12549 8.36599 9.17618 8.3131 9.26307L6.43922 12.2464C5.82719 13.2095 5.5174 13.9988 5.5174 14.6143C5.5174 15.2587 5.78185 15.7801 6.30321 16.1566C6.82457 16.5332 7.54239 16.7214 8.45666 16.7214C9.3936 16.7214 10.1492 16.5332 10.7083 16.1639C11.2599 15.7946 11.5395 15.2949 11.5395 14.6649C11.5395 14.2667 11.4186 13.825 11.1844 13.3326C10.9501 12.8547 10.1643 11.5006 8.80423 9.27031C8.76645 9.18342 8.66823 9.12549 8.56244 9.12549Z" fill="white"/>
<path d="M8.93241 8.76256C8.89463 8.84945 8.9173 8.95082 8.97775 9.03048C10.1716 10.428 11.7508 12.9262 13.1713 13.7589C13.7078 14.0775 14.2669 14.1065 14.8487 13.8531C15.423 13.6069 15.8914 13.2448 16.3524 12.4917C16.8284 11.7169 17.0475 11.0073 17.0248 10.3628C17.0022 9.72562 16.7226 9.25495 16.1937 8.94358C15.8612 8.74807 15.4305 8.63222 14.9092 8.58877C14.3954 8.55256 11.7583 8.54532 9.18931 8.58877C9.07597 8.58877 8.97019 8.66118 8.93241 8.76256Z" fill="white"/>
<path d="M8.9254 7.95987C8.97073 8.03228 9.05385 8.08297 9.14452 8.08297C11.7287 8.12641 14.3959 8.11917 14.9097 8.08297C15.4311 8.03952 15.8542 7.92366 16.1942 7.72815C16.7231 7.42402 17.0027 6.94611 17.0254 6.30889C17.048 5.66443 16.8289 4.9548 16.3529 4.18001C15.892 3.42693 15.4235 3.06487 14.8493 2.81868C14.2675 2.56524 13.7083 2.60144 13.1718 2.91281C11.7362 3.75278 10.1419 6.28717 8.94806 7.67746C8.88006 7.75712 8.8725 7.87297 8.9254 7.95987Z" fill="white"/>
<path d="M8.09401 8.74083C8.04868 8.6467 7.958 8.58877 7.85222 8.58877C5.27564 8.54532 2.63106 8.55256 2.11726 8.58877C1.5959 8.63222 1.16521 8.74807 0.832747 8.94358C0.30383 9.24771 0.0242601 9.72562 0.00159228 10.3628C-0.0210756 11.0073 0.198047 11.7169 0.674072 12.4917C1.13498 13.2448 1.60345 13.6069 2.17771 13.8531C2.75951 14.1065 3.31865 14.0703 3.85513 13.7589C5.2832 12.9262 6.86995 10.4135 8.06379 9.01599C8.12424 8.93634 8.13935 8.83497 8.09401 8.74083Z" fill="white"/>
<path d="M8.07135 7.95938C8.02601 8.03903 7.93534 8.08248 7.83711 8.08972C5.26809 8.13317 2.63106 8.12593 2.11726 8.08972C1.5959 8.04627 1.16521 7.93042 0.832747 7.73491C0.30383 7.42354 0.0318161 6.94562 0.00159228 6.30841C-0.0210756 5.66395 0.198047 4.95432 0.674072 4.17952C1.13498 3.42644 1.60345 3.06439 2.17771 2.81819C2.75951 2.56475 3.31865 2.60095 3.85513 2.91232C5.2832 3.74505 6.8624 6.24324 8.04868 7.64077C8.05624 7.64801 8.05624 7.65525 8.06379 7.65525C8.06379 7.66249 8.13935 7.81456 8.07135 7.95938Z" fill="white"/>
</svg>
