<svg width="447" height="214" viewBox="0 0 447 214" fill="none" xmlns="http://www.w3.org/2000/svg">
<path d="M222.127 0.45166C246.285 0.45166 265.892 5.22924 280.53 14.646L281.223 15.0981L281.225 15.1001C295.756 24.829 303.148 38.0225 303.148 54.6489C303.148 65.1471 299.962 76.7596 293.823 89.6646L293.821 89.6694C287.688 102.182 267.139 137.398 231.8 195.481C230.522 197.917 227.797 199.297 225.123 199.495H225.12C222.181 199.696 219.259 198.093 217.792 195.683V195.682L169.02 118.099C153.013 92.9112 144.858 72.192 144.858 55.9731C144.858 38.7965 151.839 25.2241 165.583 15.2983C179.312 5.38305 198.176 0.451706 222.127 0.45166Z" stroke="white" stroke-width="0.90283"/>
<path d="M344.922 76.5884C359.066 68.3794 373.83 67.4231 389.166 74.103C404.263 80.5754 416.577 90.1018 428.67 109.86C441.141 130.158 446.909 148.792 446.313 165.75V165.751C445.715 182.552 438.329 195.188 424.364 203.218C415.403 208.37 404.275 211.411 390.606 212.55L390.6 212.551V212.55C377.147 213.498 307.416 213.688 239.887 212.552V212.551C237.354 212.548 235.046 211.135 233.785 209.123L233.783 209.118C232.301 206.683 232.511 203.442 234.417 201.209L234.418 201.208C250.017 183.043 268.196 157.447 287.232 133.566C306.235 109.725 326.079 87.6125 344.921 76.5884H344.922Z" stroke="white" stroke-width="0.90283"/>
<path d="M57.6392 74.103C72.9759 67.423 87.7395 68.3793 101.883 76.5884H101.884C120.627 87.5176 140.322 109.346 159.178 132.951C178.068 156.598 196.096 182 211.599 200.264C211.66 200.327 211.707 200.386 211.743 200.438C211.754 200.454 211.765 200.47 211.774 200.484H212.101V200.874C212.113 200.907 212.13 200.953 212.154 201.016C212.204 201.15 212.277 201.342 212.358 201.578C212.52 202.05 212.719 202.706 212.86 203.48C213.141 205.023 213.199 207.067 212.256 209.075L212.249 209.091L212.24 209.107C210.958 211.359 208.424 212.543 205.759 212.74L205.747 212.741H205.734C138.599 213.876 69.6579 213.688 56.2056 212.74H56.1997C42.9601 211.636 31.9145 208.75 23.2671 203.883L22.438 203.406C8.47305 195.185 1.29017 182.55 0.493652 165.756V165.75C-0.102732 148.792 5.6644 130.158 18.1353 109.86C30.2282 90.1018 42.5426 80.5754 57.6392 74.103Z" stroke="white" stroke-width="0.90283"/>
</svg>
