<svg width="48" height="48" viewBox="0 0 48 48" fill="none" xmlns="http://www.w3.org/2000/svg">
<path d="M24.1819 21.3725C23.8837 21.393 23.5855 21.2297 23.4364 20.9847L18.1752 12.6153C16.4498 9.90037 15.5765 7.67534 15.5765 5.94022C15.5765 4.10304 16.322 2.65371 17.7917 1.59222C19.2615 0.530741 21.2851 0 23.8624 0C26.5037 0 28.6338 0.530741 30.21 1.57181C31.765 2.61288 32.5531 4.02139 32.5531 5.79733C32.5531 6.92005 32.2123 8.16525 31.552 9.55334C30.8917 10.9006 28.6764 14.6974 24.8636 20.9643C24.7358 21.2092 24.4589 21.3521 24.1819 21.3725Z" fill="#08A03F"/>
<path d="M24.1382 25.7207C23.8613 25.7207 23.5844 25.8636 23.4353 26.1086L18.1528 34.5188C16.4274 37.2337 15.5541 39.4587 15.5541 41.1939C15.5541 43.0106 16.2996 44.4804 17.7693 45.5419C19.2391 46.6033 21.2627 47.1341 23.84 47.1341C26.4813 47.1341 28.6114 46.6033 30.1876 45.5623C31.7426 44.5212 32.5307 43.1127 32.5307 41.3367C32.5307 40.214 32.1899 38.9688 31.5296 37.5807C30.8693 36.2335 28.654 32.4162 24.8199 26.129C24.7134 25.884 24.4365 25.7207 24.1382 25.7207Z" fill="#08A03F"/>
<path d="M25.181 24.6994C25.0745 24.9444 25.1384 25.2302 25.3088 25.4547C28.6743 29.3944 33.1261 36.437 37.1306 38.7845C38.643 39.6826 40.2192 39.7643 41.8594 39.0498C43.4782 38.3558 44.7989 37.3351 46.0982 35.2122C47.4402 33.028 48.0579 31.0275 47.994 29.2107C47.9301 27.4144 47.1419 26.0875 45.6509 25.2097C44.7137 24.6586 43.4995 24.332 42.0298 24.2095C40.5813 24.1074 33.1474 24.087 25.9052 24.2095C25.5857 24.2095 25.2875 24.4136 25.181 24.6994Z" fill="#08A03F"/>
<path d="M25.1612 22.4344C25.289 22.6385 25.5233 22.7814 25.7789 22.7814C33.0637 22.9039 40.5829 22.8835 42.0313 22.7814C43.5011 22.659 44.6939 22.3323 45.6524 21.7812C47.1435 20.9238 47.9316 19.5766 47.9955 17.7802C48.0594 15.9634 47.4417 13.963 46.0998 11.7788C44.8004 9.65579 43.4798 8.63514 41.8609 7.94109C40.2208 7.22663 38.6445 7.3287 37.1322 8.20646C33.085 10.5744 28.5906 17.719 25.2251 21.6383C25.0334 21.8628 25.0121 22.1895 25.1612 22.4344Z" fill="#08A03F"/>
<path d="M22.8175 24.6381C22.6897 24.3727 22.4341 24.2094 22.1359 24.2094C14.8723 24.0869 7.41712 24.1073 5.96867 24.2094C4.49893 24.3319 3.28479 24.6585 2.34756 25.2096C0.856515 26.067 0.0683907 27.4142 0.00448873 29.2106C-0.0594132 31.0274 0.558306 33.0278 1.90025 35.2121C3.19959 37.335 4.52023 38.3557 6.13908 39.0497C7.77923 39.7642 9.35548 39.6621 10.8678 38.7843C14.8936 36.4368 19.3668 29.3535 22.7323 25.4138C22.9027 25.1892 22.9453 24.9034 22.8175 24.6381Z" fill="#08A03F"/>
<path d="M22.7536 22.4344C22.6258 22.659 22.3702 22.7814 22.0933 22.8018C14.8511 22.9243 7.41712 22.9039 5.96868 22.8018C4.49893 22.6794 3.28479 22.3528 2.34756 21.8016C0.856515 20.9238 0.0896914 19.5766 0.00448873 17.7802C-0.0594133 15.9634 0.558306 13.963 1.90025 11.7788C3.19959 9.65579 4.52023 8.63514 6.13908 7.94109C7.77923 7.22663 9.35548 7.3287 10.8678 8.20646C14.8937 10.554 19.3455 17.5965 22.6897 21.5362C22.711 21.5566 22.711 21.5771 22.7323 21.5771C22.7323 21.5975 22.9453 22.0262 22.7536 22.4344Z" fill="#08A03F"/>
</svg>
