<svg preserveAspectRatio="none" width="100%" height="100%" overflow="visible" style="display: block;" viewBox="0 0 24.6281 24.1815" fill="none" xmlns="http://www.w3.org/2000/svg">
<g id="Group">
<g id="Group_2">
<path id="Vector" d="M12.4071 10.9655C12.2541 10.976 12.1011 10.8922 12.0246 10.7665L9.32522 6.47249C8.44 5.07954 7.99192 3.93796 7.99192 3.04773C7.99192 2.10513 8.37442 1.36153 9.1285 0.816916C9.88258 0.272306 10.9208 0 12.2432 0C13.5983 0 14.6912 0.272305 15.4999 0.806443C16.2977 1.34058 16.7021 2.06324 16.7021 2.97441C16.7021 3.55044 16.5272 4.18932 16.1884 4.9015C15.8496 5.59274 14.713 7.54077 12.7568 10.7561C12.6912 10.8817 12.5492 10.9551 12.4071 10.9655Z" fill="var(--fill-0, white)"/>
</g>
<g id="Group_3">
<path id="Vector_2" d="M12.3843 13.195C12.2422 13.195 12.1002 13.2684 12.0237 13.394L9.31336 17.709C8.42814 19.102 7.98007 20.2436 7.98007 21.1338C7.98007 22.0659 8.36257 22.82 9.11665 23.3646C9.87073 23.9092 10.9089 24.1815 12.2313 24.1815C13.5865 24.1815 14.6793 23.9092 15.4881 23.3751C16.2858 22.8409 16.6902 22.1183 16.6902 21.2071C16.6902 20.6311 16.5153 19.9922 16.1766 19.28C15.8378 18.5888 14.7012 16.6303 12.734 13.4045C12.6794 13.2788 12.5373 13.195 12.3843 13.195Z" fill="var(--fill-0, white)"/>
</g>
<g id="Group_4">
<path id="Vector_3" d="M12.921 12.6724C12.8663 12.7981 12.8991 12.9447 12.9865 13.0599C14.7133 15.0812 16.9973 18.6945 19.0519 19.8989C19.8279 20.3598 20.6366 20.4017 21.4781 20.0351C22.3087 19.679 22.9863 19.1553 23.6529 18.0661C24.3414 16.9455 24.6583 15.9191 24.6255 14.987C24.5928 14.0653 24.1884 13.3846 23.4234 12.9342C22.9425 12.6514 22.3196 12.4839 21.5655 12.421C20.8224 12.3687 17.0083 12.3582 13.2925 12.421C13.1286 12.421 12.9756 12.5258 12.921 12.6724Z" fill="var(--fill-0, white)"/>
</g>
<g id="Group_5">
<path id="Vector_4" d="M12.9086 11.51C12.9742 11.6148 13.0944 11.6881 13.2256 11.6881C16.9632 11.7509 20.821 11.7404 21.5641 11.6881C22.3182 11.6252 22.9302 11.4577 23.422 11.1749C24.187 10.735 24.5914 10.0438 24.6242 9.12212C24.6569 8.19 24.34 7.16362 23.6515 6.04297C22.9849 4.95375 22.3073 4.43009 21.4767 4.074C20.6352 3.70743 19.8265 3.7598 19.0505 4.21015C16.9741 5.42505 14.6682 9.0907 12.9414 11.1016C12.8431 11.2168 12.8321 11.3844 12.9086 11.51Z" fill="var(--fill-0, white)"/>
</g>
<g id="Group_6">
<path id="Vector_5" d="M11.7071 12.641C11.6416 12.5048 11.5104 12.421 11.3574 12.421C7.63075 12.3582 3.80572 12.3687 3.06257 12.421C2.3085 12.4839 1.68556 12.6514 1.2047 12.9342C0.439698 13.3741 0.0353382 14.0653 0.00255221 14.987C-0.0302337 15.9191 0.286697 16.9455 0.975202 18.0661C1.64185 19.1553 2.31943 19.679 3.15 20.0351C3.99151 20.4017 4.80023 20.3493 5.57616 19.8989C7.64168 18.6945 9.9367 15.0603 11.6634 13.0389C11.7509 12.9237 11.7727 12.7771 11.7071 12.641Z" fill="var(--fill-0, white)"/>
</g>
<path id="Vector_6" d="M11.6741 11.51C11.6086 11.6252 11.4774 11.6881 11.3353 11.6985C7.61959 11.7614 3.80549 11.7509 3.06234 11.6985C2.30826 11.6357 1.68533 11.4681 1.20447 11.1854C0.439465 10.735 0.0460331 10.0438 0.00231849 9.12211C-0.0304675 8.18999 0.286463 7.16361 0.974969 6.04297C1.64162 4.95374 2.31919 4.43008 3.14977 4.07399C3.99128 3.70742 4.8 3.75979 5.57593 4.21014C7.64145 5.41457 9.92554 9.02785 11.6413 11.0492C11.6523 11.0597 11.6523 11.0701 11.6632 11.0701C11.6632 11.0806 11.7725 11.3006 11.6741 11.51Z" fill="var(--fill-0, white)"/>
</g>
</svg>
