<svg preserveAspectRatio="none" width="100%" height="100%" overflow="visible" style="display: block;" viewBox="0 0 229.132 234.761" fill="none" xmlns="http://www.w3.org/2000/svg">
<g id="Union" style="mix-blend-mode:screen">
<path d="M115.264 128.189C116.649 128.19 117.935 128.925 118.63 130.124C136.892 161.436 147.492 180.435 150.62 187.148C153.811 193.995 155.405 200.193 155.405 205.835C155.405 214.726 151.662 221.775 144.202 226.93C136.655 232.143 126.211 234.761 113.903 234.761C101.594 234.761 91.9042 232.108 84.9303 226.831C77.8811 221.514 74.3415 214.279 74.3415 205.18C74.3416 196.59 78.4889 185.509 86.7311 171.938L111.922 130.071C112.628 128.901 113.891 128.184 115.258 128.184L115.264 128.189ZM28.4899 120.659C35.3885 120.097 71.0399 120.045 105.695 120.618C107.108 120.641 108.382 121.482 108.967 122.773C109.541 124.042 109.344 125.53 108.458 126.607C92.3899 146.191 71.0688 181.507 51.8327 193.213C44.5982 197.65 37.0743 198.102 29.2838 194.586C21.5801 191.134 15.26 186.042 9.06803 175.431C2.68506 164.512 -0.320509 154.538 0.0270095 145.52C0.374546 136.565 4.11611 129.921 11.2174 125.605C15.7122 122.866 21.4408 121.233 28.4899 120.659ZM123.686 120.625C158.266 120.057 193.784 120.109 200.666 120.665C207.697 121.238 213.426 122.872 217.921 125.611C225.016 129.921 228.758 136.565 229.105 145.52C229.453 154.538 226.441 164.512 220.07 175.431C213.89 186.042 207.575 191.128 199.866 194.586C192.075 198.102 184.557 197.651 177.299 193.214C158.121 181.548 136.875 146.417 120.825 126.799C119.968 125.756 119.736 124.332 120.211 123.069V123.075C120.755 121.621 122.134 120.648 123.686 120.625ZM177.299 40.9111C184.557 36.4743 192.075 36.0281 199.866 39.5381C207.575 42.9903 213.895 48.0819 220.07 58.6934C226.447 69.6117 229.453 79.586 229.105 88.6045C228.758 97.5536 225.01 104.203 217.921 108.513C213.42 111.252 207.697 112.891 200.666 113.459C193.744 114.021 157.849 114.073 123.084 113.494C121.862 113.477 120.738 112.817 120.124 111.763V111.769C119.388 110.506 119.516 108.919 120.442 107.795C136.539 88.2692 157.971 52.6695 177.299 40.9111ZM29.278 39.5381C37.0684 36.0282 44.5924 36.4744 51.8268 40.9111C71.005 52.5767 92.2569 87.7126 108.307 107.331C109.332 108.582 109.443 110.349 108.591 111.722V111.716C107.914 112.805 106.726 113.477 105.44 113.5C70.8661 114.068 35.3652 114.015 28.484 113.459C21.4349 112.891 15.7064 111.252 11.2116 108.513C4.11608 104.203 0.374545 97.5593 0.0270095 88.6045C-0.320461 79.586 2.6859 69.6117 9.06314 58.6934C15.255 48.0821 21.5743 42.996 29.278 39.5381ZM113.903 0C126.211 1.80938e-05 136.655 2.61819 144.202 7.83105C151.662 12.9862 155.405 20.0125 155.405 28.9326C155.405 34.5742 153.811 40.7718 150.62 47.6182C147.498 54.3198 136.927 73.2728 118.716 104.493C118.033 105.669 116.793 106.416 115.438 106.474L115.432 106.468C113.967 106.531 112.588 105.79 111.835 104.533L86.7311 62.8232C78.4887 49.2519 74.3415 38.1652 74.3415 29.5811C74.3415 20.4583 77.8812 13.247 84.9303 7.92969C91.9042 2.65305 101.595 0 113.903 0Z" fill="var(--fill-0, #08A541)" fill-opacity="0.24"/>
</g>
</svg>
