<svg preserveAspectRatio="none" width="100%" height="100%" overflow="visible" style="display: block;" viewBox="0 0 28 58" fill="none" xmlns="http://www.w3.org/2000/svg">
<g id="Isolation_Mode" clip-path="url(#clip0_3281_165)">
<path id="Vector" d="M2.41667 27.6954C2.16667 27.6954 1.95238 27.9125 1.95238 28.1659V32.4362C1.95238 32.6896 2.16667 32.9067 2.41667 32.9067C2.66667 32.9067 2.88095 32.6896 2.88095 32.4362V28.1659C2.88095 27.9125 2.66667 27.6954 2.41667 27.6954ZM2.41667 36.7669C2.16667 36.7669 1.95238 36.9841 1.95238 37.2374V48.5648C1.95238 48.8181 2.16667 49.0352 2.41667 49.0352C2.66667 49.0352 2.88095 48.8181 2.88095 48.5648V37.2133C2.88095 36.9599 2.66667 36.7669 2.41667 36.7669ZM22.131 13.9674V10.9758H22.9881C24.6905 10.9758 26.0595 9.58848 26.0595 7.86344V3.12259C26.0595 1.45787 24.7381 0.0826617 23.1071 0.0102823C23.0357 -0.0138441 22.9881 -0.0138441 22.9167 0.0102823H5C3.29762 0.0102823 1.92857 1.40962 1.92857 3.12259V7.86344C1.92857 9.58848 3.29762 10.9758 5 10.9758H5.85714V13.9674C2.44048 14.836 0 17.9724 0 21.5793V50.133C0 53.6434 2.27381 56.6351 5.44048 57.6243C5.44048 57.6243 5.45635 57.6323 5.4881 57.6484C6.21429 57.8655 6.97619 57.9982 7.7619 57.9982H20.2262C21.0119 57.9982 21.7619 57.8776 22.4762 57.6725H22.5C25.6667 56.6833 27.9881 53.6916 27.9881 50.1571V21.5793C27.9643 17.9966 25.5238 14.836 22.131 13.9674ZM21.881 0.963277C20.9286 1.60263 18.7857 2.47118 14.0952 2.49531C9.41667 2.47118 7.2619 1.60263 6.30952 0.963277H21.8929H21.881ZM5 10.059C3.80952 10.059 2.85714 9.09389 2.85714 7.88757V3.14672C2.85714 1.96453 3.78571 0.999467 4.95238 0.97534C5.48809 1.68707 7.41667 3.37592 14.119 3.4483C20.7738 3.40005 22.7262 1.72326 23.2619 0.999467C24.3333 1.1201 25.1667 2.0369 25.1667 3.17085V7.9117C25.1667 9.11802 24.2143 10.0831 23.0238 10.0831H5V10.059ZM20.2262 57.0573H7.7619C7.44048 57.0573 7.10714 57.0332 6.78571 56.9849C7.95238 56.4179 10.0833 55.8268 13.9762 55.7786C17.881 55.8027 20.0238 56.4179 21.1786 56.9849C20.881 57.0332 20.5476 57.0573 20.2262 57.0573ZM27.0476 50.1571C27.0476 53.1729 25.119 55.7424 22.4643 56.6833C21.3214 55.8389 18.9524 54.9221 13.9762 54.8738C9.02381 54.9221 6.65476 55.8389 5.5119 56.6833C2.83333 55.7424 0.928571 53.1729 0.928571 50.1571V26.0307H3.92857V51.7615C3.92857 52.0149 4.14286 52.232 4.39286 52.232H23.5952C23.8452 52.232 24.0595 52.0149 24.0595 51.7615V26.0307H27.0595V50.1571H27.0357H27.0476ZM4.83333 51.3031V21.8568H23.131V51.3031H4.83333ZM27.0476 25.1139H24.0476V21.3863C24.0476 21.133 23.8333 20.9159 23.5833 20.9159H4.39286C4.14286 20.9159 3.92857 21.133 3.92857 21.3863V25.1139H0.928571V21.6035C0.928571 18.3102 3.22619 15.4512 6.41667 14.8239C6.63095 14.7757 6.78571 14.5827 6.78571 14.3776V11.0361H21.2262V14.3776C21.2262 14.5947 21.3929 14.7998 21.5952 14.8239C24.7619 15.4633 27.0595 18.3102 27.0595 21.6035V25.1139H27.0357H27.0476ZM20.25 34.6317H15.9048V30.2287C15.9048 29.9753 15.6905 29.7582 15.4405 29.7582H12.5357C12.2857 29.7582 12.0714 29.9753 12.0714 30.2287V34.6317H7.72619C7.47619 34.6317 7.2619 34.8489 7.2619 35.1022V38.0698C7.2619 38.3231 7.47619 38.5402 7.72619 38.5402H12.0714V42.9192C12.0714 43.1725 12.2857 43.3896 12.5357 43.3896H15.4643C15.7143 43.3896 15.9286 43.1725 15.9286 42.9192V38.5161H20.2738C20.5238 38.5161 20.7381 38.299 20.7381 38.0456V35.0781C20.7143 34.8368 20.5 34.6317 20.25 34.6317ZM19.8095 37.5993H15.4643C15.2143 37.5993 15 37.8164 15 38.0698V42.4487H13V38.0456C13 37.7923 12.7857 37.5752 12.5357 37.5752H8.19048V35.5485H12.5357C12.7857 35.5485 13 35.3314 13 35.0781V30.675H15V35.0781C15 35.3314 15.2143 35.5485 15.4643 35.5485H19.8095V37.5993ZM25.5476 52.3044C25.7976 52.3044 26.0119 52.0872 26.0119 51.8339V42.6659C26.0119 42.4125 25.7976 42.1954 25.5476 42.1954C25.2976 42.1954 25.0833 42.4125 25.0833 42.6659V51.8339C25.0833 52.0872 25.2976 52.3044 25.5476 52.3044Z" fill="var(--fill-0, #034A1D)"/>
</g>
<defs>
<clipPath id="clip0_3281_165">
<rect width="28" height="58" fill="white"/>
</clipPath>
</defs>
</svg>
