<svg preserveAspectRatio="none" width="100%" height="100%" overflow="visible" style="display: block;" viewBox="0 0 44.0156 54.9638" fill="none" xmlns="http://www.w3.org/2000/svg">
<path id="Vector" d="M43.9687 21.0966C43.9687 22.6707 43.2969 24.1824 42.1562 25.2578C40.9844 26.3488 40.4531 27.9852 40.7656 29.5593C41.0781 31.1178 40.7187 32.7387 39.7969 34.0011C38.875 35.2791 37.4375 36.1051 35.875 36.2921C35.8437 36.2921 35.8281 36.2921 35.8125 36.2921V50.4278C35.8125 51.1136 35.4375 51.737 34.8281 52.0643C34.5469 52.2045 34.25 52.2825 33.9531 52.2825C33.5937 52.2825 33.2344 52.1734 32.9219 51.9708L29.9375 49.9915C29.7031 49.8356 29.625 49.5083 29.7969 49.2745C29.9687 49.0408 30.2812 48.9628 30.5156 49.1343L33.5 51.1136C33.75 51.285 34.0625 51.3006 34.3281 51.1448C34.5937 51.0045 34.75 50.7395 34.75 50.4434V36.5726C33.625 36.9934 32.6875 37.8506 32.1875 38.9572C31.5313 40.391 30.2969 41.482 28.7813 41.9807C28.0156 42.2301 27.2188 42.308 26.4375 42.2301C26.0156 42.1833 25.5781 42.0898 25.1719 41.9495V53.0929C25.1562 53.7786 24.7812 54.4021 24.1719 54.7293C23.8906 54.8696 23.5937 54.9475 23.2969 54.9475C22.9375 54.9475 22.5781 54.8384 22.2656 54.6358L18.8906 52.3916L16.6562 50.911L11.0469 54.6514C10.4844 55.0255 9.75 55.0722 9.15625 54.7449C8.5625 54.4176 8.1875 53.7942 8.1875 53.1085V36.3233C8.1875 36.3233 8.15625 36.3233 8.125 36.3233C6.54687 36.1363 5.10938 35.2947 4.1875 34.0323C3.26563 32.7543 2.90625 31.149 3.21875 29.6061C3.53125 28.032 3 26.38 1.82813 25.3046C0.65625 24.2292 0 22.7174 0 21.1433C0 19.5692 0.671875 18.0575 1.82813 16.9821C3.01563 15.8911 3.54687 14.2391 3.23437 12.6806C2.92187 11.1221 3.28125 9.50123 4.20313 8.23884C5.125 6.96085 6.5625 6.13484 8.125 5.94782C9.71875 5.7608 11.125 4.74776 11.7969 3.29834C12.4531 1.86451 13.6875 0.773548 15.2031 0.274824C16.7031 -0.208316 18.3594 -0.0524647 19.7344 0.726793C19.8906 0.820304 20.0625 0.89823 20.2344 0.96057C21.5312 1.49047 23.0469 1.42812 24.2812 0.726793C25.6562 -0.0524647 27.3125 -0.208316 28.8125 0.274824C30.3125 0.757963 31.5469 1.86451 32.2187 3.29834C32.8906 4.74776 34.2969 5.77638 35.875 5.94782C37.4531 6.13484 38.8906 6.97644 39.8125 8.23884C40.7344 9.51682 41.0938 11.1221 40.7813 12.665C40.4688 14.2391 41 15.8911 42.1719 16.9665C43.3437 18.0419 44.0156 19.5537 44.0156 21.1278L43.9687 21.0966ZM24.0937 53.0773V41.4508C22.7187 40.7339 21.0469 40.7495 19.6875 41.5131C18.8281 41.9963 17.875 42.2301 16.9062 42.2301C16.3125 42.2301 15.7344 42.1365 15.1562 41.9495C13.6562 41.4664 12.4219 40.3598 11.75 38.926C11.2344 37.8195 10.2969 36.9779 9.1875 36.5415V53.0617C9.1875 53.3734 9.34375 53.6228 9.60938 53.7631C9.875 53.9033 10.1875 53.8877 10.4375 53.7319L16.3437 49.8044C16.5156 49.6953 16.75 49.6953 16.9219 49.8044L22.8281 53.7319C23.0781 53.9033 23.3906 53.9189 23.6562 53.7631C23.9219 53.6228 24.0781 53.3579 24.0781 53.0617L24.0937 53.0773ZM41.7969 24.8682L41.4375 24.4786C42.3906 23.5902 42.9219 22.3902 42.9219 21.081C42.9219 19.7718 42.3906 18.5718 41.4375 17.6834C39.9844 16.3431 39.3281 14.3326 39.7188 12.4157C39.9688 11.1221 39.6875 9.84411 38.9219 8.78432C38.1562 7.72453 37.0156 7.06995 35.7187 6.9141C33.7656 6.68032 32.0312 5.43351 31.2187 3.6568C30.6719 2.47233 29.6875 1.59956 28.4375 1.19435C27.1875 0.789134 25.875 0.913815 24.7344 1.55281C23.0156 2.5035 20.8906 2.51909 19.1719 1.55281C18.4687 1.16318 17.6875 0.96057 16.9062 0.96057C16.4219 0.96057 15.9375 1.0385 15.4687 1.19435C14.2187 1.59956 13.2344 2.47233 12.6875 3.6568C11.875 5.43351 10.1406 6.68032 8.1875 6.9141C6.875 7.06995 5.73438 7.72453 4.98438 8.78432C4.21875 9.84411 3.9375 11.1221 4.1875 12.4001C4.57813 14.3326 3.90625 16.3431 2.48438 17.6679C1.51563 18.5562 0.984375 19.7718 0.984375 21.0654C0.984375 22.359 1.51563 23.5746 2.46875 24.463C3.92188 25.8033 4.57813 27.8138 4.1875 29.7308C3.9375 31.0243 4.21875 32.3023 4.98438 33.3621C5.75 34.4219 6.89063 35.0765 8.1875 35.2323C10.1406 35.4661 11.875 36.7129 12.6875 38.4896C13.2344 39.6741 14.2187 40.5469 15.4687 40.9521C16.7187 41.3573 18.0312 41.2326 19.1719 40.5936C20.8906 39.6429 23.0156 39.6429 24.7344 40.5936C25.875 41.2326 27.1875 41.3573 28.4375 40.9521C29.6875 40.5469 30.6719 39.6741 31.2187 38.4896C32.0312 36.7129 33.7656 35.4661 35.7187 35.2323C37.0312 35.0765 38.1719 34.4219 38.9219 33.3621C39.6875 32.3023 39.9688 31.0243 39.7188 29.7463C39.3281 27.8138 40 25.8033 41.4219 24.4786L41.7812 24.8526L41.7969 24.8682ZM33.1094 21.0966C33.1094 27.2371 28.1094 32.2244 21.9531 32.2244C15.7969 32.2244 10.7969 27.2371 10.7969 21.0966C10.7969 14.956 15.7969 9.96879 21.9531 9.96879C28.1094 9.96879 33.1094 14.956 33.1094 21.0966ZM32.0625 21.0966C32.0625 15.5327 27.5312 11.013 21.9531 11.013C16.375 11.013 11.8437 15.5327 11.8437 21.0966C11.8437 26.6605 16.375 31.1802 21.9531 31.1802C27.5312 31.1802 32.0625 26.6605 32.0625 21.0966Z" fill="var(--fill-0, white)"/>
</svg>
