<svg preserveAspectRatio="none" width="100%" height="100%" overflow="visible" style="display: block;" viewBox="0 0 32 22.2411" fill="none" xmlns="http://www.w3.org/2000/svg">
<path id="Vector" d="M30.0426 0.964539C31.3475 1.84397 32 4.85106 32 9.90071V12.1702C32 15.7447 31.6879 18.3546 31.0355 19.9716C30.4397 21.4752 28.4255 22.2411 25.0213 22.2411H10.383C6.15603 22.2411 3.43262 21.9858 2.2695 21.4468C0.765957 20.6241 0 17.1631 0 11.0355V10.8652C0.170213 5.44681 0.595745 2.52482 1.2766 2.09929C1.2766 0.680851 5.8156 0 14.922 0C24.0284 0 29.078 0.312057 30.0426 0.964539ZM12.8227 15.2624H13.3333L20.9362 11.0355C20.7376 10.7801 18.0993 9.30496 12.9645 6.66667H12.7943V15.2624H12.8227Z" fill="var(--fill-0, white)"/>
</svg>
