<svg preserveAspectRatio="none" width="100%" height="100%" overflow="visible" style="display: block;" viewBox="0 0 434.847 203.746" fill="none" xmlns="http://www.w3.org/2000/svg">
<g id="Group 228">
<path id="Vector" d="M216.165 0.4375C239.473 0.437564 259.2 5.11213 273.428 14.375C287.471 23.5214 294.488 35.9554 294.488 51.752C294.488 61.7562 291.491 72.7756 285.454 84.9824H285.453C279.909 96.199 261.943 126.678 231.238 176.465L224.927 186.68C223.74 188.604 221.602 189.852 219.237 190.003L219.232 189.998L219.049 190.006C216.415 190.114 213.95 188.857 212.609 186.747L164.968 112.139L164.967 112.137L163.524 109.876C148.855 86.6493 141.524 67.6615 141.523 52.9131C141.523 36.7382 148.17 23.9712 161.434 14.541L161.435 14.54C174.569 5.17289 192.859 0.4375 216.165 0.4375Z" fill="var(--fill-0, #08A03F)" stroke="var(--stroke-0, #08A03F)" stroke-width="0.875276"/>
<path id="Vector_2" d="M336.697 73.5586C350.35 65.6919 364.474 64.9001 379.135 71.126L379.136 71.127C393.681 77.266 405.604 86.3118 417.275 105.217V105.218C429.35 124.703 435.013 142.458 434.358 158.473C433.715 174.087 426.89 185.722 413.972 193.36L413.352 193.721C405.148 198.428 394.764 201.316 382.029 202.412L380.789 202.513C367.677 203.516 299.582 203.609 233.597 202.573H233.596C231.419 202.544 229.428 201.435 228.345 199.683L228.218 199.478C227.067 197.421 227.328 194.907 228.906 193.104C244.182 175.638 262.024 150.942 280.567 128.062C298.852 105.503 317.833 84.69 335.84 74.0576L336.697 73.5586Z" fill="var(--fill-0, #08A03F)" stroke="var(--stroke-0, #08A03F)" stroke-width="0.875276"/>
<path id="Vector_3" d="M55.7344 71.126C70.3951 64.9001 84.5297 65.6916 98.1377 73.5576L98.1396 73.5586C116.258 83.9466 135.394 104.814 153.837 127.524C172.247 150.195 189.984 174.727 205.214 192.273L205.215 192.274C206.973 194.297 207.211 197.119 205.858 199.375L205.718 199.589C204.591 201.296 202.661 202.4 200.525 202.563L200.096 202.584C134.473 203.599 67.1256 203.505 54.0908 202.513C40.7557 201.501 29.9529 198.579 21.4961 193.721H21.4951C8.16479 186.09 1.14197 174.345 0.488281 158.473C-0.166479 142.458 5.49634 124.703 17.5713 105.218V105.217C29.2752 86.3117 41.1985 77.2765 55.7334 71.127L55.7344 71.126Z" fill="var(--fill-0, #08A03F)" stroke="var(--stroke-0, #08A03F)" stroke-width="0.875276"/>
</g>
</svg>
