<svg preserveAspectRatio="none" width="100%" height="100%" overflow="visible" style="display: block;" viewBox="0 0 20.2491 20.2919" fill="none" xmlns="http://www.w3.org/2000/svg">
<g id="Group" opacity="0.5">
<path id="Vector" d="M19.7577 17.2823C18.9563 18.5254 18.253 19.8011 14.9001 19.8829C11.4817 19.8829 7.93254 17.0533 5.34833 14.2238C2.78048 11.705 0.408894 8.46657 0.408894 5.32627C0.490672 1.97334 1.76642 1.2864 3.00946 0.484964C3.00946 0.484964 3.68004 0.206917 4.28521 0.713945C4.87401 1.22097 7.45822 3.82154 7.45822 3.82154C7.45822 3.82154 8.37414 4.59026 7.75262 5.44076C7.2456 6.11134 6.08434 7.35438 5.92078 7.51794L6.36239 8.35208C6.95119 9.31707 8.06338 11.0017 9.73167 12.3756C10.8602 13.3079 12.7575 14.3219 12.7575 14.3219C13.0355 14.0602 14.1641 13.0135 14.802 12.5391C15.6524 11.9013 16.4212 12.8172 16.4212 12.8172C16.4212 12.8172 19.0054 15.4014 19.5288 16.0066C20.0521 16.5954 19.7577 17.2823 19.7577 17.2823Z" stroke="var(--stroke-0, white)" stroke-width="0.817787" stroke-miterlimit="10" stroke-linecap="round" stroke-linejoin="round"/>
</g>
</svg>
