<svg preserveAspectRatio="none" width="100%" height="100%" overflow="visible" style="display: block;" viewBox="0 0 24.6277 24.1815" fill="none" xmlns="http://www.w3.org/2000/svg">
<g id="Group">
<g id="Group_2">
<path id="Vector" d="M12.4071 10.9655C12.2541 10.976 12.1011 10.8922 12.0246 10.7665L9.32518 6.47249C8.43996 5.07954 7.99189 3.93796 7.99189 3.04773C7.99189 2.10513 8.37439 1.36153 9.12847 0.816916C9.88254 0.272306 10.9208 0 12.2431 0C13.5983 0 14.6912 0.272305 15.4999 0.806443C16.2977 1.34058 16.702 2.06324 16.702 2.97441C16.702 3.55044 16.5272 4.18932 16.1884 4.9015C15.8496 5.59274 14.713 7.54077 12.7568 10.7561C12.6912 10.8817 12.5491 10.9551 12.4071 10.9655Z" fill="var(--fill-0, white)"/>
</g>
<g id="Group_3">
<path id="Vector_2" d="M12.3841 13.195C12.2421 13.195 12.1 13.2684 12.0235 13.394L9.31318 17.709C8.42796 19.102 7.97989 20.2436 7.97989 21.1338C7.97989 22.0659 8.36239 22.82 9.11647 23.3646C9.87054 23.9092 10.9088 24.1815 12.2311 24.1815C13.5863 24.1815 14.6791 23.9092 15.4879 23.3751C16.2857 22.8409 16.69 22.1183 16.69 21.2071C16.69 20.6311 16.5152 19.9922 16.1764 19.28C15.8376 18.5888 14.701 16.6303 12.7338 13.4045C12.6792 13.2788 12.5371 13.195 12.3841 13.195Z" fill="var(--fill-0, white)"/>
</g>
<g id="Group_4">
<path id="Vector_3" d="M12.9208 12.6724C12.8661 12.7981 12.8989 12.9447 12.9863 13.0599C14.7131 15.0812 16.9972 18.6945 19.0518 19.8989C19.8277 20.3598 20.6364 20.4017 21.4779 20.0351C22.3085 19.679 22.9861 19.1553 23.6527 18.0661C24.3412 16.9455 24.6582 15.9191 24.6254 14.987C24.5926 14.0653 24.1882 13.3846 23.4232 12.9342C22.9424 12.6514 22.3194 12.4839 21.5653 12.421C20.8222 12.3687 17.0081 12.3582 13.2924 12.421C13.1284 12.421 12.9754 12.5258 12.9208 12.6724Z" fill="var(--fill-0, white)"/>
</g>
<g id="Group_5">
<path id="Vector_4" d="M12.9096 11.51C12.9752 11.6148 13.0954 11.6881 13.2265 11.6881C16.9641 11.7509 20.8219 11.7404 21.5651 11.6881C22.3192 11.6252 22.9312 11.4577 23.4229 11.1749C24.1879 10.735 24.5923 10.0438 24.6251 9.12212C24.6579 8.19 24.3409 7.16362 23.6524 6.04297C22.9858 4.95375 22.3082 4.43009 21.4776 4.074C20.6361 3.70743 19.8274 3.7598 19.0515 4.21015C16.975 5.42505 14.6691 9.0907 12.9424 11.1016C12.844 11.2168 12.8331 11.3844 12.9096 11.51Z" fill="var(--fill-0, white)"/>
</g>
<g id="Group_6">
<path id="Vector_5" d="M11.707 12.641C11.6414 12.5048 11.5102 12.421 11.3572 12.421C7.63057 12.3582 3.80554 12.3687 3.06239 12.421C2.30832 12.4839 1.68538 12.6514 1.20452 12.9342C0.439516 13.3741 0.0351559 14.0653 0.00236995 14.987C-0.030416 15.9191 0.286515 16.9455 0.97502 18.0661C1.64167 19.1553 2.31924 19.679 3.14982 20.0351C3.99133 20.4017 4.80005 20.3493 5.57598 19.8989C7.6415 18.6945 9.93651 15.0603 11.6632 13.0389C11.7507 12.9237 11.7725 12.7771 11.707 12.641Z" fill="var(--fill-0, white)"/>
</g>
<path id="Vector_6" d="M11.6741 11.51C11.6085 11.6252 11.4774 11.6881 11.3353 11.6985C7.61958 11.7614 3.80548 11.7509 3.06233 11.6985C2.30825 11.6357 1.68532 11.4681 1.20446 11.1854C0.439449 10.735 0.0460176 10.0438 0.00230302 9.12211C-0.030483 8.18999 0.286448 7.16361 0.974953 6.04297C1.6416 4.95374 2.31918 4.43008 3.14976 4.07399C3.99126 3.70742 4.79998 3.75979 5.57592 4.21014C7.64143 5.41457 9.92552 9.02785 11.6413 11.0492C11.6522 11.0597 11.6522 11.0701 11.6632 11.0701C11.6632 11.0806 11.7725 11.3006 11.6741 11.51Z" fill="var(--fill-0, white)"/>
</g>
</svg>
