<svg preserveAspectRatio="none" width="100%" height="100%" overflow="visible" style="display: block;" viewBox="0 0 19.1766 18.8288" fill="none" xmlns="http://www.w3.org/2000/svg">
<g id="Group" opacity="0.2">
<g id="Group_2">
<path id="Vector" d="M9.66044 8.53808C9.54131 8.54624 9.42218 8.481 9.36261 8.38314L7.2608 5.03967C6.57154 3.95508 6.22266 3.06621 6.22266 2.37305C6.22266 1.63912 6.52048 1.06012 7.10763 0.636075C7.69478 0.212025 8.50317 0 9.5328 0C10.588 0 11.4389 0.212025 12.0686 0.62792C12.6898 1.04382 13.0046 1.6065 13.0046 2.31596C13.0046 2.76448 12.8685 3.26192 12.6047 3.81645C12.3409 4.35467 11.4559 5.87146 9.93274 8.37498C9.88168 8.47284 9.77106 8.52993 9.66044 8.53808Z" fill="var(--fill-0, white)"/>
</g>
<g id="Group_3">
<path id="Vector_2" d="M9.64412 10.2744C9.5335 10.2744 9.42287 10.3315 9.36331 10.4294L7.25299 13.7891C6.56373 14.8737 6.21484 15.7626 6.21484 16.4558C6.21484 17.1815 6.51267 17.7687 7.09982 18.1927C7.68696 18.6168 8.49535 18.8288 9.52499 18.8288C10.5801 18.8288 11.4311 18.6168 12.0608 18.2009C12.682 17.785 12.9968 17.2223 12.9968 16.5128C12.9968 16.0643 12.8607 15.5669 12.5969 15.0124C12.3331 14.4741 11.4481 12.9492 9.91642 10.4375C9.87387 10.3397 9.76325 10.2744 9.64412 10.2744Z" fill="var(--fill-0, white)"/>
</g>
<g id="Group_4">
<path id="Vector_3" d="M10.0599 9.86736C10.0174 9.96522 10.0429 10.0794 10.111 10.1691C11.4555 11.743 13.2339 14.5564 14.8337 15.4942C15.4379 15.853 16.0676 15.8856 16.7228 15.6002C17.3695 15.3229 17.8971 14.9152 18.4161 14.0671C18.9522 13.1945 19.199 12.3953 19.1735 11.6696C19.1479 10.9519 18.8331 10.4219 18.2374 10.0712C17.863 9.85105 17.378 9.72057 16.7909 9.67164C16.2122 9.63087 13.2424 9.62271 10.3493 9.67164C10.2216 9.67164 10.1025 9.75319 10.0599 9.86736Z" fill="var(--fill-0, white)"/>
</g>
<g id="Group_5">
<path id="Vector_4" d="M10.0528 8.962C10.1038 9.04355 10.1974 9.10064 10.2995 9.10064C13.2097 9.14956 16.2135 9.14141 16.7922 9.10064C17.3793 9.05171 17.8559 8.92123 18.2388 8.70105C18.8344 8.35855 19.1493 7.82033 19.1748 7.10271C19.2003 6.37693 18.9536 5.57776 18.4175 4.7052C17.8984 3.8571 17.3708 3.44936 16.7241 3.17209C16.0689 2.88667 15.4392 2.92745 14.835 3.27811C13.2182 4.22406 11.4228 7.07824 10.0783 8.64397C10.0017 8.73367 9.9932 8.86415 10.0528 8.962Z" fill="var(--fill-0, white)"/>
</g>
<g id="Group_6">
<path id="Vector_5" d="M9.11532 9.84289C9.06426 9.73688 8.96215 9.67164 8.84302 9.67164C5.94133 9.62271 2.96305 9.63087 2.38441 9.67164C1.79727 9.72057 1.31224 9.85105 0.937823 10.0712C0.342168 10.4137 0.0273213 10.9519 0.0017932 11.6696C-0.0237349 12.3953 0.223037 13.1945 0.759126 14.0671C1.2782 14.9152 1.80578 15.3229 2.45249 15.6002C3.10771 15.8856 3.7374 15.8448 4.34157 15.4942C5.94984 14.5564 7.7368 11.7267 9.08128 10.1528C9.14936 10.0631 9.16638 9.94891 9.11532 9.84289Z" fill="var(--fill-0, white)"/>
</g>
<path id="Vector_6" d="M9.0898 8.96201C9.03874 9.05171 8.93663 9.10064 8.826 9.10879C5.93282 9.15772 2.96305 9.14957 2.38442 9.10879C1.79727 9.05986 1.31224 8.92939 0.937823 8.70921C0.342168 8.35855 0.0358307 7.82033 0.0017932 7.10271C-0.0237349 6.37693 0.223037 5.57776 0.759127 4.7052C1.2782 3.8571 1.80578 3.44936 2.45249 3.17209C3.10771 2.88667 3.7374 2.92745 4.34157 3.27811C5.94984 4.21591 7.7283 7.02932 9.06427 8.60319C9.07278 8.61135 9.07278 8.6195 9.08129 8.6195C9.08129 8.62766 9.16638 8.79891 9.0898 8.96201Z" fill="var(--fill-0, white)"/>
</g>
</svg>
