<svg preserveAspectRatio="none" width="100%" height="100%" overflow="visible" style="display: block;" viewBox="0 0 1920.5 24.1828" fill="none" xmlns="http://www.w3.org/2000/svg">
<g id="Frame 271">
<g id="Group">
<g id="Group_2">
<path id="Vector" d="M423.656 10.9655C423.503 10.976 423.35 10.8922 423.274 10.7665L420.575 6.47249C419.689 5.07954 419.241 3.93796 419.241 3.04773C419.241 2.10513 419.624 1.36153 420.378 0.816916C421.132 0.272306 422.17 0 423.492 0C424.848 0 425.94 0.272305 426.749 0.806443C427.547 1.34058 427.951 2.06324 427.951 2.97441C427.951 3.55044 427.776 4.18932 427.438 4.9015C427.099 5.59274 425.962 7.54077 424.006 10.7561C423.941 10.8817 423.798 10.9551 423.656 10.9655Z" fill="var(--fill-0, #034A1D)"/>
</g>
<g id="Group_3">
<path id="Vector_2" d="M423.635 13.1953C423.493 13.1953 423.351 13.2686 423.274 13.3943L420.564 17.7093C419.679 19.1022 419.23 20.2438 419.23 21.1341C419.23 22.0662 419.613 22.8203 420.367 23.3649C421.121 23.9095 422.159 24.1818 423.482 24.1818C424.837 24.1818 425.93 23.9095 426.738 23.3754C427.536 22.8412 427.941 22.1186 427.941 21.2074C427.941 20.6313 427.766 19.9925 427.427 19.2803C427.088 18.5891 425.952 16.6306 423.984 13.4048C423.93 13.2791 423.788 13.1953 423.635 13.1953Z" fill="var(--fill-0, #034A1D)"/>
</g>
<g id="Group_4">
<path id="Vector_3" d="M424.171 12.6736C424.117 12.7993 424.149 12.9459 424.237 13.0611C425.963 15.0825 428.248 18.6958 430.302 19.9002C431.078 20.361 431.887 20.4029 432.728 20.0364C433.559 19.6803 434.236 19.1566 434.903 18.0674C435.592 16.9467 435.909 15.9203 435.876 14.9882C435.843 14.0666 435.439 13.3858 434.674 12.9355C434.193 12.6527 433.57 12.4851 432.816 12.4223C432.073 12.3699 428.258 12.3594 424.543 12.4223C424.379 12.4223 424.226 12.527 424.171 12.6736Z" fill="var(--fill-0, #034A1D)"/>
</g>
<g id="Group_5">
<path id="Vector_4" d="M424.16 11.5104C424.225 11.6151 424.345 11.6885 424.477 11.6885C428.214 11.7513 432.072 11.7408 432.815 11.6885C433.569 11.6256 434.181 11.458 434.673 11.1753C435.438 10.7354 435.842 10.0441 435.875 9.1225C435.908 8.19038 435.591 7.16399 434.902 6.04335C434.236 4.95413 433.558 4.43046 432.728 4.07437C431.886 3.70781 431.077 3.76017 430.301 4.21053C428.225 5.42543 425.919 9.09108 424.192 11.1019C424.094 11.2172 424.083 11.3847 424.16 11.5104Z" fill="var(--fill-0, #034A1D)"/>
</g>
<g id="Group_6">
<path id="Vector_5" d="M422.957 12.6422C422.892 12.5061 422.761 12.4223 422.608 12.4223C418.881 12.3594 415.056 12.3699 414.313 12.4223C413.559 12.4851 412.936 12.6527 412.455 12.9355C411.69 13.3753 411.286 14.0666 411.253 14.9882C411.22 15.9203 411.537 16.9467 412.225 18.0674C412.892 19.1566 413.57 19.6803 414.4 20.0364C415.242 20.4029 416.05 20.3505 416.826 19.9002C418.892 18.6958 421.187 15.0615 422.914 13.0402C423.001 12.925 423.023 12.7784 422.957 12.6422Z" fill="var(--fill-0, #034A1D)"/>
</g>
<path id="Vector_6" d="M422.924 11.5104C422.859 11.6256 422.727 11.6885 422.585 11.6989C418.87 11.7618 415.056 11.7513 414.312 11.6989C413.558 11.6361 412.935 11.4685 412.454 11.1857C411.689 10.7354 411.296 10.0442 411.252 9.12251C411.22 8.19039 411.536 7.164 412.225 6.04336C412.892 4.95414 413.569 4.43047 414.4 4.07438C415.241 3.70782 416.05 3.76018 416.826 4.21054C418.891 5.41496 421.176 9.02825 422.891 11.0496C422.902 11.0601 422.902 11.0705 422.913 11.0705C422.913 11.081 423.022 11.301 422.924 11.5104Z" fill="var(--fill-0, #034A1D)"/>
</g>
<g id="Group_7">
<g id="Group_8">
<path id="Vector_7" d="M960.656 10.9655C960.503 10.976 960.35 10.8922 960.274 10.7665L957.575 6.47249C956.689 5.07954 956.241 3.93796 956.241 3.04773C956.241 2.10513 956.624 1.36153 957.378 0.816916C958.132 0.272306 959.17 0 960.492 0C961.848 0 962.94 0.272305 963.749 0.806443C964.547 1.34058 964.951 2.06324 964.951 2.97441C964.951 3.55044 964.776 4.18932 964.438 4.9015C964.099 5.59274 962.962 7.54077 961.006 10.7561C960.941 10.8817 960.798 10.9551 960.656 10.9655Z" fill="var(--fill-0, #034A1D)"/>
</g>
<g id="Group_9">
<path id="Vector_8" d="M960.635 13.1953C960.493 13.1953 960.351 13.2686 960.274 13.3943L957.564 17.7093C956.679 19.1022 956.23 20.2438 956.23 21.1341C956.23 22.0662 956.613 22.8203 957.367 23.3649C958.121 23.9095 959.159 24.1818 960.482 24.1818C961.837 24.1818 962.93 23.9095 963.738 23.3754C964.536 22.8412 964.941 22.1186 964.941 21.2074C964.941 20.6313 964.766 19.9925 964.427 19.2803C964.088 18.5891 962.952 16.6306 960.984 13.4048C960.93 13.2791 960.788 13.1953 960.635 13.1953Z" fill="var(--fill-0, #034A1D)"/>
</g>
<g id="Group_10">
<path id="Vector_9" d="M961.171 12.6736C961.117 12.7992 961.149 12.9459 961.237 13.0611C962.964 15.0824 965.248 18.6957 967.302 19.9001C968.078 20.3609 968.887 20.4028 969.728 20.0363C970.559 19.6802 971.237 19.1565 971.903 18.0673C972.592 16.9467 972.909 15.9203 972.876 14.9882C972.843 14.0665 972.439 13.3857 971.674 12.9354C971.193 12.6526 970.57 12.485 969.816 12.4222C969.073 12.3698 965.259 12.3594 961.543 12.4222C961.379 12.4222 961.226 12.5269 961.171 12.6736Z" fill="var(--fill-0, #034A1D)"/>
</g>
<g id="Group_11">
<path id="Vector_10" d="M961.159 11.5104C961.224 11.6151 961.344 11.6885 961.476 11.6885C965.213 11.7513 969.071 11.7408 969.814 11.6885C970.568 11.6256 971.18 11.458 971.672 11.1753C972.437 10.7354 972.841 10.0441 972.874 9.1225C972.907 8.19038 972.59 7.16399 971.901 6.04335C971.235 4.95413 970.557 4.43046 969.727 4.07437C968.885 3.70781 968.076 3.76017 967.301 4.21053C965.224 5.42543 962.918 9.09108 961.191 11.1019C961.093 11.2172 961.082 11.3847 961.159 11.5104Z" fill="var(--fill-0, #034A1D)"/>
</g>
<g id="Group_12">
<path id="Vector_11" d="M959.957 12.6422C959.891 12.5061 959.76 12.4223 959.607 12.4223C955.881 12.3594 952.056 12.3699 951.312 12.4223C950.558 12.4851 949.935 12.6527 949.455 12.9355C948.69 13.3753 948.285 14.0666 948.252 14.9882C948.22 15.9203 948.537 16.9467 949.225 18.0674C949.892 19.1566 950.569 19.6803 951.4 20.0364C952.241 20.4029 953.05 20.3505 953.826 19.9002C955.891 18.6958 958.187 15.0615 959.913 13.0402C960.001 12.925 960.023 12.7784 959.957 12.6422Z" fill="var(--fill-0, #034A1D)"/>
</g>
<path id="Vector_12" d="M959.924 11.5104C959.859 11.6256 959.727 11.6885 959.585 11.6989C955.87 11.7618 952.055 11.7513 951.312 11.6989C950.558 11.6361 949.935 11.4685 949.454 11.1857C948.689 10.7354 948.296 10.0442 948.252 9.12251C948.22 8.19039 948.536 7.164 949.225 6.04336C949.892 4.95414 950.569 4.43047 951.4 4.07438C952.241 3.70782 953.05 3.76018 953.826 4.21054C955.891 5.41496 958.176 9.02825 959.891 11.0496C959.902 11.0601 959.902 11.0705 959.913 11.0705C959.913 11.081 960.022 11.301 959.924 11.5104Z" fill="var(--fill-0, #034A1D)"/>
</g>
<g id="Group_13">
<g id="Group_14">
<path id="Vector_13" d="M1497.66 10.9655C1497.5 10.976 1497.35 10.8922 1497.27 10.7665L1494.57 6.47249C1493.69 5.07954 1493.24 3.93796 1493.24 3.04773C1493.24 2.10513 1493.62 1.36153 1494.38 0.816916C1495.13 0.272306 1496.17 0 1497.49 0C1498.85 0 1499.94 0.272305 1500.75 0.806443C1501.55 1.34058 1501.95 2.06324 1501.95 2.97441C1501.95 3.55044 1501.78 4.18932 1501.44 4.9015C1501.1 5.59274 1499.96 7.54077 1498.01 10.7561C1497.94 10.8817 1497.8 10.9551 1497.66 10.9655Z" fill="var(--fill-0, #034A1D)"/>
</g>
<g id="Group_15">
<path id="Vector_14" d="M1497.63 13.1953C1497.49 13.1953 1497.35 13.2686 1497.27 13.3943L1494.56 17.7093C1493.68 19.1022 1493.23 20.2438 1493.23 21.1341C1493.23 22.0662 1493.61 22.8203 1494.37 23.3649C1495.12 23.9095 1496.16 24.1818 1497.48 24.1818C1498.84 24.1818 1499.93 23.9095 1500.74 23.3754C1501.54 22.8412 1501.94 22.1186 1501.94 21.2074C1501.94 20.6313 1501.77 19.9925 1501.43 19.2803C1501.09 18.5891 1499.95 16.6306 1497.98 13.4048C1497.93 13.2791 1497.79 13.1953 1497.63 13.1953Z" fill="var(--fill-0, #034A1D)"/>
</g>
<g id="Group_16">
<path id="Vector_15" d="M1498.17 12.6736C1498.12 12.7992 1498.15 12.9459 1498.24 13.0611C1499.96 15.0824 1502.25 18.6957 1504.3 19.9001C1505.08 20.3609 1505.89 20.4028 1506.73 20.0363C1507.56 19.6802 1508.24 19.1565 1508.9 18.0673C1509.59 16.9467 1509.91 15.9203 1509.88 14.9882C1509.84 14.0665 1509.44 13.3857 1508.67 12.9354C1508.19 12.6526 1507.57 12.485 1506.82 12.4222C1506.07 12.3698 1502.26 12.3594 1498.54 12.4222C1498.38 12.4222 1498.23 12.5269 1498.17 12.6736Z" fill="var(--fill-0, #034A1D)"/>
</g>
<g id="Group_17">
<path id="Vector_16" d="M1498.16 11.5104C1498.22 11.6151 1498.34 11.6885 1498.48 11.6885C1502.21 11.7513 1506.07 11.7408 1506.81 11.6885C1507.57 11.6256 1508.18 11.458 1508.67 11.1753C1509.44 10.7354 1509.84 10.0441 1509.87 9.1225C1509.91 8.19038 1509.59 7.16399 1508.9 6.04335C1508.23 4.95413 1507.56 4.43046 1506.73 4.07437C1505.89 3.70781 1505.08 3.76017 1504.3 4.21053C1502.22 5.42543 1499.92 9.09108 1498.19 11.1019C1498.09 11.2172 1498.08 11.3847 1498.16 11.5104Z" fill="var(--fill-0, #034A1D)"/>
</g>
<g id="Group_18">
<path id="Vector_17" d="M1496.96 12.6422C1496.89 12.5061 1496.76 12.4223 1496.61 12.4223C1492.88 12.3594 1489.06 12.3699 1488.31 12.4223C1487.56 12.4851 1486.94 12.6527 1486.45 12.9355C1485.69 13.3753 1485.29 14.0666 1485.25 14.9882C1485.22 15.9203 1485.54 16.9467 1486.23 18.0674C1486.89 19.1566 1487.57 19.6803 1488.4 20.0364C1489.24 20.4029 1490.05 20.3505 1490.83 19.9002C1492.89 18.6958 1495.19 15.0615 1496.91 13.0402C1497 12.925 1497.02 12.7784 1496.96 12.6422Z" fill="var(--fill-0, #034A1D)"/>
</g>
<path id="Vector_18" d="M1496.92 11.5104C1496.86 11.6256 1496.73 11.6885 1496.59 11.6989C1492.87 11.7618 1489.06 11.7513 1488.31 11.6989C1487.56 11.6361 1486.94 11.4685 1486.45 11.1857C1485.69 10.7354 1485.3 10.0442 1485.25 9.12251C1485.22 8.19039 1485.54 7.164 1486.22 6.04336C1486.89 4.95414 1487.57 4.43047 1488.4 4.07438C1489.24 3.70782 1490.05 3.76018 1490.83 4.21054C1492.89 5.41496 1495.18 9.02825 1496.89 11.0496C1496.9 11.0601 1496.9 11.0705 1496.91 11.0705C1496.91 11.081 1497.02 11.301 1496.92 11.5104Z" fill="var(--fill-0, #034A1D)"/>
</g>
<path id="Vector 43" d="M0.25 12L397.25 12" stroke="var(--stroke-0, #034A1D)" stroke-width="0.5" stroke-linecap="round"/>
<path id="Vector 44" d="M450.25 12L934.25 12" stroke="var(--stroke-0, #034A1D)" stroke-width="0.5" stroke-linecap="round"/>
<path id="Vector 45" d="M987.25 12L1471.25 12" stroke="var(--stroke-0, #034A1D)" stroke-width="0.5" stroke-linecap="round"/>
<path id="Vector 46" d="M1524.75 12L1920.25 12" stroke="var(--stroke-0, #034A1D)" stroke-width="0.5" stroke-linecap="round"/>
</g>
</svg>
