<svg preserveAspectRatio="none" width="100%" height="100%" overflow="visible" style="display: block;" viewBox="0 0 29 29.0574" fill="none" xmlns="http://www.w3.org/2000/svg">
<path id="Vector" d="M0.316618 6.12222C1.72319 2.03981 4.51952 0 8.70841 0H20.4513L22.4827 0.156908L24.4889 0.815362C27.4982 2.13507 29 4.92299 29 9.17913V19.9722C29 23.3485 28.0866 25.7694 26.2569 27.2292C25.4471 28.4088 22.3342 28.9972 16.9153 28.9972C9.84319 29.1905 5.6571 28.9187 4.3542 28.179C1.4514 26.652 0 23.5979 0 19.0251V10.6333C0 8.87372 0.106473 7.36908 0.316618 6.12222ZM3.87787 4.67082C3.01488 4.67082 2.58618 7.35507 2.58618 12.718V16.2792C2.58618 19.1456 2.69266 21.2919 2.9028 22.7181C3.58928 25.2874 5.95411 26.5707 10.0001 26.5707C12.4266 26.4643 14.7326 26.4138 16.9125 26.4138H21.5833C24.3628 26.4138 26.0243 24.4272 26.5707 20.4513V9.02502C26.5707 4.73246 24.5309 2.58618 20.4485 2.58618H9.18193C6.50889 2.58618 4.74087 3.28106 3.87787 4.67082ZM7.57362 12.2444C8.87652 8.81488 11.1881 7.1001 14.514 7.1001H14.6709C16.1672 7.1001 17.6073 7.58483 18.9971 8.5515C21.0369 10.2943 22.0568 12.166 22.0568 14.1722V14.514C22.0568 18.05 20.1319 20.5129 16.2792 21.9027H13.0598C9.08387 20.5494 7.09729 18.1397 7.09729 14.6737C7.23739 13.284 7.3971 12.4742 7.57362 12.2472V12.2444ZM9.65826 14.6709C9.74512 15.5675 9.86 16.1055 10.0001 16.282C10.9668 18.4283 12.5246 19.5014 14.6709 19.5014C17.3804 19.5014 18.9887 17.8399 19.4986 14.514C19.4986 13.8976 19.4454 13.5193 19.3417 13.3792C18.5488 10.8995 16.9937 9.65826 14.6709 9.65826H14.514C11.6644 9.65826 10.0449 11.331 9.65826 14.6709ZM22.2193 4.98744C23.2757 4.98744 23.9257 5.63749 24.1723 6.94039C23.7156 8.01353 23.1243 8.5515 22.4043 8.5515C21.6842 8.5515 21.0845 8.01633 20.611 6.94039C20.611 5.97372 21.149 5.32087 22.2221 4.98744H22.2193Z" fill="var(--fill-0, white)"/>
</svg>
