<svg preserveAspectRatio="none" width="100%" height="100%" overflow="visible" style="display: block;" viewBox="0 0 114 114" fill="none" xmlns="http://www.w3.org/2000/svg">
<g id="Frame 564">
<circle id="Ellipse 57" cx="57" cy="57" r="56.75" stroke="var(--stroke-0, #034A1D)" stroke-width="0.5"/>
<g id="Frame 272">
<g id="Group">
<path id="Vector" d="M35.4964 51.0575C35.2153 51.0575 34.9692 50.8552 34.9224 50.5578L34.2428 46.2746C34.196 45.9534 34.4069 45.644 34.7232 45.5965C35.0395 45.5489 35.3441 45.763 35.391 46.0843L36.0705 50.3674C36.1174 50.6887 35.9065 50.998 35.5902 51.0456H35.4964V51.0575Z" fill="var(--fill-0, #034A1D)"/>
<path id="Vector_2" d="M33.0474 49.2613C32.7662 49.2613 32.5202 49.059 32.4733 48.7616C32.4264 48.4403 32.6373 48.131 32.9537 48.0834L37.1714 47.3933C37.4877 47.3457 37.7923 47.5599 37.8392 47.8811C37.8861 48.2024 37.6752 48.5117 37.3589 48.5593L33.1411 49.2494H33.0474V49.2613Z" fill="var(--fill-0, #034A1D)"/>
</g>
<g id="Group_2">
<path id="Vector_3" d="M62.0329 79.2428C61.9157 79.2428 61.7985 79.2071 61.6931 79.1357C61.4236 78.9453 61.365 78.5765 61.5525 78.3028L64.0363 74.7692C64.2237 74.4956 64.5869 74.4361 64.8564 74.6265C65.1259 74.8168 65.1844 75.1857 64.997 75.4593L62.5132 78.9929C62.3961 79.1595 62.2203 79.2428 62.0329 79.2428Z" fill="var(--fill-0, #034A1D)"/>
<path id="Vector_4" d="M65.02 78.7315C64.9028 78.7315 64.7857 78.6958 64.6802 78.6244L61.2006 76.1021C60.9428 75.9117 60.8726 75.5429 61.06 75.2692C61.2475 74.9956 61.6107 74.9361 61.8801 75.1265L65.3598 77.6488C65.6292 77.8391 65.6878 78.208 65.5004 78.4816C65.3832 78.6482 65.2075 78.7315 65.02 78.7315Z" fill="var(--fill-0, #034A1D)"/>
</g>
<g id="Group_3">
<path id="Vector_5" d="M63.0284 37.4468C62.8878 37.4468 62.7472 37.3992 62.6417 37.2922C62.3957 37.078 62.384 36.6973 62.5949 36.4474L65.4418 33.1994C65.6527 32.9495 66.0276 32.9257 66.2737 33.1518C66.5197 33.3659 66.5314 33.7466 66.3205 33.9965L63.4736 37.2446C63.3564 37.3754 63.1924 37.4468 63.0401 37.4468H63.0284Z" fill="var(--fill-0, #034A1D)"/>
<path id="Vector_6" d="M66.0393 37.2696C65.8988 37.2696 65.7582 37.222 65.6527 37.1149L62.4543 34.2238C62.2082 34.0096 62.1965 33.6289 62.4074 33.379C62.6183 33.1292 62.9932 33.1054 63.2392 33.3315L66.4377 36.2226C66.6837 36.4367 66.6954 36.8175 66.4846 37.0673C66.3674 37.1982 66.2034 37.2696 66.0511 37.2696H66.0393Z" fill="var(--fill-0, #034A1D)"/>
</g>
<path id="Vector_7" d="M33.9258 73.8393C33.7032 73.8393 33.4923 73.7203 33.3985 73.5062L32.1567 70.8649C32.0161 70.5674 32.1449 70.2105 32.4378 70.0677C32.7307 69.925 33.0822 70.0677 33.2228 70.3533L34.4647 72.9946C34.6053 73.292 34.4647 73.6489 34.1835 73.7917C34.1015 73.8274 34.0195 73.8512 33.9258 73.8512V73.8393Z" fill="var(--fill-0, #034A1D)"/>
<path id="Vector_8" d="M46.0163 86.9864C44.8916 86.9864 43.7669 86.796 42.6773 86.4034C40.1701 85.4992 38.1549 83.655 37.0185 81.216L34.1832 75.172C34.0426 74.8746 34.1832 74.5176 34.4644 74.3749C34.7573 74.2321 35.1088 74.363 35.2494 74.6604L38.0846 80.7044C39.0922 82.8579 40.873 84.476 43.0874 85.2731C45.3017 86.0703 47.6917 85.9394 49.8123 84.9162C54.1824 82.7865 56.0452 77.4563 53.948 73.0185L47.9026 60.1334C46.4498 57.04 43.3334 55.053 39.9592 55.053C38.647 55.053 37.37 55.3505 36.175 55.9216C31.8049 58.0513 29.9421 63.3814 32.0392 67.8192L32.4258 68.6521C32.5664 68.9495 32.4376 69.3064 32.1447 69.4492C31.8518 69.592 31.5003 69.4492 31.3597 69.1637L30.9731 68.3308C28.6065 63.31 30.7036 57.2541 35.6712 54.8508C37.0185 54.1964 38.4596 53.8633 39.9592 53.8633C43.7903 53.8633 47.3168 56.1238 48.957 59.6336L55.0025 72.5188C57.3691 77.5396 55.2719 83.5955 50.3161 86.0108C48.957 86.6651 47.4926 86.9983 46.0398 86.9983H46.0163V86.9864Z" fill="var(--fill-0, #034A1D)"/>
<path id="Vector_9" d="M63.6259 49.2961C63.5439 49.2961 63.4619 49.2961 63.3799 49.2366C63.087 49.0938 62.9581 48.7488 63.087 48.4513L64.9967 44.2396C65.1022 44.0135 65.1959 43.7993 65.3248 43.5852C65.4888 43.2996 65.852 43.2045 66.1214 43.371C66.4026 43.5376 66.4964 43.9064 66.3323 44.1801C66.2269 44.3704 66.1332 44.5489 66.0511 44.7393L64.1414 48.951C64.0477 49.1652 63.8251 49.2961 63.6142 49.2961H63.6259Z" fill="var(--fill-0, #034A1D)"/>
<path id="Vector_10" d="M68.1486 71.5555C66.7309 71.5555 65.3133 71.2461 63.9777 70.6156C58.9984 68.2836 56.8075 62.2634 59.1156 57.195L61.9977 50.8535C62.1383 50.5561 62.478 50.4252 62.7709 50.568C63.0638 50.7108 63.1927 51.0558 63.0521 51.3532L60.17 57.6947C58.1431 62.1682 60.0645 67.4746 64.4697 69.5448C66.602 70.5442 68.9921 70.6394 71.1947 69.8184C73.3973 68.9975 75.1547 67.3437 76.1388 65.1902L82.0319 52.2337C82.5709 51.0558 82.8403 49.7946 82.8403 48.4978C82.8403 45.0237 80.8369 41.8351 77.7322 40.3836C74.2291 38.7417 70.1285 39.5865 67.5393 42.4895C67.3167 42.7393 66.9535 42.7512 66.7075 42.5371C66.4732 42.311 66.4497 41.9422 66.6606 41.6923C69.6013 38.3967 74.2408 37.4449 78.2125 39.3009C81.7273 40.9428 84.0002 44.5597 84.0002 48.4859C84.0002 49.9612 83.6956 51.377 83.0747 52.7215L77.1815 65.678C76.0685 68.1289 74.0768 69.9969 71.5813 70.9249C70.4566 71.3413 69.2967 71.5555 68.1251 71.5555H68.1486Z" fill="var(--fill-0, #034A1D)"/>
<path id="Vector_11" d="M78.0017 54.565C77.9197 54.565 77.8377 54.565 77.7557 54.5055C77.4628 54.3627 77.3339 54.0177 77.4628 53.7202L78.8218 50.722C79.4193 49.4252 79.4779 47.9737 78.9858 46.6292C78.5172 45.3205 77.5682 44.2616 76.338 43.6667C76.0451 43.5239 75.928 43.167 76.0569 42.8696C76.1857 42.5721 76.5489 42.4532 76.8418 42.584C78.3532 43.3217 79.5013 44.6066 80.0754 46.2128C80.6612 47.8428 80.5909 49.6274 79.8645 51.2098L78.5055 54.208C78.4118 54.4222 78.1892 54.5531 77.9783 54.5531H78.0017V54.565Z" fill="var(--fill-0, #034A1D)"/>
<path id="Vector_12" d="M57.7447 35.2325C57.4986 35.2325 57.2643 35.0779 57.1823 34.8161C56.7605 33.4836 56.081 32.3057 55.1789 31.3063C54.9563 31.0683 54.9797 30.6876 55.214 30.4616C55.4601 30.2355 55.8233 30.2593 56.0459 30.4973C57.0652 31.6275 57.8267 32.9601 58.307 34.4592C58.4008 34.7685 58.2368 35.1016 57.9321 35.2087C57.8736 35.2325 57.815 35.2325 57.7564 35.2325H57.7447Z" fill="var(--fill-0, #034A1D)"/>
<path id="Vector_13" d="M48.2543 48.4158C42.4432 48.4158 37.71 43.6091 37.71 37.7079C37.71 31.8067 42.4432 27 48.2543 27C50.6209 27 52.929 27.809 54.7567 29.2844C55.0144 29.4866 55.0496 29.8673 54.8504 30.1172C54.6512 30.3789 54.2763 30.4146 54.0303 30.2124C52.4018 28.9036 50.3515 28.1898 48.2543 28.1898C43.0876 28.1898 38.8816 32.461 38.8816 37.7079C38.8816 42.9548 43.0876 47.226 48.2543 47.226C53.421 47.226 57.6271 42.9548 57.6271 37.7079C57.6271 37.2796 57.6036 36.9108 57.5568 36.5538C57.5568 36.2207 57.8145 35.9113 58.1426 35.9113C58.4706 35.9113 58.7284 36.1255 58.7284 36.4586C58.7869 36.7918 58.8104 37.2201 58.8104 37.7079C58.8104 43.6091 54.0771 48.4158 48.266 48.4158H48.2543Z" fill="var(--fill-0, #034A1D)"/>
<path id="Vector_14" d="M48.7119 38.9685C48.5596 38.9685 48.4073 38.909 48.3019 38.79L40.8037 31.1755C40.5693 30.9376 40.5693 30.5688 40.8037 30.3308C41.038 30.0929 41.4012 30.0929 41.6355 30.3308L49.1337 37.9453C49.368 38.1833 49.368 38.5521 49.1337 38.79C49.0165 38.909 48.8642 38.9685 48.7236 38.9685H48.7119Z" fill="var(--fill-0, #034A1D)"/>
<path id="Vector_15" d="M54.5222 45.4416C54.3698 45.4416 54.2175 45.3821 54.1121 45.2631L49.9178 41.0037C49.6835 40.7658 49.6835 40.397 49.9178 40.159C50.1521 39.921 50.5153 39.921 50.7496 40.159L54.9439 44.4184C55.1782 44.6563 55.1782 45.0251 54.9439 45.2631C54.8268 45.3821 54.6745 45.4416 54.5339 45.4416H54.5222Z" fill="var(--fill-0, #034A1D)"/>
<path id="Vector_16" d="M35.4605 77.1249C35.2497 77.1249 35.0388 77.0059 34.9333 76.7917C34.7927 76.4943 34.9099 76.1374 35.2028 75.9946L52.0386 67.6305C52.3315 67.4878 52.683 67.6067 52.8236 67.9042C52.9642 68.2016 52.847 68.5585 52.5541 68.7013L35.7183 77.0654C35.6363 77.1011 35.5425 77.1249 35.4605 77.1249Z" fill="var(--fill-0, #034A1D)"/>
<path id="Vector_17" d="M69.9295 60.3153C69.8358 60.3153 69.742 60.2915 69.66 60.2439L60.5099 55.4848C60.217 55.3302 60.1115 54.9732 60.2521 54.6877C60.4044 54.3902 60.7559 54.2832 61.0371 54.4259L70.1872 59.185C70.4801 59.3397 70.5856 59.6966 70.445 59.9821C70.3396 60.1844 70.1404 60.3034 69.9178 60.3034H69.9295V60.3153Z" fill="var(--fill-0, #034A1D)"/>
<path id="Vector_18" d="M77.7089 63.7421C77.6152 63.7421 77.5215 63.7183 77.4394 63.6707L73.1748 61.4339C72.8819 61.2792 72.7765 60.9223 72.9288 60.6368C73.0811 60.3393 73.4326 60.2322 73.7138 60.3869L77.9784 62.6237C78.2713 62.7783 78.3767 63.1353 78.2244 63.4208C78.119 63.6231 77.9198 63.7421 77.7089 63.7421Z" fill="var(--fill-0, #034A1D)"/>
<path id="Vector_19" d="M41.073 85.5482C40.7567 85.5482 40.4989 85.2983 40.4872 84.9771L40.0537 73.9717C40.0537 73.6386 40.288 73.365 40.6161 73.3531C40.9558 73.3293 41.2136 73.591 41.2253 73.9242L41.6588 84.9295C41.6588 85.2626 41.4245 85.5363 41.0964 85.5482C41.0964 85.5482 41.0964 85.5482 41.073 85.5482Z" fill="var(--fill-0, #034A1D)"/>
<path id="Vector_20" d="M44.658 86.5249C44.3416 86.5249 44.0839 86.275 44.0722 85.9419L43.709 72.7474C43.709 72.4143 43.955 72.1406 44.2831 72.1406C44.5877 72.1406 44.8806 72.3905 44.8806 72.7236L45.2438 85.9181C45.2438 86.2513 44.9977 86.5249 44.6697 86.5249H44.658Z" fill="var(--fill-0, #034A1D)"/>
<path id="Vector_21" d="M52.0275 84.7619C51.7229 84.7619 51.4652 84.524 51.4417 84.2146L50.4107 69.3782C50.3873 69.0451 50.6333 68.7715 50.9497 68.7477C51.2426 68.7239 51.5472 68.9737 51.5706 69.295L52.6016 84.1313C52.625 84.4645 52.379 84.7381 52.0627 84.7619H52.0158H52.0275Z" fill="var(--fill-0, #034A1D)"/>
<path id="Vector_22" d="M48.1608 86.3109C47.8445 86.3109 47.5868 86.061 47.5751 85.7398L46.9775 70.7725C46.9775 70.4394 47.2119 70.1657 47.5399 70.1538C47.8797 70.1301 48.1374 70.3918 48.1491 70.7249L48.7466 85.6922C48.7466 86.0253 48.5123 86.299 48.1843 86.3109C48.1843 86.3109 48.1843 86.3109 48.1608 86.3109Z" fill="var(--fill-0, #034A1D)"/>
<path id="Vector_23" d="M75.5765 59.3257C75.4828 59.3257 75.389 59.3019 75.2953 59.2543C75.0141 59.0997 74.9087 58.7308 75.061 58.4453L76.4435 55.8635C76.5958 55.578 76.959 55.4709 77.2402 55.6255C77.5213 55.7802 77.6268 56.149 77.4745 56.4346L76.092 59.0164C75.9866 59.2186 75.7874 59.3257 75.5765 59.3257Z" fill="var(--fill-0, #034A1D)"/>
<path id="Vector_24" d="M48.6179 67.0939C48.3953 67.0939 48.1844 66.963 48.0906 66.7489L45.396 60.9547C45.2554 60.6573 45.396 60.3003 45.6772 60.1576C45.9583 60.0148 46.3215 60.1576 46.4621 60.4431L49.1568 66.2373C49.2974 66.5347 49.1568 66.8917 48.8756 67.0344C48.7936 67.0701 48.7116 67.0939 48.6296 67.0939H48.6179Z" fill="var(--fill-0, #034A1D)"/>
</g>
</g>
</svg>
