<svg preserveAspectRatio="none" width="100%" height="100%" overflow="visible" style="display: block;" viewBox="0 0 71 46" fill="none" xmlns="http://www.w3.org/2000/svg">
<g id="Layer_1" clip-path="url(#clip0_3281_161)">
<path id="Vector" d="M1.3065 3.89473C0.717104 5.58656 0.717104 6.60165 1.0539 7.19379C1.3065 7.61675 1.6433 7.70134 2.0643 7.70134C2.40111 7.70134 2.82211 7.44757 2.99051 7.1092C3.24311 6.68625 3.24311 6.1787 2.82211 5.41737L2.1485 4.74064L1.3065 3.89473ZM0.296104 7.61675C-0.124896 6.77084 -0.209096 5.33278 0.801304 3.04881V2.96422C0.969704 2.71045 1.2223 2.71045 1.3907 2.87963C1.5591 2.96422 2.23271 3.55636 2.73791 4.1485C3.07471 4.48687 3.32731 4.82523 3.49571 4.99442C4.16931 6.00951 4.08511 6.85543 3.74831 7.53216C3.41151 8.1243 2.73791 8.46267 2.0643 8.54726C1.3907 8.63185 0.717104 8.29348 0.296104 7.61675Z" fill="var(--fill-0, #034A1D)"/>
<path id="Vector_2" d="M57.8895 30.8793L55.5319 34.9397L62.3521 38.9155L64.6255 34.8551L57.8895 30.8793ZM17.6419 17.0909H42.9019L26.9039 7.78584C25.3041 6.85534 23.4517 6.68615 21.7677 7.10911C20.8415 7.36289 19.9995 7.78584 19.2417 8.46258C17.7261 9.64686 17.0525 11.1695 16.7999 13.0305C16.7157 13.7918 16.7999 14.6378 16.9683 15.4837C17.1367 15.9912 17.3893 16.5834 17.6419 17.0909ZM44.3333 17.9368H18.2313C18.7365 18.529 19.4101 19.1211 20.1679 19.6287L23.9569 21.828L25.8093 18.6136C25.8935 18.3598 26.1461 18.3598 26.3145 18.4444C26.5671 18.529 26.6513 18.7827 26.4829 19.0365L24.6305 22.1664L26.8197 23.4353L27.8301 21.6588C27.9143 21.4897 28.1669 21.4051 28.3353 21.4897C28.5879 21.6588 28.6721 21.9126 28.5037 22.0818L27.4933 23.8582L29.6825 25.1271L31.4507 21.9126C31.6191 21.6588 31.8717 21.6588 32.0401 21.7434C32.2085 21.828 32.2927 22.0818 32.2085 22.3356L30.3561 25.5501L32.4611 26.7343L33.4715 24.9579C33.6399 24.7887 33.8925 24.7041 34.0609 24.8733C34.2293 24.9579 34.3135 25.2117 34.2293 25.3809L33.2189 27.1573L35.3239 28.4262L37.1763 25.2117C37.2605 25.0425 37.5131 24.9579 37.7657 25.0425C37.9341 25.1271 38.0183 25.3809 37.9341 25.6346L36.0817 28.8491L38.1867 30.0334L39.1971 28.257C39.2813 28.0878 39.5339 28.0032 39.7865 28.1724C39.9549 28.257 40.0391 28.5108 39.9549 28.6799L38.9445 30.4564L41.0495 31.7252L42.9019 28.5108C42.9861 28.3416 43.2387 28.257 43.4071 28.3416C43.6597 28.5108 43.7439 28.7645 43.5755 28.9337L41.7231 32.1482L43.9123 33.3325L44.9227 31.5561C45.0069 31.3869 45.2595 31.3023 45.4279 31.4715C45.6805 31.5561 45.7647 31.8098 45.5963 31.979L44.5859 33.7554L46.7751 35.0243L48.5433 31.8098C48.7117 31.6406 48.9643 31.5561 49.1327 31.6406C49.3011 31.8098 49.3853 32.0636 49.3011 32.2328L47.4487 35.4473L49.4695 36.547L56.2055 24.7887L44.3333 17.9368ZM19.7469 20.3054C17.8945 19.2903 16.7157 17.5985 16.2105 15.6529C15.9579 14.8915 15.8737 14.0456 15.9579 13.1997L9.81131 9.64686C9.05351 9.13931 8.54831 8.37798 8.29571 7.61666C8.12731 6.85534 8.12731 6.09401 8.46411 5.41728L0.465104 0.764751C0.296704 0.680159 0.212504 0.426385 0.296704 0.257202C0.465104 0.0034275 0.717704 -0.081164 0.886104 0.088019L8.88511 4.74055C9.30611 4.06382 9.97971 3.64086 10.6533 3.47168C11.4953 3.3025 12.4215 3.38709 13.1793 3.81004L19.3259 7.36289C19.9995 6.85534 20.7573 6.51697 21.5993 6.34779C23.4517 5.84024 25.4725 6.00942 27.3249 7.02452L56.6265 24.112L57.3001 22.9277C57.6369 22.4202 58.3105 22.251 58.8157 22.5048L60.8365 23.689C61.3417 24.0274 61.5101 24.6196 61.1733 25.2117L58.3105 30.2026L65.0465 34.0938L66.8147 31.1331C68.2461 28.5108 72.1193 30.7947 70.6879 33.3325L64.0361 44.8369C62.6047 47.4592 58.7315 45.1753 60.1629 42.6375L61.9311 39.5922L55.1109 35.701L52.2481 40.6919C51.9955 41.1995 51.3219 41.4533 50.8167 41.1149C50.1431 40.6919 49.3853 40.3536 48.7117 39.9306C48.2907 39.5922 48.1223 39.0001 48.3749 38.4926V38.408L49.0485 37.3083L19.7469 20.3054ZM63.3625 44.414L69.9301 32.9095C70.8563 31.3869 68.4145 29.8642 67.4883 31.5561L60.9207 43.0605C59.9945 44.6677 62.4363 46.1058 63.3625 44.414ZM60.4997 24.7041C60.4997 24.6196 60.4997 24.4504 60.4155 24.4504C59.7419 24.0274 59.0683 23.6045 58.3947 23.2661C58.2263 23.1815 58.1421 23.1815 58.0579 23.3507C55.0267 28.5108 52.0797 33.6708 49.1327 38.9155C49.0485 39.0001 49.0485 39.1693 49.2169 39.2539L51.1535 40.3536C51.3219 40.4382 51.4903 40.4382 51.5745 40.269C54.5215 35.1089 57.4685 29.9488 60.4997 24.7041ZM16.0421 12.2692C16.3789 10.5774 17.3051 9.05472 18.5681 7.87044L12.7583 4.57137C12.1689 4.233 11.4953 4.14841 10.9059 4.31759C10.2323 4.48678 9.72711 4.90973 9.30611 5.50187C9.05351 6.09401 8.96931 6.77075 9.13771 7.36289C9.30611 8.03962 9.72711 8.63176 10.3165 8.88553L16.0421 12.2692Z" fill="var(--fill-0, #034A1D)"/>
</g>
<defs>
<clipPath id="clip0_3281_161">
<rect width="71" height="46" fill="white"/>
</clipPath>
</defs>
</svg>
