<svg preserveAspectRatio="none" width="100%" height="100%" overflow="visible" style="display: block;" viewBox="0 0 584.999 274.099" fill="none" xmlns="http://www.w3.org/2000/svg">
<g id="Group 228">
<path id="Vector" d="M290.805 0.588867C322.161 0.588867 348.7 6.87649 367.841 19.3379C386.734 31.6425 396.173 48.3708 396.173 69.6221C396.173 82.6603 392.389 96.9797 384.769 112.792L384.02 114.327C376.561 129.417 352.39 170.419 311.083 237.397L302.593 251.14C300.997 253.727 298.123 255.41 294.945 255.614L294.933 255.604L294.685 255.614C291.142 255.759 287.826 254.068 286.023 251.23L286.022 251.229L221.93 150.859L221.929 150.857L220.95 149.332C200.574 117.394 190.391 91.3445 190.391 71.1836C190.391 49.4235 199.332 32.2479 217.176 19.5615H217.177C234.847 6.95977 259.451 0.588887 290.805 0.588867Z" fill="var(--fill-0, #08A03F)" stroke="var(--stroke-0, #08A03F)" stroke-width="1.17751"/>
<path id="Vector_2" d="M452.959 98.9573C471.326 88.3744 490.327 87.3101 510.05 95.6858L510.051 95.6868C529.619 103.946 545.659 116.115 561.36 141.548H561.361C577.605 167.762 585.223 191.648 584.342 213.193C583.463 234.532 574.001 250.346 556.082 260.612L556.081 260.613C544.689 267.149 530.171 271.077 512.276 272.439C494.638 273.788 403.028 273.915 314.257 272.521H314.256C311.327 272.482 308.648 270.99 307.192 268.633L307.027 268.366C305.473 265.599 305.823 262.211 307.948 259.783C328.499 236.286 352.501 203.063 377.448 172.283C402.436 141.451 428.391 113.044 452.958 98.9583L452.959 98.9573Z" fill="var(--fill-0, #08A03F)" stroke="var(--stroke-0, #08A03F)" stroke-width="1.17751"/>
<path id="Vector_3" d="M74.9795 95.6858C94.7026 87.3101 113.718 88.3751 132.024 98.9573L132.026 98.9583C156.402 112.933 182.146 141.006 206.957 171.558C230.951 201.104 254.093 233 274.144 256.425L276.074 258.665C278.442 261.389 278.76 265.191 276.935 268.228L276.752 268.506C275.185 270.879 272.465 272.386 269.479 272.526L269.188 272.535C180.906 273.902 90.3023 273.774 72.7676 272.439C54.8278 271.077 40.2948 267.149 28.918 260.613L28.917 260.612C10.9839 250.346 1.5366 234.546 0.657227 213.193C-0.223627 191.648 7.39404 167.762 23.6387 141.548C39.3841 116.115 55.4244 103.959 74.9785 95.6858H74.9795Z" fill="var(--fill-0, #08A03F)" stroke="var(--stroke-0, #08A03F)" stroke-width="1.17751"/>
</g>
</svg>
