<svg preserveAspectRatio="none" width="100%" height="100%" overflow="visible" style="display: block;" viewBox="0 0 24.6277 24.1815" fill="none" xmlns="http://www.w3.org/2000/svg">
<g id="Group">
<g id="Group_2">
<path id="Vector" d="M12.4071 10.9655C12.2541 10.976 12.1011 10.8922 12.0246 10.7665L9.32519 6.47249C8.43997 5.07954 7.99189 3.93796 7.99189 3.04773C7.99189 2.10513 8.3744 1.36153 9.12847 0.816916C9.88255 0.272306 10.9208 0 12.2431 0C13.5983 0 14.6912 0.272305 15.4999 0.806443C16.2977 1.34058 16.702 2.06324 16.702 2.97441C16.702 3.55044 16.5272 4.18932 16.1884 4.9015C15.8496 5.59274 14.713 7.54077 12.7568 10.7561C12.6912 10.8817 12.5491 10.9551 12.4071 10.9655Z" fill="var(--fill-0, white)"/>
</g>
<g id="Group_3">
<path id="Vector_2" d="M12.3841 13.195C12.242 13.195 12.0999 13.2684 12.0234 13.394L9.31311 17.709C8.42789 19.102 7.97982 20.2436 7.97982 21.1338C7.97982 22.0659 8.36232 22.82 9.1164 23.3646C9.87048 23.9092 10.9087 24.1815 12.2311 24.1815C13.5862 24.1815 14.6791 23.9092 15.4878 23.3751C16.2856 22.8409 16.69 22.1183 16.69 21.2071C16.69 20.6311 16.5151 19.9922 16.1763 19.28C15.8375 18.5888 14.7009 16.6303 12.7338 13.4045C12.6791 13.2788 12.5371 13.195 12.3841 13.195Z" fill="var(--fill-0, white)"/>
</g>
<g id="Group_4">
<path id="Vector_3" d="M12.9207 12.6724C12.8661 12.7981 12.8989 12.9447 12.9863 13.0599C14.713 15.0812 16.9971 18.6945 19.0517 19.8989C19.8276 20.3598 20.6363 20.4017 21.4778 20.0351C22.3084 19.679 22.986 19.1553 23.6526 18.0661C24.3412 16.9455 24.6581 15.9191 24.6253 14.987C24.5925 14.0653 24.1882 13.3846 23.4231 12.9342C22.9423 12.6514 22.3194 12.4839 21.5653 12.421C20.8221 12.3687 17.008 12.3582 13.2923 12.421C13.1284 12.421 12.9754 12.5258 12.9207 12.6724Z" fill="var(--fill-0, white)"/>
</g>
<g id="Group_5">
<path id="Vector_4" d="M12.9096 11.51C12.9752 11.6148 13.0954 11.6881 13.2265 11.6881C16.9641 11.7509 20.8219 11.7404 21.5651 11.6881C22.3192 11.6252 22.9312 11.4577 23.4229 11.1749C24.188 10.735 24.5923 10.0438 24.6251 9.12212C24.6579 8.19 24.341 7.16362 23.6525 6.04297C22.9858 4.95375 22.3082 4.43009 21.4776 4.074C20.6361 3.70743 19.8274 3.7598 19.0515 4.21015C16.975 5.42505 14.6691 9.0907 12.9424 11.1016C12.844 11.2168 12.8331 11.3844 12.9096 11.51Z" fill="var(--fill-0, white)"/>
</g>
<g id="Group_6">
<path id="Vector_5" d="M11.7069 12.641C11.6413 12.5048 11.5102 12.421 11.3572 12.421C7.6305 12.3582 3.80547 12.3687 3.06233 12.421C2.30825 12.4839 1.68532 12.6514 1.20445 12.9342C0.439449 13.3741 0.035089 14.0653 0.00230302 14.987C-0.0304829 15.9191 0.286448 16.9455 0.974953 18.0661C1.6416 19.1553 2.31918 19.679 3.14975 20.0351C3.99126 20.4017 4.79998 20.3493 5.57592 19.8989C7.64143 18.6945 9.93645 15.0603 11.6632 13.0389C11.7506 12.9237 11.7725 12.7771 11.7069 12.641Z" fill="var(--fill-0, white)"/>
</g>
<path id="Vector_6" d="M11.6741 11.51C11.6086 11.6252 11.4774 11.6881 11.3353 11.6985C7.61959 11.7614 3.80549 11.7509 3.06234 11.6985C2.30827 11.6357 1.68533 11.4681 1.20447 11.1854C0.439466 10.735 0.0460341 10.0438 0.00231949 9.12211C-0.0304665 8.18999 0.286464 7.16361 0.97497 6.04297C1.64162 4.95374 2.31919 4.43008 3.14977 4.07399C3.99128 3.70742 4.8 3.75979 5.57593 4.21014C7.64145 5.41457 9.92554 9.02785 11.6413 11.0492C11.6523 11.0597 11.6523 11.0701 11.6632 11.0701C11.6632 11.0806 11.7725 11.3006 11.6741 11.51Z" fill="var(--fill-0, white)"/>
</g>
</svg>
