<svg preserveAspectRatio="none" width="100%" height="100%" overflow="visible" style="display: block;" viewBox="0 0 46.9649 67.0137" fill="none" xmlns="http://www.w3.org/2000/svg">
<path id="Vector" d="M39.2814 56.1604V52.4831C43.5727 52.195 46.9649 48.5452 46.9649 44.0995C46.9649 39.6539 43.273 35.6885 38.7229 35.6885C34.1727 35.6885 30.4809 39.4618 30.4809 44.0995C30.4809 48.7372 33.8867 52.195 38.1643 52.4831V56.1604C38.1643 61.0039 34.5814 65.0242 29.9223 65.7651C29.4182 65.8474 28.9006 65.8886 28.3829 65.8886C22.9881 65.8886 18.6014 61.5253 18.6014 56.1604V44.8679H20.8084C21.1217 44.8679 21.3669 44.6209 21.3669 44.3053V39.8872C29.391 38.419 35.4261 31.8192 36.1072 23.6826C36.1481 23.1612 35.971 22.626 35.6168 22.2419C35.249 21.8439 34.7313 21.6107 34.2 21.6107H33.5461V5.91378C33.5461 4.91214 33.1374 3.99283 32.4971 3.3205C31.8159 2.607 30.8487 2.16793 29.7861 2.16793H29.4182C29.1594 0.933033 28.0832 0 26.789 0H23.2742C21.8165 0 20.6449 1.18001 20.6177 2.63445C20.6177 2.64817 20.6177 2.66189 20.6177 2.67561V2.77166C20.6177 4.23981 21.8165 5.44727 23.2742 5.44727H26.789C28.0832 5.44727 29.1594 4.51423 29.391 3.27934H29.7588C31.2165 3.27934 32.4153 4.45935 32.4153 5.90006V21.6107H31.2029C30.1811 21.6107 29.3229 22.3928 29.2139 23.4356C28.5736 29.075 23.7646 33.3285 18.0429 33.3285C12.3211 33.3285 7.52578 29.075 6.88549 23.4356C6.76288 22.3928 5.90462 21.6107 4.89651 21.6107H3.82027V5.91378C3.82027 4.47307 5.00549 3.29306 6.4768 3.29306H6.84462C7.07622 4.52795 8.15245 5.46099 9.44665 5.46099H12.9478C14.4055 5.46099 15.6043 4.25353 15.6043 2.78538V2.68933C15.6043 2.68933 15.6043 2.66189 15.6043 2.64817C15.5771 1.19373 14.4055 0.0137211 12.9478 0.0137211H9.44665C8.15245 0.0137211 7.07622 0.946754 6.84462 2.18165H6.4768C4.40607 2.18165 2.7168 3.86934 2.7168 5.9275V21.6381H1.91303C1.38172 21.6381 0.864042 21.8714 0.496216 22.2693C0.142013 22.6672 -0.0350882 23.1886 0.00578141 23.71C0.686941 31.8466 6.72201 38.4327 14.7461 39.9146V44.3328C14.7461 44.6484 14.9913 44.8954 15.3046 44.8954H17.5116V56.1741C17.5116 62.1565 22.4023 67.0137 28.4101 67.0137C29.3365 67.0137 30.2356 66.8902 31.0939 66.6844C35.8211 65.4907 39.3223 61.2371 39.3223 56.1741L39.2814 56.1604ZM45.8614 44.0858C45.8614 48.1061 42.66 51.3717 38.7365 51.3717C34.813 51.3717 31.6116 48.1061 31.6116 44.0858C31.6116 40.0655 34.813 36.7999 38.7365 36.7999C42.66 36.7999 45.8614 40.0655 45.8614 44.0858ZM15.3591 38.8581C7.60752 37.6369 1.73593 31.3664 1.08201 23.5865C1.06839 23.367 1.13651 23.1612 1.28636 22.9965C1.43622 22.8319 1.65419 22.7221 1.88578 22.7221H4.86926C5.33245 22.7221 5.70027 23.0788 5.76839 23.5591C6.4768 29.761 11.749 34.4399 18.0293 34.4399C24.3096 34.4399 29.5817 29.761 30.2901 23.5591C30.3446 23.0788 30.7261 22.7221 31.1893 22.7221H34.1727C34.4043 22.7221 34.6223 22.8181 34.7722 22.9965C34.922 23.1612 34.9901 23.367 34.9765 23.5865C34.3226 31.3527 28.451 37.6369 20.6994 38.8581C20.4269 38.8992 20.2362 39.1325 20.2362 39.4069V43.7428H15.8223V39.4069C15.8223 39.1325 15.618 38.8992 15.3455 38.8581H15.3591ZM28.342 2.67561V2.77166C28.342 3.62236 27.6472 4.33586 26.789 4.33586H23.2742C22.4296 4.33586 21.7211 3.63608 21.7211 2.77166V2.67561C21.7211 1.8249 22.4159 1.11141 23.2742 1.11141H26.789C27.6472 1.11141 28.342 1.81118 28.342 2.67561ZM9.43303 1.12513H12.9478C13.7924 1.12513 14.5009 1.8249 14.5009 2.68933V2.78538C14.5009 3.63608 13.8061 4.34958 12.9478 4.34958H9.43303C8.58839 4.34958 7.87998 3.64981 7.87998 2.78538V2.68933C7.87998 1.83862 8.57477 1.13885 9.43303 1.13885V1.12513Z" fill="var(--fill-0, white)"/>
</svg>
