<svg width="1099" height="1210" viewBox="0 0 1099 1210" fill="none" xmlns="http://www.w3.org/2000/svg">
<g opacity="0.05">
<path d="M634.358 0.437622C702.857 0.437667 760.926 14.1721 802.864 41.4747C844.299 68.4605 865.054 105.208 865.054 151.873C865.054 181.401 856.209 213.867 838.454 249.767C821.078 284.922 762.219 384.387 660.793 548.277V548.278C657.097 554.271 650.409 558.105 643.068 558.458L643.04 558.432L642.856 558.439C634.842 558.767 627.316 554.945 623.211 548.486V548.485L483.401 329.538L483.4 329.537L481.266 326.208C436.793 256.503 414.469 199.507 414.469 155.279C414.469 107.535 434.109 69.8123 473.254 41.9816V41.9806C511.993 14.353 565.862 0.437622 634.358 0.437622Z" fill="#08A03F" stroke="#08A03F" stroke-width="0.875276"/>
<path d="M987.656 215.129C1027.96 191.909 1069.68 189.575 1112.95 207.948H1112.95C1155.8 226.033 1190.92 252.698 1225.26 308.324V308.325C1260.75 365.594 1277.45 417.865 1275.52 465.088C1273.59 511.919 1252.8 546.685 1213.45 569.229C1188.85 583.344 1157.65 591.892 1119.36 594.995L1117.54 595.138C1079.01 598.085 879.129 598.359 685.503 595.319H685.502C678.838 595.229 672.722 591.836 669.385 586.436L669.008 585.827C665.44 579.474 666.245 571.693 671.116 566.126C715.942 514.876 768.229 442.49 822.702 375.28C877.206 308.031 933.911 245.946 987.655 215.13L987.656 215.129Z" fill="#08A03F" stroke="#08A03F" stroke-width="0.875276"/>
<path d="M163.228 207.948C206.492 189.575 248.251 191.909 288.421 215.13L288.422 215.13C341.747 245.703 397.993 307.06 452.109 373.7C505.349 439.26 556.545 509.956 600.764 561.264L602.864 563.693C608.278 569.92 609.002 578.628 604.812 585.571L604.41 586.181C600.835 591.596 594.646 595.012 587.876 595.329L587.219 595.35C394.658 598.33 196.97 598.055 158.671 595.138C119.455 592.162 87.6195 583.569 62.6602 569.229H62.6592C23.2777 546.685 2.5175 511.95 0.587891 465.089C-1.31268 418.603 14.8394 367.226 49.1963 311.005L50.8457 308.325C84.7452 253.568 119.311 226.903 161.226 208.803L163.228 207.948Z" fill="#08A03F" stroke="#08A03F" stroke-width="0.875276"/>
<path d="M634.358 1209.56C702.857 1209.56 760.926 1195.83 802.864 1168.53C844.299 1141.54 865.054 1104.79 865.054 1058.13C865.054 1028.6 856.209 996.133 838.454 960.233C821.078 925.078 762.219 825.613 660.793 661.723V661.722C657.097 655.729 650.409 651.895 643.068 651.542L643.04 651.568L642.856 651.562C634.842 651.233 627.316 655.055 623.211 661.514V661.515L483.401 880.462L483.4 880.463L481.266 883.792C436.793 953.497 414.469 1010.49 414.469 1054.72C414.469 1102.47 434.109 1140.19 473.254 1168.02V1168.02C511.993 1195.65 565.862 1209.56 634.358 1209.56Z" fill="#08A03F" stroke="#08A03F" stroke-width="0.875276"/>
<path d="M987.656 994.871C1027.96 1018.09 1069.68 1020.42 1112.95 1002.05H1112.95C1155.8 983.967 1190.92 957.302 1225.26 901.676V901.675C1260.75 844.406 1277.45 792.135 1275.52 744.912C1273.59 698.081 1252.8 663.315 1213.45 640.771C1188.85 626.655 1157.65 618.108 1119.36 615.005L1117.54 614.862C1079.01 611.914 879.129 611.641 685.503 614.681H685.502C678.838 614.771 672.722 618.164 669.385 623.564L669.008 624.173C665.44 630.526 666.245 638.307 671.116 643.874C715.942 695.124 768.229 767.51 822.702 834.72C877.206 901.969 933.911 964.054 987.655 994.87L987.656 994.871Z" fill="#08A03F" stroke="#08A03F" stroke-width="0.875276"/>
<path d="M163.228 1002.05C206.492 1020.42 248.251 1018.09 288.421 994.87L288.422 994.87C341.747 964.297 397.993 902.94 452.109 836.3C505.349 770.74 556.545 700.044 600.764 648.736L602.864 646.307C608.278 640.08 609.002 631.372 604.812 624.429L604.41 623.819C600.835 618.404 594.646 614.988 587.876 614.671L587.219 614.65C394.658 611.67 196.97 611.945 158.671 614.862C119.455 617.838 87.6195 626.431 62.6602 640.771H62.6592C23.2777 663.315 2.5175 698.05 0.587891 744.911C-1.31268 791.397 14.8394 842.774 49.1963 898.995L50.8457 901.675C84.7452 956.432 119.311 983.097 161.226 1001.2L163.228 1002.05Z" fill="#08A03F" stroke="#08A03F" stroke-width="0.875276"/>
</g>
</svg>
