<svg preserveAspectRatio="none" width="100%" height="100%" overflow="visible" style="display: block;" viewBox="0 0 24.6278 24.1815" fill="none" xmlns="http://www.w3.org/2000/svg">
<g id="Group">
<g id="Group_2">
<path id="Vector" d="M12.4071 10.9655C12.2541 10.976 12.1011 10.8922 12.0246 10.7665L9.3252 6.47249C8.43998 5.07954 7.9919 3.93796 7.9919 3.04773C7.9919 2.10513 8.3744 1.36153 9.12848 0.816916C9.88256 0.272306 10.9208 0 12.2431 0C13.5983 0 14.6912 0.272305 15.4999 0.806443C16.2977 1.34058 16.702 2.06324 16.702 2.97441C16.702 3.55044 16.5272 4.18932 16.1884 4.9015C15.8496 5.59274 14.713 7.54077 12.7568 10.7561C12.6912 10.8817 12.5491 10.9551 12.4071 10.9655Z" fill="var(--fill-0, white)"/>
</g>
<g id="Group_3">
<path id="Vector_2" d="M12.3842 13.195C12.2422 13.195 12.1001 13.2684 12.0236 13.394L9.31327 17.709C8.42805 19.102 7.97998 20.2436 7.97998 21.1338C7.97998 22.0659 8.36248 22.82 9.11656 23.3646C9.87063 23.9092 10.9089 24.1815 12.2312 24.1815C13.5864 24.1815 14.6792 23.9092 15.488 23.3751C16.2858 22.8409 16.6901 22.1183 16.6901 21.2071C16.6901 20.6311 16.5153 19.9922 16.1765 19.28C15.8377 18.5888 14.7011 16.6303 12.7339 13.4045C12.6793 13.2788 12.5372 13.195 12.3842 13.195Z" fill="var(--fill-0, white)"/>
</g>
<g id="Group_4">
<path id="Vector_3" d="M12.9209 12.6724C12.8662 12.7981 12.899 12.9447 12.9864 13.0599C14.7132 15.0812 16.9973 18.6945 19.0518 19.8989C19.8278 20.3598 20.6365 20.4017 21.478 20.0351C22.3086 19.679 22.9862 19.1553 23.6528 18.0661C24.3413 16.9455 24.6582 15.9191 24.6255 14.987C24.5927 14.0653 24.1883 13.3846 23.4233 12.9342C22.9424 12.6514 22.3195 12.4839 21.5654 12.421C20.8223 12.3687 17.0082 12.3582 13.2924 12.421C13.1285 12.421 12.9755 12.5258 12.9209 12.6724Z" fill="var(--fill-0, white)"/>
</g>
<g id="Group_5">
<path id="Vector_4" d="M12.9086 11.51C12.9742 11.6148 13.0944 11.6881 13.2256 11.6881C16.9631 11.7509 20.821 11.7404 21.5641 11.6881C22.3182 11.6252 22.9302 11.4577 23.422 11.1749C24.187 10.735 24.5913 10.0438 24.6241 9.12212C24.6569 8.19 24.34 7.16362 23.6515 6.04297C22.9848 4.95375 22.3073 4.43009 21.4767 4.074C20.6352 3.70743 19.8265 3.7598 19.0505 4.21015C16.9741 5.42505 14.6681 9.0907 12.9414 11.1016C12.843 11.2168 12.8321 11.3844 12.9086 11.51Z" fill="var(--fill-0, white)"/>
</g>
<g id="Group_6">
<path id="Vector_5" d="M11.707 12.641C11.6415 12.5048 11.5103 12.421 11.3573 12.421C7.63066 12.3582 3.80563 12.3687 3.06248 12.421C2.3084 12.4839 1.68547 12.6514 1.20461 12.9342C0.439605 13.3741 0.0352448 14.0653 0.00245889 14.987C-0.0303271 15.9191 0.286604 16.9455 0.975109 18.0661C1.64176 19.1553 2.31933 19.679 3.14991 20.0351C3.99142 20.4017 4.80014 20.3493 5.57607 19.8989C7.64159 18.6945 9.9366 15.0603 11.6633 13.0389C11.7508 12.9237 11.7726 12.7771 11.707 12.641Z" fill="var(--fill-0, white)"/>
</g>
<path id="Vector_6" d="M11.6741 11.51C11.6085 11.6252 11.4774 11.6881 11.3353 11.6985C7.61958 11.7614 3.80548 11.7509 3.06233 11.6985C2.30825 11.6357 1.68532 11.4681 1.20446 11.1854C0.439455 10.735 0.0460232 10.0438 0.00230856 9.12211C-0.0304774 8.18999 0.286454 7.16361 0.974959 6.04297C1.64161 4.95374 2.31918 4.43008 3.14976 4.07399C3.99127 3.70742 4.79999 3.75979 5.57592 4.21014C7.64144 5.41457 9.92553 9.02785 11.6413 11.0492C11.6523 11.0597 11.6523 11.0701 11.6632 11.0701C11.6632 11.0806 11.7725 11.3006 11.6741 11.51Z" fill="var(--fill-0, white)"/>
</g>
</svg>
