<svg preserveAspectRatio="none" width="100%" height="100%" overflow="visible" style="display: block;" viewBox="0 0 504.461 662.594" fill="none" xmlns="http://www.w3.org/2000/svg">
<path id="Vector" fill-rule="evenodd" clip-rule="evenodd" d="M255.709 662.557C246.589 662.954 238.01 658.34 233.324 650.518L77.1019 390.953C25.8088 306.497 0 237.506 0 184.086C0 127.314 22.024 82.4367 65.8917 49.3467C109.291 16.509 169.595 0 246.193 0C322.79 0 387.78 16.2927 434.748 48.7339C481.175 80.8146 504.461 124.538 504.461 180.049C504.461 215.157 494.548 253.726 474.687 296.332C455.258 338.037 389.475 455.979 276.147 650.266C271.893 657.583 264.179 662.233 255.745 662.594L255.709 662.557Z" fill="var(--fill-0, white)"/>
</svg>
