<svg preserveAspectRatio="none" width="100%" height="100%" overflow="visible" style="display: block;" viewBox="0 0 646.493 715.963" fill="none" xmlns="http://www.w3.org/2000/svg">
<path id="Intersect" opacity="0.1" d="M64.2393 668.516C64.8464 668.187 65.5911 668.217 66.1689 668.589L85.5029 680.931C91.8252 684.932 95.8903 688.725 97.6777 692.325C99.5729 696.148 99.568 699.898 97.6777 703.575C95.8118 707.219 92.2465 710.317 87.0166 712.844C81.6397 715.439 76.8054 716.414 72.5156 715.771C68.2751 715.143 65.2241 712.959 63.373 709.224C62.2028 706.861 61.5901 703.932 61.5215 700.41C61.4529 696.96 62.012 686.845 63.2559 670.019C63.3049 669.386 63.6717 668.82 64.2393 668.516ZM59.5332 667.134C60.0571 666.892 60.6695 666.941 61.1494 667.255L61.1543 667.26C61.7272 667.637 62.0062 668.327 61.8447 668.989C59.0632 680.471 57.3538 699.791 51.585 708.688C49.4204 712.036 46.3202 713.767 42.2803 713.893C38.2846 714.023 34.543 713.186 29.7148 710.002C24.7394 706.73 21.3898 703.164 19.6611 699.312C17.9473 695.49 18.1573 691.934 20.2725 688.672C21.6142 686.599 23.7058 684.738 26.5752 683.057C29.4008 681.404 44.6411 674.02 59.5332 667.134ZM99.7344 647.751C102.849 646.543 105.626 646.055 108.104 646.282C112.011 646.635 114.984 648.655 116.992 652.337C119.015 656.048 119.808 660.847 119.367 666.732C118.941 672.454 117.315 675.88 114.759 678.91C112.178 681.983 108.887 683.337 104.892 682.96C94.3186 682.003 77.9859 671.628 67.0898 666.694C66.3948 666.38 65.9786 665.66 66.0566 664.911C66.1203 664.312 66.4831 663.785 67.0264 663.515C81.5994 656.189 96.6918 648.931 99.7344 647.751ZM10.0576 648.882C12.6333 645.809 15.9242 644.455 19.9297 644.827C30.5026 645.789 46.8303 656.16 57.7266 661.094C58.3092 661.36 58.7058 661.905 58.7646 662.533L58.7725 662.663C58.7845 663.333 58.41 663.961 57.7949 664.269C43.2215 671.599 28.1187 678.857 25.0771 680.036C21.9727 681.239 19.1955 681.728 16.7178 681.501C12.8101 681.148 9.83688 679.127 7.8291 675.445C5.81157 671.739 5.01344 666.94 5.4541 661.055C5.87524 655.343 7.50151 651.912 10.0576 648.882ZM82.5352 613.91C86.5262 613.78 90.2682 614.615 95.1064 617.795C100.087 621.062 103.437 624.628 105.166 628.479C106.88 632.306 106.669 635.858 104.554 639.12C103.212 641.188 101.115 643.049 98.2412 644.735C95.424 646.384 80.2868 653.72 65.4443 660.586C64.8372 660.866 64.1175 660.774 63.6035 660.354V660.363C63.0945 659.948 62.8691 659.281 63.0205 658.648C65.7825 647.143 67.502 627.963 73.2412 619.109C75.3909 615.766 78.4956 614.036 82.5352 613.91ZM38.2305 614.412C43.4603 611.89 48.1279 611.015 52.1875 611.798C56.2864 612.581 59.2933 614.891 61.1836 618.704C62.9709 622.304 63.5098 627.804 62.8291 635.183L60.8262 657.899C60.7721 658.532 60.3853 659.093 59.8027 659.373C59.2152 659.658 58.5151 659.609 57.9717 659.252C43.7014 649.868 35.2482 644.079 32.5254 641.904C29.7488 639.691 27.7798 637.42 26.6094 635.052C24.7633 631.321 24.8867 627.6 26.9873 623.908C29.1077 620.178 32.8538 617.007 38.2305 614.412ZM66.6152 551.92C67.1489 551.635 67.8004 551.66 68.3096 551.983L85.2637 562.808C90.8072 566.316 94.3724 569.645 95.9395 572.801C97.5995 576.154 97.5996 579.446 95.9395 582.664C94.3037 585.858 91.1742 588.579 86.5908 590.792C81.8752 593.068 77.6338 593.923 73.873 593.362C70.1563 592.811 67.4764 590.898 65.8506 587.617C64.8222 585.544 64.2893 582.977 64.2305 579.885C64.1718 576.859 64.656 567.987 65.7529 553.234C65.7921 552.679 66.1209 552.181 66.6152 551.915V551.92ZM62.4814 550.712C62.9417 550.499 63.4812 550.543 63.9023 550.818L63.8975 550.823C64.4016 551.152 64.6459 551.761 64.5039 552.341C62.0652 562.416 60.5665 579.359 55.5078 587.158C53.6127 590.091 50.8898 591.609 47.3496 591.72C43.8483 591.836 40.5669 591.101 36.3311 588.308C31.963 585.437 29.024 582.311 27.5107 578.934C26.0074 575.58 26.1941 572.462 28.0498 569.602C29.2299 567.785 31.0615 566.151 33.5781 564.678C36.0561 563.228 49.4209 556.752 62.4814 550.712ZM97.7363 533.707C100.469 532.649 102.903 532.224 105.077 532.422C108.505 532.731 111.111 534.504 112.874 537.732C114.647 540.985 115.342 545.194 114.955 550.354C114.583 555.37 113.153 558.376 110.915 561.034C108.653 563.725 105.768 564.914 102.262 564.586C92.9913 563.745 78.6666 554.645 69.1123 550.32C68.5006 550.045 68.1378 549.417 68.2061 548.76V548.755C68.2599 548.233 68.579 547.769 69.0537 547.532C81.8341 541.106 95.0705 534.742 97.7363 533.707ZM19.0928 534.707C21.3552 532.011 24.2399 530.827 27.751 531.15C37.0262 531.991 51.3411 541.091 60.9004 545.416C61.4094 545.648 61.7567 546.126 61.8105 546.677C61.874 547.31 61.5367 547.914 60.9639 548.204C48.1824 554.631 34.9345 560.995 32.2705 562.029C29.5481 563.082 27.1135 563.513 24.9395 563.314C21.5119 563.005 18.9064 561.232 17.1436 558.004C15.3708 554.752 14.6708 550.543 15.0576 545.382C15.4249 540.371 16.8501 537.365 19.0928 534.707ZM82.6533 504.036C86.1547 503.92 89.436 504.654 93.6768 507.442C98.045 510.308 100.984 513.435 102.497 516.812C104 520.166 103.814 523.283 101.958 526.144C100.783 527.956 98.9457 529.59 96.4238 531.068C93.9535 532.514 80.6783 538.945 67.6631 544.966C67.1343 545.212 66.5021 545.13 66.0518 544.763L66.0469 544.772C65.6016 544.41 65.4061 543.825 65.5381 543.27C67.9571 533.18 69.4652 516.363 74.499 508.598C76.3893 505.665 79.108 504.143 82.6533 504.036ZM43.8086 504.48C48.3971 502.267 52.4916 501.499 56.0518 502.186C59.6462 502.872 62.2813 504.896 63.9414 508.24C65.5034 511.396 65.9782 516.214 65.3809 522.688L63.623 542.613C63.5738 543.173 63.2307 543.662 62.7217 543.908V543.913C62.2027 544.159 61.595 544.121 61.1152 543.807C48.6079 535.577 41.1935 530.493 38.8037 528.589C36.3702 526.642 34.6466 524.651 33.6182 522.578C31.9973 519.312 32.1052 516.044 33.9463 512.807C35.8072 509.535 39.2204 506.694 43.8086 504.48ZM87.1143 448.643C87.599 448.382 88.1871 448.406 88.6523 448.7L104.024 458.515C109.054 461.694 112.286 464.715 113.706 467.575C115.214 470.615 115.209 473.597 113.706 476.521C112.222 479.415 109.387 481.88 105.229 483.89C100.954 485.953 97.1095 486.726 93.6963 486.219C90.3225 485.716 87.8978 483.981 86.4238 481.01C85.4934 479.13 85.009 476.805 84.9551 473.998C84.9012 471.253 85.3418 463.212 86.3359 449.831C86.3751 449.329 86.6691 448.879 87.1143 448.638V448.643ZM83.3682 447.546C83.7843 447.353 84.2743 447.39 84.6562 447.642H84.6611C85.1166 447.941 85.3373 448.493 85.21 449.02C82.9966 458.153 81.6392 473.514 77.0508 480.589C75.3319 483.251 72.8636 484.629 69.6514 484.726C66.4782 484.832 63.5003 484.165 59.6611 481.633C55.6995 479.033 53.0353 476.196 51.6641 473.133C50.3027 470.093 50.469 467.266 52.1533 464.671C53.2159 463.023 54.8814 461.544 57.1631 460.206C59.406 458.892 71.527 453.021 83.3682 447.546ZM0 448.992C1.07447 448.981 2.07838 449.085 3.01562 449.3C6.36992 450.068 8.70621 452.175 10.0039 455.61C11.3065 459.075 11.4134 463.338 10.3164 468.397C9.25372 473.311 7.42235 476.1 4.83691 478.429C3.35574 479.764 1.74239 480.595 0 480.92V448.992ZM115.337 432.135C117.815 431.173 120.019 430.786 121.992 430.965C125.097 431.245 127.462 432.85 129.059 435.778C130.67 438.731 131.302 442.549 130.949 447.227C130.611 451.773 129.318 454.504 127.286 456.91C125.234 459.35 122.619 460.428 119.44 460.129C111.032 459.365 98.0447 451.116 89.3818 447.192C88.8634 446.957 88.5382 446.445 88.5518 445.889L88.5596 445.781C88.6086 445.303 88.8975 444.887 89.3281 444.67C100.914 438.843 112.916 433.073 115.337 432.135ZM44.0293 433.029C46.0761 430.589 48.6961 429.511 51.8789 429.806C60.2873 430.569 73.2705 438.818 81.9385 442.742C82.3986 442.955 82.7118 443.39 82.7607 443.888L82.7559 443.878C82.8094 444.448 82.5062 444.999 81.9873 445.26C70.4011 451.087 58.3933 456.862 55.9736 457.8C53.5058 458.756 51.3015 459.143 49.3281 458.964C46.2236 458.683 43.8572 457.08 42.2607 454.151C40.6546 451.204 40.0235 447.385 40.3711 442.708C40.7041 438.166 41.9973 435.44 44.0293 433.029ZM0 428.191C1.23912 429.937 2.11626 431.698 2.63281 433.474C3.65622 437.001 3.0446 440.06 0.806641 442.646C0.557618 442.934 0.288292 443.213 0 443.484V428.191ZM101.669 405.214C104.842 405.112 107.82 405.779 111.664 408.307C115.626 410.906 118.29 413.743 119.661 416.807C121.022 419.846 120.856 422.673 119.172 425.268C118.104 426.91 116.438 428.39 114.151 429.733C111.906 431.044 99.8699 436.876 88.0693 442.336C87.5847 442.558 87.0167 442.486 86.6055 442.152H86.6152C86.214 441.824 86.0323 441.292 86.1543 440.79C88.3482 431.643 89.7155 416.392 94.2793 409.351C95.9883 406.688 98.4566 405.311 101.669 405.214ZM66.4287 405.619C70.5912 403.614 74.3041 402.919 77.5312 403.542C80.7925 404.161 83.1822 405.997 84.6855 409.031C86.1057 411.892 86.5318 416.261 85.9932 422.132L84.4014 440.2C84.3522 440.707 84.0439 441.152 83.584 441.374V441.379C83.1189 441.606 82.5646 441.567 82.1289 441.282C70.7831 433.822 64.0595 429.217 61.8945 427.486C59.686 425.723 58.118 423.915 57.1875 422.035C55.7186 419.068 55.8169 416.106 57.4863 413.173C59.1709 410.201 62.1538 407.683 66.4287 405.619ZM12.2119 375.935C16.7516 379.767 19.5381 383.188 20.5469 386.218C21.6192 389.431 21.2037 392.389 19.3086 395.08C17.4378 397.747 14.288 399.811 9.89062 401.236C6.18766 402.44 2.88905 402.821 0 402.392V365.547L12.2119 375.935ZM147.169 362.051C147.61 361.814 148.153 361.833 148.574 362.104L162.648 371.087C167.252 374.001 170.21 376.761 171.508 379.385C172.889 382.168 172.884 384.898 171.508 387.57C170.146 390.223 167.556 392.48 163.746 394.316C159.936 396.153 156.312 396.916 153.192 396.447C150.107 395.988 147.884 394.403 146.537 391.678C145.685 389.958 145.239 387.826 145.19 385.261C145.141 382.748 145.543 375.388 146.454 363.138C146.488 362.679 146.758 362.263 147.169 362.046V362.051ZM143.74 361.046C144.117 360.867 144.568 360.901 144.916 361.133L144.921 361.138C145.342 361.413 145.542 361.915 145.425 362.398C143.397 370.758 142.154 384.82 137.957 391.296C136.385 393.731 134.123 394.993 131.185 395.085C128.276 395.182 125.552 394.572 122.036 392.253C118.412 389.871 115.973 387.275 114.715 384.473C113.466 381.69 113.618 379.099 115.16 376.727C116.139 375.219 117.663 373.861 119.749 372.639C121.806 371.431 132.898 366.057 143.74 361.046ZM27.0752 351.327C29.6606 350.709 31.8988 350.622 33.8281 351.066C36.8692 351.762 38.9897 353.671 40.165 356.788C41.3452 359.924 41.4433 363.79 40.4492 368.381C39.4845 372.841 37.8242 375.369 35.4785 377.48C33.1085 379.621 30.3661 380.336 27.2617 379.611C19.2789 377.778 8.00811 368.379 0 363.205V360.092C12.1516 355.935 24.5763 351.925 27.0752 351.327ZM173.011 346.935C175.278 346.055 177.297 345.703 179.104 345.867C181.949 346.123 184.108 347.593 185.572 350.274C187.041 352.976 187.624 356.465 187.301 360.751C186.992 364.911 185.807 367.41 183.946 369.613C182.066 371.85 179.671 372.837 176.763 372.562C169.064 371.865 157.178 364.312 149.245 360.722C148.736 360.495 148.438 359.973 148.491 359.427H148.496C148.54 358.992 148.805 358.61 149.201 358.412C159.807 353.078 170.796 347.796 173.011 346.935ZM107.727 347.762C109.607 345.524 112.002 344.538 114.916 344.809C122.609 345.505 134.494 353.058 142.428 356.648C142.849 356.842 143.139 357.238 143.183 357.697V357.701C143.231 358.228 142.952 358.726 142.478 358.968C131.871 364.303 120.876 369.589 118.662 370.444C116.4 371.314 114.382 371.672 112.575 371.508C109.73 371.252 107.565 369.782 106.105 367.101C104.636 364.399 104.059 360.905 104.377 356.624C104.681 352.464 105.866 349.965 107.727 347.762ZM9.3623 325.909C11.4239 323.508 14.0592 322.478 17.2568 322.812C20.4153 323.14 23.2752 324.199 26.7324 327.224C30.2927 330.331 32.5402 333.501 33.4756 336.72C34.401 339.919 33.8476 342.693 31.8203 345.036C30.5324 346.524 28.6806 347.767 26.2275 348.786C23.9123 349.751 12.0024 353.638 0 357.336V347.154C2.57416 339.27 5.45486 330.428 9.3623 325.909ZM160.484 322.3C163.388 322.203 166.111 322.812 169.632 325.126C173.256 327.508 175.695 330.104 176.953 332.906C178.202 335.69 178.05 338.281 176.508 340.653C175.533 342.161 174.01 343.514 171.914 344.741C169.861 345.94 158.842 351.28 148.04 356.276C147.599 356.479 147.08 356.411 146.703 356.106L146.698 356.111C146.331 355.812 146.165 355.329 146.277 354.865C148.285 346.491 149.539 332.53 153.716 326.083C155.283 323.652 157.541 322.392 160.484 322.3ZM128.231 322.672C132.041 320.836 135.44 320.198 138.393 320.768C141.38 321.333 143.569 323.015 144.945 325.793C146.243 328.412 146.635 332.414 146.141 337.787L144.681 354.324C144.641 354.783 144.357 355.194 143.937 355.396L143.927 355.392C143.501 355.599 142.991 355.566 142.595 355.305C132.208 348.477 126.057 344.258 124.073 342.678C122.051 341.064 120.621 339.411 119.769 337.69C118.427 334.98 118.515 332.269 120.043 329.582C121.59 326.866 124.319 324.561 128.231 322.672ZM225.69 303.192C226.121 302.961 226.645 302.98 227.057 303.245L240.729 311.973C245.201 314.804 248.075 317.487 249.339 320.033C250.681 322.739 250.676 325.392 249.339 327.987C248.017 330.563 245.499 332.757 241.797 334.54C237.997 336.376 234.573 337.063 231.542 336.613C228.54 336.169 226.386 334.626 225.073 331.979C224.246 330.307 223.815 328.238 223.766 325.745C223.717 323.305 224.109 316.153 224.995 304.251C225.029 303.802 225.289 303.4 225.69 303.188V303.192ZM222.355 302.216C222.727 302.047 223.163 302.081 223.501 302.303V302.298C223.907 302.564 224.104 303.052 223.991 303.521C222.023 311.644 220.812 325.31 216.733 331.602C215.205 333.969 213.006 335.197 210.151 335.284C207.326 335.381 204.676 334.786 201.263 332.534C197.742 330.224 195.372 327.702 194.152 324.977C192.943 322.276 193.09 319.758 194.588 317.453C195.533 315.984 197.018 314.669 199.045 313.48C201.044 312.311 211.822 307.087 222.355 302.216ZM68.3145 286.192C68.7846 286.018 69.3182 286.11 69.7002 286.434L82.3984 297.229C86.5561 300.738 89.1028 303.869 90.0283 306.643C91.0076 309.585 90.6308 312.291 88.8926 314.756C87.1786 317.196 84.2936 319.086 80.2686 320.391C76.1307 321.734 72.5449 321.961 69.5186 321.082C66.5269 320.212 64.5438 318.337 63.584 315.462C62.9768 313.64 62.8293 311.47 63.1377 308.924C63.4364 306.43 64.8567 299.191 67.4521 287.183C67.5501 286.729 67.874 286.356 68.3145 286.196V286.192ZM65.0576 284.732C65.4592 284.612 65.9005 284.703 66.2139 284.979L66.208 284.983C66.585 285.312 66.7123 285.834 66.5312 286.298C63.3677 294.31 60.1846 308.073 55.1309 313.92C53.2357 316.118 50.8209 317.061 47.8975 316.757C45.0036 316.457 42.3928 315.485 39.2295 312.717C35.9732 309.871 33.9166 306.971 33.0596 304.023C32.2075 301.1 32.7166 298.558 34.5723 296.412C35.7524 295.049 37.4478 293.914 39.6855 292.981C41.8897 292.063 53.6232 288.236 65.0576 284.732ZM250.783 288.512C252.987 287.656 254.951 287.313 256.704 287.473C259.471 287.724 261.572 289.149 262.992 291.754C264.422 294.378 264.985 297.775 264.672 301.936C264.373 305.98 263.222 308.406 261.415 310.547C259.588 312.721 257.262 313.679 254.437 313.413C246.959 312.731 235.411 305.396 227.703 301.907C227.214 301.685 226.92 301.177 226.974 300.646H226.964C227.008 300.225 227.268 299.854 227.649 299.66C237.957 294.48 248.631 289.344 250.783 288.512ZM187.36 289.304C189.182 287.134 191.514 286.178 194.344 286.438C201.822 287.12 213.369 294.455 221.077 297.944C221.488 298.133 221.767 298.519 221.812 298.964L221.807 298.959C221.855 299.471 221.581 299.96 221.121 300.191C210.813 305.376 200.131 310.514 197.981 311.345C195.788 312.195 193.824 312.538 192.071 312.379C189.305 312.128 187.203 310.702 185.783 308.098C184.353 305.474 183.795 302.076 184.104 297.915C184.402 293.871 185.554 291.444 187.36 289.304ZM96.0029 274.7C98.3681 274.135 100.416 274.058 102.184 274.464C104.965 275.102 106.904 276.851 107.981 279.702C109.064 282.572 109.152 286.114 108.241 290.313C107.36 294.396 105.841 296.712 103.691 298.645C101.522 300.606 99.0148 301.259 96.1699 300.598C88.6431 298.867 77.9131 289.783 70.5527 285.158C70.0828 284.863 69.8573 284.307 69.9893 283.771C70.0921 283.346 70.4104 283.003 70.8262 282.857C82.0742 279.001 93.6902 275.252 96.0029 274.7ZM324.535 269.24C324.912 269.037 325.367 269.056 325.729 269.283L337.669 276.904C341.572 279.374 344.085 281.717 345.187 283.944C346.357 286.307 346.357 288.622 345.187 290.894C344.036 293.14 341.832 295.059 338.6 296.615C335.28 298.219 332.292 298.819 329.643 298.428C327.023 298.036 325.137 296.692 323.996 294.383C323.271 292.924 322.895 291.116 322.855 288.937C322.816 286.805 323.154 280.557 323.928 270.168C323.957 269.777 324.188 269.429 324.535 269.24ZM238.639 264.571C241.459 264.48 244.108 265.075 247.526 267.321C251.047 269.631 253.418 272.154 254.638 274.879C255.847 277.58 255.7 280.098 254.201 282.403C253.251 283.867 251.767 285.182 249.735 286.375C247.741 287.545 237.036 292.731 226.537 297.587C226.106 297.785 225.601 297.721 225.234 297.422L225.244 297.427C224.882 297.132 224.726 296.663 224.833 296.214C226.782 288.076 228.002 274.512 232.062 268.249C233.584 265.886 235.779 264.658 238.639 264.571ZM321.626 268.39C321.949 268.24 322.326 268.269 322.625 268.462H322.63C322.982 268.694 323.153 269.119 323.056 269.529C321.337 276.623 320.279 288.554 316.719 294.049C315.387 296.117 313.467 297.185 310.975 297.263C308.507 297.345 306.195 296.828 303.213 294.861C300.138 292.841 298.071 290.637 297.003 288.26C295.945 285.897 296.073 283.703 297.38 281.688C298.207 280.413 299.501 279.262 301.273 278.224C303.017 277.204 312.429 272.642 321.626 268.39ZM207.286 264.93C210.983 263.142 214.29 262.528 217.159 263.079C220.063 263.635 222.188 265.268 223.525 267.964C224.784 270.511 225.166 274.401 224.687 279.62L223.271 295.688C223.232 296.137 222.957 296.533 222.546 296.731H222.541C222.125 296.929 221.635 296.896 221.248 296.645C211.155 290.01 205.176 285.912 203.251 284.375C201.288 282.809 199.897 281.2 199.069 279.528C197.762 276.89 197.85 274.256 199.334 271.646C200.832 269.008 203.487 266.766 207.286 264.93ZM31.2227 266.713C33.392 264.751 35.9 264.098 38.75 264.76C46.2769 266.49 57.0067 275.57 64.3672 280.199C64.7589 280.446 64.9892 280.881 64.9697 281.34L64.9619 281.434C64.9054 281.918 64.5703 282.332 64.0977 282.495C52.849 286.346 41.2274 290.101 38.916 290.652C36.556 291.213 34.5088 291.295 32.7412 290.889C29.9599 290.251 28.0197 288.501 26.9424 285.65C25.8554 282.775 25.7681 279.238 26.6787 275.039C27.5552 270.961 29.0732 268.646 31.2227 266.713ZM79.7832 251.447C81.6734 249.249 84.0834 248.301 87.0117 248.61C89.901 248.905 92.5161 249.877 95.6846 252.646C98.9461 255.492 101.003 258.391 101.86 261.339C102.712 264.262 102.203 266.805 100.347 268.95C99.1714 270.313 97.4719 271.448 95.2295 272.381C93.0293 273.295 81.3742 277.097 69.9795 280.591C69.5144 280.731 69.0047 280.596 68.6768 280.243H68.6719C68.3488 279.895 68.2557 279.398 68.4268 278.953C71.5755 270.927 74.7493 257.266 79.7832 251.447ZM55.0137 244.634C59.039 243.324 62.4917 243.155 65.3418 244.116C68.2211 245.083 70.1553 247.04 71.1348 249.978C72.0603 252.746 71.8942 256.763 70.6602 262.021L66.9238 278.204C66.8209 278.653 66.4826 279.021 66.0371 279.166L66.0322 279.171C65.5818 279.32 65.0819 279.218 64.7246 278.904C55.3859 270.738 49.8714 265.732 48.1279 263.896C46.3504 262.025 45.16 260.194 44.5527 258.372C43.5978 255.502 44.0641 252.829 45.9492 250.374C47.8542 247.895 50.876 245.977 55.0137 244.634ZM346.45 256.42C348.37 255.671 350.084 255.371 351.616 255.511C354.03 255.728 355.867 256.975 357.106 259.251C358.355 261.541 358.849 264.509 358.575 268.143C358.311 271.675 357.307 273.792 355.73 275.662C354.139 277.556 352.106 278.392 349.638 278.16C343.11 277.565 333.021 271.159 326.293 268.114C325.867 267.921 325.607 267.475 325.656 267.012L325.651 267.017C325.691 266.65 325.916 266.325 326.249 266.156C335.249 261.629 344.573 257.15 346.45 256.42ZM291.067 257.115C292.659 255.216 294.692 254.385 297.165 254.612C303.693 255.207 313.781 261.61 320.51 264.659C320.872 264.824 321.112 265.161 321.151 265.548V265.553C321.195 265.997 320.955 266.423 320.554 266.626C311.553 271.149 302.223 275.634 300.348 276.363C298.428 277.102 296.719 277.407 295.187 277.267C292.772 277.049 290.935 275.802 289.696 273.526C288.448 271.231 287.958 268.268 288.228 264.635C288.482 261.103 289.491 258.985 291.067 257.115ZM401.661 250.069C401.999 249.891 402.405 249.906 402.729 250.108L413.424 256.932C416.92 259.145 419.168 261.242 420.157 263.233C421.205 265.35 421.205 267.423 420.157 269.452C419.124 271.467 417.155 273.183 414.261 274.579C411.288 276.014 408.614 276.551 406.239 276.198C403.894 275.85 402.209 274.642 401.181 272.574C400.534 271.265 400.196 269.65 400.157 267.698C400.123 265.79 400.427 260.193 401.117 250.892C401.142 250.544 401.348 250.229 401.661 250.06V250.069ZM399.051 249.306C399.34 249.175 399.682 249.2 399.946 249.374L399.951 249.369C400.269 249.577 400.422 249.959 400.334 250.326C398.791 256.681 397.845 267.365 394.657 272.284C393.462 274.134 391.744 275.092 389.511 275.159C387.302 275.232 385.23 274.768 382.562 273.009C379.805 271.202 377.953 269.23 376.998 267.099C376.048 264.982 376.166 263.015 377.336 261.213C378.08 260.068 379.237 259.038 380.823 258.11C382.386 257.197 390.814 253.113 399.051 249.306ZM154.25 238.481C154.71 238.312 155.224 238.4 155.597 238.719L167.933 249.21C171.968 252.617 174.447 255.661 175.348 258.357C176.302 261.218 175.93 263.847 174.245 266.239C172.58 268.612 169.779 270.443 165.866 271.714C161.846 273.018 158.364 273.241 155.421 272.386C152.512 271.54 150.587 269.718 149.656 266.925C149.069 265.156 148.927 263.049 149.226 260.57C149.519 258.149 150.896 251.113 153.418 239.443C153.511 239.004 153.829 238.641 154.255 238.481H154.25ZM151.082 237.065C151.474 236.945 151.9 237.037 152.203 237.303V237.298C152.565 237.622 152.693 238.129 152.517 238.578C149.441 246.363 146.351 259.734 141.439 265.417C139.598 267.557 137.252 268.476 134.412 268.177C131.601 267.887 129.059 266.944 125.988 264.253C122.82 261.489 120.822 258.671 119.989 255.806C119.167 252.96 119.662 250.49 121.464 248.407C122.605 247.088 124.256 245.982 126.43 245.078C128.575 244.189 139.976 240.472 151.082 237.065ZM335.926 209.589C336.283 209.454 336.69 209.526 336.979 209.772L346.626 217.978C349.785 220.64 351.72 223.023 352.425 225.13C353.169 227.367 352.88 229.421 351.562 231.291C350.26 233.146 348.07 234.582 345.01 235.572C343.57 236.038 342.186 236.327 340.885 236.436C341.736 236.796 342.631 237.278 343.595 237.911C346.67 239.931 348.737 242.135 349.805 244.513C350.862 246.876 350.735 249.07 349.428 251.085C348.6 252.365 347.307 253.51 345.529 254.554C343.789 255.574 334.441 260.102 325.274 264.345C324.897 264.514 324.457 264.46 324.139 264.199V264.194C323.825 263.938 323.689 263.528 323.781 263.137C325.485 256.033 326.548 244.184 330.094 238.719C331.348 236.768 333.128 235.708 335.428 235.532C333.931 234.754 332.897 233.52 332.331 231.822C331.871 230.441 331.758 228.793 331.993 226.855C332.223 224.961 333.301 219.461 335.274 210.333C335.348 209.99 335.593 209.705 335.926 209.584V209.589ZM308.473 235.819C311.699 234.264 314.584 233.722 317.091 234.205C319.623 234.688 321.484 236.114 322.649 238.472C323.751 240.695 324.084 244.093 323.663 248.649L322.425 262.683C322.39 263.078 322.15 263.422 321.793 263.596L321.798 263.586C321.436 263.764 321.004 263.736 320.666 263.514C311.856 257.72 306.631 254.143 304.951 252.8C303.237 251.432 302.023 250.026 301.298 248.566C300.157 246.266 300.231 243.966 301.528 241.686C302.836 239.381 305.153 237.424 308.473 235.819ZM421.289 238.588C423.012 237.921 424.545 237.651 425.916 237.776C428.081 237.97 429.721 239.091 430.833 241.125C431.95 243.174 432.39 245.827 432.146 249.084C431.91 252.249 431.015 254.144 429.6 255.82C428.175 257.516 426.352 258.265 424.144 258.058C418.296 257.526 409.266 251.79 403.237 249.06C402.899 248.907 402.681 248.585 402.661 248.229L402.665 248.079C402.699 247.746 402.9 247.456 403.198 247.306C411.258 243.252 419.608 239.241 421.289 238.588ZM371.689 239.206C373.114 237.505 374.937 236.756 377.15 236.964C382.998 237.495 392.028 243.232 398.057 245.962C398.38 246.107 398.595 246.412 398.629 246.76L398.624 246.755C398.663 247.151 398.453 247.532 398.091 247.716C390.03 251.77 381.675 255.786 379.995 256.438C378.277 257.1 376.744 257.372 375.373 257.246C373.209 257.053 371.568 255.931 370.456 253.896C369.34 251.848 368.899 249.189 369.144 245.938C369.379 242.778 370.274 240.883 371.689 239.206ZM181.15 227.323C183.452 226.772 185.445 226.696 187.159 227.092C189.867 227.71 191.748 229.406 192.796 232.18C193.849 234.973 193.937 238.409 193.051 242.492C192.194 246.459 190.714 248.707 188.628 250.587C186.518 252.49 184.079 253.124 181.317 252.481C174.001 250.8 163.575 241.971 156.425 237.477C155.97 237.187 155.749 236.645 155.876 236.128V236.133C155.974 235.723 156.283 235.389 156.688 235.249C167.618 231.504 178.901 227.86 181.15 227.323ZM256.871 218.176C257.272 218.026 257.723 218.104 258.046 218.379L268.82 227.541C272.346 230.518 274.51 233.176 275.294 235.529C276.126 238.027 275.803 240.323 274.334 242.41C272.879 244.483 270.436 246.083 267.018 247.189C263.507 248.33 260.465 248.523 257.895 247.774C255.353 247.035 253.673 245.445 252.86 243.005C252.346 241.459 252.223 239.622 252.482 237.457C252.737 235.34 253.942 229.198 256.146 219.007C256.229 218.625 256.504 218.306 256.876 218.171L256.871 218.176ZM411.773 219.862C413.982 219.79 416.054 220.254 418.728 222.013C421.485 223.82 423.336 225.792 424.291 227.923C425.241 230.039 425.123 232.006 423.952 233.809C423.208 234.954 422.052 235.984 420.461 236.916C418.902 237.83 410.529 241.884 402.322 245.682C401.984 245.841 401.587 245.788 401.303 245.557V245.552C401.019 245.325 400.898 244.957 400.98 244.604C402.503 238.24 403.458 227.633 406.631 222.737C407.821 220.887 409.541 219.93 411.773 219.862ZM387.272 220.147C390.162 218.751 392.748 218.267 394.991 218.702C397.258 219.132 398.918 220.409 399.966 222.521C400.955 224.511 401.254 227.551 400.877 231.634L399.771 244.198C399.741 244.551 399.525 244.86 399.202 245.015H399.207C398.879 245.169 398.497 245.145 398.193 244.947C390.3 239.758 385.628 236.554 384.119 235.351C382.582 234.128 381.494 232.871 380.848 231.562C379.824 229.503 379.893 227.439 381.054 225.4C382.229 223.337 384.384 221.544 387.272 220.147ZM254.108 216.938C254.451 216.832 254.819 216.915 255.088 217.146H255.083C255.401 217.427 255.514 217.871 255.357 218.263C252.674 225.062 249.975 236.737 245.686 241.7C244.079 243.565 242.032 244.367 239.55 244.106C237.096 243.855 234.877 243.029 232.193 240.681C229.432 238.27 227.684 235.805 226.959 233.307C226.239 230.823 226.67 228.663 228.247 226.846C229.241 225.691 230.681 224.724 232.581 223.937C234.452 223.158 244.408 219.91 254.108 216.938ZM474.962 217.794C475.3 217.615 475.706 217.63 476.029 217.833L486.725 224.656C490.221 226.869 492.47 228.967 493.459 230.958C494.507 233.074 494.507 235.147 493.459 237.177C492.426 239.192 490.456 240.907 487.562 242.304C484.59 243.739 481.916 244.276 479.541 243.923C477.196 243.575 475.511 242.367 474.482 240.299C473.836 238.989 473.497 237.375 473.458 235.423C473.424 233.514 473.728 227.918 474.418 218.616C474.442 218.268 474.649 217.953 474.962 217.784V217.794ZM118.207 219.558C120.318 217.649 122.752 217.017 125.523 217.659C132.835 219.336 143.261 228.159 150.411 232.658C150.793 232.9 151.018 233.321 150.998 233.766L150.993 233.77C150.973 234.282 150.636 234.726 150.146 234.896C139.221 238.641 127.923 242.285 125.68 242.821C123.388 243.367 121.394 243.444 119.681 243.048C116.973 242.429 115.092 240.733 114.044 237.96C112.991 235.167 112.904 231.726 113.79 227.647C114.642 223.685 116.121 221.437 118.207 219.558ZM472.356 217.03C472.645 216.9 472.989 216.925 473.253 217.099L473.258 217.094C473.576 217.302 473.728 217.684 473.64 218.051C472.097 224.405 471.152 235.09 467.964 240.009C466.769 241.859 465.049 242.816 462.816 242.884C460.608 242.956 458.537 242.492 455.868 240.733C453.111 238.926 451.26 236.954 450.305 234.823C449.355 232.707 449.472 230.74 450.643 228.938C451.387 227.792 452.543 226.763 454.129 225.835C455.691 224.922 464.12 220.838 472.356 217.03ZM165.392 204.708C167.228 202.572 169.569 201.654 172.414 201.953C175.225 202.243 177.766 203.186 180.842 205.878C184.01 208.642 186.008 211.459 186.841 214.324C187.663 217.17 187.169 219.64 185.367 221.723C184.226 223.047 182.575 224.149 180.396 225.058C178.26 225.947 166.938 229.638 155.866 233.035C155.411 233.175 154.916 233.04 154.598 232.697V232.692C154.28 232.354 154.192 231.865 154.358 231.436C157.419 223.636 160.505 210.362 165.392 204.708ZM333.453 208.478C333.757 208.386 334.089 208.458 334.329 208.666H334.334C334.618 208.917 334.716 209.313 334.579 209.666C332.175 215.755 329.755 226.212 325.916 230.653C324.476 232.325 322.644 233.041 320.421 232.809C318.223 232.581 316.234 231.842 313.835 229.74C311.357 227.575 309.795 225.371 309.144 223.134C308.497 220.911 308.884 218.978 310.294 217.35C311.19 216.316 312.479 215.451 314.178 214.745C315.853 214.049 324.766 211.14 333.453 208.478ZM141.326 198.098C145.234 196.827 148.594 196.658 151.36 197.595C154.157 198.532 156.037 200.441 156.987 203.292C157.883 205.984 157.722 209.884 156.522 214.991L152.894 230.716C152.795 231.155 152.467 231.513 152.031 231.653V231.658C151.591 231.798 151.106 231.701 150.759 231.397C141.684 223.463 136.326 218.597 134.632 216.813C132.903 214.997 131.748 213.218 131.16 211.449C130.235 208.661 130.685 206.066 132.517 203.679C134.368 201.263 137.306 199.402 141.326 198.098ZM280.357 208.429C282.365 207.946 284.104 207.884 285.603 208.227C287.963 208.768 289.609 210.251 290.524 212.672C291.44 215.107 291.518 218.109 290.744 221.675C289.995 225.134 288.707 227.101 286.886 228.739C285.045 230.406 282.919 230.958 280.505 230.397C274.119 228.928 265.014 221.221 258.771 217.297C258.374 217.05 258.179 216.576 258.291 216.122H258.286C258.374 215.76 258.644 215.471 258.996 215.35C268.54 212.078 278.397 208.898 280.357 208.429ZM494.59 206.312C496.313 205.646 497.847 205.375 499.218 205.501C501.382 205.694 503.023 206.815 504.135 208.85C505.251 210.898 505.692 213.552 505.447 216.809C505.212 219.973 504.316 221.868 502.9 223.545C501.475 225.241 499.654 225.99 497.445 225.782C491.598 225.25 482.567 219.514 476.539 216.784C476.201 216.632 475.982 216.309 475.962 215.953L475.966 215.804C476 215.47 476.202 215.18 476.5 215.03C484.56 210.976 492.909 206.966 494.59 206.312ZM444.991 206.936C446.416 205.235 448.238 204.486 450.451 204.693C456.298 205.225 465.329 210.961 471.357 213.691C471.681 213.836 471.896 214.141 471.931 214.489L471.926 214.484C471.965 214.88 471.754 215.262 471.392 215.445C463.331 219.499 454.977 223.515 453.297 224.168C451.578 224.83 450.045 225.101 448.674 224.976C446.51 224.782 444.868 223.66 443.757 221.626C442.64 219.577 442.2 216.919 442.444 213.667C442.679 210.507 443.576 208.612 444.991 206.936ZM225.401 201.649C227.238 199.987 229.368 199.432 231.787 199.992C238.173 201.461 247.278 209.164 253.521 213.093C253.854 213.301 254.045 213.667 254.03 214.059H254.035C254.015 214.508 253.722 214.9 253.296 215.045C243.752 218.311 233.889 221.496 231.93 221.965C229.927 222.438 228.188 222.506 226.689 222.163C224.329 221.622 222.683 220.138 221.768 217.717C220.847 215.281 220.768 212.275 221.542 208.714C222.286 205.254 223.58 203.292 225.401 201.649ZM356.964 200.852C358.761 200.422 360.319 200.364 361.66 200.673C363.776 201.161 365.251 202.49 366.068 204.655C366.896 206.839 366.964 209.532 366.269 212.721C365.598 215.823 364.442 217.582 362.812 219.051C361.161 220.544 359.256 221.037 357.097 220.534C351.377 219.22 343.222 212.315 337.63 208.802C337.273 208.58 337.102 208.154 337.199 207.748V207.738C337.278 207.415 337.518 207.158 337.836 207.047C346.38 204.119 355.204 201.273 356.964 200.852ZM413.013 187.5C413.37 187.365 413.777 187.437 414.065 187.684L423.713 195.889C426.872 198.551 428.806 200.934 429.511 203.041C430.255 205.278 429.967 207.332 428.649 209.202C427.347 211.058 425.157 212.493 422.097 213.483C418.953 214.503 416.23 214.677 413.929 214.006C411.652 213.344 410.148 211.922 409.418 209.733C408.958 208.352 408.845 206.703 409.08 204.766C409.31 202.871 410.388 197.372 412.361 188.244C412.435 187.901 412.68 187.616 413.013 187.495V187.5ZM485.079 187.587C487.288 187.514 489.36 187.979 492.033 189.737C494.79 191.545 496.642 193.516 497.597 195.647C498.547 197.764 498.429 199.731 497.259 201.533C496.514 202.678 495.358 203.708 493.767 204.641C492.207 205.555 483.834 209.609 475.628 213.406C475.29 213.565 474.893 213.513 474.609 213.281V213.276C474.326 213.049 474.203 212.682 474.286 212.329C475.809 205.965 476.764 195.357 479.938 190.462C481.127 188.612 482.847 187.655 485.079 187.587ZM266.606 188.693C268.208 186.828 270.255 186.026 272.737 186.287C275.191 186.538 277.409 187.365 280.098 189.713C282.865 192.124 284.613 194.59 285.338 197.088C286.057 199.571 285.626 201.731 284.05 203.548C283.051 204.703 281.611 205.665 279.706 206.457C277.844 207.231 267.952 210.454 258.286 213.421C257.939 213.526 257.566 213.451 257.291 213.229L257.184 213.131C256.905 212.836 256.827 212.411 256.974 212.034C259.643 205.221 262.336 193.632 266.606 188.693ZM307.747 194.787C309.392 193.299 311.303 192.801 313.468 193.304C319.188 194.618 327.336 201.519 332.929 205.037C333.222 205.225 333.399 205.554 333.385 205.901H333.395C333.375 206.297 333.11 206.651 332.729 206.781C324.183 209.71 315.348 212.561 313.595 212.981C311.803 213.407 310.245 213.469 308.903 213.16C306.788 212.672 305.314 211.347 304.496 209.178C303.674 206.994 303.605 204.302 304.295 201.113C304.961 198.016 306.117 196.256 307.747 194.787ZM460.579 187.872C463.468 186.476 466.054 185.992 468.297 186.427C470.564 186.857 472.224 188.133 473.272 190.245C474.261 192.236 474.561 195.275 474.184 199.358L473.076 211.923C473.047 212.275 472.832 212.585 472.509 212.739H472.514C472.186 212.894 471.803 212.87 471.5 212.672C463.606 207.482 458.933 204.278 457.425 203.075C455.887 201.853 454.8 200.596 454.153 199.286C453.13 197.228 453.199 195.164 454.359 193.125C455.535 191.062 457.607 189.307 460.579 187.872ZM245.583 182.914C249.001 181.803 251.93 181.658 254.349 182.475C256.792 183.291 258.433 184.954 259.266 187.447C260.049 189.796 259.906 193.202 258.858 197.662L255.69 211.396C255.602 211.778 255.313 212.092 254.937 212.213L254.932 212.218C254.545 212.343 254.123 212.256 253.819 211.99C245.891 205.061 241.214 200.813 239.735 199.257C238.227 197.667 237.218 196.116 236.704 194.569C235.896 192.134 236.288 189.868 237.889 187.785C239.505 185.678 242.072 184.054 245.583 182.914ZM410.539 186.394C410.843 186.302 411.176 186.374 411.416 186.582H411.421C411.705 186.833 411.803 187.229 411.666 187.582C409.262 193.671 406.842 204.128 403.003 208.569C401.563 210.241 399.731 210.957 397.508 210.725C395.309 210.497 393.32 209.758 390.921 207.656C388.443 205.491 386.881 203.287 386.229 201.05C385.583 198.827 385.971 196.894 387.381 195.266C388.277 194.232 389.565 193.367 391.264 192.661C392.938 191.965 401.852 189.056 410.539 186.394ZM344.638 183.185C346.072 181.513 347.905 180.797 350.128 181.029C352.327 181.256 354.315 181.996 356.72 184.098C359.198 186.263 360.76 188.467 361.411 190.704C362.057 192.927 361.67 194.86 360.26 196.488C359.369 197.522 358.076 198.383 356.372 199.093C354.701 199.789 345.847 202.679 337.189 205.332C336.837 205.438 336.45 205.336 336.2 205.065H336.195C335.951 204.8 335.877 204.423 336.009 204.085C338.403 197.987 340.813 187.606 344.638 183.185ZM325.828 178.005C328.884 177.014 331.508 176.884 333.673 177.613C335.862 178.348 337.332 179.836 338.076 182.068C338.776 184.175 338.654 187.23 337.714 191.221L334.873 203.52C334.795 203.862 334.535 204.138 334.197 204.249L334.202 204.244C333.859 204.355 333.477 204.278 333.208 204.041C326.112 197.836 321.925 194.028 320.598 192.637C319.246 191.216 318.34 189.824 317.88 188.442C317.15 186.263 317.503 184.233 318.938 182.368C320.387 180.484 322.773 178.996 325.828 178.005ZM532.156 180.734C532.396 180.604 532.685 180.619 532.915 180.764L540.525 185.62C543.013 187.195 544.614 188.689 545.319 190.104C546.064 191.607 546.064 193.086 545.319 194.531C544.585 195.966 543.179 197.184 541.123 198.18C539.008 199.199 537.102 199.585 535.413 199.334C533.743 199.087 532.543 198.228 531.813 196.759C531.353 195.826 531.113 194.676 531.084 193.289C531.06 191.931 531.275 187.949 531.765 181.329C531.784 181.078 531.931 180.855 532.151 180.739L532.156 180.734ZM434.051 178.768C435.848 178.338 437.405 178.28 438.747 178.589C440.863 179.077 442.336 180.406 443.154 182.571C443.982 184.755 444.051 187.447 443.355 190.636C442.685 193.738 441.529 195.498 439.898 196.967C438.248 198.46 436.342 198.953 434.183 198.45C428.463 197.135 420.309 190.23 414.717 186.717C414.36 186.495 414.189 186.07 414.286 185.664V185.654C414.364 185.331 414.605 185.074 414.923 184.963C423.467 182.035 432.291 179.188 434.051 178.768ZM530.3 180.188C530.505 180.092 530.746 180.111 530.937 180.236C531.167 180.386 531.275 180.657 531.211 180.918C530.114 185.441 529.443 193.042 527.171 196.546C526.319 197.865 525.099 198.546 523.508 198.595C521.936 198.648 520.461 198.315 518.562 197.063C516.603 195.773 515.285 194.372 514.604 192.854C513.929 191.347 514.013 189.949 514.845 188.664C515.374 187.853 516.196 187.118 517.327 186.456C518.439 185.804 524.438 182.899 530.3 180.188ZM384.834 172.703C386.479 171.215 388.389 170.717 390.554 171.22C396.274 172.534 404.423 179.434 410.016 182.952C410.309 183.141 410.485 183.47 410.471 183.817H410.48C410.461 184.213 410.196 184.567 409.814 184.697C401.269 187.626 392.435 190.477 390.682 190.897C388.89 191.323 387.332 191.385 385.99 191.076C383.875 190.588 382.401 189.263 381.583 187.094C380.76 184.91 380.691 182.217 381.382 179.028C382.048 175.931 383.204 174.172 384.834 172.703ZM549.419 171.979C550.961 172.119 552.127 172.911 552.92 174.36C553.718 175.825 554.032 177.715 553.855 180.029C553.689 182.28 553.048 183.629 552.044 184.822C551.03 186.03 549.732 186.567 548.16 186.417C543.998 186.04 537.567 181.957 533.277 180.015C533.003 179.894 532.842 179.608 532.871 179.313H532.866C532.891 179.077 533.033 178.869 533.248 178.763C538.982 175.878 544.927 173.023 546.123 172.559C547.352 172.08 548.445 171.892 549.419 171.979ZM510.829 173.008C511.848 171.8 513.14 171.268 514.717 171.413C518.879 171.79 525.305 175.873 529.595 177.815C529.82 177.917 529.976 178.135 530.001 178.381H530.006C530.03 178.666 529.883 178.937 529.624 179.067C523.885 181.952 517.939 184.809 516.744 185.272C515.52 185.746 514.427 185.935 513.453 185.848C511.911 185.707 510.74 184.914 509.952 183.465C509.159 182.006 508.845 180.116 509.017 177.802C509.183 175.55 509.821 174.201 510.829 173.008ZM421.725 161.101C423.159 159.429 424.992 158.713 427.215 158.945C429.413 159.172 431.401 159.912 433.806 162.014C436.284 164.179 437.847 166.383 438.498 168.62C439.144 170.843 438.757 172.776 437.347 174.404C436.455 175.438 435.162 176.299 433.458 177.009C431.786 177.705 422.933 180.595 414.276 183.247C413.924 183.353 413.537 183.252 413.287 182.981H413.282C413.038 182.716 412.964 182.339 413.096 182.001C415.49 175.903 417.9 165.523 421.725 161.101ZM402.915 155.92C405.97 154.93 408.595 154.799 410.76 155.528C412.949 156.263 414.418 157.752 415.162 159.984C415.862 162.091 415.74 165.145 414.8 169.137L411.96 181.436C411.881 181.778 411.622 182.054 411.284 182.165L411.289 182.16C410.946 182.271 410.564 182.194 410.295 181.957C403.199 175.752 399.012 171.945 397.685 170.553C396.333 169.132 395.427 167.74 394.967 166.358C394.237 164.179 394.59 162.149 396.024 160.284C397.474 158.4 399.859 156.911 402.915 155.92ZM539.359 159.23C540.926 159.182 542.401 159.511 544.306 160.763C546.265 162.053 547.582 163.454 548.263 164.972C548.938 166.479 548.855 167.876 548.022 169.161C547.498 169.977 546.671 170.712 545.54 171.374C544.432 172.022 538.472 174.912 532.631 177.613C532.391 177.724 532.107 177.685 531.906 177.521H531.911C531.711 177.357 531.622 177.096 531.681 176.845C532.763 172.317 533.444 164.764 535.701 161.279C536.548 159.96 537.768 159.279 539.359 159.23ZM474.806 158.501C475.06 158.405 475.349 158.457 475.555 158.631L482.42 164.469C484.668 166.363 486.044 168.06 486.544 169.558C487.073 171.147 486.867 172.612 485.932 173.945C485.006 175.264 483.443 176.284 481.27 176.994C479.032 177.719 477.092 177.845 475.456 177.366C473.836 176.897 472.768 175.883 472.249 174.327C471.921 173.342 471.842 172.172 472.009 170.79C472.17 169.442 472.939 165.527 474.345 159.032C474.399 158.786 474.576 158.588 474.811 158.501H474.806ZM521.916 159.434C523.973 158.438 525.814 158.095 527.41 158.404C529.021 158.714 530.207 159.622 530.951 161.125C531.651 162.541 531.867 164.706 531.598 167.609L530.81 176.555C530.79 176.806 530.637 177.024 530.407 177.135C530.177 177.245 529.903 177.226 529.688 177.086C524.071 173.394 520.745 171.113 519.673 170.258C518.576 169.388 517.802 168.494 517.342 167.562C516.612 166.093 516.662 164.628 517.489 163.174C518.327 161.7 519.801 160.453 521.916 159.434ZM473.047 157.718C473.262 157.65 473.498 157.699 473.669 157.849L473.745 157.925C473.895 158.102 473.936 158.344 473.851 158.563C472.137 162.893 470.417 170.34 467.685 173.5C466.656 174.693 465.353 175.201 463.771 175.037C462.21 174.878 460.794 174.35 459.085 172.853C457.322 171.311 456.21 169.746 455.745 168.151C455.285 166.567 455.56 165.194 456.563 164.034C457.2 163.295 458.116 162.68 459.325 162.178C460.521 161.68 466.867 159.612 473.047 157.718ZM489.775 152.286C491.058 151.982 492.166 151.939 493.121 152.161C494.624 152.504 495.672 153.451 496.255 154.992C496.842 156.548 496.891 158.462 496.396 160.733C495.921 162.941 495.099 164.194 493.938 165.237C492.763 166.295 491.406 166.648 489.869 166.291C485.8 165.353 479.996 160.444 476.015 157.94C475.765 157.781 475.638 157.481 475.711 157.191H475.706C475.765 156.96 475.937 156.776 476.162 156.698C482.243 154.611 488.524 152.587 489.775 152.286ZM244.172 138.789C244.554 138.75 244.926 138.924 245.142 139.238L252.292 149.638C254.638 153.02 255.877 155.819 255.999 158.032C256.126 160.38 255.308 162.294 253.541 163.763C251.793 165.222 249.299 166.039 246.087 166.213C242.782 166.392 240.107 165.855 238.061 164.618C236.038 163.396 234.96 161.637 234.833 159.337C234.755 157.883 235.083 156.263 235.817 154.456C236.537 152.687 239.03 147.651 243.345 139.35C243.506 139.036 243.82 138.828 244.172 138.794V138.789ZM324.427 137.281C324.809 137.243 325.181 137.417 325.396 137.731L332.547 148.131C334.892 151.513 336.131 154.311 336.254 156.524C336.381 158.873 335.564 160.787 333.796 162.256C332.048 163.715 329.554 164.531 326.342 164.705C323.037 164.884 320.362 164.347 318.315 163.11C316.293 161.888 315.215 160.129 315.088 157.829C315.01 156.375 315.338 154.755 316.072 152.948C316.792 151.18 319.285 146.144 323.6 137.842C323.761 137.528 324.075 137.32 324.427 137.286V137.281ZM570.212 146.846C570.437 146.725 570.711 146.734 570.927 146.874L578.067 151.431C580.403 152.909 581.901 154.312 582.562 155.641C583.263 157.052 583.263 158.438 582.562 159.796C581.872 161.139 580.554 162.285 578.625 163.218C576.696 164.15 574.854 164.537 573.272 164.3C571.706 164.068 570.579 163.261 569.894 161.884C569.463 161.009 569.237 159.931 569.213 158.627C569.188 157.351 569.394 153.615 569.854 147.406C569.874 147.174 570.007 146.961 570.217 146.85L570.212 146.846ZM568.474 146.338C568.669 146.246 568.895 146.265 569.071 146.381H569.076C569.287 146.521 569.389 146.773 569.33 147.02C568.302 151.262 567.67 158.395 565.54 161.681C564.742 162.917 563.596 163.555 562.103 163.604C560.629 163.652 559.247 163.343 557.465 162.169C555.629 160.961 554.39 159.641 553.753 158.221C553.121 156.81 553.194 155.495 553.978 154.292C554.472 153.529 555.246 152.837 556.304 152.219C557.347 151.605 562.974 148.88 568.474 146.338ZM0 140.755C0.487839 140.925 0.945958 141.123 1.375 141.351C3.89199 142.68 5.30189 144.869 5.59082 147.898C5.87476 150.948 5.02822 154.389 3.04004 158.211C2.07835 160.063 1.07967 161.449 0 162.536V140.755ZM454.741 147.971C455.912 146.912 457.269 146.556 458.812 146.913C462.886 147.851 468.684 152.76 472.665 155.263C472.881 155.398 473.003 155.635 472.993 155.882H472.988C472.978 156.167 472.792 156.418 472.519 156.51C466.437 158.592 460.149 160.622 458.899 160.922C457.622 161.221 456.514 161.269 455.56 161.047C454.056 160.704 453.008 159.757 452.425 158.216C451.837 156.66 451.789 154.746 452.283 152.475C452.758 150.267 453.581 149.014 454.741 147.971ZM242.076 137.084C242.394 137.074 242.698 137.224 242.874 137.489V137.484C243.085 137.798 243.075 138.209 242.85 138.514C238.922 143.771 233.83 153.248 228.947 156.549C227.116 157.795 225.156 158.017 223.07 157.22C221.009 156.437 219.284 155.214 217.521 152.566C215.7 149.841 214.775 147.313 214.735 144.984C214.701 142.675 215.583 140.911 217.375 139.698C218.511 138.93 219.985 138.427 221.812 138.181C223.614 137.939 232.987 137.422 242.076 137.084ZM165.582 126.762C166.008 126.718 166.424 126.912 166.664 127.26L174.646 138.872C177.266 142.651 178.653 145.772 178.79 148.246C178.937 150.87 178.016 153.002 176.043 154.645C174.094 156.273 171.307 157.187 167.718 157.38C164.026 157.578 161.038 156.983 158.756 155.602C156.499 154.234 155.294 152.272 155.156 149.701C155.068 148.078 155.435 146.27 156.258 144.25C157.061 142.274 159.847 136.653 164.661 127.38C164.842 127.032 165.191 126.796 165.587 126.757L165.582 126.762ZM322.331 135.576C322.649 135.567 322.954 135.716 323.13 135.981V135.977C323.34 136.291 323.33 136.701 323.104 137.006C319.177 142.264 314.084 151.741 309.202 155.041C307.371 156.287 305.411 156.51 303.325 155.713C301.264 154.93 299.539 153.707 297.776 151.059C295.955 148.333 295.03 145.806 294.99 143.477C294.956 141.167 295.838 139.403 297.63 138.19C298.766 137.422 300.24 136.919 302.066 136.673C303.869 136.431 313.242 135.914 322.331 135.576ZM266.787 135.765C268.638 135.813 270.157 136.156 271.371 136.799C273.286 137.814 274.354 139.471 274.574 141.775C274.794 144.095 274.153 146.71 272.64 149.614C271.171 152.436 269.593 153.833 267.63 154.833C265.642 155.848 263.673 155.838 261.719 154.794C256.543 152.054 250.494 143.298 246.023 138.466C245.74 138.162 245.681 137.707 245.887 137.34V137.335C246.048 137.045 246.347 136.856 246.685 136.832C255.709 136.199 264.978 135.716 266.787 135.765ZM481.005 139.708C482.028 138.519 483.331 138.012 484.913 138.176C486.48 138.34 487.891 138.862 489.604 140.36C491.367 141.902 492.479 143.467 492.944 145.062C493.405 146.646 493.131 148.019 492.127 149.179C491.49 149.913 490.574 150.528 489.359 151.035C488.167 151.529 481.865 153.587 475.706 155.476C475.452 155.553 475.177 155.48 475.001 155.287L474.996 155.282C474.82 155.094 474.772 154.819 474.864 154.582C476.568 150.243 478.282 142.854 481.005 139.708ZM61.1396 119.986C61.6293 119.938 62.1046 120.16 62.3789 120.557L71.5225 133.855C74.5193 138.18 76.1108 141.761 76.2627 144.593C76.4291 147.598 75.3757 150.039 73.1182 151.919C70.8851 153.784 67.6971 154.833 63.584 155.051C59.4706 155.268 55.9343 154.596 53.3193 153.011C50.734 151.445 49.3571 149.194 49.1953 146.256C49.0925 144.396 49.514 142.326 50.4541 140.012C51.3748 137.745 54.5633 131.308 60.0771 120.692C60.2827 120.292 60.6845 120.025 61.1348 119.981L61.1396 119.986ZM467.611 136.025C469.79 135.315 471.657 135.223 473.199 135.745C474.756 136.267 475.804 137.325 476.333 138.915C476.832 140.413 476.739 142.588 476.073 145.429L474.051 154.181C473.997 154.427 473.811 154.625 473.571 154.702V154.707C473.327 154.784 473.057 154.731 472.866 154.562C467.813 150.146 464.835 147.435 463.89 146.444C462.925 145.434 462.283 144.443 461.955 143.457C461.436 141.906 461.691 140.461 462.709 139.133C463.737 137.79 465.374 136.75 467.611 136.025ZM347.042 134.257C348.893 134.305 350.412 134.648 351.626 135.291C353.541 136.306 354.609 137.964 354.829 140.269C355.049 142.588 354.408 145.203 352.895 148.106C351.425 150.928 349.848 152.325 347.885 153.325C345.897 154.34 343.927 154.33 341.974 153.286C336.797 150.546 330.749 141.79 326.278 136.958C325.994 136.654 325.936 136.199 326.142 135.832V135.827C326.303 135.537 326.602 135.349 326.939 135.324C335.963 134.691 345.233 134.209 347.042 134.257ZM586.407 138.635C587.847 138.765 588.944 139.514 589.688 140.872C590.433 142.244 590.726 144.013 590.564 146.188C590.408 148.299 589.81 149.57 588.865 150.687C587.91 151.817 586.696 152.32 585.222 152.18C581.319 151.827 575.29 147.996 571.265 146.174C571.006 146.058 570.854 145.792 570.883 145.517C570.907 145.295 571.04 145.101 571.24 144.999C576.621 142.293 582.195 139.611 583.317 139.176C584.468 138.731 585.492 138.553 586.407 138.635ZM550.202 139.597C551.157 138.461 552.372 137.963 553.851 138.099C557.754 138.451 563.782 142.284 567.808 144.105C568.023 144.202 568.165 144.405 568.189 144.637H568.185C568.209 144.902 568.067 145.159 567.827 145.279C562.446 147.985 556.868 150.667 555.746 151.103C554.6 151.547 553.576 151.726 552.66 151.644C551.221 151.513 550.119 150.764 549.38 149.406C548.636 148.034 548.341 146.265 548.503 144.091C548.66 141.984 549.257 140.718 550.202 139.597ZM517.195 130.067C517.435 129.98 517.705 130.023 517.896 130.188L524.335 135.663C526.441 137.441 527.739 139.031 528.204 140.438C528.703 141.931 528.507 143.303 527.631 144.555C526.759 145.791 525.3 146.748 523.258 147.415C521.157 148.096 519.34 148.213 517.803 147.764C516.285 147.324 515.281 146.371 514.791 144.912C514.483 143.989 514.409 142.887 514.565 141.597C514.717 140.33 515.438 136.657 516.755 130.564C516.804 130.338 516.97 130.15 517.19 130.062L517.195 130.067ZM163.236 124.857C163.594 124.848 163.932 125.017 164.128 125.312L164.123 125.308C164.358 125.66 164.348 126.119 164.094 126.457C159.711 132.328 154.02 142.912 148.569 146.599C146.522 147.99 144.333 148.237 142.007 147.348C139.706 146.473 137.781 145.105 135.812 142.148C133.78 139.109 132.746 136.281 132.702 133.682C132.663 131.101 133.653 129.129 135.65 127.776C136.919 126.916 138.565 126.356 140.606 126.08C142.619 125.809 153.085 125.234 163.236 124.857ZM515.54 129.328C515.746 129.265 515.966 129.313 516.128 129.453H516.123C516.314 129.617 516.382 129.888 516.289 130.12C514.683 134.184 513.072 141.167 510.506 144.134C509.546 145.25 508.321 145.729 506.838 145.574C505.369 145.424 504.042 144.931 502.44 143.525C500.79 142.081 499.746 140.606 499.311 139.113C498.88 137.63 499.139 136.339 500.079 135.252C500.672 134.561 501.534 133.986 502.67 133.513C503.786 133.049 509.742 131.106 515.54 129.328ZM190.832 123.389C192.898 123.442 194.593 123.824 195.949 124.544C198.089 125.675 199.284 127.53 199.529 130.101C199.769 132.691 199.055 135.61 197.365 138.853C195.73 142.008 193.966 143.568 191.772 144.685C189.554 145.815 187.35 145.806 185.171 144.642C179.392 141.583 172.639 131.797 167.644 126.404C167.325 126.057 167.267 125.553 167.492 125.143C167.673 124.814 168.007 124.601 168.384 124.577C178.461 123.877 188.813 123.336 190.832 123.389ZM391.739 125.162C392.009 125.138 392.273 125.259 392.43 125.481L397.518 132.885C399.187 135.291 400.069 137.282 400.157 138.857C400.25 140.529 399.663 141.887 398.409 142.936C397.165 143.974 395.392 144.555 393.101 144.681C390.75 144.806 388.845 144.429 387.391 143.545C385.951 142.675 385.187 141.423 385.094 139.785C385.035 138.751 385.27 137.596 385.794 136.311C386.308 135.049 388.081 131.468 391.151 125.559C391.269 125.336 391.49 125.186 391.739 125.162ZM58.4561 117.812C58.8625 117.797 59.2493 117.991 59.4746 118.329L59.4697 118.334C59.739 118.735 59.7245 119.262 59.4355 119.648C54.4161 126.375 47.9028 138.489 41.6592 142.713C39.3185 144.302 36.8104 144.588 34.1465 143.568C31.5072 142.568 29.3082 141.002 27.0508 137.615C24.7248 134.131 23.5394 130.894 23.4902 127.917C23.4413 124.96 24.5729 122.698 26.8643 121.151C28.3185 120.171 30.2045 119.528 32.54 119.214C34.8417 118.905 46.8304 118.242 58.4561 117.812ZM576.97 126.68C578.444 126.631 579.825 126.941 581.612 128.115C583.449 129.323 584.689 130.642 585.325 132.062C585.957 133.473 585.883 134.788 585.1 135.991C584.605 136.754 583.831 137.441 582.769 138.064C581.729 138.674 576.136 141.38 570.657 143.917C570.432 144.018 570.167 143.984 569.977 143.83C569.786 143.676 569.708 143.428 569.762 143.196C570.78 138.949 571.417 131.864 573.537 128.598C574.33 127.366 575.477 126.723 576.97 126.68ZM560.599 126.868C562.533 125.936 564.257 125.612 565.756 125.901C567.274 126.191 568.381 127.042 569.081 128.453C569.742 129.782 569.938 131.812 569.688 134.537L568.948 142.926C568.929 143.162 568.787 143.371 568.571 143.473H568.566C568.351 143.579 568.091 143.559 567.891 143.429C562.621 139.964 559.497 137.823 558.493 137.021C557.47 136.199 556.74 135.364 556.309 134.489C555.623 133.117 555.673 131.739 556.446 130.376C557.23 128.994 558.616 127.825 560.599 126.868ZM90.0576 116.121C92.4228 116.184 94.3676 116.623 95.9199 117.444C98.3684 118.739 99.7393 120.866 100.019 123.809C100.298 126.775 99.4752 130.12 97.541 133.831C95.6655 137.441 93.6469 139.234 91.1348 140.51C88.5983 141.804 86.0764 141.795 83.5791 140.461C76.9582 136.957 69.2247 125.757 63.5049 119.576C63.1378 119.185 63.0699 118.604 63.3291 118.136V118.131C63.5347 117.759 63.9169 117.513 64.3477 117.483C75.8892 116.676 87.7445 116.063 90.0576 116.121ZM390.245 123.949C390.475 123.944 390.686 124.051 390.813 124.239L390.818 124.234C390.965 124.461 390.96 124.751 390.799 124.969C388.003 128.709 384.378 135.455 380.901 137.804C379.599 138.692 378.203 138.847 376.72 138.282C375.256 137.722 374.026 136.851 372.772 134.967C371.475 133.029 370.814 131.227 370.789 129.569C370.76 127.922 371.392 126.665 372.665 125.805C373.473 125.259 374.521 124.902 375.823 124.728C377.101 124.558 383.776 124.191 390.245 123.949ZM531.245 124.244C532.445 123.959 533.484 123.915 534.38 124.123C535.795 124.447 536.774 125.337 537.322 126.781C537.871 128.241 537.915 130.033 537.455 132.164C537.009 134.232 536.235 135.407 535.148 136.388C534.047 137.383 532.777 137.717 531.333 137.379C527.513 136.499 522.067 131.893 518.336 129.545C518.097 129.395 517.979 129.11 518.047 128.84V128.845C518.101 128.627 518.263 128.453 518.474 128.381C524.178 126.429 530.073 124.525 531.245 124.244ZM407.831 123.017C409.148 123.05 410.231 123.292 411.093 123.751C412.459 124.471 413.218 125.655 413.375 127.293C413.532 128.941 413.076 130.802 411.999 132.87C410.956 134.88 409.829 135.876 408.434 136.586C407.018 137.306 405.617 137.296 404.227 136.557C400.544 134.609 396.24 128.376 393.057 124.936C392.851 124.718 392.812 124.394 392.959 124.133H392.953C393.071 123.925 393.282 123.79 393.521 123.775C399.946 123.326 406.546 122.983 407.831 123.017ZM220.861 117.256C222.849 116.241 224.819 116.251 226.777 117.295C231.954 120.035 238.002 128.792 242.473 133.624C242.712 133.88 242.796 134.242 242.688 134.575H242.684C242.561 134.957 242.218 135.228 241.812 135.257C232.787 135.89 223.511 136.373 221.704 136.325C219.858 136.277 218.339 135.934 217.125 135.291C215.21 134.276 214.137 132.618 213.922 130.313C213.702 127.994 214.348 125.38 215.856 122.476C217.321 119.654 218.898 118.256 220.861 117.256ZM0 117.417C0.284963 117.791 0.569668 118.191 0.855469 118.619C3.25498 122.205 4.47441 125.534 4.52344 128.598C4.5723 131.637 3.40713 133.962 1.05176 135.557C0.723171 135.779 0.37206 135.982 0 136.171V117.417ZM259.555 115.536C261.381 114.294 263.34 114.072 265.426 114.869C267.487 115.652 269.212 116.874 270.979 119.522C272.801 122.248 273.726 124.775 273.766 127.104C273.8 129.414 272.918 131.179 271.126 132.392C269.99 133.16 268.516 133.662 266.685 133.908C264.891 134.15 255.577 134.663 246.518 135.001C246.146 135.015 245.803 134.817 245.632 134.493H245.627C245.461 134.174 245.49 133.788 245.705 133.498C249.628 128.226 254.697 118.822 259.555 115.536ZM301.116 115.749C303.104 114.734 305.073 114.744 307.032 115.787C312.209 118.527 318.256 127.284 322.728 132.116C322.967 132.372 323.051 132.734 322.943 133.067H322.938C322.816 133.449 322.473 133.72 322.066 133.749C313.041 134.382 303.766 134.866 301.959 134.817C300.113 134.769 298.594 134.426 297.38 133.783C295.465 132.768 294.393 131.11 294.178 128.806C293.957 126.486 294.603 123.872 296.111 120.968C297.575 118.146 299.153 116.749 301.116 115.749ZM339.81 114.028C341.636 112.787 343.595 112.564 345.681 113.361C347.742 114.144 349.467 115.367 351.234 118.015C353.056 120.74 353.981 123.268 354.021 125.597C354.055 127.906 353.174 129.671 351.382 130.884C350.246 131.652 348.771 132.155 346.939 132.401C345.145 132.643 335.832 133.155 326.773 133.493C326.401 133.507 326.058 133.309 325.887 132.985H325.882C325.716 132.667 325.745 132.28 325.96 131.99C329.882 126.718 334.952 117.315 339.81 114.028ZM242.752 105.702C245.964 105.528 248.535 106.079 250.431 107.34C252.35 108.611 253.378 110.428 253.506 112.771C253.623 114.985 252.698 117.899 250.739 121.514L244.755 132.657C244.583 132.966 244.265 133.168 243.908 133.188C243.548 133.205 243.207 133.037 243.007 132.739C237.791 124.925 234.75 120.175 233.839 118.488C232.909 116.768 232.405 115.193 232.326 113.738C232.199 111.443 233.076 109.573 234.951 108.143C236.846 106.698 239.447 105.881 242.752 105.702ZM498.375 120.185C499.477 119.194 500.751 118.861 502.195 119.194C506.015 120.074 511.461 124.679 515.192 127.027C515.388 127.153 515.506 127.375 515.496 127.607L515.501 127.603C515.486 127.873 515.31 128.105 515.056 128.192C509.346 130.145 503.449 132.048 502.278 132.328C501.079 132.613 500.041 132.657 499.145 132.449C497.73 132.125 496.75 131.236 496.201 129.792C495.653 128.333 495.608 126.539 496.068 124.408C496.514 122.34 497.283 121.165 498.375 120.185ZM323.012 104.194C326.224 104.02 328.795 104.572 330.69 105.833C332.61 107.104 333.639 108.921 333.767 111.265C333.884 113.478 332.958 116.392 330.999 120.006L325.015 131.149C324.843 131.458 324.525 131.66 324.168 131.68C323.807 131.697 323.466 131.53 323.267 131.231C318.051 123.418 315.01 118.667 314.099 116.98C313.168 115.26 312.664 113.685 312.586 112.23C312.459 109.935 313.336 108.065 315.211 106.635C317.106 105.19 319.707 104.373 323.012 104.194ZM523.013 112.434C523.972 111.318 525.197 110.84 526.681 110.994C528.145 111.144 529.473 111.637 531.079 113.043C532.734 114.488 533.777 115.961 534.213 117.454C534.644 118.937 534.384 120.228 533.444 121.315C532.847 122.006 531.989 122.582 530.849 123.056C529.735 123.52 523.82 125.448 518.042 127.221C517.807 127.293 517.547 127.225 517.381 127.047H517.376C517.215 126.868 517.166 126.612 517.254 126.39C518.85 122.316 520.462 115.387 523.013 112.434ZM440.177 108.606C440.431 108.582 440.681 108.698 440.823 108.906L445.599 115.85C447.166 118.106 447.993 119.977 448.076 121.456C448.164 123.026 447.616 124.302 446.436 125.283C445.27 126.254 443.604 126.805 441.46 126.921C439.252 127.037 437.469 126.685 436.103 125.858C434.751 125.042 434.032 123.867 433.948 122.33C433.894 121.359 434.115 120.276 434.604 119.068C435.084 117.884 436.75 114.526 439.629 108.983C439.736 108.776 439.947 108.636 440.182 108.611L440.177 108.606ZM510.447 108.979C512.489 108.317 514.242 108.23 515.687 108.718C517.146 109.211 518.13 110.206 518.625 111.694C519.095 113.101 519.013 115.135 518.386 117.803L516.49 126.013C516.436 126.24 516.264 126.429 516.039 126.501V126.506C515.809 126.578 515.554 126.529 515.373 126.37C510.638 122.224 507.842 119.688 506.955 118.755C506.054 117.803 505.452 116.875 505.144 115.952C504.654 114.493 504.894 113.139 505.849 111.893C506.813 110.631 508.347 109.66 510.447 108.979ZM602.715 109.693C602.92 109.582 603.17 109.592 603.366 109.718L609.903 113.894C612.043 115.247 613.415 116.531 614.022 117.744C614.664 119.039 614.664 120.306 614.022 121.548C613.391 122.78 612.185 123.828 610.418 124.679C608.601 125.558 606.965 125.887 605.516 125.67C604.081 125.457 603.053 124.717 602.426 123.456C602.029 122.659 601.823 121.668 601.799 120.475C601.774 119.31 601.966 115.888 602.387 110.201C602.401 109.989 602.529 109.795 602.72 109.693H602.715ZM601.123 109.229C601.299 109.147 601.51 109.162 601.672 109.269L601.667 109.273C601.863 109.399 601.955 109.636 601.901 109.858C600.961 113.744 600.383 120.277 598.435 123.282C597.705 124.413 596.657 124.997 595.291 125.041C593.94 125.084 592.671 124.804 591.04 123.727C589.361 122.62 588.224 121.417 587.642 120.112C587.059 118.818 587.132 117.614 587.847 116.513C588.297 115.812 589.008 115.183 589.978 114.613C590.933 114.052 596.089 111.558 601.123 109.229ZM139.549 102.721C141.767 101.59 143.966 101.599 146.155 102.764C151.934 105.823 158.687 115.599 163.682 120.997C163.951 121.282 164.039 121.688 163.922 122.06V122.064C163.785 122.489 163.398 122.789 162.947 122.823C152.874 123.524 142.512 124.065 140.494 124.012C138.433 123.954 136.737 123.577 135.381 122.857C133.241 121.727 132.047 119.87 131.802 117.3C131.557 114.71 132.277 111.791 133.961 108.549C135.592 105.398 137.355 103.837 139.549 102.721ZM375.152 109.839C376.568 109.119 377.969 109.129 379.364 109.868C383.047 111.816 387.351 118.049 390.534 121.489C390.706 121.673 390.76 121.929 390.687 122.166C390.598 122.436 390.353 122.63 390.064 122.649C383.645 123.099 377.038 123.442 375.755 123.408C374.443 123.374 373.36 123.133 372.498 122.674C371.132 121.954 370.373 120.77 370.216 119.132C370.059 117.484 370.52 115.623 371.592 113.555C372.63 111.545 373.752 110.549 375.152 109.839ZM182.762 100.802C184.804 99.4102 186.993 99.1637 189.319 100.053C191.621 100.927 193.545 102.296 195.519 105.253C197.551 108.292 198.585 111.119 198.629 113.719C198.668 116.299 197.678 118.271 195.681 119.624C194.412 120.484 192.766 121.045 190.72 121.32C188.711 121.586 178.314 122.161 168.197 122.538C167.786 122.552 167.399 122.33 167.208 121.968H167.213C167.027 121.61 167.061 121.18 167.301 120.856C171.674 114.971 177.336 104.47 182.762 100.802ZM402.689 108.611C403.987 107.722 405.383 107.568 406.866 108.133C408.335 108.693 409.56 109.564 410.818 111.448C412.116 113.386 412.777 115.188 412.802 116.846C412.831 118.493 412.199 119.75 410.926 120.61C410.118 121.161 409.07 121.518 407.763 121.692C406.483 121.866 399.858 122.229 393.409 122.471C393.145 122.48 392.9 122.34 392.777 122.108L392.782 122.104C392.66 121.877 392.684 121.6 392.836 121.393C395.622 117.643 399.232 110.95 402.689 108.611ZM438.771 107.466C438.987 107.456 439.188 107.562 439.306 107.736H439.301C439.438 107.944 439.433 108.22 439.281 108.423C436.661 111.936 433.262 118.261 430.001 120.465C428.777 121.296 427.469 121.446 426.078 120.914C424.702 120.392 423.551 119.576 422.376 117.808C421.157 115.986 420.539 114.299 420.515 112.743C420.49 111.197 421.084 110.017 422.278 109.21C423.037 108.693 424.022 108.36 425.241 108.195C426.447 108.036 432.705 107.693 438.771 107.466ZM390.73 101.624C393.017 101.498 394.844 101.889 396.195 102.788C397.562 103.692 398.292 104.987 398.385 106.654C398.473 108.23 397.811 110.303 396.416 112.873L392.155 120.804C392.033 121.021 391.807 121.166 391.553 121.181V121.19C391.294 121.205 391.048 121.083 390.906 120.871C387.194 115.309 385.035 111.926 384.384 110.728C383.723 109.501 383.365 108.38 383.306 107.346C383.218 105.713 383.84 104.383 385.177 103.363C386.528 102.329 388.38 101.75 390.73 101.624ZM163.995 89.8135C167.585 89.6202 170.455 90.2336 172.57 91.6445C174.71 93.0603 175.861 95.0901 176.003 97.709C176.14 100.183 175.107 103.436 172.918 107.471L166.233 119.914C166.042 120.262 165.685 120.489 165.288 120.509C164.882 120.533 164.495 120.339 164.274 120.006C158.452 111.279 155.058 105.977 154.039 104.093C153.001 102.17 152.438 100.411 152.35 98.7871C152.208 96.2263 153.188 94.1385 155.283 92.5391C157.399 90.9203 160.303 90.0117 163.995 89.8135ZM455.275 106.587C456.509 106.621 457.528 106.847 458.336 107.277C459.614 107.949 460.33 109.061 460.477 110.598C460.623 112.149 460.192 113.894 459.184 115.831C458.204 117.715 457.151 118.649 455.839 119.315C454.512 119.992 453.194 119.987 451.892 119.291C448.434 117.464 444.398 111.617 441.411 108.389C441.22 108.181 441.182 107.881 441.318 107.635C441.426 107.442 441.628 107.312 441.853 107.297C447.875 106.877 454.07 106.558 455.275 106.587ZM31.3408 92.4561C33.8774 91.1563 36.4001 91.1713 38.9023 92.5049C45.5183 96.0086 53.2509 107.205 58.9707 113.386C59.2791 113.714 59.3822 114.178 59.2451 114.604L59.25 114.613C59.0931 115.101 58.6517 115.449 58.1328 115.482C46.5953 116.289 34.7245 116.904 32.418 116.846C30.0626 116.778 28.1177 116.343 26.5654 115.521C24.1173 114.226 22.746 112.1 22.4668 109.157C22.1877 106.19 23.0111 102.846 24.9404 99.1348C26.811 95.5254 28.8289 93.7318 31.3408 92.4561ZM80.8115 90.248C83.1474 88.6582 85.6505 88.3731 88.3193 89.3926C90.954 90.3929 93.1574 91.9592 95.4199 95.3467C97.746 98.8307 98.9315 102.068 98.9805 105.045C99.0244 108.002 97.8982 110.264 95.6064 111.811C94.1521 112.796 92.2711 113.439 89.9258 113.753C87.6327 114.062 75.7226 114.719 64.1367 115.149C63.667 115.164 63.2261 114.912 63.0059 114.497L63.001 114.492C62.7906 114.082 62.8298 113.589 63.1035 113.217C68.118 106.476 74.5972 94.4527 80.8115 90.248ZM617.543 102.175C618.865 102.296 619.869 102.977 620.55 104.224C621.235 105.475 621.505 107.099 621.354 109.09C621.211 111.022 620.658 112.183 619.796 113.207C618.924 114.246 617.812 114.7 616.461 114.574C612.886 114.25 607.362 110.742 603.68 109.075C603.445 108.969 603.308 108.727 603.332 108.471L603.327 108.476C603.347 108.273 603.474 108.094 603.655 108.002C608.581 105.523 613.683 103.069 614.713 102.672C615.765 102.261 616.706 102.098 617.543 102.175ZM584.39 103.054C585.261 102.015 586.373 101.556 587.729 101.682C591.304 102.006 596.828 105.513 600.511 107.181C600.712 107.272 600.844 107.456 600.863 107.669L600.858 107.674C600.883 107.92 600.751 108.153 600.53 108.264C595.604 110.738 590.496 113.198 589.468 113.594C588.42 113.999 587.48 114.163 586.643 114.086C585.321 113.965 584.316 113.284 583.636 112.037C582.955 110.786 582.685 109.162 582.832 107.171C582.974 105.238 583.523 104.078 584.39 103.054ZM554.541 97.6465C554.761 97.5643 555.006 97.6081 555.183 97.7578L561.079 102.773C563.009 104.402 564.194 105.857 564.625 107.147C565.08 108.515 564.903 109.771 564.096 110.916C563.297 112.051 561.96 112.926 560.09 113.535C558.166 114.158 556.5 114.265 555.095 113.854C553.704 113.449 552.784 112.578 552.338 111.245C552.054 110.4 551.99 109.394 552.132 108.21C552.269 107.05 552.93 103.686 554.135 98.1104C554.179 97.9028 554.331 97.7288 554.536 97.6514L554.541 97.6465ZM59.3232 77.6738C63.4366 77.4564 66.7224 78.1577 69.1465 79.7715C71.5951 81.4 72.9077 83.7198 73.0742 86.7207C73.2307 89.5523 72.0461 93.2782 69.5391 97.8975L61.8848 112.148C61.6692 112.544 61.257 112.806 60.8018 112.83V112.825C60.3369 112.849 59.8961 112.631 59.6416 112.25C52.9771 102.257 49.0888 96.1831 47.9229 94.0273C46.733 91.8289 46.0864 89.8134 45.9834 87.9531C45.8218 85.0201 46.9435 82.6273 49.3428 80.7959C51.7717 78.9452 55.0972 77.901 59.3232 77.6738ZM553.033 96.9697C553.219 96.9167 553.42 96.9606 553.566 97.0859H553.562C553.738 97.2406 553.797 97.4876 553.714 97.7002C552.245 101.421 550.77 107.814 548.42 110.529C547.539 111.553 546.417 111.989 545.061 111.849C543.719 111.713 542.504 111.259 541.035 109.974C539.517 108.65 538.562 107.302 538.165 105.935C537.773 104.577 538.009 103.392 538.87 102.396C539.418 101.764 540.207 101.232 541.245 100.802C542.269 100.377 547.725 98.5982 553.033 96.9697ZM608.904 91.2246C610.256 91.1811 611.52 91.4615 613.155 92.5391C614.835 93.6456 615.971 94.8487 616.554 96.1533C617.136 97.4483 617.064 98.6522 616.349 99.7539C615.893 100.454 615.187 101.082 614.213 101.652C613.256 102.209 608.14 104.693 603.121 107.012C602.916 107.108 602.675 107.075 602.499 106.935C602.328 106.795 602.255 106.567 602.304 106.354C603.239 102.465 603.822 95.9748 605.761 92.9834C606.49 91.8529 607.538 91.2683 608.904 91.2246ZM424.619 94.2305C425.941 93.554 427.259 93.5582 428.566 94.2539C432.024 96.0807 436.059 101.928 439.046 105.156C439.203 105.33 439.261 105.572 439.188 105.794H439.192C439.109 106.05 438.879 106.229 438.61 106.248C432.582 106.668 426.386 106.993 425.182 106.959C423.953 106.925 422.934 106.698 422.126 106.268C420.848 105.596 420.133 104.484 419.986 102.947C419.84 101.396 420.271 99.6513 421.279 97.7139C422.254 95.8297 423.307 94.8973 424.619 94.2305ZM593.924 91.3984C595.692 90.5432 597.274 90.248 598.646 90.5137C600.031 90.7747 601.045 91.5576 601.687 92.8477C602.289 94.0654 602.469 95.9265 602.239 98.4199L601.563 106.104C601.544 106.316 601.411 106.504 601.216 106.601C601.02 106.697 600.785 106.683 600.599 106.562C595.775 103.388 592.916 101.43 591.995 100.695C591.055 99.9415 590.389 99.1781 589.992 98.376C589.365 97.115 589.41 95.8539 590.119 94.6074C590.839 93.3464 592.156 92.2537 593.924 91.3984ZM450.456 93.0703C451.675 92.244 452.983 92.0945 454.374 92.626C455.75 93.1478 456.901 93.9641 458.081 95.7324C459.3 97.5541 459.918 99.241 459.942 100.797C459.967 102.343 459.374 103.523 458.18 104.33C457.421 104.847 456.436 105.18 455.212 105.345C454.011 105.504 447.791 105.847 441.744 106.074C441.495 106.084 441.264 105.953 441.151 105.736L441.156 105.731C441.044 105.514 441.069 105.258 441.211 105.064C443.831 101.542 447.214 95.2647 450.456 93.0703ZM439.228 86.5078C441.372 86.3919 443.086 86.759 444.354 87.5996C445.633 88.4501 446.318 89.6638 446.406 91.2295C446.489 92.708 445.868 94.6556 444.561 97.0664L440.564 104.509C440.452 104.716 440.241 104.852 440.001 104.866L440.006 104.856C439.761 104.871 439.531 104.755 439.398 104.557C435.917 99.3383 433.885 96.1682 433.277 95.042C432.656 93.897 432.318 92.8432 432.264 91.8721C432.18 90.3404 432.763 89.0935 434.017 88.1367C435.285 87.1703 437.019 86.6238 439.228 86.5078ZM567.411 92.3018C568.508 92.0361 569.463 92.0022 570.28 92.1904C571.573 92.49 572.475 93.302 572.975 94.626C573.479 95.9597 573.523 97.6035 573.097 99.5557C572.685 101.454 571.98 102.527 570.981 103.426C569.973 104.334 568.806 104.644 567.484 104.335C563.988 103.533 559.002 99.3134 555.584 97.1631C555.364 97.0278 555.261 96.7666 555.319 96.5205L555.325 96.5156C555.374 96.3178 555.521 96.1585 555.717 96.0908C560.941 94.3031 566.337 92.5583 567.411 92.3018ZM484.791 86.9043C485.026 86.8803 485.251 86.9865 485.383 87.1797L489.756 93.5391C491.191 95.6073 491.95 97.3178 492.023 98.6709C492.102 100.106 491.603 101.276 490.521 102.175C489.453 103.064 487.929 103.567 485.961 103.673C483.939 103.779 482.302 103.455 481.054 102.696C479.82 101.947 479.159 100.874 479.08 99.4678C479.031 98.5789 479.232 97.5877 479.683 96.4814C480.123 95.3988 481.647 92.3204 484.286 87.2471C484.384 87.0539 484.576 86.9287 484.791 86.9092V86.9043ZM537.312 88.6006C538.321 87.6922 539.487 87.3823 540.81 87.6914C544.306 88.4936 549.292 92.7128 552.71 94.8633C552.891 94.9793 552.999 95.1821 552.989 95.3945H552.994C552.984 95.636 552.822 95.8486 552.587 95.9307C547.362 97.7186 541.96 99.4636 540.888 99.7197C539.791 99.9805 538.836 100.019 538.019 99.8311C536.726 99.5314 535.824 98.7193 535.324 97.3955C534.82 96.0619 534.781 94.4179 535.202 92.4658C535.609 90.5723 536.314 89.4992 537.312 88.6006ZM483.508 85.8604C483.703 85.8508 483.889 85.9472 483.997 86.1064H484.002C484.134 86.2997 484.124 86.5517 483.987 86.7354C481.583 89.949 478.468 95.7428 475.486 97.7627C474.365 98.5259 473.165 98.6608 471.892 98.1729C470.628 97.6945 469.575 96.9456 468.498 95.3271C467.382 93.665 466.818 92.1178 466.793 90.6924C466.769 89.2818 467.308 88.1993 468.404 87.46C469.1 86.9913 470.001 86.6821 471.117 86.5322C472.219 86.3824 477.95 86.0681 483.508 85.8604ZM498.62 85.0527C499.751 85.0817 500.677 85.2952 501.421 85.6865C502.591 86.3099 503.248 87.3243 503.38 88.7305C503.512 90.1462 503.121 91.7462 502.195 93.5195C501.299 95.2491 500.334 96.1051 499.135 96.7139C497.921 97.3321 496.715 97.3271 495.521 96.6895C492.352 95.0174 488.654 89.6586 485.922 86.7061C485.746 86.5177 485.717 86.2369 485.839 86.0146C485.942 85.8362 486.123 85.7197 486.328 85.7051C491.846 85.3185 497.517 85.0238 498.62 85.0527ZM559.869 81.502C560.75 80.4777 561.867 80.0379 563.229 80.1826C564.575 80.3228 565.791 80.7722 567.26 82.0576C568.778 83.3816 569.732 84.7302 570.129 86.0977C570.52 87.4601 570.286 88.6394 569.424 89.6348C568.88 90.2675 568.092 90.7947 567.049 91.2295C566.029 91.6551 560.613 93.4186 555.32 95.042C555.1 95.1093 554.865 95.0468 554.713 94.8828L554.708 94.8779C554.561 94.7186 554.517 94.486 554.595 94.2783C556.059 90.5529 557.534 84.2037 559.869 81.502ZM548.361 78.3359C550.232 77.7273 551.838 77.6455 553.16 78.0947C554.497 78.5441 555.393 79.4576 555.849 80.8203C556.279 82.1105 556.201 83.9758 555.628 86.416L553.895 93.9355C553.845 94.1478 553.689 94.3172 553.483 94.3848H553.479C553.268 94.4522 553.037 94.4036 552.871 94.2588C548.533 90.4656 545.971 88.1367 545.163 87.2861C544.336 86.4164 543.787 85.5653 543.503 84.7197C543.057 83.3863 543.273 82.1442 544.149 81.0039C545.036 79.8491 546.437 78.9593 548.361 78.3359ZM470.545 73.7354C471.754 73.117 472.964 73.1221 474.159 73.7598C477.323 75.4367 481.019 80.7916 483.752 83.7441C483.899 83.9035 483.948 84.1253 483.885 84.3281H483.88C483.806 84.5598 483.595 84.7248 483.346 84.7441C477.832 85.1307 472.156 85.4255 471.054 85.3965C469.928 85.3674 469.002 85.1549 468.258 84.7637C467.088 84.1403 466.431 83.1247 466.299 81.7188C466.167 80.303 466.559 78.7029 467.484 76.9297C468.38 75.2051 469.345 74.3442 470.545 73.7354ZM622.181 70.9863C622.367 70.8897 622.587 70.8949 622.764 71.0107L628.606 74.7412C630.516 75.9492 631.746 77.0993 632.284 78.1865C632.857 79.3414 632.857 80.4775 632.284 81.5889C631.721 82.6903 630.643 83.6282 629.062 84.3916C627.436 85.1742 625.976 85.4686 624.679 85.2754C623.396 85.0869 622.475 84.4245 621.917 83.2939C621.564 82.5789 621.378 81.6947 621.358 80.6318C621.339 79.5881 621.505 76.5287 621.882 71.4453C621.897 71.2523 622.01 71.0831 622.181 70.9912V70.9863ZM620.756 70.5703C620.912 70.4979 621.098 70.513 621.245 70.6094V70.6143C621.421 70.7254 621.505 70.9377 621.456 71.1357C620.614 74.6054 620.1 80.448 618.356 83.1348C617.705 84.1444 616.764 84.6664 615.545 84.7051C614.336 84.7484 613.204 84.4926 611.745 83.5312C610.237 82.5407 609.228 81.4624 608.704 80.2979C608.185 79.1385 608.249 78.0656 608.89 77.0801C609.296 76.4569 609.928 75.8911 610.795 75.3838C611.647 74.8861 616.256 72.653 620.756 70.5703ZM494.198 72.6924C495.315 71.9289 496.515 71.7933 497.788 72.2812C499.046 72.7597 500.099 73.5092 501.182 75.1279C502.298 76.7901 502.861 78.3363 502.886 79.7617C502.91 81.1726 502.371 82.2558 501.274 82.9951C500.579 83.4636 499.678 83.7731 498.557 83.9229C497.458 84.0679 491.763 84.3811 486.226 84.5889C485.996 84.5983 485.784 84.4781 485.682 84.2803C485.579 84.0872 485.599 83.8496 485.73 83.6709C488.13 80.4479 491.226 74.703 494.198 72.6924ZM483.914 66.6758C485.883 66.5695 487.45 66.9027 488.61 67.6758C489.786 68.4538 490.413 69.5609 490.491 70.9961C490.564 72.3491 490.001 74.1328 488.802 76.3408L485.144 83.1543C485.046 83.3425 484.849 83.4679 484.629 83.4775L484.619 83.4824C484.399 83.4967 484.188 83.3905 484.065 83.207C480.878 78.4281 479.021 75.5235 478.463 74.4941C477.895 73.441 477.587 72.4788 477.538 71.5898C477.46 70.1888 477.999 69.0435 479.145 68.1689C480.305 67.2848 481.892 66.7821 483.914 66.6758ZM579.184 61.9307C579.379 61.8582 579.6 61.897 579.757 62.0322L585.031 66.5166C586.755 67.9711 587.817 69.2757 588.199 70.4258C588.606 71.6483 588.449 72.7695 587.729 73.7939C587.019 74.8085 585.819 75.5917 584.149 76.1328C582.431 76.6883 580.942 76.7851 579.684 76.418C578.44 76.0555 577.616 75.2773 577.22 74.084C576.97 73.3303 576.907 72.4262 577.034 71.3682C577.157 70.3341 577.749 67.3276 578.826 62.3408C578.865 62.1528 579.003 61.9984 579.184 61.9307ZM635.433 64.2695C636.618 64.3758 637.514 64.9892 638.121 66.1006C638.733 67.2217 638.973 68.6719 638.841 70.4502C638.713 72.1797 638.224 73.2187 637.45 74.1318C636.672 75.0593 635.677 75.4705 634.468 75.3545C631.275 75.0594 626.339 71.9287 623.043 70.4355C622.833 70.3438 622.705 70.1261 622.729 69.8994H622.72C622.739 69.7208 622.852 69.5607 623.014 69.4785C627.42 67.2657 631.979 65.0721 632.901 64.7139C633.846 64.3468 634.684 64.202 635.433 64.2695ZM605.805 65.0566C606.583 64.1242 607.578 63.7181 608.787 63.8291C611.985 64.119 616.916 67.2508 620.212 68.7441C620.388 68.8214 620.506 68.9903 620.525 69.1787L620.53 69.1836C620.55 69.4009 620.432 69.6095 620.236 69.7109C615.834 71.9239 611.27 74.1179 610.35 74.4756C609.41 74.8427 608.571 74.9876 607.822 74.9199C606.637 74.8135 605.741 74.1991 605.134 73.0879C604.522 71.9669 604.282 70.5171 604.414 68.7393C604.541 67.0096 605.031 65.9747 605.805 65.0566ZM577.832 61.3262C577.999 61.273 578.18 61.3118 578.312 61.4277V61.4326C578.464 61.5679 578.518 61.7853 578.444 61.9785C577.127 65.3033 575.81 71.0206 573.709 73.4463C572.926 74.3592 571.921 74.7505 570.707 74.625C569.507 74.4993 568.42 74.0982 567.107 72.9482C565.756 71.7645 564.903 70.5612 564.546 69.3389C564.193 68.1261 564.409 67.0668 565.178 66.1777C565.662 65.6125 566.369 65.1395 567.299 64.7529C568.215 64.371 573.087 62.7805 577.832 61.3262ZM518.008 58.7559C518.218 58.7365 518.42 58.828 518.537 59.002L522.445 64.6846C523.728 66.5352 524.404 68.0625 524.473 69.2705C524.541 70.5557 524.095 71.6003 523.131 72.4023C522.176 73.1994 520.813 73.6484 519.056 73.7402C517.249 73.8367 515.789 73.5475 514.668 72.8711C513.562 72.2044 512.974 71.2423 512.905 69.9863C512.861 69.194 513.043 68.304 513.444 67.3184C513.836 66.3517 515.202 63.5966 517.558 59.0596C517.646 58.8908 517.817 58.7754 518.008 58.7559ZM516.862 57.8232C517.038 57.8185 517.2 57.9001 517.298 58.0449H517.303C517.415 58.214 517.41 58.4412 517.288 58.6055C515.138 61.4808 512.356 66.6615 509.688 68.4639C508.684 69.1447 507.616 69.2657 506.476 68.8311C505.349 68.4058 504.409 67.7385 503.444 66.2891C502.45 64.796 501.941 63.4134 501.921 62.1426C501.897 60.8818 502.381 59.9149 503.36 59.2529C503.982 58.8326 504.786 58.5572 505.785 58.4219C506.771 58.2914 511.897 58.0068 516.862 57.8232ZM627.71 54.4834C628.915 54.4447 630.046 54.6967 631.51 55.6582C633.018 56.644 634.028 57.7211 634.552 58.8857C635.071 60.0454 635.007 61.1188 634.365 62.1045C633.959 62.7276 633.326 63.2887 632.455 63.8008C631.606 64.2995 627.027 66.5116 622.543 68.5889C622.357 68.6754 622.142 68.6469 621.985 68.5215C621.829 68.396 621.765 68.1979 621.809 68.0049C622.641 64.5258 623.166 58.7311 624.899 56.0537C625.551 55.0442 626.491 54.5222 627.71 54.4834ZM614.321 54.6387C615.903 53.8753 617.313 53.6092 618.542 53.8457C619.781 54.0825 620.688 54.7787 621.261 55.9336C621.799 57.0256 621.96 58.6831 621.755 60.915L621.147 67.7822C621.133 67.9705 621.015 68.1396 620.839 68.2266L620.844 68.2314C620.668 68.3132 620.457 68.2993 620.291 68.1934C615.977 65.3573 613.421 63.6076 612.598 62.9502C611.76 62.2786 611.162 61.5921 610.81 60.877C610.251 59.7513 610.286 58.6248 610.922 57.5088C611.563 56.383 612.696 55.4215 614.321 54.6387ZM590.683 57.1562C591.667 56.9244 592.514 56.8906 593.248 57.0596C594.404 57.3254 595.213 58.0504 595.658 59.2344C596.108 60.4277 596.143 61.8967 595.766 63.6406C595.398 65.3364 594.766 66.2985 593.875 67.1006C592.974 67.9121 591.931 68.1884 590.751 67.9131C587.627 67.1929 583.17 63.4232 580.114 61.5C579.919 61.3792 579.825 61.1469 579.879 60.9248V60.9209C579.923 60.7472 580.056 60.6021 580.227 60.5439C584.898 58.9447 589.722 57.3838 590.683 57.1562ZM530.373 57.1074C531.382 57.1364 532.215 57.3202 532.876 57.6729C533.924 58.2286 534.511 59.1372 534.629 60.3936C534.751 61.6595 534.399 63.09 533.571 64.6748C532.768 66.216 531.906 66.9804 530.834 67.5264C529.747 68.0818 528.669 68.077 527.602 67.5068C524.771 66.0086 521.465 61.2194 519.021 58.5811C518.865 58.4121 518.836 58.1608 518.948 57.9629V57.9678C519.036 57.8086 519.203 57.7071 519.384 57.6924C524.319 57.3446 529.382 57.0834 530.373 57.1074ZM563.782 53.8408C564.683 53.0292 565.721 52.7541 566.906 53.0293C570.031 53.7493 574.487 57.518 577.543 59.4414C577.705 59.5428 577.803 59.7266 577.793 59.915H577.798C577.788 60.1371 577.646 60.326 577.436 60.3984C572.769 61.9979 567.939 63.559 566.979 63.7861C565.996 64.0178 565.148 64.0518 564.414 63.8828C563.259 63.617 562.451 62.8916 562.005 61.708C561.554 60.5145 561.52 59.0451 561.896 57.3008C562.259 55.605 562.891 54.6429 563.782 53.8408ZM583.948 47.5059C584.732 46.5926 585.737 46.2007 586.951 46.3262C588.151 46.4519 589.233 46.854 590.55 48.0039C591.906 49.1878 592.759 50.3907 593.116 51.6133C593.464 52.8261 593.253 53.8844 592.484 54.7734C591.995 55.3386 591.289 55.8127 590.359 56.1992C589.447 56.5765 584.604 58.157 579.874 59.6064C579.683 59.664 579.473 59.6056 579.336 59.4609V59.4658C579.199 59.321 579.159 59.1131 579.232 58.9297C580.54 55.5957 581.858 49.9225 583.948 47.5059ZM573.66 44.6641C575.334 44.1231 576.764 44.0504 577.949 44.4512C579.144 44.8522 579.948 45.6691 580.354 46.8867C580.741 48.0368 580.672 49.7046 580.158 51.8887L578.605 58.6104C578.561 58.7986 578.424 58.9538 578.238 59.0117H578.233C578.048 59.0741 577.837 59.0306 577.69 58.9004C573.812 55.5084 571.525 53.4307 570.8 52.667C570.06 51.8891 569.565 51.1249 569.315 50.3711C568.919 49.1827 569.111 48.0711 569.894 47.0518C570.687 46.0177 571.986 45.2053 573.66 44.6641ZM505.271 46.9834C506.353 46.4278 507.431 46.4328 508.503 47.0029C511.333 48.501 514.638 53.2854 517.082 55.9287C517.214 56.0688 517.259 56.2666 517.2 56.4502L517.195 56.4453C517.131 56.6528 516.94 56.8029 516.72 56.8174C511.789 57.1653 506.715 57.4265 505.73 57.4023C504.722 57.3733 503.889 57.1896 503.229 56.8369C502.181 56.2812 501.593 55.3724 501.476 54.1162C501.358 52.8503 501.706 51.4197 502.533 49.835C503.336 48.2937 504.198 47.5294 505.271 46.9834ZM526.417 46.0508C527.416 45.3698 528.483 45.249 529.624 45.6836C530.75 46.1088 531.695 46.776 532.66 48.2256C533.654 49.7188 534.164 51.1012 534.184 52.3721C534.203 53.6331 533.722 54.5998 532.743 55.2617C532.121 55.6818 531.318 55.9575 530.314 56.0928C529.328 56.2233 524.241 56.5039 519.291 56.6875C519.091 56.6921 518.9 56.5856 518.807 56.4072V56.4121C518.714 56.2336 518.733 56.0256 518.851 55.8662C520.991 52.9863 523.763 47.8487 526.417 46.0508ZM517.234 40.6729C518.992 40.5762 520.393 40.8754 521.432 41.5664C522.48 42.2574 523.043 43.2537 523.111 44.5342C523.175 45.747 522.67 47.3375 521.598 49.3135L518.326 55.4014C518.238 55.5702 518.062 55.6817 517.866 55.6914V55.6963C517.671 55.7058 517.479 55.6143 517.371 55.4502C514.521 51.1786 512.861 48.5832 512.361 47.6602C511.852 46.723 511.578 45.8577 511.534 45.0654C511.466 43.8141 511.946 42.7896 512.969 42.0068C514.007 41.2144 515.428 40.7696 517.234 40.6729ZM630.972 33.9023C631.114 33.8252 631.28 33.835 631.412 33.917L635.849 36.749C637.298 37.6672 638.234 38.5369 638.646 39.3633C639.081 40.2426 639.081 41.1027 638.646 41.9434C638.214 42.7791 637.396 43.4905 636.196 44.0703C634.997 44.6498 633.851 44.8908 632.867 44.7412C631.893 44.5962 631.192 44.0942 630.766 43.2393C630.496 42.6981 630.355 42.0255 630.34 41.2139C630.325 40.4213 630.452 38.1016 630.736 34.2412C630.746 34.0964 630.835 33.9652 630.962 33.8975L630.972 33.9023ZM629.889 33.584C630.011 33.5309 630.149 33.5399 630.262 33.6123C630.394 33.6993 630.457 33.8591 630.418 34.0088C629.777 36.6473 629.385 41.0839 628.062 43.123C627.568 43.8908 626.853 44.2873 625.928 44.3164C625.012 44.3453 624.149 44.1522 623.043 43.4229C621.902 42.6691 621.133 41.8519 620.736 40.9678C620.345 40.0934 620.394 39.2762 620.878 38.5273C621.181 38.0491 621.667 37.6238 622.323 37.2373C622.975 36.8604 626.471 35.164 629.889 33.584ZM540.761 27.9873C540.917 27.9729 541.074 28.0455 541.162 28.1709L544.13 32.4863C545.104 33.8924 545.618 35.0526 545.667 35.9707C545.721 36.9467 545.378 37.7398 544.648 38.3486C543.924 38.9522 542.89 39.2957 541.554 39.3633C540.183 39.4357 539.071 39.2133 538.224 38.7012C537.386 38.1938 536.936 37.4634 536.887 36.5068C536.853 35.903 536.99 35.231 537.293 34.4824C537.592 33.7479 538.626 31.66 540.418 28.2148C540.486 28.0846 540.614 27.998 540.761 27.9834V27.9873ZM593.028 26.3779C593.175 26.325 593.346 26.3547 593.464 26.4561L597.47 29.8623C598.782 30.9689 599.585 31.9554 599.874 32.8301C600.182 33.7577 600.065 34.6127 599.517 35.3857C598.978 36.1539 598.067 36.7486 596.799 37.1641C595.496 37.5891 594.365 37.6572 593.41 37.3818C592.465 37.1064 591.843 36.5166 591.539 35.6084C591.348 35.0335 591.304 34.3517 591.397 33.5449C591.491 32.7573 591.941 30.4758 592.759 26.6875C592.788 26.5476 592.892 26.4264 593.028 26.3779ZM641.035 28.7998C641.936 28.882 642.617 29.3458 643.077 30.1914C643.537 31.0467 643.724 32.1441 643.621 33.4971C643.523 34.8062 643.15 35.5943 642.562 36.29C641.97 36.9949 641.216 37.3046 640.301 37.2178C637.872 36.9953 634.125 34.6132 631.623 33.4824C631.486 33.419 631.394 33.2846 631.386 33.1357L631.388 33.0762C631.402 32.9411 631.486 32.8197 631.608 32.7568C634.952 31.0757 638.414 29.409 639.115 29.1377C639.83 28.8575 640.467 28.7467 641.035 28.7998ZM618.527 29.3984C619.12 28.6931 619.875 28.379 620.795 28.4658C623.224 28.6881 626.97 31.0703 629.473 32.2012C629.61 32.2592 629.698 32.3853 629.713 32.5303H629.703C629.723 32.6992 629.634 32.8544 629.482 32.9316C626.138 34.613 622.671 36.2799 621.976 36.5508C621.261 36.8309 620.624 36.9418 620.056 36.8887C619.155 36.8064 618.474 36.3425 618.014 35.4971C617.553 34.6419 617.367 33.5402 617.47 32.1924C617.568 30.8831 617.94 30.0942 618.527 29.3984ZM592.005 25.9189C592.132 25.8805 592.269 25.9102 592.367 25.9971L592.362 26.002C592.48 26.1083 592.524 26.2722 592.465 26.417C591.466 28.9396 590.466 33.2792 588.87 35.125C588.273 35.8157 587.508 36.1152 586.588 36.0186C585.677 35.9218 584.854 35.6176 583.855 34.7432C582.832 33.8493 582.181 32.9306 581.911 32.0029C581.647 31.0803 581.809 30.2779 582.392 29.6016C582.764 29.1717 583.298 28.8142 584.003 28.5195C584.699 28.2294 588.401 27.0254 592.005 25.9189ZM539.889 27.2773C540.021 27.2725 540.148 27.3353 540.222 27.4463L540.217 27.4414C540.305 27.5719 540.3 27.7416 540.207 27.8672C538.576 30.0515 536.466 33.9802 534.438 35.3525C533.68 35.8693 532.866 35.9613 531.999 35.6328C531.142 35.309 530.428 34.8007 529.698 33.6992C528.944 32.5686 528.557 31.5201 528.542 30.5537C528.527 29.5973 528.895 28.8629 529.639 28.3604C530.109 28.0415 530.722 27.833 531.48 27.7314C532.225 27.63 536.118 27.4175 539.889 27.2773ZM550.153 26.7314C550.917 26.7508 551.549 26.8954 552.054 27.1611C552.847 27.5815 553.288 28.2679 553.381 29.2246C553.474 30.1861 553.204 31.2736 552.577 32.4766C551.97 33.6456 551.314 34.2261 550.501 34.6416C549.678 35.0617 548.856 35.0569 548.048 34.627C545.903 33.4912 543.39 29.8579 541.534 27.8525C541.412 27.7222 541.393 27.5335 541.476 27.3838C541.544 27.2631 541.672 27.1856 541.809 27.1758C545.554 26.9101 549.403 26.7122 550.153 26.7314ZM635.173 21.3623C636.089 21.3333 636.946 21.5272 638.058 22.2568C639.198 23.0106 639.968 23.8268 640.364 24.7109C640.756 25.5854 640.707 26.4025 640.223 27.1514C639.914 27.6296 639.433 28.0559 638.772 28.4424C638.124 28.8251 634.653 30.5064 631.246 32.0811C631.109 32.1436 630.942 32.1239 630.824 32.0273V32.0225C630.707 31.9307 630.658 31.7755 630.692 31.6309C631.324 28.9877 631.721 24.5854 633.038 22.5557C633.533 21.7878 634.248 21.3915 635.173 21.3623ZM625.002 21.4834C626.201 20.9037 627.274 20.7053 628.204 20.8838C629.144 21.0626 629.836 21.5942 630.271 22.4688C630.683 23.2951 630.805 24.5569 630.648 26.2529L630.188 31.4668C630.173 31.6116 630.085 31.7429 629.953 31.8057C629.816 31.8682 629.658 31.8584 629.531 31.7764C626.256 29.6217 624.317 28.2928 623.689 27.7949C623.053 27.2828 622.602 26.7599 622.333 26.2188C621.912 25.3637 621.941 24.5084 622.421 23.6631C622.906 22.8079 623.768 22.0777 625.002 21.4834ZM601.755 22.7588C602.499 22.5849 603.146 22.5561 603.704 22.6865C604.581 22.8895 605.192 23.4403 605.53 24.3389C605.873 25.2425 605.903 26.3596 605.614 27.6836C605.335 28.9685 604.854 29.6989 604.179 30.3076C603.498 30.9208 602.704 31.1286 601.809 30.9209C599.438 30.3746 596.055 27.5091 593.733 26.0498C593.587 25.9581 593.518 25.784 593.557 25.6152H593.552C593.586 25.485 593.685 25.3737 593.816 25.3301C597.361 24.1174 601.024 22.9332 601.755 22.7588ZM581.334 20.2363C582.019 19.6229 582.808 19.4154 583.709 19.623C586.079 20.1644 589.463 23.0299 591.784 24.4893C591.907 24.5666 591.98 24.7017 591.976 24.8467H591.971C591.966 25.0155 591.858 25.1607 591.696 25.2139C588.151 26.4267 584.487 27.6112 583.758 27.7852C583.014 27.959 582.367 27.9879 581.809 27.8574C580.932 27.6544 580.32 27.1027 579.982 26.2041C579.64 25.3006 579.61 24.1841 579.898 22.8604C580.178 21.5753 580.658 20.8451 581.334 20.2363ZM531.094 19.0527C531.916 18.6325 532.734 18.6375 533.547 19.0674C535.697 20.203 538.205 23.8364 540.061 25.8418C540.158 25.9481 540.192 26.0982 540.148 26.2383C540.099 26.3926 539.952 26.5088 539.786 26.5186C536.041 26.7843 532.191 26.9821 531.441 26.9629C530.678 26.9435 530.045 26.7989 529.541 26.5332C528.748 26.1128 528.302 25.4263 528.214 24.4697C528.121 23.5083 528.39 22.4207 529.017 21.2178C529.624 20.0486 530.281 19.4683 531.094 19.0527ZM547.146 18.3379C547.901 17.8257 548.713 17.734 549.58 18.0625C550.437 18.3863 551.152 18.8982 551.887 19.9951C552.641 21.1258 553.028 22.1742 553.043 23.1406C553.058 24.0972 552.69 24.8325 551.945 25.335C551.475 25.6536 550.863 25.8615 550.104 25.9629C549.359 26.0644 545.495 26.2769 541.735 26.417C541.584 26.4216 541.437 26.3398 541.368 26.2051C541.3 26.07 541.315 25.9098 541.402 25.7891C543.028 23.605 545.129 19.701 547.146 18.3379ZM540.173 14.249C541.51 14.1765 542.573 14.4088 543.361 14.9307C544.154 15.4622 544.58 16.2163 544.634 17.1875C544.688 18.1056 544.301 19.3187 543.488 20.8164L541.005 25.4414C540.931 25.5714 540.799 25.6534 540.652 25.6631V25.6582C540.501 25.6627 540.358 25.5951 540.275 25.4697C538.111 22.2282 536.848 20.2568 536.471 19.5557C536.089 18.8407 535.878 18.1878 535.844 17.584C535.795 16.637 536.157 15.858 536.936 15.2637C537.719 14.6597 538.802 14.3216 540.173 14.249ZM596.657 15.4238C597.25 14.733 598.013 14.4329 598.934 14.5293C599.844 14.6211 600.668 14.9262 601.667 15.8008C602.695 16.6946 603.347 17.6124 603.616 18.54C603.881 19.4629 603.718 20.2659 603.136 20.9424C602.764 21.3721 602.229 21.7298 601.52 22.0244C600.822 22.3149 597.15 23.5129 593.557 24.6143C593.41 24.6574 593.248 24.6147 593.146 24.5039H593.155C593.053 24.3977 593.024 24.2376 593.077 24.0977C594.071 21.5657 595.071 17.2604 596.657 15.4238ZM588.841 13.2686C590.109 12.853 591.202 12.7992 592.098 13.1035C593.004 13.408 593.615 14.0273 593.924 14.9551C594.213 15.8297 594.164 17.0957 593.772 18.7529L592.592 23.8555C592.557 24.0001 592.455 24.1166 592.313 24.1602V24.1553C592.172 24.2033 592.014 24.1698 591.901 24.0732C588.954 21.4983 587.216 19.9229 586.667 19.3428C586.109 18.7533 585.731 18.1775 585.54 17.6025C585.242 16.6992 585.389 15.853 585.981 15.0801C586.584 14.2976 587.539 13.6937 588.841 13.2686ZM636.045 5.69141C636.162 5.62861 636.3 5.63366 636.412 5.70605L640.07 8.04004C641.265 8.7987 642.034 9.51396 642.372 10.1953C642.729 10.92 642.729 11.6304 642.372 12.3213C642.019 13.012 641.343 13.5969 640.354 14.0752C639.336 14.5679 638.425 14.7516 637.612 14.6309C636.809 14.51 636.231 14.0989 635.884 13.3936C635.663 12.9443 635.545 12.3932 635.535 11.7266C635.52 11.074 635.629 9.16033 635.864 5.97656C635.874 5.85602 635.942 5.74948 636.05 5.69141H636.045ZM635.153 5.4248C635.251 5.38137 635.364 5.39145 635.457 5.44922L635.522 5.50879C635.582 5.58196 635.607 5.67917 635.585 5.77344C635.061 7.94326 634.737 11.6017 633.646 13.2832C633.239 13.9156 632.651 14.2443 631.888 14.2686C631.134 14.2926 630.427 14.1381 629.512 13.5342C628.572 12.9157 627.94 12.2432 627.612 11.5137C627.289 10.7891 627.328 10.1174 627.729 9.49902C627.979 9.10772 628.377 8.75441 628.92 8.43555C629.455 8.12578 632.338 6.72911 635.153 5.4248ZM556.583 3.96094C556.715 3.94644 556.843 4.0099 556.916 4.11621L559.36 7.67285C560.163 8.82754 560.584 9.78924 560.628 10.543C560.672 11.3449 560.393 12.0024 559.786 12.5C559.189 12.9975 558.336 13.278 557.234 13.3359C556.103 13.3986 555.187 13.2152 554.487 12.79C553.797 12.3697 553.43 11.7699 553.386 10.9824C553.356 10.4848 553.469 9.92885 553.724 9.31055C553.969 8.70643 554.82 6.98065 556.299 4.14453C556.353 4.03844 556.461 3.96596 556.583 3.95605V3.96094ZM555.863 3.37598C555.976 3.37116 556.079 3.4248 556.138 3.5166V3.50684C556.211 3.61304 556.206 3.75793 556.128 3.85938C554.786 5.66177 553.043 8.89929 551.373 10.0303C550.746 10.4552 550.079 10.5284 549.364 10.2578C548.655 9.99204 548.067 9.57602 547.465 8.66797C546.843 7.7356 546.53 6.87039 546.515 6.07324C546.5 5.28578 546.804 4.6812 547.416 4.26562C547.803 4.00488 548.307 3.8312 548.934 3.74902C549.546 3.66688 552.754 3.49195 555.863 3.37598ZM564.32 2.92676C564.952 2.94125 565.472 3.0572 565.888 3.2793C566.544 3.62237 566.912 4.19289 566.985 4.98047C567.064 5.77772 566.843 6.67259 566.324 7.66309C565.82 8.62913 565.28 9.10717 564.609 9.4502C563.929 9.79296 563.253 9.794 562.587 9.43652C560.819 8.49886 558.748 5.50219 557.22 3.84961C557.122 3.74345 557.103 3.58834 557.171 3.46289C557.23 3.36175 557.333 3.29886 557.445 3.28906C560.529 3.07655 563.701 2.91245 564.32 2.92676ZM644.341 1.48242C645.08 1.5501 645.639 1.93129 646.021 2.62695C646.402 3.32758 646.554 4.23639 646.471 5.34766C646.392 6.42985 646.084 7.07834 645.6 7.65332C645.11 8.23766 644.487 8.49336 643.733 8.4209C641.735 8.23696 638.646 6.27537 636.584 5.34277C636.452 5.27998 636.373 5.14477 636.388 5.00488H636.393C636.402 4.8891 636.472 4.79247 636.574 4.73926C639.325 3.35305 642.184 1.98106 642.759 1.75781C643.346 1.53076 643.871 1.43902 644.341 1.48242ZM605.629 1.98438C606.711 2.89767 607.372 3.70968 607.612 4.42969C607.867 5.19312 607.769 5.8993 607.318 6.53711C606.873 7.16986 606.123 7.66282 605.075 8.00098C603.998 8.34869 603.068 8.40667 602.279 8.17969C601.501 7.95257 600.986 7.46452 600.736 6.7207C600.58 6.24725 600.541 5.68135 600.619 5.01953C600.692 4.41678 601.017 2.74597 601.606 0H603.296L605.629 1.98438ZM625.795 1.97461C626.28 1.39006 626.902 1.13371 627.661 1.20605C629.659 1.38976 632.749 3.35247 634.811 4.28516C634.918 4.33348 634.997 4.43485 635.007 4.55566V4.56055C635.021 4.69561 634.947 4.82596 634.825 4.88867C632.069 6.27518 629.209 7.64746 628.636 7.87012C628.048 8.09709 627.524 8.18899 627.054 8.14551C626.315 8.07776 625.756 7.69641 625.374 7.00098C624.992 6.30043 624.841 5.39139 624.924 4.28027C625.002 3.19811 625.31 2.54955 625.795 1.97461ZM601.194 0C600.469 2.09668 599.692 4.99081 598.547 6.31445C598.052 6.88901 597.426 7.13093 596.667 7.05371C595.913 6.97634 595.237 6.72478 594.414 6.00488C593.567 5.26097 593.028 4.5122 592.808 3.74414C592.582 2.98583 592.72 2.32313 593.199 1.76758C593.503 1.41496 593.944 1.11949 594.526 0.87793C594.827 0.753545 595.812 0.420482 597.108 0H601.194ZM643.747 0C643.723 0.0429306 643.697 0.0864749 643.67 0.128906C643.415 0.520134 643.018 0.873578 642.475 1.19238C641.939 1.50269 639.075 2.88931 636.271 4.18848C636.158 4.24131 636.021 4.22644 635.923 4.14453V4.14941C635.83 4.0723 635.786 3.94665 635.814 3.82617C636.07 2.76341 636.28 1.35678 636.552 0H643.747ZM635.398 3.68066C635.384 3.80129 635.31 3.90785 635.202 3.96094H635.212C635.099 4.01366 634.967 4.00401 634.864 3.93652C632.166 2.16326 630.565 1.066 630.051 0.655273C629.778 0.441177 629.548 0.222448 629.358 0H635.722L635.398 3.68066ZM554.143 0C554.809 0.801211 555.443 1.58997 556.005 2.19727C556.088 2.28425 556.113 2.40551 556.079 2.52148V2.52637C556.035 2.65635 555.917 2.74811 555.78 2.75781C552.695 2.97042 549.521 3.13461 548.904 3.12012C548.273 3.10556 547.753 2.9898 547.337 2.76758C546.681 2.4245 546.314 1.85369 546.24 1.06641C546.209 0.728272 546.234 0.372901 546.309 0H554.143ZM612.333 0.1875C612.108 1.25006 611.71 1.84914 611.152 2.35156C610.589 2.85865 609.938 3.03329 609.198 2.85938C607.766 2.52961 605.886 1.17389 604.23 0H612.368C612.356 0.0615846 612.347 0.124772 612.333 0.1875ZM566.706 0C566.712 0.772657 566.409 1.36719 565.805 1.77734C565.418 2.03804 564.913 2.21184 564.286 2.29395C563.667 2.37614 560.485 2.5501 557.387 2.66602C557.26 2.67066 557.142 2.60304 557.083 2.49219V2.49707C557.024 2.38618 557.034 2.25568 557.107 2.1543C557.557 1.55075 558.051 0.788706 558.57 0H566.706ZM556.784 1.85938C556.725 1.96532 556.617 2.03814 556.495 2.04297V2.03809C556.373 2.04275 556.255 1.98412 556.187 1.88281C555.72 1.18401 555.306 0.555865 554.941 0H557.782L556.784 1.85938ZM595.278 0C594.821 0.141644 594.487 0.240534 594.326 0.279297C593.709 0.428971 593.18 0.448047 592.72 0.341797C592.43 0.27411 592.176 0.159019 591.957 0H595.278Z" fill="url(#paint0_linear_54_348)"/>
<defs>
<linearGradient id="paint0_linear_54_348" x1="764.733" y1="-232.5" x2="-429.206" y2="421.905" gradientUnits="userSpaceOnUse">
<stop offset="0.216996" stop-color="#D9D9D9"/>
<stop offset="0.902521" stop-color="#737373" stop-opacity="0"/>
</linearGradient>
</defs>
</svg>
