<svg preserveAspectRatio="none" width="100%" height="100%" overflow="visible" style="display: block;" viewBox="0 0 53 60" fill="none" xmlns="http://www.w3.org/2000/svg">
<g id="Layer_1" clip-path="url(#clip0_3278_80)">
<path id="Vector" d="M52.9693 25.4247L50.024 20.323C49.9859 20.2547 49.9172 20.2017 49.8409 20.1789L44.2784 18.678V15.5927C44.286 15.4259 44.1563 15.2895 43.9884 15.2895H43.0499L43.0652 10.0513C44.8736 9.2099 46.1326 7.39815 46.1402 5.28317C46.1478 2.37225 43.7672 -0.00804446 40.8371 -0.015625H40.8219C39.5018 -0.015625 38.2505 0.46953 37.2738 1.34129L10.7356 0.386144C10.5678 0.386144 10.4228 0.507432 10.4228 0.674204C10.4228 0.840976 10.5449 0.985007 10.7127 0.985007L36.7091 1.94016C35.9385 2.87256 35.5188 4.03997 35.5112 5.26043C35.5112 6.1322 35.7172 6.97364 36.114 7.72411L10.6975 7.89088C10.5296 7.89088 10.3923 8.02733 10.3923 8.1941C10.3923 8.36088 10.5296 8.49733 10.6975 8.49733L36.4879 8.33055C36.6557 8.56555 36.8389 8.79297 37.0525 9.00522C37.4951 9.44489 37.9987 9.7936 38.548 10.0513L38.5328 15.2516H37.5637C37.4798 15.244 37.4035 15.2743 37.3425 15.335C37.289 15.388 37.2509 15.4714 37.2509 15.5472V18.678L31.7037 20.1335C31.6274 20.1562 31.5587 20.2017 31.5205 20.2699L28.5447 25.3489C28.4913 25.4398 28.4913 25.5611 28.5447 25.6521L32.0318 31.7014C32.0852 31.7923 32.1844 31.853 32.2912 31.853C32.398 31.853 32.4972 31.7999 32.5506 31.7014L33.4129 30.2383V42.6249C33.4205 42.7917 33.5578 42.9282 33.7257 42.9282H47.6891C47.857 42.9206 47.9943 42.7841 47.9943 42.6174V30.1928L48.8871 31.7544C48.9405 31.8454 49.0397 31.906 49.1465 31.906C49.2534 31.906 49.3525 31.853 49.406 31.7544L52.9312 25.7279C52.9846 25.6369 52.9846 25.5156 52.9312 25.4247H52.9693ZM47.5442 28.8056H42.4013H39.044H33.9775L33.0924 25.4929L34.71 23.6129L37.5027 23.9237H37.518H37.5332L43.9503 23.9465C43.9503 23.9465 43.9579 23.9465 43.9656 23.9465C43.9732 23.9465 43.9808 23.9465 43.9808 23.9465L46.8117 23.6508L48.4216 25.546L47.5289 28.8056H47.5442ZM42.0961 33.3994L41.974 33.4676C41.8825 33.5207 41.8291 33.6192 41.8291 33.7254C41.8291 33.8315 41.8825 33.93 41.9817 33.9831L42.0961 34.0513V35.9616L41.5239 35.7191C41.4399 35.6812 41.3484 35.6887 41.2644 35.7266L40.5777 36.0678L40.1199 35.7494C40.0665 35.7115 40.0054 35.6963 39.9444 35.6963C39.8986 35.6963 39.8528 35.7039 39.8147 35.7266L39.3492 35.9465V32.4443L39.4332 32.3988C39.5247 32.3457 39.5858 32.2472 39.5934 32.141C39.5934 32.0349 39.5476 31.9288 39.4561 31.8757L39.3492 31.8075V29.412H42.0885V33.3918H42.1038L42.0961 33.3994ZM36.9609 7.94395C36.9457 7.8833 36.9075 7.83782 36.8618 7.79992C36.381 7.04944 36.1216 6.18526 36.1216 5.26801C36.1216 4.01722 36.6176 2.84224 37.5103 1.9629C38.3954 1.08355 39.5781 0.60598 40.8295 0.60598H40.8448C43.4391 0.61356 45.545 2.72095 45.5374 5.29834C45.5374 6.54913 45.0414 7.72411 44.1487 8.60345C43.7138 9.03554 43.2025 9.36909 42.6531 9.60408C42.0809 9.83908 41.4704 9.96795 40.8371 9.96795H40.8219C39.5629 9.96795 38.3802 9.47522 37.4951 8.58829C37.2967 8.3912 37.1212 8.17894 36.9609 7.95153V7.94395ZM39.1661 10.2939C39.6926 10.4683 40.242 10.5592 40.8142 10.5592H40.8295C41.4018 10.5592 41.9435 10.4683 42.4624 10.3015L42.4471 15.2819L39.1508 15.2516L39.1661 10.2939ZM43.6832 15.9035L43.6603 23.34L37.8537 23.3249L37.8766 15.8505L43.6832 15.9035ZM32.3141 30.9509L29.1704 25.5081L31.9936 20.6868L37.2509 19.3072L37.2356 23.287L34.6184 22.9989C34.5193 22.9837 34.4201 23.0292 34.3514 23.105L32.5201 25.2276C32.4514 25.3034 32.4286 25.4019 32.4591 25.5005L33.4129 29.0785L32.3141 30.9509ZM34.0538 42.3293V29.4272H38.7388V31.9894C38.7388 32.0425 38.7541 32.088 38.777 32.1335C38.7541 32.1789 38.7388 32.2244 38.7388 32.2775V36.4392C38.7388 36.5453 38.7922 36.6439 38.8838 36.6969C38.9372 36.7273 38.9906 36.7424 39.044 36.7424C39.0898 36.7424 39.1356 36.7348 39.1737 36.7121L39.9139 36.3634L40.3793 36.6818C40.4709 36.75 40.593 36.75 40.6922 36.7045L41.417 36.3407L42.2869 36.7045C42.3785 36.7424 42.4929 36.7348 42.5768 36.6742C42.6608 36.6211 42.7142 36.5226 42.7142 36.424V33.8846C42.7142 33.8315 42.6989 33.7709 42.6684 33.7254C42.6989 33.6799 42.7142 33.6268 42.7142 33.5662V29.412H47.3992V42.3141L34.0614 42.3217L34.0538 42.3293ZM49.177 31.004L48.0859 29.124L49.0626 25.5535C49.0931 25.4626 49.0626 25.3565 49.0015 25.2806L47.1855 23.1429C47.1169 23.0671 47.0253 23.0292 46.9185 23.0368L44.2631 23.3097L44.2784 19.3148L49.5586 20.7399L52.3512 25.5763L49.177 31.004ZM41.3102 7.45879C41.8977 7.32992 42.3937 6.98122 42.7142 6.4809C43.0347 5.98059 43.1415 5.38172 43.0118 4.8056C42.8821 4.2219 42.5311 3.72916 42.0275 3.41078C40.9821 2.75127 39.5934 3.06208 38.9296 4.09303C38.2657 5.12398 38.5786 6.51122 39.6163 7.17073C39.9825 7.39815 40.3946 7.51944 40.8142 7.51944C40.9745 7.51944 41.1423 7.50427 41.3026 7.46637L41.3102 7.45879ZM39.4484 4.41141C39.7613 3.92626 40.2878 3.66094 40.8295 3.66094C41.1271 3.66094 41.4323 3.74432 41.6994 3.91868C42.0656 4.15367 42.325 4.51754 42.4166 4.93447C42.5082 5.35898 42.4319 5.79107 42.1953 6.15494C41.9588 6.5188 41.5925 6.77654 41.1729 6.86751C40.7456 6.95848 40.3106 6.88267 39.9444 6.64767C39.1814 6.1701 38.9601 5.16189 39.4408 4.40383L39.4484 4.41141ZM45.6366 49.7885H31.6197L31.6121 36.5908C31.6121 36.5074 31.5816 36.4316 31.5205 36.3786C31.4671 36.3255 31.3832 36.2876 31.3069 36.2876H23.4859C23.4859 36.2876 23.4477 36.2421 23.4248 36.2194L22.5397 35.34C23.0891 34.4228 23.5011 33.4373 23.7605 32.3988H25.0119C25.3553 32.3988 25.6834 32.2623 25.9199 32.0198C26.1641 31.7772 26.3014 31.4588 26.3014 31.1101V28.3811C26.3014 27.6761 25.7215 27.1 25.0119 27.1H23.7605C23.5011 26.0614 23.0891 25.076 22.5321 24.1587L23.4172 23.2794C23.9208 22.7791 23.9208 21.968 23.4172 21.4676L21.4791 19.5422C21.2349 19.2996 20.9144 19.1707 20.5635 19.1707C20.2125 19.1707 19.892 19.3072 19.6478 19.5422L18.7627 20.4215C17.8394 19.8757 16.8475 19.4664 15.8021 19.2086V17.9654C15.8021 17.2604 15.2222 16.6843 14.5126 16.6843H11.7657C11.4224 16.6843 11.0943 16.8208 10.8577 17.0633C10.6136 17.3059 10.4762 17.6243 10.4762 17.973V19.2162C9.43086 19.474 8.43892 19.8833 7.51565 20.4367L6.63054 19.5573C6.38637 19.3148 6.0659 19.1859 5.71491 19.1859C5.36391 19.1859 5.04344 19.3223 4.79927 19.5573L2.86118 21.4828C2.61701 21.7254 2.48729 22.0438 2.48729 22.3925C2.48729 22.7412 2.62464 23.0595 2.86881 23.3021L3.75392 24.1815C3.20454 25.0987 2.7925 26.0842 2.53307 27.1227H1.28171C0.938344 27.1227 0.610241 27.2592 0.373702 27.5017C0.129533 27.7443 -0.0078125 28.0627 -0.0078125 28.4114V31.1404C-0.0078125 31.4815 0.129533 31.8075 0.373702 32.0425C0.617871 32.2851 0.938344 32.4215 1.28171 32.4215H2.53307C2.7925 33.4601 3.20454 34.4455 3.76155 35.3628L2.87644 36.2421C2.37284 36.7424 2.37284 37.5535 2.87644 38.0539L4.81453 39.9793C5.06633 40.2295 5.39443 40.3508 5.73017 40.3508C6.0659 40.3508 6.394 40.2295 6.6458 39.9717L7.53092 39.0924C8.45418 39.6382 9.44612 40.0475 10.4915 40.3053V41.5485C10.4915 41.8896 10.6288 42.2156 10.873 42.4506C11.1172 42.6932 11.4376 42.8296 11.781 42.8296H14.5279C14.8713 42.8296 15.1994 42.6932 15.4359 42.4506C15.6801 42.208 15.8174 41.8896 15.8174 41.5409V40.2977C16.2371 40.1916 16.6415 40.0627 17.0459 39.9111V49.8037H12.0633C10.6975 49.8037 9.40797 50.3343 8.43892 51.3046C7.46987 52.2674 6.93575 53.5485 6.93575 54.9054C6.93575 57.7178 9.2401 59.9995 12.0633 59.9995L45.6366 59.9768C48.4674 59.9768 50.7641 57.6875 50.7641 54.8751C50.7641 53.5182 50.23 52.2371 49.2534 51.2743C48.2843 50.3116 46.9948 49.781 45.629 49.781L45.6366 49.7885ZM23.0586 39.3653L22.9517 39.2971V36.9016H23.3409H25.6986V40.8814L25.5766 40.9496C25.485 41.0027 25.4316 41.1012 25.4316 41.2074C25.4316 41.3135 25.485 41.412 25.5842 41.4651L25.6986 41.5333V43.4436L25.1264 43.2011C25.0424 43.1632 24.9509 43.1707 24.8669 43.2086L24.1802 43.5498L23.7224 43.2314C23.669 43.1935 23.6079 43.1783 23.5469 43.1783C23.5011 43.1783 23.4553 43.1859 23.4172 43.2086L22.9517 43.4285V39.9263L23.0357 39.8808C23.1272 39.8277 23.1883 39.7292 23.1959 39.623C23.1959 39.5169 23.1501 39.4184 23.0586 39.3577H23.0662L23.0586 39.3653ZM15.4435 39.7746C15.4435 39.7746 15.4283 39.7822 15.4206 39.7898C15.3977 39.7898 15.3825 39.805 15.3672 39.8125C15.352 39.8201 15.3367 39.8277 15.3214 39.8429C15.3062 39.858 15.2909 39.8732 15.2833 39.8808C15.2757 39.8884 15.2604 39.9111 15.2528 39.9263C15.2451 39.9414 15.2375 39.9566 15.2299 39.9793C15.2222 40.0021 15.2222 40.0172 15.2146 40.04C15.2146 40.0475 15.2146 40.0551 15.2146 40.0703V41.5485C15.2146 41.7228 15.1459 41.8972 15.0162 42.0261C14.8865 42.1549 14.7186 42.2232 14.5355 42.2232H11.7886C11.6131 42.2232 11.4376 42.1549 11.3079 42.0261C11.1782 41.8972 11.1095 41.7304 11.1095 41.5485V40.0703C11.1095 40.0703 11.1095 40.0551 11.1095 40.04C11.1095 40.0172 11.1095 40.0021 11.0943 39.9793C11.0943 39.9642 11.079 39.9414 11.0714 39.9263C11.0637 39.9111 11.0485 39.8959 11.0408 39.8808C11.0256 39.8656 11.018 39.8505 11.0027 39.8429C10.9874 39.8353 10.9722 39.8201 10.9569 39.8125C10.9417 39.805 10.9188 39.7974 10.9035 39.7898C10.8959 39.7898 10.8882 39.7822 10.8806 39.7746C9.73607 39.5169 8.65257 39.0697 7.66063 38.4481C7.653 38.4481 7.64537 38.4481 7.63774 38.4405C7.62248 38.4329 7.59959 38.4253 7.58433 38.4177C7.56907 38.4177 7.54618 38.4101 7.53092 38.4026C7.50802 38.4026 7.49276 38.4026 7.46987 38.4026C7.45461 38.4026 7.43172 38.4026 7.41646 38.4177C7.4012 38.4177 7.37831 38.4329 7.36305 38.4405C7.34779 38.4481 7.3249 38.4632 7.30964 38.4708C7.30964 38.4708 7.29438 38.4784 7.28675 38.486L6.23377 39.5321C5.96671 39.7974 5.53941 39.7974 5.27235 39.5321L3.33426 37.6066C3.06719 37.3413 3.06719 36.9168 3.33426 36.6515L4.38724 35.6053C4.38724 35.6053 4.39487 35.5902 4.4025 35.5826C4.41776 35.5674 4.42539 35.5523 4.43302 35.5295C4.44065 35.5068 4.44828 35.4992 4.45591 35.4765C4.45591 35.4613 4.46354 35.4386 4.47117 35.4234C4.4788 35.4083 4.47117 35.3855 4.47117 35.3628C4.47117 35.3476 4.47117 35.3249 4.45591 35.3097C4.45591 35.287 4.44065 35.2718 4.43302 35.2566C4.43302 35.2491 4.43302 35.2415 4.42539 35.2339C3.7997 34.2484 3.34952 33.172 3.09009 32.0349C3.09009 32.0273 3.08246 32.0198 3.07483 32.0122C3.07483 31.9894 3.05956 31.9743 3.05193 31.9591C3.0443 31.9439 3.02904 31.9288 3.02141 31.9136C3.01378 31.8985 2.99089 31.8833 2.98326 31.8757C2.97563 31.8681 2.95274 31.853 2.93748 31.8454C2.92222 31.8378 2.90696 31.8302 2.88407 31.8227C2.86118 31.8227 2.84592 31.8075 2.82303 31.8075C2.8154 31.8075 2.80776 31.8075 2.7925 31.8075H1.3046C1.1291 31.8075 0.953604 31.7393 0.823889 31.6104C0.694174 31.4815 0.625502 31.3148 0.625502 31.1328V28.4038C0.625502 28.2295 0.694174 28.0551 0.823889 27.9263C0.953604 27.7974 1.12147 27.7292 1.3046 27.7292H2.7925C2.86118 27.7292 2.91459 27.7064 2.96037 27.6685C2.968 27.6685 2.97563 27.6609 2.98326 27.6534C3.02904 27.6155 3.05956 27.5624 3.07483 27.5017C3.07483 27.5017 3.08246 27.4942 3.08246 27.4866C3.34189 26.3495 3.79207 25.2731 4.41776 24.2876C4.41776 24.28 4.41776 24.2724 4.42539 24.2649C4.43302 24.2497 4.44065 24.227 4.44828 24.2118C4.44828 24.1966 4.45591 24.1739 4.46354 24.1587C4.47117 24.1436 4.46354 24.1208 4.46354 24.1057C4.46354 24.0905 4.46354 24.0678 4.44828 24.0526C4.44828 24.0374 4.43302 24.0147 4.42539 23.9995C4.41776 23.9844 4.4025 23.9616 4.39487 23.9465C4.39487 23.9465 4.38724 23.9313 4.3796 23.9237L3.32662 22.8776C3.19691 22.7487 3.12824 22.582 3.12824 22.4C3.12824 22.2181 3.19691 22.0513 3.32662 21.9225L5.26472 19.997C5.39443 19.8681 5.5623 19.7999 5.74543 19.7999C5.92855 19.7999 6.09642 19.8681 6.22614 19.997L7.27912 21.0431C7.27912 21.0431 7.30964 21.0659 7.3249 21.0734C7.34016 21.081 7.34779 21.0886 7.36305 21.0962C7.4012 21.1189 7.44698 21.1265 7.49276 21.1265C7.54618 21.1265 7.59196 21.1113 7.63774 21.0886H7.653C8.64494 20.467 9.72844 20.0198 10.873 19.762C10.8806 19.762 10.8882 19.7544 10.8959 19.7469C10.9188 19.7469 10.934 19.7317 10.9493 19.7241C10.9645 19.7165 10.9798 19.7014 10.9951 19.6938C11.0103 19.6862 11.0256 19.6635 11.0332 19.6559C11.0408 19.6483 11.0561 19.6256 11.0637 19.6104C11.0714 19.5952 11.079 19.5801 11.0866 19.5573C11.0943 19.5346 11.0943 19.5194 11.1019 19.4967C11.1019 19.4891 11.1019 19.4815 11.1019 19.4664V17.9882C11.1019 17.8138 11.1706 17.6395 11.3003 17.5106C11.43 17.3817 11.5979 17.3135 11.781 17.3135H14.5279C14.9018 17.3135 15.207 17.6091 15.207 17.9882V19.4664C15.207 19.4664 15.207 19.4815 15.207 19.4967C15.207 19.5194 15.207 19.5346 15.2222 19.5573C15.2375 19.5801 15.2375 19.5952 15.2451 19.6104C15.2528 19.6256 15.268 19.6407 15.2757 19.6559C15.2833 19.671 15.2986 19.6862 15.3138 19.6938C15.3291 19.7014 15.3443 19.7165 15.3596 19.7241C15.3749 19.7317 15.3977 19.7393 15.413 19.7469C15.4206 19.7469 15.4283 19.7544 15.4359 19.762C16.5804 20.0198 17.6639 20.467 18.6559 21.0886H18.6711C18.7169 21.1113 18.7627 21.1265 18.8085 21.1265C18.8543 21.1265 18.9 21.1113 18.9382 21.0962C18.9535 21.0962 18.9611 21.081 18.9764 21.0734C18.9916 21.0583 19.0145 21.0583 19.0298 21.0431L20.0827 19.997C20.2125 19.8681 20.3803 19.7999 20.5635 19.7999C20.7466 19.7999 20.9144 19.8681 21.0442 19.997L22.9823 21.9225C23.2493 22.1878 23.2493 22.6123 22.9823 22.8776L21.9293 23.9237C21.9293 23.9237 21.9216 23.9389 21.914 23.9465C21.8988 23.9616 21.8911 23.9768 21.8835 23.9995C21.8759 24.0223 21.8682 24.0299 21.8606 24.0526C21.853 24.0753 21.853 24.0905 21.8453 24.1057C21.8377 24.1208 21.8453 24.1436 21.8453 24.1587C21.8453 24.1739 21.8453 24.1966 21.8606 24.2118C21.8759 24.227 21.8759 24.2497 21.8835 24.2649C21.8835 24.2724 21.8835 24.28 21.8911 24.2876C22.5168 25.2731 22.967 26.3495 23.2264 27.4866C23.2264 27.4866 23.2264 27.4942 23.2341 27.5017C23.2493 27.5624 23.2798 27.6079 23.3256 27.6534C23.3332 27.6534 23.3409 27.6609 23.3485 27.6685C23.3943 27.7064 23.4553 27.7292 23.5164 27.7292H25.0043C25.3782 27.7292 25.6834 28.0324 25.6834 28.4038V31.1328C25.6834 31.3072 25.6147 31.4815 25.485 31.6104C25.3553 31.7393 25.1874 31.8075 25.0043 31.8075H23.5164C23.5164 31.8075 23.5011 31.8075 23.4859 31.8075C23.463 31.8075 23.4477 31.8075 23.4248 31.8227C23.4096 31.8227 23.3867 31.8378 23.3714 31.8454C23.3561 31.853 23.3409 31.8681 23.3256 31.8757C23.3104 31.8833 23.2951 31.8985 23.2875 31.9136C23.2798 31.9288 23.2646 31.9439 23.2569 31.9591C23.2493 31.9743 23.2417 31.997 23.2341 32.0122C23.2341 32.0198 23.2264 32.0273 23.2188 32.0349C22.9594 33.172 22.5092 34.2484 21.8835 35.2339C21.8835 35.2415 21.8835 35.2491 21.8759 35.2642C21.8682 35.2794 21.8606 35.3021 21.853 35.3173C21.853 35.3324 21.8453 35.3552 21.8377 35.3704C21.8377 35.3855 21.8377 35.4083 21.8377 35.4234C21.8377 35.4462 21.8377 35.4613 21.853 35.4765C21.8682 35.4916 21.8682 35.5144 21.8759 35.5295C21.8835 35.5447 21.8988 35.5674 21.9064 35.5826C21.9064 35.5826 21.914 35.5978 21.9216 35.6053L22.616 36.2952H17.3206C17.2366 36.2952 17.1603 36.3331 17.1069 36.3861C17.0535 36.4392 17.0154 36.5226 17.0154 36.5984V39.2667C16.4965 39.479 15.97 39.6458 15.4206 39.7746H15.4359H15.4435ZM17.6563 39.4714V36.9016H22.3413V39.4638C22.3413 39.5169 22.3566 39.5624 22.3795 39.6079C22.3566 39.6534 22.3413 39.6988 22.3413 39.7519V43.9136C22.3413 44.0198 22.3947 44.1183 22.4863 44.1714C22.5397 44.2017 22.5931 44.2168 22.6465 44.2168C22.6923 44.2168 22.7381 44.2093 22.7762 44.1865L23.5164 43.8378L23.9818 44.1562C24.0734 44.2244 24.1955 44.2244 24.2947 44.1789L25.0195 43.8151L25.8894 44.1789C25.981 44.2168 26.0954 44.2093 26.1793 44.1486C26.2633 44.0956 26.3167 43.997 26.3167 43.8985V41.359C26.3167 41.3059 26.2938 41.2453 26.2709 41.1998C26.3014 41.1543 26.3167 41.1012 26.3167 41.0406V36.8865H31.0017V49.7885L17.6639 49.7961V39.4638L17.6563 39.4714ZM45.6366 59.3703L12.0633 59.3931C9.5682 59.3931 7.54618 57.3767 7.53855 54.9054C7.53855 53.7153 8.01162 52.5858 8.86622 51.7367C9.72081 50.8877 10.8577 50.4177 12.0557 50.4177H17.3511L31.3145 50.4026H45.629V50.395C48.1241 50.395 50.1461 52.4114 50.1537 54.8827C50.1614 57.3539 48.1317 59.3779 45.6366 59.3779V59.3703ZM36.3658 52.1006C35.618 52.1006 34.9084 52.3887 34.3819 52.9193C33.8478 53.4499 33.5578 54.1474 33.5578 54.8978C33.5578 56.4367 34.8168 57.6875 36.3658 57.6875C37.1136 57.6875 37.8232 57.3994 38.3497 56.8688C38.8838 56.3381 39.1737 55.6407 39.1737 54.8902C39.1737 54.1398 38.8838 53.4424 38.3497 52.9193C37.8155 52.3887 37.1136 52.1006 36.3658 52.1006ZM36.3658 57.0734C35.1526 57.0734 34.1683 56.0956 34.1683 54.8902C34.1683 54.3065 34.3972 53.7532 34.8092 53.3438C35.2212 52.9269 35.7783 52.707 36.3658 52.6995C36.9533 52.6995 37.5027 52.9269 37.9224 53.3362C38.342 53.7456 38.5633 54.299 38.5709 54.8827C38.5709 56.088 37.5866 57.0659 36.3734 57.0734H36.3658ZM43.8816 52.093C43.1339 52.093 42.4242 52.3811 41.8977 52.9117C41.3636 53.4424 41.0737 54.1398 41.0737 54.8902C41.0737 56.4291 42.3327 57.6799 43.8816 57.6799C45.4306 57.6799 46.6896 56.4215 46.6896 54.8902C46.6896 54.1474 46.3996 53.4424 45.8655 52.9193C45.3314 52.3887 44.6294 52.1006 43.8816 52.1006V52.093ZM43.8816 57.0734C42.6684 57.0734 41.6841 56.0956 41.6841 54.8902C41.6841 54.3065 41.913 53.7532 42.325 53.3438C42.7371 52.9269 43.2941 52.707 43.8816 52.6995C45.0948 52.6995 46.0791 53.6774 46.0791 54.8827C46.0791 56.088 45.0948 57.0659 43.8816 57.0734ZM21.3341 52.1082C19.7852 52.1082 18.5262 53.3666 18.5262 54.8978C18.5262 55.6407 18.8161 56.3457 19.3502 56.8688C19.8844 57.3994 20.5863 57.6875 21.3341 57.6875C22.8831 57.6875 24.1421 56.4291 24.1421 54.8978C24.1421 53.3666 22.8831 52.1082 21.3341 52.1082ZM21.3341 57.081C20.1209 57.081 19.1366 56.1031 19.1366 54.8978C19.1366 53.6925 20.1209 52.7146 21.3341 52.707C22.5473 52.707 23.5316 53.6849 23.5316 54.8902C23.5316 56.0956 22.5473 57.0734 21.3341 57.081ZM28.8499 52.1006C28.1022 52.1006 27.3926 52.3887 26.8661 52.9193C26.332 53.4499 26.042 54.1474 26.042 54.8978C26.042 55.6483 26.332 56.3457 26.8661 56.8688C27.4002 57.3994 28.1022 57.6875 28.8499 57.6875C29.5977 57.6875 30.3073 57.3994 30.8338 56.8688C31.3679 56.3381 31.6579 55.6407 31.6579 54.8902C31.6579 54.1398 31.3679 53.4424 30.8338 52.9193C30.2997 52.3887 29.5977 52.1006 28.8499 52.1006ZM30.4065 56.4367C29.9945 56.8536 29.4375 57.0734 28.8499 57.081C27.6367 57.081 26.6524 56.1031 26.6524 54.8978C26.6524 54.3141 26.8813 53.7607 27.2934 53.3514C27.7054 52.9345 28.2624 52.7146 28.8499 52.707C30.0632 52.707 31.0475 53.6849 31.0475 54.8902C31.0475 55.474 30.8186 56.0273 30.4065 56.4367ZM44.6828 51.1682L13.0171 51.1909C12.0252 51.1909 11.0866 51.5776 10.377 52.2825C9.6674 52.9875 9.27825 53.9199 9.27825 54.9054C9.27825 56.9522 10.9569 58.6123 13.0171 58.6123L44.6828 58.5896C46.743 58.5896 48.4216 56.9218 48.414 54.8751C48.414 53.8896 48.0249 52.9572 47.3152 52.2522C46.6056 51.5472 45.6671 51.1606 44.6752 51.1606L44.6828 51.1682ZM44.6828 57.9907L13.0171 58.0134C11.2926 58.0134 9.88868 56.6186 9.88868 54.9054C9.88868 54.0791 10.2168 53.2983 10.8043 52.7146C11.3995 52.1233 12.1778 51.7974 13.0095 51.7974L44.6752 51.7746C45.5069 51.7746 46.2928 52.1006 46.8803 52.6843C47.4755 53.2756 47.8036 54.0488 47.8036 54.8751C47.8036 56.5883 46.3996 57.9831 44.6752 57.9831L44.6828 57.9907ZM19.602 29.7532C19.602 28.04 18.9306 26.4329 17.7097 25.22C15.1917 22.726 11.1019 22.726 8.5839 25.22C7.37068 26.4329 6.69921 28.04 6.69921 29.7532C6.69921 31.4664 7.37068 33.0734 8.59153 34.2863C9.85052 35.5295 11.4987 36.1587 13.1468 36.1587C14.795 36.1587 16.4584 35.5371 17.7097 34.2788C18.9229 33.0659 19.5944 31.4588 19.5944 29.7456L19.602 29.7532ZM13.1544 35.5599C11.5979 35.5599 10.1328 34.961 9.02645 33.8618C7.92006 32.7626 7.30964 31.3072 7.30964 29.7607C7.30964 28.2143 7.91243 26.7513 9.01882 25.6597C11.2926 23.3931 15.001 23.3931 17.2824 25.6597C18.3888 26.7589 18.9992 28.2143 18.9992 29.7607C18.9992 31.3072 18.3964 32.7702 17.2901 33.8618C16.1837 34.961 14.7186 35.5674 13.1621 35.5674L13.1544 35.5599ZM13.8183 52.1158C13.0705 52.1158 12.3609 52.4038 11.8344 52.9345C11.3003 53.4651 11.0103 54.1625 11.0103 54.913C11.0103 56.4518 12.2693 57.7026 13.8183 57.7026C15.3672 57.7026 16.6262 56.4443 16.6262 54.913C16.6262 53.3817 15.3672 52.1233 13.8183 52.1233V52.1158ZM13.8183 57.0886C12.6051 57.0886 11.6208 56.1107 11.6208 54.9054C11.6208 53.7001 12.6051 52.7222 13.8183 52.7146C15.0315 52.7146 16.0158 53.6925 16.0158 54.8978C16.0158 56.1031 15.0315 57.081 13.8183 57.0886Z" fill="var(--fill-0, white)"/>
</g>
<defs>
<clipPath id="clip0_3278_80">
<rect width="53" height="60" fill="white"/>
</clipPath>
</defs>
</svg>
