<svg preserveAspectRatio="none" width="100%" height="100%" overflow="visible" style="display: block;" viewBox="0 0 19.1766 18.8298" fill="none" xmlns="http://www.w3.org/2000/svg">
<g id="Group" opacity="0.2">
<g id="Group_2">
<path id="Vector" d="M9.66044 8.53808C9.54131 8.54624 9.42218 8.481 9.36261 8.38314L7.2608 5.03967C6.57154 3.95508 6.22266 3.06621 6.22266 2.37305C6.22266 1.63912 6.52048 1.06012 7.10763 0.636075C7.69478 0.212025 8.50317 0 9.5328 0C10.588 0 11.4389 0.212025 12.0686 0.62792C12.6898 1.04382 13.0046 1.6065 13.0046 2.31596C13.0046 2.76448 12.8685 3.26192 12.6047 3.81645C12.3409 4.35467 11.4559 5.87146 9.93274 8.37498C9.88168 8.47284 9.77106 8.52993 9.66044 8.53808Z" fill="var(--fill-0, white)"/>
</g>
<g id="Group_3">
<path id="Vector_2" d="M9.64412 10.2754C9.5335 10.2754 9.42287 10.3325 9.36331 10.4303L7.25299 13.7901C6.56373 14.8747 6.21484 15.7636 6.21484 16.4567C6.21484 17.1825 6.51267 17.7697 7.09982 18.1937C7.68696 18.6178 8.49535 18.8298 9.52499 18.8298C10.5801 18.8298 11.4311 18.6178 12.0608 18.2019C12.682 17.786 12.9968 17.2233 12.9968 16.5138C12.9968 16.0653 12.8607 15.5679 12.5969 15.0133C12.3331 14.4751 11.4481 12.9502 9.91642 10.4385C9.87387 10.3406 9.76325 10.2754 9.64412 10.2754Z" fill="var(--fill-0, white)"/>
</g>
<g id="Group_4">
<path id="Vector_3" d="M10.0599 9.8681C10.0173 9.96595 10.0428 10.0801 10.1109 10.1698C11.4554 11.7437 13.2339 14.5571 14.8336 15.4949C15.4378 15.8537 16.0675 15.8863 16.7227 15.6009C17.3694 15.3237 17.897 14.9159 18.4161 14.0678C18.9522 13.1953 19.1989 12.3961 19.1734 11.6703C19.1479 10.9527 18.833 10.4226 18.2374 10.072C17.863 9.85179 17.3779 9.72131 16.7908 9.67238C16.2121 9.63161 13.2424 9.62345 10.3492 9.67238C10.2215 9.67238 10.1024 9.75393 10.0599 9.8681Z" fill="var(--fill-0, white)"/>
</g>
<g id="Group_5">
<path id="Vector_4" d="M10.0528 8.962C10.1038 9.04355 10.1974 9.10064 10.2995 9.10064C13.2097 9.14956 16.2135 9.14141 16.7922 9.10064C17.3793 9.05171 17.8559 8.92123 18.2388 8.70105C18.8344 8.35855 19.1493 7.82033 19.1748 7.10271C19.2003 6.37693 18.9536 5.57776 18.4175 4.7052C17.8984 3.8571 17.3708 3.44936 16.7241 3.17209C16.0689 2.88667 15.4392 2.92745 14.835 3.27811C13.2182 4.22406 11.4228 7.07824 10.0783 8.64397C10.0017 8.73367 9.9932 8.86415 10.0528 8.962Z" fill="var(--fill-0, white)"/>
</g>
<g id="Group_6">
<path id="Vector_5" d="M9.11532 9.84363C9.06426 9.73762 8.96215 9.67238 8.84302 9.67238C5.94133 9.62345 2.96305 9.63161 2.38441 9.67238C1.79727 9.72131 1.31224 9.85179 0.937823 10.072C0.342168 10.4145 0.0273213 10.9527 0.0017932 11.6703C-0.0237349 12.3961 0.223037 13.1953 0.759126 14.0678C1.2782 14.9159 1.80578 15.3237 2.45249 15.6009C3.10771 15.8863 3.7374 15.8456 4.34157 15.4949C5.94984 14.5571 7.7368 11.7274 9.08128 10.1535C9.14936 10.0638 9.16638 9.94964 9.11532 9.84363Z" fill="var(--fill-0, white)"/>
</g>
<path id="Vector_6" d="M9.0898 8.96201C9.03874 9.05171 8.93663 9.10064 8.826 9.10879C5.93282 9.15772 2.96305 9.14957 2.38442 9.10879C1.79727 9.05986 1.31224 8.92939 0.937823 8.70921C0.342168 8.35855 0.0358307 7.82033 0.0017932 7.10271C-0.0237349 6.37693 0.223037 5.57776 0.759127 4.7052C1.2782 3.8571 1.80578 3.44936 2.45249 3.17209C3.10771 2.88667 3.7374 2.92745 4.34157 3.27811C5.94984 4.21591 7.7283 7.02932 9.06427 8.60319C9.07278 8.61135 9.07278 8.6195 9.08129 8.6195C9.08129 8.62766 9.16638 8.79891 9.0898 8.96201Z" fill="var(--fill-0, white)"/>
</g>
</svg>
