<svg preserveAspectRatio="none" width="100%" height="100%" overflow="visible" style="display: block;" viewBox="0 0 22 16.6067" fill="none" xmlns="http://www.w3.org/2000/svg">
<path id="Vector" opacity="0.5" d="M21.3901 0.563738C21.0166 0.202761 20.5188 4.60168e-05 19.9995 4.60168e-05H2.00049C1.48125 -0.0035104 0.981571 0.199205 0.609925 0.563738C0.222275 0.940718 0.00177821 1.45996 0 2.00053V14.6063C0 15.7105 0.896218 16.6067 2.00049 16.6067H19.9995C21.1038 16.6067 22 15.7105 22 14.6063V2.00053C22 1.45818 21.7795 0.940718 21.3901 0.563738ZM14.7218 7.13778L21.1216 1.27858C21.1607 1.33548 21.1945 1.39772 21.2211 1.46173C21.2211 1.47596 21.2211 1.49018 21.2211 1.50441C21.246 1.56487 21.2656 1.62711 21.2816 1.69112V1.75514C21.2958 1.83338 21.3047 1.91162 21.3047 1.99164V14.608C21.3012 14.8428 21.2354 15.0739 21.1109 15.2749L14.7218 7.13955V7.13778ZM20.0013 0.668653C20.2218 0.670431 20.4387 0.729112 20.6308 0.835805L11.9016 8.83596C11.393 9.30008 10.6141 9.30008 10.1056 8.83596L1.37278 0.835805C1.5666 0.730891 1.78177 0.673987 2.00226 0.672209L20.0013 0.668653ZM0.862432 15.2838C0.739735 15.0828 0.672163 14.8534 0.668606 14.6169V2.00053C0.668606 1.92051 0.677498 1.84227 0.691724 1.76403V1.69824C0.707728 1.636 0.727287 1.57376 0.752182 1.51508C0.752182 1.50085 0.752182 1.48663 0.752182 1.4724C0.778855 1.40839 0.812641 1.34615 0.851762 1.28925L7.28177 7.13955L0.862432 15.2855V15.2838ZM2.00226 15.9506C1.76754 15.9506 1.53637 15.8866 1.33543 15.7639L7.77433 7.59833L9.65034 9.3143C10.415 10.0149 11.5886 10.0149 12.3532 9.3143L14.2257 7.59833L20.6628 15.755C20.4618 15.8759 20.2307 15.9417 19.996 15.9417L2.00049 15.9524L2.00226 15.9506Z" fill="var(--fill-0, white)"/>
</svg>
