<svg width="721" height="331" viewBox="0 0 721 331" fill="none" xmlns="http://www.w3.org/2000/svg">
<path d="M158.928 104.167C136.996 90.6911 114.151 89.0967 90.3276 100.004L90.3246 100.005C66.755 110.625 47.5102 126.257 28.5203 158.883L28.5193 158.884C9.19253 191.962 0.139444 222.268 0.708501 249.81L0.742689 251.12C1.63037 278.662 13.0361 299.279 34.637 312.428C48.5442 320.894 65.8869 325.941 87.3134 327.857C108.475 329.46 218.359 329.939 324.861 328.208L324.871 328.208C328.387 328.213 331.644 326.138 333.428 323.141C335.496 319.562 335.204 314.778 332.558 311.497C307.999 281.229 279.291 238.462 249.411 198.787C219.492 159.06 188.384 122.411 158.929 104.166L158.928 104.167Z" stroke="#08A03F" stroke-width="1.12088"/>
<path d="M364.227 0.749181C325.688 0.69199 294.659 8.81607 271.714 24.7544L271.714 24.7554C249.101 40.6795 237.64 62.2219 237.6 89.4294C237.574 106.641 242.498 125.775 252.098 147.155C261.708 167.924 293.993 226.517 349.597 323.281L349.606 323.295L349.614 323.312C351.372 326.88 355.217 329.004 359.112 329.313C363.238 329.616 367.404 327.229 369.491 323.625L369.494 323.618L446.605 194.627L446.606 194.625L447.782 192.669C472.274 151.738 484.632 118.194 484.671 92.0004C484.712 63.8278 473.922 41.6221 452.604 25.3267C431.27 9.01959 401.832 0.805026 364.227 0.749181Z" stroke="#08A03F" stroke-width="1.12088"/>
<path d="M630.546 99.9195C606.756 88.942 583.907 90.468 561.935 103.878L561.935 103.879C532.58 121.88 501.598 157.963 471.795 197.207C442.034 236.397 413.427 278.772 388.938 309.119L388.921 309.142L388.9 309.162C388.796 309.267 388.776 309.33 388.657 309.51C388.608 309.585 388.522 309.706 388.387 309.801C388.369 309.814 388.349 309.823 388.331 309.834C388.314 309.881 388.296 309.932 388.277 309.986C388.197 310.209 388.089 310.511 387.967 310.884C387.723 311.629 387.427 312.655 387.217 313.86C386.797 316.273 386.726 319.371 388.054 322.379C389.807 325.617 393.329 327.433 397.232 327.744C503.11 329.79 611.747 329.636 632.892 328.095C654.324 326.242 671.986 321.246 685.6 312.827C706.904 299.638 718.052 279.484 719.615 252.581L719.682 251.294C720.651 223.408 711.711 192.642 692.179 158.983L692.179 158.982C673.286 126.299 654.087 110.61 630.549 99.9204L630.546 99.9195Z" stroke="#08A03F" stroke-width="1.12088"/>
</svg>
