<svg width="1760" height="10152" viewBox="0 0 1760 10152" fill="none" xmlns="http://www.w3.org/2000/svg">
<path d="M179.315 1835.68C184.997 1835.68 189.582 1836.89 192.935 1839.25C196.188 1841.55 197.773 1844.59 197.773 1848.55C197.773 1851.12 197.067 1853.9 195.626 1857.08C194.122 1860.37 188.857 1869.99 180.783 1884.14C180.62 1884.43 180.321 1884.62 179.959 1884.63C179.624 1884.63 179.306 1884.45 179.134 1884.16L167.418 1864.25C163.667 1857.94 161.773 1852.76 161.773 1848.87C161.773 1844.98 163.268 1841.65 166.349 1839.28C169.439 1836.89 173.797 1835.68 179.315 1835.68ZM179.315 1834.75C173.571 1834.75 169.049 1836.02 165.796 1838.54C162.507 1841.07 160.858 1844.51 160.858 1848.87C160.858 1852.97 162.797 1858.26 166.639 1864.73L178.346 1884.62C178.681 1885.2 179.288 1885.55 179.941 1885.55C179.968 1885.55 179.995 1885.55 180.022 1885.55C180.657 1885.52 181.236 1885.17 181.554 1884.61C190.044 1869.71 194.982 1860.67 196.441 1857.47C197.927 1854.2 198.67 1851.24 198.67 1848.55C198.67 1844.3 196.922 1840.95 193.442 1838.49C189.926 1836.01 185.214 1834.75 179.306 1834.75H179.315Z" fill="white"/>
<path d="M179.95 1896.85C180.276 1896.85 180.575 1897.02 180.738 1897.31C188.839 1911.52 194.122 1921.16 195.626 1924.45C197.067 1927.62 197.773 1930.41 197.773 1932.97C197.773 1936.94 196.188 1939.98 192.935 1942.28C189.582 1944.65 184.997 1945.85 179.315 1945.85C173.634 1945.85 169.43 1944.63 166.349 1942.25C163.268 1939.88 161.773 1936.74 161.773 1932.66C161.773 1928.58 163.676 1923.6 167.427 1917.27L179.18 1897.3C179.343 1897.02 179.642 1896.85 179.959 1896.85M179.95 1895.92C179.315 1895.92 178.726 1896.26 178.391 1896.82L166.639 1916.79C162.797 1923.27 160.858 1928.55 160.858 1932.65C160.858 1936.99 162.507 1940.44 165.796 1942.98C169.049 1945.5 173.571 1946.76 179.315 1946.76C185.06 1946.76 189.926 1945.51 193.451 1943.03C196.931 1940.57 198.679 1937.21 198.679 1932.96C198.679 1930.27 197.936 1927.31 196.45 1924.05C194.992 1920.85 190.044 1911.78 181.526 1896.84C181.2 1896.26 180.602 1895.92 179.959 1895.92H179.95Z" fill="white"/>
<path d="M205.82 1893.04C212.942 1893.04 218.143 1893.11 219.72 1893.25C222.891 1893.52 225.392 1894.24 227.368 1895.49C230.439 1897.4 231.998 1900.25 232.152 1904.23C232.306 1908.33 230.929 1912.97 228.056 1918C225.528 1922.45 222.919 1924.99 219.04 1926.76C217.554 1927.44 216.086 1927.78 214.664 1927.78C212.879 1927.78 211.094 1927.24 209.363 1926.15C203.156 1922.29 196.324 1912.7 190.298 1904.23C187.797 1900.71 185.432 1897.39 183.248 1894.66C183.058 1894.42 183.003 1894.09 183.112 1893.79C183.239 1893.45 183.547 1893.22 183.9 1893.22C191.24 1893.1 199.024 1893.03 205.82 1893.03M205.82 1892.11C199.413 1892.11 191.594 1892.18 183.882 1892.31C183.157 1892.32 182.514 1892.78 182.26 1893.47C182.034 1894.08 182.152 1894.75 182.55 1895.25C190.035 1904.61 199.948 1921.38 208.892 1926.94C210.776 1928.12 212.706 1928.71 214.664 1928.71C216.222 1928.71 217.808 1928.34 219.412 1927.6C223.009 1925.95 225.954 1923.52 228.836 1918.46C231.808 1913.25 233.212 1908.49 233.049 1904.19C232.886 1899.92 231.137 1896.75 227.83 1894.69C225.728 1893.38 223.064 1892.6 219.783 1892.33C218.107 1892.19 212.797 1892.11 205.811 1892.11H205.82Z" fill="white"/>
<path d="M214.673 1853.44C216.095 1853.44 217.572 1853.78 219.058 1854.47C222.928 1856.24 225.537 1858.78 228.074 1863.22C230.947 1868.25 232.324 1872.88 232.17 1877C232.016 1880.97 230.458 1883.84 227.386 1885.75C225.429 1886.97 222.855 1887.72 219.738 1887.98C218.161 1888.11 212.96 1888.19 205.838 1888.19C198.716 1888.19 191.059 1888.13 183.629 1888C183.375 1888 183.139 1887.85 183.012 1887.63C182.858 1887.36 182.886 1887.02 183.076 1886.78C185.305 1884.02 187.733 1880.61 190.307 1877C196.333 1868.54 203.165 1858.93 209.372 1855.08C211.103 1853.99 212.888 1853.45 214.673 1853.45M214.673 1852.51C212.706 1852.51 210.785 1853.1 208.901 1854.28C199.885 1859.89 189.89 1876.88 182.378 1886.19C181.943 1886.73 181.889 1887.49 182.233 1888.09C182.523 1888.59 183.04 1888.91 183.611 1888.92C191.412 1889.04 199.35 1889.11 205.829 1889.11C212.815 1889.11 218.125 1889.04 219.801 1888.9C223.082 1888.63 225.755 1887.84 227.848 1886.53C231.155 1884.48 232.904 1881.31 233.067 1877.03C233.23 1872.73 231.826 1867.97 228.854 1862.76C225.972 1857.7 223.027 1855.27 219.43 1853.62C217.817 1852.88 216.24 1852.51 214.673 1852.51Z" fill="white"/>
<path d="M153.445 1893.04C160.278 1893.04 168.107 1893.1 175.473 1893.23C175.782 1893.23 176.062 1893.43 176.189 1893.72C176.316 1894 176.271 1894.34 176.081 1894.58C173.879 1897.32 171.486 1900.68 168.958 1904.23C162.933 1912.7 156.1 1922.29 149.884 1926.15C148.154 1927.24 146.378 1927.78 144.592 1927.78C143.17 1927.78 141.693 1927.44 140.207 1926.76C136.338 1924.98 133.728 1922.45 131.191 1917.99C128.318 1912.97 126.941 1908.33 127.095 1904.22C127.249 1900.24 128.808 1897.38 131.879 1895.47C133.864 1894.23 136.365 1893.5 139.536 1893.23C141.122 1893.1 146.314 1893.02 153.436 1893.02M153.445 1892.11C146.459 1892.11 141.149 1892.19 139.473 1892.33C136.184 1892.6 133.51 1893.38 131.417 1894.69C128.11 1896.75 126.361 1899.92 126.198 1904.19C126.035 1908.49 127.439 1913.25 130.411 1918.46C133.302 1923.52 136.247 1925.95 139.844 1927.6C141.457 1928.34 143.034 1928.71 144.592 1928.71C146.559 1928.71 148.48 1928.12 150.355 1926.94C159.326 1921.35 169.276 1904.5 176.769 1895.16C177.186 1894.64 177.277 1893.94 177.005 1893.33C176.733 1892.71 176.135 1892.31 175.473 1892.3C167.726 1892.17 159.861 1892.1 153.427 1892.1L153.445 1892.11Z" fill="white"/>
<path d="M176.787 1886.08C176.787 1886.08 176.733 1886.01 176.706 1885.97C169.221 1876.61 159.308 1859.84 150.355 1854.27C146.985 1852.16 143.469 1851.95 139.835 1853.61C136.238 1855.26 133.293 1857.69 130.402 1862.75C127.43 1867.96 126.026 1872.72 126.189 1877.02C126.352 1881.3 128.101 1884.47 131.408 1886.52C133.51 1887.83 136.174 1888.61 139.464 1888.89C142.671 1889.16 159.236 1889.17 175.365 1888.91C175.963 1888.9 176.515 1888.57 176.833 1888.05" stroke="white" stroke-miterlimit="10"/>
<path d="M502.642 1171.57C508.323 1171.57 512.908 1172.78 516.261 1175.14C519.514 1177.44 521.1 1180.48 521.1 1184.44C521.1 1187.01 520.393 1189.79 518.952 1192.97C517.448 1196.26 512.183 1205.87 504.11 1220.03C503.947 1220.32 503.648 1220.5 503.285 1220.52C502.95 1220.52 502.633 1220.34 502.461 1220.05L490.744 1200.14C486.993 1193.83 485.099 1188.65 485.099 1184.76C485.099 1180.87 486.594 1177.54 489.675 1175.17C492.765 1172.78 497.123 1171.57 502.642 1171.57ZM502.642 1170.64C496.897 1170.64 492.375 1171.91 489.122 1174.43C485.833 1176.96 484.184 1180.4 484.184 1184.76C484.184 1188.86 486.123 1194.15 489.965 1200.62L501.672 1220.51C502.007 1221.09 502.615 1221.44 503.267 1221.44C503.294 1221.44 503.321 1221.44 503.349 1221.44C503.983 1221.41 504.563 1221.06 504.88 1220.5C513.37 1205.6 518.309 1196.56 519.759 1193.36C521.245 1190.09 521.988 1187.13 521.988 1184.44C521.988 1180.19 520.239 1176.84 516.759 1174.38C513.244 1171.9 508.532 1170.64 502.624 1170.64H502.642Z" fill="white"/>
<path d="M503.276 1232.73C503.602 1232.73 503.901 1232.9 504.064 1233.19C512.165 1247.4 517.448 1257.04 518.952 1260.33C520.393 1263.5 521.1 1266.29 521.1 1268.85C521.1 1272.82 519.514 1275.86 516.261 1278.16C512.908 1280.53 508.323 1281.73 502.642 1281.73C496.96 1281.73 492.756 1280.51 489.675 1278.13C486.594 1275.76 485.099 1272.62 485.099 1268.54C485.099 1264.46 487.002 1259.48 490.753 1253.16L502.506 1233.18C502.669 1232.9 502.968 1232.73 503.285 1232.73M503.276 1231.8C502.642 1231.8 502.053 1232.14 501.718 1232.7L489.965 1252.67C486.123 1259.15 484.184 1264.43 484.184 1268.53C484.184 1272.87 485.833 1276.32 489.122 1278.86C492.375 1281.38 496.897 1282.65 502.642 1282.65C508.387 1282.65 513.253 1281.39 516.777 1278.91C520.257 1276.45 522.006 1273.09 522.006 1268.85C522.006 1266.15 521.263 1263.19 519.777 1259.93C518.318 1256.72 513.37 1247.66 504.853 1232.72C504.527 1232.14 503.929 1231.8 503.285 1231.8H503.276Z" fill="white"/>
<path d="M529.146 1228.93C536.268 1228.93 541.46 1229 543.046 1229.14C546.218 1229.41 548.719 1230.13 550.694 1231.38C553.766 1233.29 555.324 1236.14 555.478 1240.12C555.632 1244.22 554.255 1248.85 551.383 1253.89C548.855 1258.34 546.245 1260.88 542.367 1262.65C540.881 1263.33 539.413 1263.67 537.99 1263.67C536.205 1263.67 534.42 1263.13 532.689 1262.04C526.482 1258.18 519.65 1248.59 513.624 1240.12C511.123 1236.6 508.758 1233.28 506.574 1230.55C506.384 1230.31 506.33 1229.98 506.438 1229.68C506.565 1229.34 506.873 1229.11 507.227 1229.11C514.566 1228.99 522.35 1228.92 529.146 1228.92M529.146 1228C522.74 1228 514.92 1228.07 507.209 1228.2C506.484 1228.21 505.84 1228.67 505.587 1229.36C505.36 1229.97 505.478 1230.64 505.877 1231.14C513.361 1240.5 523.274 1257.27 532.218 1262.83C534.103 1264.01 536.033 1264.6 537.99 1264.6C539.549 1264.6 541.134 1264.23 542.738 1263.49C546.335 1261.84 549.28 1259.41 552.162 1254.35C555.134 1249.14 556.539 1244.38 556.375 1240.08C556.212 1235.81 554.463 1232.64 551.156 1230.58C549.054 1229.27 546.39 1228.49 543.11 1228.22C541.433 1228.08 536.123 1228 529.137 1228H529.146Z" fill="white"/>
<path d="M537.999 1189.32C539.422 1189.32 540.899 1189.66 542.385 1190.35C546.254 1192.12 548.864 1194.66 551.401 1199.11C554.273 1204.13 555.651 1208.76 555.497 1212.88C555.342 1216.85 553.784 1219.72 550.712 1221.63C548.755 1222.85 546.181 1223.6 543.064 1223.86C541.479 1223.99 536.286 1224.07 529.155 1224.07C522.024 1224.07 514.376 1224.01 506.955 1223.88C506.701 1223.88 506.466 1223.73 506.339 1223.51C506.185 1223.24 506.212 1222.91 506.402 1222.66C508.631 1219.9 511.06 1216.49 513.633 1212.88C519.659 1204.42 526.491 1194.81 532.698 1190.95C534.429 1189.87 536.214 1189.32 537.999 1189.32ZM537.999 1188.39C536.033 1188.39 534.112 1188.99 532.227 1190.16C523.211 1195.77 513.216 1212.76 505.705 1222.07C505.27 1222.61 505.215 1223.37 505.559 1223.97C505.849 1224.47 506.366 1224.79 506.937 1224.8C514.739 1224.93 522.667 1224.99 529.146 1224.99C536.142 1224.99 541.451 1224.92 543.128 1224.78C546.408 1224.51 549.081 1223.72 551.174 1222.41C554.482 1220.36 556.23 1217.19 556.394 1212.91C556.557 1208.61 555.152 1203.85 552.18 1198.64C549.299 1193.58 546.354 1191.15 542.756 1189.5C541.143 1188.76 539.567 1188.39 537.999 1188.39Z" fill="white"/>
<path d="M476.763 1228.93C483.595 1228.93 491.424 1228.99 498.8 1229.12C499.108 1229.12 499.389 1229.32 499.516 1229.61C499.642 1229.89 499.597 1230.22 499.407 1230.47C497.205 1233.21 494.813 1236.57 492.285 1240.12C486.259 1248.59 479.427 1258.18 473.211 1262.04C471.48 1263.13 469.704 1263.67 467.919 1263.67C466.496 1263.67 465.019 1263.33 463.533 1262.65C459.664 1260.87 457.054 1258.34 454.517 1253.88C451.645 1248.85 450.267 1244.22 450.421 1240.11C450.575 1236.13 452.134 1233.27 455.206 1231.36C457.19 1230.12 459.691 1229.39 462.863 1229.12C464.448 1228.99 469.64 1228.91 476.763 1228.91M476.763 1228C469.776 1228 464.466 1228.08 462.79 1228.22C459.501 1228.49 456.828 1229.27 454.735 1230.58C451.427 1232.64 449.678 1235.81 449.515 1240.08C449.352 1244.38 450.757 1249.14 453.729 1254.35C456.619 1259.41 459.564 1261.84 463.162 1263.49C464.774 1264.23 466.351 1264.6 467.91 1264.6C469.876 1264.6 471.797 1264.01 473.673 1262.83C482.643 1257.24 492.593 1240.39 500.086 1231.05C500.503 1230.53 500.594 1229.83 500.322 1229.22C500.05 1228.6 499.452 1228.2 498.791 1228.19C491.034 1228.06 483.178 1227.99 476.744 1227.99L476.763 1228Z" fill="white"/>
<path d="M500.123 1221.97C500.123 1221.97 500.068 1221.89 500.041 1221.86C492.557 1212.5 482.643 1195.73 473.691 1190.16C470.32 1188.05 466.804 1187.84 463.171 1189.5C459.573 1191.15 456.628 1193.58 453.738 1198.64C450.766 1203.85 449.361 1208.61 449.524 1212.91C449.687 1217.19 451.436 1220.36 454.744 1222.41C456.846 1223.72 459.51 1224.5 462.799 1224.78C466.007 1225.05 482.571 1225.06 498.7 1224.8C499.298 1224.79 499.851 1224.46 500.168 1223.94" stroke="white" stroke-miterlimit="10"/>
<path d="M369.522 5588.47C369.06 5588.49 368.616 5588.25 368.38 5587.84L360.415 5574.31C357.806 5569.91 356.483 5566.31 356.483 5563.53C356.483 5560.57 357.606 5558.23 359.844 5556.5C362.055 5554.79 365.127 5553.93 369.032 5553.93C372.938 5553.93 376.245 5554.78 378.637 5556.47C381.002 5558.14 382.19 5560.42 382.19 5563.31C382.19 5565.13 381.682 5567.14 380.676 5569.37C379.689 5571.54 376.336 5577.69 370.555 5587.82C370.337 5588.2 369.948 5588.44 369.513 5588.46L369.522 5588.47Z" stroke="white" stroke-width="0.75" stroke-linecap="round" stroke-linejoin="round"/>
<path d="M369.467 5595.51C369.032 5595.51 368.634 5595.74 368.407 5596.12L360.415 5609.7C357.806 5614.1 356.483 5617.7 356.483 5620.48C356.483 5623.43 357.606 5625.78 359.844 5627.51C362.055 5629.22 365.127 5630.08 369.032 5630.08C372.938 5630.08 376.245 5629.23 378.637 5627.54C381.002 5625.87 382.19 5623.58 382.19 5620.7C382.19 5618.88 381.682 5616.87 380.676 5614.64C379.689 5612.46 376.318 5606.3 370.528 5596.14C370.31 5595.75 369.902 5595.51 369.458 5595.51H369.467Z" stroke="white" stroke-width="0.75" stroke-linecap="round" stroke-linejoin="round"/>
<path d="M371.035 5593.85C370.881 5594.26 370.963 5594.72 371.234 5595.07C376.327 5601.43 383.059 5612.83 389.14 5616.61C391.441 5618.04 393.824 5618.19 396.298 5617.05C398.745 5615.93 400.747 5614.28 402.704 5610.84C404.725 5607.3 405.676 5604.07 405.568 5601.14C405.459 5598.24 404.272 5596.08 402.025 5594.68C400.602 5593.79 398.781 5593.26 396.552 5593.08C394.368 5592.9 383.105 5592.88 372.141 5593.06C371.651 5593.06 371.207 5593.38 371.035 5593.85Z" stroke="white" stroke-width="0.75" stroke-linecap="round" stroke-linejoin="round"/>
<path d="M371.008 5590.18C371.207 5590.53 371.561 5590.74 371.95 5590.75C382.978 5590.93 394.359 5590.92 396.552 5590.74C398.781 5590.55 400.593 5590.03 402.025 5589.14C404.272 5587.74 405.459 5585.59 405.568 5582.68C405.676 5579.75 404.725 5576.51 402.704 5572.97C400.747 5569.54 398.745 5567.88 396.298 5566.76C393.824 5565.62 391.441 5565.77 389.14 5567.21C383.014 5571.03 376.209 5582.57 371.108 5588.9C370.818 5589.27 370.772 5589.79 371.008 5590.19V5590.18Z" stroke="white" stroke-width="0.75" stroke-linecap="round" stroke-linejoin="round"/>
<path d="M367.474 5593.76C367.293 5593.34 366.885 5593.07 366.432 5593.07C355.44 5592.88 344.132 5592.9 341.948 5593.08C339.71 5593.26 337.898 5593.79 336.466 5594.68C334.219 5596.08 333.032 5598.23 332.923 5601.14C332.814 5604.07 333.766 5607.3 335.786 5610.84C337.753 5614.28 339.755 5615.94 342.193 5617.05C344.667 5618.19 347.05 5618.04 349.342 5616.61C355.441 5612.81 362.2 5601.35 367.302 5595C367.583 5594.65 367.646 5594.17 367.465 5593.76H367.474Z" stroke="white" stroke-width="0.75" stroke-linecap="round" stroke-linejoin="round"/>
<path d="M367.32 5588.82C367.32 5588.82 367.284 5588.77 367.266 5588.75C362.173 5582.38 355.44 5570.99 349.351 5567.2C347.059 5565.76 344.676 5565.62 342.202 5566.76C339.755 5567.88 337.753 5569.53 335.796 5572.96C333.775 5576.5 332.814 5579.74 332.932 5582.67C333.041 5585.57 334.228 5587.73 336.475 5589.13C337.898 5590.02 339.719 5590.55 341.957 5590.73C344.141 5590.91 355.395 5590.93 366.359 5590.75C366.767 5590.75 367.148 5590.53 367.356 5590.17" stroke="white" stroke-width="0.75" stroke-linecap="round" stroke-linejoin="round"/>
<path d="M540.98 6138.46C540.237 6138.49 539.539 6138.1 539.15 6137.46L526.401 6115.8C522.214 6108.74 520.112 6103 520.112 6098.53C520.112 6093.8 521.906 6090.05 525.485 6087.29C529.028 6084.55 533.949 6083.17 540.192 6083.17C546.435 6083.17 551.745 6084.54 555.578 6087.24C559.366 6089.92 561.269 6093.57 561.269 6098.2C561.269 6101.13 560.462 6104.34 558.84 6107.9C557.254 6111.38 551.89 6121.23 542.638 6137.44C542.294 6138.05 541.66 6138.44 540.971 6138.47L540.98 6138.46Z" stroke="white" stroke-width="0.75" stroke-linecap="round" stroke-linejoin="round"/>
<path d="M540.89 6149.74C540.192 6149.74 539.558 6150.11 539.195 6150.72L526.401 6172.46C522.214 6179.51 520.112 6185.26 520.112 6189.73C520.112 6194.45 521.906 6198.21 525.485 6200.97C529.028 6203.71 533.949 6205.08 540.192 6205.08C546.435 6205.08 551.745 6203.72 555.578 6201.01C559.366 6198.34 561.269 6194.67 561.269 6190.06C561.269 6187.13 560.462 6183.91 558.84 6180.36C557.254 6176.87 551.872 6167 542.593 6150.75C542.24 6150.12 541.587 6149.74 540.89 6149.74V6149.74Z" stroke="white" stroke-width="0.75" stroke-linecap="round" stroke-linejoin="round"/>
<path d="M543.4 6147.08C543.155 6147.73 543.273 6148.48 543.708 6149.01C551.854 6159.2 562.646 6177.45 572.378 6183.51C576.066 6185.82 579.881 6186.05 583.84 6184.22C587.755 6182.42 590.963 6179.78 594.098 6174.28C597.333 6168.6 598.864 6163.42 598.683 6158.74C598.511 6154.09 596.608 6150.64 593.001 6148.4C590.718 6146.97 587.809 6146.13 584.239 6145.83C580.741 6145.55 562.709 6145.52 545.158 6145.82C544.369 6145.82 543.671 6146.33 543.391 6147.08L543.4 6147.08Z" stroke="white" stroke-width="0.75" stroke-linecap="round" stroke-linejoin="round"/>
<path d="M543.363 6141.21C543.671 6141.76 544.242 6142.1 544.868 6142.11C562.519 6142.4 580.741 6142.38 584.257 6142.09C587.827 6141.79 590.736 6140.94 593.019 6139.52C596.617 6137.28 598.52 6133.83 598.701 6129.18C598.873 6124.5 597.351 6119.32 594.116 6113.65C590.981 6108.13 587.773 6105.49 583.858 6103.7C579.908 6101.88 576.084 6102.11 572.396 6104.42C562.582 6110.52 551.7 6129.01 543.526 6139.15C543.055 6139.73 542.992 6140.56 543.363 6141.22V6141.21Z" stroke="white" stroke-width="0.75" stroke-linecap="round" stroke-linejoin="round"/>
<path d="M537.691 6146.93C537.392 6146.26 536.749 6145.82 536.024 6145.81C518.427 6145.51 500.331 6145.54 496.824 6145.82C493.245 6146.12 490.337 6146.97 488.053 6148.39C484.456 6150.63 482.553 6154.08 482.372 6158.73C482.199 6163.41 483.722 6168.6 486.966 6174.27C490.11 6179.78 493.318 6182.42 497.232 6184.21C501.192 6186.04 505.007 6185.81 508.677 6183.5C518.445 6177.42 529.273 6159.08 537.428 6148.91C537.881 6148.35 537.981 6147.58 537.691 6146.92V6146.93Z" stroke="white" stroke-width="0.75" stroke-linecap="round" stroke-linejoin="round"/>
<path d="M537.446 6139.03C537.446 6139.03 537.392 6138.95 537.356 6138.91C529.21 6128.73 518.418 6110.48 508.677 6104.42C505.007 6102.11 501.183 6101.88 497.232 6103.7C493.318 6105.5 490.11 6108.14 486.966 6113.65C483.731 6119.32 482.199 6124.5 482.372 6129.18C482.553 6133.83 484.447 6137.28 488.053 6139.52C490.336 6140.95 493.245 6141.79 496.824 6142.09C500.322 6142.38 518.345 6142.4 535.897 6142.11C536.549 6142.1 537.156 6141.75 537.501 6141.18" stroke="white" stroke-width="0.75" stroke-linecap="round" stroke-linejoin="round"/>
<path d="M1696.75 7816.2C1703.48 7816.2 1708.9 7817.63 1712.9 7820.46C1716.83 7823.24 1718.74 7826.92 1718.74 7831.72C1718.74 7834.77 1717.91 7838.09 1716.2 7841.85C1714.45 7845.7 1708.3 7856.91 1698.9 7873.4C1698.62 7873.89 1698.12 7874.2 1697.57 7874.23H1697.5C1696.93 7874.23 1696.4 7873.92 1696.1 7873.42L1682.46 7850.25C1678.05 7842.82 1675.81 7836.7 1675.81 7832.08C1675.81 7827.22 1677.67 7823.33 1681.35 7820.49C1685.03 7817.65 1690.21 7816.2 1696.75 7816.2ZM1696.75 7815.65C1690.07 7815.65 1684.81 7817.12 1681.02 7820.05C1677.19 7823 1675.27 7827.01 1675.27 7832.08C1675.27 7836.85 1677.52 7843 1682 7850.54L1695.63 7873.71C1696.02 7874.38 1696.73 7874.78 1697.49 7874.78C1697.51 7874.78 1697.55 7874.78 1697.58 7874.78C1698.31 7874.75 1698.99 7874.34 1699.36 7873.68C1709.25 7856.34 1714.99 7845.81 1716.69 7842.09C1718.42 7838.29 1719.29 7834.84 1719.29 7831.71C1719.29 7826.76 1717.26 7822.85 1713.21 7819.98C1709.11 7817.09 1703.62 7815.64 1696.75 7815.64V7815.65Z" fill="white"/>
<path d="M1697.5 7887.41C1698.05 7887.41 1698.57 7887.71 1698.86 7888.2C1708.29 7904.75 1714.45 7915.99 1716.21 7919.83C1717.92 7923.6 1718.75 7926.91 1718.75 7929.98C1718.75 7934.71 1716.79 7938.5 1712.91 7941.24C1708.92 7944.06 1703.49 7945.5 1696.76 7945.5C1690.04 7945.5 1685.04 7944.05 1681.36 7941.21C1677.69 7938.38 1675.82 7934.48 1675.82 7929.63C1675.82 7924.78 1678.06 7918.89 1682.47 7911.46L1696.15 7888.2C1696.44 7887.72 1696.95 7887.42 1697.5 7887.42M1697.5 7886.85C1696.75 7886.85 1696.06 7887.25 1695.68 7887.9L1682 7911.15C1677.52 7918.69 1675.27 7924.84 1675.27 7929.61C1675.27 7934.66 1677.19 7938.68 1681.02 7941.64C1684.81 7944.57 1690.07 7946.04 1696.75 7946.04C1703.43 7946.04 1709.11 7944.59 1713.21 7941.7C1717.26 7938.83 1719.29 7934.92 1719.29 7929.98C1719.29 7926.85 1718.42 7923.4 1716.69 7919.6C1714.99 7915.88 1709.23 7905.32 1699.32 7887.92C1698.94 7887.26 1698.24 7886.85 1697.49 7886.85H1697.5Z" fill="white"/>
<path d="M1727.6 7882.98C1736.02 7882.98 1741.94 7883.07 1743.83 7883.22C1747.6 7883.53 1750.59 7884.4 1752.96 7885.89C1756.64 7888.17 1758.59 7891.74 1758.77 7896.49C1758.95 7901.37 1757.33 7906.86 1753.94 7912.8C1750.93 7918.08 1747.83 7921.09 1743.22 7923.22C1741.43 7924.04 1739.64 7924.47 1737.91 7924.47C1735.73 7924.47 1733.57 7923.8 1731.47 7922.49C1724.15 7917.94 1716.17 7906.73 1709.12 7896.83C1706.21 7892.74 1703.47 7888.89 1700.94 7885.73C1700.59 7885.3 1700.5 7884.72 1700.69 7884.21C1700.91 7883.62 1701.46 7883.22 1702.08 7883.21C1710.63 7883.07 1719.69 7882.98 1727.61 7882.98M1727.6 7882.42C1720.14 7882.42 1711.04 7882.49 1702.06 7882.64C1701.22 7882.66 1700.47 7883.2 1700.18 7884C1699.92 7884.71 1700.05 7885.5 1700.51 7886.08C1709.23 7896.98 1720.77 7916.49 1731.19 7922.98C1733.38 7924.35 1735.63 7925.03 1737.91 7925.03C1739.72 7925.03 1741.57 7924.6 1743.45 7923.74C1747.63 7921.82 1751.07 7918.99 1754.42 7913.1C1757.88 7907.03 1759.51 7901.49 1759.32 7896.48C1759.13 7891.5 1757.1 7887.81 1753.25 7885.42C1750.8 7883.9 1747.7 7882.99 1743.88 7882.67C1741.93 7882.51 1735.74 7882.42 1727.61 7882.42H1727.6Z" fill="white"/>
<path d="M1737.91 7836.87C1739.64 7836.87 1741.43 7837.29 1743.22 7838.12C1747.83 7840.23 1750.94 7843.25 1753.94 7848.54C1757.33 7854.48 1758.96 7859.96 1758.77 7864.85C1758.59 7869.6 1756.63 7873.17 1752.96 7875.45C1750.58 7876.93 1747.6 7877.8 1743.83 7878.12C1741.94 7878.28 1736.03 7878.36 1727.61 7878.36C1719.18 7878.36 1710.39 7878.28 1701.75 7878.13C1701.27 7878.13 1700.84 7877.86 1700.6 7877.44C1700.32 7876.94 1700.37 7876.31 1700.72 7875.88C1703.3 7872.67 1706.13 7868.7 1709.12 7864.5C1716.17 7854.61 1724.15 7843.39 1731.47 7838.84C1733.56 7837.53 1735.73 7836.87 1737.91 7836.87ZM1737.91 7836.31C1735.63 7836.31 1733.38 7837 1731.19 7838.37C1720.69 7844.9 1709.05 7864.67 1700.3 7875.51C1699.8 7876.14 1699.73 7877.02 1700.13 7877.72C1700.47 7878.3 1701.07 7878.67 1701.74 7878.68C1710.82 7878.84 1720.05 7878.92 1727.61 7878.92C1735.74 7878.92 1741.92 7878.83 1743.87 7878.67C1747.69 7878.35 1750.8 7877.44 1753.24 7875.91C1757.09 7873.52 1759.12 7869.82 1759.31 7864.86C1759.5 7859.85 1757.87 7854.31 1754.41 7848.24C1751.06 7842.35 1747.62 7839.52 1743.44 7837.6C1741.56 7836.74 1739.72 7836.3 1737.9 7836.3L1737.91 7836.31Z" fill="white"/>
<path d="M1666.63 7882.98C1674.59 7882.98 1683.7 7883.06 1692.29 7883.2C1692.84 7883.21 1693.35 7883.55 1693.57 7884.07C1693.8 7884.59 1693.73 7885.18 1693.37 7885.62C1690.82 7888.8 1688.04 7892.7 1685.1 7896.83C1678.05 7906.73 1670.07 7917.94 1662.75 7922.49C1660.66 7923.81 1658.5 7924.47 1656.33 7924.47C1654.6 7924.47 1652.81 7924.05 1651.02 7923.22C1646.41 7921.1 1643.3 7918.08 1640.29 7912.8C1636.9 7906.86 1635.27 7901.37 1635.45 7896.49C1635.63 7891.73 1637.59 7888.17 1641.26 7885.89C1643.64 7884.4 1646.63 7883.53 1650.4 7883.22C1652.29 7883.06 1658.2 7882.98 1666.62 7882.98M1666.63 7882.42C1658.5 7882.42 1652.32 7882.5 1650.37 7882.67C1646.53 7882.98 1643.43 7883.89 1640.99 7885.42C1637.14 7887.81 1635.11 7891.51 1634.92 7896.48C1634.73 7901.48 1636.36 7907.03 1639.83 7913.1C1643.19 7918.99 1646.63 7921.82 1650.81 7923.74C1652.69 7924.6 1654.53 7925.03 1656.35 7925.03C1658.63 7925.03 1660.87 7924.35 1663.06 7922.98C1673.51 7916.47 1685.09 7896.86 1693.82 7885.98C1694.3 7885.38 1694.41 7884.55 1694.1 7883.85C1693.78 7883.13 1693.09 7882.66 1692.32 7882.65C1683.3 7882.5 1674.14 7882.43 1666.66 7882.43L1666.63 7882.42Z" fill="white"/>
<path d="M1693.81 7875.39C1693.81 7875.39 1693.74 7875.3 1693.71 7875.26C1684.99 7864.36 1673.45 7844.85 1663.04 7838.37C1659.1 7835.9 1655.03 7835.65 1650.79 7837.61C1646.61 7839.53 1643.18 7842.35 1639.81 7848.25C1636.35 7854.31 1634.71 7859.85 1634.9 7864.87C1635.09 7869.84 1637.12 7873.53 1640.97 7875.92C1643.42 7877.44 1646.53 7878.35 1650.35 7878.67C1654.09 7878.98 1673.37 7879.02 1692.14 7878.7C1692.84 7878.69 1693.48 7878.31 1693.85 7877.71" stroke="white" stroke-width="0.6" stroke-miterlimit="10"/>
<path d="M312.852 3746.88C320.034 3746.88 325.855 3740.93 325.855 3733.58C325.855 3726.24 320.034 3720.28 312.852 3720.28C305.671 3720.28 299.849 3726.24 299.849 3733.58C299.849 3740.93 305.671 3746.88 312.852 3746.88Z" stroke="white" stroke-miterlimit="10"/>
<path d="M373.917 4015.81C378.736 4015.81 382.643 4011.82 382.643 4006.89C382.643 4001.96 378.736 3997.96 373.917 3997.96C369.097 3997.96 365.19 4001.96 365.19 4006.89C365.19 4011.82 369.097 4015.81 373.917 4015.81Z" stroke="white" stroke-miterlimit="10"/>
<path d="M53.0821 3642.04C57.9013 3642.04 61.8081 3638.05 61.8081 3633.12C61.8081 3628.19 57.9013 3624.19 53.0821 3624.19C48.2628 3624.19 44.356 3628.19 44.356 3633.12C44.356 3638.05 48.2628 3642.04 53.0821 3642.04Z" stroke="white" stroke-miterlimit="10"/>
<path d="M100.563 4016.69C111.018 4016.69 119.493 4008.03 119.493 3997.33C119.493 3986.64 111.018 3977.97 100.563 3977.97C90.1092 3977.97 81.6343 3986.64 81.6343 3997.33C81.6343 4008.03 90.1092 4016.69 100.563 4016.69Z" stroke="white" stroke-miterlimit="10"/>
<path d="M223.154 3555.14C223.154 3555.14 320.301 3620.24 208.448 3747.23C92.0729 3879.36 75.4726 3968.31 249.758 4032.99C371.434 4078.15 393.942 4129.88 380.658 4187.08C376.408 4205.39 368.733 4222.56 358.295 4237.85" stroke="white" stroke-width="0.75" stroke-miterlimit="10"/>
<path d="M133.547 3744.98L225.809 3725.82" stroke="white" stroke-width="0.75" stroke-miterlimit="10"/>
<path d="M85.7209 3708.7L254.833 3673.59" stroke="white" stroke-width="0.75" stroke-miterlimit="10"/>
<path d="M215.126 4077.01L306.826 4058.35" stroke="white" stroke-width="0.75" stroke-miterlimit="10"/>
<path d="M184.798 4129.51L355.957 4093.98" stroke="white" stroke-width="0.75" stroke-miterlimit="10"/>
<path d="M195.254 4008.7L287.272 3989.6" stroke="white" stroke-width="0.75" stroke-miterlimit="10"/>
<path d="M145.616 3972.8L314.728 3937.69" stroke="white" stroke-width="0.75" stroke-miterlimit="10"/>
<path d="M244.648 3798.65L154.397 3817.39" stroke="white" stroke-width="0.75" stroke-miterlimit="10"/>
<path d="M292.99 3834.88L126.742 3869.39" stroke="white" stroke-width="0.75" stroke-miterlimit="10"/>
<path d="M321.406 3888.72L122.256 3930.07" stroke="white" stroke-width="0.75" stroke-miterlimit="10"/>
<path d="M375.918 2988.42C375.918 2988.42 480.73 2973.6 472.176 2945.23C463.622 2916.86 388.749 2924.09 375.918 2988.42Z" stroke="white" stroke-width="0.75" stroke-miterlimit="10"/>
<path d="M375.918 2988.26C375.918 2988.26 326.968 2981.34 330.965 2968.09C334.961 2954.84 369.928 2958.22 375.918 2988.26Z" stroke="white" stroke-width="0.75" stroke-miterlimit="10"/>
<path d="M59.2256 4957.97C60.1771 4959.93 61.1648 4975.53 61.1648 4975.53" stroke="white" stroke-width="0.75" stroke-miterlimit="10"/>
<path d="M1638.17 8982.44C1644.2 8982.44 1649.06 8983.72 1652.62 8986.24C1656.12 8988.7 1657.82 8991.97 1657.82 8996.24C1657.82 8998.97 1657.07 9001.94 1655.53 9005.3C1653.96 9008.77 1648.41 9018.87 1639.94 9033.75C1639.72 9034.13 1639.32 9034.37 1638.89 9034.39H1638.83C1638.39 9034.39 1637.96 9034.15 1637.74 9033.76L1625.44 9012.86C1621.48 9006.19 1619.47 9000.71 1619.47 8996.57C1619.47 8992.2 1621.07 8988.83 1624.39 8986.27C1627.68 8983.74 1632.32 8982.44 1638.17 8982.44ZM1638.17 8981.74C1632.15 8981.74 1627.4 8983.08 1623.98 8985.72C1620.53 8988.38 1618.8 8991.99 1618.8 8996.56C1618.8 9000.86 1620.83 9006.41 1624.87 9013.22L1637.17 9034.12C1637.52 9034.72 1638.16 9035.09 1638.84 9035.09C1638.87 9035.09 1638.9 9035.09 1638.92 9035.09C1639.58 9035.06 1640.19 9034.68 1640.53 9034.1C1649.44 9018.45 1654.63 9008.96 1656.16 9005.6C1657.72 9002.17 1658.5 8999.06 1658.5 8996.24C1658.5 8991.77 1656.67 8988.25 1653.01 8985.66C1649.32 8983.05 1644.37 8981.74 1638.17 8981.74Z" fill="white"/>
<path d="M1638.84 9046.65C1639.28 9046.65 1639.68 9046.9 1639.9 9047.27C1648.41 9062.2 1653.96 9072.33 1655.54 9075.79C1657.07 9079.16 1657.83 9082.13 1657.83 9084.87C1657.83 9089.06 1656.08 9092.43 1652.63 9094.86C1649.06 9097.39 1644.21 9098.66 1638.18 9098.66C1632.15 9098.66 1627.69 9097.38 1624.4 9094.83C1621.14 9092.32 1619.48 9088.85 1619.48 9084.54C1619.48 9080.23 1621.49 9074.92 1625.45 9068.25L1637.79 9047.27C1638.01 9046.9 1638.42 9046.66 1638.84 9046.66M1638.84 9045.96C1638.17 9045.96 1637.55 9046.32 1637.21 9046.9L1624.87 9067.88C1620.84 9074.68 1618.8 9080.23 1618.8 9084.53C1618.8 9089.09 1620.53 9092.72 1623.98 9095.38C1627.4 9098.02 1632.15 9099.35 1638.17 9099.35C1644.2 9099.35 1649.32 9098.04 1653.01 9095.43C1656.67 9092.84 1658.5 9089.31 1658.5 9084.87C1658.5 9082.04 1657.73 9078.93 1656.16 9075.5C1654.63 9072.14 1649.43 9062.62 1640.49 9046.93C1640.15 9046.33 1639.52 9045.97 1638.84 9045.97V9045.96Z" fill="white"/>
<path d="M1666 9042.66C1673.59 9042.66 1678.92 9042.74 1680.61 9042.88C1683.99 9043.16 1686.65 9043.95 1688.77 9045.26C1692.08 9047.32 1693.76 9050.4 1693.93 9054.67C1694.09 9059.04 1692.63 9063.96 1689.59 9069.28C1686.9 9074 1684.13 9076.7 1680.01 9078.59C1678.41 9079.32 1676.83 9079.7 1675.3 9079.7C1673.37 9079.7 1671.44 9079.11 1669.59 9077.95C1663.03 9073.86 1655.83 9063.76 1649.49 9054.86C1646.86 9051.17 1644.38 9047.68 1642.09 9044.83C1641.83 9044.5 1641.76 9044.04 1641.9 9043.64C1642.08 9043.18 1642.5 9042.87 1642.98 9042.86C1650.69 9042.73 1658.87 9042.66 1666.01 9042.66M1666 9041.97C1659.27 9041.97 1651.07 9042.03 1642.96 9042.17C1642.2 9042.18 1641.53 9042.67 1641.26 9043.39C1641.03 9044.02 1641.14 9044.74 1641.56 9045.26C1649.43 9055.1 1659.83 9072.7 1669.22 9078.54C1671.21 9079.78 1673.23 9080.39 1675.29 9080.39C1676.93 9080.39 1678.58 9080 1680.28 9079.22C1684.06 9077.49 1687.15 9074.94 1690.17 9069.62C1693.3 9064.15 1694.77 9059.16 1694.6 9054.63C1694.42 9050.15 1692.59 9046.82 1689.11 9044.66C1686.91 9043.29 1684.1 9042.47 1680.66 9042.18C1678.9 9042.03 1673.32 9041.96 1665.99 9041.96L1666 9041.97Z" fill="white"/>
<path d="M1675.3 9001.08C1676.83 9001.08 1678.41 9001.45 1680.01 9002.19C1684.13 9004.08 1686.9 9006.78 1689.59 9011.5C1692.63 9016.82 1694.09 9021.74 1693.93 9026.11C1693.76 9030.38 1692.08 9033.46 1688.77 9035.52C1686.68 9036.82 1683.93 9037.62 1680.61 9037.9C1678.92 9038.04 1673.6 9038.12 1666.01 9038.12C1658.41 9038.12 1650.48 9038.05 1642.67 9037.92C1642.32 9037.92 1641.99 9037.71 1641.8 9037.4C1641.59 9037.02 1641.62 9036.53 1641.9 9036.2C1644.23 9033.3 1646.78 9029.72 1649.48 9025.94C1655.82 9017.04 1663.02 9006.93 1669.58 9002.85C1671.44 9001.68 1673.37 9001.09 1675.29 9001.09M1675.3 9000.38C1673.23 9000.38 1671.21 9001 1669.23 9002.23C1659.76 9008.13 1649.27 9025.96 1641.38 9035.74C1640.93 9036.3 1640.86 9037.1 1641.22 9037.73C1641.52 9038.26 1642.08 9038.59 1642.67 9038.6C1650.87 9038.74 1659.2 9038.81 1666.02 9038.81C1673.35 9038.81 1678.92 9038.73 1680.68 9038.58C1684.12 9038.3 1686.93 9037.48 1689.13 9036.1C1692.6 9033.94 1694.44 9030.61 1694.61 9026.13C1694.79 9021.6 1693.31 9016.61 1690.19 9011.14C1687.17 9005.82 1684.08 9003.27 1680.3 9001.54C1678.61 9000.76 1676.94 9000.37 1675.3 9000.37L1675.3 9000.38Z" fill="white"/>
<path d="M1611 9042.66C1618.17 9042.66 1626.4 9042.73 1634.14 9042.86C1634.56 9042.86 1634.95 9043.13 1635.14 9043.53C1635.31 9043.93 1635.25 9044.38 1634.98 9044.73C1632.68 9047.6 1630.17 9051.12 1627.51 9054.85C1621.17 9063.76 1613.98 9073.85 1607.42 9077.94C1605.56 9079.11 1603.64 9079.69 1601.72 9079.69C1600.19 9079.69 1598.6 9079.32 1597.01 9078.58C1592.88 9076.69 1590.11 9073.99 1587.41 9069.27C1584.36 9063.95 1582.91 9059.03 1583.08 9054.66C1583.24 9050.38 1584.93 9047.3 1588.23 9045.25C1590.35 9043.94 1593.02 9043.16 1596.4 9042.87C1598.09 9042.73 1603.41 9042.65 1611.01 9042.65M1611 9041.96C1603.67 9041.96 1598.09 9042.04 1596.33 9042.19C1592.88 9042.47 1590.07 9043.29 1587.87 9044.67C1584.4 9046.83 1582.56 9050.16 1582.39 9054.64C1582.22 9059.17 1583.69 9064.16 1586.82 9069.63C1589.86 9074.95 1592.95 9077.5 1596.72 9079.23C1598.41 9080.01 1600.08 9080.4 1601.72 9080.4C1603.77 9080.4 1605.79 9079.78 1607.77 9078.54C1617.19 9072.68 1627.63 9054.99 1635.51 9045.17C1635.94 9044.63 1636.04 9043.88 1635.76 9043.25C1635.47 9042.6 1634.85 9042.19 1634.16 9042.18C1626.02 9042.04 1617.76 9041.97 1611.01 9041.97L1611 9041.96Z" fill="white"/>
<path d="M1601.71 9001.08C1603.64 9001.08 1605.55 9001.67 1607.41 9002.83C1613.97 9006.91 1621.16 9017.01 1627.51 9025.92C1630.13 9029.61 1632.62 9033.1 1634.9 9035.95C1635.22 9036.35 1635.25 9036.91 1634.99 9037.34C1634.78 9037.69 1634.41 9037.9 1634.01 9037.91C1626.3 9038.04 1618.13 9038.11 1611 9038.11C1603.4 9038.11 1598.07 9038.03 1596.39 9037.89C1593.02 9037.61 1590.35 9036.83 1588.23 9035.51C1584.92 9033.45 1583.23 9030.37 1583.07 9026.1C1582.91 9021.72 1584.36 9016.81 1587.41 9011.49C1590.1 9006.77 1592.88 9004.07 1597.01 9002.18C1598.6 9001.45 1600.19 9001.08 1601.72 9001.08M1601.71 9000.38C1600.07 9000.38 1598.41 9000.77 1596.72 9001.55C1592.95 9003.28 1589.85 9005.83 1586.81 9011.15C1583.69 9016.62 1582.22 9021.61 1582.38 9026.14C1582.55 9030.62 1584.38 9033.95 1587.86 9036.11C1590.06 9037.48 1592.87 9038.3 1596.33 9038.59C1598.08 9038.74 1603.66 9038.81 1610.99 9038.81C1617.71 9038.81 1625.92 9038.75 1634.02 9038.61C1634.65 9038.6 1635.24 9038.26 1635.56 9037.71C1635.98 9037.03 1635.92 9036.14 1635.43 9035.52C1627.56 9025.69 1617.16 9008.08 1607.76 9002.23C1605.79 9000.99 1603.77 9000.38 1601.71 9000.38Z" fill="white"/>
<path d="M249.378 5125.17C249.378 5125.17 333.213 5260.06 392.311 5275.7" stroke="white" stroke-width="0.75" stroke-miterlimit="10"/>
<path d="M1561.11 8471.21L1575.15 8454.35" stroke="white" stroke-width="0.75" stroke-linecap="round" stroke-linejoin="round"/>
<path d="M1545.16 8462.78C1544.91 8461.78 1546.13 8439.03 1546.13 8439.03" stroke="white" stroke-width="0.75" stroke-linecap="round" stroke-linejoin="round"/>
<path d="M1483.48 8516.4L1506.78 8507.02" stroke="white" stroke-width="0.75" stroke-linecap="round" stroke-linejoin="round"/>
<path d="M1483.48 8480.88L1504.86 8486.57" stroke="white" stroke-width="0.75" stroke-linecap="round" stroke-linejoin="round"/>
<path d="M1512.48 8454.35L1521.9 8467.6" stroke="white" stroke-width="0.75" stroke-linecap="round" stroke-linejoin="round"/>
<path d="M237.628 4388.07C240.709 4388.07 244.162 4388.98 247.895 4390.78C253.051 4393.26 256.712 4396.36 258.769 4399.98C260.78 4403.53 260.952 4407.01 259.276 4410.66C258.198 4412.99 256.394 4415.22 253.758 4417.48C251.039 4419.79 242.313 4426.16 229.183 4435.41C228.984 4435.55 228.757 4435.62 228.513 4435.62C228.359 4435.62 228.205 4435.6 228.06 4435.53C227.661 4435.36 227.389 4434.98 227.344 4434.55L225.042 4411.56C224.281 4404.21 224.716 4398.7 226.347 4395.16C228.069 4391.42 230.76 4389.21 234.593 4388.39C235.553 4388.18 236.577 4388.07 237.619 4388.07M237.628 4387.38C236.532 4387.38 235.472 4387.49 234.457 4387.7C230.443 4388.55 227.534 4390.94 225.74 4394.85C224.046 4398.54 223.602 4404.14 224.372 4411.63L226.673 4434.6C226.746 4435.3 227.172 4435.89 227.806 4436.16C228.033 4436.26 228.277 4436.31 228.522 4436.31C228.893 4436.31 229.256 4436.2 229.573 4435.98C243.382 4426.25 251.565 4420.25 254.202 4418.01C256.893 4415.71 258.787 4413.37 259.901 4410.95C261.659 4407.12 261.478 4403.35 259.367 4399.63C257.228 4395.86 253.504 4392.7 248.194 4390.15C244.352 4388.29 240.827 4387.38 237.638 4387.38H237.628Z" fill="white"/>
<path d="M222.151 4447.67C222.314 4447.67 222.477 4447.71 222.631 4447.78C222.993 4447.96 223.238 4448.32 223.274 4448.73C224.679 4465.02 225.449 4475.98 225.44 4479.61C225.431 4483.12 224.896 4485.96 223.818 4488.3C222.169 4491.89 219.351 4494.04 215.454 4494.7C214.575 4494.85 213.66 4494.93 212.736 4494.93C209.383 4494.93 205.632 4493.94 201.6 4492C196.589 4489.59 193.127 4486.57 191.315 4483.04C189.521 4479.56 189.466 4475.92 191.161 4472.23C192.792 4468.69 196.67 4464.82 202.687 4460.75L221.525 4447.86C221.716 4447.73 221.924 4447.67 222.151 4447.67ZM222.151 4446.97C221.797 4446.97 221.453 4447.08 221.145 4447.29L202.306 4460.17C196.163 4464.33 192.239 4468.25 190.545 4471.94C188.751 4475.84 188.805 4479.67 190.717 4483.38C192.602 4487.05 196.145 4490.15 201.31 4492.64C205.46 4494.63 209.265 4495.63 212.736 4495.63C213.706 4495.63 214.648 4495.56 215.572 4495.4C219.722 4494.69 222.685 4492.42 224.443 4488.6C225.558 4486.19 226.11 4483.2 226.129 4479.61C226.138 4476.1 225.44 4465.81 223.963 4448.67C223.909 4448.01 223.51 4447.44 222.93 4447.16C222.685 4447.04 222.423 4446.98 222.16 4446.98L222.151 4446.97Z" fill="white"/>
<path d="M227.752 4444.45C227.906 4444.45 228.051 4444.48 228.196 4444.54C242.25 4451.02 257.618 4458.42 260.436 4460.07C263.209 4461.7 265.184 4463.46 266.471 4465.47C268.482 4468.58 268.718 4471.9 267.177 4475.61C265.601 4479.42 262.42 4483.03 257.717 4486.33C253.721 4489.14 250.296 4490.35 246.264 4490.35C246.128 4490.35 245.992 4490.35 245.847 4490.35C242.087 4490.29 239.26 4488.71 237.203 4485.51C233.188 4479.31 231.014 4467.7 229.084 4457.45C228.286 4453.2 227.534 4449.2 226.701 4445.81C226.61 4445.43 226.719 4445.02 226.99 4444.75C227.19 4444.55 227.462 4444.44 227.743 4444.44M227.752 4443.75C227.308 4443.75 226.864 4443.93 226.528 4444.26C226.075 4444.71 225.894 4445.36 226.048 4445.98C228.911 4457.65 230.887 4477.02 236.632 4485.91C238.797 4489.28 241.869 4490.99 245.838 4491.05C245.983 4491.05 246.119 4491.05 246.264 4491.05C250.024 4491.05 253.585 4490.09 258.098 4486.9C262.928 4483.5 266.163 4479.83 267.794 4475.88C269.416 4471.97 269.153 4468.36 267.032 4465.08C265.682 4462.99 263.607 4461.14 260.771 4459.47C257.989 4457.84 243.092 4450.65 228.467 4443.9C228.232 4443.8 227.987 4443.74 227.752 4443.74V4443.75Z" fill="white"/>
<path d="M268.147 4421.14C271.255 4421.14 273.801 4422.38 275.949 4424.95C278.731 4428.26 280.045 4431.71 280.479 4436.87C280.987 4442.68 280.298 4447.48 278.441 4451.15C276.619 4454.73 273.973 4456.67 270.349 4457.07C269.923 4457.12 269.479 4457.14 269.035 4457.14C267.069 4457.14 264.849 4456.67 262.438 4455.75C259.358 4454.57 243.863 4447.12 229.926 4440.13C229.636 4439.98 229.437 4439.68 229.401 4439.35C229.365 4438.95 229.582 4438.57 229.935 4438.39C233.08 4436.87 236.677 4434.85 240.483 4432.72C249.426 4427.71 259.566 4422.02 266.797 4421.23C267.259 4421.18 267.712 4421.16 268.156 4421.16M268.147 4420.44C267.685 4420.44 267.205 4420.47 266.715 4420.53C256.277 4421.68 240.256 4432.62 229.645 4437.76C229.029 4438.05 228.667 4438.71 228.73 4439.4C228.776 4439.97 229.12 4440.48 229.627 4440.74C244.107 4448.01 259.185 4455.23 262.203 4456.39C264.695 4457.35 266.969 4457.83 269.035 4457.83C269.506 4457.83 269.968 4457.8 270.421 4457.75C274.254 4457.34 277.136 4455.24 279.048 4451.46C280.978 4447.66 281.685 4442.77 281.159 4436.8C280.661 4431 279.021 4427.53 276.465 4424.49C274.209 4421.8 271.436 4420.44 268.147 4420.44Z" fill="white"/>
<path d="M181.657 4423.96C183.623 4423.96 185.852 4424.43 188.262 4425.35C191.325 4426.53 206.747 4433.95 220.62 4440.91C220.974 4441.08 221.191 4441.45 221.191 4441.86C221.191 4442.26 220.965 4442.61 220.611 4442.79C217.503 4444.3 213.969 4446.28 210.218 4448.39C201.274 4453.4 191.126 4459.09 183.904 4459.89C183.442 4459.94 182.98 4459.97 182.545 4459.97C179.446 4459.97 176.899 4458.73 174.761 4456.16C171.979 4452.85 170.665 4449.4 170.221 4444.24C169.714 4438.43 170.402 4433.63 172.26 4429.96C174.081 4426.37 176.727 4424.44 180.352 4424.04C180.778 4423.99 181.213 4423.96 181.657 4423.96M181.657 4423.26C181.185 4423.26 180.723 4423.29 180.279 4423.33C176.455 4423.75 173.565 4425.85 171.653 4429.63C169.723 4433.43 169.016 4438.32 169.542 4444.3C170.04 4450.11 171.689 4453.57 174.244 4456.61C176.501 4459.3 179.264 4460.66 182.545 4460.66C183.016 4460.66 183.496 4460.63 183.985 4460.57C194.37 4459.43 210.3 4448.58 220.91 4443.42C221.499 4443.13 221.871 4442.54 221.88 4441.87C221.889 4441.19 221.517 4440.58 220.928 4440.29C206.494 4433.04 191.515 4425.86 188.516 4424.71C186.015 4423.75 183.741 4423.27 181.666 4423.27L181.657 4423.26Z" fill="white"/>
<path d="M224.671 4435.24C224.671 4435.24 224.653 4435.15 224.644 4435.1M224.644 4435.1C221.78 4423.44 219.796 4404.07 214.051 4395.18C211.894 4391.81 208.823 4390.1 204.854 4390.03C200.939 4389.96 197.278 4390.87 192.585 4394.18C187.755 4397.58 184.52 4401.25 182.88 4405.2C181.258 4409.11 181.521 4412.72 183.641 4416C184.991 4418.09 187.066 4419.95 189.912 4421.62C192.693 4423.25 207.581 4430.44 222.206 4437.18C222.75 4437.43 223.384 4437.38 223.882 4437.05C224.797 4436.83 224.771 4435.66 224.644 4435.1Z" stroke="white" stroke-width="0.75" stroke-miterlimit="10"/>
<path d="M429.843 0.375061C436.992 11.3759 425.584 25.8244 420.954 27.956C419.133 28.7901 415.109 29.9763 403.203 24.5176C391.296 19.0589 371.615 18.8921 356.238 31.9967C340.87 45.1013 317.446 89.5125 352.323 100.291C387.2 111.069 404.707 61.8019 406.175 51.4776C407.045 45.3608 417.619 30.5046 422.667 36.6584C427.714 42.8122 414.992 58.2523 419.894 64.9622C424.805 71.6627 432.951 74.1372 432.444 79.4384C431.936 84.7303 424.678 94.8785 422.531 97.0287C420.383 99.1788 428.638 95.6663 431.248 92.5708C433.866 89.4754 439.747 82.5153 436.521 74.6007C440.1 80.1335 449.887 95.5365 442.429 107.872C434.981 120.207 425.086 133.09 426.717 146.018C428.348 158.947 419.984 161.023 418.39 160.958C416.786 160.893 421.307 164.544 427.088 161.217C432.879 157.89 434.528 151.236 434.727 141.616C434.926 131.996 433.268 133.571 439.838 123.831C446.407 114.091 451.019 106.686 450.313 101.663C449.597 96.6394 454.463 107.696 461.911 110.226C469.36 112.756 477.841 112.487 480.985 119.318C484.13 126.148 485.217 126.435 484.628 123.219C484.048 120.003 477.433 109.253 465.744 101.968C454.064 94.6839 452.052 96.2779 447.893 85.1752C443.734 74.0631 442.357 59.6703 443.888 56.2875C445.419 52.9141 448.528 49.2347 451.083 52.8492C453.647 56.4636 453.901 60.0688 459.945 60.3468C465.989 60.6249 469.495 57.6406 474.787 64.6841C480.07 71.7184 482.136 70.8472 478.122 64.2578C474.108 57.6684 466.097 54.6379 458.867 52.6453C451.636 50.6435 454.164 48.827 450.467 44.2116C446.77 39.5963 441.478 34.916 436.159 34.9438C430.849 34.9809 423.591 32.6176 415.191 24.184C406.791 15.7503 378.266 4.89773 354.353 25.398C330.431 45.8983 311.629 80.8101 343.108 108.382C346.279 111.162 349.116 114.304 351.617 117.705C352.523 118.938 353.275 120.291 353.855 121.718C354.208 122.598 354.525 125.129 354.589 126.083C356.437 152.969 327.713 163.673 320.745 153.46C314.637 144.517 328.229 129.92 341.93 127.13C341.93 127.13 353.61 124.934 355.368 127.566C375.801 158.214 368.525 200.086 337.952 211.189C299.378 225.202 279.498 246.888 286.901 299.038L291.712 374.617C292.537 387.61 294.168 400.53 296.46 413.328C301.852 443.421 305.839 523.318 228.627 621.946C211.737 643.521 197.338 671.139 186.338 702.585C172.692 760.879 165.733 820.61 165.597 880.554L165.551 901.582C178.899 1016.37 238.051 1129.3 367.673 1179.94C394.631 1190.47 422.032 1201.5 445.791 1211.06L547.233 1260.16C547.985 1259.63 661.233 1295.87 676.492 1407.69C679.972 1433.17 687.629 1442.94 689.097 1450.14C690.565 1457.34 687.475 1458.93 684.548 1453.81C681.621 1448.7 695.068 1427.81 701.203 1417.11C707.346 1406.42 706.331 1384.91 709.421 1357.1C712.511 1329.29 723.938 1307.35 748.702 1289.37C773.476 1271.39 825.733 1272.98 862.848 1311.61C899.963 1350.24 885.737 1402.36 866.037 1427.44C846.338 1452.53 820.214 1457.88 797.072 1465.49C773.929 1473.09 752.408 1497.47 746.446 1500.53C740.484 1503.59 738.427 1493.77 734.104 1491.05C729.773 1488.32 726.674 1485.71 723.204 1480.16C719.724 1474.61 729.927 1467.19 741.1 1450.19C752.272 1433.18 776.24 1426.99 776.24 1426.99C786.406 1425.07 794.87 1437.94 800.352 1437.26C805.834 1436.58 805.689 1432.32 805.064 1428.22C804.438 1424.13 806.948 1421.62 809.123 1418.36C811.298 1415.11 809.341 1413.6 807.909 1410.21C806.477 1406.81 808.543 1405.28 809.694 1400.9C810.845 1396.53 805.354 1399.45 803.106 1395.5C800.859 1391.55 802.526 1382.42 797.941 1384.35C793.356 1386.28 782.057 1410.69 775.823 1418.95C769.589 1427.2 759.965 1429.24 755.217 1432.41C750.469 1435.58 751.457 1433.59 757.12 1424.73C762.784 1415.87 772.343 1401.86 776.53 1396.27C780.725 1390.69 790.883 1384.63 796.691 1374.89C802.499 1365.15 820.015 1358.92 826.14 1358.58C832.266 1358.23 833.996 1350.75 832.329 1349.05C830.662 1347.34 828.107 1343.23 827.21 1339.72C826.312 1336.2 823.748 1333.3 818.565 1332.29C813.391 1331.28 809.141 1330.66 801.856 1333.54C794.571 1336.43 798.032 1358.07 795.975 1366.66C793.909 1375.25 783.588 1384.63 775.859 1390.57C768.13 1396.51 761.252 1413.86 759.358 1415.72C757.465 1417.58 759.92 1399.61 766.698 1383.75C773.485 1367.88 790.212 1355.68 792.015 1350.4C793.819 1345.12 787.802 1345.23 783.896 1345.79C779.991 1346.34 778.904 1345.85 774.137 1344.45C769.371 1343.05 768.392 1345.52 764.94 1348.41C761.488 1351.3 759.023 1351.04 753.396 1350.34C747.769 1349.63 746.926 1354.16 741.689 1359C736.451 1363.85 725.786 1361.13 724.318 1371.33C722.85 1381.52 734.712 1381.12 742.414 1384.33C750.116 1387.55 755.752 1392.8 755.661 1407.28C755.571 1421.75 743.764 1442.68 732.972 1455.81C722.18 1468.95 717.132 1473.33 716.127 1473.66C708.334 1476.32 686.496 1455.96 685.681 1458.35C684.865 1460.74 734.675 1493.59 738.028 1497.75C741.381 1501.91 737.04 1503.05 735.726 1502.54C734.412 1502.04 685.717 1462.19 682.101 1461.03C678.486 1459.87 673.801 1466.91 675.487 1470.36C677.172 1473.82 724.282 1511.88 727.78 1513.3C731.277 1514.71 731.051 1517.73 728.912 1520.61C726.774 1523.5 725.324 1524.34 723.149 1523.26C720.975 1522.19 670.992 1480.09 668.663 1478.96C666.335 1477.83 662.221 1482.13 663.779 1485.59C665.338 1489.05 711.904 1527.3 715.665 1531.09C719.425 1534.88 715.9 1536.3 713.762 1539C711.623 1541.7 709.693 1542.47 706.92 1539.21C704.148 1535.96 657.871 1490.6 654.12 1497.76C650.369 1504.91 650.74 1511.07 656.358 1517.96C661.985 1524.87 687.892 1544.39 691.915 1547.09C695.938 1549.79 699.128 1551.72 694.905 1554.18C690.673 1556.65 682.201 1548.57 675.713 1544.64C669.225 1540.7 657.609 1528.17 654.238 1528.2C650.867 1528.24 650.07 1530.57 650.523 1535.04C650.976 1539.51 660.4 1544.55 669.388 1550.77C678.377 1556.99 657.02 1568.28 637.529 1589.13C618.038 1609.98 562.129 1611.54 548.084 1599.49C534.039 1587.44 532.327 1562.36 559.067 1561.9C585.807 1561.44 590.401 1611.38 551.736 1626.87C513.071 1642.35 438.297 1671.41 438.297 1671.41L432.444 1673.94L425.439 1676.62C425.439 1676.62 351.571 1709.61 284.916 1753.91C230.847 1789.84 189.256 1842.32 166.022 1903.84L162.443 1913.33C145.444 1955.71 135.196 2004.79 133.746 2062.17C133.746 2062.17 125.12 2262.39 296.632 2372.28C323.046 2389.2 352.496 2400.52 383.15 2406.25C423.165 2413.73 511.603 2411 598.81 2428.78C716.408 2452.76 789.127 2506.53 802.873 2628.38C812.873 2665.88 880.656 2765.62 880.873 2767.88C907.873 2791.88 805.173 2936.05 729.873 3029.38C694.942 3072.67 645.711 3101.83 622.777 3115.77C610.49 3123.24 597.704 3129.92 584.475 3135.7C499.579 3172.86 393.036 3176.86 262.897 3104.88C53.8704 2989.28 181.753 2828.84 287.988 2873.35C417.964 2927.79 409.727 3217.24 379.082 3320.41C317.147 3528.91 108.909 3502.86 80.1483 3491.16C5.8182 3460.92 90.7772 3397.56 114.962 3449.59C133.103 3488.62 105.502 3535.72 80.7826 3573.75C66.366 3595.93 48.2162 3632.28 51.9857 3658.62C56.77 3692.1 80.991 3733.41 158.728 3764.76C320.491 3829.98 374.107 3902.03 246.288 4039.38C148.072 4144.92 151.805 4195.81 195.943 4240.68C212.498 4257.51 232.995 4269.65 255.277 4276.75C277.495 4283.83 313.912 4296.81 323.363 4327.29C325.058 4332.75 326.417 4339.46 327.305 4346.74C331.274 4379.38 291.114 4403.67 261.873 4417.38C244.707 4428.71 203.542 4461.71 163.873 4480.88C104.873 4509.38 63.113 4589.38 59.9234 4624.88C56.7338 4660.38 79.3056 4747.88 79.3056 4747.88C103.082 4825.38 134.842 4907.26 136.582 4916.64C138.313 4926.02 105.167 4936.51 79.3056 4941.62C53.4445 4946.72 5.89974 4947.68 1.65904 4939.98C-2.58166 4932.28 4.64928 4928.58 9.16182 4935.18C13.6744 4941.79 9.89579 4957.33 29.1602 4961.46C48.4336 4965.59 117.001 4962.34 130.04 4945.44C143.079 4928.55 131.154 4919.76 132.523 4933.71C133.9 4947.66 125.083 4956.69 133.329 4966.49C141.575 4976.31 138.703 4975.18 135.649 4975.04C132.595 4974.89 117.979 4973.35 126.325 4992.05C134.661 5010.76 151.769 5006.19 159.118 5015.27C166.466 5024.34 166.675 5028.75 172.973 5034.33C172.973 5034.33 179.75 5040.85 177.114 5037.16C174.477 5033.47 168.369 5024.92 167.989 5035.69C167.608 5046.46 169.692 5082.51 164.591 5100.56C159.489 5118.59 154.225 5142.72 144.901 5151.81C135.567 5160.91 116.856 5167.88 108.338 5161.21C99.8204 5154.54 98.6424 5144.53 109.389 5137.22C120.127 5129.91 119.837 5128.49 122.573 5119.09C125.31 5109.68 134.987 5095.83 130.656 5099.93C130.656 5099.93 115.596 5122.1 108.574 5130.89C101.542 5139.69 96.5402 5147.43 85.1501 5144.38C73.76 5141.33 71.4947 5133.96 75.5451 5126.99C79.5955 5120.02 98.9868 5088.2 96.1415 5090.7C93.2963 5093.2 77.294 5129.4 68.9303 5129.88C60.5667 5130.37 48.9411 5118.63 53.3358 5107.4C57.7305 5096.16 70.8967 5069.24 67.8611 5073.68C64.8256 5078.12 55.9455 5113.28 46.8388 5110.64C37.7322 5108 28.1997 5097.43 33.4009 5085.76C38.6021 5074.1 41.0758 5067.29 49.4032 5061.71C57.7305 5056.13 53.1546 5046.28 47.9987 5043.31C42.8428 5040.35 26.1065 5050.01 20.9778 5064.2C16.5287 5076.5 26.0703 5082.76 28.689 5084.22C29.0877 5084.44 29.3323 5084.55 29.3323 5084.55C29.3323 5084.55 34.0624 5086.29 37.8953 5078.77C41.7282 5071.25 45.5612 5066.69 50.5087 5062.12C55.4562 5057.55 56.2082 5053.76 54.2963 5050.85C54.2782 5050.82 54.2601 5050.79 54.2419 5050.76C52.8012 5048.52 53.7889 5045.51 56.2082 5044.46C64.146 5040.99 75.3458 5030.52 67.6165 5023.26C58.7092 5014.88 41.2299 5020.36 33.2468 5025.61C25.2638 5030.86 23.8049 5026.45 26.324 5014.56C28.843 5002.67 48.053 5001.32 59.9234 4998.54C65.8586 4997.15 67.6527 4994.2 67.9698 4991.61C68.287 4989.01 67.1 4986.57 65.0974 4985.04C60.9836 4981.88 50.8711 4977.79 36.971 4984.52C18.4678 4993.48 32.685 5005.35 32.685 5005.35C43.9301 5013.14 49.5844 4993.45 63.113 4976.62C76.6415 4959.79 143.632 4967.22 143.632 4967.22C143.632 4967.22 176.108 4974.67 194.031 4997.85C211.954 5021.03 209.879 5041.59 210.695 5056.3C211.51 5071 211.293 5093.55 217.056 5103.05C222.828 5112.54 221.233 5113.13 212.833 5117.68C204.433 5122.23 170.68 5155.13 157.904 5177.98C145.127 5200.84 150.41 5204.65 157.65 5207.6C164.89 5210.56 175.582 5173.95 205.929 5147.09C236.284 5120.23 247.565 5120.85 240.099 5115C232.632 5109.13 220.662 5107.18 228.663 5110.55C236.665 5113.92 259.028 5112.01 251.063 5117.99C243.098 5123.97 211.32 5138.14 184.707 5177.05C158.085 5215.97 154.388 5213.28 158.511 5221.3C162.634 5229.32 165.379 5227.29 166.901 5241.43C168.424 5255.56 189.863 5300.89 218.116 5312.77C246.369 5324.65 263.948 5310.04 248.961 5298.24C233.982 5286.44 182.351 5327.78 195.553 5375.16C208.756 5422.54 299.505 5433.14 304.833 5490.52C310.161 5547.89 319.811 5573.09 335.37 5575.39L396.497 5589.81C412.463 5593.58 427.596 5600.36 441.133 5609.8C480.106 5636.96 573.365 5695.22 670.186 5706.28C797.316 5720.8 810.038 5632.41 771.963 5619.21C733.887 5606.01 691.661 5661.91 716.19 5757.62C740.71 5853.32 816.3 6028.67 582.282 6133.53L482.335 6157.16C459.31 6160.5 439.638 6160.4 422.92 6161.39C375.774 6164.19 330.322 6181.17 291.295 6208.35C253.555 6234.64 215.751 6275.18 200.347 6336.34C200.347 6336.34 186.882 6414.99 218.451 6466.27C250.021 6517.55 263.948 6632.73 226.806 6686.24C189.673 6739.74 101.47 6706.51 139.536 6655.23C157.387 6631.18 189.718 6630.67 218.651 6646.7C269.956 6675.13 280.213 6745.72 240.597 6789.54C222.692 6809.35 203.962 6830.07 208.647 6847.77C211.193 6857.39 220.744 6863.53 230.195 6861.14C232.533 6860.55 253.519 6849.44 256.79 6835.07C260.07 6820.69 257.95 6820.48 257.533 6821.34C257.125 6822.18 257.007 6838.12 241.648 6848.15C240.824 6848.69 239.718 6848.33 239.392 6847.39C236.538 6839.3 232.786 6814.62 262.716 6800.91C264.827 6801.88 274.224 6818.25 268.443 6833.01C262.671 6847.77 255.73 6851.61 255.73 6851.61C255.73 6851.61 282.162 6840.54 305.54 6858.7C328.927 6876.87 322.965 6893.09 322.965 6893.09C322.965 6893.09 274.595 6904.76 263.051 6864.3C269.603 6859.74 299.251 6866.71 304.924 6878.17C304.924 6878.17 290.652 6843.11 239.238 6862.92C187.824 6882.72 165.823 6962.28 187.77 7015.12C209.725 7067.97 267.002 7094.91 332.334 7081.22C341.287 7077.47 393.435 7062.64 409.636 6994.82C425.838 6927 381.311 6856.67 315.861 6843.08C295.464 6840.85 288.106 6841.27 286.955 6843.19C285.804 6845.11 297.983 6847.09 304.652 6851.82C311.321 6856.54 315.997 6862.02 318.769 6861.73C321.542 6861.43 322.077 6862.9 321.352 6863.88C320.627 6864.86 322.113 6866.23 322.883 6867.5C323.644 6868.77 326.136 6873.17 326.997 6872.57C327.858 6871.98 324.224 6867.78 325.946 6868.17C327.668 6868.56 329.144 6869.69 330.042 6870.65C330.93 6871.6 332.026 6870.9 331.582 6869.62C331.138 6868.34 330.25 6866.4 331.401 6867.1C332.552 6867.79 334.074 6868.96 333.603 6870.92C333.122 6872.87 331.981 6874.86 333.603 6875.77C335.225 6876.69 337.626 6880.2 339.909 6881.08C342.193 6881.96 344.114 6881.91 343.733 6880.67C343.353 6879.42 342.302 6877.82 344.023 6878.18C345.745 6878.54 353.963 6880.01 354.063 6879.13C354.163 6878.25 350.765 6876.11 351.743 6875.76C352.722 6875.41 355.495 6876.49 356.256 6875.9C357.017 6875.32 354.634 6872.09 351.952 6870.42C349.279 6868.77 342.202 6864.75 342.972 6863.68C343.742 6862.6 346.986 6864.65 348.137 6864.86C349.288 6865.05 350.43 6863.78 351.671 6864.66C352.912 6865.54 356.637 6867.74 357.887 6869.14C359.128 6870.53 358.53 6872.44 360.261 6872.81C361.992 6873.17 363.424 6873.96 362.563 6875.52C361.702 6877.09 360.75 6877.04 360.651 6878.19C360.551 6879.33 360.143 6878.94 358.73 6878.65C357.307 6878.36 356.002 6878.28 356.446 6879.83C356.89 6881.38 360.035 6882.35 360.08 6883.56C360.134 6884.76 363.704 6883.74 364.185 6884.62C364.665 6885.5 363.958 6888.45 366.495 6888.69C369.033 6888.93 368.579 6887.67 370.02 6888.69C371.452 6889.71 374.895 6890.16 374.895 6890.16C374.895 6890.16 378.257 6892.65 378.529 6890.78C378.792 6888.9 374.034 6882.61 371.742 6880.68C369.449 6878.76 377.151 6883.41 379.145 6887.13C381.138 6890.84 383.177 6893.81 383.793 6894.47C384.41 6895.11 385.669 6895.51 385.597 6896.77C385.524 6898.03 383.558 6898.2 383.793 6899.26C384.029 6900.31 382.108 6899.76 381.836 6900.99C381.555 6902.22 379.426 6899.36 377.043 6897.74C374.66 6896.11 364.928 6889.48 357.543 6890.9C350.158 6892.32 352.477 6896.53 355.006 6897.08C357.534 6897.62 363.043 6900.7 365.707 6904.3C368.38 6907.89 368.453 6909.76 370.247 6910.04C372.041 6910.31 370.229 6912.35 371.08 6913.52C371.932 6914.69 374.27 6916.23 374.37 6915.25C374.469 6914.28 375.366 6913.52 376.363 6913.93C377.36 6914.34 375.901 6916.11 377.233 6916.55C378.556 6916.99 380.64 6919.33 381.845 6918.92C383.05 6918.52 384.138 6917.29 384.437 6918.31C384.736 6919.33 385.243 6920.35 386.883 6920.35C388.523 6920.35 389.484 6920.61 390.154 6921.8C390.825 6923 393.29 6924.02 393.253 6922.49C393.217 6920.96 392.592 6919.53 393.253 6919.23C393.915 6918.92 394.114 6915.36 392.719 6912.5C391.323 6909.65 390.499 6905.8 392.003 6906.86C393.516 6907.91 403.538 6921.96 407.099 6944.84C410.66 6967.73 408.685 6973.23 406.8 6972.78C404.915 6972.32 402.387 6973.6 403.855 6970.71C405.323 6967.82 406.637 6963.86 405.323 6964.84C404.018 6965.81 404.308 6969.39 401.744 6969.06C399.18 6968.74 398.763 6967.04 398.908 6970.7C399.053 6974.36 399.732 6979.52 397.213 6978.35C394.685 6977.18 398.536 6976.47 397.213 6972.76C395.89 6969.05 397.023 6965.7 398.391 6964.83C399.759 6963.96 399.596 6962.56 401.4 6962.29C403.203 6962.02 404.399 6960.6 400.765 6960.1C397.141 6959.61 392.021 6961.53 392.791 6965.06C393.562 6968.59 394.957 6971.5 394.006 6971.91C393.054 6972.31 391.459 6967.05 389.62 6967.53C387.78 6968.01 384.691 6966.21 383.802 6968.5C382.914 6970.8 383.503 6965.81 381.981 6964.55C380.241 6963.1 382.552 6958.55 384.555 6962.57C384.953 6963.38 385.968 6963.76 386.72 6963.29C389.158 6961.77 384.999 6955.05 386.657 6952.49C388.215 6950.09 386.738 6949.18 385.225 6948.06C383.703 6946.94 381.836 6944 377.804 6944.26C373.772 6944.52 371.896 6944.44 370.89 6942.44C369.875 6940.46 367.093 6938.74 364.728 6940.12C362.363 6941.5 360.424 6942.28 361.104 6943.74C361.774 6945.21 363.976 6946.49 363.297 6947.37C362.626 6948.24 359.69 6949.44 360.27 6951.08C360.85 6952.72 359.871 6952.77 360.687 6954.27C361.503 6955.77 363.895 6957.21 363.895 6955.57C363.895 6953.92 364.737 6952.44 366.088 6953.88C367.438 6955.32 370.374 6956.77 370.509 6954.79C370.645 6952.81 372.412 6951.04 373.599 6952.41C374.777 6953.76 375.384 6953.8 377.061 6953.05C378.737 6952.3 379.571 6956.34 377.423 6955.83C375.276 6955.32 372.159 6954.1 371.651 6955.74C371.144 6957.38 372.159 6959.04 372.24 6960.8C372.322 6962.56 374.768 6962.4 373.926 6964.51C373.083 6966.62 370.419 6966.73 370.908 6965.21C371.397 6963.69 368.616 6958.77 367.175 6959.55C365.743 6960.33 362.454 6962.27 361.104 6960.87C359.754 6959.47 359.572 6956.79 358.231 6955.85C356.89 6954.9 354.272 6952.05 356.718 6951.02C359.165 6949.98 361.14 6946.24 359.944 6946.35C358.748 6946.45 355.839 6948.5 354.018 6947.39C352.197 6946.29 350.221 6941.79 347.104 6941.88C343.987 6941.96 342.129 6939.66 342.211 6938C342.292 6936.33 339.266 6937.31 339.683 6935.49C340.1 6933.68 340.054 6932.56 338.686 6933.33C337.318 6934.1 336.983 6939.9 332.76 6939.02C328.537 6938.16 329.978 6933.68 328.963 6931.34C327.948 6929.01 326.943 6927.98 325.248 6929.1C323.563 6930.22 320.781 6931.6 319.005 6931C317.229 6930.4 313.26 6929.56 313.278 6935.19C313.287 6940.81 316.894 6945.17 319.304 6944.81C321.714 6944.44 324.433 6943.38 325.457 6945.67C326.471 6947.96 328.592 6950.01 329.86 6949.14C331.129 6948.26 331.609 6947.49 331.972 6949.85C332.334 6952.2 331.999 6953.75 333.421 6953.91C334.844 6954.07 336.439 6954.97 335.66 6956.61C334.88 6958.24 332.117 6961.7 332.407 6964.84C332.697 6967.99 332.697 6968.67 330.531 6969.07C328.365 6969.47 325.167 6969.39 326.943 6971.65C328.719 6973.9 329.561 6970.68 331.129 6971.98C332.697 6973.28 334.228 6972.43 334.246 6970.59C334.264 6968.77 336.928 6967.82 336.756 6968.86C336.584 6969.9 339.855 6972.77 337.445 6972.47C335.034 6972.18 334.5 6970.15 334.137 6973.76C333.775 6977.36 329.924 6979.07 329.326 6981.42C328.719 6983.76 329.67 6989.09 330.531 6986.6C331.392 6984.1 328.864 6982.39 330.413 6982.53C331.963 6982.67 334.328 6982.44 334.627 6980.8C334.926 6979.16 335.632 6978.34 337.544 6979.69C339.456 6981.05 340.797 6982.46 339.701 6983.02C338.605 6983.58 337.245 6983.5 336.493 6986.23C335.741 6988.95 333.431 6988.37 333.186 6991.53C332.941 6994.69 335.433 6994.38 334.627 6996.22C333.82 6998.05 335.071 7000.75 336.493 7001.03C337.916 7001.3 337.291 7002.6 335.361 7003.48C333.431 7004.36 328.945 7005.99 327.423 7004.6C325.901 7003.2 325.837 6999.99 324.27 6999.03C322.702 6998.07 321.497 6994.99 322.947 6992.16C324.396 6989.32 325.148 6983.5 322.068 6982.3C318.987 6981.11 315.688 6981.3 314.973 6979.7C314.266 6978.1 317.918 6976.35 317.039 6974.4C316.151 6972.45 315.109 6965.52 317.519 6964.84C319.929 6964.17 322.222 6964.96 322.947 6962.08C323.671 6959.21 319.567 6954.58 318.851 6951.8C318.126 6949.01 317.682 6947.03 315.915 6945.8C314.148 6944.57 311.475 6944 312.58 6940.99C313.686 6937.98 311.022 6937.03 307.995 6934.58C304.969 6932.12 303.175 6931.62 301.843 6932.11C300.52 6932.6 299.233 6933.56 296.768 6931.31C294.304 6929.07 290.398 6925.78 285.025 6926.11C279.652 6926.43 277.432 6923.59 275.592 6925.53C273.744 6927.48 270.617 6929.18 268.678 6929.15C266.739 6929.12 264.22 6929.47 261.647 6930.91C259.082 6932.34 256.98 6932.53 256.201 6936.08C255.422 6939.63 253.337 6940.81 251.525 6943.67C249.713 6946.52 247.167 6950.71 247.855 6955.03C248.544 6959.35 251.036 6959.9 251.525 6961.47C252.024 6963.04 253.093 6968.64 255.757 6969.48C258.421 6970.32 261.647 6974.16 260.224 6975.83C258.801 6977.49 256.373 6977.11 256.618 6979.32C256.862 6981.54 258.231 6985.79 255.757 6986.85C253.283 6987.9 250.574 6986.53 248.299 6987.71C246.025 6988.89 246.306 6992.93 243.841 6994.36C241.376 6995.79 238.794 6998.81 236.728 7000.65C234.662 7002.49 234.744 7002.56 231.092 7001.67C227.44 7000.79 223.879 6999.3 222.502 7001.03C221.124 7002.75 219.367 7001.83 218.288 7003.49C217.21 7005.15 217.418 7008.54 215.135 7009.16C212.851 7009.78 211.184 7008.13 210.45 7010.55C209.716 7012.98 208.121 7015.29 206.255 7015.59C204.388 7015.9 203.074 7016.35 203.609 7017.79C204.143 7019.23 205.793 7022.17 206.934 7024.39C208.067 7026.6 209.635 7029.25 212.489 7031.03C215.352 7032.82 217.971 7036.38 220.046 7035.47C222.121 7034.57 223.082 7035.42 224.332 7036.61C225.583 7037.81 228.274 7039.13 230.684 7037.77C233.094 7036.42 234.735 7037.66 236.366 7038.88C237.997 7040.1 240.171 7045.43 245.943 7044.84C251.715 7044.26 253.718 7042.96 258.176 7041.36C262.634 7039.75 267.355 7039.47 273.852 7042.93C280.358 7046.41 286.864 7047.1 289.519 7046.65C292.174 7046.21 293.978 7047.88 297.72 7047.02C301.453 7046.16 303.383 7045.17 301.58 7044.31C299.768 7043.44 294.947 7040.83 295.31 7038.19C295.672 7035.55 296.324 7032.46 299.287 7031.98C302.25 7031.5 302.133 7028.76 302.54 7026.31C302.948 7023.86 305.431 7022.49 307.724 7021.01C310.016 7019.52 313.36 7016.2 314.221 7014.35C315.081 7012.5 314.266 7012.44 316.404 7010.16C318.552 7007.87 322.339 7005.22 322.611 7007.54C322.883 7009.86 321.606 7013.02 320.147 7014.66C318.679 7016.3 308.05 7023.42 307.733 7026.49C307.415 7029.57 306.98 7030.69 305.123 7031.77C303.265 7032.84 299.822 7034.65 299.741 7036.39C299.659 7038.13 303.51 7039.75 304.117 7042.21C304.724 7044.68 309.799 7048.32 311.421 7047.02C313.043 7045.73 314.429 7048.13 315.906 7047.39C317.383 7046.65 317.619 7045.91 319.068 7047.51C320.518 7049.12 322.321 7048.37 323.889 7048.25C325.457 7048.13 326.662 7049.74 328.347 7047.51C330.033 7045.29 329.072 7044.31 330.277 7042.82C331.482 7041.34 332.543 7039.65 329.915 7039.37C327.287 7039.09 322.874 7036.96 324.523 7036.31C326.172 7035.67 327.74 7035.3 329.435 7032.89C331.12 7030.49 333.594 7027.61 334.609 7026.91C335.623 7026.22 336.403 7028.5 334.609 7029.38C332.814 7030.26 330.649 7035.03 331.002 7035.85C331.365 7036.68 334.844 7038.67 333.322 7041.05C331.799 7043.44 332.932 7044.67 333.648 7045.65C334.373 7046.63 338.36 7050.34 337.028 7051.81C335.687 7053.29 332.588 7053.68 333.213 7055.98C333.838 7058.29 331.256 7058.23 332.388 7059.46C333.521 7060.69 334.174 7061.22 331.926 7062.58C329.679 7063.94 323.998 7064.99 321.524 7067.4C319.05 7069.81 315.199 7069 314.547 7072.01C313.894 7075 312.281 7078.24 314.211 7076.72C316.142 7075.21 319.068 7076.29 322.983 7074.53C326.888 7072.78 325.982 7072.91 329.208 7071.66C332.434 7070.43 335.098 7065.88 336.475 7069.08C337.862 7072.28 354.163 7091.8 371.117 7069.76C376.345 7062.95 384.092 7066.28 384.092 7066.28C397.268 7071.27 427.822 7150.07 542.031 7140.46C656.24 7130.85 707.89 7171.94 730.444 7201.34C732.048 7203.42 768.972 7268.83 834.848 7272.83C900.724 7276.83 912.259 7244.64 960.601 7271.01C1008.94 7297.39 1006.86 7290.88 1008.83 7285.92C1010.79 7280.96 1020.01 7235.12 1020.12 7234.63C1020.22 7234.14 1021.13 7221.14 1031.81 7223.37C1042.48 7225.59 1107.23 7251.26 1108.73 7251.88C1110.22 7252.49 1111.68 7251.47 1111.26 7249.56C1110.83 7247.65 1111.67 7243.84 1116.45 7244.47C1121.22 7245.1 1119.87 7251.31 1117.94 7251.97C1116.83 7253.2 1117.36 7254.67 1118.15 7255.94C1118.94 7257.22 1121.8 7261.2 1120.48 7262.79C1119.16 7264.39 1103.51 7260.35 1102.87 7259.96C1102.24 7259.57 1102.1 7258.03 1102.57 7255.9C1103.05 7253.77 1106.33 7239.67 1106.33 7239.67C1106.33 7239.67 1106.85 7237.01 1109.42 7237.43C1111.98 7237.84 1126.22 7241.3 1126.22 7241.3C1126.22 7241.3 1129.64 7241.85 1128.77 7245.52C1127.9 7249.19 1126.99 7253.62 1126.99 7253.62C1126.99 7253.62 1126.55 7255.87 1129.4 7256.34C1132.24 7256.82 1202.74 7264.21 1207.47 7262.27C1212.2 7260.35 1212.37 7261.27 1214.2 7251.4C1216.03 7241.53 1221.18 7220.81 1221.5 7218.7C1221.83 7216.58 1222.37 7207.84 1216.59 7206.12C1210.81 7204.4 1162.46 7192.8 1162.46 7192.8C1162.46 7192.8 1153.37 7194.39 1155.76 7187.36C1158.14 7180.35 1160.38 7170.19 1160.38 7170.19C1160.38 7170.19 1161.76 7166.97 1157 7164.94C1152.23 7162.91 1118.74 7156.12 1118.74 7156.12C1118.74 7156.12 1110.4 7152.14 1109 7158.52C1107.59 7164.91 1107.49 7165.34 1107.49 7165.34C1107.49 7165.34 1108.07 7171.5 1105.08 7171.41C1102.08 7171.33 1096.05 7169.34 1096.05 7169.34C1096.05 7169.34 1093.3 7168.71 1094.07 7165.21C1094.84 7161.72 1098.62 7144.5 1098.62 7144.5C1098.62 7144.5 1098.73 7139.79 1102.86 7140.51C1106.98 7141.22 1169.13 7155.77 1169.13 7155.77C1169.13 7155.77 1175.02 7155.83 1173.91 7161.37C1172.81 7166.91 1168.9 7184.11 1168.9 7184.11C1168.9 7184.11 1165.74 7186.9 1173.41 7188.33C1181.07 7189.75 1221.62 7199.43 1221.62 7199.43C1221.62 7199.43 1231.83 7201.37 1229.74 7215.01C1227.66 7228.64 1204.26 7330.72 1204.26 7330.72C1204.26 7330.72 1202.25 7341.9 1191.16 7339.35C1180.07 7336.79 1015.12 7301.06 1014.05 7300.81C1012.98 7300.56 999.955 7301.67 1002.56 7285.19C1005.16 7268.7 1030.39 7168.86 1030.39 7168.86C1030.39 7168.86 1032.15 7153.38 1051.09 7158.02C1070.03 7162.67 1141.19 7193.93 1180.46 7219.52C1219.72 7245.1 1283.57 7288.55 1318.81 7260.68C1354.06 7232.81 1379.71 7172.37 1443.2 7199.2C1506.69 7226.03 1550.59 7288.34 1632.07 7271.45C1632.07 7271.45 1675.81 7255.94 1679.79 7219.51C1686.31 7159.83 1606.77 7162.89 1606.77 7162.89C1531.06 7166.36 1465.76 7380.9 1593.37 7556.84C1650.87 7636.12 1673.45 7729.44 1693.85 7814.8C1693.85 7814.8 1709.89 7926.97 1708.18 7947.01C1708.18 7947.01 1698.4 8208.98 1494.16 8263.06C1302.5 8313.81 1245.44 8257.97 1259.54 8225.12C1283.66 8168.95 1384.57 8229.26 1387.27 8314.88C1389.97 8400.49 1464.4 8405.22 1464.4 8405.22C1464.4 8405.22 1485.91 8405.29 1490.56 8430.24C1495.21 8455.19 1495.45 8467.4 1501.81 8476.08C1508.17 8484.77 1517.99 8488.38 1523.64 8481.96C1529.28 8475.54 1521.88 8468.86 1515.54 8474.19C1509.19 8479.52 1511.32 8490.72 1520.51 8496.03C1529.7 8501.34 1542.03 8498.5 1552.66 8491.07C1563.29 8483.65 1551.77 8476.94 1540.02 8480.43C1528.27 8483.92 1527.94 8500.68 1535.61 8503.24C1563.1 8512.41 1597.34 8460.65 1598.79 8459.24C1603.76 8454.41 1607.93 8461.9 1607.31 8474.48C1606.68 8487.07 1609.57 8532.51 1621.61 8555.18C1625.38 8564.58 1627.18 8569.06 1629.07 8569.24C1630.97 8569.41 1630.09 8565.93 1632.42 8569.21C1634.75 8572.49 1651.17 8591.9 1654.35 8603.54C1657.52 8615.18 1649.42 8622.83 1646.55 8621.12C1643.69 8619.4 1647.93 8612.03 1651.72 8611.39C1655.51 8610.76 1656.02 8615.39 1652.95 8623.2C1649.88 8631.01 1639.83 8642.65 1625.76 8642.96C1611.68 8643.26 1600.89 8632.39 1594.5 8623.3C1588.1 8614.21 1581.09 8603.3 1582.16 8602.52C1583.23 8601.74 1587.4 8602.11 1595.75 8596.32C1604.09 8590.54 1619.4 8579.51 1620.77 8576.77C1622.15 8574.03 1622.06 8573.05 1613.16 8577.76C1604.26 8582.47 1585.13 8595.61 1583.9 8593.13C1568.91 8562.67 1500.82 8547.62 1494.59 8547.09C1488.35 8546.57 1488.03 8540.3 1491 8536.43C1493.97 8532.55 1525.96 8517.69 1523.3 8518.48C1520.65 8519.28 1532.37 8511.65 1532.37 8511.65C1532.37 8511.65 1531.93 8507.88 1526.6 8512.61C1521.26 8517.33 1492.82 8530.79 1489.62 8534.25C1486.42 8537.71 1476.11 8547.52 1491.93 8550.98C1507.75 8554.43 1563.58 8569.88 1573.89 8583.89C1584.2 8597.89 1577.86 8605.81 1577.86 8605.81L1574.28 8610.01C1574.28 8610.01 1562.96 8621.05 1558.07 8627.52C1553.18 8633.99 1553.91 8643.37 1562.07 8647.64C1570.24 8651.91 1583.47 8642.55 1588.38 8638.59C1593.28 8634.62 1600.79 8629.21 1599.15 8629.89C1597.51 8630.58 1590.98 8635.55 1593.45 8643.57C1595.93 8651.6 1630.51 8686.31 1636.51 8696.87C1642.51 8707.43 1639.44 8724.88 1632.36 8729.29C1625.29 8733.69 1615.75 8720.17 1623.75 8709.95C1625.92 8707.18 1630.42 8704.74 1636.24 8703.11C1664.93 8695.04 1694.05 8714.56 1699.22 8744.53C1704.75 8776.64 1706.51 8836.29 1675.01 8923.17C1675.01 8923.17 1662.78 8963.41 1646.07 8982.55C1630.51 9000.38 1625.34 9093.83 1625.34 9093.83C1611.11 9190.97 1637.12 9240.13 1669.88 9300.84C1759.94 9467.8 1724.29 9582.5 1645.37 9670.88C1645.37 9670.88 1475.76 9809 1452.57 9901.47C1429.37 9993.93 1370.16 10101.1 1270.15 10103.6C1170.14 10106 1073.34 10049.6 1010.14 10087.2C946.937 10124.8 1002.94 10165.8 1021.34 10146.1C1039.74 10126.5 1037.34 10069.2 954.132 10095.4C870.921 10121.6 719.715 10150.2 687.71 10124" stroke="white" stroke-width="0.75" stroke-linecap="round" stroke-linejoin="round"/>
</svg>
