<svg preserveAspectRatio="none" width="100%" height="100%" overflow="visible" style="display: block;" viewBox="0 0 25.5 25.5" fill="none" xmlns="http://www.w3.org/2000/svg">
<g id="globe 1" clip-path="url(#clip0_2001_5)">
<path id="Vector" d="M24.19 8.39C24.19 8.39 24.19 8.36 24.17 8.35C22.4 3.76 17.95 0.5 12.75 0.5C7.55 0.5 3.1 3.76 1.32 8.34C1.32 8.36 1.3 8.37 1.3 8.39C0.78 9.74 0.5 11.21 0.5 12.74C0.5 14.27 0.79 15.75 1.31 17.1C1.31 17.11 1.31 17.13 1.33 17.14C3.1 21.73 7.55 24.99 12.75 24.99C17.95 24.99 22.4 21.73 24.17 17.15C24.17 17.13 24.18 17.12 24.19 17.1C24.71 15.74 25 14.28 25 12.74C25 11.2 24.71 9.73 24.19 8.38V8.39ZM23.16 8.1H18.04C17.5 5.2 16.47 2.88 15.15 1.6C18.73 2.37 21.69 4.83 23.16 8.1ZM17.61 12.75C17.61 14.08 17.51 15.36 17.32 16.55H8.19C8 15.35 7.9 14.07 7.9 12.75C7.9 11.43 8 10.14 8.19 8.95H17.33C17.52 10.15 17.62 11.43 17.62 12.75H17.61ZM12.75 1.34C14.68 1.34 16.39 4.16 17.17 8.1H8.33C9.1 4.16 10.81 1.34 12.75 1.34ZM10.35 1.6C9.03 2.88 8 5.2 7.46 8.1H2.34C3.8 4.83 6.76 2.37 10.35 1.6ZM1.34 12.75C1.34 11.42 1.57 10.14 1.99 8.95H7.31C7.13 10.14 7.04 11.42 7.04 12.75C7.04 14.08 7.14 15.36 7.31 16.55H2C1.58 15.36 1.35 14.08 1.35 12.75H1.34ZM2.34 17.39H7.46C8 20.29 9.03 22.61 10.35 23.89C6.77 23.12 3.81 20.66 2.34 17.39ZM12.75 24.15C10.82 24.15 9.11 21.33 8.33 17.39H17.17C16.4 21.33 14.69 24.15 12.75 24.15ZM15.15 23.89C16.47 22.61 17.5 20.29 18.04 17.39H23.16C21.7 20.66 18.74 23.12 15.15 23.89ZM23.5 16.55H18.18C18.36 15.36 18.45 14.08 18.45 12.75C18.45 11.42 18.35 10.14 18.18 8.95H23.5C23.92 10.14 24.15 11.42 24.15 12.75C24.15 14.08 23.92 15.36 23.5 16.55Z" fill="var(--fill-0, white)" stroke="var(--stroke-0, white)" stroke-miterlimit="10"/>
</g>
<defs>
<clipPath id="clip0_2001_5">
<rect width="25.5" height="25.5" fill="white"/>
</clipPath>
</defs>
</svg>
