<svg width="29" height="29" viewBox="0 0 29 29" fill="none" xmlns="http://www.w3.org/2000/svg">
<path d="M27.7293 26.3093L19.4693 18.0193C21.2743 15.8415 22.1709 13.0521 21.9731 10.2305C21.7752 7.40893 20.498 4.77199 18.4068 2.8674C16.3156 0.962822 13.5711 -0.0630031 10.7433 0.00299827C7.91557 0.0689996 5.2219 1.22175 3.22183 3.22183C1.22175 5.2219 0.0689996 7.91557 0.00299827 10.7433C-0.0630031 13.5711 0.962822 16.3156 2.8674 18.4068C4.77199 20.498 7.40893 21.7752 10.2305 21.9731C13.0521 22.1709 15.8415 21.2743 18.0193 19.4693L26.2793 27.7293C26.3723 27.823 26.4829 27.8974 26.6047 27.9482C26.7266 27.999 26.8573 28.0251 26.9893 28.0251C27.1213 28.0251 27.252 27.999 27.3739 27.9482C27.4958 27.8974 27.6064 27.823 27.6993 27.7293C27.795 27.6383 27.8718 27.5293 27.9251 27.4085C27.9785 27.2877 28.0074 27.1576 28.0102 27.0256C28.013 26.8935 27.9896 26.7623 27.9414 26.6393C27.8932 26.5164 27.8211 26.4042 27.7293 26.3093ZM2.01932 11.0193C2.01932 9.23928 2.54716 7.49923 3.53609 6.01918C4.52502 4.53914 5.93063 3.38559 7.57516 2.7044C9.2197 2.02321 11.0293 1.84498 12.7751 2.19225C14.521 2.53952 16.1246 3.39668 17.3833 4.65535C18.6419 5.91403 19.4991 7.51767 19.8464 9.2635C20.1937 11.0093 20.0154 12.8189 19.3342 14.4635C18.653 16.108 17.4995 17.5136 16.0194 18.5025C14.5394 19.4915 12.7993 20.0193 11.0193 20.0193C8.63237 20.0193 6.34318 19.0711 4.65535 17.3833C2.96753 15.6954 2.01932 13.4063 2.01932 11.0193Z" fill="black"/>
</svg>
