<svg preserveAspectRatio="none" width="100%" height="100%" overflow="visible" style="display: block;" viewBox="0 0 708.686 726.081" fill="none" xmlns="http://www.w3.org/2000/svg">
<g id="petals 1" opacity="0.9" clip-path="url(#clip0_2006_34)">
<path id="Vector" d="M352.301 0.499994C390.307 0.500025 422.498 8.58557 445.73 24.6328C468.673 40.4862 480.162 62.0654 480.162 89.4863C480.162 106.842 475.261 125.937 465.411 147.068V147.069C455.767 167.772 423.085 226.366 366.756 322.937V322.937C364.764 326.364 361.18 328.562 357.243 328.803L357.228 328.788L357.009 328.798C352.659 328.987 348.568 326.787 346.334 323.057L346.333 323.056L268.689 194.05L268.688 194.048L267.503 192.087C242.812 151.027 230.44 117.489 230.44 91.4922C230.44 63.4276 241.317 41.2732 262.99 24.9248H262.991C284.445 8.69189 314.297 0.499994 352.301 0.499994Z" stroke="var(--stroke-0, white)"/>
<path id="Vector_2" d="M356.304 396.979H356.511C360.615 396.979 364.426 399.16 366.486 402.713L366.487 402.715C422.978 499.572 455.749 558.31 465.411 579.048C475.262 600.18 480.162 619.276 480.162 636.631C480.162 663.963 468.673 685.613 445.73 701.466C422.498 717.513 390.307 725.599 352.301 725.599C314.297 725.599 284.445 717.407 262.991 701.174H262.99C241.317 684.826 230.44 662.6 230.44 634.607C230.44 608.18 243.208 574.005 268.688 532.051L268.689 532.05L346.6 402.559L346.601 402.56C348.662 399.148 352.316 397.034 356.289 396.964L356.304 396.979Z" stroke="var(--stroke-0, white)"/>
<path id="Vector_3" d="M382.568 373.582C487.861 371.854 595.927 371.984 619.55 373.626L620.61 373.705C642.308 375.475 659.944 380.512 673.76 388.934H673.761C695.21 401.961 706.684 421.921 708.057 448.815L708.114 450.101C709.168 477.435 700.199 507.663 681.15 540.764L680.234 542.343C661.169 575.078 641.718 590.734 617.974 601.384H617.973C594.026 612.191 570.947 610.803 548.642 597.167H548.641C519.073 579.182 487.867 543.071 457.815 503.807C427.798 464.59 398.917 422.202 374.096 391.863L374.095 391.862C371.561 388.78 370.874 384.569 372.273 380.833L372.278 380.835C373.89 376.531 377.972 373.651 382.567 373.582H382.568Z" stroke="var(--stroke-0, white)"/>
<path id="Vector_4" d="M548.643 126.961C570.948 113.325 594.027 111.955 617.974 122.744L617.975 122.745C641.719 133.378 661.187 149.05 680.234 181.785V181.786C699.929 215.505 709.184 246.26 708.114 274.027C707.045 301.554 695.533 321.96 673.761 335.194H673.76C659.925 343.616 642.307 348.672 620.61 350.423C599.232 352.158 488.242 352.32 380.704 350.528H380.703C377.099 350.477 373.785 348.53 371.974 345.42L371.766 345.064C369.831 341.403 370.27 336.921 372.912 333.718C397.807 303.519 426.865 260.844 457.102 221.262C487.374 181.635 518.841 145.09 548.642 126.961H548.643Z" stroke="var(--stroke-0, white)"/>
<path id="Vector_5" d="M88.1652 373.688C109.472 371.953 219.709 371.79 326.906 373.564C330.953 373.63 334.615 375.962 336.413 379.58L336.581 379.935C338.276 383.685 337.694 388.086 335.074 391.271H335.073C310.224 421.557 281.273 464.061 251.169 503.424C221.03 542.834 189.72 579.119 160.063 597.167L160.061 597.168C137.828 610.804 114.731 612.191 90.7843 601.384H90.7834C67.0569 590.752 47.5881 575.079 28.4865 542.343V542.342C8.7741 508.623 -0.480917 477.869 0.589022 450.101C1.65801 422.557 13.153 402.168 34.9611 388.916H34.9621C48.7782 380.495 66.4142 375.457 88.1652 373.688Z" stroke="var(--stroke-0, white)"/>
<path id="Vector_6" d="M90.7658 122.744C114.713 111.955 137.81 113.325 160.043 126.96L160.044 126.961C189.612 144.947 220.823 181.062 250.88 220.33C279.963 258.326 307.98 299.298 332.269 329.404L334.608 332.283C337.545 335.868 337.945 340.885 335.68 344.89L335.447 345.265C333.441 348.488 329.926 350.477 326.117 350.546C220.842 352.274 112.828 352.145 89.2072 350.502L88.1466 350.423C66.3962 348.672 48.7599 343.616 34.9435 335.194L33.9289 334.568C12.7962 321.321 1.6413 301.141 0.589022 274.027C-0.480879 246.26 8.77436 215.505 28.4689 181.786V181.785C47.272 149.562 66.4303 133.888 89.6564 123.247L90.7658 122.744Z" stroke="var(--stroke-0, white)"/>
</g>
<defs>
<clipPath id="clip0_2006_34">
<rect width="708.686" height="726.081" fill="white"/>
</clipPath>
</defs>
</svg>
