<svg preserveAspectRatio="none" width="100%" height="100%" overflow="visible" style="display: block;" viewBox="0 0 28 26.898" fill="none" xmlns="http://www.w3.org/2000/svg">
<path id="Vector" d="M3.34839 0C5.72194 0.326036 6.90871 1.45412 6.90871 3.37774V3.56358C6.29576 5.42524 5.16768 6.35771 3.53097 6.35771C1.52585 6.35771 0.348859 5.42524 0 3.56358V2.42897C0.779227 0.80857 1.89427 0 3.34839 0ZM0.736842 8.78016H5.95668L6.3251 9.517V26.5263C6.3251 26.7708 6.20121 26.8947 5.95668 26.8947H0.736842C0.531439 26.8947 0.410806 26.7708 0.368421 26.5263V9.14858C0.368421 8.94318 0.492315 8.82254 0.736842 8.78016ZM20.3251 8.41174H22.1966C22.5454 8.41174 23.4746 8.71821 24.9907 9.33442C26.9958 11.095 28 13.0284 28 15.1379V26.898H22.3824C22.177 26.898 22.0564 26.7741 22.014 26.5296V17.0126C22.014 14.3912 20.9609 13.0838 18.8514 13.0838C17.0289 13.0838 15.966 14.3945 15.6595 17.0126V26.5296C15.6595 26.7741 15.5356 26.898 15.2911 26.898H10.0713C9.86586 26.898 9.74523 26.7741 9.70284 26.5296V8.78016H15.6595V10.6516H16.0573C17.4495 9.22031 18.871 8.47042 20.3251 8.41174Z" fill="var(--fill-0, white)"/>
</svg>
