<svg preserveAspectRatio="none" width="100%" height="100%" overflow="visible" style="display: block;" viewBox="0 0 15 32.8004" fill="none" xmlns="http://www.w3.org/2000/svg">
<path id="Vector" d="M3.65989 4.13124C4.76895 1.38632 7.15342 0 10.841 0H11.6451C13.8632 0 15 0.166359 15 0.471349V5.2403H11.8115C9.89834 5.40665 8.92791 6.32163 8.92791 7.95749V11.7837C8.92791 12.0055 9.03882 12.0887 9.2329 12.0887H14.6673V12.3937C14.3346 15.8872 14.0573 17.634 13.8632 17.634H9.2329C9.06654 17.634 8.95564 17.7449 8.92791 17.9667V32.8004H3.27172L3.18854 31.8299V18.1608C3.02218 17.8281 2.88355 17.6617 2.71719 17.6617H0V12.1165H2.71719C3.02218 11.9501 3.18854 11.7837 3.18854 11.6174L3.02218 6.68207C3.24399 5.54529 3.43808 4.71349 3.65989 4.13124Z" fill="var(--fill-0, white)"/>
</svg>
