<svg preserveAspectRatio="none" width="100%" height="100%" overflow="visible" style="display: block;" viewBox="0 0 30 28.2214" fill="none" xmlns="http://www.w3.org/2000/svg">
<path id="Vector" d="M29.3632 26.7132C28.0225 24.9703 26.7488 23.2274 25.4417 21.4845C23.196 18.5015 20.9839 15.552 18.7382 12.5689C18.202 11.8651 18.202 11.6975 18.6712 11.1612C21.118 8.58039 23.5312 5.96605 25.9444 3.35172C26.7488 2.48027 27.6538 1.64234 28.3912 0.670343C28.5588 0.46924 28.7599 0.301654 28.5588 0H25.9779C25.6763 0.201103 25.3076 0.268137 25.0395 0.569792C24.4697 1.30717 23.7323 1.944 23.129 2.64786C21.2185 4.79295 19.2075 6.8375 17.297 8.94908C16.6602 9.61942 16.4926 9.58591 15.9563 8.88205C14.0123 6.26771 12.0348 3.68689 10.0908 1.07255C9.78915 0.670343 9.45398 0.268137 8.98474 0H0.0356604C-0.0313739 0.46924 0.203246 0.837929 0.471383 1.20662C1.74504 2.94951 3.0522 4.65888 4.35937 6.40178C6.47095 9.1837 8.54902 11.9991 10.6606 14.7811C11.1298 15.4179 11.1298 15.5855 10.6941 16.0882C9.11881 17.7976 7.57702 19.4735 6.00171 21.1493C4.15827 23.1268 2.31483 25.1379 0.437866 27.1154C0.169729 27.417 -0.0984082 27.7187 0.0356604 28.1544H2.61648C2.8511 28.0203 3.11924 27.9198 3.32034 27.7187C4.35937 26.7132 5.29785 25.6741 6.26985 24.6016C8.18033 22.49 10.1578 20.4455 12.0683 18.3339C12.7051 17.63 12.7722 17.6635 13.342 18.4009C15.5541 21.3504 17.7662 24.2999 19.9784 27.283C20.28 27.6852 20.5817 28.0203 21.0509 28.1879C23.8664 28.1879 26.6818 28.1879 29.4972 28.1879C29.6648 28.1879 29.8994 28.322 30 28.0539C29.7654 27.5846 29.6648 27.1154 29.3632 26.7132ZM22.1905 26.2104C21.8888 26.2104 21.8218 25.9758 21.6877 25.7747C17.4646 20.1438 13.2414 14.5129 9.01826 8.88205C7.47647 6.8375 5.9682 4.79295 4.42641 2.78192C4.25882 2.5473 4.09124 2.31268 3.8231 1.97751C5.13027 1.97751 6.26985 2.01103 7.40944 1.97751C7.81164 1.97751 8.04626 2.11158 8.24736 2.41324C11.6996 6.93805 15.0849 11.4629 18.5036 16.0212C20.8833 19.2053 23.2966 22.423 25.6763 25.6071C25.8104 25.7747 25.9109 25.9423 26.112 26.2104C24.7378 26.2104 23.4642 26.2104 22.1905 26.2104Z" fill="var(--fill-0, white)"/>
</svg>
