<svg width="426" height="209" viewBox="0 0 426 209" fill="none" xmlns="http://www.w3.org/2000/svg">
<g opacity="0.1">
<path d="M214.443 189.539C211.799 189.72 209.154 188.272 207.832 186.1L161.173 111.877C145.872 87.8 138.127 68.0677 138.127 52.68C138.127 36.3872 144.739 23.534 157.773 14.1204C170.807 4.70681 188.753 0 211.61 0C235.034 0 253.924 4.70681 267.903 13.9394C281.692 23.172 288.682 35.6631 288.682 51.4128C288.682 61.3695 285.659 72.4124 279.803 84.7225C273.948 96.6706 254.302 130.342 220.488 185.919C219.355 188.091 216.899 189.358 214.443 189.539Z" fill="#BDBDBD"/>
<path d="M223.137 198.952C224.271 200.763 226.349 202.03 228.615 202.03C293.22 203.116 359.902 202.935 372.748 202.03C385.782 200.944 396.36 198.047 404.861 193.159C418.084 185.556 425.074 173.608 425.64 157.677C426.207 141.565 420.729 123.824 408.828 104.454C397.305 85.6269 385.593 76.5754 371.236 70.4203C356.691 64.0842 342.712 64.9894 329.3 72.7737C293.409 93.7733 253.551 157.134 223.704 191.892C222.004 193.883 221.815 196.78 223.137 198.952Z" fill="#BDBDBD"/>
<path d="M201.787 198.952C200.654 200.944 198.387 202.03 195.931 202.211C131.705 203.297 65.7777 203.116 52.9324 202.211C39.8981 201.125 29.1307 198.228 20.819 193.34C7.59589 185.556 0.795416 173.608 0.0398077 157.677C-0.526898 141.566 4.95126 123.824 16.8521 104.454C28.3751 85.6269 40.087 76.5754 54.4436 70.4203C68.989 64.0842 82.9678 64.9894 96.3798 72.7737C132.082 93.5923 171.563 156.048 201.22 190.987C201.409 191.168 201.409 191.349 201.598 191.349C201.598 191.53 203.487 195.332 201.787 198.952Z" fill="#BDBDBD"/>
</g>
</svg>
