<svg preserveAspectRatio="none" width="100%" height="100%" overflow="visible" style="display: block;" viewBox="0 0 46.63 45.777" fill="none" xmlns="http://www.w3.org/2000/svg">
<g id="Group 320">
<g id="Ellipse 59" opacity="0.5">
<path d="M23.3145 5.14535e-05C36.191 5.14535e-05 46.63 10.2478 46.63 22.8887C46.6298 35.5296 36.1909 45.7774 23.3145 45.7774C10.4384 45.7771 0.000211813 35.5294 8.37054e-05 22.8887C8.37054e-05 10.2479 10.4383 0.000307489 23.3145 5.14535e-05Z" fill="var(--fill-0, white)"/>
<path d="M23.3145 5.14535e-05C36.191 5.14535e-05 46.63 10.2478 46.63 22.8887C46.6298 35.5296 36.1909 45.7774 23.3145 45.7774C10.4384 45.7771 0.000211813 35.5294 8.37054e-05 22.8887C8.37054e-05 10.2479 10.4383 0.000307489 23.3145 5.14535e-05Z" stroke="var(--stroke-0, white)"/>
</g>
<path id="Ellipse 60" d="M46.63 22.8885C46.63 17.4387 44.6492 12.1677 41.0438 8.02364C37.4385 3.87957 32.4453 1.13438 26.9623 0.281846C21.4793 -0.570692 15.8663 0.525371 11.133 3.37289C6.39969 6.2204 2.85666 10.6325 1.1412 15.8156C-0.574266 20.9986 -0.349586 26.6125 1.77483 31.6475C3.89924 36.6825 7.78396 40.8081 12.7303 43.2822C17.6766 45.7564 23.3598 46.4168 28.7578 45.1445C34.1558 43.8723 38.9142 40.751 42.1772 36.342L23.315 22.8885H46.63Z" fill="var(--fill-0, white)"/>
</g>
</svg>
