<svg preserveAspectRatio="none" width="100%" height="100%" overflow="visible" style="display: block;" viewBox="0 0 110.008 108.023" fill="none" xmlns="http://www.w3.org/2000/svg">
<g id="Group">
<g id="Group_2">
<path id="Vector" d="M55.4215 48.9824C54.7381 49.0292 54.0547 48.6549 53.7129 48.0935L41.655 28.9122C37.7007 22.69 35.6992 17.5906 35.6992 13.614C35.6992 9.40349 37.4078 6.08186 40.7763 3.64912C44.1447 1.21637 48.7823 0 54.6893 0C60.7427 0 65.6244 1.21637 69.2369 3.60233C72.8006 5.98829 74.6069 9.21636 74.6069 13.2865C74.6069 15.8596 73.8258 18.7134 72.3124 21.8947C70.7991 24.9824 65.7221 33.6842 56.9837 48.0467C56.6908 48.6081 56.0562 48.9356 55.4215 48.9824Z" fill="var(--fill-0, white)"/>
</g>
<g id="Group_3">
<path id="Vector_2" d="M55.3219 58.9473C54.6873 58.9473 54.0527 59.2748 53.711 59.8362L41.6042 79.111C37.65 85.3332 35.6484 90.4326 35.6484 94.4092C35.6484 98.5729 37.3571 101.941 40.7255 104.374C44.0939 106.807 48.7316 108.023 54.6385 108.023C60.6919 108.023 65.5736 106.807 69.1862 104.421C72.7498 102.035 74.5561 98.8069 74.5561 94.7367C74.5561 92.1636 73.775 89.3098 72.2617 86.1285C70.7483 83.0408 65.6713 74.2923 56.8841 59.8829C56.64 59.3215 56.0054 58.9473 55.3219 58.9473Z" fill="var(--fill-0, white)"/>
</g>
<g id="Group_4">
<path id="Vector_3" d="M57.7131 56.6082C57.469 57.1696 57.6154 57.8245 58.006 58.3392C65.7192 67.3684 75.9221 83.5087 85.0998 88.8888C88.5658 90.9473 92.1783 91.1344 95.9373 89.497C99.6474 87.9064 102.674 85.5672 105.652 80.7017C108.728 75.6959 110.143 71.1111 109.997 66.9473C109.85 62.8304 108.044 59.7895 104.627 57.7778C102.479 56.5146 99.6963 55.7661 96.3278 55.4854C93.0082 55.2515 75.9709 55.2047 59.3729 55.4854C58.6406 55.4854 57.9572 55.9532 57.7131 56.6082Z" fill="var(--fill-0, white)"/>
</g>
<g id="Group_5">
<path id="Vector_4" d="M57.6657 51.4151C57.9586 51.8829 58.4956 52.2104 59.0814 52.2104C75.777 52.4911 93.0096 52.4443 96.3292 52.2104C99.6976 51.9297 102.431 51.1811 104.628 49.918C108.045 47.9531 109.852 44.8654 109.998 40.7484C110.145 36.5847 108.729 31.9999 105.653 26.994C102.676 22.1286 99.6488 19.7894 95.9387 18.1987C92.1797 16.5613 88.5672 16.7952 85.1012 18.8069C75.8258 24.2338 65.5253 40.6081 57.8121 49.5905C57.3728 50.1051 57.3239 50.8537 57.6657 51.4151Z" fill="var(--fill-0, white)"/>
</g>
<g id="Group_6">
<path id="Vector_5" d="M52.294 56.4678C52.0011 55.8596 51.4153 55.4854 50.7318 55.4854C34.085 55.2047 16.9988 55.2515 13.6792 55.4854C10.3108 55.7661 7.5282 56.5146 5.38023 57.7778C1.96299 59.7427 0.15674 62.8304 0.0102874 66.9473C-0.136165 71.1111 1.27955 75.6959 4.35506 80.7017C7.33293 85.5672 10.3596 87.9064 14.0698 89.497C17.8287 91.1344 21.4412 90.9005 24.9073 88.8888C34.1338 83.5087 44.3855 67.2748 52.0987 58.2456C52.4892 57.731 52.5869 57.076 52.294 56.4678Z" fill="var(--fill-0, white)"/>
</g>
<path id="Vector_6" d="M52.1475 51.4151C51.8546 51.9297 51.2688 52.2104 50.6342 52.2572C34.0362 52.5379 16.9988 52.4911 13.6792 52.2572C10.3108 51.9765 7.52821 51.2279 5.38023 49.9648C1.96299 47.9531 0.205558 44.8654 0.0102874 40.7484C-0.136166 36.5847 1.27955 31.9999 4.35506 26.994C7.33293 22.1286 10.3596 19.7894 14.0698 18.1987C17.8287 16.5613 21.4412 16.7952 24.9073 18.8069C34.1338 24.187 44.3367 40.3274 52.0011 49.3566C52.0499 49.4034 52.0499 49.4502 52.0987 49.4502C52.0987 49.4969 52.5869 50.4794 52.1475 51.4151Z" fill="var(--fill-0, white)"/>
</g>
</svg>
