<svg preserveAspectRatio="none" width="100%" height="100%" overflow="visible" style="display: block;" viewBox="0 0 83.5193 81.9915" fill="none" xmlns="http://www.w3.org/2000/svg">
<g id="Group 320">
<g id="Ellipse 59" opacity="0.3">
<path d="M41.7598 0C64.8229 6.67891e-05 83.5195 18.3548 83.5195 40.9961C83.5193 63.6372 64.8228 81.9911 41.7598 81.9912C18.6967 81.9912 0.000197428 63.6372 0 40.9961C0 18.3548 18.6966 0 41.7598 0Z" fill="var(--fill-0, white)"/>
<path d="M41.7598 0C64.8229 6.67891e-05 83.5195 18.3548 83.5195 40.9961C83.5193 63.6372 64.8228 81.9911 41.7598 81.9912C18.6967 81.9912 0.000197428 63.6372 0 40.9961C0 18.3548 18.6966 0 41.7598 0Z" stroke="var(--stroke-0, white)"/>
</g>
<path id="Ellipse 60" d="M83.5193 40.9957C83.5193 34.5262 81.9596 28.1485 78.9678 22.3841C75.9759 16.6196 71.6368 11.6322 66.3053 7.82949L41.7596 40.9957H83.5193Z" fill="var(--fill-0, white)"/>
</g>
</svg>
