<svg preserveAspectRatio="none" width="100%" height="100%" overflow="visible" style="display: block;" viewBox="0 0 46.63 45.7769" fill="none" xmlns="http://www.w3.org/2000/svg">
<g id="Group 320">
<g id="Ellipse 59" opacity="0.5">
<path d="M23.3145 0C36.191 0 46.63 10.2477 46.63 22.8887C46.6298 35.5295 36.1909 45.7773 23.3145 45.7773C10.4384 45.7771 0.000211813 35.5293 8.37054e-05 22.8887C8.37054e-05 10.2479 10.4383 0.000256036 23.3145 0Z" fill="var(--fill-0, white)"/>
<path d="M23.3145 0C36.191 0 46.63 10.2477 46.63 22.8887C46.6298 35.5295 36.1909 45.7773 23.3145 45.7773C10.4384 45.7771 0.000211813 35.5293 8.37054e-05 22.8887C8.37054e-05 10.2479 10.4383 0.000256036 23.3145 0Z" stroke="var(--stroke-0, white)"/>
</g>
<path id="Ellipse 60" d="M46.63 22.8884C46.63 18.0549 45.0712 13.3454 42.1772 9.43495L23.315 22.8884H46.63Z" fill="var(--fill-0, white)"/>
</g>
</svg>
