<svg preserveAspectRatio="none" width="100%" height="100%" overflow="visible" style="display: block;" viewBox="0 0 135.129 132.657" fill="none" xmlns="http://www.w3.org/2000/svg">
<g id="Group 319">
<g id="Ellipse 59" opacity="0.3">
<path d="M67.5645 4.87489e-06C104.879 3.72575e-05 135.129 29.6961 135.129 66.3281C135.129 102.96 104.879 132.657 67.5645 132.657C30.2497 132.657 0 102.96 0 66.3281C0.000180603 29.6961 30.2498 4.87489e-06 67.5645 4.87489e-06Z" fill="var(--fill-0, white)"/>
<path d="M67.5645 4.87489e-06C104.879 3.72575e-05 135.129 29.6961 135.129 66.3281C135.129 102.96 104.879 132.657 67.5645 132.657C30.2497 132.657 0 102.96 0 66.3281C0.000180603 29.6961 30.2498 4.87489e-06 67.5645 4.87489e-06Z" stroke="var(--stroke-0, white)"/>
</g>
<path id="Ellipse 60" d="M135.129 66.3285C135.129 57.2673 133.238 48.3022 129.572 39.9863C125.906 31.6703 120.544 24.1799 113.815 17.9771C107.087 11.7743 99.1354 6.99066 90.451 3.92129C81.7667 0.851928 72.5338 -0.438067 63.322 0.130889L67.5644 66.3285H135.129Z" fill="var(--fill-0, white)"/>
</g>
</svg>
