<svg preserveAspectRatio="none" width="100%" height="100%" overflow="visible" style="display: block;" viewBox="0 0 82.7487 81.7754" fill="none" xmlns="http://www.w3.org/2000/svg">
<g id="Group 373">
<g id="Ellipse 59" opacity="0.5">
<path d="M41.374 81.7754C64.2244 81.7754 82.749 63.4693 82.749 40.8877C82.749 18.3062 64.2244 0 41.374 0C18.5238 0.0001691 6.2593e-05 18.3063 0 40.8877C0 63.4692 18.5238 81.7752 41.374 81.7754Z" fill="var(--fill-0, white)"/>
<path d="M41.374 81.7754C64.2244 81.7754 82.749 63.4693 82.749 40.8877C82.749 18.3062 64.2244 0 41.374 0C18.5238 0.0001691 6.2593e-05 18.3063 0 40.8877C0 63.4692 18.5238 81.7752 41.374 81.7754Z" stroke="var(--stroke-0, white)"/>
</g>
<path id="Ellipse 60" d="M82.7487 40.8878C82.7487 49.5224 79.9826 57.9354 74.8469 64.9209C69.7112 71.9065 62.4695 77.106 54.1597 79.7742C45.8499 82.4425 36.8987 82.4425 28.589 79.7742C20.2792 77.106 13.0375 71.9065 7.90179 64.9209C2.76608 57.9354 -7.63848e-07 49.5224 0 40.8878C7.63848e-07 32.2532 2.76608 23.8402 7.9018 16.8547C13.0375 9.86914 20.2792 4.66965 28.589 2.00141C36.8987 -0.666832 45.85 -0.666831 54.1597 2.00141L41.3743 40.8878H82.7487Z" fill="var(--fill-0, white)"/>
</g>
</svg>
