<svg preserveAspectRatio="none" width="100%" height="100%" overflow="visible" style="display: block;" viewBox="0 0 46.63 45.777" fill="none" xmlns="http://www.w3.org/2000/svg">
<g id="Group 320">
<g id="Ellipse 59" opacity="0.5">
<path d="M23.3145 2.90863e-06C36.191 2.90863e-06 46.63 10.2477 46.63 22.8887C46.6298 35.5295 36.1909 45.7773 23.3145 45.7773C10.4384 45.7771 0.000211813 35.5293 8.37054e-05 22.8887C8.37054e-05 10.2479 10.4383 0.000258944 23.3145 2.90863e-06Z" fill="var(--fill-0, white)"/>
<path d="M23.3145 2.90863e-06C36.191 2.90863e-06 46.63 10.2477 46.63 22.8887C46.6298 35.5295 36.1909 45.7773 23.3145 45.7773C10.4384 45.7771 0.000211813 35.5293 8.37054e-05 22.8887C8.37054e-05 10.2479 10.4383 0.000258944 23.3145 2.90863e-06Z" stroke="var(--stroke-0, white)"/>
</g>
<path id="Ellipse 60" d="M46.63 22.8884C46.63 17.932 44.991 13.1094 41.9596 9.14576C38.9282 5.18213 34.6681 2.29163 29.8197 0.908818C24.9713 -0.473998 19.7967 -0.274406 15.0738 1.47759C10.3509 3.22958 6.33487 6.4393 3.62957 10.6242L23.315 22.8884H46.63Z" fill="var(--fill-0, white)"/>
</g>
</svg>
