<svg preserveAspectRatio="none" width="100%" height="100%" overflow="visible" style="display: block;" viewBox="0 0 138.805 136.266" fill="none" xmlns="http://www.w3.org/2000/svg">
<g id="Frame 509">
<g id="Ellipse 59" opacity="0.5">
<path d="M69.4023 136.266C107.732 136.266 138.806 105.762 138.806 68.1333C138.806 30.5044 107.732 0.000442505 69.4023 0.000442505C31.0725 0.000576084 0 30.5045 0 68.1333C0.000121802 105.762 31.0725 136.266 69.4023 136.266Z" fill="var(--fill-0, white)"/>
<path d="M69.4023 136.266C107.732 136.266 138.806 105.762 138.806 68.1333C138.806 30.5044 107.732 0.000442505 69.4023 0.000442505C31.0725 0.000576084 0 30.5045 0 68.1333C0.000121802 105.762 31.0725 136.266 69.4023 136.266Z" stroke="var(--stroke-0, white)"/>
</g>
<path id="Ellipse 60" d="M138.805 68.133C138.805 82.5213 134.165 96.5403 125.55 108.181C116.936 119.821 104.788 128.485 90.8492 132.931C76.9101 137.378 61.8951 137.378 47.956 132.931C34.017 128.485 21.8695 119.821 13.2547 108.181L69.4026 68.133H138.805Z" fill="var(--fill-0, white)"/>
</g>
</svg>
