<svg width="65" height="65" viewBox="0 0 65 65" fill="none" xmlns="http://www.w3.org/2000/svg">
<path fill-rule="evenodd" clip-rule="evenodd" d="M45.2779 21.5086C43.6185 19.8861 41.3843 18.9861 39.0639 19.0002H39.0568C36.5378 19.0054 34.1454 20.1023 32.4982 22.0079C30.8511 20.1023 28.4587 19.0054 25.9396 19.0002H25.9326C23.6122 18.9861 21.3815 19.8879 19.7221 21.5086C17.8183 23.4106 16.9042 25.5113 17.0079 27.7526C17.2804 33.6397 24.6335 39.5039 28.8858 43.0372C30.0988 44.0445 31.2431 44.9955 32.173 45.8445C32.3576 46.0133 32.6406 46.0133 32.827 45.8445C33.7569 44.9955 34.9012 44.0445 36.1124 43.0372C40.3647 39.5039 47.7196 33.6414 47.9921 27.7526C48.0958 25.5113 47.1817 23.4106 45.2779 21.5086ZM37.1953 34.0967C37.1953 34.16 37.1443 34.211 37.0792 34.211H34.2245V37.0657C34.2245 37.129 34.1735 37.18 34.1084 37.18H30.888C30.823 37.18 30.772 37.129 30.772 37.0657V34.211H27.919C27.854 34.211 27.803 34.16 27.803 34.0967V30.8763C27.803 30.8113 27.8557 30.7603 27.919 30.7603H30.772V27.9073C30.772 27.8422 30.823 27.7912 30.888 27.7912H34.1084C34.1735 27.7912 34.2245 27.8422 34.2245 27.9073V30.7603H37.0792C37.1443 30.7603 37.1953 30.8113 37.1953 30.8763V34.0967Z" fill="white"/>
<circle opacity="0.2" cx="32.5" cy="32.5" r="32.1389" stroke="#D9D9D9" stroke-width="0.722222"/>
</svg>
