<svg width="65" height="65" viewBox="0 0 65 65" fill="none" xmlns="http://www.w3.org/2000/svg">
<path d="M47.144 31.9284C46.9486 29.7994 46.6254 27.5588 45.6101 25.6206C44.7344 23.9662 43.3268 22.469 41.1788 20.9072V20.9087C40.6279 20.4723 40.0093 20.127 39.3481 19.889C38.7325 19.6598 38.0492 19.6995 37.4674 20.0021C36.3008 20.6721 36.339 22.447 36.339 22.9775C36.361 23.3536 36.411 23.7753 36.4595 24.1661L36.4815 24.3395L36.959 24.7333C37.0384 24.7994 37.0868 24.8949 37.0927 24.9992C37.1001 25.1021 37.0633 25.2034 36.9928 25.2784C36.9267 25.3562 36.8312 25.4047 36.7298 25.4106C36.627 25.418 36.527 25.3812 36.4506 25.3122L35.9158 24.8464H35.8938L33.8323 23.0333H33.8338C33.4165 22.6689 33.177 22.1429 33.1756 21.589V16H30.2106V21.5672C30.212 22.1211 29.9725 22.6486 29.5567 23.0145L26.6901 25.5343C25.0225 26.9947 24.063 29.1032 24.0572 31.3204C24.0572 31.5334 23.8853 31.7053 23.6722 31.7053C23.4592 31.7053 23.2858 31.5334 23.2858 31.3204V30.8311C23.0008 31.2014 22.6819 31.5452 22.3352 31.8582C22.2647 31.9213 22.1736 31.9566 22.0795 31.9551C21.915 31.9669 21.7622 31.8699 21.7034 31.7156C21.6432 31.5628 21.6902 31.388 21.8195 31.2866C22.7143 30.4638 23.4019 29.4412 23.828 28.3025C24.0454 27.7368 24.3217 27.1947 24.6523 26.6863C24.617 26.6877 24.5817 26.6877 24.5465 26.6863C24.0925 26.6936 23.6487 26.5614 23.2711 26.3101C22.9846 26.1132 22.7157 25.8928 22.466 25.6519C22.391 25.5755 22.3499 25.4726 22.3514 25.3654C22.3528 25.2581 22.3954 25.1567 22.4718 25.0818C22.6305 24.9261 22.8862 24.929 23.0419 25.0877C23.2623 25.2978 23.4988 25.4903 23.7486 25.6622C24.3378 26.0633 25.1298 25.9869 25.6293 25.4785H25.6484C25.8145 25.3022 25.9908 25.1288 26.1744 24.9672L26.8738 24.3501L26.9032 24.0974C26.9487 23.7212 26.9928 23.3451 27.0163 22.9881C27.0501 22.4576 27.0722 20.6828 25.8879 20.0128H25.8894C25.3134 19.7174 24.639 19.6763 24.0307 19.8996C23.3681 20.1376 22.748 20.4829 22.1956 20.9193C20.074 22.4694 18.6678 23.9666 17.776 25.621C16.746 27.5575 16.4213 29.7995 16.2259 31.9288C15.8835 35.1127 15.9306 38.3261 16.3655 41.4981C16.3904 41.8581 16.5006 42.2063 16.6887 42.5134C16.9488 42.8131 17.3264 42.9865 17.7231 42.9879C18.183 42.985 18.637 42.9042 19.0704 42.7499C20.788 42.2107 22.4189 41.4261 23.9147 40.4226C23.8236 39.9039 23.7825 39.3765 23.7942 38.8504C23.7634 36.5951 24.6963 34.4353 26.3567 32.9101C28.017 31.3865 30.2489 30.6416 32.4922 30.8634C34.7358 31.0867 36.7783 32.2548 38.108 34.0767C39.4362 35.8972 39.9255 38.1996 39.4524 40.4034C40.9481 41.4098 42.5819 42.1959 44.3011 42.7351C44.7346 42.8923 45.1915 42.9717 45.6514 42.9717C46.0466 42.9702 46.4228 42.7968 46.6829 42.4986C46.8709 42.1915 46.9811 41.8433 47.0061 41.4833C47.4395 38.3155 47.4864 35.1079 47.144 31.9284ZM19.1936 39.2747C18.9952 39.2762 18.816 39.1586 18.7396 38.975C18.6632 38.7928 18.7029 38.5827 18.8425 38.4416C18.982 38.3006 19.1936 38.258 19.3758 38.3329C19.5595 38.4093 19.6785 38.5871 19.6785 38.7854C19.6785 39.0543 19.4625 39.2732 19.1936 39.2747ZM19.7167 28.6443C19.5095 28.6443 19.3229 28.5209 19.2436 28.3299C19.1642 28.1374 19.2083 27.9185 19.3552 27.7716C19.5007 27.6261 19.7211 27.582 19.9121 27.6614C20.1031 27.7407 20.228 27.9258 20.228 28.133C20.2295 28.2711 20.1766 28.4019 20.0811 28.5003C19.9856 28.5973 19.8533 28.6531 19.7167 28.6531L19.7167 28.6443ZM20.9274 32.8804H20.8892H20.8906C20.8495 32.8951 20.8054 32.9024 20.7628 32.9024C20.5953 32.9127 20.4425 32.8113 20.3867 32.6541C20.347 32.5601 20.347 32.4543 20.3881 32.3603C20.4278 32.2677 20.5057 32.1942 20.6012 32.1575C20.7995 32.0679 21.0346 32.156 21.1257 32.3559C21.2153 32.5557 21.1272 32.7893 20.9274 32.8804ZM35.3748 29.1455C35.3117 29.1866 35.2367 29.2086 35.1603 29.2086C35.031 29.2101 34.9105 29.1455 34.8415 29.0367C34.6666 28.7796 34.4609 28.546 34.2273 28.3403L31.6928 26.1099L29.1583 28.3285C28.9246 28.5342 28.7189 28.7678 28.5441 29.025C28.4266 29.2027 28.1885 29.2512 28.0107 29.1337C27.833 29.0161 27.7845 28.7781 27.902 28.6003C28.1136 28.2859 28.3663 28.0008 28.6543 27.754L31.4459 25.3091H31.4445C31.5885 25.1754 31.8118 25.1754 31.9558 25.3091L34.7475 27.7496C35.034 27.9994 35.2867 28.2859 35.4997 28.6003C35.56 28.687 35.5805 28.7957 35.557 28.8986C35.5335 29.0014 35.4674 29.0896 35.3748 29.141L35.3748 29.1455ZM42.9461 32.707H42.9476C42.8829 32.8334 42.7536 32.9142 42.6126 32.9142C42.5523 32.9142 42.495 32.898 42.4422 32.8686L42.404 32.8495L42.4054 32.851C41.4915 32.3426 40.6937 31.6491 40.0619 30.816C40.0619 30.985 40.0839 31.154 40.0839 31.3244V31.323C40.0839 31.5316 39.9164 31.6991 39.7078 31.6991C39.5006 31.6991 39.3317 31.5316 39.3317 31.323C39.3302 29.5069 38.6881 27.7482 37.5186 26.3583C37.4363 26.2599 37.3496 26.1659 37.2658 26.0718L37.2056 26.0189L37.2071 26.0204C37.1321 25.9484 37.0895 25.85 37.0895 25.7471C37.0895 25.6443 37.1321 25.5458 37.2071 25.4738C37.2247 25.4577 37.2453 25.4444 37.2673 25.4371C37.2864 25.4195 37.307 25.4062 37.3305 25.3959C37.3481 25.393 37.3658 25.393 37.3834 25.3959C37.4142 25.3915 37.4436 25.3915 37.4745 25.3959H37.5156C37.5494 25.3989 37.5847 25.4062 37.617 25.418H37.6508C37.6772 25.4312 37.7022 25.4474 37.7257 25.4635L37.7742 25.5091L37.7757 25.5076C38.2796 25.991 39.054 26.0542 39.6299 25.6589C39.8827 25.4885 40.1221 25.2975 40.344 25.0874C40.4968 24.939 40.7407 24.9434 40.8876 25.0962C41.0346 25.249 41.0301 25.4929 40.8788 25.6398C40.6276 25.8823 40.3572 26.1042 40.0692 26.3025C39.6931 26.5626 39.245 26.7036 38.7865 26.7036H38.6969C39.026 27.2046 39.3023 27.7394 39.5168 28.2993C40.106 29.9346 41.2579 31.3054 42.7668 32.1693C42.9623 32.2692 43.0416 32.5058 42.9476 32.7042L42.9461 32.707ZM43.1562 28.1449H43.1577C43.1577 27.9377 43.2826 27.7511 43.4736 27.6718C43.6646 27.5924 43.885 27.6365 44.0305 27.7834C44.1774 27.9289 44.2215 28.1493 44.1421 28.3403C44.0628 28.5313 43.8762 28.6562 43.669 28.6562C43.5324 28.6562 43.4016 28.6018 43.3061 28.5049C43.2106 28.4079 43.1562 28.2771 43.1577 28.1405L43.1562 28.1449ZM44.1921 39.2748C43.9937 39.2748 43.8159 39.1557 43.7395 38.9735C43.6646 38.7899 43.7057 38.5798 43.8468 38.4402C43.9864 38.3006 44.1965 38.258 44.3787 38.3344C44.5624 38.4093 44.6814 38.5886 44.6814 38.7855C44.6814 39.0558 44.4624 39.2748 44.1921 39.2748ZM31.6929 31.7065C29.7975 31.7065 27.98 32.4602 26.6398 33.8002C25.2984 35.1402 24.5461 36.9577 24.5461 38.8532C24.5461 40.7486 25.2984 42.5661 26.6398 43.9077C27.9798 45.2477 29.7973 46 31.6929 46C33.5884 46 35.4057 45.2477 36.7459 43.9077C38.0873 42.5663 38.8396 40.7488 38.8396 38.8532C38.8411 36.9578 38.0888 35.1389 36.7474 33.7976C35.4074 32.4576 33.5884 31.7038 31.6928 31.7038L31.6929 31.7065ZM35.8304 39.2292C35.8304 39.8522 35.3249 40.3576 34.702 40.3576H33.1974V41.8357C33.1974 42.4602 32.6919 42.9641 32.069 42.9641H31.3167C30.707 42.9333 30.2206 42.4455 30.1883 41.8357V40.3576H28.7058C28.0828 40.3576 27.5774 39.8522 27.5774 39.2292V38.4769C27.6097 37.8672 28.0975 37.3808 28.7058 37.3485H30.1883V35.8631C30.1986 35.2445 30.6982 34.7449 31.3167 34.7347H32.069C32.6919 34.7347 33.1974 35.2401 33.1974 35.8631V37.3456H34.6799C35.2985 37.3559 35.7981 37.854 35.8083 38.474L35.8304 39.2292Z" fill="white"/>
<circle opacity="0.2" cx="32.5" cy="32.5" r="32.1389" stroke="#D9D9D9" stroke-width="0.722222"/>
</svg>
