<svg width="65" height="65" viewBox="0 0 65 65" fill="none" xmlns="http://www.w3.org/2000/svg">
<path fill-rule="evenodd" clip-rule="evenodd" d="M32 12C25.3774 12 20 17.3774 20 24C20 30.1142 24.5844 35.1638 30.5 35.9045V45H26C25.1712 45 24.5 45.6712 24.5 46.5C24.5 47.3288 25.1712 48 26 48H30.5V52.5C30.5 53.3288 31.1712 54 32 54C32.8288 54 33.5 53.3288 33.5 52.5V48H38C38.8288 48 39.5 47.3288 39.5 46.5C39.5 45.6712 38.8288 45 38 45H33.5V35.9045C39.4155 35.1638 44 30.1147 44 24C44 17.3774 38.6226 12 32 12ZM32 15C36.967 15 41 19.0331 41 24C41 28.9669 36.9669 33 32 33C27.0331 33 23 28.9669 23 24C23 19.0331 27.0331 15 32 15Z" fill="white"/>
<circle opacity="0.2" cx="32.5" cy="32.5" r="32.1389" stroke="#D9D9D9" stroke-width="0.722222"/>
</svg>
