<svg width="43" height="42" viewBox="0 0 43 42" fill="none" xmlns="http://www.w3.org/2000/svg">
<path fill-rule="evenodd" clip-rule="evenodd" d="M11.3228 22.8347H4.22339V37.8188H11.3228V22.8347ZM23.5745 17.4056H16.4787V37.8188H23.5745V17.4056ZM24.601 9.58491H27.8138C28.0585 9.58491 28.2907 9.68243 28.4627 9.85441C28.6347 10.0264 28.7322 10.2587 28.7322 10.5016V37.819H35.8298V10.5034C35.8298 9.9963 36.2412 9.58675 36.7482 9.58498H39.961L32.2801 0L24.601 9.58491ZM42.4964 40.7215C42.7748 40.7215 43 40.9484 43 41.2268C43 41.5052 42.7748 41.7303 42.4964 41.7303H2.29963C1.03012 41.7286 0.0017702 40.7002 0 39.4307V6.8494C0.00709262 6.57812 0.230494 6.36182 0.503555 6.36182C0.774832 6.36182 0.998214 6.57813 1.00711 6.8494V39.4307C1.00888 40.1417 1.5851 40.7179 2.29791 40.7215L42.4964 40.7215Z" fill="white"/>
</svg>
