<svg width="65" height="65" viewBox="0 0 65 65" fill="none" xmlns="http://www.w3.org/2000/svg">
<mask id="mask0_3066_2446" style="mask-type:alpha" maskUnits="userSpaceOnUse" x="5" y="24" width="56" height="20">
<path fill-rule="evenodd" clip-rule="evenodd" d="M6.36032 41.2444L20.7271 38.939L20.765 38.922C20.765 38.922 23.05 37.962 26.7614 39.1588C32.7965 41.1087 37.2888 42.6704 40.8393 43.0983C43.9213 43.4721 45.6278 43.036 48.2707 41.9161C49.1656 41.5357 55.6738 38.623 59.2214 37.0343L59.3803 36.9634C59.8194 36.7403 60.1575 36.3724 60.3263 35.9309C60.4952 35.484 60.4743 34.9915 60.27 34.5565L60.1675 34.3582C59.7073 33.5465 58.6798 33.1561 57.7371 33.4494L47.2862 36.706C46.2014 37.0463 45.0195 37.0178 43.9556 36.6247L31.8185 32.1663L31.7624 32.1479C31.5485 32.0616 31.4443 31.8315 31.5231 31.6282C31.6078 31.4195 31.8521 31.3105 32.0779 31.3806L32.1236 31.3955L39.5091 33.7733C40.8394 34.2021 42.2949 33.5796 42.8135 32.3636L42.8283 32.3245C43.3212 31.166 42.7757 29.8446 41.571 29.2919L34.3032 25.9556L34.2028 25.9082C34.1527 25.8845 27.5798 22.6395 21.6001 24.9882C21.3893 25.0714 20.5155 25.4587 20.2807 25.5635C17.3797 26.8446 7.79612 30.213 5.49822 31.244" fill="white"/>
</mask>
<g mask="url(#mask0_3066_2446)">
<path d="M8.81055 31.7495C8.81055 20.8421 17.6527 12 28.56 12H67.6516V51.4989H28.56C17.6527 51.4989 8.81055 42.6568 8.81055 31.7495Z" fill="white"/>
</g>
<path opacity="0.5" fill-rule="evenodd" clip-rule="evenodd" d="M48.9279 25.921C48.2558 25.3102 47.3509 24.9713 46.411 24.9766L46.4082 24.9766C45.3879 24.9786 44.4189 25.3915 43.7518 26.1089C43.0847 25.3915 42.1157 24.9786 41.0954 24.9766L41.0925 24.9766C40.1527 24.9713 39.2492 25.3108 38.5771 25.921C37.806 26.637 37.4358 27.4278 37.4778 28.2715C37.5882 30.4878 40.5664 32.6954 42.2887 34.0256C42.7799 34.4048 43.2434 34.7628 43.6201 35.0824C43.6948 35.1459 43.8095 35.1459 43.8849 35.0824C44.2616 34.7628 44.7251 34.4048 45.2156 34.0256C46.9379 32.6954 49.9168 30.4884 50.0272 28.2715C50.0692 27.4278 49.699 26.637 48.9279 25.921ZM45.6542 30.6598C45.6542 30.6837 45.6336 30.7029 45.6072 30.7029L44.451 30.7029L44.451 31.7776C44.451 31.8014 44.4303 31.8206 44.404 31.8206L43.0996 31.8206C43.0733 31.8206 43.0526 31.8014 43.0526 31.7776L43.0526 30.7029L41.8971 30.7029C41.8707 30.7029 41.8501 30.6837 41.8501 30.6598L41.8501 29.4475C41.8501 29.423 41.8715 29.4038 41.8971 29.4038L43.0526 29.4038L43.0526 28.3298C43.0526 28.3053 43.0733 28.2861 43.0996 28.2861L44.404 28.2861C44.4303 28.2861 44.451 28.3053 44.451 28.3298L44.451 29.4038L45.6072 29.4038C45.6336 29.4038 45.6542 29.423 45.6542 29.4475L45.6542 30.6598Z" fill="white"/>
<circle opacity="0.2" cx="32.5" cy="32.5" r="32.1389" stroke="#D9D9D9" stroke-width="0.722222"/>
</svg>
