<svg width="110" height="109" viewBox="0 0 110 109" fill="none" xmlns="http://www.w3.org/2000/svg">
<path d="M55.4215 48.9824C54.7381 49.0292 54.0546 48.6549 53.7129 48.0935L41.655 28.9122C37.7007 22.69 35.6992 17.5906 35.6992 13.614C35.6992 9.40349 37.4078 6.08186 40.7763 3.64912C44.1447 1.21637 48.7823 0 54.6893 0C60.7427 0 65.6244 1.21637 69.2369 3.60233C72.8006 5.9883 74.6069 9.21636 74.6069 13.2865C74.6069 15.8596 73.8258 18.7134 72.3124 21.8947C70.7991 24.9824 65.7221 33.6842 56.9837 48.0467C56.6908 48.6081 56.0562 48.9356 55.4215 48.9824Z" fill="white"/>
<path d="M55.32 58.9468C54.6854 58.9468 54.0507 59.2743 53.709 59.8357L41.6022 79.1105C37.648 85.3327 35.6465 90.4321 35.6465 94.4087C35.6465 98.5725 37.3551 101.941 40.7235 104.374C44.0919 106.806 48.7296 108.023 54.6365 108.023C60.6899 108.023 65.5717 106.806 69.1842 104.42C72.7479 102.034 74.5541 98.8064 74.5541 94.7362C74.5541 92.1631 73.7731 89.3093 72.2597 86.128C70.7464 83.0403 65.6693 74.2918 56.8822 59.8824C56.6381 59.321 56.0034 58.9468 55.32 58.9468Z" fill="white"/>
<path d="M57.7111 56.6077C57.467 57.1691 57.6135 57.8241 58.004 58.3387C65.7172 67.3679 75.9201 83.5082 85.0978 88.8883C88.5639 90.9468 92.1764 91.1339 95.9353 89.4965C99.6455 87.9059 102.672 85.5667 105.65 80.7012C108.726 75.6954 110.141 71.1106 109.995 66.9469C109.848 62.8299 108.042 59.789 104.625 57.7773C102.477 56.5141 99.6943 55.7656 96.3259 55.4849C93.0063 55.251 75.9689 55.2042 59.3709 55.4849C58.6387 55.4849 57.9552 55.9527 57.7111 56.6077Z" fill="white"/>
<path d="M57.6657 51.4155C57.9586 51.8834 58.4956 52.2109 59.0814 52.2109C75.777 52.4916 93.0096 52.4448 96.3292 52.2109C99.6977 51.9302 102.431 51.1816 104.628 49.9185C108.045 47.9536 109.852 44.8658 109.998 40.7489C110.145 36.5852 108.729 32.0004 105.653 26.9945C102.676 22.129 99.6488 19.7899 95.9387 18.1992C92.1797 16.5618 88.5672 16.7957 85.1012 18.8074C75.8258 24.2343 65.5253 40.6085 57.8121 49.591C57.3728 50.1056 57.3239 50.8541 57.6657 51.4155Z" fill="white"/>
<path d="M52.2949 56.4673C52.002 55.8592 51.4162 55.4849 50.7328 55.4849C34.086 55.2042 16.9998 55.251 13.6802 55.4849C10.3118 55.7656 7.52918 56.5141 5.3812 57.7773C1.96397 59.7422 0.157717 62.8299 0.011264 66.9469C-0.135189 71.1106 1.28052 75.6954 4.35603 80.7012C7.33391 85.5667 10.3606 87.9059 14.0707 89.4965C17.8297 91.1339 21.4422 90.9 24.9083 88.8883C34.1348 83.5082 44.3865 67.2743 52.0997 58.2451C52.4902 57.7305 52.5879 57.0755 52.2949 56.4673Z" fill="white"/>
<path d="M52.1475 51.4151C51.8546 51.9297 51.2688 52.2104 50.6342 52.2572C34.0362 52.5379 16.9988 52.4911 13.6792 52.2572C10.3108 51.9765 7.52821 51.2279 5.38023 49.9648C1.96299 47.9531 0.205558 44.8654 0.0102874 40.7484C-0.136166 36.5847 1.27955 31.9999 4.35506 26.994C7.33293 22.1286 10.3596 19.7894 14.0698 18.1987C17.8287 16.5613 21.4412 16.7952 24.9073 18.8069C34.1338 24.187 44.3367 40.3274 52.0011 49.3566C52.0499 49.4034 52.0499 49.4502 52.0987 49.4502C52.0987 49.4969 52.5869 50.4794 52.1475 51.4151Z" fill="white"/>
</svg>
