<svg preserveAspectRatio="none" width="100%" height="100%" overflow="visible" style="display: block;" viewBox="0 0 1502 704" fill="none" xmlns="http://www.w3.org/2000/svg">
<g id="Frame 179" style="mix-blend-mode:screen" opacity="0.1">
<path id="Vector" fill-rule="evenodd" clip-rule="evenodd" d="M756.674 45.9643C747.068 45.5706 738.031 50.1529 733.095 57.9215L568.538 315.716C514.508 399.595 487.322 468.115 487.322 521.171C487.322 577.555 510.521 622.126 556.729 654.99C602.444 687.604 665.966 704 746.65 704C827.334 704 895.792 687.819 945.265 655.599C994.169 623.737 1018.7 580.312 1018.7 525.18C1018.7 490.311 1008.26 452.005 987.335 409.69C966.87 368.27 897.576 251.133 778.202 58.1721C773.722 50.9047 765.596 46.2865 756.712 45.9285L756.674 45.9643Z" fill="var(--fill-0, #08A03F)"/>
<path id="Vector_2" fill-rule="evenodd" clip-rule="evenodd" d="M787.438 13.2453C791.463 6.72973 798.829 2.64854 806.84 2.54114C1034.73 -1.03883 1270.02 -0.716646 1315.4 2.75593C1361.49 6.26431 1399 16.3957 1428.51 33.329C1474.98 59.964 1499.54 101.062 1501.82 156.373C1504.1 212.113 1484.4 273.76 1442.59 341.243C1402.12 406.828 1360.69 438.296 1310.16 459.633C1259.09 481.327 1209.8 478.571 1162.23 451.148C1035.53 378.474 895.042 158.449 789.526 37.7681C783.451 30.8229 782.616 21.0138 787.438 13.2095V13.2453Z" fill="var(--fill-0, #08A03F)"/>
<path id="Vector_3" fill-rule="evenodd" clip-rule="evenodd" d="M711.828 13.4958C717.41 21.9804 716.688 32.8993 709.968 40.6321C604.756 161.886 465.448 379.047 339.733 451.148C292.31 478.571 242.988 481.327 191.92 459.633C141.421 438.26 99.9973 406.828 59.4086 341.243C17.6048 273.76 -2.10109 212.113 0.177041 156.373C2.45518 101.026 26.9831 59.964 73.495 33.3289C102.959 16.3956 140.51 6.26427 186.718 2.75589C231.825 -0.680885 464.537 -1.00303 691.173 2.50534C699.602 2.64854 707.386 6.80132 711.828 13.5317V13.4958Z" fill="var(--fill-0, #08A03F)"/>
</g>
</svg>
