<svg width="666" height="643" viewBox="0 0 666 643" fill="none" xmlns="http://www.w3.org/2000/svg">
<g style="mix-blend-mode:screen" opacity="0.22">
<path fill-rule="evenodd" clip-rule="evenodd" d="M7.96434 327.674C7.57055 318.068 12.1529 309.031 19.9214 304.095L277.716 139.538C361.595 85.508 430.115 58.3223 483.171 58.3223C539.555 58.3223 584.126 81.5213 616.99 127.729C649.604 173.444 666 236.966 666 317.65C666 398.334 649.818 466.792 617.599 516.265C585.737 565.169 542.312 589.697 487.18 589.697C452.311 589.697 414.005 579.256 371.69 558.335C330.27 537.87 213.133 468.576 20.172 349.202C12.9047 344.722 8.28649 336.596 7.92852 327.712L7.96434 327.674Z" fill="#08A03F"/>
<path fill-rule="evenodd" clip-rule="evenodd" d="M-24.7549 358.438C-31.2704 362.463 -35.3516 369.829 -35.459 377.84C-39.039 605.729 -38.7168 841.023 -35.2443 886.396C-31.7359 932.49 -21.6045 970.003 -4.67123 999.505C21.9638 1045.98 63.0619 1070.54 118.373 1072.82C174.113 1075.1 235.76 1055.4 303.243 1013.59C368.828 973.117 400.296 931.693 421.632 881.156C443.327 830.088 440.57 780.804 413.148 733.229C340.474 606.527 120.449 466.042 -0.232056 360.526C-7.17722 354.451 -16.9864 353.616 -24.7907 358.438L-24.7549 358.438Z" fill="#08A03F"/>
<path fill-rule="evenodd" clip-rule="evenodd" d="M-24.5044 282.828C-16.0198 288.41 -5.10089 287.688 2.63187 280.968C123.886 175.756 341.047 36.4482 413.148 -89.2669C440.57 -136.69 443.327 -186.012 421.632 -237.08C400.26 -287.579 368.828 -329.003 303.243 -369.591C235.76 -411.395 174.113 -431.101 118.373 -428.823C63.0261 -426.545 21.9638 -402.017 -4.67127 -355.505C-21.6046 -326.041 -31.7359 -288.49 -35.2443 -242.282C-38.6811 -197.175 -39.0033 35.5369 -35.4949 262.173C-35.3517 270.602 -31.1989 278.386 -24.4685 282.828L-24.5044 282.828Z" fill="#08A03F"/>
</g>
</svg>
