<svg preserveAspectRatio="none" width="100%" height="100%" overflow="visible" style="display: block;" viewBox="0 0 1206.48 701.488" fill="none" xmlns="http://www.w3.org/2000/svg">
<g id="Frame 258" opacity="0.3">
<g id="Frame 259">
<g id="Group">
<path id="Vector" d="M390.779 464.294C400.724 472.154 410.385 476.33 419.539 476.841L419.539 476.84C428.591 477.285 435.913 474.027 441.475 466.99C444.997 462.534 447.652 456.564 449.567 449.033C451.355 441.65 455.07 419.736 460.614 383.049L460.615 383.034L460.618 383.019C460.872 381.849 460.368 380.61 459.485 379.79C458.57 378.953 457.122 378.736 455.932 379.216L455.925 379.218L409.337 397.232L409.335 397.233L407.927 397.776C393.534 403.407 383.706 409.549 378.429 416.227C372.661 423.525 370.903 431.448 373.045 439.973C375.19 448.514 381.075 456.625 390.779 464.294Z" fill="var(--fill-0, #08A03F)" stroke="var(--stroke-0, white)" stroke-width="0.961852"/>
</g>
<g id="Group_2">
<path id="Vector_2" d="M473.806 361.397C474.798 362.18 476.156 362.311 477.153 361.747L477.18 361.732L477.211 361.72C511.768 347.831 532.296 339.072 539.066 335.626C545.951 332.023 551.146 328.06 554.668 323.603C560.229 316.567 561.707 308.692 559.184 299.989C556.572 291.2 550.278 282.764 540.331 274.903C530.627 267.234 521.376 263.382 512.571 263.268C503.782 263.154 496.415 266.776 490.711 273.992C485.264 280.885 481.492 292.364 479.372 308.451L479.372 308.453L472.56 358.171L472.561 358.172L472.56 358.178C472.369 359.44 472.892 360.674 473.806 361.397Z" fill="var(--fill-0, #08A03F)" stroke="var(--stroke-0, white)" stroke-width="0.961852"/>
</g>
<g id="Group_3">
<path id="Vector_3" d="M475.688 372.781C502.707 394.937 530.881 417.07 536.677 420.986L536.678 420.985C542.591 424.861 548.155 427.137 553.36 427.707C561.371 428.581 568.247 425.869 574.008 419.388L574.561 418.749C580.519 411.702 584.531 401.879 586.405 389.116L586.406 389.115C588.24 376.759 586.507 368.794 582.641 361.249L582.639 361.246C578.78 353.6 572.694 349.316 564.274 348.432L564.272 348.433L563.208 348.328C552.09 347.384 537.157 350.436 521.829 354.491C506.067 358.662 489.863 363.902 477.217 366.813C475.979 367.177 474.985 368.037 474.665 369.144L474.662 369.156L474.658 369.168C474.214 370.453 474.638 371.951 475.682 372.775L475.688 372.781Z" fill="var(--fill-0, #08A03F)" stroke="var(--stroke-0, white)" stroke-width="0.961852"/>
</g>
<g id="Group_4">
<path id="Vector_4" d="M467.316 471.112C470.188 479.025 475.704 484.035 484.029 486.022L484.031 486.023C492.266 488.041 500.416 487.887 512.013 483.247L512.015 483.247C524 478.475 532.629 472.3 538.109 464.876C543.507 457.555 544.777 449.932 541.928 442.183C540.089 437.182 536.667 432.357 531.531 427.501C526.381 422.765 498.017 400.212 470.056 378.917L470.056 378.918L470.049 378.912C469.283 378.307 468.217 378.164 467.266 378.468L467.077 378.534C465.913 379.006 465.079 380.21 465.087 381.484L465.089 381.484C465.212 394.423 463.832 411.518 463.395 427.975C462.957 444.488 463.465 460.38 467.316 471.112Z" fill="var(--fill-0, #08A03F)" stroke="var(--stroke-0, white)" stroke-width="0.961852"/>
</g>
<g id="Group_5">
<path id="Vector_5" d="M400.252 313.165C405.399 317.898 433.525 340.26 461.407 361.494L461.414 361.499C462.383 362.265 463.665 362.367 464.84 361.76C466.004 361.157 466.663 360.042 466.729 358.791C466.64 345.815 468.007 328.781 468.425 312.418C468.844 295.991 468.31 280.214 464.467 269.556C461.595 261.642 456.082 256.631 447.756 254.644L447.753 254.643L446.981 254.46C439.005 252.639 431.006 252.924 419.771 257.419L419.77 257.42L418.656 257.871C407.617 262.427 399.521 268.211 394.199 275.098L393.675 275.79C388.277 283.11 387.007 290.733 389.856 298.483L389.857 298.483L389.858 298.488C391.615 303.42 395.115 308.307 400.253 313.165L400.252 313.165Z" fill="var(--fill-0, #08A03F)" stroke="var(--stroke-0, white)" stroke-width="0.961852"/>
</g>
<path id="Vector_6" d="M349.143 379.418C353 387.059 359.149 391.267 367.512 392.233C378.77 393.509 394.192 390.407 410.014 386.221C425.779 382.05 441.975 376.79 454.579 373.849L454.602 373.843L454.627 373.84C454.623 373.841 454.622 373.841 454.631 373.838C454.636 373.837 454.643 373.834 454.655 373.83C454.665 373.826 454.685 373.818 454.705 373.811C454.734 373.802 454.791 373.784 454.864 373.778C454.927 373.738 455.006 373.689 455.098 373.627C455.307 373.487 455.583 373.288 455.873 373.027C456.452 372.507 457.061 371.763 457.32 370.788C457.509 369.709 457.032 368.614 456.14 367.786C429.119 345.628 400.947 323.498 395.163 319.593C389.252 315.719 383.69 313.444 378.487 312.874C370.482 312.002 363.618 314.845 357.78 321.285L357.218 321.919C351.262 328.966 347.25 338.787 345.377 351.548L345.376 351.549C343.541 363.905 345.275 371.87 349.141 379.415L349.143 379.418Z" fill="var(--fill-0, #08A03F)" stroke="var(--stroke-0, white)" stroke-width="0.961852"/>
</g>
<path id="Vector 37" d="M538.627 382.4C582.538 369.594 672.25 398.548 685.775 446.929C702.681 507.404 645.29 503.696 632.464 484.12C619.639 464.545 634.535 407.769 755.849 428.631C878.642 446.124 1140.09 450.093 1203.53 326.027" stroke="var(--stroke-0, #08A03F)"/>
<path id="Vector 36" d="M26.1606 85.6147C47.2007 77.4166 95.9062 66.0285 122.407 86.061C155.533 111.102 155.442 168.873 115.579 156.824C75.7149 144.776 121.021 77.551 177.038 81.3784C233.054 85.2057 319.722 135.795 311.306 230.449C302.889 325.103 369.833 365.182 385.192 368.906" stroke="var(--stroke-0, #08A03F)"/>
</g>
</svg>
