<svg preserveAspectRatio="none" width="100%" height="100%" overflow="visible" style="display: block;" viewBox="0 0 1276.11 597.915" fill="none" xmlns="http://www.w3.org/2000/svg">
<g id="Group 229">
<path id="Vector" d="M634.359 0.437622C702.857 0.437667 760.926 14.1721 802.864 41.4747C844.299 68.4605 865.054 105.208 865.054 151.873C865.054 181.401 856.209 213.868 838.454 249.767H838.453C821.077 284.923 762.219 384.387 660.793 548.277V548.278C657.097 554.271 650.409 558.105 643.069 558.458L643.04 558.432L642.857 558.439C634.843 558.767 627.317 554.945 623.211 548.486V548.485L483.402 329.538L483.401 329.537L481.266 326.208C436.793 256.503 414.469 199.507 414.469 155.279C414.469 107.535 434.109 69.8123 473.254 41.9816V41.9806C511.993 14.353 565.862 0.437622 634.359 0.437622Z" fill="var(--fill-0, #08A03F)" stroke="var(--stroke-0, #08A03F)" stroke-width="0.875276"/>
<path id="Vector_2" d="M987.657 215.13C1027.96 191.909 1069.68 189.575 1112.95 207.948H1112.95C1155.8 226.033 1190.92 252.698 1225.26 308.324V308.325C1260.75 365.594 1277.45 417.865 1275.52 465.089C1273.59 511.919 1252.8 546.685 1213.45 569.229C1188.85 583.345 1157.65 591.892 1119.37 594.995L1117.54 595.138C1079.01 598.086 879.13 598.36 685.504 595.319H685.503C678.839 595.23 672.723 591.836 669.386 586.436L669.009 585.827C665.441 579.474 666.246 571.694 671.117 566.127C715.943 514.876 768.23 442.49 822.703 375.28C877.207 308.032 933.913 245.946 987.656 215.13L987.657 215.13Z" fill="var(--fill-0, #08A03F)" stroke="var(--stroke-0, #08A03F)" stroke-width="0.875276"/>
<path id="Vector_3" d="M163.228 207.948C206.492 189.575 248.251 191.909 288.421 215.13L288.422 215.13C341.747 245.703 397.993 307.06 452.109 373.7C505.349 439.26 556.545 509.956 600.764 561.264L602.864 563.693C608.278 569.92 609.002 578.628 604.813 585.571L604.41 586.181C600.835 591.596 594.646 595.012 587.876 595.329L587.219 595.35C394.658 598.33 196.97 598.055 158.671 595.138C119.455 592.162 87.6195 583.569 62.6602 569.229H62.6592C23.2777 546.685 2.5175 511.95 0.587891 465.088C-1.31268 418.603 14.8394 367.226 49.1963 311.005L50.8457 308.325C84.7452 253.568 119.311 226.903 161.226 208.803L163.228 207.948Z" fill="var(--fill-0, #08A03F)" stroke="var(--stroke-0, #08A03F)" stroke-width="0.875276"/>
</g>
</svg>
