<svg preserveAspectRatio="none" width="100%" height="100%" overflow="visible" style="display: block;" viewBox="0 0 318.714 312.966" fill="none" xmlns="http://www.w3.org/2000/svg">
<g id="Group" opacity="0.5">
<g id="Group_2">
<path id="Vector" d="M160.559 141.912C158.579 142.048 156.599 140.963 155.608 139.337L120.674 83.7648C109.218 65.7378 103.419 50.9637 103.419 39.4427C103.419 27.2439 108.369 17.6204 118.128 10.5723C127.887 3.52409 141.324 0 158.437 0C175.975 0 190.119 3.52409 200.585 10.4367C210.91 17.3493 216.143 26.7017 216.143 38.4939C216.143 45.9487 213.88 54.2167 209.495 63.4335C205.111 72.3793 190.401 97.5901 165.085 139.201C164.236 140.828 162.397 141.777 160.559 141.912Z" fill="var(--fill-0, #D9F0E1)"/>
</g>
<g id="Group_3">
<path id="Vector_2" d="M160.277 170.783C158.438 170.783 156.599 171.732 155.609 173.358L120.533 229.201C109.077 247.228 103.278 262.002 103.278 273.524C103.278 285.587 108.228 295.346 117.987 302.394C127.747 309.442 141.183 312.966 158.296 312.966C175.834 312.966 189.978 309.442 200.444 302.529C210.769 295.617 216.002 286.264 216.002 274.472C216.002 267.018 213.739 258.749 209.354 249.533C204.97 240.587 190.261 215.241 164.802 173.494C164.095 171.867 162.257 170.783 160.277 170.783Z" fill="var(--fill-0, #D9F0E1)"/>
</g>
<g id="Group_4">
<path id="Vector_3" d="M167.206 164.005C166.499 165.632 166.923 167.529 168.055 169.02C190.402 195.18 219.961 241.942 246.551 257.529C256.593 263.493 267.059 264.035 277.95 259.291C288.699 254.683 297.468 247.906 306.095 233.809C315.006 219.306 319.107 206.023 318.683 193.96C318.259 182.032 313.026 173.222 303.125 167.394C296.902 163.734 288.84 161.566 279.081 160.752C269.464 160.075 220.103 159.939 172.015 160.752C169.893 160.752 167.913 162.108 167.206 164.005Z" fill="var(--fill-0, #D9F0E1)"/>
</g>
<g id="Group_5">
<path id="Vector_4" d="M167.066 148.96C167.915 150.316 169.471 151.264 171.168 151.264C219.539 152.078 269.465 151.942 279.083 151.264C288.842 150.451 296.762 148.283 303.127 144.623C313.027 138.93 318.26 129.984 318.684 118.057C319.109 105.994 315.007 92.7104 306.097 78.2075C297.469 64.1111 288.7 57.334 277.951 52.7256C267.061 47.9816 256.595 48.6593 246.553 54.4876C219.68 70.2105 189.837 117.65 167.49 143.674C166.218 145.165 166.076 147.334 167.066 148.96Z" fill="var(--fill-0, #D9F0E1)"/>
</g>
<g id="Group_6">
<path id="Vector_5" d="M151.507 163.599C150.658 161.837 148.961 160.752 146.981 160.752C98.7514 159.939 49.2492 160.075 39.6316 160.752C29.8726 161.566 21.8108 163.734 15.5876 167.394C5.6872 173.087 0.45411 182.032 0.0298049 193.96C-0.3945 206.023 3.70711 219.306 12.6175 233.809C21.245 247.906 30.014 254.683 40.7631 259.291C51.6536 264.035 62.1197 263.357 72.1616 257.529C98.8928 241.942 128.594 194.909 150.941 168.749C152.072 167.258 152.355 165.361 151.507 163.599Z" fill="var(--fill-0, #D9F0E1)"/>
</g>
<path id="Vector_6" d="M151.082 148.96C150.234 150.451 148.537 151.264 146.698 151.4C98.61 152.213 49.2492 152.078 39.6316 151.4C29.8726 150.587 21.8108 148.418 15.5877 144.758C5.6872 138.93 0.595545 129.984 0.0298049 118.057C-0.3945 105.993 3.70711 92.7102 12.6175 78.2072C21.2451 64.1109 30.014 57.3338 40.7631 52.7254C51.6536 47.9814 62.1198 48.6591 72.1616 54.4874C98.8929 70.0747 128.453 116.837 150.658 142.996C150.799 143.132 150.799 143.267 150.941 143.267C150.941 143.403 152.355 146.249 151.082 148.96Z" fill="var(--fill-0, #D9F0E1)"/>
</g>
</svg>
