<svg preserveAspectRatio="none" width="100%" height="100%" overflow="visible" style="display: block;" viewBox="0 0 498.116 278.696" fill="none" xmlns="http://www.w3.org/2000/svg">
<g id="Visual">
<path id="Vector" d="M414.32 0.264648C423.172 0.264648 430.335 1.98828 435.697 5.34766L436.21 5.67773C441.539 9.2463 444.225 14.0555 444.226 20.125C444.226 23.9692 443.058 28.2514 440.776 33.0479C438.491 37.7116 430.808 50.8802 417.569 72.6396L417.562 72.6553C417.195 73.3574 416.411 73.8064 415.577 73.9141L415.41 73.9307C414.477 73.994 413.535 73.4793 413.067 72.7109L413.065 72.707L394.801 43.6533V43.6523L394.248 42.7744C388.633 33.76 385.82 26.3808 385.82 20.6211C385.82 14.3283 388.368 9.37717 393.401 5.74219C398.443 2.10107 405.406 0.264652 414.32 0.264648Z" stroke="var(--stroke-0, #08A03F)" stroke-width="0.529455"/>
<path id="Vector_2" d="M414.32 0.264648C423.172 0.264648 430.335 1.98828 435.697 5.34766L436.21 5.67773C441.539 9.2463 444.225 14.0555 444.226 20.125C444.226 23.9692 443.058 28.2514 440.776 33.0479C438.491 37.7116 430.808 50.8802 417.569 72.6396L417.562 72.6553C417.195 73.3574 416.411 73.8064 415.577 73.9141L415.41 73.9307C414.477 73.994 413.535 73.4793 413.067 72.7109L413.065 72.707L394.801 43.6533V43.6523L394.248 42.7744C388.633 33.76 385.82 26.3808 385.82 20.6211C385.82 14.3283 388.368 9.37717 393.401 5.74219C398.443 2.10107 405.406 0.264652 414.32 0.264648Z" stroke="var(--stroke-0, #08A03F)" stroke-width="0.529455"/>
<path id="Vector_3" d="M415.279 89.5538C416.227 89.5538 417.082 90.074 417.403 90.8116L417.41 90.8292L417.419 90.8439C430.731 112.673 438.414 125.913 440.7 130.577C442.981 135.374 444.149 139.656 444.149 143.5C444.149 149.57 441.463 154.38 436.133 157.948C430.718 161.525 423.38 163.36 414.244 163.36C405.33 163.36 398.366 161.525 393.325 157.884C388.292 154.249 385.744 149.227 385.744 143.004C385.744 137.059 388.741 129.388 394.724 119.974V119.973L413.063 90.7765L413.065 90.7735C413.531 90.0074 414.404 89.5539 415.279 89.5538Z" stroke="var(--stroke-0, #08A03F)" stroke-width="0.529455"/>
<path id="Vector_4" d="M415.279 89.5538C416.227 89.5538 417.082 90.074 417.403 90.8116L417.41 90.8292L417.419 90.8439C430.731 112.673 438.414 125.913 440.7 130.577C442.981 135.374 444.149 139.656 444.149 143.5C444.149 149.57 441.463 154.38 436.133 157.948C430.718 161.525 423.38 163.36 414.244 163.36C405.33 163.36 398.366 161.525 393.325 157.884C388.292 154.249 385.744 149.227 385.744 143.004C385.744 137.059 388.741 129.388 394.724 119.974V119.973L413.063 90.7765L413.065 90.7735C413.531 90.0074 414.404 89.5539 415.279 89.5538Z" stroke="var(--stroke-0, #08A03F)" stroke-width="0.529455"/>
<path id="Vector_5" d="M421.419 84.3091C446.559 83.884 472.347 83.954 477.37 84.3072V84.3081C482.447 84.7313 486.62 85.8583 489.828 87.7447C494.924 90.7448 497.613 95.2675 497.832 101.416C498.051 107.654 495.93 114.548 491.29 122.101V122.102C486.807 129.427 482.263 132.932 476.696 135.319L476.694 135.32C471.075 137.767 465.693 137.487 460.519 134.414L460.518 134.413C453.615 130.366 446.303 122.254 439.24 113.412C432.635 105.144 426.24 96.2256 420.653 89.5083L419.546 88.1949C419.038 87.5176 418.848 86.6972 419.089 85.9908L419.144 85.8511L419.149 85.8374C419.478 84.9532 420.412 84.3091 421.415 84.3091H421.419Z" stroke="var(--stroke-0, #08A03F)" stroke-width="0.529455"/>
<path id="Vector_6" d="M421.419 84.3091C446.559 83.884 472.347 83.954 477.37 84.3072V84.3081C482.447 84.7313 486.62 85.8583 489.828 87.7447C494.924 90.7448 497.613 95.2675 497.832 101.416C498.051 107.654 495.93 114.548 491.29 122.101V122.102C486.807 129.427 482.263 132.932 476.696 135.319L476.694 135.32C471.075 137.767 465.693 137.487 460.519 134.414L460.518 134.413C453.615 130.366 446.303 122.254 439.24 113.412C432.635 105.144 426.24 96.2256 420.653 89.5083L419.546 88.1949C419.038 87.5176 418.848 86.6972 419.089 85.9908L419.144 85.8511L419.149 85.8374C419.478 84.9532 420.412 84.3091 421.415 84.3091H421.419Z" stroke="var(--stroke-0, #08A03F)" stroke-width="0.529455"/>
<path id="Vector_7" d="M460.52 28.7162C465.697 25.7112 471.081 25.3625 476.697 27.809H476.698C482.092 30.1215 486.525 33.4838 490.872 40.351L491.292 41.0268C495.933 48.5806 498.054 55.4742 497.835 61.7133C497.616 67.863 494.926 72.454 489.833 75.3822C486.754 77.1526 482.958 78.2536 478.313 78.7328L477.376 78.8197C472.362 79.1731 446.272 79.245 420.979 78.8197H420.975C420.185 78.8197 419.452 78.3756 419.054 77.7387C418.597 76.985 418.663 75.9776 419.252 75.2875L419.253 75.2885C425.096 68.4842 431.939 58.8546 439.039 49.9467C446.158 41.016 453.542 32.7976 460.519 28.7152L460.52 28.7162Z" stroke="var(--stroke-0, #08A03F)" stroke-width="0.529455"/>
<path id="Vector_8" d="M460.52 28.7162C465.697 25.7112 471.081 25.3625 476.697 27.809H476.698C482.092 30.1215 486.525 33.4838 490.872 40.351L491.292 41.0268C495.933 48.5806 498.054 55.4742 497.835 61.7133C497.616 67.863 494.926 72.454 489.833 75.3822C486.754 77.1526 482.958 78.2536 478.313 78.7328L477.376 78.8197C472.362 79.1731 446.272 79.245 420.979 78.8197H420.975C420.185 78.8197 419.452 78.3756 419.054 77.7387C418.597 76.985 418.663 75.9776 419.252 75.2875L419.253 75.2885C425.096 68.4842 431.939 58.8546 439.039 49.9467C446.158 41.016 453.542 32.7976 460.519 28.7152L460.52 28.7162Z" stroke="var(--stroke-0, #08A03F)" stroke-width="0.529455"/>
<path id="Vector_9" d="M352.225 84.3071C356.932 83.976 379.957 83.8936 403.594 84.2348L408.324 84.3091H408.329C409.261 84.3091 410.057 84.8166 410.457 85.647C410.854 86.4711 410.724 87.3572 410.188 88.0639C404.349 94.9017 397.526 104.492 390.458 113.341C383.588 121.942 376.477 129.856 369.73 134.021L369.079 134.413C363.902 137.417 358.518 137.766 352.902 135.32L352.9 135.319C347.333 132.932 342.789 129.427 338.306 122.102V122.101C333.666 114.547 331.545 107.654 331.764 101.416C331.983 95.2658 334.673 90.6748 339.765 87.7466L339.768 87.7446C342.976 85.8582 347.148 84.7312 352.226 84.3081L352.225 84.3071Z" stroke="var(--stroke-0, #08A03F)" stroke-width="0.529455"/>
<path id="Vector_10" d="M352.225 84.3071C356.932 83.976 379.957 83.8936 403.594 84.2348L408.324 84.3091H408.329C409.261 84.3091 410.057 84.8166 410.457 85.647C410.854 86.4711 410.724 87.3572 410.188 88.0639C404.349 94.9017 397.526 104.492 390.458 113.341C383.588 121.942 376.477 129.856 369.73 134.021L369.079 134.413C363.902 137.417 358.518 137.766 352.902 135.32L352.9 135.319C347.333 132.932 342.789 129.427 338.306 122.102V122.101C333.666 114.547 331.545 107.654 331.764 101.416C331.983 95.2658 334.673 90.6748 339.765 87.7466L339.768 87.7446C342.976 85.8582 347.148 84.7312 352.226 84.3081L352.225 84.3071Z" stroke="var(--stroke-0, #08A03F)" stroke-width="0.529455"/>
<path id="Vector_11" d="M352.903 27.8092C358.344 25.4393 363.566 25.6921 368.594 28.442L369.08 28.7164C376.02 32.7633 383.35 40.8753 390.413 49.7174C397.456 58.5347 404.247 68.0962 410.051 74.9332L410.059 74.943L410.069 74.9527C410.081 74.9638 410.071 74.9549 410.109 75.0104C410.122 75.0281 410.147 75.0587 410.184 75.0895C410.203 75.1394 410.227 75.2047 410.255 75.2848C410.311 75.448 410.379 75.672 410.427 75.9342C410.522 76.4589 410.534 77.1199 410.237 77.7584C409.85 78.4292 409.067 78.8219 408.172 78.8902C383.032 79.3153 357.246 79.2444 352.226 78.8912H352.227C347.467 78.4945 343.502 77.4793 340.382 75.7994L339.769 75.4547C334.836 72.5502 332.224 68.1499 331.8 62.2828L331.765 61.7096C331.554 55.6664 333.537 49.0094 337.88 41.733L338.307 41.027C342.79 33.7023 347.333 30.1963 352.901 27.8092H352.903Z" stroke="var(--stroke-0, #08A03F)" stroke-width="0.529455"/>
<path id="Vector_12" d="M352.903 27.8092C358.344 25.4393 363.566 25.6921 368.594 28.442L369.08 28.7164C376.02 32.7633 383.35 40.8753 390.413 49.7174C397.456 58.5347 404.247 68.0962 410.051 74.9332L410.059 74.943L410.069 74.9527C410.081 74.9638 410.071 74.9549 410.109 75.0104C410.122 75.0281 410.147 75.0587 410.184 75.0895C410.203 75.1394 410.227 75.2047 410.255 75.2848C410.311 75.448 410.379 75.672 410.427 75.9342C410.522 76.4589 410.534 77.1199 410.237 77.7584C409.85 78.4292 409.067 78.8219 408.172 78.8902C383.032 79.3153 357.246 79.2444 352.226 78.8912H352.227C347.467 78.4945 343.502 77.4793 340.382 75.7994L339.769 75.4547C334.836 72.5502 332.224 68.1499 331.8 62.2828L331.765 61.7096C331.554 55.6664 333.537 49.0094 337.88 41.733L338.307 41.027C342.79 33.7023 347.333 30.1963 352.901 27.8092H352.903Z" stroke="var(--stroke-0, #08A03F)" stroke-width="0.529455"/>
<path id="Vector 38" opacity="0.5" d="M0.111283 255.686C38.9183 272.842 133.376 296.86 200.752 255.686C284.971 204.219 251.944 125.229 331.209 104.036" stroke="var(--stroke-0, #08A03F)" stroke-width="0.550454"/>
<path id="Vector 39" opacity="0.5" d="M245.742 212.53C239.641 215.094 227.428 218.181 227.387 210.015C227.346 201.849 239.607 208.289 245.742 212.53Z" stroke="var(--stroke-0, #08A03F)" stroke-width="0.550454"/>
<path id="Vector 40" opacity="0.5" d="M267.329 169.969C277.821 178.255 295.372 196.712 281.636 204.246C267.9 211.779 266.374 184.533 267.329 169.969Z" stroke="var(--stroke-0, #08A03F)" stroke-width="0.550454"/>
<path id="Vector 41" opacity="0.5" d="M293.376 124.898C282.292 117.421 259.374 106.311 256.372 121.687C253.37 137.063 279.791 130.235 293.376 124.898Z" stroke="var(--stroke-0, #08A03F)" stroke-width="0.550454"/>
</g>
</svg>
