<svg width="534" height="256" viewBox="0 0 534 256" fill="none" xmlns="http://www.w3.org/2000/svg">
<path d="M409.751 12.575C418.506 11.2743 425.845 11.9266 431.643 14.4616L432.199 14.7127C437.994 17.4595 441.358 21.8217 442.25 27.8253C442.815 31.6278 442.289 36.0351 440.737 41.1147C439.162 46.0638 433.498 60.2183 423.6 83.6869L423.595 83.7035C423.335 84.4518 422.626 85.0111 421.817 85.2402L421.654 85.2812C420.74 85.4809 419.733 85.1102 419.157 84.419L419.155 84.4154L396.819 58.361L396.819 58.36L396.143 57.5728C389.265 49.4814 385.398 42.5955 384.552 36.8984C383.627 30.6739 385.42 25.4021 389.864 21.067C394.316 16.7246 400.934 13.8849 409.751 12.575Z" stroke="#08A03F" stroke-width="0.529455"/>
<path d="M409.751 12.575C418.506 11.2743 425.845 11.9266 431.643 14.4616L432.199 14.7127C437.994 17.4595 441.358 21.8217 442.25 27.8253C442.815 31.6278 442.289 36.0351 440.737 41.1147C439.162 46.0638 433.498 60.2183 423.6 83.6869L423.595 83.7035C423.335 84.4518 422.626 85.0111 421.817 85.2402L421.654 85.2812C420.74 85.4809 419.733 85.1102 419.157 84.419L419.155 84.4154L396.819 58.361L396.819 58.36L396.143 57.5728C389.265 49.4814 385.398 42.5955 384.552 36.8984C383.627 30.6739 385.42 25.4021 389.864 21.067C394.316 16.7246 400.934 13.8849 409.751 12.575Z" stroke="#08A03F" stroke-width="0.529455"/>
<path d="M423.82 100.754C424.758 100.615 425.68 101.003 426.106 101.686L426.115 101.702L426.127 101.715C442.502 121.351 452.046 133.319 454.993 137.597C457.955 142.006 459.739 146.07 460.304 149.872C461.196 155.876 459.245 161.028 454.498 165.342C449.668 169.675 442.679 172.569 433.641 173.911C424.824 175.221 417.667 174.429 412.145 171.568C406.633 168.713 403.374 164.119 402.46 157.964C401.586 152.083 403.424 144.055 407.958 133.864L407.958 133.863L421.808 102.289L421.809 102.286C422.158 101.459 422.954 100.883 423.82 100.754Z" stroke="#08A03F" stroke-width="0.529455"/>
<path d="M423.82 100.754C424.758 100.615 425.68 101.003 426.106 101.686L426.115 101.702L426.127 101.715C442.502 121.351 452.046 133.319 454.993 137.597C457.955 142.006 459.739 146.07 460.304 149.872C461.196 155.876 459.245 161.028 454.498 165.342C449.668 169.675 442.679 172.569 433.641 173.911C424.824 175.221 417.667 174.429 412.145 171.568C406.633 168.713 403.374 164.119 402.46 157.964C401.586 152.083 403.424 144.055 407.958 133.864L407.958 133.863L421.808 102.289L421.809 102.286C422.158 101.459 422.954 100.883 423.82 100.754Z" stroke="#08A03F" stroke-width="0.529455"/>
<path d="M429.123 94.664C453.927 90.5493 479.446 86.8292 484.465 86.4404L484.466 86.4414C489.551 86.1138 493.843 86.6155 497.293 88.01C502.775 90.2286 506.1 94.3072 507.219 100.356C508.353 106.495 507.268 113.625 503.788 121.779L503.788 121.78C500.43 129.683 496.451 133.818 491.295 136.997L491.293 136.999C486.095 140.245 480.73 140.758 475.161 138.479L475.16 138.478C467.737 135.49 459.312 128.541 451.026 120.832C443.279 113.625 435.642 105.743 429.129 99.9194L427.841 98.7828C427.238 98.1876 426.93 97.4041 427.065 96.6697L427.099 96.5236L427.102 96.5093C427.298 95.5863 428.127 94.812 429.119 94.6645L429.123 94.664Z" stroke="#08A03F" stroke-width="0.529455"/>
<path d="M429.123 94.664C453.927 90.5493 479.446 86.8292 484.465 86.4404L484.466 86.4414C489.551 86.1138 493.843 86.6155 497.293 88.01C502.775 90.2286 506.1 94.3072 507.219 100.356C508.353 106.495 507.268 113.625 503.788 121.779L503.788 121.78C500.43 129.683 496.451 133.818 491.295 136.997L491.293 136.999C486.095 140.245 480.73 140.758 475.161 138.479L475.16 138.478C467.737 135.49 459.312 128.541 451.026 120.832C443.279 113.625 435.642 105.743 429.129 99.9194L427.841 98.7828C427.238 98.1876 426.93 97.4041 427.065 96.6697L427.099 96.5236L427.102 96.5093C427.298 95.5863 428.127 94.812 429.119 94.6645L429.123 94.664Z" stroke="#08A03F" stroke-width="0.529455"/>
<path d="M459.63 33.929C464.309 30.1958 469.583 29.0597 475.498 30.6544L475.499 30.6542C481.174 32.149 486.053 34.8235 491.362 40.9773L491.877 41.584C497.577 48.3739 500.689 54.881 501.389 61.0845C502.076 67.1996 500.089 72.1362 495.482 75.7809C492.697 77.9845 489.104 79.6314 484.579 80.788L483.665 81.0116C478.758 82.0979 452.962 86.0028 427.88 89.299L427.876 89.2995C427.095 89.4156 426.305 89.0839 425.817 88.5125C425.255 87.8341 425.172 86.8279 425.653 86.0588L425.654 86.0596C430.434 78.4707 435.788 67.94 441.502 58.0854C447.231 48.2056 453.328 38.9914 459.628 33.9282L459.63 33.929Z" stroke="#08A03F" stroke-width="0.529455"/>
<path d="M459.63 33.929C464.309 30.1958 469.583 29.0597 475.498 30.6544L475.499 30.6542C481.174 32.149 486.053 34.8235 491.362 40.9773L491.877 41.584C497.577 48.3739 500.689 54.881 501.389 61.0845C502.076 67.1996 500.089 72.1362 495.482 75.7809C492.697 77.9845 489.104 79.6314 484.579 80.788L483.665 81.0116C478.758 82.0979 452.962 86.0028 427.88 89.299L427.876 89.2995C427.095 89.4156 426.305 89.0839 425.817 88.5125C425.255 87.8341 425.172 86.8279 425.653 86.0588L425.654 86.0596C430.434 78.4707 435.788 67.94 441.502 58.0854C447.231 48.2056 453.328 38.9914 459.628 33.9282L459.63 33.929Z" stroke="#08A03F" stroke-width="0.529455"/>
<path d="M360.68 104.83C365.286 103.811 388.05 100.346 411.48 97.2099L416.17 96.5882L416.175 96.5875C417.097 96.4505 417.958 96.8356 418.476 97.5982C418.99 98.3551 418.992 99.2505 418.565 100.028C413.794 107.65 408.455 118.139 402.764 127.931C397.232 137.447 391.361 146.32 385.3 151.432L384.713 151.915C380.033 155.648 374.76 156.784 368.845 155.189L368.843 155.189C362.985 153.646 357.976 150.846 352.466 144.26L352.466 144.259C346.765 137.469 343.655 130.962 342.955 124.759C342.268 118.644 344.254 113.707 348.86 110.063L348.863 110.06C351.759 107.723 355.72 105.995 360.681 104.831L360.68 104.83Z" stroke="#08A03F" stroke-width="0.529455"/>
<path d="M360.68 104.83C365.286 103.811 388.05 100.346 411.48 97.2099L416.17 96.5882L416.175 96.5875C417.097 96.4505 417.958 96.8356 418.476 97.5982C418.99 98.3551 418.992 99.2505 418.565 100.028C413.794 107.65 408.455 118.139 402.764 127.931C397.232 137.447 391.361 146.32 385.3 151.432L384.713 151.915C380.033 155.648 374.76 156.784 368.845 155.189L368.843 155.189C362.985 153.646 357.976 150.846 352.466 144.26L352.466 144.259C346.765 137.469 343.655 130.962 342.955 124.759C342.268 118.644 344.254 113.707 348.86 110.063L348.863 110.06C351.759 107.723 355.72 105.995 360.681 104.831L360.68 104.83Z" stroke="#08A03F" stroke-width="0.529455"/>
<path d="M353.048 48.8455C358.081 45.7019 363.284 45.1846 368.661 47.1658L369.183 47.3658C376.642 50.349 385.084 57.2958 393.37 65.004C401.633 72.6906 409.755 81.1504 416.5 87.0604L416.51 87.0688L416.521 87.077C416.534 87.0863 416.523 87.0789 416.569 87.1281C416.584 87.1438 416.614 87.1704 416.655 87.1953C416.681 87.242 416.714 87.303 416.753 87.3782C416.833 87.5314 416.933 87.7429 417.019 87.9953C417.19 88.5003 417.3 89.1523 417.099 89.8275C416.815 90.548 416.099 91.0514 415.223 91.2506C390.418 95.3652 364.902 99.0842 359.885 99.4724L359.886 99.4723C355.119 99.7794 351.048 99.3578 347.714 98.1547L347.058 97.9037C341.751 95.7558 338.521 91.787 337.239 86.0459L337.121 85.484C336.024 79.5375 337.007 72.6613 340.234 64.8258L340.553 64.0645C343.911 56.1606 347.89 52.0251 353.046 48.8458L353.048 48.8455Z" stroke="#08A03F" stroke-width="0.529455"/>
<path d="M353.048 48.8455C358.081 45.7019 363.284 45.1846 368.661 47.1658L369.183 47.3658C376.642 50.349 385.084 57.2958 393.37 65.004C401.633 72.6906 409.755 81.1504 416.5 87.0604L416.51 87.0688L416.521 87.077C416.534 87.0863 416.523 87.0789 416.569 87.1281C416.584 87.1438 416.614 87.1704 416.655 87.1953C416.681 87.242 416.714 87.303 416.753 87.3782C416.833 87.5314 416.933 87.7429 417.019 87.9953C417.19 88.5003 417.3 89.1523 417.099 89.8275C416.815 90.548 416.099 91.0514 415.223 91.2506C390.418 95.3652 364.902 99.0842 359.885 99.4724L359.886 99.4723C355.119 99.7794 351.048 99.3578 347.714 98.1547L347.058 97.9037C341.751 95.7558 338.521 91.787 337.239 86.0459L337.121 85.484C336.024 79.5375 337.007 72.6613 340.234 64.8258L340.553 64.0645C343.911 56.1606 347.89 52.0251 353.046 48.8458L353.048 48.8455Z" stroke="#08A03F" stroke-width="0.529455"/>
<path opacity="0.5" d="M37.5713 326.09C78.478 337.357 175.44 347.234 236.034 296.607C311.776 233.323 267.5 160.043 342.791 127.433" stroke="#08A03F" stroke-width="0.550454"/>
<path opacity="0.5" d="M274.194 247.308C268.536 250.741 256.909 255.589 255.669 247.517C254.428 239.446 267.502 244.014 274.194 247.308Z" stroke="#08A03F" stroke-width="0.550454"/>
<path opacity="0.5" d="M289.292 202.037C300.889 208.691 320.961 224.369 308.481 233.839C296.001 243.31 290.488 216.583 289.292 202.037Z" stroke="#08A03F" stroke-width="0.550454"/>
<path opacity="0.5" d="M308.434 153.628C296.372 147.86 272.07 140.238 271.36 155.889C270.65 171.539 295.78 160.903 308.434 153.628Z" stroke="#08A03F" stroke-width="0.550454"/>
</svg>
