<svg preserveAspectRatio="none" width="100%" height="100%" overflow="visible" style="display: block;" viewBox="0 0 61.0861 52.8839" fill="none" xmlns="http://www.w3.org/2000/svg">
<g id="Frame 415">
<path id="Vector" d="M30.5358 0C22.1892 0 15.4089 6.78919 15.4089 15.1353C15.4089 23.4818 22.1892 30.2621 30.5358 30.2621C38.8823 30.2621 45.6772 23.4819 45.6772 15.1353C45.6802 6.78873 38.882 0 30.5358 0ZM36.2571 23.7262L30.5447 20.7253L24.8413 23.7262L25.9331 17.3725L21.3124 12.8742L27.696 11.9435L30.5447 6.15659L33.3994 11.9435L39.783 12.8742L35.1624 17.3725L36.2571 23.7262Z" fill="var(--fill-0, #F7F6F6)"/>
<path id="Vector_2" d="M57.9099 34.2353C56.4512 33.7222 54.8702 33.8236 53.4802 34.5037L43.0932 39.5807C43.1469 40.2668 43.1081 40.9469 42.9798 41.6031C42.8874 42.1072 42.5205 42.5428 42.0164 42.7247C41.7181 42.8172 41.4675 42.8232 41.2289 42.7784L24.1189 39.6433C23.6386 39.5509 23.3164 39.0855 23.4089 38.5963C23.5014 38.116 23.9578 37.7939 24.447 37.8864L41.286 40.9797C41.3695 40.407 41.3635 39.8194 41.2561 39.2227C41.2561 39.2078 41.2472 39.1989 41.2472 39.1839C41.2382 39.1303 41.2233 39.0616 41.2084 39.002L41.1786 38.8648C40.7967 37.2927 39.4514 36.0847 37.766 35.7804L13.1235 31.2821C11.5186 31.1747 9.88696 31.5028 8.41933 32.2217L6.87716 32.9705L14.0482 48.1897L16.5688 46.9667C17.7053 46.4178 18.9671 46.212 20.1871 46.3701L36.3693 48.3568C37.0644 48.4403 37.7653 48.327 38.4008 48.0137L61.0861 36.9082C60.4 35.6494 59.285 34.7096 57.9099 34.2353ZM12.879 49.899L12.8193 49.7767C12.8193 49.7677 12.8193 49.7677 12.8104 49.7618V49.7468L4.77694 32.7086C4.54129 32.2194 4.05805 31.9301 3.54795 31.9301C3.35704 31.9301 3.15718 31.9688 2.97522 32.0613L0.776787 33.0994C0.454624 33.2515 0.204059 33.526 0.0817553 33.872C-0.0405487 34.215 -0.0256267 34.576 0.1265 34.9101L8.22257 52.1072C8.3747 52.4293 8.64913 52.6799 8.99514 52.8022C9.33818 52.9245 9.70509 52.9096 10.0332 52.7574L12.2317 51.7194C12.5538 51.5672 12.8044 51.2928 12.9267 50.9468C13.046 50.6008 13.0311 50.2368 12.879 49.8998L12.879 49.899ZM10.5732 51.1578C10.4509 51.2115 10.3226 51.2413 10.1914 51.2413C9.86326 51.2413 9.53514 51.0593 9.383 50.7282L7.86169 47.5096C7.64691 47.0682 7.84677 46.5402 8.28824 46.3254C8.72375 46.1106 9.25768 46.3105 9.47249 46.752L10.9849 49.9676C11.1996 50.409 11.0147 50.9459 10.5732 51.1578Z" fill="var(--fill-0, #F7F6F6)"/>
</g>
</svg>
