<svg preserveAspectRatio="none" width="100%" height="100%" overflow="visible" style="display: block;" viewBox="0 0 100 100" fill="none" xmlns="http://www.w3.org/2000/svg">
<g id="Frame 421">
<circle id="Ellipse 40" cx="50" cy="50" r="50" fill="var(--fill-0, #F8FBF7)"/>
<circle id="Ellipse 41" cx="49.9986" cy="49.9986" r="41.358" fill="var(--fill-0, #00AD4D)"/>
<g id="Mask group">
<mask id="mask0_2989_3" style="mask-type:alpha" maskUnits="userSpaceOnUse" x="8" y="8" width="84" height="84">
<circle id="Ellipse 42" cx="49.9986" cy="49.9986" r="41.358" fill="var(--fill-0, #00AD4D)"/>
</mask>
<g mask="url(#mask0_2989_3)">
<path id="Vector" fill-rule="evenodd" clip-rule="evenodd" d="M70.0282 45.3522L79.059 41.571C79.3348 41.4567 79.6246 41.4261 79.9005 41.4679L79.176 39.6065L63.1931 35.7807C63.129 35.7668 63.0844 35.7138 63.0789 35.6497C63.0733 35.5856 63.1039 35.5243 63.1625 35.4965L75.3034 29.6449L75.2894 29.6115C75.2003 29.3774 75.3145 29.1155 75.5486 29.0264C75.7826 28.9372 76.0446 29.0514 76.1337 29.2855L89.0015 62.3805C89.0907 62.6146 88.9764 62.8765 88.7424 62.9657C88.5083 63.0549 88.2464 62.9406 88.1572 62.7066L80.9262 44.1128C80.7729 44.3023 80.5751 44.4528 80.3355 44.5559L70.622 48.7913L71.6251 56.5987L76.5432 58.1145C77.0392 58.2678 77.3679 58.6913 77.3958 59.2096L77.7971 67.042C77.8221 67.5352 77.6605 67.9672 77.3206 68.321C76.9806 68.6749 76.5543 68.8532 76.0611 68.8477L75.9218 68.8449C75.0079 68.8337 74.2639 68.1149 74.2249 67.2009L73.9936 61.8731C73.9797 61.5889 73.779 61.3521 73.4976 61.3047L68.0417 60.3936L61.1369 77.082C60.8276 77.8287 60.1171 78.2774 59.3118 78.2356L59.192 78.23C58.5817 78.1993 58.0662 77.9095 57.7263 77.3996C57.3863 76.8897 57.3139 76.3045 57.5201 75.7277L63.6224 58.6384L62.5887 50.5271L54.625 56.1446C54.2906 56.3814 53.9145 56.4567 53.5132 56.3703C53.1148 56.2839 52.8027 56.0554 52.5964 55.7015L52.4432 55.4368C52.081 54.8127 52.2481 54.0241 52.8305 53.5978L62.6417 46.4145L63.812 46.2641C64.3943 46.8269 65.1439 47.217 66.0189 47.3368C67.6936 47.5626 69.2062 46.7036 70.0282 45.3522ZM90.8375 95.8704V64.2862C90.8375 63.8905 90.6397 63.5534 90.2942 63.3611C89.9486 63.1688 89.5557 63.1772 89.2214 63.3861L80.5579 68.7584C80.4186 68.8448 80.2905 68.8977 80.1316 68.9395L71.7892 71.0572C71.5607 71.1158 71.3768 71.2077 71.1957 71.361L63.2178 77.9844C63.0422 78.1321 62.8639 78.224 62.641 78.2825L54.5967 80.4309C54.3181 80.5061 54.098 80.6343 53.9001 80.8405L49.4279 85.4744C49.2301 85.6806 49.0099 85.8088 48.7341 85.884L40.9737 87.9766C40.7341 88.0407 40.5418 88.1466 40.3551 88.3138L34.8157 93.3015C34.6346 93.4632 34.4507 93.5663 34.2166 93.6331L29.4295 94.9957C29.2149 95.057 29.0784 95.266 29.1091 95.4862C29.1369 95.7091 29.3264 95.8707 29.5493 95.8707L90.8375 95.8704ZM41.818 59.1759C41.1019 60.8394 39.4161 61.9707 37.5186 61.7143C36.9111 61.6307 36.3622 61.4162 35.8857 61.1041L34.3699 61.5889L24.6421 68.7111C24.0068 69.1765 23.8145 70.0292 24.1935 70.7202L24.2465 70.8177C24.4694 71.2273 24.8205 71.492 25.2747 71.5951C25.7289 71.6981 26.158 71.609 26.5369 71.3359L34.3194 65.7073L35.3531 72.9327L29.1059 90.415C28.9331 90.8971 28.9944 91.3847 29.2787 91.8082C29.5629 92.2318 29.9892 92.4742 30.4991 92.502L31.2598 92.5411C31.9313 92.5745 32.5248 92.2011 32.7812 91.5797L39.817 74.6045L44.3171 76.5467C44.5623 76.6526 44.7044 76.895 44.6794 77.1597L44.0803 83.5379C44.0385 83.9893 44.1722 84.3934 44.4732 84.7278C44.7769 85.0649 45.1642 85.2405 45.6156 85.246L46.1116 85.2516C46.9113 85.26 47.5857 84.672 47.6804 83.8751L48.7866 74.6881C48.8479 74.1838 48.6055 73.7184 48.1597 73.4788L43.3502 70.8902L42.1242 62.6983L51.8683 58.8725C52.6011 58.5492 52.969 57.7328 52.7265 56.9693L52.707 56.9024C52.5705 56.4705 52.2862 56.1473 51.8738 55.9578C51.4614 55.7656 51.0406 55.7767 50.6144 55.9355L41.818 59.1759ZM38.5914 53.8175C40.4945 54.0767 41.8153 55.9185 41.5394 57.9359C41.2663 59.9505 39.5025 61.3744 37.5994 61.118C35.6962 60.8588 34.3755 59.017 34.6513 56.9996C34.9244 54.9823 36.691 53.5584 38.5914 53.8175ZM67.0911 39.4368C65.1879 39.1776 63.4242 40.6015 63.1511 42.6189C62.878 44.6334 64.196 46.4781 66.0992 46.7372C68.0023 46.9963 69.7661 45.5725 70.0392 43.5551C70.3122 41.5377 68.9943 39.6931 67.0911 39.4368Z" fill="var(--fill-0, #F7F6F6)"/>
</g>
</g>
</g>
</svg>
