<svg preserveAspectRatio="none" width="100%" height="100%" overflow="visible" style="display: block;" viewBox="0 0 100 100" fill="none" xmlns="http://www.w3.org/2000/svg">
<g id="Frame 422">
<circle id="Ellipse 40" cx="50" cy="50" r="50" fill="var(--fill-0, #F8FBF7)"/>
<circle id="Ellipse 41" cx="49.9986" cy="49.9986" r="41.358" fill="var(--fill-0, #00AD4D)"/>
<path id="Vector" fill-rule="evenodd" clip-rule="evenodd" d="M58.2625 66.9991H40.7362C40.4036 66.9991 40.0846 67.1313 39.8494 67.3665C39.6142 67.6017 39.4821 67.9207 39.4821 68.2533C39.4821 68.5859 39.6142 68.9049 39.8494 69.1401C40.0846 69.3753 40.4036 69.5075 40.7362 69.5075H58.2625C58.5951 69.5075 58.9141 69.3753 59.1493 69.1401C59.3845 68.9049 59.5167 68.5859 59.5167 68.2533C59.5167 67.9207 59.3845 67.6017 59.1493 67.3665C58.9141 67.1313 58.5951 66.9991 58.2625 66.9991ZM57.2556 70.8347H41.7406C41.9463 72.7488 42.8524 74.5193 44.2845 75.8058C45.7167 77.0923 47.5739 77.804 49.4991 77.804C51.4242 77.804 53.2814 77.0923 54.7136 75.8058C56.1458 74.5193 57.0518 72.7488 57.2575 70.8347H57.2556ZM47.3129 54.8306C47.3129 55.3367 47.4884 55.8271 47.8095 56.2183C48.1306 56.6095 48.5773 56.8772 49.0737 56.9759C49.57 57.0746 50.0852 56.9982 50.5315 56.7596C50.9778 56.521 51.3276 56.1351 51.5212 55.6675C51.7149 55.1999 51.7404 54.6797 51.5935 54.1955C51.4466 53.7112 51.1363 53.2928 50.7155 53.0117C50.2947 52.7306 49.7894 52.604 49.2858 52.6537C48.7822 52.7033 48.3114 52.926 47.9535 53.2838C47.7501 53.4868 47.5888 53.7279 47.4789 53.9933C47.3689 54.2588 47.3125 54.5433 47.3129 54.8306ZM48.8352 24.6639C48.8352 24.4878 48.9051 24.319 49.0296 24.1945C49.1541 24.0699 49.323 24 49.4991 24C49.6751 24 49.844 24.0699 49.9685 24.1945C50.093 24.319 50.163 24.4878 50.163 24.6639V27.5907C50.163 27.7668 50.093 27.9357 49.9685 28.0602C49.844 28.1847 49.6751 28.2546 49.4991 28.2546C49.323 28.2546 49.1541 28.1847 49.0296 28.0602C48.9051 27.9357 48.8352 27.7668 48.8352 27.5907V24.6639ZM37.019 28.1879C36.9755 28.1127 36.9471 28.0296 36.9356 27.9434C36.9241 27.8572 36.9298 27.7696 36.9521 27.6855C36.9745 27.6015 37.0132 27.5227 37.0661 27.4536C37.1189 27.3846 37.1848 27.3266 37.2601 27.283C37.3353 27.2394 37.4184 27.2111 37.5046 27.1996C37.5908 27.1881 37.6784 27.1937 37.7624 27.2161C37.8465 27.2385 37.9253 27.2772 37.9943 27.33C38.0634 27.3828 38.1214 27.4488 38.165 27.524L39.6281 30.0588C39.6716 30.134 39.6999 30.2171 39.7114 30.3033C39.7228 30.3895 39.7172 30.4771 39.6947 30.5611C39.6723 30.6451 39.6336 30.7238 39.5808 30.7928C39.5279 30.8619 39.462 30.9198 39.3867 30.9634C39.3115 31.0069 39.2284 31.0352 39.1422 31.0467C39.056 31.0581 38.9685 31.0525 38.8845 31.0301C38.8005 31.0076 38.7217 30.9689 38.6527 30.9161C38.5836 30.8632 38.5257 30.7973 38.4821 30.722L37.019 28.186V28.1879ZM28.5438 37.1439C28.3919 37.0559 28.2811 36.9111 28.2359 36.7414C28.2135 36.6573 28.2079 36.5697 28.2194 36.4835C28.2309 36.3973 28.2592 36.3142 28.3028 36.239C28.3464 36.1638 28.4044 36.0978 28.4734 36.045C28.5425 35.9922 28.6213 35.9535 28.7053 35.9311C28.875 35.8859 29.0558 35.9099 29.2077 35.998L31.7425 37.4617C31.8944 37.5497 32.0052 37.6945 32.0504 37.8642C32.0956 38.0339 32.0715 38.2147 31.9835 38.3666C31.8955 38.5186 31.7507 38.6293 31.581 38.6745C31.4112 38.7197 31.2305 38.6957 31.0786 38.6076L28.5438 37.1439ZM25.6843 49.1419C25.5955 49.1446 25.507 49.1295 25.4241 49.0974C25.3412 49.0652 25.2656 49.0168 25.2017 48.9549C25.1379 48.893 25.0872 48.819 25.0525 48.7371C25.0179 48.6552 25 48.5672 25 48.4783C25 48.3894 25.0179 48.3014 25.0525 48.2195C25.0872 48.1377 25.1379 48.0636 25.2017 48.0017C25.2656 47.9398 25.3412 47.8914 25.4241 47.8592C25.507 47.8271 25.5955 47.812 25.6843 47.8147H28.6111C28.7 47.812 28.7885 47.8271 28.8714 47.8592C28.9543 47.8914 29.0299 47.9398 29.0937 48.0017C29.1576 48.0636 29.2083 48.1377 29.243 48.2195C29.2776 48.3014 29.2955 48.3894 29.2955 48.4783C29.2955 48.5672 29.2776 48.6552 29.243 48.7371C29.2083 48.819 29.1576 48.893 29.0937 48.9549C29.0299 49.0168 28.9543 49.0652 28.8714 49.0974C28.7885 49.1295 28.7 49.1446 28.6111 49.1419H25.6843ZM29.2039 60.9586C29.052 61.0462 28.8715 61.0698 28.7021 61.0242C28.5328 60.9786 28.3884 60.8677 28.3009 60.7157C28.2134 60.5638 28.1898 60.3833 28.2353 60.2139C28.2809 60.0446 28.3919 59.9002 28.5438 59.8127L31.0786 58.3496C31.1538 58.3063 31.2368 58.2783 31.3229 58.2672C31.409 58.256 31.4964 58.2619 31.5802 58.2845C31.664 58.3071 31.7425 58.346 31.8113 58.3989C31.8801 58.4519 31.9377 58.5179 31.981 58.5931C32.0242 58.6684 32.0523 58.7514 32.0634 58.8375C32.0746 58.9236 32.0687 59.011 32.0461 59.0948C32.0235 59.1786 31.9846 59.2571 31.9316 59.3259C31.8787 59.3946 31.8127 59.4523 31.7374 59.4955L29.202 60.9586H29.2039ZM60.8338 27.524C60.8773 27.4488 60.9353 27.3828 61.0043 27.33C61.0733 27.2771 61.1521 27.2384 61.2361 27.216C61.3201 27.1936 61.4077 27.1879 61.4939 27.1994C61.58 27.2108 61.6631 27.2391 61.7384 27.2827C61.8136 27.3262 61.8795 27.3842 61.9324 27.4532C61.9852 27.5222 62.024 27.601 62.0464 27.685C62.0688 27.769 62.0744 27.8566 62.063 27.9428C62.0516 28.0289 62.0232 28.112 61.9797 28.1873L60.516 30.7208C60.4724 30.796 60.4145 30.862 60.3454 30.9148C60.2764 30.9676 60.1977 31.0064 60.1137 31.0288C60.0297 31.0512 59.9421 31.0568 59.8559 31.0454C59.7697 31.034 59.6866 31.0057 59.6114 30.9621C59.5361 30.9186 59.4702 30.8606 59.4174 30.7916C59.3645 30.7226 59.3258 30.6438 59.3034 30.5598C59.281 30.4758 59.2753 30.3882 59.2867 30.302C59.2982 30.2158 59.3265 30.1328 59.37 30.0575L60.8338 27.524ZM69.7917 35.998C69.867 35.9523 69.9507 35.9221 70.0378 35.9091C70.125 35.8962 70.2139 35.9008 70.2992 35.9226C70.3846 35.9445 70.4647 35.9831 70.5349 36.0364C70.6052 36.0896 70.664 36.1563 70.7082 36.2326C70.7523 36.3088 70.7807 36.3932 70.7918 36.4806C70.8029 36.568 70.7964 36.6567 70.7728 36.7416C70.7491 36.8265 70.7088 36.9058 70.6541 36.9749C70.5994 37.0439 70.5315 37.1014 70.4543 37.1439L67.9189 38.6076C67.8437 38.6512 67.7606 38.6795 67.6744 38.6909C67.5882 38.7024 67.5006 38.6967 67.4166 38.6743C67.3326 38.6519 67.2539 38.6132 67.1848 38.5603C67.1158 38.5075 67.0579 38.4415 67.0143 38.3663C66.9708 38.2911 66.9425 38.208 66.931 38.1218C66.9196 38.0356 66.9252 37.948 66.9476 37.864C66.97 37.78 67.0088 37.7013 67.0616 37.6322C67.1145 37.5632 67.1804 37.5052 67.2556 37.4617L69.7904 35.998H69.7917ZM73.3157 47.8147C73.4045 47.812 73.493 47.8271 73.5759 47.8592C73.6588 47.8914 73.7344 47.9398 73.7983 48.0017C73.8621 48.0636 73.9128 48.1377 73.9475 48.2195C73.9821 48.3014 74 48.3894 74 48.4783C74 48.5672 73.9821 48.6552 73.9475 48.7371C73.9128 48.819 73.8621 48.893 73.7983 48.9549C73.7344 49.0168 73.6588 49.0652 73.5759 49.0974C73.493 49.1295 73.4045 49.1446 73.3157 49.1419H70.387C70.2981 49.1446 70.2096 49.1295 70.1267 49.0974C70.0438 49.0652 69.9682 49.0168 69.9044 48.9549C69.8405 48.893 69.7898 48.819 69.7551 48.7371C69.7205 48.6552 69.7026 48.5672 69.7026 48.4783C69.7026 48.3894 69.7205 48.3014 69.7551 48.2195C69.7898 48.1377 69.8405 48.0636 69.9044 48.0017C69.9682 47.9398 70.0438 47.8914 70.1267 47.8592C70.2096 47.8271 70.2981 47.812 70.387 47.8147H73.3157ZM70.4543 59.8127C70.6063 59.9 70.7173 60.0441 70.763 60.2132C70.8088 60.3824 70.7854 60.5628 70.6981 60.7148C70.6109 60.8667 70.4668 60.9778 70.2976 61.0235C70.1284 61.0693 69.948 61.0459 69.7961 60.9586L67.2613 59.4955C67.1093 59.4082 66.9983 59.2642 66.9525 59.095C66.9068 58.9258 66.9302 58.7454 67.0174 58.5935C67.1047 58.4415 67.2488 58.3304 67.418 58.2847C67.5872 58.239 67.7676 58.2623 67.9195 58.3496L70.4543 59.8127ZM51.9841 39.5434C51.3249 38.8841 50.4307 38.5138 49.4984 38.5138C48.5661 38.5138 47.672 38.8841 47.0127 39.5434C46.3535 40.2026 45.9831 41.0967 45.9831 42.0291C45.9831 42.9614 46.3535 43.8555 47.0127 44.5147C47.0895 44.5915 47.1699 44.6647 47.2538 44.7344L45.612 47.7184H32.8664C33.0114 43.3953 34.834 39.2985 37.9479 36.2961C41.0618 33.2938 45.2224 31.6218 49.5479 31.6345C53.8735 31.6471 58.0242 33.3435 61.1204 36.3641C64.2167 39.3846 66.0152 43.4921 66.1349 47.816H52.9941C52.8761 47.816 52.7603 47.8476 52.6586 47.9075C52.5569 47.9673 52.4731 48.0533 52.4158 48.1564L50.5594 51.4784C49.7395 51.2187 48.8529 51.2683 48.0671 51.618C47.2814 51.9677 46.651 52.5932 46.2952 53.3762C45.9393 54.1592 45.8828 55.0454 46.1361 55.8673C46.3895 56.6892 46.9352 57.3898 47.6701 57.8365C48.405 58.2833 49.2781 58.4453 50.1244 58.292C50.9706 58.1386 51.7314 57.6804 52.2627 57.0041C52.7941 56.3278 53.0592 55.4803 53.008 54.6218C52.9567 53.7633 52.5927 52.9533 51.9847 52.345C51.9008 52.261 51.8136 52.1822 51.723 52.1083L53.3811 49.1413H66.1198C65.905 53.4312 64.0323 57.4699 60.8967 60.4055C60.0576 61.1869 59.3381 62.0876 58.7615 63.0787C58.2919 63.8916 57.9309 64.7626 57.688 65.6695H41.3101C41.0674 64.7627 40.7067 63.8916 40.2372 63.0787C39.6604 62.0874 38.9408 61.1864 38.1014 60.4049C34.9417 57.4469 33.0653 53.3696 32.8739 49.0456H46.004C46.1227 49.0457 46.2393 49.0138 46.3415 48.9534C46.4437 48.8929 46.5277 48.8061 46.5848 48.702L48.4154 45.375C49.1667 45.6189 49.9782 45.6028 50.7191 45.3291C51.46 45.0554 52.0872 44.5402 52.4995 43.8665C52.9118 43.1928 53.0851 42.3998 52.9916 41.6155C52.8981 40.8312 52.5432 40.1013 51.9841 39.5434ZM51.6865 42.0284C51.6874 41.5222 51.5128 41.0313 51.1923 40.6394C50.8718 40.2475 50.4253 39.9789 49.9289 39.8794C49.4326 39.7799 48.917 39.8557 48.4703 40.0938C48.0235 40.3319 47.6732 40.7176 47.479 41.1851C47.2848 41.6526 47.2588 42.1731 47.4054 42.6576C47.552 43.1422 47.8622 43.5609 48.283 43.8423C48.7038 44.1238 49.2092 44.2506 49.713 44.2011C50.2168 44.1515 50.6879 43.9288 51.0458 43.5708C51.2493 43.3679 51.4106 43.1268 51.5205 42.8614C51.6305 42.5959 51.6869 42.3113 51.6865 42.024V42.0284ZM50.163 79.1312C49.7358 79.2968 49.2623 79.2968 48.8352 79.1312V79.9731C48.8352 80.1492 48.9051 80.3181 49.0296 80.4426C49.1541 80.5671 49.323 80.637 49.4991 80.637C49.6751 80.637 49.844 80.5671 49.9685 80.4426C50.093 80.3181 50.163 80.1492 50.163 79.9731V79.1312Z" fill="var(--fill-0, #F7F6F6)"/>
</g>
</svg>
