<svg preserveAspectRatio="none" width="100%" height="100%" overflow="visible" style="display: block;" viewBox="0 0 100 100" fill="none" xmlns="http://www.w3.org/2000/svg">
<g id="Icon">
<circle id="Ellipse 40" cx="50" cy="50" r="50" fill="var(--fill-0, #F8FBF7)"/>
<circle id="Ellipse 41" cx="49.9986" cy="49.9986" r="41.358" fill="var(--fill-0, #00AD4D)"/>
<path id="Vector" fill-rule="evenodd" clip-rule="evenodd" d="M29.9671 63.4377C29.3961 62.8667 28.8337 62.267 28.2828 61.6386C28.0504 61.3718 27.9528 61.0131 28.0217 60.666L30.8823 45.915C31.4045 43.2178 33.766 41.2667 36.5148 41.2667H40.8273C42.5202 42.9252 44.6549 44.0815 47.0135 44.5176C46.4368 44.5865 45.8601 44.6783 45.2862 44.796C44.3823 44.9796 43.6765 45.6912 43.4957 46.5979L42.9534 49.3323C42.3509 49.582 41.7627 49.8632 41.1917 50.1816L38.7155 48.9019C37.8949 48.4772 36.8992 48.5834 36.1906 49.1773C34.0472 50.9649 32.2883 53.1714 31.0201 55.6591C30.6011 56.4797 30.7159 57.4753 31.3127 58.1812L33.1146 60.313C32.9339 60.9385 32.7875 61.5755 32.6785 62.2183L30.1305 63.3545C30.076 63.3803 30.0216 63.409 29.9671 63.4377ZM51.4582 44.4748C53.7278 44.0071 55.7851 42.8737 57.4234 41.2669H61.8364C64.5163 41.2669 66.8347 43.1205 67.4315 45.7287L70.8374 60.6288C70.9177 60.9932 70.8202 61.3748 70.5705 61.6502C70.0139 62.27 69.4458 62.8582 68.869 63.4235C68.8231 63.3977 68.7772 63.3747 68.7313 63.3546L66.1863 62.2184C66.0773 61.5756 65.9338 60.9387 65.7502 60.3103C65.753 60.3131 67.552 58.1813 67.552 58.1813C68.1489 57.4754 68.2636 56.4798 67.8418 55.6592C66.5765 53.1715 64.8176 50.965 62.6742 49.1774C61.9655 48.5835 60.9699 48.4773 60.1492 48.902L57.6702 50.1817C57.1021 49.8661 56.5139 49.582 55.9113 49.3324L55.369 46.598C55.1883 45.6913 54.4824 44.9797 53.5786 44.7961C52.8756 44.6526 52.1697 44.5466 51.4582 44.4748ZM49.1283 20C55.217 20 60.1978 25.2594 60.1978 31.7813C60.1978 38.306 55.2167 43.5655 49.1283 43.5655C43.0368 43.5655 38.0529 38.306 38.0529 31.7813C38.0529 25.2594 43.0369 20 49.1283 20ZM54.2414 46.8224L54.907 50.1737C55.8568 50.5238 56.775 50.9656 57.6415 51.4908L60.6772 49.9213C61.0875 49.709 61.5839 49.7635 61.9397 50.059C63.9626 51.749 65.6239 53.8292 66.8204 56.1792C67.0298 56.5924 66.9724 57.0888 66.674 57.4417L64.4675 60.0528C64.7889 61.014 65.0127 62.0038 65.1447 63.011L68.2636 64.4054C68.6854 64.5919 68.9523 65.0166 68.9436 65.4785C68.8863 68.1154 68.2923 70.7092 67.202 73.1111C67.0097 73.5329 66.5851 73.7969 66.1231 73.7825L62.7058 73.685C62.1549 74.5342 61.5208 75.3291 60.815 76.0579L61.6729 79.3662C61.7877 79.8138 61.6241 80.2872 61.254 80.5684C59.1565 82.1637 56.7578 83.32 54.2012 83.9656C53.7536 84.0775 53.2802 83.9111 53.0019 83.541L50.9503 80.8094C49.9403 80.9069 48.9246 80.9069 47.9146 80.8094L45.8602 83.541C45.5847 83.9111 45.1113 84.0775 44.6637 83.9656C42.1071 83.32 39.7084 82.1637 37.6109 80.5684C37.2437 80.2872 37.0801 79.8138 37.1949 79.3662L38.05 76.0579C37.3441 75.3291 36.71 74.5343 36.1563 73.685L32.7418 73.7825C32.2799 73.7969 31.8552 73.5329 31.6629 73.1111C30.5726 70.7095 29.9815 68.1156 29.9213 65.4785C29.9127 65.0165 30.1766 64.5919 30.6013 64.4054L33.7202 63.011C33.8493 62.0038 34.0789 61.0139 34.3974 60.0528L32.1909 57.4417C31.8896 57.0888 31.8351 56.5924 32.0446 56.1792C33.2411 53.8292 34.9024 51.749 36.9252 50.059C37.281 49.7635 37.7774 49.709 38.1877 49.9213L41.2234 51.4908C42.09 50.9657 43.0053 50.5238 43.955 50.1737L44.6236 46.8224C44.7125 46.3691 45.0654 46.0132 45.5188 45.9214C48.1012 45.3935 50.7639 45.3935 53.349 45.9214C53.7995 46.0132 54.1525 46.369 54.2414 46.8224ZM49.4324 53.8723C43.4241 53.8723 38.5465 58.7529 38.5465 64.7611C38.5465 70.7723 43.4243 75.6499 49.4324 75.6499C55.4405 75.6499 60.3212 70.7721 60.3212 64.7611C60.3212 58.7528 55.4406 53.8723 49.4324 53.8723ZM42.8359 65.5243C42.417 65.0508 42.4571 64.3249 42.9306 63.9031C43.4069 63.4814 44.1299 63.5244 44.5517 63.9978L47.5186 67.3377L54.3131 59.6941C54.732 59.2207 55.4608 59.1776 55.9313 59.5994C56.4076 60.0212 56.4507 60.7471 56.0289 61.2205L48.3794 69.8286C48.1585 70.0725 47.8486 70.2131 47.5186 70.2131C47.1915 70.2131 46.8787 70.0725 46.6606 69.8286L42.8359 65.5243Z" fill="var(--fill-0, white)"/>
</g>
</svg>
