<svg width="100" height="100" viewBox="0 0 100 100" fill="none" xmlns="http://www.w3.org/2000/svg">
<circle cx="50" cy="50" r="50" fill="#F8FBF7"/>
<circle cx="49.9986" cy="49.9986" r="41.358" fill="#00AD4D"/>
<mask id="mask0_2852_475" style="mask-type:alpha" maskUnits="userSpaceOnUse" x="8" y="8" width="84" height="84">
<circle cx="49.9986" cy="49.9986" r="41.358" fill="#F7F6F6"/>
</mask>
<g mask="url(#mask0_2852_475)">
<path d="M67.4983 37.6562H63.6726V33.8305L69.007 28.4961V32.3218H72.8327L67.4983 37.6562ZM64.7395 65.395C64.7395 66.661 65.1149 67.8986 65.8183 68.9513C66.5216 70.004 67.5214 70.8245 68.6911 71.309C69.8607 71.7935 71.1478 71.9202 72.3895 71.6732C73.6313 71.4262 74.7718 70.8166 75.6671 69.9214C76.5623 69.0261 77.172 67.8855 77.419 66.6438C77.666 65.4021 77.5392 64.115 77.0547 62.9453C76.5702 61.7757 75.7497 60.7759 74.697 60.0725C73.6444 59.3692 72.4068 58.9937 71.1407 58.9937C69.4436 58.9956 67.8165 59.6706 66.6164 60.8707C65.4163 62.0707 64.7413 63.6978 64.7395 65.395ZM77.542 73.93H64.7395C62.7588 73.93 60.8592 74.7168 59.4587 76.1174C58.0581 77.5179 57.2713 79.4174 57.2713 81.3981V89.9331C57.2713 90.2161 57.3837 90.4874 57.5838 90.6875C57.7839 90.8876 58.0552 91 58.3382 91H83.9432C84.2262 91 84.4975 90.8876 84.6976 90.6875C84.8977 90.4874 85.0101 90.2161 85.0101 89.9331V81.3981C85.0101 79.4174 84.2233 77.5179 82.8227 76.1174C81.4222 74.7168 79.5226 73.93 77.542 73.93ZM47.6694 35.5225C44.5319 35.52 41.4473 36.3316 38.7172 37.8778C35.987 39.424 33.7047 41.6521 32.0932 44.3442C30.4818 47.0364 29.5963 50.1005 29.5232 53.2373C29.4502 56.374 30.1922 59.4761 31.6767 62.2403C33.1611 65.0045 35.3373 67.3363 37.9925 69.0079C40.6477 70.6795 43.6912 71.6337 46.8255 71.7772C49.9598 71.9208 53.0778 71.2488 55.8747 69.8268C58.6716 68.4049 61.0517 66.2817 62.7826 63.6648C63.0826 62.23 63.7482 60.897 64.7151 59.7953C65.834 56.7343 66.0986 53.4264 65.4805 50.2264C64.8624 47.0264 63.385 44.055 61.2066 41.6308L58.1904 44.647C60.5313 47.3779 61.7235 50.9093 61.5167 54.5003C61.3099 58.0912 59.7202 61.4624 57.0812 63.9064C54.4422 66.3505 50.9591 67.6773 47.3629 67.6084C43.7666 67.5395 40.3369 66.0803 37.7934 63.5371C35.2499 60.9938 33.7904 57.5642 33.7212 53.968C33.6521 50.3717 34.9786 46.8885 37.4224 44.2493C39.8662 41.6101 43.2373 40.0201 46.8282 39.813C50.4191 39.6059 53.9507 40.7978 56.6817 43.1385L59.698 40.1222C56.3908 37.1615 52.1083 35.5239 47.6694 35.5225ZM50.6065 49.2137C49.5006 48.4817 48.1622 48.1866 46.851 48.3855C45.5398 48.5844 44.3492 49.2631 43.5101 50.2901C42.6711 51.3172 42.2433 52.6192 42.3098 53.9437C42.3763 55.2682 42.9324 56.5209 43.8702 57.4586C44.8079 58.3964 46.0606 58.9525 47.3851 59.019C48.7096 59.0855 50.0116 58.6577 51.0387 57.8187C52.0657 56.9796 52.7444 55.789 52.9433 54.4778C53.1422 53.1666 52.8471 51.8282 52.1151 50.7223L48.4237 54.4137C48.2233 54.6119 47.9525 54.7227 47.6707 54.7218C47.3888 54.721 47.1187 54.6087 46.9194 54.4094C46.7201 54.2101 46.6078 53.94 46.607 53.6581C46.6062 53.3762 46.717 53.1055 46.9152 52.9051L50.6065 49.2137ZM64.7395 71.7962H65.5143C64.1218 70.5731 63.1647 68.9303 62.7875 67.1157C60.1217 70.1213 56.6231 72.2671 52.7356 73.2808C48.8482 74.2945 44.7472 74.1304 40.9532 72.8094C37.1592 71.4883 33.8432 69.0699 31.426 65.8609C29.0089 62.652 27.5996 58.7973 27.377 54.786C27.1544 50.7748 28.1285 46.7878 30.1758 43.3311C32.2231 39.8745 35.2512 37.104 38.8758 35.3713C42.5003 33.6386 46.558 33.0218 50.5337 33.5992C54.5094 34.1766 58.224 35.9221 61.206 38.6143L61.5388 38.2814V33.3887C61.5389 33.1058 61.6513 32.8345 61.8514 32.6344L62.7851 31.7007C59.0689 29.1427 54.7644 27.5693 50.2745 27.1279C45.7846 26.6865 41.2561 27.3916 37.1129 29.177C32.9696 30.9624 29.3472 33.7698 26.5844 37.3366C23.8217 40.9033 22.0091 45.1126 21.3163 49.5707C20.6235 54.0287 21.0731 58.5896 22.623 62.8266C24.1729 67.0635 26.7725 70.8379 30.1785 73.7966C33.5844 76.7552 37.6854 78.8013 42.0974 79.7434C46.5095 80.6855 51.0885 80.4928 55.4058 79.1832C55.9056 77.0824 57.0982 75.2111 58.7915 73.871C60.4848 72.5309 62.58 71.8 64.7395 71.7962ZM47.6694 41.9237C44.995 41.9194 42.399 42.8273 40.3101 44.4974C38.2213 46.1675 36.7644 48.5001 36.18 51.1099C35.5956 53.7198 35.9187 56.4508 37.096 58.8523C38.2732 61.2537 40.2341 63.1819 42.6551 64.3185C45.076 65.4551 47.8121 65.7322 50.4118 65.1039C53.0114 64.4757 55.319 62.9797 56.9537 60.863C58.5884 58.7463 59.4524 56.1354 59.4031 53.4613C59.3537 50.7873 58.394 48.2101 56.6823 46.1552L53.6422 49.1953C54.7783 50.7129 55.2973 52.6046 55.0947 54.4895C54.8921 56.3744 53.9829 58.1126 52.5502 59.3541C51.1175 60.5955 49.2676 61.2481 47.373 61.1805C45.4785 61.1128 43.6799 60.33 42.3394 58.9894C40.9988 57.6489 40.216 55.8503 40.1483 53.9558C40.0806 52.0612 40.7333 50.2113 41.9747 48.7786C43.2162 47.3459 44.9544 46.4367 46.8393 46.2341C48.7242 46.0315 50.6159 46.5505 52.1335 47.6866L55.1736 44.6465C53.0697 42.8857 50.413 41.9218 47.6694 41.9237ZM67.9401 53.6594C67.9396 55.0058 67.805 56.3488 67.5384 57.6685C68.554 57.1876 69.6558 56.9153 70.7785 56.8676C71.9012 56.8198 73.0221 56.9977 74.0749 57.3907C75.02 50.7725 73.4319 44.0415 69.6281 38.5437L68.6944 39.4774C68.5953 39.5765 68.4778 39.6551 68.3483 39.7087C68.2189 39.7624 68.0802 39.79 67.9401 39.79H63.0475L62.7146 40.1228C66.0757 43.8303 67.9382 48.6551 67.9401 53.6594Z" fill="#F7F6F6"/>
</g>
</svg>
