<svg width="100" height="100" viewBox="0 0 100 100" fill="none" xmlns="http://www.w3.org/2000/svg">
<circle cx="50" cy="50" r="50" fill="#F8FBF7"/>
<circle cx="49.9986" cy="49.9986" r="41.358" fill="#00AD4D"/>
<path d="M31.424 67.4746C31.4522 67.9939 31.9198 68.3934 32.4109 68.3652C32.9302 68.3394 33.3273 67.8976 33.3015 67.3783C33.2874 67.0822 33.278 66.7861 33.278 66.4877C33.278 65.9355 33.3086 65.3903 33.3603 64.8522C34.319 64.8334 35.2871 64.7558 36.2529 64.596C39.8576 63.9945 40.1231 62.4812 40.0879 60.7141C40.0667 59.659 40.0503 58.8249 41.3615 57.8426C42.8771 56.7077 43.7137 56.3975 44.2706 56.1907C45.4055 55.7701 45.798 55.4058 46.3901 53.6247C46.7308 52.5931 46.4958 51.4417 45.7039 50.1939C47.1373 49.7992 48.6389 49.5689 50.1969 49.5689C51.0357 49.5689 51.8512 49.6511 52.6571 49.7686C51.9028 50.443 51.3976 51.2279 51.165 52.0879C50.789 53.4978 51.1462 55.0393 52.2365 56.6654C52.5748 57.173 52.9226 57.6242 53.2798 58.0283H50.1968C49.6798 58.0283 49.2569 58.4513 49.2569 58.9682V70.2475C49.2569 70.7644 49.6798 71.1874 50.1968 71.1874H63.3559C63.8729 71.1874 64.2958 70.7644 64.2958 70.2475V65.7264C64.8974 65.9238 65.5741 66.0272 66.3167 66.0272C66.5658 66.0272 66.8243 66.0178 67.0898 65.9896C67.0945 66.1564 67.1157 66.3185 67.1157 66.4877C67.1157 67.3783 67.0452 68.2783 66.9042 69.1595C66.8219 69.6717 67.1721 70.1534 67.6844 70.2357C67.7337 70.2428 67.7831 70.2475 67.8324 70.2475C68.2859 70.2475 68.6854 69.9185 68.7606 69.4556C68.9157 68.4757 68.9956 67.4794 68.9956 66.4877C68.9956 57.8993 63.1985 50.6523 55.3149 48.4151C55.3008 48.4104 55.2867 48.3987 55.2726 48.394C55.2491 48.3869 55.2256 48.3916 55.2021 48.3869C53.9238 48.0321 52.5915 47.8159 51.2192 47.7407C51.2215 47.7337 51.2192 47.7243 51.2215 47.7172C51.4189 46.5799 52.0769 45.0854 53.0638 44.4274L53.233 44.3146C53.5432 44.371 53.8627 44.3898 54.1729 44.3898C56.0152 44.3898 57.8105 43.6097 59.07 42.1998C60.6303 40.4516 61.1472 37.9889 60.4141 35.7613C60.3107 35.4511 60.0381 35.2068 59.7186 35.141C59.2674 35.047 58.8256 35 58.3744 35C56.5228 35 54.7275 35.7802 53.468 37.19C52.0675 38.7597 51.5129 40.8933 51.9453 42.9236C51.231 43.403 50.6388 44.0328 50.1971 44.7471C49.7553 44.0327 49.1631 43.4029 48.4488 42.9236C48.8812 40.8933 48.3267 38.7597 46.9262 37.19C45.3659 35.4418 42.9691 34.6616 40.6754 35.141C40.3558 35.2068 40.0832 35.4512 39.9799 35.7613C39.2467 37.989 39.7637 40.4516 41.324 42.1998C42.5835 43.6097 44.3788 44.3898 46.221 44.3898C46.5312 44.3898 46.8508 44.371 47.161 44.3147L47.3302 44.4274C48.3171 45.0854 48.9751 46.5799 49.1724 47.7172C49.1748 47.7243 49.1724 47.7337 49.1748 47.7407C47.356 47.8394 45.6077 48.1943 43.9605 48.7747C43.8853 48.7912 43.8148 48.8193 43.7443 48.8546C37.3834 51.1903 32.6365 56.8583 31.6217 63.7408C31.6099 63.7925 31.5888 63.8418 31.5864 63.8958C31.5864 63.9076 31.5935 63.9193 31.5935 63.9311C31.4783 64.77 31.3984 65.6183 31.3984 66.4877C31.3984 66.819 31.4078 67.148 31.4243 67.477L31.424 67.4746ZM61.0532 63.5057L58.2333 65.3856C57.8668 65.6394 57.3686 65.583 57.049 65.2728L56.6542 64.878L54.4736 66.3255C54.3138 66.4383 54.1352 66.4853 53.9566 66.4853C53.6558 66.4853 53.3551 66.3349 53.1765 66.0623C52.8851 65.6393 53.0073 65.0472 53.4396 64.7652L56.2594 62.8853C56.626 62.6316 57.1242 62.688 57.4438 62.9981L57.8386 63.3929L60.0192 61.9454C60.4422 61.6541 61.0343 61.7762 61.3163 62.2086C61.6077 62.6316 61.4855 63.2237 61.0532 63.5057ZM52.9887 52.5742C53.2706 51.5332 54.2458 50.7812 55.12 50.3019C61.3215 52.1912 66.007 57.5579 66.9328 64.1167C66.0258 64.1895 65.0365 64.1237 64.2986 63.6373V58.9659C64.2986 58.4489 63.8757 58.0259 63.3587 58.0259H56.1965C55.3224 57.5184 54.5329 56.7194 53.7997 55.6291C53.029 54.4636 52.7563 53.4391 52.9913 52.5743L52.9887 52.5742ZM43.8546 50.8118C44.5173 51.7094 44.7875 52.4873 44.6065 53.0277C44.2165 54.2026 44.2047 54.2049 43.6196 54.4235C43.0016 54.6514 41.9677 55.0344 40.2359 56.3339C38.1563 57.8942 38.1892 59.6096 38.2103 60.7445C38.2338 61.9171 38.2408 62.3542 35.9451 62.7372C35.1814 62.8641 34.4153 62.9228 33.6563 62.9534C34.8359 57.4266 38.7203 52.8962 43.8546 50.8118Z" fill="#F7F6F6"/>
<path d="M73.6118 71.8513C72.7752 70.2722 70.8013 69.6425 69.2035 70.4508L58.5727 75.8084C57.2662 76.4664 55.8093 76.7766 54.3431 76.692L41.0715 75.9965L44.9722 72.1051C45.978 71.0994 46.1377 69.5015 45.3388 68.3172C44.5493 67.1234 43.0171 66.6535 41.6919 67.208L31.9821 71.2592C31.8223 71.3156 31.6907 71.4189 31.5967 71.5505L22.1974 83.7694C22.0658 83.9292 22 84.136 22 84.3427V90.4522C22 90.9691 22.423 91.3921 22.9399 91.3921H37.9789C38.3361 91.3921 38.665 91.1947 38.8154 90.8751L40.4791 88.9671L56.1383 86.7582C58.8453 86.3822 61.3925 85.2637 63.4977 83.5436L72.7846 75.9585C74.0065 74.9622 74.3543 73.233 73.6118 71.8513Z" fill="#F7F6F6"/>
</svg>
