<svg width="100" height="100" viewBox="0 0 100 100" fill="none" xmlns="http://www.w3.org/2000/svg">
<rect width="100" height="100" rx="50" fill="#F8FBF7"/>
<rect x="9" y="8.64209" width="82.716" height="82.716" rx="41.358" fill="#00AD4D"/>
<path d="M49.5358 23.6421C41.1893 23.6421 34.4089 30.4313 34.4089 38.7774C34.4089 47.1239 41.1892 53.9042 49.5358 53.9042C57.8824 53.9042 64.6772 47.124 64.6772 38.7774C64.6802 30.4308 57.882 23.6421 49.5358 23.6421ZM55.2571 47.3683L49.5447 44.3674L43.8413 47.3683L44.9331 41.0146L40.3125 36.5163L46.696 35.5856L49.5447 29.7987L52.3994 35.5856L58.783 36.5163L54.1624 41.0146L55.2571 47.3683Z" fill="#F7F6F6"/>
<path d="M76.9099 57.8774C75.4512 57.3644 73.8702 57.4658 72.4802 58.1459L62.0932 63.2229C62.1469 63.9089 62.1081 64.5891 61.9798 65.2453C61.8874 65.7494 61.5205 66.1849 61.0164 66.3669C60.7181 66.4594 60.4675 66.4653 60.2289 66.4206L43.1189 63.2855C42.6386 63.193 42.3164 62.7277 42.4089 62.2385C42.5014 61.7582 42.9578 61.436 43.447 61.5285L60.286 64.6218C60.3695 64.0491 60.3635 63.4615 60.2561 62.8649C60.2561 62.85 60.2472 62.841 60.2472 62.8261C60.2382 62.7724 60.2233 62.7038 60.2084 62.6441L60.1786 62.5069C59.7967 60.9349 58.4515 59.7268 56.766 59.4225L32.1235 54.9242C30.5186 54.8169 28.887 55.145 27.4193 55.8639L25.8772 56.6126L33.0482 71.8319L35.5688 70.6088C36.7053 70.06 37.9671 69.8542 39.1871 70.0123L55.3693 71.9989C56.0644 72.0825 56.7653 71.9691 57.4008 71.6559L80.0861 60.5503C79.4 59.2916 78.285 58.3517 76.9099 57.8774ZM31.879 73.5411L31.8193 73.4188C31.8193 73.4099 31.8193 73.4099 31.8104 73.4039V73.389L23.7769 56.3507C23.5413 55.8615 23.058 55.5722 22.5479 55.5722C22.357 55.5722 22.1572 55.611 21.9752 55.7035L19.7768 56.7416C19.4546 56.8937 19.2041 57.1681 19.0818 57.5141C18.9595 57.8572 18.9744 58.2181 19.1265 58.5522L27.2226 75.7493C27.3747 76.0715 27.6491 76.322 27.9951 76.4443C28.3382 76.5666 28.7051 76.5517 29.0332 76.3996L31.2317 75.3615C31.5538 75.2094 31.8044 74.935 31.9267 74.5889C32.046 74.2429 32.0311 73.879 31.879 73.5419L31.879 73.5411ZM29.5732 74.7999C29.4509 74.8536 29.3226 74.8834 29.1914 74.8834C28.8633 74.8834 28.5351 74.7015 28.383 74.3704L26.8617 71.1518C26.6469 70.7103 26.8468 70.1824 27.2882 69.9675C27.7238 69.7528 28.2577 69.9526 28.4725 70.3941L29.9849 73.6097C30.1996 74.0512 30.0147 74.5881 29.5732 74.7999Z" fill="#F7F6F6"/>
</svg>
