<svg width="705" height="358" viewBox="0 0 705 358" fill="none" xmlns="http://www.w3.org/2000/svg">
<g opacity="0.1">
<path d="M353.796 26.9163C349.433 26.6503 345.102 29.2181 342.965 33.0209L267.498 162.98C242.744 205.141 230.362 239.605 230.662 266.369C230.979 294.707 242.128 316.941 263.798 333.073C285.468 349.206 315.142 357.061 352.82 356.639C391.433 356.206 422.48 347.67 445.344 331.354C467.895 315.04 479.173 293.185 478.866 265.791C478.672 248.473 473.475 229.322 463.582 208.019C453.695 187.346 420.654 129.143 363.832 33.102C361.921 29.3445 357.848 27.1858 353.796 26.9163Z" fill="#08A03F"/>
<path d="M367.919 10.3976C369.752 7.22792 373.152 4.98544 376.889 4.94356C483.364 1.8608 593.289 0.943761 614.482 2.28082C635.989 3.92924 653.483 8.77175 667.591 17.1162C689.537 30.0965 701.291 50.7489 702.536 78.447C703.784 106.46 695.1 137.419 675.86 171.33C657.232 204.289 638.102 220.249 614.556 231.22C590.702 242.509 567.641 241.193 545.381 227.901C485.807 192.039 418.868 82.5709 368.99 22.6671C366.149 19.2349 365.781 14.2004 367.919 10.3976Z" fill="#08A03F"/>
<path d="M332.711 10.7911C330.804 7.34846 327.046 5.50112 322.994 5.23163C217.1 4.52894 108.427 6.06177 87.27 7.87344C65.8051 10.0035 48.1121 15.2403 34.5061 23.8954C12.8604 37.6791 1.88315 58.5863 0.948113 86.3089C0.328 114.343 9.70421 145.099 29.6995 178.57C49.0615 211.104 68.5443 226.631 92.3301 237.072C116.431 247.823 139.456 245.991 161.413 232.204C219.861 195.334 283.724 85.9739 331.932 24.6559C332.24 24.3376 332.236 24.0227 332.548 24.0192C332.544 23.7043 335.584 17.0571 332.711 10.7911Z" fill="#08A03F"/>
</g>
</svg>
