<svg width="32" height="32" viewBox="0 0 32 32" fill="none" xmlns="http://www.w3.org/2000/svg">
<path d="M16.1213 14.2484C15.9225 14.262 15.7236 14.1531 15.6242 13.9898L12.1167 8.41021C10.9665 6.60024 10.3843 5.11689 10.3843 3.96015C10.3843 2.73536 10.8813 1.76914 11.8611 1.06148C12.841 0.353828 14.19 0 15.9083 0C17.6691 0 19.0892 0.353828 20.14 1.04787C21.1766 1.74192 21.702 2.68092 21.702 3.86489C21.702 4.61337 21.4748 5.4435 21.0346 6.3689C20.5944 7.26707 19.1176 9.7983 16.5757 13.9762C16.4905 14.1395 16.3059 14.2348 16.1213 14.2484Z" fill="#08A03F"/>
<path d="M16.0919 17.1487C15.9073 17.1487 15.7227 17.2439 15.6233 17.4072L12.1016 23.0141C10.9514 24.824 10.3691 26.3074 10.3691 27.4641C10.3691 28.6753 10.8662 29.6551 11.846 30.3628C12.8258 31.0704 14.1749 31.4243 15.8931 31.4243C17.654 31.4243 19.074 31.0704 20.1248 30.3764C21.1615 29.6823 21.6869 28.7433 21.6869 27.5594C21.6869 26.8109 21.4597 25.9808 21.0195 25.0554C20.5793 24.1572 19.1024 21.6124 16.5463 17.4209C16.4753 17.2576 16.2907 17.1487 16.0919 17.1487Z" fill="#08A03F"/>
<path d="M16.7872 16.4651C16.7162 16.6284 16.7588 16.819 16.8724 16.9687C19.116 19.5951 22.0839 24.2902 24.7536 25.8552C25.7618 26.454 26.8127 26.5084 27.9061 26.0321C28.9853 25.5694 29.8658 24.889 30.732 23.4736C31.6266 22.0175 32.0384 20.6839 31.9958 19.4727C31.9532 18.2751 31.4278 17.3905 30.4338 16.8054C29.809 16.4379 28.9995 16.2202 28.0197 16.1385C27.0541 16.0705 22.0981 16.0569 17.27 16.1385C17.057 16.1385 16.8582 16.2746 16.7872 16.4651Z" fill="#08A03F"/>
<path d="M16.7742 14.9559C16.8594 15.092 17.0156 15.1872 17.186 15.1872C22.0426 15.2689 27.0553 15.2553 28.021 15.1872C29.0008 15.1056 29.796 14.8878 30.435 14.5204C31.4291 13.9488 31.9545 13.0506 31.9971 11.8531C32.0397 10.6419 31.6279 9.30824 30.7333 7.8521C29.867 6.43679 28.9866 5.75635 27.9074 5.29365C26.8139 4.81735 25.7631 4.88539 24.7549 5.47057C22.0568 7.04918 19.0605 11.8122 16.8168 14.4251C16.689 14.5748 16.6748 14.7926 16.7742 14.9559Z" fill="#08A03F"/>
<path d="M15.2117 16.4258C15.1265 16.2489 14.9561 16.14 14.7573 16.14C9.9149 16.0583 4.94475 16.0719 3.97912 16.14C2.99929 16.2216 2.18986 16.4394 1.56504 16.8068C0.57101 17.3784 0.0455938 18.2766 0.00299249 19.4741C-0.0396088 20.6853 0.372204 22.019 1.26683 23.4751C2.13306 24.8904 3.01349 25.5709 4.09272 26.0336C5.18615 26.5099 6.23699 26.4418 7.24522 25.8566C9.9291 24.2916 12.9112 19.5694 15.1549 16.9429C15.2685 16.7932 15.2969 16.6027 15.2117 16.4258Z" fill="#08A03F"/>
<path d="M15.1691 14.9559C15.0839 15.1056 14.9135 15.1872 14.7289 15.2008C9.90071 15.2825 4.94475 15.2689 3.97912 15.2008C2.99929 15.1192 2.18986 14.9014 1.56504 14.534C0.57101 13.9488 0.0597943 13.0506 0.00299249 11.8531C-0.0396089 10.6419 0.372204 9.30824 1.26683 7.8521C2.13306 6.43679 3.01349 5.75635 4.09272 5.29365C5.18616 4.81735 6.23699 4.88539 7.24522 5.47057C9.92911 7.03557 12.897 11.7306 15.1265 14.3571C15.1407 14.3707 15.1407 14.3843 15.1549 14.3843C15.1549 14.3979 15.2969 14.6837 15.1691 14.9559Z" fill="#08A03F"/>
</svg>
