<svg width="1049" height="492" viewBox="0 0 1049 492" fill="none" xmlns="http://www.w3.org/2000/svg">
<g opacity="0.05">
<path d="M521.118 490.744C577.38 490.744 625.066 479.463 659.501 457.046C693.518 434.891 710.553 404.726 710.553 366.42C710.553 342.179 703.292 315.52 688.71 286.036C674.438 257.16 626.088 175.455 542.767 40.8191H542.766C539.75 35.9284 534.296 32.7939 528.303 32.4949L528.28 32.5164L528.095 32.5085C521.538 32.2399 515.383 35.368 512.026 40.6492L397.175 220.511L397.174 220.513L395.42 223.248C358.888 280.507 340.559 327.312 340.559 363.622C340.559 402.818 356.681 433.782 388.817 456.631H388.818C420.624 479.314 464.858 490.744 521.118 490.744Z" fill="#08A03F" stroke="#08A03F" stroke-width="0.875276"/>
<path d="M811.387 314.385C844.47 333.448 878.723 335.365 914.241 320.282L914.242 320.281C949.429 305.43 978.27 283.537 1006.47 237.854L1006.47 237.853C1035.17 191.551 1048.9 149.234 1047.81 110.939L1047.75 109.119C1046.19 71.2745 1029.63 43.0336 998.299 24.5085L996.796 23.6335C976.92 12.2291 951.792 5.24982 921.031 2.60229L918.036 2.35913C886.393 -0.0617219 722.196 -0.28719 563.134 2.21069H563.133C557.684 2.2838 552.685 5.05897 549.958 9.47144L549.646 9.97437C546.735 15.1629 547.394 21.5155 551.372 26.0623H551.373C588.197 68.1641 631.156 127.636 675.9 182.843C720.675 238.087 767.25 289.079 811.386 314.385H811.387Z" fill="#08A03F" stroke="#08A03F" stroke-width="0.875276"/>
<path d="M134.12 320.282C169.639 335.366 203.918 333.449 236.896 314.386L236.896 314.385C280.688 289.279 326.885 238.886 371.342 184.141C415.766 129.436 458.471 70.3614 495.187 28.0623C499.611 22.9729 500.202 15.857 496.779 10.1824L496.45 9.68237C493.528 5.25628 488.467 2.46184 482.929 2.20288L482.392 2.1853C324.203 -0.262615 161.809 -0.0367918 130.352 2.35913C98.1437 4.80369 72.0043 11.8614 51.5137 23.6335H51.5127C19.6905 41.8501 2.68119 69.7603 0.646484 107.323L0.560547 109.119C-1.02464 147.892 12.687 190.816 41.8359 237.853V237.854C70.1176 283.537 98.9599 305.405 134.12 320.281V320.282Z" fill="#08A03F" stroke="#08A03F" stroke-width="0.875276"/>
</g>
</svg>
