<svg preserveAspectRatio="none" width="100%" height="100%" overflow="visible" style="display: block;" viewBox="0 0 27.001 26.5129" fill="none" xmlns="http://www.w3.org/2000/svg">
<g id="Petal">
<g id="Group">
<path id="Vector" d="M13.6022 12.0222C13.4345 12.0337 13.2667 11.9418 13.1829 11.804L10.2234 7.09621C9.25284 5.56904 8.76159 4.31744 8.76159 3.34143C8.76159 2.308 9.18095 1.49274 10.0077 0.89565C10.8344 0.298559 11.9727 1.30359e-05 13.4225 1.30359e-05C14.9082 1.30359e-05 16.1064 0.298559 16.9931 0.884167C17.8677 1.46978 18.3111 2.26207 18.3111 3.26105C18.3111 3.89259 18.1193 4.59302 17.7479 5.37383C17.3765 6.13168 16.1304 8.26743 13.9856 11.7926C13.9137 11.9304 13.758 12.0107 13.6022 12.0222Z" fill="var(--fill-0, #08A03F)"/>
</g>
<g id="Group_2">
<path id="Vector_2" d="M13.5787 14.4678C13.4229 14.4678 13.2671 14.5482 13.1833 14.6859L10.2118 19.4167C9.24125 20.9439 8.75 22.1955 8.75 23.1715C8.75 24.1935 9.16936 25.0202 9.9961 25.6173C10.8228 26.2144 11.9611 26.5129 13.4109 26.5129C14.8966 26.5129 16.0948 26.2144 16.9815 25.6288C17.8561 25.0432 18.2995 24.2509 18.2995 23.2519C18.2995 22.6204 18.1078 21.9199 17.7363 21.1391C17.3649 20.3813 16.1188 18.234 13.9621 14.6974C13.9022 14.5596 13.7464 14.4678 13.5787 14.4678Z" fill="var(--fill-0, #08A03F)"/>
</g>
<g id="Group_3">
<path id="Vector_3" d="M14.166 13.8934C14.1061 14.0311 14.142 14.1919 14.2379 14.3182C16.131 16.5343 18.6352 20.4958 20.8878 21.8163C21.7385 22.3215 22.6251 22.3675 23.5477 21.9656C24.4583 21.5752 25.2012 21.001 25.9321 19.8069C26.687 18.5782 27.0344 17.4529 26.9985 16.431C26.9625 15.4205 26.5192 14.6742 25.6805 14.1804C25.1533 13.8704 24.4703 13.6867 23.6436 13.6178C22.8288 13.5604 18.6472 13.5489 14.5734 13.6178C14.3937 13.6178 14.2259 13.7326 14.166 13.8934Z" fill="var(--fill-0, #08A03F)"/>
</g>
<g id="Group_4">
<path id="Vector_4" d="M14.1527 12.6195C14.2246 12.7343 14.3564 12.8147 14.5002 12.8147C18.5979 12.8836 22.8275 12.8721 23.6423 12.8147C24.469 12.7458 25.14 12.562 25.6792 12.252C26.5179 11.7697 26.9612 11.0119 26.9971 10.0014C27.0331 8.9795 26.6856 7.85421 25.9308 6.62558C25.1999 5.4314 24.457 4.85727 23.5464 4.46687C22.6238 4.06498 21.7372 4.12239 20.8864 4.61614C18.6099 5.94811 16.0818 9.96699 14.1886 12.1716C14.0808 12.2979 14.0688 12.4817 14.1527 12.6195Z" fill="var(--fill-0, #08A03F)"/>
</g>
<g id="Group_5">
<path id="Vector_5" d="M12.835 13.8589C12.7631 13.7096 12.6193 13.6178 12.4516 13.6178C8.3658 13.5489 4.17218 13.5604 3.35742 13.6178C2.53068 13.6867 1.84772 13.8704 1.32052 14.1804C0.481795 14.6627 0.0384702 15.4205 0.00252494 16.431C-0.0334203 17.4529 0.314051 18.5782 1.0689 19.8069C1.79979 21.001 2.54266 21.5752 3.45327 21.9656C4.37587 22.3675 5.26252 22.31 6.11322 21.8163C8.37778 20.4958 10.8939 16.5114 12.7871 14.2952C12.8829 14.1689 12.9069 14.0082 12.835 13.8589Z" fill="var(--fill-0, #08A03F)"/>
</g>
<path id="Vector_6" d="M12.7991 12.6195C12.7272 12.7458 12.5834 12.8147 12.4276 12.8261C8.35382 12.895 4.17218 12.8836 3.35742 12.8261C2.53068 12.7572 1.84772 12.5735 1.32052 12.2635C0.481796 11.7698 0.050452 11.0119 0.00252494 10.0014C-0.0334204 8.9795 0.314051 7.85421 1.0689 6.62558C1.79979 5.4314 2.54266 4.85727 3.45327 4.46687C4.37587 4.06498 5.26252 4.12239 6.11323 4.61614C8.37778 5.93663 10.882 9.8981 12.7631 12.1142C12.7751 12.1257 12.7751 12.1372 12.7871 12.1372C12.7871 12.1487 12.9069 12.3898 12.7991 12.6195Z" fill="var(--fill-0, #08A03F)"/>
</g>
</svg>
