<svg width="69" height="68" viewBox="0 0 69 68" fill="none" xmlns="http://www.w3.org/2000/svg">
<path d="M34.4246 30.4259C34 30.455 33.5755 30.2225 33.3632 29.8738L25.8733 17.9591C23.4171 14.0941 22.1738 10.9266 22.1738 8.45649C22.1738 5.84108 23.2352 3.77781 25.3275 2.26669C27.4198 0.755562 30.3005 0 33.9697 0C37.7298 0 40.7622 0.755562 43.0061 2.23763C45.2198 3.71969 46.3417 5.72484 46.3417 8.25307C46.3417 9.85137 45.8565 11.624 44.9165 13.6001C43.9765 15.5181 40.8228 20.9233 35.3949 29.8447C35.213 30.1934 34.8188 30.3969 34.4246 30.4259Z" fill="#08A03F"/>
<path d="M34.363 36.6158C33.9688 36.6158 33.5746 36.8193 33.3623 37.168L25.8421 49.1407C23.3858 53.0057 22.1426 56.1733 22.1426 58.6434C22.1426 61.2297 23.2039 63.3221 25.2962 64.8332C27.3886 66.3443 30.2693 67.0999 33.9385 67.0999C37.6986 67.0999 40.7309 66.3443 42.9749 64.8623C45.1885 63.3802 46.3105 61.375 46.3105 58.8468C46.3105 57.2485 45.8253 55.4759 44.8853 53.4998C43.9452 51.5818 40.7916 46.1476 35.3333 37.197C35.1817 36.8483 34.7875 36.6158 34.363 36.6158Z" fill="#08A03F"/>
<path d="M35.8476 35.1625C35.6959 35.5113 35.7869 35.9181 36.0295 36.2378C40.8206 41.8464 47.1583 51.8721 52.8591 55.214C55.0121 56.4926 57.256 56.6089 59.5909 55.5918C61.8955 54.6037 63.7756 53.1507 65.6253 50.1285C67.5357 47.019 68.4151 44.1712 68.3241 41.5848C68.2332 39.0275 67.1112 37.1386 64.9885 35.889C63.6543 35.1044 61.9258 34.6395 59.8335 34.4651C57.7715 34.3198 47.1886 34.2907 36.8786 34.4651C36.4237 34.4651 35.9992 34.7557 35.8476 35.1625Z" fill="#08A03F"/>
<path d="M35.819 31.9369C36.0009 32.2275 36.3345 32.4309 36.6984 32.4309C47.069 32.6053 57.7733 32.5762 59.8353 32.4309C61.9276 32.2566 63.6257 31.7916 64.9903 31.007C67.1129 29.7865 68.2349 27.8685 68.3259 25.3112C68.4168 22.7249 67.5374 19.877 65.6271 16.7676C63.7773 13.7453 61.8973 12.2923 59.5927 11.3043C57.2578 10.2872 55.0138 10.4325 52.8608 11.682C47.0994 15.053 40.7011 25.224 35.91 30.8036C35.637 31.1232 35.6067 31.5882 35.819 31.9369Z" fill="#08A03F"/>
<path d="M32.4829 35.0755C32.301 34.6977 31.9371 34.4652 31.5126 34.4652C21.1722 34.2909 10.559 34.3199 8.49699 34.4652C6.40466 34.6396 4.67622 35.1045 3.34198 35.8892C1.21933 37.1097 0.0973609 39.0276 0.00639015 41.5849C-0.0845806 44.1713 0.794803 47.0192 2.70519 50.1286C4.55493 53.1509 6.43499 54.6039 8.73958 55.5919C11.0745 56.609 13.3184 56.4637 15.4714 55.2141C21.2026 51.8722 27.5705 41.7884 32.3616 36.1798C32.6042 35.8601 32.6649 35.4533 32.4829 35.0755Z" fill="#08A03F"/>
<path d="M32.392 31.9368C32.21 32.2565 31.8462 32.4308 31.452 32.4599C21.1419 32.6342 10.559 32.6052 8.49699 32.4599C6.40467 32.2855 4.67622 31.8206 3.34198 31.0359C1.21933 29.7864 0.127685 27.8684 0.00639015 25.3111C-0.0845806 22.7248 0.794803 19.8769 2.70519 16.7674C4.55493 13.7452 6.43499 12.2922 8.73958 11.3041C11.0745 10.287 13.3184 10.4323 15.4714 11.6819C21.2026 15.0238 27.5402 25.0496 32.301 30.6582C32.3313 30.6872 32.3313 30.7163 32.3617 30.7163C32.3617 30.7453 32.6649 31.3556 32.392 31.9368Z" fill="#08A03F"/>
</svg>
