<svg width="1920" height="2207" viewBox="0 0 1920 2207" fill="none" xmlns="http://www.w3.org/2000/svg">
<path d="M1993.13 1438.32H1825.83L1763.47 1491.7L1790.71 1550.55L1821.12 1634.46L1879.63 1675.52L1979.1 1841.83L2028.07 1590.47L1993.13 1438.32Z" fill="white"/>
<path d="M1402.43 1442.38C1397 1409.74 1408.18 1404.44 1404.18 1404.44C1398.65 1404.44 1454.22 1398.14 1445 1396.13C1435.73 1394.15 1424.6 1353.63 1435.7 1353.63C1446.8 1353.63 1454.29 1340.91 1454.29 1332.91C1454.29 1324.9 1454.04 1314.45 1442.94 1314.45C1431.84 1314.45 1408.12 1294.37 1408.12 1294.37C1408.12 1294.37 1354.13 1310.95 1354.13 1300.96C1354.13 1290.98 1326.32 1271.13 1311.51 1271.13C1296.71 1271.13 1272.89 1258.75 1261.79 1274.68C1250.69 1290.64 1248.86 1301.04 1245.15 1313.04C1241.45 1324.98 1247.01 1327.94 1245.15 1337.9C1243.3 1347.86 1241.42 1377.44 1246.93 1391.39C1251.18 1402.18 1278.91 1424.98 1279.14 1447.89C1287.74 1446.12 1309.99 1440.92 1317.97 1440.92C1327.99 1440.92 1341.69 1439.48 1342.59 1428.12C1343.49 1416.82 1354.93 1408.43 1361.29 1411.86C1367.7 1415.3 1377.28 1442.87 1377.71 1457.16C1377.87 1461.72 1379.7 1467.71 1382.53 1473.97C1387.63 1468.56 1393.58 1464.21 1393.58 1464.21C1393.58 1464.21 1397.33 1449.03 1402.46 1442.38H1402.43Z" fill="white" stroke="#73C386" stroke-width="1.12697" stroke-miterlimit="10"/>
<path d="M1263.16 1201.35C1260.67 1201.14 1219.34 1224.57 1216.17 1224.67C1195.03 1225.54 1182.05 1214.14 1168.23 1215.02C1154.42 1215.89 1114.61 1199.24 1097.54 1184.33C1080.5 1169.43 1034.17 1137.84 1022.79 1125.59C1011.41 1113.31 995.162 1113.31 993.54 1119.47C992.072 1125.1 983.703 1125.57 971.086 1126.96C967.867 1133.06 945.516 1138.57 945.516 1146.83C945.516 1156.2 911.836 1177.15 911.836 1184.95C911.836 1192.75 960.245 1196.79 964.597 1203.07C968.949 1209.3 992.716 1209.53 994.158 1215.79C995.6 1222.02 1009.76 1234.55 1019.91 1236.12C1030.03 1237.67 1048.49 1240.09 1054.28 1244.77C1060.05 1249.46 1076.89 1253.94 1084.13 1253.94C1091.36 1253.94 1107.82 1252.57 1109.26 1260.4C1110.7 1268.22 1148.29 1272.91 1157 1280.71C1165.68 1288.53 1246.12 1295.58 1254.8 1286.22C1263.47 1276.85 1281.09 1254.37 1281.09 1240.37C1281.09 1235.69 1302.28 1191.28 1263.22 1201.37L1263.16 1201.35Z" fill="white" stroke="#73C386" stroke-width="1.12697" stroke-miterlimit="10"/>
<path d="M1644.79 1492.12C1628.54 1499.15 1620.43 1489.49 1622.05 1478.99C1623.67 1468.44 1610.67 1468.44 1601.73 1468.44C1592.8 1468.44 1598.49 1452.66 1601.73 1442.16C1605 1431.63 1598.49 1425.5 1587.93 1424.6C1577.38 1423.73 1572.51 1399.19 1576.55 1392.17C1580.62 1385.17 1554.61 1379.04 1543.26 1385.17C1531.88 1391.32 1540.01 1374.64 1536.77 1365.86C1533.5 1357.11 1551.37 1327.3 1566.82 1310.65C1582.24 1293.99 1575.75 1272.06 1575.75 1252.75C1575.75 1233.45 1568.44 1233.45 1561.15 1233.45C1553.87 1233.45 1552.99 1222.05 1552.99 1211.54C1552.99 1201.04 1537.57 1193.14 1528.63 1200.17C1527.4 1201.14 1525.18 1202.51 1522.45 1204.05C1522.81 1204.16 1523.15 1204.21 1523.15 1204.21C1523.15 1204.21 1520.26 1219.83 1514.44 1222.95C1508.65 1226.06 1469.1 1218.08 1477.8 1232.14C1486.48 1246.19 1504.35 1257.26 1501.44 1249.46C1498.53 1241.66 1481.17 1254.14 1471.06 1263.51C1460.94 1272.88 1446.46 1277.57 1446.46 1294.74C1446.46 1311.91 1433.44 1329.08 1436.34 1343.1C1439.23 1357.13 1421.87 1383.7 1423.34 1391.52C1424.78 1399.32 1398.75 1389.98 1394.4 1389.98C1390.05 1389.98 1392.93 1419.61 1387.16 1428.98C1381.37 1438.35 1385.7 1471.11 1377.02 1471.11C1368.34 1471.11 1361.13 1500.79 1361.13 1500.79C1361.13 1500.79 1354.07 1505.94 1348.02 1512.38C1355.1 1528.03 1368.06 1545.09 1382.4 1551.48C1403.54 1560.82 1417.6 1606.97 1424.11 1631.53C1428.03 1646.31 1427.95 1661.29 1425.68 1673.95C1425.99 1675.81 1426.3 1677.68 1426.3 1679.51V1700C1426.3 1704.25 1425.4 1708.21 1424.09 1711.97C1426.95 1713.39 1430.27 1714.88 1433.87 1716.89C1446.36 1723.89 1460.42 1726.23 1469.64 1712.2C1478.88 1698.17 1497.81 1688.26 1500.54 1672.49C1503.24 1656.71 1511.92 1680.08 1519.49 1688.26C1527.09 1696.45 1532.49 1712.2 1534.12 1732.1C1535.74 1751.97 1537.36 1801.65 1553.04 1817.46C1568.78 1833.21 1571.48 1867.73 1567.15 1880.01C1562.85 1892.31 1575.29 1913.34 1572.02 1926.8C1571.35 1929.48 1570.68 1933.29 1569.88 1937.54C1584.02 1940.45 1601.32 1872.36 1601.32 1872.36C1601.32 1856.79 1589.76 1855.22 1589.76 1842.74C1589.76 1830.25 1589.76 1808.37 1575.29 1794.34C1560.79 1780.29 1553.58 1759.95 1562.26 1752.18C1570.94 1744.41 1563.7 1722.53 1568.05 1724.07C1572.41 1725.64 1578.2 1710.02 1569.5 1705.36C1560.82 1700.67 1569.5 1681.96 1562.26 1678.82C1555.02 1675.7 1534.79 1650.71 1534.79 1642.93C1534.79 1635.16 1540.58 1591.38 1542.02 1580.49C1543.46 1569.55 1557.91 1567.98 1562.26 1567.98C1566.61 1567.98 1583.97 1569.52 1589.76 1558.61C1595.55 1547.67 1620.12 1546.12 1623.03 1538.3C1625.94 1530.52 1641.85 1530.52 1641.85 1521.15C1641.85 1511.78 1660.62 1488.36 1660.62 1488.36C1660.91 1488.31 1661.11 1488.46 1661.37 1488.46C1659.21 1484.32 1654.42 1488.05 1644.87 1492.17L1644.79 1492.12Z" fill="white" stroke="#73C386" stroke-width="1.12697" stroke-linejoin="round"/>
<path d="M1909.38 1828.55C1899.51 1812.56 1896.68 1794.13 1896.68 1779.36C1887.72 1787 1876.83 1787.57 1870.67 1784.94C1862.85 1781.55 1845.65 1779.87 1845.65 1793.39C1845.65 1806.9 1833.16 1810.25 1834.7 1803.5C1836.27 1796.76 1822.21 1798.43 1814.39 1788.32C1806.56 1778.2 1778.41 1791.69 1764.33 1786.64C1750.24 1781.55 1728.36 1795.06 1714.32 1813.65C1700.21 1832.2 1715.84 1832.2 1715.84 1849.06C1715.84 1865.92 1725.24 1865.95 1720.55 1879.44C1720.43 1879.77 1720.3 1880.26 1720.19 1880.65C1733.02 1886.75 1729.28 1903.17 1729.93 1913.88C1732.48 1916.79 1735.03 1919.72 1737.6 1922.61C1742.47 1922.73 1748.57 1920.65 1752.82 1920.32C1760.11 1919.77 1748.98 1932.08 1753.77 1940.32C1754.52 1941.11 1755.26 1941.91 1755.99 1942.74C1763.56 1947.5 1780.16 1935.06 1783.69 1944.31C1784.59 1946.65 1785.73 1948.6 1786.96 1950.35C1796.98 1945.08 1809.52 1937.25 1809.52 1931.23C1809.52 1921.22 1846.65 1941.27 1851.28 1931.23C1855.95 1921.22 1823.42 1888.65 1851.28 1896.17C1879.15 1903.69 1874.51 1886.16 1883.78 1873.62C1893.05 1861.11 1923.23 1851.1 1909.3 1828.55H1909.38Z" fill="white" stroke="#E0E0E0" stroke-width="1.41998" stroke-linejoin="round"/>
<path d="M1811.88 1615.65C1811.88 1605.63 1767.77 1590.6 1772.43 1578.09C1777.07 1565.58 1800.3 1573.07 1800.3 1560.56C1800.3 1548.05 1790.97 1548.05 1788.68 1530.5C1786.39 1512.97 1770.12 1517.99 1763.16 1522.98C1756.19 1528 1732.96 1517.96 1732.96 1505.45C1732.96 1492.94 1714.4 1485.43 1714.4 1475.39C1714.4 1469.62 1707.49 1462.18 1701.16 1454.54C1695.26 1457.73 1689.26 1458.45 1686.56 1455.51C1682.21 1450.83 1676.44 1471.11 1680.77 1475.8C1685.12 1480.51 1690.89 1510.16 1679.32 1507.05C1667.74 1503.93 1667.74 1486.74 1660.5 1488.31C1660.5 1488.31 1641.73 1511.73 1641.73 1521.1C1641.73 1527.41 1634.52 1529.49 1628.91 1532.56C1632.25 1535.77 1635.09 1538.66 1636.06 1540.25C1639.23 1545.3 1634.55 1558.81 1639.21 1570.63C1643.89 1582.44 1659.55 1563.88 1664.23 1580.77C1668.95 1597.6 1661.12 1606.07 1661.12 1622.93C1661.12 1639.79 1648.6 1638.17 1651.75 1653.33C1654.86 1668.49 1672.06 1649.96 1684.55 1639.84C1697.09 1629.68 1706.49 1631.4 1711.15 1638.17C1715.84 1644.92 1731.49 1639.84 1734.63 1631.4C1737.78 1622.98 1761.21 1619.59 1769.04 1629.73C1776.86 1639.84 1784.67 1651.66 1795.61 1658.43C1806.55 1665.15 1787.78 1702.29 1798.75 1705.66C1809.69 1709.01 1825.35 1727.6 1823.78 1747.85C1822.44 1765.25 1831.43 1777.69 1819.04 1792.67C1826.74 1798.07 1835.98 1798.02 1834.7 1803.53C1833.15 1810.28 1845.64 1806.9 1845.64 1793.41C1845.64 1779.93 1862.84 1781.57 1870.67 1784.97C1876.82 1787.6 1887.69 1787.03 1896.68 1779.39C1896.68 1773.31 1897.09 1767.83 1897.76 1763.45C1900.08 1748.45 1897.76 1730.89 1890.81 1723.37C1883.83 1715.88 1865.24 1708.37 1860.6 1693.33C1855.99 1678.33 1835.08 1663.27 1830.42 1650.73C1825.79 1638.22 1811.86 1625.69 1811.86 1615.67L1811.88 1615.65Z" fill="white" stroke="#73C386" stroke-width="1.12697" stroke-miterlimit="10"/>
<path d="M1823.77 1747.83C1825.31 1727.57 1809.68 1708.99 1798.72 1705.64C1787.77 1702.27 1806.52 1665.13 1795.57 1658.41C1784.63 1651.64 1776.83 1639.85 1769 1629.71C1761.17 1619.57 1737.74 1622.96 1734.6 1631.38C1731.46 1639.82 1715.83 1644.9 1711.12 1638.15C1706.45 1631.38 1697.06 1629.66 1684.52 1639.82C1672.03 1649.97 1654.83 1668.5 1651.71 1653.31C1648.57 1638.15 1661.08 1639.82 1661.08 1622.91C1661.08 1606 1668.91 1597.61 1664.2 1580.75C1659.51 1563.86 1643.88 1582.42 1639.17 1570.61C1634.51 1558.79 1639.2 1545.3 1636.03 1540.23C1635.08 1538.64 1632.22 1535.73 1628.87 1532.54C1626.17 1534 1623.8 1535.73 1622.85 1538.25C1619.94 1546.08 1595.4 1547.62 1589.58 1558.56C1583.78 1569.47 1566.43 1567.93 1562.08 1567.93C1557.72 1567.93 1543.25 1569.47 1541.84 1580.44C1540.42 1591.35 1534.6 1635.06 1534.6 1642.89C1534.6 1650.71 1554.84 1675.66 1562.08 1678.77C1569.31 1681.91 1560.61 1700.62 1569.31 1705.31C1578.02 1709.97 1572.22 1725.62 1567.87 1724.02C1563.52 1722.48 1570.78 1744.33 1562.08 1752.13C1553.4 1759.93 1560.61 1780.24 1575.11 1794.3C1589.58 1808.32 1589.58 1830.18 1589.58 1842.69C1589.58 1855.2 1601.14 1856.74 1601.14 1872.32C1601.14 1872.32 1583.83 1940.4 1569.7 1937.49C1566.66 1954.51 1562.87 1981.23 1559.37 1995.72C1555.05 2013.81 1551.8 2029.62 1561.54 2030.78C1571.29 2031.93 1590.79 2055.9 1609.74 2081.64C1614.37 2087.92 1617.93 2094.48 1620.71 2101.2C1627.27 2100.79 1634.61 2101.2 1641.98 2102.75C1656.37 2105.66 1659.98 2118.3 1659.98 2126.07C1659.98 2133.84 1684.34 2130.93 1688.84 2129.96C1692.29 2129.24 1687.86 2118.27 1700.12 2114.02C1692.76 2102.72 1673.65 2089.03 1657.97 2087.51C1639.56 2085.76 1630.88 2055.95 1632.53 2042.51C1634.15 2029.08 1618.98 2017.37 1618.98 2005.7C1618.98 1994.04 1608.14 1993.43 1595.71 1986.99C1583.24 1980.56 1598.38 1940.81 1600.03 1923.87C1600.86 1915.23 1608.01 1898.39 1613.83 1881.94C1611.67 1870.93 1614.99 1860.73 1621.33 1852.7C1621.58 1848.92 1621.27 1845.62 1620.09 1843.23C1612.49 1828.04 1646.61 1816.33 1650.96 1833.27C1651.2 1834.14 1651.4 1834.99 1651.61 1835.82C1665.02 1834.32 1678.77 1839.57 1687.07 1854.81C1687.79 1856.12 1688.61 1857.39 1689.36 1858.67C1700.92 1862.92 1703.75 1875.28 1717.58 1879.5C1718.58 1879.78 1719.28 1880.3 1720.15 1880.71C1720.26 1880.32 1720.36 1879.83 1720.51 1879.5C1725.2 1866.03 1715.8 1866.03 1715.8 1849.12C1715.8 1832.21 1700.15 1832.26 1714.28 1813.7C1728.32 1795.12 1750.2 1781.6 1764.29 1786.7C1778.37 1791.75 1806.52 1778.26 1814.35 1788.37C1815.74 1790.2 1817.36 1791.52 1819.01 1792.7C1831.39 1777.74 1822.38 1765.29 1823.74 1747.88L1823.77 1747.83Z" fill="white" stroke="#73C386" stroke-width="1.12697" stroke-linejoin="round"/>
<path d="M2899.14 290.585C2900.25 269.529 2877.43 276.556 2869.89 282.399C2862.32 288.242 2840.64 282.399 2834.12 296.428C2827.63 310.457 2816.79 302.271 2801.62 304.639C2786.48 306.982 2764.78 299.955 2765.86 289.427C2766.97 278.898 2757.18 268.396 2758.29 255.552C2759.37 242.681 2743.12 248.524 2732.26 236.838C2721.41 225.152 2699.79 216.966 2695.43 219.308C2691.11 221.625 2678.1 206.464 2659.67 205.28C2641.26 204.096 2643.45 191.251 2645.61 183.065C2647.77 174.905 2630.42 149.164 2627.17 135.136C2623.93 121.107 2610.95 118.79 2605.52 88.3646C2600.11 57.9903 2584.92 66.1502 2588.19 52.1472C2591.43 38.1184 2569.78 31.0911 2564.34 22.9055C2558.93 14.7199 2536.17 18.2207 2519.9 8.87675C2503.65 -0.467189 2493.92 6.56007 2478.75 1.87523C2463.58 -2.80961 2428.9 6.56007 2424.6 6.56007C2420.3 6.56007 2393.16 0.69115 2377.99 22.9055C2362.83 45.1456 2374.75 43.9616 2381.24 43.9616C2387.73 43.9616 2391 65.0176 2392.08 72.0449C2393.18 79.0464 2381.24 89.5744 2375.83 91.9168C2370.42 94.285 2355.23 119.974 2353.09 129.344C2350.93 138.688 2333.57 162.061 2335.74 170.246C2337.9 178.432 2327.09 186.592 2319.49 187.776C2311.92 188.96 2291.34 205.305 2284.83 207.648C2278.32 209.99 2252.33 205.305 2249.06 197.12C2248.03 194.468 2244.84 192.28 2240.9 190.53L2211.6 253.775L2209.23 274.162C2209.23 274.162 2190.38 279.285 2204.52 294.549C2218.68 309.839 2221.02 297.072 2242.29 297.072C2263.56 297.072 2272.96 314.91 2277.7 302.168C2282.41 289.452 2301.28 281.807 2313.08 297.072C2324.9 312.362 2362.67 337.871 2360.3 350.561C2357.91 363.303 2336.72 360.754 2322.53 355.658C2308.34 350.561 2289.49 365.825 2275.33 365.825C2261.17 365.825 2244.63 370.922 2230.45 386.212C2216.28 401.502 2218.65 416.767 2197.38 419.315C2176.14 421.863 2166.69 419.315 2143.1 437.128C2119.52 454.966 2093.51 447.321 2084.11 442.224C2074.66 437.128 2058.13 434.579 2048.68 452.418C2039.26 470.23 2060.5 477.875 2058.13 498.262C2055.76 518.649 2032.17 513.578 2013.27 536.462C1994.4 559.423 1963.71 569.59 1947.2 567.042C1930.7 564.493 1895.26 554.3 1864.6 569.59C1833.9 584.854 1812.63 607.815 1800.84 605.241C1789.05 602.693 1789.05 587.377 1772.52 589.951C1755.98 592.5 1746.59 587.403 1734.77 579.784C1722.95 572.139 1713.52 584.88 1694.62 569.59C1675.75 554.326 1642.69 556.848 1628.55 554.326C1614.39 551.777 1560.08 554.326 1541.21 551.778C1522.33 549.229 1496.35 556.874 1493.98 546.681C1491.64 536.462 1477.48 528.817 1472.74 505.933C1468.03 482.972 1456.23 475.353 1444.41 472.804C1432.59 470.256 1431.2 456.819 1420.8 454.992C1415.81 454.117 1409.81 437.102 1393.3 437.102C1376.79 437.102 1319.06 429.843 1310.8 415.274C1302.56 400.704 1319.06 397.461 1319.06 382.892C1319.06 368.322 1328.05 348.888 1321.3 343.251C1314.53 337.562 1303.31 324.614 1301.79 313.314C1300.29 301.937 1282.29 286.621 1270.29 285.797C1258.3 284.973 1248.59 276.891 1237.31 266.388C1226.06 255.86 1215.55 256.633 1211.07 229.965C1210.76 228.215 1210.3 226.825 1209.89 225.255C1205.38 224.74 1199.61 222.861 1195.9 222.861C1192.97 222.861 1189.47 220.235 1186.3 216.683C1183.34 227.829 1173.58 233.363 1173.58 242.141C1173.58 251.845 1169.85 263.969 1157.82 263.969C1145.8 263.969 1134.59 273.699 1133.82 293.931C1133.05 314.163 1144.33 316.583 1139.07 325.515C1133.82 334.422 1112.06 343.276 1104.57 339.261C1097.08 335.22 1082.84 337.639 1070.81 336.043C1058.81 334.422 1049.8 318.231 1046.07 336.043C1042.31 353.856 1017.56 406.419 1023.56 412.082C1029.56 417.771 1034.04 430.692 1023.56 430.692C1013.08 430.692 1002.58 429.071 997.297 423.408C992.044 417.771 974.869 431.336 962.818 430.692C957.205 430.384 933.644 441.787 941.755 446.163C949.892 450.539 949.892 471.595 949.892 480.347C949.892 489.098 967.788 515.431 964.518 524.183C961.273 532.961 945.025 542.614 945.025 553.991C945.025 565.369 948.27 575.922 942.579 578.574C936.888 581.199 918.992 589.076 910.057 596.103C901.122 603.105 886.496 603.105 881.604 613.633C876.737 624.135 869.399 633.222 852.352 631.162C837.701 629.386 830.414 626.761 819.006 641.665C807.625 656.569 805.205 650.442 797.068 657.444C788.957 664.471 780.82 652.193 774.331 649.567C767.842 646.916 758.907 657.444 752.418 657.444C745.929 657.444 740.238 668.847 732.101 671.473C723.939 674.098 715.828 671.473 715.828 682.001C715.828 688.462 714.283 695.978 709.828 701.589H709.854L715.648 735.902C715.648 735.902 750.384 748.412 751.826 760.896C753.293 773.381 759.061 813.974 759.061 813.974C759.061 813.974 759.937 836.652 759.345 836.703C773.43 848.621 771.267 855.031 771.267 859.638C771.267 864.889 793.025 864.349 810.071 873.127C820.886 878.687 831.984 884.581 838.679 889.498C839.529 887.258 840.044 885.765 840.044 885.765L847.743 906.667C847.743 906.667 864.377 905.457 868.394 910.168C871.948 897.529 888.118 892.509 901.122 893.333C914.924 894.208 928.211 889.086 924.966 898.739C921.722 908.366 908.512 918.044 897.955 920.67C893.964 921.7 900.144 952.666 894.376 952.898C893.397 958.664 884.926 963.168 884.926 966.18C884.926 974.005 870.686 969.192 877.922 983.246C885.157 997.301 881.681 1003.4 871.562 994.057C861.442 984.688 876.222 1024.71 881.964 1032.51C887.758 1040.34 876.351 1075.42 886.496 1076.99C896.616 1078.54 910.521 1100.83 922.108 1100.83C933.695 1100.83 947.111 1107.47 947.111 1107.47C947.111 1107.47 962.999 1118.41 962.999 1124.67C962.999 1125.39 962.741 1126.21 962.277 1127.06C974.895 1125.67 991.838 1125.21 993.331 1119.57C994.979 1113.42 1002.63 1113.42 1014.01 1125.7C1025.39 1137.97 1071.71 1169.53 1088.76 1184.44C1105.86 1199.34 1145.64 1215.99 1159.44 1215.12C1173.27 1214.24 1186.27 1225.65 1207.39 1224.77C1210.58 1224.67 1213.28 1224.77 1215.78 1224.98C1218.8 1221.53 1223.87 1221.45 1227.73 1215.2C1233.52 1205.83 1242.23 1223.02 1239.32 1235.48C1237.95 1241.27 1256.49 1245.06 1258.71 1250.18C1261.59 1245.73 1257.6 1242.22 1259.97 1235.89C1267.28 1216.61 1268.31 1217.75 1275.65 1211.62C1282.96 1205.49 1256.6 1254.14 1272.05 1262.92C1286.59 1271.21 1337.06 1259.32 1358.87 1280.94C1363.41 1278.75 1394.02 1293.27 1396.52 1293.27C1400.85 1293.27 1422.68 1287.58 1429.92 1279.78C1437.15 1271.98 1432.59 1229.2 1441.27 1230.77C1449.95 1232.31 1433.86 1221.12 1452.63 1210.18C1471.45 1199.26 1459.17 1176.23 1467.85 1168.4C1476.52 1160.57 1486.64 1157.46 1486.64 1165.26C1486.64 1173.06 1498.23 1182.45 1501.14 1191.77C1503.71 1200.16 1518.93 1203.54 1522.15 1204.13C1524.88 1202.58 1527.07 1201.22 1528.33 1200.24C1537.27 1193.24 1552.69 1201.12 1552.69 1211.62C1552.69 1222.12 1553.51 1233.52 1560.85 1233.52C1568.19 1233.52 1575.45 1233.52 1575.45 1252.83C1575.45 1272.14 1581.94 1294.04 1566.52 1310.72C1551.07 1327.38 1533.17 1357.18 1536.47 1365.94C1539.71 1374.71 1531.58 1391.39 1542.96 1385.24C1554.34 1379.11 1580.35 1385.24 1576.25 1392.24C1572.18 1399.27 1577.08 1423.8 1587.63 1424.68C1598.22 1425.58 1604.71 1431.7 1601.43 1442.23C1598.19 1452.76 1592.5 1468.51 1601.43 1468.51C1610.37 1468.51 1623.37 1468.51 1621.75 1479.07C1620.13 1489.57 1628.24 1499.22 1644.49 1492.19C1654.04 1488.08 1658.83 1484.34 1660.99 1488.49C1667.46 1488.26 1667.92 1504.11 1679.07 1507.12C1690.63 1510.24 1684.86 1480.59 1680.51 1475.87C1676.16 1471.19 1681.95 1450.91 1686.31 1455.59C1690.66 1460.28 1703.64 1455.59 1710.9 1446.22C1718.13 1436.88 1732.6 1454.05 1738.42 1443.11C1744.22 1432.19 1757.19 1450.91 1770.22 1443.11C1783.25 1435.31 1789.05 1449.36 1794.81 1438.42C1800.58 1427.48 1819.41 1413.45 1823.76 1418.11C1828.11 1422.8 1830.99 1432.17 1854.12 1435.31C1877.29 1438.42 1864.24 1450.91 1864.24 1458.73C1864.24 1466.56 1890.29 1486.81 1900.41 1488.38C1902.29 1488.69 1904.92 1491.11 1907.93 1494.87C1914.96 1491.14 1927.53 1497.37 1930.31 1488.41C1933.55 1477.86 1945.45 1480.77 1950.34 1489.54C1955.21 1498.3 1960.64 1500.07 1971.48 1489.54C1982.35 1479.04 1987.73 1500.07 1981.24 1505.94C1974.75 1511.76 1979.08 1529.88 1989.38 1540.41C1999.68 1550.91 2001.27 1533.97 1999.14 1523.47C1996.97 1512.94 2016.47 1502.41 2050.61 1490.14C2084.73 1477.83 2121.55 1450.93 2122.09 1445.11C2122.63 1439.27 2146.48 1455.62 2157.86 1446.27C2160.33 1444.24 2164.24 1442.62 2168.91 1441.28C2170.94 1439.04 2173.18 1436.93 2175.7 1435.13C2182.24 1430.47 2188.78 1426.32 2195.4 1422.44C2198.57 1416.54 2203.77 1411.5 2211.68 1408.23C2233.79 1399.09 2262.97 1392.63 2284.01 1378.52C2285.09 1376.13 2285.68 1373.84 2285.68 1371.98C2285.68 1367.92 2293.89 1365.42 2300.92 1362.54C2313.26 1345.27 2311.51 1324.47 2314.11 1304.31C2319.82 1260.32 2347.48 1239.81 2384.69 1238.6C2384.87 1238.44 2385.05 1238.31 2385.23 1238.16C2385.97 1235.87 2386.64 1233.52 2386.98 1231.08C2388.63 1219.98 2403.77 1210.05 2410.8 1207.11C2417.85 1204.21 2420.56 1188.43 2418.39 1174.99C2416.26 1161.53 2430.88 1165.03 2424.37 1159.75C2417.85 1154.5 2427.05 1139.9 2440.05 1135.81C2453.05 1131.72 2431.94 1125.26 2424.91 1131.13C2417.85 1136.97 2410.26 1114.16 2403.77 1122.92C2397.28 1131.69 2378.87 1117.66 2390.76 1114.76C2402.66 1111.82 2421.1 1097.23 2429.23 1094.29C2437.35 1091.36 2417.29 1072.08 2407.01 1072.67C2396.74 1073.24 2385.36 1046.93 2374.52 1046.93C2363.68 1046.93 2382.63 1038.74 2395.12 1045.77C2407.58 1052.77 2422.18 1058.64 2427.61 1052.77C2433.02 1046.93 2406.5 1023.58 2396.74 1015.37C2386.98 1007.16 2396.2 996.065 2390.25 991.38C2384.3 986.721 2371.27 956.913 2366.95 943.476C2362.65 930.014 2339.88 927.697 2334.45 918.919C2329.07 910.142 2334.99 889.678 2351.8 882.084C2368.59 874.491 2361.54 859.278 2369.13 861.028C2376.73 862.804 2383.19 859.252 2389.17 845.841C2395.14 832.405 2405.42 840.564 2411.39 833.537C2417.36 826.536 2443.89 827.128 2453.08 820.126C2462.3 813.125 2444.4 791.477 2431.94 794.977C2419.5 798.478 2404.87 793.227 2396.2 779.198C2387.52 765.169 2364.78 804.913 2347.43 813.691C2330.12 822.443 2318.74 797.912 2324.69 782.133C2330.66 766.353 2311.17 766.945 2286.79 768.104C2262.4 769.288 2271.62 721.333 2286.25 719.016C2300.87 716.673 2322.53 733.611 2331.75 704.395C2340.94 675.153 2353.92 697.96 2374.54 672.245C2395.14 646.53 2418.93 630.75 2436.83 645.938C2454.7 661.125 2417.88 685.115 2411.9 699.71C2405.96 714.331 2417.31 719.016 2406.5 730.085C2395.66 741.23 2410.8 744.113 2431.94 729.518C2453.08 714.949 2479.06 697.394 2499.66 688.616C2505.14 686.273 2511.19 685.682 2517.32 686.196C2520.23 677.728 2523.63 670.983 2527.67 668.821C2541.84 661.176 2589.04 638.267 2596.12 628.048C2603.2 617.88 2610.28 600.067 2619.7 600.067C2629.13 600.067 2629.13 610.235 2643.32 610.235C2657.5 610.235 2674.01 615.332 2666.9 602.59C2659.82 589.848 2664.59 589.848 2681.07 587.274C2697.57 584.752 2695.23 566.939 2707.05 566.939C2718.87 566.939 2716.47 536.359 2728.26 536.359C2740.06 536.359 2744.82 554.223 2758.98 549.1C2761.66 548.096 2765.16 548.895 2769.03 550.671C2772.06 548.122 2775 545.703 2777.99 543.412C2776.57 527.452 2778.27 513.14 2775.39 505.624C2769.95 491.595 2775.39 481.067 2773.17 472.907C2771.01 464.696 2769.93 444.85 2778.6 444.85C2787.28 444.85 2798.12 421.426 2808.91 429.637C2819.78 437.848 2841.41 440.165 2841.41 429.637C2841.41 419.109 2856.57 417.951 2858.76 403.896C2860.93 389.867 2877.17 386.367 2880.44 373.522C2883.69 360.677 2889.12 330.252 2899.94 323.25C2910.78 316.249 2897.77 311.589 2898.88 290.533L2899.14 290.585Z" fill="white" stroke="#73C386" stroke-width="1.12697" stroke-miterlimit="10"/>
<path d="M924.238 2163.41C927.663 2164.49 930.959 2166.01 934.023 2168.1C949.936 2178.93 962.863 2191.68 974.141 2205.94C993.891 2194.3 1012.2 2165.34 1013.07 2139.11C1014.36 2099.34 950.58 2025.7 940.641 2026.88C928.796 2028.3 931.422 2053.86 924.831 2072.31C918.264 2090.8 919.603 2109.23 922.204 2136.23C923.08 2145.32 923.388 2154.53 924.238 2163.39V2163.41Z" fill="white" stroke="#73C386" stroke-width="1.12697" stroke-miterlimit="10"/>
<path opacity="0.2" d="M257.245 1323.05C257.297 1305.63 269.399 1291.29 280.368 1285.39C291.904 1279.14 302.05 1276.02 313.637 1274.45C325.224 1272.91 313.637 1247.94 304.959 1244.8C296.282 1241.66 304.959 1208.89 287.63 1201.07C270.249 1193.24 254.825 1180.6 250.01 1166.75C245.658 1154.24 223.977 1141.76 225.419 1132.39C226.861 1123.05 268.807 1093.34 263.013 1076.17C257.22 1059.03 229.745 1062.14 226.861 1055.89C223.977 1049.66 228.329 1027.8 221.067 1010.64C213.831 993.44 226.861 977.841 221.067 968.472C215.273 959.128 223.977 940.362 225.419 934.107C226.861 927.878 241.306 918.509 239.864 902.935C239.015 893.488 243.418 887.542 248.001 884.968C243.031 869.137 241.461 841.466 241.461 836.575C241.461 830.732 224.157 830.732 215.479 831.89C206.802 833.075 199.231 809.702 190.554 809.702C181.876 809.702 174.306 802.7 174.306 795.673C174.306 788.646 153.706 783.987 142.891 785.145C132.051 786.278 129.888 775.775 125.536 775.775C121.184 775.775 103.906 769.932 98.4474 762.931C93.04 755.903 61.6253 753.587 56.2179 761.747C50.7848 769.958 39.9442 765.273 30.1851 765.273C20.426 765.273 3.12222 781.644 -2.31094 789.804C-5.6069 794.824 -21.0825 795.905 -32.5925 795.982C-32.1548 806.047 -32.1548 814.129 -33.7255 816.703C-39.3904 825.893 -81.4139 834.233 -112.828 835.417C-144.243 836.601 -146.406 792.172 -179.983 792.172C-204.42 792.172 -223.037 768.079 -224.324 745.478C-238.796 739.532 -252.572 729.313 -250.563 724.989C-247.679 718.759 -240.444 679.711 -257.799 689.08C-275.154 698.45 -299.745 728.103 -331.546 723.418C-363.398 718.734 -340.275 715.619 -356.162 707.82C-372.076 700.02 -361.956 681.255 -377.869 678.14C-393.757 675 -382.221 698.424 -390.873 698.424C-399.525 698.424 -392.341 724.937 -389.431 731.192C-386.521 737.447 -395.225 771.786 -389.431 773.33C-383.637 774.9 -370.659 799.92 -372.076 804.605C-373.543 809.29 -359.072 824.889 -359.072 835.803C-359.072 846.717 -346.043 859.253 -338.807 859.253C-331.572 859.253 -321.478 863.938 -324.362 873.282C-327.271 882.652 -320.036 896.68 -328.713 896.68C-337.391 896.68 -335.949 923.245 -343.159 927.904C-350.395 932.589 -344.601 960.698 -338.807 963.812C-333.014 966.927 -320.036 974.752 -321.478 985.666C-322.945 996.606 -291.067 1013.75 -280.922 1015.32C-270.828 1016.86 -269.386 1032.49 -263.593 1038.72C-257.799 1044.97 -267.944 1057.46 -266.502 1065.26C-265.06 1073.08 -252.031 1079.31 -253.473 1091.8C-254.323 1099.34 -242.581 1111.95 -232.796 1122.92C-229.551 1121.86 -226.436 1121.22 -223.887 1121.22C-214.127 1121.22 -214.668 1109.56 -207.098 1116.56C-199.502 1123.59 -189.228 1115.94 -181.606 1115.37C-174.009 1114.81 -153.436 1156.89 -144.243 1177.33C-134.999 1197.8 -135.565 1204.85 -123.102 1213.6C-110.64 1222.38 -96.5547 1217.69 -78.7102 1237.57C-60.8142 1257.44 -14.7996 1270.9 4.71866 1272.03C24.2111 1273.22 38.8627 1249.25 63.7883 1254.5C88.6882 1259.76 82.7143 1294.25 91.9584 1306.55C94.3016 1309.67 102.645 1312.52 114.026 1315.15C120.232 1305.73 130.943 1299.09 146.213 1299.29C182.237 1299.81 219.393 1306.66 251.117 1323.72C253.151 1323.36 255.211 1323.18 257.297 1323.08L257.245 1323.05Z" fill="white" stroke="#73C386" stroke-width="1.12697" stroke-miterlimit="10"/>
<path opacity="0.2" d="M721.408 807.668C713.838 808.853 715.46 801.825 707.323 796.574C700.886 792.378 681.548 811.375 667.282 824.889C660.613 827.283 654.021 829.986 648.253 831.865C640.271 834.413 633.782 835.263 630.46 831.093C621.783 820.153 644.932 792.069 629.018 784.244C613.105 776.445 627.551 753.021 614.521 751.45C601.518 749.906 581.279 774.849 581.279 785.814C581.279 796.78 546.542 793.588 546.542 804.528C546.542 815.468 514.716 802.958 508.922 815.442C503.154 827.927 487.241 806.073 477.121 806.073C467.002 806.073 459.74 790.474 446.737 795.133C433.733 799.843 426.472 790.474 416.326 788.903C406.207 787.359 398.945 812.328 387.435 807.643C375.848 802.958 370.054 831.067 365.703 846.692C361.351 862.291 312.169 862.291 313.637 879.46C315.079 896.629 284.72 902.91 281.81 891.97C278.926 881.03 260.103 887.285 255.752 884.145C251.426 881.03 238.396 887.285 239.838 902.91C241.28 918.509 226.835 927.853 225.393 934.108C223.951 940.363 215.273 959.102 221.041 968.472C226.835 977.816 213.806 993.44 221.041 1010.64C228.277 1027.8 223.951 1049.66 226.835 1055.89C229.719 1062.14 257.194 1059.03 262.987 1076.17C268.781 1093.34 226.835 1123.02 225.393 1132.39C224.775 1136.28 228.251 1140.76 232.809 1145.52C249.314 1146.29 270.197 1148.48 289.149 1152.21C312.967 1156.89 434.325 1137.02 436.463 1132.36C438.651 1127.68 432.162 1098.44 433.218 1092.62C434.325 1086.78 449.466 1072.75 462.47 1073.91C475.473 1075.09 487.395 1077.41 487.395 1066.9C487.395 1056.4 523.162 1043.53 526.406 1052.85C529.65 1062.25 542.654 1058.72 543.71 1035.32C544.791 1011.95 542.654 994.418 555.632 993.234C568.636 992.076 581.665 983.891 580.558 976.863C579.45 969.862 564.31 955.833 568.661 951.148C572.987 946.489 605.509 962.86 609.835 952.332C614.187 941.804 607.672 930.118 613.079 920.774C618.513 911.43 631.49 902.06 630.435 892.716C629.353 883.372 631.49 877.529 623.92 869.344C616.35 861.158 619.568 850.63 629.353 849.446C631.053 849.266 632.907 848.288 634.812 846.923C642.331 845.302 648.794 843.731 653.738 839.767C667.282 828.93 693.212 819.973 703.203 823.885C711.366 827.103 745.999 831.556 757.02 818.892C750.531 815.597 725.914 806.999 721.434 807.694L721.408 807.668Z" fill="white" stroke="#73C386" stroke-width="1.12697" stroke-miterlimit="10"/>
<path opacity="0.5" d="M810.235 873.078C793.188 864.301 781.163 862.627 781.163 857.376C781.163 852.769 768.134 858.406 754.049 846.488C752.195 846.771 752.092 837.53 747.148 838.843C745.371 836.964 740.247 836.861 737.724 835.574C726.703 848.238 711.304 827.054 703.168 823.862C693.177 819.949 667.247 828.907 653.703 839.744C648.733 843.708 642.27 845.278 634.777 846.9C632.871 848.238 630.991 849.217 629.318 849.422C619.559 850.581 616.314 861.109 623.885 869.32C631.455 877.506 629.318 883.349 630.399 892.693C631.481 902.037 618.477 911.407 613.044 920.75C607.636 930.069 614.151 941.781 609.799 952.309C605.473 962.862 572.952 946.466 568.626 951.125C564.274 955.809 579.441 969.838 580.522 976.84C581.629 983.867 568.626 992.078 555.596 993.211C542.619 994.395 544.756 1011.92 543.674 1035.3C542.619 1058.7 529.615 1062.22 526.371 1052.83C523.101 1043.48 487.36 1056.35 487.36 1066.88C487.36 1077.41 475.438 1075.09 462.434 1073.88C449.431 1072.72 434.29 1086.78 433.183 1092.6C432.101 1098.41 438.616 1127.66 436.427 1132.34C434.29 1137.03 312.932 1156.87 289.114 1152.19C270.162 1148.45 249.253 1146.27 232.773 1145.49C239.056 1152.16 247.425 1159.42 249.974 1166.7C254.789 1180.55 270.239 1193.22 287.594 1201.02C304.924 1208.84 296.246 1241.61 304.924 1244.75C313.602 1247.89 325.189 1272.86 313.602 1274.4C302.014 1275.97 291.895 1279.09 280.333 1285.34C269.364 1291.24 257.261 1305.58 257.21 1323C261.047 1322.82 264.909 1322.93 268.643 1323.65C276.831 1325.19 284.35 1327.89 291.354 1331.45C334.948 1319.63 380.937 1312.73 424.531 1315.87C451.671 1317.83 464.443 1340.46 462.769 1360.66C465.988 1367.71 462.898 1375.36 467.327 1383.06C472.734 1392.4 483.575 1390.65 499.282 1398.22C501.497 1399.27 503.351 1400.64 505.127 1402.13C506.106 1400.89 506.93 1399.94 507.47 1399.25C516.148 1388.33 519.47 1386.63 542.619 1391.32C565.768 1396 563.811 1395.46 576.84 1398.6C589.869 1401.72 607.92 1383.37 613.688 1374.05C619.481 1364.65 597.156 1336.83 589.947 1329.03C582.711 1321.23 607.817 1301.95 609.284 1286.35C610.726 1270.72 616.314 1257.62 616.314 1245.11C616.314 1232.6 574.033 1227.56 578.359 1222.87C582.711 1218.19 601.482 1235.38 605.808 1225.99C610.16 1216.59 623.189 1222.87 630.425 1224.42C637.661 1225.99 649.196 1208.82 650.664 1194.76C652.106 1180.73 676.723 1179.14 681.049 1174.45C685.4 1169.77 716.042 1186.42 718.952 1180.17C721.862 1173.94 738.058 1186.83 738.058 1169.64C738.058 1152.44 751.01 1128.22 759.688 1126.65C768.366 1125.11 758.22 1086.29 759.688 1073.81C761.13 1061.3 778.588 1048.19 790.176 1045.08C801.763 1041.94 779.335 986.75 766.331 989.865C753.328 992.979 721.553 977.741 721.553 977.741C721.553 977.741 722.995 944.973 715.759 940.288C708.524 935.603 718.669 918.434 734.582 918.434C750.495 918.434 779.438 937.147 789.532 929.348C799.651 921.548 819.916 916.864 825.684 913.749C830.062 911.381 836.139 896.4 838.791 889.372C832.07 884.456 820.998 878.535 810.183 873.001L810.235 873.078Z" fill="white" stroke="#73C386" stroke-width="1.12697" stroke-miterlimit="10"/>
<g filter="url(#filter0_d_3030_5784)">
<path d="M814.772 2078.59C815.055 2080.4 816.317 2082.38 818.377 2084.36C821.004 2086.88 825.613 2089.82 829.887 2089.82C830.685 2089.82 831.432 2089.72 832.127 2089.48C861.611 2079.8 873.249 2061.61 880.949 2049.56C884.991 2043.25 888.468 2037.82 893.077 2036.17L895.291 2035.38L893.386 2034.04C891.661 2032.83 890.553 2031.44 890.064 2029.79C888.39 2024.28 893.875 2017.59 899.694 2010.48C900.827 2009.09 902.141 2007.5 903.299 2005.98C903.505 2005.7 903.608 2005.34 903.531 2005C902.604 2000.24 903.377 1996.56 905.9 1994.06C908.449 1991.54 912.698 1990.25 918.543 1990.25C923.307 1990.25 928.199 1991.13 931.469 1991.87L931.856 1991.95L932.216 1991.8C932.422 1991.69 932.577 1991.57 932.68 1991.49C935.074 1989.17 934.997 1979.54 934.662 1967.19C934.456 1959.85 934.379 1955.19 934.868 1952.67L934.946 1952.28L934.791 1951.92C925.83 1932.57 933.967 1914.32 941.821 1896.68C949.829 1878.74 958.094 1860.18 950.138 1839.31L949.958 1838.84L950.035 1838.36C950.344 1836.09 949.468 1833.54 948.722 1831.25C947.795 1828.47 946.816 1825.59 947.383 1822.83V1822.73V1822.63C947.434 1819.92 947.898 1817.3 948.387 1814.49C949.391 1808.65 950.344 1803.17 947.486 1797.86L947.434 1797.76L947.357 1797.66C943.34 1792.9 942.259 1784.69 944.422 1775.06C946.456 1766.02 951.116 1757.25 956.575 1752.15C960.077 1748.88 963.837 1747.16 967.493 1747.16C970.789 1747.16 973.982 1748.52 976.943 1751.2L977.664 1751.87L977.51 1753.38L977.87 1753.77C978.282 1754.23 979.003 1754.49 979.827 1754.49C980.265 1754.49 980.703 1754.41 981.089 1754.26C982.093 1753.87 982.66 1753.08 982.711 1752.05C982.814 1747.44 985.054 1746.25 987.398 1745.02C990.41 1743.42 993.552 1741.75 993.449 1732.59V1732.12L993.629 1731.71C996.255 1726.13 1003.57 1724.81 1011.32 1723.4C1021.88 1721.49 1032.79 1719.51 1035.73 1707.51L1035.78 1707.36L1035.86 1707.21C1037.02 1704.55 1036.01 1703.32 1033.34 1701.54C1030.91 1699.92 1029.94 1698.71 1031.3 1696.52V1696.47C1036.79 1686.77 1045.51 1681.93 1054.78 1676.78C1062.66 1672.4 1070.8 1667.87 1076.08 1660.1L1076.13 1660.02L1076.18 1659.92C1080.25 1650.88 1088 1647.26 1095.52 1643.73C1100.7 1641.31 1106.05 1638.81 1109.84 1634.54L1109.91 1634.44L1109.97 1634.36C1113.57 1629.08 1117.41 1623.78 1121.14 1618.66C1124.36 1614.23 1127.71 1609.65 1130.9 1605.04L1130.98 1604.94C1132.32 1603.19 1133.01 1601.87 1133.11 1600.84C1133.19 1600.02 1133.78 1599.33 1134.58 1599.12C1137.13 1598.45 1139.47 1595.34 1141.51 1592.61C1143.05 1590.52 1144.65 1588.39 1146.38 1587.23L1146.45 1587.18H1146.5C1147.95 1585.89 1147.25 1584.81 1146.45 1583.52C1145.58 1582.16 1144.99 1581 1145.6 1579.56L1145.65 1579.45V1579.32C1146.89 1573.97 1156.01 1563.93 1162.52 1563.83H1162.62C1165.92 1563.83 1167.26 1566.58 1167.8 1568.87V1568.98L1167.85 1569.03C1167.95 1569.34 1168.06 1569.57 1168.16 1569.75L1168.6 1570.57L1169.5 1570.39C1169.68 1570.37 1169.89 1570.29 1170.12 1570.21L1170.37 1570.14C1178.72 1567.87 1188.68 1563.19 1197.03 1557.57C1204.18 1552.76 1213.56 1545.04 1217.44 1535.49C1220.25 1528.59 1219.79 1522.13 1216 1515.69L1215.93 1515.56C1213.35 1510.57 1212.66 1506.4 1213.87 1502.82C1215.75 1497.24 1222.13 1494.25 1227.26 1491.86C1230.55 1490.31 1229.62 1490.29 1233.44 1488.54L1235.75 1487.61L1238.12 1486.86L1239.07 1486.37C1240.8 1485.47 1242.78 1484.75 1244.84 1484.01C1249.76 1482.23 1254.86 1480.38 1256.69 1475.8L1256.79 1475.51L1256.97 1475.28C1258.18 1473.76 1258.67 1470.83 1259.13 1468C1259.8 1463.85 1260.34 1461.28 1261.97 1460.17C1262.4 1459.86 1262.92 1459.73 1263.49 1459.73C1263.72 1459.73 1263.95 1459.73 1264.18 1459.81H1264.33L1264.46 1459.89C1265.16 1460.12 1265.91 1460.25 1266.63 1460.35C1269.05 1460.71 1270.72 1461.2 1270.51 1464.11V1464.21V1464.31C1270.8 1467.17 1269.87 1470.96 1268.97 1474.64C1267.58 1480.22 1266.81 1483.98 1268.45 1485.34C1268.89 1485.71 1269.46 1485.89 1270.21 1485.89C1271.75 1485.89 1273.84 1485.11 1275.3 1484.5L1276.15 1484.14L1276.98 1484.57C1277.67 1484.93 1278.24 1485.11 1278.7 1485.11C1278.86 1485.11 1279.06 1485.11 1279.32 1484.96L1279.5 1484.86L1279.63 1484.73C1280.07 1484.26 1280.3 1483.47 1280.61 1481.17C1281.05 1477.78 1281.69 1474.97 1284.91 1474.97C1285.01 1474.97 1285.09 1474.97 1285.19 1474.97H1285.3H1285.4C1285.6 1474.95 1285.78 1474.92 1285.99 1474.92C1288.05 1474.92 1288.9 1476.64 1289.78 1478.88C1290.14 1479.84 1290.5 1480.71 1291.01 1481.36L1291.11 1481.48L1291.19 1481.61C1291.37 1481.92 1291.5 1482.28 1291.63 1482.59C1291.94 1483.39 1292.22 1483.88 1292.66 1484.16L1292.92 1484.34H1293.17C1293.17 1484.34 1293.33 1484.37 1293.41 1484.37C1293.64 1484.37 1293.92 1484.34 1294.2 1484.26L1294.38 1484.21H1294.59C1297.06 1484.08 1298.81 1482.69 1299.95 1479.94C1302.8 1472.96 1300.18 1460.14 1297.09 1456.95C1293.46 1453.12 1294.05 1447.69 1294.67 1441.95C1295.16 1437.29 1295.65 1432.89 1293.82 1429.41L1293.64 1429.05L1293.28 1428.87C1289.6 1427.07 1289.96 1423.88 1290.78 1420.22C1291.24 1418.08 1291.5 1416.72 1290.83 1415.87C1290.42 1415.33 1289.65 1415.05 1288.46 1414.97H1288.36H1288.26C1287.66 1415.05 1287.15 1415.07 1286.69 1415.07C1285.27 1415.07 1284.27 1414.74 1283.62 1414.07C1282.46 1412.86 1282.82 1410.88 1283.21 1408.77C1283.57 1406.73 1283.93 1404.8 1282.9 1403.72C1282.31 1403.08 1281.23 1402.74 1279.66 1402.74C1279.3 1402.74 1278.91 1402.74 1278.5 1402.79H1278.37L1277.49 1403.05L1276.69 1402.38C1275.72 1401.56 1274.92 1399.6 1274.45 1396.87C1273.81 1393.01 1274.12 1389.07 1275.15 1387.68L1275.43 1387.3L1275.92 1387.07C1282.26 1384.03 1281.92 1380.19 1280.76 1373.66V1373.5C1280.63 1372.96 1280.53 1372.39 1280.45 1371.8V1371.65C1280.09 1368.35 1277.88 1367.97 1272.91 1367.92C1268.27 1367.86 1262.53 1367.79 1259.18 1361.79L1259.03 1361.51L1258.75 1361.35C1257.33 1360.5 1255.66 1358.49 1255.68 1353.73C1255.68 1348.87 1257.67 1342.53 1260.83 1340.78L1261.06 1340.66L1261.32 1340.6C1266.52 1339.29 1267.01 1337.13 1267.17 1334.19C1267.22 1332.78 1267.3 1331.34 1268.48 1330.33C1269.25 1329.66 1270.69 1328.92 1274.87 1328.92C1276.57 1328.92 1278.6 1329.05 1280.94 1329.3H1281.1H1281.25C1283.42 1329.02 1285.24 1327.6 1285.99 1325.57C1286.81 1323.38 1286.3 1320.94 1284.65 1319.14L1284.52 1319.01C1281.84 1315.66 1279.58 1314.94 1276.69 1314.01C1273.71 1313.06 1269.97 1311.85 1264.8 1306.94C1259.39 1301.76 1260.19 1292.24 1262.51 1285.65C1264.54 1279.88 1267.76 1275.97 1270.72 1275.71C1270.82 1275.71 1270.93 1275.71 1271.06 1275.71C1272.68 1275.71 1274.09 1276.77 1275.28 1278.8L1275.38 1279.01C1275.82 1279.93 1276.51 1281.48 1278.47 1281.48C1279.37 1281.48 1280.45 1281.17 1282.33 1280.42C1283.8 1279.83 1285.45 1279.16 1287.05 1279.16C1288.26 1279.16 1289.29 1279.55 1290.26 1280.34L1290.45 1280.5C1295.98 1286.08 1300.1 1289.56 1303.58 1289.56C1303.96 1289.56 1304.35 1289.51 1304.71 1289.43C1307.16 1288.84 1309.14 1286.11 1310.79 1281.12C1311.04 1280.32 1311.77 1279.78 1312.62 1279.78C1313.75 1279.78 1314.73 1279.52 1315.47 1279.08C1316.68 1278.39 1318.2 1279.13 1318.38 1280.52C1318.77 1283.23 1319.49 1285.75 1320.49 1287.78L1320.55 1287.91L1320.6 1288.04C1321.04 1289.41 1321.78 1290.44 1322.84 1291.21C1323.76 1291.88 1323.92 1293.19 1323.2 1294.06C1322.81 1294.53 1322.68 1295.15 1322.79 1295.97V1296.1L1322.84 1296.2C1324.9 1302.46 1324.05 1307.68 1323.46 1311.52C1322.99 1314.4 1322.63 1316.67 1323.69 1318.06C1324.41 1319.01 1325.82 1319.6 1328.01 1319.88H1328.25L1328.48 1320.01C1334.63 1322.46 1341.48 1323.64 1349.44 1323.64C1358.04 1323.64 1366.87 1322.28 1375.42 1320.96C1383.94 1319.65 1391.98 1318.42 1399.67 1318.42C1405.37 1318.42 1410.28 1319.11 1414.71 1320.55L1415.18 1320.71L1415.51 1321.04C1416.46 1321.99 1417.83 1322.48 1419.53 1322.48C1420.4 1322.48 1421.33 1322.35 1422.31 1322.12C1423.52 1321.81 1424.7 1322.71 1424.73 1323.95C1424.76 1325.06 1425.4 1326.34 1426.61 1327.76L1426.89 1328.09L1427 1328.53C1428.15 1332.98 1425.09 1336.69 1421.82 1340.63C1417.88 1345.39 1415.2 1349.12 1416.49 1353.71L1416.57 1353.99V1354.27C1416.57 1354.48 1416.57 1354.71 1416.57 1354.94C1416.67 1356.46 1415.07 1357.52 1413.73 1356.82C1412.96 1356.43 1412.27 1356.25 1411.65 1356.25C1411.34 1356.25 1411.03 1356.31 1410.75 1356.41C1409.33 1356.92 1408.48 1358.7 1408.25 1361.69C1407.86 1366.34 1403.77 1367.14 1397.59 1367.81C1392.13 1368.4 1388.16 1369.07 1386.67 1372.45L1386.59 1372.6L1386.49 1372.75C1378.92 1383.87 1381.91 1390.49 1385.69 1398.88C1387.37 1402.59 1389.09 1406.4 1390.25 1411.16C1390.87 1413.45 1392.62 1413.89 1395.43 1414.35C1397.36 1414.66 1399.37 1415 1400.76 1416.46L1400.83 1416.54L1400.96 1416.64C1400.96 1416.64 1401.12 1416.75 1401.19 1416.8C1401.66 1417.11 1402.25 1417.05 1402.66 1416.69C1406.47 1413.42 1406.32 1409.95 1406.11 1405.52C1405.93 1401.2 1405.73 1396.69 1408.89 1391.21C1409.05 1390.93 1409.1 1390.59 1409.02 1390.28C1408.33 1387.79 1408.35 1385.91 1409.12 1384.52C1410.23 1382.48 1412.73 1381.82 1415.12 1381.15C1416.28 1380.84 1417.57 1380.48 1418.7 1379.91C1419.97 1379.29 1421.43 1380.14 1421.51 1381.53C1421.74 1384.62 1422.95 1387.48 1428.59 1392.99H1428.62C1430.14 1394.58 1431.19 1395.9 1431.35 1397.23C1431.48 1398.42 1430.93 1399.52 1430.14 1401.1C1429.88 1401.61 1429.6 1402.18 1429.29 1402.82L1429.13 1403.18L1429.21 1403.57C1430.52 1409.98 1432.81 1416.05 1435.05 1421.92C1438.74 1431.62 1442.24 1440.79 1441.9 1451.83V1452.04L1441.85 1452.24C1441.72 1452.81 1441.7 1453.27 1441.85 1453.63L1442.11 1454.4L1442.96 1454.46H1443.04C1443.29 1454.46 1443.58 1454.4 1443.86 1454.28C1444.66 1453.92 1445.17 1453.09 1445.23 1452.11V1451.98V1451.86C1444.99 1450.59 1445.38 1449.46 1446.31 1448.72C1447 1448.15 1448.03 1447.81 1449.06 1447.81C1449.73 1447.81 1450.4 1447.94 1450.97 1448.2C1452.33 1448.79 1453.11 1449.93 1453.21 1451.42C1453.31 1452.86 1454.29 1453.37 1455.06 1453.37C1455.11 1453.37 1455.17 1453.37 1455.22 1453.37H1455.27C1456.27 1453.27 1457.28 1452.47 1457.25 1451.16V1451.01V1450.85C1457.3 1450.39 1457.33 1449.9 1457.35 1449.39C1457.48 1446.84 1457.82 1444.73 1460.96 1444.62C1462.53 1444.57 1463.56 1444.08 1464.13 1443.18C1465.75 1440.5 1463.15 1434.58 1459.59 1427.14C1456.71 1421.1 1454.99 1417.26 1455.32 1414.92V1414.74V1414.56C1454.6 1409.44 1457.25 1408.51 1460.08 1407.53C1461.86 1406.91 1463.69 1406.27 1464.77 1404.49C1466.01 1402.46 1466.08 1399.32 1465.03 1394.61L1464.9 1394.07L1465.08 1393.55C1466.98 1387.99 1465.47 1382.61 1463.84 1376.92C1463.17 1374.61 1462.5 1372.21 1462.09 1369.85V1369.69L1462.07 1369.54C1462.04 1367.17 1461.63 1365.5 1460.88 1364.62C1460.13 1363.75 1460.29 1362.41 1461.22 1361.74C1461.86 1361.27 1462.38 1360.86 1463.02 1360.37C1464.2 1359.45 1464.92 1358.91 1465.62 1358.73L1466.37 1358.55L1467.04 1358.91C1467.86 1359.34 1468.74 1360.37 1470.72 1364.34L1470.85 1364.62C1471.08 1365.26 1471.41 1365.7 1471.83 1365.88C1472.03 1365.96 1472.24 1366.01 1472.44 1366.01C1472.86 1366.01 1473.4 1365.86 1474.32 1365.5C1474.48 1365.44 1474.81 1365.29 1474.81 1365.29L1474.92 1365.24C1476.23 1364.41 1477.67 1364 1479.34 1364C1481.82 1364 1484.37 1364.85 1486.84 1365.68C1488.95 1366.4 1491.16 1367.12 1493.07 1367.12C1494.51 1367.12 1495.59 1366.68 1496.49 1365.78L1496.6 1365.68L1496.67 1365.55C1499.63 1360.73 1500.23 1355.43 1500.85 1349.85C1501.49 1344.1 1502.13 1338.18 1505.63 1333.09L1505.69 1333.04C1505.97 1332.52 1506.3 1332.01 1506.64 1331.44C1511.12 1324.18 1515.14 1316.77 1510.84 1313.01L1510.6 1312.8L1510.32 1312.73C1505.94 1311.67 1505.81 1308.53 1506.07 1305.16C1506.2 1303.59 1506.2 1302.82 1505.92 1302.28L1505.87 1302.15L1505.79 1302.04C1505.02 1301.12 1505.27 1299.7 1506.36 1299.11C1508.49 1297.9 1510.55 1296.36 1512.43 1294.45C1521.24 1285.7 1524.64 1272.11 1520.52 1262.15V1262.07L1520.44 1262.02C1516.91 1255.43 1518.64 1251.21 1520.31 1247.11C1521.03 1245.34 1521.78 1243.51 1522.11 1241.48C1522.35 1240.06 1523.97 1239.37 1525.15 1240.16C1525.95 1240.7 1526.75 1240.99 1527.65 1241.01C1527.73 1241.01 1527.83 1241.01 1527.91 1241.01C1533.6 1241.01 1540.6 1231.31 1546.24 1223.53C1549.49 1219.06 1552.29 1215.17 1554.51 1213.44C1562.18 1207.4 1567.61 1203.41 1572.84 1203.1C1573.07 1203.1 1573.28 1203.1 1573.51 1203.1C1578.25 1203.1 1583.09 1206.24 1589.73 1213.62L1590.07 1214.01H1590.58C1590.58 1214.01 1590.81 1214.04 1590.94 1214.04C1591.38 1214.04 1592.67 1214.04 1593.21 1213.24C1593.96 1212.11 1593.34 1210.23 1590.27 1204.59C1587.44 1199.39 1585.54 1195.5 1586.49 1192.72C1586.8 1191.82 1587.42 1191.1 1588.34 1190.61L1588.7 1190.41L1588.86 1190.05C1589.5 1188.63 1589.89 1187.42 1590.33 1186.18C1590.92 1184.46 1591.46 1182.84 1592.57 1180.86L1592.75 1180.52L1593.05 1180.29C1593.83 1179.67 1594.73 1179.29 1595.6 1178.9C1598.15 1177.77 1599.16 1177 1598.15 1174.29L1598.05 1173.98V1173.67C1597.77 1166.93 1592.13 1165.85 1584.17 1165.05C1580.9 1164.72 1577.81 1164.41 1575.29 1163.43L1575.16 1163.38C1574.23 1162.94 1573.28 1162.73 1572.27 1162.73C1570.11 1162.73 1568.03 1163.76 1565.71 1165C1563.88 1165.98 1561.79 1167.08 1559.73 1167.08C1558.32 1167.08 1557.01 1166.54 1555.77 1165.46L1555.07 1164.87V1163.94C1555.18 1160.65 1557.39 1157.43 1559.53 1154.29C1563.55 1148.42 1566.09 1143.87 1562.23 1138.59L1562.1 1138.38C1561.18 1136.87 1560.28 1136.09 1559.43 1136.09C1558.06 1136.09 1556.88 1137.61 1554.89 1140.78C1553.63 1142.79 1552.81 1144 1552.01 1144.59L1549.9 1146.21L1548.46 1142.3C1546.99 1138.33 1546.27 1136.32 1546.19 1134.86C1546.11 1133.31 1546.76 1132.36 1547.89 1130.58C1548.53 1129.61 1549.41 1128.24 1550.46 1126.36L1550.85 1125.64L1550.34 1125C1548.71 1122.99 1546.45 1121.96 1543.59 1121.96C1543.33 1121.96 1543.07 1121.96 1542.82 1121.96C1535.68 1122.4 1526.23 1129.22 1523.51 1134.52L1523.43 1134.68V1134.83C1523.3 1135.29 1523.2 1135.76 1523.12 1136.17C1522.58 1138.82 1522.24 1140.24 1521.08 1140.98C1520.6 1141.29 1519.98 1141.45 1519.18 1141.45C1518.33 1141.45 1517.27 1141.27 1515.93 1140.93H1515.86C1513.26 1140.16 1510.37 1139.88 1507.59 1139.62C1502.18 1139.1 1496.6 1138.59 1492.68 1134.55L1492.55 1134.39L1492.37 1134.29C1491.73 1133.96 1491.06 1133.8 1490.37 1133.8C1488.18 1133.8 1485.91 1135.35 1482.95 1137.51C1481.25 1138.77 1479.47 1140.06 1477.77 1140.7L1477.41 1140.85L1477.21 1141.19C1473.96 1146.21 1472.7 1150.43 1471.57 1154.16C1470.36 1158.2 1469.38 1161.4 1466.19 1163.61C1463.07 1165.77 1458.33 1166.67 1449.78 1166.75H1449.68H1449.58C1444.58 1167.75 1444.14 1170.46 1443.58 1173.85C1442.63 1179.83 1440.87 1184.64 1428.36 1187.73H1428.28C1423.91 1189.14 1423.78 1191 1423.91 1193.91C1424.09 1197.3 1423.8 1200.14 1418.45 1202.74L1418.21 1202.84L1418.06 1203.04C1416.1 1205.39 1414.09 1206.52 1411.93 1206.52C1410.39 1206.52 1408.94 1205.98 1407.66 1205.49C1406.32 1205 1405.31 1204.64 1404.31 1204.64C1402.4 1204.64 1401.3 1205.95 1400.47 1207.24L1400.42 1207.34L1400.37 1207.45C1399.52 1209.53 1398.03 1210.51 1395.74 1210.51C1393.52 1210.51 1391.02 1209.61 1389.17 1208.97C1387.44 1208.35 1385.85 1207.81 1384.89 1207.81C1384.82 1207.81 1384.74 1207.81 1384.69 1207.81L1383.76 1207.88L1383.61 1208.79C1383.43 1209.81 1383.86 1211.75 1384.92 1214.5V1214.58L1385 1214.65C1386.52 1217.43 1389.99 1218.03 1394.73 1218.54C1396.92 1218.77 1399.01 1219 1400.7 1219.62H1400.78L1400.86 1219.67C1403.64 1220.32 1403.59 1223.79 1403.18 1229.02C1402.79 1233.78 1402.38 1239.19 1405.11 1242.74C1405.93 1243.79 1405.47 1245.34 1404.21 1245.77C1394.86 1249.12 1386.13 1251.95 1378.2 1254.24H1378.15C1375.24 1255.04 1372.3 1255.4 1369.21 1255.4C1364.6 1255.4 1360.46 1254.58 1356.44 1253.78C1352.78 1253.06 1349 1252.29 1345.11 1252.29C1338.91 1252.29 1333.34 1254.24 1327.63 1258.49L1327.4 1258.65L1327.14 1258.75C1324.79 1259.6 1322.86 1261.22 1321.34 1263.54C1320.55 1264.75 1318.77 1264.72 1318.02 1263.48C1317.61 1262.79 1317.04 1262.12 1316.4 1261.53C1313.39 1258.77 1308.01 1257.13 1302.01 1257.13C1298.48 1257.13 1295.21 1257.72 1292.79 1258.83L1292.51 1258.95H1292.2C1291.96 1259.01 1291.71 1259.03 1291.48 1259.03C1287.84 1259.03 1285.68 1255.5 1283.57 1252.08C1282.46 1250.28 1281.33 1248.4 1280.02 1247.24L1279.81 1247.06L1279.66 1246.8C1278.86 1245.52 1277.93 1244.56 1276.75 1243.9L1273.94 1242.27L1276.67 1240.55C1277.54 1239.98 1278.19 1239.34 1278.68 1238.54C1280.35 1235.76 1279.71 1231.23 1276.72 1224.69L1276.26 1223.69L1276.87 1222.76C1279.35 1219.18 1282.46 1214.06 1281.15 1210.82C1280.35 1208.86 1278.03 1207.52 1274.07 1206.75C1272.76 1206.49 1271.44 1206.37 1270.18 1206.37C1264.15 1206.37 1259.06 1209.33 1255.04 1215.14C1249.19 1223.64 1247.16 1236.87 1249.27 1242.99L1249.68 1244.2L1248.65 1245.18L1248.58 1245.31C1247.98 1246.26 1248.29 1247.47 1251.36 1252.52C1254.09 1257.02 1257.49 1262.61 1255.73 1267.19L1255.68 1267.32V1267.45C1255.61 1267.89 1255.53 1268.27 1255.48 1268.63C1255.12 1270.82 1255.04 1271.62 1255.89 1273.47L1256.43 1274.66L1255.53 1275.61C1252.18 1279.21 1248.63 1280.89 1244.4 1280.89C1242.04 1280.89 1239.82 1280.4 1237.68 1279.91C1235.78 1279.47 1233.9 1279.08 1232.25 1279.08C1229.08 1279.08 1226.82 1280.55 1224.91 1283.82L1224.47 1284.57L1223.62 1284.75C1223.24 1284.82 1222.85 1284.88 1222.44 1284.88C1219.94 1284.88 1217.52 1283.18 1215.18 1281.53C1212.53 1279.65 1210.29 1278.23 1208.05 1278.23C1207.45 1278.23 1206.86 1278.34 1206.3 1278.54H1206.19L1206.09 1278.65C1203.08 1280.37 1199.81 1281.22 1196.05 1281.22C1191.26 1281.22 1186.29 1279.86 1181.47 1278.52C1177.87 1277.51 1174.11 1276.48 1170.53 1276.07L1170.27 1276.02C1167.08 1275.33 1164.01 1274.06 1163.24 1269.87V1269.69L1163.14 1269.53C1162.26 1267.83 1160.87 1265.88 1158.04 1265.88C1156.08 1265.88 1153.71 1266.78 1150.52 1268.22C1147.82 1269.46 1145.01 1270.72 1142.41 1270.72C1140.89 1270.72 1139.6 1270.28 1138.42 1269.38L1138.26 1269.25C1136 1267.19 1132.75 1265.65 1129.64 1264.15C1122.94 1260.94 1115.99 1257.62 1117.61 1249.25L1117.72 1248.79L1117.46 1248.37C1116.12 1246.21 1110.66 1244.08 1104.17 1243.15C1102.24 1242.87 1100.39 1242.74 1098.66 1242.74C1095.78 1242.74 1091.99 1243.12 1090.45 1245.03L1090.14 1245.39L1089.7 1245.57C1089.06 1245.85 1088.57 1246.21 1088.23 1246.65C1087.49 1247.6 1086.07 1247.68 1085.25 1246.78C1083.65 1245.03 1081.77 1243.79 1079.56 1242.97C1078.91 1242.74 1078.37 1242.51 1077.86 1242.3C1076 1241.58 1074.84 1241.19 1074.02 1241.19C1073.84 1241.19 1073.68 1241.19 1073.53 1241.24C1072.63 1241.45 1071.52 1242.33 1069.41 1244.49L1069.31 1244.59L1069.18 1244.69C1068.3 1245.36 1067.22 1245.7 1066.01 1245.7C1061.66 1245.7 1055.56 1241.35 1049.69 1237.13C1044.97 1233.75 1040.08 1230.25 1036.61 1229.51C1008.05 1224.05 1003.59 1219.85 996.848 1213.5C991.878 1208.79 985.672 1202.94 966.669 1194.68H966.618C963.193 1193.37 959.845 1191.62 956.601 1189.94C951.503 1187.29 946.198 1184.56 940.559 1183.48H940.405L940.276 1183.4C939.812 1183.25 939.297 1183.1 938.654 1182.92L938.293 1182.81C936.568 1182.35 936.465 1179.96 938.113 1179.31L938.473 1179.18C945.194 1176.66 946.893 1172 949.056 1166.13C949.571 1164.72 950.112 1163.25 950.756 1161.73L950.807 1161.6V1161.47C953.563 1145.9 962.575 1137.46 968.549 1131.85C973.364 1127.32 976.094 1124.59 975.707 1121.06C975.141 1115.86 967.081 1109.09 947.949 1097.74C940.662 1093.41 935.512 1092.85 931.006 1092.33C927.427 1091.95 924.337 1091.59 921.015 1089.42L920.5 1089.09L920.268 1088.5C915.814 1077.07 909.788 1064.64 894.879 1061.68L893.643 1061.42L893.36 1060.18C893 1058.59 892.897 1057.12 893.077 1055.68V1055.63C893.849 1046.57 889.729 1038.61 885.738 1030.92V1030.86C885.146 1029.76 884.579 1028.65 884.013 1027.57C883.524 1026.59 883.086 1025.72 882.7 1024.92C881.232 1021.91 880.253 1020.03 878.94 1018.92C877.679 1017.86 878.193 1015.81 879.816 1015.5C885.79 1014.31 890.399 1012.3 892.176 1010.91L892.382 1010.76L892.613 1010.66C893 1010.48 893.386 1010.4 893.746 1010.4C894.03 1010.4 894.313 1010.45 894.57 1010.55C895.935 1011.12 896.656 1012.69 897.969 1016.78C899.077 1020.26 900.467 1024.56 903.48 1026.05C904.252 1026.44 905.102 1026.62 906.055 1026.62C906.853 1026.62 907.728 1026.46 908.681 1026.18L909.067 1026.05L909.299 1025.72C910.741 1023.79 913.316 1021.78 915.84 1019.87C919.934 1016.73 924.157 1013.51 924.26 1010.17C924.26 1009.63 924.337 1007.95 921.916 1005.84L921.813 1005.74C918.852 1002.78 915.788 998.585 918.183 992.51V992.433L918.234 992.33C918.363 991.764 918.286 991.275 918.028 990.863C917.101 989.421 914.217 988.804 909.917 988.031C905.282 987.208 900.905 986.435 899.694 983.733C899.102 982.394 899.411 980.695 900.673 978.687V978.636L900.724 978.584C904.819 970.708 902.166 964.787 900.415 960.849C899.205 958.172 898.664 956.833 899.488 955.649C900.158 954.697 901.703 954.182 904.535 953.976C905.514 953.899 906.621 953.873 907.96 953.873C910.432 953.873 913.625 954.002 917.693 954.259H917.899C918.517 954.259 919.007 954.208 919.316 954.079L919.728 953.925L919.934 953.539C920.114 953.204 920.217 952.766 920.268 952.2V952.097V951.994C919.341 936.524 923.77 933.332 931.083 929.394C934.946 927.309 938.937 925.146 942.671 920.05L942.825 919.844L942.877 919.586C943.726 915.339 944.576 911.375 945.323 907.9C948.207 894.643 950.112 885.892 947.151 879.302C944.267 872.815 936.825 868.285 920.655 863.137L920.037 862.931L919.522 863.342C915.505 866.637 909.763 867.487 904.201 868.285C898.973 869.057 893.54 869.829 889.498 872.635L889.446 872.686L889.395 872.738C883.652 877.886 869.104 889.881 858.469 889.881C857.388 889.881 856.384 889.753 855.457 889.495C851.903 888.543 849.354 885.814 847.886 881.387L847.835 881.258L847.783 881.155C845.491 877.268 840.393 876.651 835.449 876.084C832.668 875.75 830.042 875.441 827.827 874.617H827.776L827.673 874.566C821.853 873.15 821.57 870.576 821.596 866.534C821.596 863.935 821.622 860.974 819.356 857.757C816.703 854.05 811.244 850.575 803.082 847.46H802.979L802.953 847.409C795.795 845.53 790.336 838.657 785.057 832.016C780.422 826.198 776.045 820.69 771.358 820.201C771.152 820.201 770.92 820.175 770.714 820.175C768.989 820.175 767.316 820.844 765.59 822.209L765.178 822.543L764.638 822.62C764.097 822.698 763.556 822.723 763.041 822.723C760.415 822.723 758.175 821.874 756.012 821.076C753.952 820.304 752.02 819.583 749.883 819.583C747.102 819.583 744.424 820.844 741.437 823.547L741.36 823.624C738.914 825.658 736.313 826.713 733.712 826.713C731.524 826.713 729.258 825.992 726.94 824.577C725.524 823.753 724.674 823.599 724.236 823.599H723.825L723.516 823.805C723.31 823.933 722.975 824.242 722.279 825.297C720.528 828.026 717.928 830.909 709.353 830.909C707.165 830.909 704.615 830.703 701.834 830.343H701.706H701.577C697.096 830.729 694.521 834.204 691.122 839.455C687.981 844.294 684.737 849.288 678.634 849.288C677.655 849.288 676.6 849.159 675.518 848.902L674.591 848.67L674.128 849.442C672.789 851.733 672.634 860.331 674.746 863.548C675.003 863.935 675.261 864.192 675.518 864.346L676.033 864.63L676.6 864.398C680.771 863.343 684.17 862.853 687.003 862.853C694.393 862.853 696.762 866.483 699.105 871.219C701.448 875.956 704.1 881.31 716.1 881.464H716.151H716.203C716.331 881.464 716.434 881.464 716.563 881.464C717.645 881.464 718.469 881.747 719.009 882.339C720.22 883.626 719.936 886.046 719.627 888.594C719.164 892.301 719.035 895.004 721.275 895.905L721.481 895.982L721.661 896.111C722.46 896.651 723.541 897.115 724.674 897.629C727.326 898.788 730.082 899.972 730.339 902.597V902.958L730.288 903.318C729.979 904.425 729.747 905.635 729.541 906.819C728.485 912.456 727.326 916.446 721.687 916.703H721.61H721.533C721.353 916.703 721.146 916.703 720.992 916.703C716.074 916.703 715.301 919.869 714.58 922.933C713.937 925.635 713.241 927.695 710.718 927.695C710.435 927.695 710.126 927.669 709.791 927.617H709.636L709.482 927.54C709.327 927.489 709.121 927.437 708.864 927.437C708.143 927.437 707.654 927.926 707.499 928.081C705.053 930.526 703.92 939.716 704.512 952.046C705.105 964.35 707.268 976.834 710.151 984.659C712.16 990.065 714.323 993.025 716.64 993.488L717.207 993.591L717.619 994.003C722.228 998.456 728.562 999.872 734.691 1001.24C739.12 1002.21 743.317 1003.17 746.613 1005.17L747.488 1005.72L747.54 1006.74C747.797 1011.35 748.312 1013.77 749.317 1015.06C750.321 1016.35 751.814 1016.6 754.621 1016.99C756.346 1017.22 758.483 1017.53 761.11 1018.25H761.213L761.316 1018.28C763.505 1018.53 765.075 1020.18 766.595 1021.75C767.856 1023.06 769.273 1024.56 770.921 1024.76C772.234 1024.94 773.006 1026.36 772.414 1027.57C771.822 1028.78 771.461 1029.99 771.075 1031.17C769.556 1036.04 768.037 1039 759.822 1039.13C751.248 1039.41 745.506 1041.62 742.21 1045.9C738.63 1050.53 737.987 1057.71 740.227 1067.91L740.33 1068.42L740.175 1068.93C738.656 1073.57 739.712 1075.78 740.562 1077.56C741.154 1078.82 741.72 1080 740.819 1081.55C739.944 1083.07 737.729 1084.89 733.481 1087.67L733.326 1087.78L733.197 1087.93C731.318 1090.3 729.18 1092.36 727.095 1094.34C723.206 1098.05 719.55 1101.52 717.954 1106.72L717.851 1107.06L717.954 1107.39C718.7 1110.02 718.057 1113.13 717.464 1116.14C716.872 1119 716.28 1121.99 716.975 1124.25C717.387 1125.59 716.306 1126.9 714.915 1126.77C714.014 1126.7 713.087 1126.65 712.057 1126.65C709.121 1126.65 706.16 1126.98 703.302 1127.32H703.07C700.264 1127.68 697.354 1128.01 694.496 1128.01H694.006L693.8 1128.09C690.891 1129.17 690.839 1132.41 691.097 1137.2C691.277 1140.44 691.457 1143.79 689.964 1146.03L689.912 1146.11V1146.18C678.222 1169.84 671.785 1172.23 664.935 1174.81C658.704 1177.15 652.807 1179.34 642.662 1197.69L642.43 1198.1L642.044 1198.36C631.358 1205.7 631.461 1209.97 631.538 1212.54C631.564 1213.57 631.589 1214.47 630.946 1215.22C630.302 1215.97 629.014 1216.48 626.748 1216.92C622.062 1217.79 612.612 1218.41 594.484 1219.39H594.381L594.278 1219.42C593.351 1219.62 592.501 1219.72 591.729 1219.72C587.995 1219.72 587.042 1217.23 586.115 1213.7C585.266 1210.48 584.39 1207.16 579.472 1207.16C578.545 1207.16 577.489 1207.27 576.279 1207.52L575.996 1207.58C569.378 1208.14 567.061 1212.26 564.306 1218.46C562.271 1223.02 560.366 1227.29 555.551 1229.56H555.473C547.697 1232.96 541.414 1240.63 540.59 1247.86C539.972 1253.39 542.161 1258.1 547.131 1261.89L547.568 1262.22L547.774 1262.71C549.01 1265.78 552.306 1266.06 556.503 1266.08C560.855 1266.14 563.971 1266.44 564.177 1270.1V1270.25V1270.41C563.894 1273.06 563.044 1275.74 562.117 1278.57C560.392 1283.87 558.435 1289.89 561.834 1294.71L561.911 1294.81L562.4 1295.74C566.52 1303.77 567.473 1305.11 576.846 1305.16H576.949H577.052C577.361 1305.11 577.644 1305.08 577.927 1305.08C578.725 1305.08 579.395 1305.29 579.961 1305.73C581.712 1307.09 582.021 1310.13 582.33 1314.97C582.691 1320.37 583.129 1326.47 586.682 1330.67L586.991 1331.03L587.094 1331.47C588.845 1338.42 592.064 1343 597.239 1345.86C598.655 1346.63 598.578 1348.71 597.085 1349.36C596.57 1349.59 596.106 1349.85 595.694 1350.1C592.424 1352.21 591.24 1355.79 592.115 1361.02V1361.09C592.656 1363.57 592.682 1365.16 592.218 1366.09L592.012 1366.55L591.549 1366.86C590.931 1367.27 590.261 1367.32 588.999 1367.32C587.223 1367.32 585.806 1367.45 584.751 1368.92L584.596 1369.15L584.545 1369.43C584.081 1372.39 583.231 1373.24 582.639 1373.6C582.202 1373.86 581.738 1373.99 581.172 1373.99C580.167 1373.99 579.009 1373.63 577.67 1373.19C576.974 1372.96 576.202 1372.73 575.378 1372.52H575.249L575.095 1372.47C573.627 1372.47 572.545 1372.09 571.824 1371.34C570.563 1370.08 570.563 1368.07 570.537 1366.29C570.537 1365.37 570.537 1364.52 570.357 1363.98L570.099 1363.05L569.121 1363.1C568.992 1363.1 568.838 1363.13 568.683 1363.15H568.451C562.246 1363.9 558.28 1364.9 556.272 1366.29C554.624 1367.45 554.598 1368.74 554.572 1369.95C554.521 1372.29 553.903 1373.53 550.478 1374.32H550.324L550.143 1374.38C548.186 1374.48 546.435 1374.56 544.968 1374.56C541.414 1374.56 540.024 1374.22 539.277 1373.96C537.423 1373.35 537.191 1372.21 536.934 1371.03C536.547 1369.28 536.007 1367.79 532.994 1366.16L532.762 1366.04H532.505C525.964 1365.68 519.372 1365.11 513.012 1364.57H512.703C510.952 1364.39 509.201 1364.26 507.476 1364.11C507.193 1364.08 506.884 1364.05 506.601 1364.05C505.287 1364.05 504.257 1364.36 503.562 1364.98C502.069 1366.32 501.991 1368.97 501.94 1371.54C501.863 1374.43 501.811 1377.16 499.88 1378.37C499.236 1378.78 498.464 1378.98 497.485 1378.98C495.811 1378.98 493.623 1378.39 490.739 1377.16L490.584 1377.08H490.43C489.348 1376.9 488.344 1376.85 487.417 1376.85C483.735 1376.85 481.366 1377.98 480.362 1380.19C477.092 1387.5 488.962 1404.47 501.657 1415.12C508.403 1420.79 515.278 1424.85 521.561 1426.84C524.522 1427.76 527.329 1428.25 529.93 1428.25C533.586 1428.25 536.856 1427.3 539.663 1425.45L539.921 1425.29C545.637 1422.38 547.723 1420.17 549.577 1418.21C552.512 1415.1 554.546 1413.42 565.258 1412.03H565.464L565.645 1411.91C568.014 1410.67 569.97 1410.05 571.412 1410.05C572.133 1410.05 572.7 1410.21 573.189 1410.52C574.142 1411.13 574.554 1412.32 574.425 1414.04C573.962 1420.43 566.082 1432.86 560.855 1435.48L560.701 1435.56L560.572 1435.67C547.98 1446.91 533.148 1449.57 516.488 1451.68H516.411C515.819 1451.8 515.278 1451.86 514.815 1451.86C513.759 1451.86 512.961 1451.57 512.394 1451.01C510.952 1449.59 511.339 1446.91 511.957 1443.85C512.008 1443.57 512.059 1443.28 512.111 1443.03L512.188 1442.67L512.034 1442.33C511.545 1441.28 510.772 1441.04 510.206 1441.04C510.128 1441.04 510.051 1441.04 509.974 1441.04C506.446 1441.28 500.601 1447.66 499.648 1450.36L499.494 1450.8L499.674 1451.21C502.764 1458.96 507.399 1464.88 512.291 1471.14C516.411 1476.41 520.66 1481.84 524.291 1488.74C527.87 1495.72 534.024 1503.23 541.182 1509.36C546.847 1514.2 555.654 1520.33 565.413 1521.97C567.061 1522.26 568.683 1522.39 570.228 1522.39C576.356 1522.39 581.558 1520.25 586.167 1515.85L586.218 1515.8C588.304 1513.63 592.759 1513.02 599.866 1512.22C609.033 1511.16 620.44 1509.85 624.714 1502.21L624.817 1502.03V1501.82C625.203 1499.5 626.594 1497.08 627.907 1494.71C630.765 1489.67 632.413 1486.14 629.401 1482.93L629.298 1482.82L629.22 1482.69C628.731 1481.95 627.933 1481.17 627.083 1480.35C624.611 1477.93 622.68 1475.72 623.864 1473.32L624.019 1473.04L624.251 1472.81C626.105 1470.96 627.624 1468.28 629.117 1465.7C631.667 1461.25 634.319 1456.64 638.851 1455.49L639.34 1455.36L639.829 1455.49C641.142 1455.82 643.074 1455.9 645.571 1455.9C646.112 1455.9 646.679 1455.9 647.245 1455.9C647.657 1455.9 648.043 1455.9 648.43 1455.9C655.459 1455.9 659.399 1456.41 660.068 1459.14L660.12 1459.35V1459.55C660.171 1462.46 659.991 1465.37 658.317 1466.94C657.313 1467.89 655.794 1468.33 653.605 1468.33C652.91 1468.33 652.138 1468.28 651.185 1468.2H650.979L650.798 1468.12C650.335 1468 649.923 1467.92 649.588 1467.92C649.151 1467.92 648.816 1468.02 648.533 1468.25C647.631 1468.97 647.477 1470.52 647.915 1474.82C648.121 1477.03 648.249 1478.68 647.94 1479.79V1479.84C647.503 1481.74 647.606 1483.11 648.249 1484.03C649.099 1485.24 650.644 1485.53 652.73 1485.81C653.966 1485.99 654.918 1486.12 655.536 1486.48L656.592 1487.07L656.541 1488.28C656.515 1488.87 656.309 1489.57 655.871 1490.42L655.794 1490.57L655.691 1490.7C646.782 1502.98 650 1507.64 653.76 1513.02C656.747 1517.34 660.146 1522.23 657.777 1531.7V1531.81L657.751 1531.91C657.442 1536.03 654.815 1537.29 652.266 1538.5C649.459 1539.84 647.76 1540.87 647.837 1544.03V1545.27C647.786 1551.06 647.812 1553.1 648.713 1554C648.919 1554.2 649.151 1554.33 649.46 1554.43C650.515 1554.77 651.082 1555.93 650.696 1556.98C647.348 1566.09 646.576 1578.81 648.327 1595.85C649.949 1611.76 653.554 1629.21 656.721 1644.63C658.961 1655.52 661.073 1665.76 662.231 1674.18V1674.36V1674.54C661.073 1695.93 665.733 1717.42 676.522 1740.31L676.6 1740.49L676.728 1740.85C677.578 1743.06 678.299 1744.58 679.303 1745.17C680.024 1745.61 680.385 1746.49 680.179 1747.31C679.793 1748.83 679.896 1753.23 684.814 1765.79C688.084 1774.16 691.818 1781.88 693.26 1784.22L693.44 1784.51L693.723 1784.66C694.547 1785.1 695.294 1785.35 695.938 1785.41C697.148 1785.51 697.972 1786.64 697.689 1787.83C697.483 1788.68 697.277 1789.47 697.071 1790.25L696.968 1790.61L697.096 1790.97C701.474 1803.73 705.619 1811.04 708.941 1816.91C714.838 1827.31 718.752 1834.16 717.722 1860.65V1861.01L717.902 1861.32C719.061 1863.25 719.807 1865.95 720.528 1868.58C721.558 1872.36 722.743 1876.68 725.292 1878.41L726.554 1879.28L726.013 1880.72C725.189 1882.91 726.863 1888.16 730.931 1896.38C734.845 1904.23 740.974 1914.91 752.072 1933.21C759.642 1945.69 764.277 1953.44 764.869 1955.84L764.947 1956.2L764.895 1956.56C763.685 1965.31 767.084 1972.85 770.714 1980.83C771.41 1982.35 772.079 1983.87 772.723 1985.36L772.8 1985.54C776.251 1995.81 778.079 2005.85 779.83 2015.56C784.053 2038.77 788.044 2060.73 814.18 2077.41L814.927 2077.87L815.055 2078.75L814.772 2078.59Z" fill="white"/>
<path d="M814.772 2078.59C815.055 2080.4 816.317 2082.38 818.377 2084.36C821.004 2086.88 825.613 2089.82 829.887 2089.82C830.685 2089.82 831.432 2089.72 832.127 2089.48C861.611 2079.8 873.249 2061.61 880.949 2049.56C884.991 2043.25 888.468 2037.82 893.077 2036.17L895.291 2035.38L893.386 2034.04C891.661 2032.83 890.553 2031.44 890.064 2029.79C888.39 2024.28 893.875 2017.59 899.694 2010.48C900.827 2009.09 902.141 2007.5 903.299 2005.98C903.505 2005.7 903.608 2005.34 903.531 2005C902.604 2000.24 903.377 1996.56 905.9 1994.06C908.449 1991.54 912.698 1990.25 918.543 1990.25C923.307 1990.25 928.199 1991.13 931.469 1991.87L931.856 1991.95L932.216 1991.8C932.422 1991.69 932.577 1991.57 932.68 1991.49C935.074 1989.17 934.997 1979.54 934.662 1967.19C934.456 1959.85 934.379 1955.19 934.868 1952.67L934.946 1952.28L934.791 1951.92C925.83 1932.57 933.967 1914.32 941.821 1896.68C949.829 1878.74 958.094 1860.18 950.138 1839.31L949.958 1838.84L950.035 1838.36C950.344 1836.09 949.468 1833.54 948.722 1831.25C947.795 1828.47 946.816 1825.59 947.383 1822.83V1822.73V1822.63C947.434 1819.92 947.898 1817.3 948.387 1814.49C949.391 1808.65 950.344 1803.17 947.486 1797.86L947.434 1797.76L947.357 1797.66C943.34 1792.9 942.259 1784.69 944.422 1775.06C946.456 1766.02 951.116 1757.25 956.575 1752.15C960.077 1748.88 963.837 1747.16 967.493 1747.16C970.789 1747.16 973.982 1748.52 976.943 1751.2L977.664 1751.87L977.51 1753.38L977.87 1753.77C978.282 1754.23 979.003 1754.49 979.827 1754.49C980.265 1754.49 980.703 1754.41 981.089 1754.26C982.093 1753.87 982.66 1753.08 982.711 1752.05C982.814 1747.44 985.054 1746.25 987.398 1745.02C990.41 1743.42 993.552 1741.75 993.449 1732.59V1732.12L993.629 1731.71C996.255 1726.13 1003.57 1724.81 1011.32 1723.4C1021.88 1721.49 1032.79 1719.51 1035.73 1707.51L1035.78 1707.36L1035.86 1707.21C1037.02 1704.55 1036.01 1703.32 1033.34 1701.54C1030.91 1699.92 1029.94 1698.71 1031.3 1696.52V1696.47C1036.79 1686.77 1045.51 1681.93 1054.78 1676.78C1062.66 1672.4 1070.8 1667.87 1076.08 1660.1L1076.13 1660.02L1076.18 1659.92C1080.25 1650.88 1088 1647.26 1095.52 1643.73C1100.7 1641.31 1106.05 1638.81 1109.84 1634.54L1109.91 1634.44L1109.97 1634.36C1113.57 1629.08 1117.41 1623.78 1121.14 1618.66C1124.36 1614.23 1127.71 1609.65 1130.9 1605.04L1130.98 1604.94C1132.32 1603.19 1133.01 1601.87 1133.11 1600.84C1133.19 1600.02 1133.78 1599.33 1134.58 1599.12C1137.13 1598.45 1139.47 1595.34 1141.51 1592.61C1143.05 1590.52 1144.65 1588.39 1146.38 1587.23L1146.45 1587.18H1146.5C1147.95 1585.89 1147.25 1584.81 1146.45 1583.52C1145.58 1582.16 1144.99 1581 1145.6 1579.56L1145.65 1579.45V1579.32C1146.89 1573.97 1156.01 1563.93 1162.52 1563.83H1162.62C1165.92 1563.83 1167.26 1566.58 1167.8 1568.87V1568.98L1167.85 1569.03C1167.95 1569.34 1168.06 1569.57 1168.16 1569.75L1168.6 1570.57L1169.5 1570.39C1169.68 1570.37 1169.89 1570.29 1170.12 1570.21L1170.37 1570.14C1178.72 1567.87 1188.68 1563.19 1197.03 1557.57C1204.18 1552.76 1213.56 1545.04 1217.44 1535.49C1220.25 1528.59 1219.79 1522.13 1216 1515.69L1215.93 1515.56C1213.35 1510.57 1212.66 1506.4 1213.87 1502.82C1215.75 1497.24 1222.13 1494.25 1227.26 1491.86C1230.55 1490.31 1229.62 1490.29 1233.44 1488.54L1235.75 1487.61L1238.12 1486.86L1239.07 1486.37C1240.8 1485.47 1242.78 1484.75 1244.84 1484.01C1249.76 1482.23 1254.86 1480.38 1256.69 1475.8L1256.79 1475.51L1256.97 1475.28C1258.18 1473.76 1258.67 1470.83 1259.13 1468C1259.8 1463.85 1260.34 1461.28 1261.97 1460.17C1262.4 1459.86 1262.92 1459.73 1263.49 1459.73C1263.72 1459.73 1263.95 1459.73 1264.18 1459.81H1264.33L1264.46 1459.89C1265.16 1460.12 1265.91 1460.25 1266.63 1460.35C1269.05 1460.71 1270.72 1461.2 1270.51 1464.11V1464.21V1464.31C1270.8 1467.17 1269.87 1470.96 1268.97 1474.64C1267.58 1480.22 1266.81 1483.98 1268.45 1485.34C1268.89 1485.71 1269.46 1485.89 1270.21 1485.89C1271.75 1485.89 1273.84 1485.11 1275.3 1484.5L1276.15 1484.14L1276.98 1484.57C1277.67 1484.93 1278.24 1485.11 1278.7 1485.11C1278.86 1485.11 1279.06 1485.11 1279.32 1484.96L1279.5 1484.86L1279.63 1484.73C1280.07 1484.26 1280.3 1483.47 1280.61 1481.17C1281.05 1477.78 1281.69 1474.97 1284.91 1474.97C1285.01 1474.97 1285.09 1474.97 1285.19 1474.97H1285.3H1285.4C1285.6 1474.95 1285.78 1474.92 1285.99 1474.92C1288.05 1474.92 1288.9 1476.64 1289.78 1478.88C1290.14 1479.84 1290.5 1480.71 1291.01 1481.36L1291.11 1481.48L1291.19 1481.61C1291.37 1481.92 1291.5 1482.28 1291.63 1482.59C1291.94 1483.39 1292.22 1483.88 1292.66 1484.16L1292.92 1484.34H1293.17C1293.17 1484.34 1293.33 1484.37 1293.41 1484.37C1293.64 1484.37 1293.92 1484.34 1294.2 1484.26L1294.38 1484.21H1294.59C1297.06 1484.08 1298.81 1482.69 1299.95 1479.94C1302.8 1472.96 1300.18 1460.14 1297.09 1456.95C1293.46 1453.12 1294.05 1447.69 1294.67 1441.95C1295.16 1437.29 1295.65 1432.89 1293.82 1429.41L1293.64 1429.05L1293.28 1428.87C1289.6 1427.07 1289.96 1423.88 1290.78 1420.22C1291.24 1418.08 1291.5 1416.72 1290.83 1415.87C1290.42 1415.33 1289.65 1415.05 1288.46 1414.97H1288.36H1288.26C1287.66 1415.05 1287.15 1415.07 1286.69 1415.07C1285.27 1415.07 1284.27 1414.74 1283.62 1414.07C1282.46 1412.86 1282.82 1410.88 1283.21 1408.77C1283.57 1406.73 1283.93 1404.8 1282.9 1403.72C1282.31 1403.08 1281.23 1402.74 1279.66 1402.74C1279.3 1402.74 1278.91 1402.74 1278.5 1402.79H1278.37L1277.49 1403.05L1276.69 1402.38C1275.72 1401.56 1274.92 1399.6 1274.45 1396.87C1273.81 1393.01 1274.12 1389.07 1275.15 1387.68L1275.43 1387.3L1275.92 1387.07C1282.26 1384.03 1281.92 1380.19 1280.76 1373.66V1373.5C1280.63 1372.96 1280.53 1372.39 1280.45 1371.8V1371.65C1280.09 1368.35 1277.88 1367.97 1272.91 1367.92C1268.27 1367.86 1262.53 1367.79 1259.18 1361.79L1259.03 1361.51L1258.75 1361.35C1257.33 1360.5 1255.66 1358.49 1255.68 1353.73C1255.68 1348.87 1257.67 1342.53 1260.83 1340.78L1261.06 1340.66L1261.32 1340.6C1266.52 1339.29 1267.01 1337.13 1267.17 1334.19C1267.22 1332.78 1267.3 1331.34 1268.48 1330.33C1269.25 1329.66 1270.69 1328.92 1274.87 1328.92C1276.57 1328.92 1278.6 1329.05 1280.94 1329.3H1281.1H1281.25C1283.42 1329.02 1285.24 1327.6 1285.99 1325.57C1286.81 1323.38 1286.3 1320.94 1284.65 1319.14L1284.52 1319.01C1281.84 1315.66 1279.58 1314.94 1276.69 1314.01C1273.71 1313.06 1269.97 1311.85 1264.8 1306.94C1259.39 1301.76 1260.19 1292.24 1262.51 1285.65C1264.54 1279.88 1267.76 1275.97 1270.72 1275.71C1270.82 1275.71 1270.93 1275.71 1271.06 1275.71C1272.68 1275.71 1274.09 1276.77 1275.28 1278.8L1275.38 1279.01C1275.82 1279.93 1276.51 1281.48 1278.47 1281.48C1279.37 1281.48 1280.45 1281.17 1282.33 1280.42C1283.8 1279.83 1285.45 1279.16 1287.05 1279.16C1288.26 1279.16 1289.29 1279.55 1290.26 1280.34L1290.45 1280.5C1295.98 1286.08 1300.1 1289.56 1303.58 1289.56C1303.96 1289.56 1304.35 1289.51 1304.71 1289.43C1307.16 1288.84 1309.14 1286.11 1310.79 1281.12C1311.04 1280.32 1311.77 1279.78 1312.62 1279.78C1313.75 1279.78 1314.73 1279.52 1315.47 1279.08C1316.68 1278.39 1318.2 1279.13 1318.38 1280.52C1318.77 1283.23 1319.49 1285.75 1320.49 1287.78L1320.55 1287.91L1320.6 1288.04C1321.04 1289.41 1321.78 1290.44 1322.84 1291.21C1323.76 1291.88 1323.92 1293.19 1323.2 1294.06C1322.81 1294.53 1322.68 1295.15 1322.79 1295.97V1296.1L1322.84 1296.2C1324.9 1302.46 1324.05 1307.68 1323.46 1311.52C1322.99 1314.4 1322.63 1316.67 1323.69 1318.06C1324.41 1319.01 1325.82 1319.6 1328.01 1319.88H1328.25L1328.48 1320.01C1334.63 1322.46 1341.48 1323.64 1349.44 1323.64C1358.04 1323.64 1366.87 1322.28 1375.42 1320.96C1383.94 1319.65 1391.98 1318.42 1399.67 1318.42C1405.37 1318.42 1410.28 1319.11 1414.71 1320.55L1415.18 1320.71L1415.51 1321.04C1416.46 1321.99 1417.83 1322.48 1419.53 1322.48C1420.4 1322.48 1421.33 1322.35 1422.31 1322.12C1423.52 1321.81 1424.7 1322.71 1424.73 1323.95C1424.76 1325.06 1425.4 1326.34 1426.61 1327.76L1426.89 1328.09L1427 1328.53C1428.15 1332.98 1425.09 1336.69 1421.82 1340.63C1417.88 1345.39 1415.2 1349.12 1416.49 1353.71L1416.57 1353.99V1354.27C1416.57 1354.48 1416.57 1354.71 1416.57 1354.94C1416.67 1356.46 1415.07 1357.52 1413.73 1356.82C1412.96 1356.43 1412.27 1356.25 1411.65 1356.25C1411.34 1356.25 1411.03 1356.31 1410.75 1356.41C1409.33 1356.92 1408.48 1358.7 1408.25 1361.69C1407.86 1366.34 1403.77 1367.14 1397.59 1367.81C1392.13 1368.4 1388.16 1369.07 1386.67 1372.45L1386.59 1372.6L1386.49 1372.75C1378.92 1383.87 1381.91 1390.49 1385.69 1398.88C1387.37 1402.59 1389.09 1406.4 1390.25 1411.16C1390.87 1413.45 1392.62 1413.89 1395.43 1414.35C1397.36 1414.66 1399.37 1415 1400.76 1416.46L1400.83 1416.54L1400.96 1416.64C1400.96 1416.64 1401.12 1416.75 1401.19 1416.8C1401.66 1417.11 1402.25 1417.05 1402.66 1416.69C1406.47 1413.42 1406.32 1409.95 1406.11 1405.52C1405.93 1401.2 1405.73 1396.69 1408.89 1391.21C1409.05 1390.93 1409.1 1390.59 1409.02 1390.28C1408.33 1387.79 1408.35 1385.91 1409.12 1384.52C1410.23 1382.48 1412.73 1381.82 1415.12 1381.15C1416.28 1380.84 1417.57 1380.48 1418.7 1379.91C1419.97 1379.29 1421.43 1380.14 1421.51 1381.53C1421.74 1384.62 1422.95 1387.48 1428.59 1392.99H1428.62C1430.14 1394.58 1431.19 1395.9 1431.35 1397.23C1431.48 1398.42 1430.93 1399.52 1430.14 1401.1C1429.88 1401.61 1429.6 1402.18 1429.29 1402.82L1429.13 1403.18L1429.21 1403.57C1430.52 1409.98 1432.81 1416.05 1435.05 1421.92C1438.74 1431.62 1442.24 1440.79 1441.9 1451.83V1452.04L1441.85 1452.24C1441.72 1452.81 1441.7 1453.27 1441.85 1453.63L1442.11 1454.4L1442.96 1454.46H1443.04C1443.29 1454.46 1443.58 1454.4 1443.86 1454.28C1444.66 1453.92 1445.17 1453.09 1445.23 1452.11V1451.98V1451.86C1444.99 1450.59 1445.38 1449.46 1446.31 1448.72C1447 1448.15 1448.03 1447.81 1449.06 1447.81C1449.73 1447.81 1450.4 1447.94 1450.97 1448.2C1452.33 1448.79 1453.11 1449.93 1453.21 1451.42C1453.31 1452.86 1454.29 1453.37 1455.06 1453.37C1455.11 1453.37 1455.17 1453.37 1455.22 1453.37H1455.27C1456.27 1453.27 1457.28 1452.47 1457.25 1451.16V1451.01V1450.85C1457.3 1450.39 1457.33 1449.9 1457.35 1449.39C1457.48 1446.84 1457.82 1444.73 1460.96 1444.62C1462.53 1444.57 1463.56 1444.08 1464.13 1443.18C1465.75 1440.5 1463.15 1434.58 1459.59 1427.14C1456.71 1421.1 1454.99 1417.26 1455.32 1414.92V1414.74V1414.56C1454.6 1409.44 1457.25 1408.51 1460.08 1407.53C1461.86 1406.91 1463.69 1406.27 1464.77 1404.49C1466.01 1402.46 1466.08 1399.32 1465.03 1394.61L1464.9 1394.07L1465.08 1393.55C1466.98 1387.99 1465.47 1382.61 1463.84 1376.92C1463.17 1374.61 1462.5 1372.21 1462.09 1369.85V1369.69L1462.07 1369.54C1462.04 1367.17 1461.63 1365.5 1460.88 1364.62C1460.13 1363.75 1460.29 1362.41 1461.22 1361.74C1461.86 1361.27 1462.38 1360.86 1463.02 1360.37C1464.2 1359.45 1464.92 1358.91 1465.62 1358.73L1466.37 1358.55L1467.04 1358.91C1467.86 1359.34 1468.74 1360.37 1470.72 1364.34L1470.85 1364.62C1471.08 1365.26 1471.41 1365.7 1471.83 1365.88C1472.03 1365.96 1472.24 1366.01 1472.44 1366.01C1472.86 1366.01 1473.4 1365.86 1474.32 1365.5C1474.48 1365.44 1474.81 1365.29 1474.81 1365.29L1474.92 1365.24C1476.23 1364.41 1477.67 1364 1479.34 1364C1481.82 1364 1484.37 1364.85 1486.84 1365.68C1488.95 1366.4 1491.16 1367.12 1493.07 1367.12C1494.51 1367.12 1495.59 1366.68 1496.49 1365.78L1496.6 1365.68L1496.67 1365.55C1499.63 1360.73 1500.23 1355.43 1500.85 1349.85C1501.49 1344.1 1502.13 1338.18 1505.63 1333.09L1505.69 1333.04C1505.97 1332.52 1506.3 1332.01 1506.64 1331.44C1511.12 1324.18 1515.14 1316.77 1510.84 1313.01L1510.6 1312.8L1510.32 1312.73C1505.94 1311.67 1505.81 1308.53 1506.07 1305.16C1506.2 1303.59 1506.2 1302.82 1505.92 1302.28L1505.87 1302.15L1505.79 1302.04C1505.02 1301.12 1505.27 1299.7 1506.36 1299.11C1508.49 1297.9 1510.55 1296.36 1512.43 1294.45C1521.24 1285.7 1524.64 1272.11 1520.52 1262.15V1262.07L1520.44 1262.02C1516.91 1255.43 1518.64 1251.21 1520.31 1247.11C1521.03 1245.34 1521.78 1243.51 1522.11 1241.48C1522.35 1240.06 1523.97 1239.37 1525.15 1240.16C1525.95 1240.7 1526.75 1240.99 1527.65 1241.01C1527.73 1241.01 1527.83 1241.01 1527.91 1241.01C1533.6 1241.01 1540.6 1231.31 1546.24 1223.53C1549.49 1219.06 1552.29 1215.17 1554.51 1213.44C1562.18 1207.4 1567.61 1203.41 1572.84 1203.1C1573.07 1203.1 1573.28 1203.1 1573.51 1203.1C1578.25 1203.1 1583.09 1206.24 1589.73 1213.62L1590.07 1214.01H1590.58C1590.58 1214.01 1590.81 1214.04 1590.94 1214.04C1591.38 1214.04 1592.67 1214.04 1593.21 1213.24C1593.96 1212.11 1593.34 1210.23 1590.27 1204.59C1587.44 1199.39 1585.54 1195.5 1586.49 1192.72C1586.8 1191.82 1587.42 1191.1 1588.34 1190.61L1588.7 1190.41L1588.86 1190.05C1589.5 1188.63 1589.89 1187.42 1590.33 1186.18C1590.92 1184.46 1591.46 1182.84 1592.57 1180.86L1592.75 1180.52L1593.05 1180.29C1593.83 1179.67 1594.73 1179.29 1595.6 1178.9C1598.15 1177.77 1599.16 1177 1598.15 1174.29L1598.05 1173.98V1173.67C1597.77 1166.93 1592.13 1165.85 1584.17 1165.05C1580.9 1164.72 1577.81 1164.41 1575.29 1163.43L1575.16 1163.38C1574.23 1162.94 1573.28 1162.73 1572.27 1162.73C1570.11 1162.73 1568.03 1163.76 1565.71 1165C1563.88 1165.98 1561.79 1167.08 1559.73 1167.08C1558.32 1167.08 1557.01 1166.54 1555.77 1165.46L1555.07 1164.87V1163.94C1555.18 1160.65 1557.39 1157.43 1559.53 1154.29C1563.55 1148.42 1566.09 1143.87 1562.23 1138.59L1562.1 1138.38C1561.18 1136.87 1560.28 1136.09 1559.43 1136.09C1558.06 1136.09 1556.88 1137.61 1554.89 1140.78C1553.63 1142.79 1552.81 1144 1552.01 1144.59L1549.9 1146.21L1548.46 1142.3C1546.99 1138.33 1546.27 1136.32 1546.19 1134.86C1546.11 1133.31 1546.76 1132.36 1547.89 1130.58C1548.53 1129.61 1549.41 1128.24 1550.46 1126.36L1550.85 1125.64L1550.34 1125C1548.71 1122.99 1546.45 1121.96 1543.59 1121.96C1543.33 1121.96 1543.07 1121.96 1542.82 1121.96C1535.68 1122.4 1526.23 1129.22 1523.51 1134.52L1523.43 1134.68V1134.83C1523.3 1135.29 1523.2 1135.76 1523.12 1136.17C1522.58 1138.82 1522.24 1140.24 1521.08 1140.98C1520.6 1141.29 1519.98 1141.45 1519.18 1141.45C1518.33 1141.45 1517.27 1141.27 1515.93 1140.93H1515.86C1513.26 1140.16 1510.37 1139.88 1507.59 1139.62C1502.18 1139.1 1496.6 1138.59 1492.68 1134.55L1492.55 1134.39L1492.37 1134.29C1491.73 1133.96 1491.06 1133.8 1490.37 1133.8C1488.18 1133.8 1485.91 1135.35 1482.95 1137.51C1481.25 1138.77 1479.47 1140.06 1477.77 1140.7L1477.41 1140.85L1477.21 1141.19C1473.96 1146.21 1472.7 1150.43 1471.57 1154.16C1470.36 1158.2 1469.38 1161.4 1466.19 1163.61C1463.07 1165.77 1458.33 1166.67 1449.78 1166.75H1449.68H1449.58C1444.58 1167.75 1444.14 1170.46 1443.58 1173.85C1442.63 1179.83 1440.87 1184.64 1428.36 1187.73H1428.28C1423.91 1189.14 1423.78 1191 1423.91 1193.91C1424.09 1197.3 1423.8 1200.14 1418.45 1202.74L1418.21 1202.84L1418.06 1203.04C1416.1 1205.39 1414.09 1206.52 1411.93 1206.52C1410.39 1206.52 1408.94 1205.98 1407.66 1205.49C1406.32 1205 1405.31 1204.64 1404.31 1204.64C1402.4 1204.64 1401.3 1205.95 1400.47 1207.24L1400.42 1207.34L1400.37 1207.45C1399.52 1209.53 1398.03 1210.51 1395.74 1210.51C1393.52 1210.51 1391.02 1209.61 1389.17 1208.97C1387.44 1208.35 1385.85 1207.81 1384.89 1207.81C1384.82 1207.81 1384.74 1207.81 1384.69 1207.81L1383.76 1207.88L1383.61 1208.79C1383.43 1209.81 1383.86 1211.75 1384.92 1214.5V1214.58L1385 1214.65C1386.52 1217.43 1389.99 1218.03 1394.73 1218.54C1396.92 1218.77 1399.01 1219 1400.7 1219.62H1400.78L1400.86 1219.67C1403.64 1220.32 1403.59 1223.79 1403.18 1229.02C1402.79 1233.78 1402.38 1239.19 1405.11 1242.74C1405.93 1243.79 1405.47 1245.34 1404.21 1245.77C1394.86 1249.12 1386.13 1251.95 1378.2 1254.24H1378.15C1375.24 1255.04 1372.3 1255.4 1369.21 1255.4C1364.6 1255.4 1360.46 1254.58 1356.44 1253.78C1352.78 1253.06 1349 1252.29 1345.11 1252.29C1338.91 1252.29 1333.34 1254.24 1327.63 1258.49L1327.4 1258.65L1327.14 1258.75C1324.79 1259.6 1322.86 1261.22 1321.34 1263.54C1320.55 1264.75 1318.77 1264.72 1318.02 1263.48C1317.61 1262.79 1317.04 1262.12 1316.4 1261.53C1313.39 1258.77 1308.01 1257.13 1302.01 1257.13C1298.48 1257.13 1295.21 1257.72 1292.79 1258.83L1292.51 1258.95H1292.2C1291.96 1259.01 1291.71 1259.03 1291.48 1259.03C1287.84 1259.03 1285.68 1255.5 1283.57 1252.08C1282.46 1250.28 1281.33 1248.4 1280.02 1247.24L1279.81 1247.06L1279.66 1246.8C1278.86 1245.52 1277.93 1244.56 1276.75 1243.9L1273.94 1242.27L1276.67 1240.55C1277.54 1239.98 1278.19 1239.34 1278.68 1238.54C1280.35 1235.76 1279.71 1231.23 1276.72 1224.69L1276.26 1223.69L1276.87 1222.76C1279.35 1219.18 1282.46 1214.06 1281.15 1210.82C1280.35 1208.86 1278.03 1207.52 1274.07 1206.75C1272.76 1206.49 1271.44 1206.37 1270.18 1206.37C1264.15 1206.37 1259.06 1209.33 1255.04 1215.14C1249.19 1223.64 1247.16 1236.87 1249.27 1242.99L1249.68 1244.2L1248.65 1245.18L1248.58 1245.31C1247.98 1246.26 1248.29 1247.47 1251.36 1252.52C1254.09 1257.02 1257.49 1262.61 1255.73 1267.19L1255.68 1267.32V1267.45C1255.61 1267.89 1255.53 1268.27 1255.48 1268.63C1255.12 1270.82 1255.04 1271.62 1255.89 1273.47L1256.43 1274.66L1255.53 1275.61C1252.18 1279.21 1248.63 1280.89 1244.4 1280.89C1242.04 1280.89 1239.82 1280.4 1237.68 1279.91C1235.78 1279.47 1233.9 1279.08 1232.25 1279.08C1229.08 1279.08 1226.82 1280.55 1224.91 1283.82L1224.47 1284.57L1223.62 1284.75C1223.24 1284.82 1222.85 1284.88 1222.44 1284.88C1219.94 1284.88 1217.52 1283.18 1215.18 1281.53C1212.53 1279.65 1210.29 1278.23 1208.05 1278.23C1207.45 1278.23 1206.86 1278.34 1206.3 1278.54H1206.19L1206.09 1278.65C1203.08 1280.37 1199.81 1281.22 1196.05 1281.22C1191.26 1281.22 1186.29 1279.86 1181.47 1278.52C1177.87 1277.51 1174.11 1276.48 1170.53 1276.07L1170.27 1276.02C1167.08 1275.33 1164.01 1274.06 1163.24 1269.87V1269.69L1163.14 1269.53C1162.26 1267.83 1160.87 1265.88 1158.04 1265.88C1156.08 1265.88 1153.71 1266.78 1150.52 1268.22C1147.82 1269.46 1145.01 1270.72 1142.41 1270.72C1140.89 1270.72 1139.6 1270.28 1138.42 1269.38L1138.26 1269.25C1136 1267.19 1132.75 1265.65 1129.64 1264.15C1122.94 1260.94 1115.99 1257.62 1117.61 1249.25L1117.72 1248.79L1117.46 1248.37C1116.12 1246.21 1110.66 1244.08 1104.17 1243.15C1102.24 1242.87 1100.39 1242.74 1098.66 1242.74C1095.78 1242.74 1091.99 1243.12 1090.45 1245.03L1090.14 1245.39L1089.7 1245.57C1089.06 1245.85 1088.57 1246.21 1088.23 1246.65C1087.49 1247.6 1086.07 1247.68 1085.25 1246.78C1083.65 1245.03 1081.77 1243.79 1079.56 1242.97C1078.91 1242.74 1078.37 1242.51 1077.86 1242.3C1076 1241.58 1074.84 1241.19 1074.02 1241.19C1073.84 1241.19 1073.68 1241.19 1073.53 1241.24C1072.63 1241.45 1071.52 1242.33 1069.41 1244.49L1069.31 1244.59L1069.18 1244.69C1068.3 1245.36 1067.22 1245.7 1066.01 1245.7C1061.66 1245.7 1055.56 1241.35 1049.69 1237.13C1044.97 1233.75 1040.08 1230.25 1036.61 1229.51C1008.05 1224.05 1003.59 1219.85 996.848 1213.5C991.878 1208.79 985.672 1202.94 966.669 1194.68H966.618C963.193 1193.37 959.845 1191.62 956.601 1189.94C951.503 1187.29 946.198 1184.56 940.559 1183.48H940.405L940.276 1183.4C939.812 1183.25 939.297 1183.1 938.654 1182.92L938.293 1182.81C936.568 1182.35 936.465 1179.96 938.113 1179.31L938.473 1179.18C945.194 1176.66 946.893 1172 949.056 1166.13C949.571 1164.72 950.112 1163.25 950.756 1161.73L950.807 1161.6V1161.47C953.563 1145.9 962.575 1137.46 968.549 1131.85C973.364 1127.32 976.094 1124.59 975.707 1121.06C975.141 1115.86 967.081 1109.09 947.949 1097.74C940.662 1093.41 935.512 1092.85 931.006 1092.33C927.427 1091.95 924.337 1091.59 921.015 1089.42L920.5 1089.09L920.268 1088.5C915.814 1077.07 909.788 1064.64 894.879 1061.68L893.643 1061.42L893.36 1060.18C893 1058.59 892.897 1057.12 893.077 1055.68V1055.63C893.849 1046.57 889.729 1038.61 885.738 1030.92V1030.86C885.146 1029.76 884.579 1028.65 884.013 1027.57C883.524 1026.59 883.086 1025.72 882.7 1024.92C881.232 1021.91 880.253 1020.03 878.94 1018.92C877.679 1017.86 878.193 1015.81 879.816 1015.5C885.79 1014.31 890.399 1012.3 892.176 1010.91L892.382 1010.76L892.613 1010.66C893 1010.48 893.386 1010.4 893.746 1010.4C894.03 1010.4 894.313 1010.45 894.57 1010.55C895.935 1011.12 896.656 1012.69 897.969 1016.78C899.077 1020.26 900.467 1024.56 903.48 1026.05C904.252 1026.44 905.102 1026.62 906.055 1026.62C906.853 1026.62 907.728 1026.46 908.681 1026.18L909.067 1026.05L909.299 1025.72C910.741 1023.79 913.316 1021.78 915.84 1019.87C919.934 1016.73 924.157 1013.51 924.26 1010.17C924.26 1009.63 924.337 1007.95 921.916 1005.84L921.813 1005.74C918.852 1002.78 915.788 998.585 918.183 992.51V992.433L918.234 992.33C918.363 991.764 918.286 991.275 918.028 990.863C917.101 989.421 914.217 988.804 909.917 988.031C905.282 987.208 900.905 986.435 899.694 983.733C899.102 982.394 899.411 980.695 900.673 978.687V978.636L900.724 978.584C904.819 970.708 902.166 964.787 900.415 960.849C899.205 958.172 898.664 956.833 899.488 955.649C900.158 954.697 901.703 954.182 904.535 953.976C905.514 953.899 906.621 953.873 907.96 953.873C910.432 953.873 913.625 954.002 917.693 954.259H917.899C918.517 954.259 919.007 954.208 919.316 954.079L919.728 953.925L919.934 953.539C920.114 953.204 920.217 952.766 920.268 952.2V952.097V951.994C919.341 936.524 923.77 933.332 931.083 929.394C934.946 927.309 938.937 925.146 942.671 920.05L942.825 919.844L942.877 919.586C943.726 915.339 944.576 911.375 945.323 907.9C948.207 894.643 950.112 885.892 947.151 879.302C944.267 872.815 936.825 868.285 920.655 863.137L920.037 862.931L919.522 863.342C915.505 866.637 909.763 867.487 904.201 868.285C898.973 869.057 893.54 869.829 889.498 872.635L889.446 872.686L889.395 872.738C883.652 877.886 869.104 889.881 858.469 889.881C857.388 889.881 856.384 889.753 855.457 889.495C851.903 888.543 849.354 885.814 847.886 881.387L847.835 881.258L847.783 881.155C845.491 877.268 840.393 876.651 835.449 876.084C832.668 875.75 830.042 875.441 827.827 874.617H827.776L827.673 874.566C821.853 873.15 821.57 870.576 821.596 866.534C821.596 863.935 821.622 860.974 819.356 857.757C816.703 854.05 811.244 850.575 803.082 847.46H802.979L802.953 847.409C795.795 845.53 790.336 838.657 785.057 832.016C780.422 826.198 776.045 820.69 771.358 820.201C771.152 820.201 770.92 820.175 770.714 820.175C768.989 820.175 767.316 820.844 765.59 822.209L765.178 822.543L764.638 822.62C764.097 822.698 763.556 822.723 763.041 822.723C760.415 822.723 758.175 821.874 756.012 821.076C753.952 820.304 752.02 819.583 749.883 819.583C747.102 819.583 744.424 820.844 741.437 823.547L741.36 823.624C738.914 825.658 736.313 826.713 733.712 826.713C731.524 826.713 729.258 825.992 726.94 824.577C725.524 823.753 724.674 823.599 724.236 823.599H723.825L723.516 823.805C723.31 823.933 722.975 824.242 722.279 825.297C720.528 828.026 717.928 830.909 709.353 830.909C707.165 830.909 704.615 830.703 701.834 830.343H701.706H701.577C697.096 830.729 694.521 834.204 691.122 839.455C687.981 844.294 684.737 849.288 678.634 849.288C677.655 849.288 676.6 849.159 675.518 848.902L674.591 848.67L674.128 849.442C672.789 851.733 672.634 860.331 674.746 863.548C675.003 863.935 675.261 864.192 675.518 864.346L676.033 864.63L676.6 864.398C680.771 863.343 684.17 862.853 687.003 862.853C694.393 862.853 696.762 866.483 699.105 871.219C701.448 875.956 704.1 881.31 716.1 881.464H716.151H716.203C716.331 881.464 716.434 881.464 716.563 881.464C717.645 881.464 718.469 881.747 719.009 882.339C720.22 883.626 719.936 886.046 719.627 888.594C719.164 892.301 719.035 895.004 721.275 895.905L721.481 895.982L721.661 896.111C722.46 896.651 723.541 897.115 724.674 897.629C727.326 898.788 730.082 899.972 730.339 902.597V902.958L730.288 903.318C729.979 904.425 729.747 905.635 729.541 906.819C728.485 912.456 727.326 916.446 721.687 916.703H721.61H721.533C721.353 916.703 721.146 916.703 720.992 916.703C716.074 916.703 715.301 919.869 714.58 922.933C713.937 925.635 713.241 927.695 710.718 927.695C710.435 927.695 710.126 927.669 709.791 927.617H709.636L709.482 927.54C709.327 927.489 709.121 927.437 708.864 927.437C708.143 927.437 707.654 927.926 707.499 928.081C705.053 930.526 703.92 939.716 704.512 952.046C705.105 964.35 707.268 976.834 710.151 984.659C712.16 990.065 714.323 993.025 716.64 993.488L717.207 993.591L717.619 994.003C722.228 998.456 728.562 999.872 734.691 1001.24C739.12 1002.21 743.317 1003.17 746.613 1005.17L747.488 1005.72L747.54 1006.74C747.797 1011.35 748.312 1013.77 749.317 1015.06C750.321 1016.35 751.814 1016.6 754.621 1016.99C756.346 1017.22 758.483 1017.53 761.11 1018.25H761.213L761.316 1018.28C763.505 1018.53 765.075 1020.18 766.595 1021.75C767.856 1023.06 769.273 1024.56 770.921 1024.76C772.234 1024.94 773.006 1026.36 772.414 1027.57C771.822 1028.78 771.461 1029.99 771.075 1031.17C769.556 1036.04 768.037 1039 759.822 1039.13C751.248 1039.41 745.506 1041.62 742.21 1045.9C738.63 1050.53 737.987 1057.71 740.227 1067.91L740.33 1068.42L740.175 1068.93C738.656 1073.57 739.712 1075.78 740.562 1077.56C741.154 1078.82 741.72 1080 740.819 1081.55C739.944 1083.07 737.729 1084.89 733.481 1087.67L733.326 1087.78L733.197 1087.93C731.318 1090.3 729.18 1092.36 727.095 1094.34C723.206 1098.05 719.55 1101.52 717.954 1106.72L717.851 1107.06L717.954 1107.39C718.7 1110.02 718.057 1113.13 717.464 1116.14C716.872 1119 716.28 1121.99 716.975 1124.25C717.387 1125.59 716.306 1126.9 714.915 1126.77C714.014 1126.7 713.087 1126.65 712.057 1126.65C709.121 1126.65 706.16 1126.98 703.302 1127.32H703.07C700.264 1127.68 697.354 1128.01 694.496 1128.01H694.006L693.8 1128.09C690.891 1129.17 690.839 1132.41 691.097 1137.2C691.277 1140.44 691.457 1143.79 689.964 1146.03L689.912 1146.11V1146.18C678.222 1169.84 671.785 1172.23 664.935 1174.81C658.704 1177.15 652.807 1179.34 642.662 1197.69L642.43 1198.1L642.044 1198.36C631.358 1205.7 631.461 1209.97 631.538 1212.54C631.564 1213.57 631.589 1214.47 630.946 1215.22C630.302 1215.97 629.014 1216.48 626.748 1216.92C622.062 1217.79 612.612 1218.41 594.484 1219.39H594.381L594.278 1219.42C593.351 1219.62 592.501 1219.72 591.729 1219.72C587.995 1219.72 587.042 1217.23 586.115 1213.7C585.266 1210.48 584.39 1207.16 579.472 1207.16C578.545 1207.16 577.489 1207.27 576.279 1207.52L575.996 1207.58C569.378 1208.14 567.061 1212.26 564.306 1218.46C562.271 1223.02 560.366 1227.29 555.551 1229.56H555.473C547.697 1232.96 541.414 1240.63 540.59 1247.86C539.972 1253.39 542.161 1258.1 547.131 1261.89L547.568 1262.22L547.774 1262.71C549.01 1265.78 552.306 1266.06 556.503 1266.08C560.855 1266.14 563.971 1266.44 564.177 1270.1V1270.25V1270.41C563.894 1273.06 563.044 1275.74 562.117 1278.57C560.392 1283.87 558.435 1289.89 561.834 1294.71L561.911 1294.81L562.4 1295.74C566.52 1303.77 567.473 1305.11 576.846 1305.16H576.949H577.052C577.361 1305.11 577.644 1305.08 577.927 1305.08C578.725 1305.08 579.395 1305.29 579.961 1305.73C581.712 1307.09 582.021 1310.13 582.33 1314.97C582.691 1320.37 583.129 1326.47 586.682 1330.67L586.991 1331.03L587.094 1331.47C588.845 1338.42 592.064 1343 597.239 1345.86C598.655 1346.63 598.578 1348.71 597.085 1349.36C596.57 1349.59 596.106 1349.85 595.694 1350.1C592.424 1352.21 591.24 1355.79 592.115 1361.02V1361.09C592.656 1363.57 592.682 1365.16 592.218 1366.09L592.012 1366.55L591.549 1366.86C590.931 1367.27 590.261 1367.32 588.999 1367.32C587.223 1367.32 585.806 1367.45 584.751 1368.92L584.596 1369.15L584.545 1369.43C584.081 1372.39 583.231 1373.24 582.639 1373.6C582.202 1373.86 581.738 1373.99 581.172 1373.99C580.167 1373.99 579.009 1373.63 577.67 1373.19C576.974 1372.96 576.202 1372.73 575.378 1372.52H575.249L575.095 1372.47C573.627 1372.47 572.545 1372.09 571.824 1371.34C570.563 1370.08 570.563 1368.07 570.537 1366.29C570.537 1365.37 570.537 1364.52 570.357 1363.98L570.099 1363.05L569.121 1363.1C568.992 1363.1 568.838 1363.13 568.683 1363.15H568.451C562.246 1363.9 558.28 1364.9 556.272 1366.29C554.624 1367.45 554.598 1368.74 554.572 1369.95C554.521 1372.29 553.903 1373.53 550.478 1374.32H550.324L550.143 1374.38C548.186 1374.48 546.435 1374.56 544.968 1374.56C541.414 1374.56 540.024 1374.22 539.277 1373.96C537.423 1373.35 537.191 1372.21 536.934 1371.03C536.547 1369.28 536.007 1367.79 532.994 1366.16L532.762 1366.04H532.505C525.964 1365.68 519.372 1365.11 513.012 1364.57H512.703C510.952 1364.39 509.201 1364.26 507.476 1364.11C507.193 1364.08 506.884 1364.05 506.601 1364.05C505.287 1364.05 504.257 1364.36 503.562 1364.98C502.069 1366.32 501.991 1368.97 501.94 1371.54C501.863 1374.43 501.811 1377.16 499.88 1378.37C499.236 1378.78 498.464 1378.98 497.485 1378.98C495.811 1378.98 493.623 1378.39 490.739 1377.16L490.584 1377.08H490.43C489.348 1376.9 488.344 1376.85 487.417 1376.85C483.735 1376.85 481.366 1377.98 480.362 1380.19C477.092 1387.5 488.962 1404.47 501.657 1415.12C508.403 1420.79 515.278 1424.85 521.561 1426.84C524.522 1427.76 527.329 1428.25 529.93 1428.25C533.586 1428.25 536.856 1427.3 539.663 1425.45L539.921 1425.29C545.637 1422.38 547.723 1420.17 549.577 1418.21C552.512 1415.1 554.546 1413.42 565.258 1412.03H565.464L565.645 1411.91C568.014 1410.67 569.97 1410.05 571.412 1410.05C572.133 1410.05 572.7 1410.21 573.189 1410.52C574.142 1411.13 574.554 1412.32 574.425 1414.04C573.962 1420.43 566.082 1432.86 560.855 1435.48L560.701 1435.56L560.572 1435.67C547.98 1446.91 533.148 1449.57 516.488 1451.68H516.411C515.819 1451.8 515.278 1451.86 514.815 1451.86C513.759 1451.86 512.961 1451.57 512.394 1451.01C510.952 1449.59 511.339 1446.91 511.957 1443.85C512.008 1443.57 512.059 1443.28 512.111 1443.03L512.188 1442.67L512.034 1442.33C511.545 1441.28 510.772 1441.04 510.206 1441.04C510.128 1441.04 510.051 1441.04 509.974 1441.04C506.446 1441.28 500.601 1447.66 499.648 1450.36L499.494 1450.8L499.674 1451.21C502.764 1458.96 507.399 1464.88 512.291 1471.14C516.411 1476.41 520.66 1481.84 524.291 1488.74C527.87 1495.72 534.024 1503.23 541.182 1509.36C546.847 1514.2 555.654 1520.33 565.413 1521.97C567.061 1522.26 568.683 1522.39 570.228 1522.39C576.356 1522.39 581.558 1520.25 586.167 1515.85L586.218 1515.8C588.304 1513.63 592.759 1513.02 599.866 1512.22C609.033 1511.16 620.44 1509.85 624.714 1502.21L624.817 1502.03V1501.82C625.203 1499.5 626.594 1497.08 627.907 1494.71C630.765 1489.67 632.413 1486.14 629.401 1482.93L629.298 1482.82L629.22 1482.69C628.731 1481.95 627.933 1481.17 627.083 1480.35C624.611 1477.93 622.68 1475.72 623.864 1473.32L624.019 1473.04L624.251 1472.81C626.105 1470.96 627.624 1468.28 629.117 1465.7C631.667 1461.25 634.319 1456.64 638.851 1455.49L639.34 1455.36L639.829 1455.49C641.142 1455.82 643.074 1455.9 645.571 1455.9C646.112 1455.9 646.679 1455.9 647.245 1455.9C647.657 1455.9 648.043 1455.9 648.43 1455.9C655.459 1455.9 659.399 1456.41 660.068 1459.14L660.12 1459.35V1459.55C660.171 1462.46 659.991 1465.37 658.317 1466.94C657.313 1467.89 655.794 1468.33 653.605 1468.33C652.91 1468.33 652.138 1468.28 651.185 1468.2H650.979L650.798 1468.12C650.335 1468 649.923 1467.92 649.588 1467.92C649.151 1467.92 648.816 1468.02 648.533 1468.25C647.631 1468.97 647.477 1470.52 647.915 1474.82C648.121 1477.03 648.249 1478.68 647.94 1479.79V1479.84C647.503 1481.74 647.606 1483.11 648.249 1484.03C649.099 1485.24 650.644 1485.53 652.73 1485.81C653.966 1485.99 654.918 1486.12 655.536 1486.48L656.592 1487.07L656.541 1488.28C656.515 1488.87 656.309 1489.57 655.871 1490.42L655.794 1490.57L655.691 1490.7C646.782 1502.98 650 1507.64 653.76 1513.02C656.747 1517.34 660.146 1522.23 657.777 1531.7V1531.81L657.751 1531.91C657.442 1536.03 654.815 1537.29 652.266 1538.5C649.459 1539.84 647.76 1540.87 647.837 1544.03V1545.27C647.786 1551.06 647.812 1553.1 648.713 1554C648.919 1554.2 649.151 1554.33 649.46 1554.43C650.515 1554.77 651.082 1555.93 650.696 1556.98C647.348 1566.09 646.576 1578.81 648.327 1595.85C649.949 1611.76 653.554 1629.21 656.721 1644.63C658.961 1655.52 661.073 1665.76 662.231 1674.18V1674.36V1674.54C661.073 1695.93 665.733 1717.42 676.522 1740.31L676.6 1740.49L676.728 1740.85C677.578 1743.06 678.299 1744.58 679.303 1745.17C680.024 1745.61 680.385 1746.49 680.179 1747.31C679.793 1748.83 679.896 1753.23 684.814 1765.79C688.084 1774.16 691.818 1781.88 693.26 1784.22L693.44 1784.51L693.723 1784.66C694.547 1785.1 695.294 1785.35 695.938 1785.41C697.148 1785.51 697.972 1786.64 697.689 1787.83C697.483 1788.68 697.277 1789.47 697.071 1790.25L696.968 1790.61L697.096 1790.97C701.474 1803.73 705.619 1811.04 708.941 1816.91C714.838 1827.31 718.752 1834.16 717.722 1860.65V1861.01L717.902 1861.32C719.061 1863.25 719.807 1865.95 720.528 1868.58C721.558 1872.36 722.743 1876.68 725.292 1878.41L726.554 1879.28L726.013 1880.72C725.189 1882.91 726.863 1888.16 730.931 1896.38C734.845 1904.23 740.974 1914.91 752.072 1933.21C759.642 1945.69 764.277 1953.44 764.869 1955.84L764.947 1956.2L764.895 1956.56C763.685 1965.31 767.084 1972.85 770.714 1980.83C771.41 1982.35 772.079 1983.87 772.723 1985.36L772.8 1985.54C776.251 1995.81 778.079 2005.85 779.83 2015.56C784.053 2038.77 788.044 2060.73 814.18 2077.41L814.927 2077.87L815.055 2078.75L814.772 2078.59Z" stroke="#08A03F" stroke-width="2.12483" stroke-miterlimit="10"/>
</g>
<path d="M1948.82 1857.53C1953.3 1834.13 1952.71 1809.81 1952.71 1786.1C1952.71 1781.85 1953.33 1777.99 1954.41 1774.49C1953.28 1762.57 1929 1712.74 1919.96 1713.3C1910.77 1713.9 1868.72 1667.31 1861.15 1659.74C1853.6 1652.17 1855.76 1639.38 1844.95 1629.44C1834.16 1619.58 1833.08 1593.94 1835.78 1575.9C1838.49 1557.83 1862.23 1553.76 1861.69 1541.54C1861.15 1529.31 1863.82 1518.86 1875.67 1518.27C1887.57 1517.65 1898.9 1507.17 1904.28 1497.85C1905.05 1496.49 1906.16 1495.64 1907.37 1495C1904.35 1491.24 1901.73 1488.84 1899.87 1488.54C1889.81 1486.99 1863.85 1466.78 1863.85 1459.01C1863.85 1451.24 1876.85 1438.8 1853.76 1435.69C1830.74 1432.57 1827.83 1423.23 1823.5 1418.57C1819.17 1413.91 1800.43 1427.92 1794.66 1438.8C1788.92 1449.69 1783.15 1435.72 1770.17 1443.46C1757.2 1451.24 1744.27 1432.57 1738.5 1443.46C1732.73 1454.35 1718.31 1437.26 1711.1 1446.58C1708.37 1450.13 1704.77 1453.01 1701.16 1454.94C1707.47 1462.56 1714.32 1469.98 1714.32 1475.72C1714.32 1485.7 1732.81 1493.17 1732.81 1505.65C1732.81 1518.14 1755.93 1528.12 1762.89 1523.13C1769.81 1518.14 1786.01 1513.14 1788.3 1530.62C1790.59 1548.1 1799.89 1548.1 1799.89 1560.56C1799.89 1573.02 1776.76 1565.58 1772.13 1578.01C1767.49 1590.47 1811.42 1605.45 1811.42 1615.41C1811.42 1625.37 1825.28 1637.88 1829.91 1650.32C1834.55 1662.78 1855.38 1677.78 1859.96 1692.74C1864.6 1707.69 1883.09 1715.18 1890.04 1722.65C1896.94 1730.14 1899.26 1747.62 1896.94 1762.57C1894.65 1777.53 1894.62 1804.97 1908.5 1827.44C1922.38 1849.91 1892.3 1859.87 1883.09 1872.33C1873.84 1884.79 1878.45 1902.27 1850.72 1894.78C1822.99 1887.29 1855.35 1919.72 1850.72 1929.68C1846.08 1939.67 1809.11 1919.72 1809.11 1929.68C1809.11 1935.68 1796.62 1943.48 1786.63 1948.73C1790.59 1954.34 1796.21 1957.48 1802.77 1961.91C1811.42 1967.73 1792.01 1977.64 1792.55 1996.25C1792.6 1997.87 1792.83 1999.26 1793.06 2000.68C1796.62 1998.15 1800.51 1996.33 1804.6 1995.04C1811.42 1990.38 1819.35 1987.93 1827.9 1987.57C1830.81 1987.44 1833.67 1987.78 1836.45 1988.42C1837.97 1980.86 1842.22 1973.29 1847.52 1968.19C1850.95 1964.92 1854.97 1962.4 1859.34 1960.6C1860.04 1956.53 1860.45 1951.9 1862.15 1948.5C1865.94 1940.93 1871.86 1943.84 1884.81 1944.43C1893.33 1944.82 1904.17 1939.1 1915.79 1931.56C1915.71 1930.69 1915.5 1929.79 1915.45 1928.91C1915.01 1919.39 1920.22 1908.5 1927.12 1901.86C1934.33 1894.91 1945.06 1890.66 1955.26 1890.66H1955.78C1948.98 1881.5 1946.46 1869.45 1948.72 1857.53H1948.82Z" fill="white" stroke="#73C386" stroke-width="1.12697" stroke-miterlimit="10"/>
<defs>
<filter id="filter0_d_3030_5784" x="462.91" y="816.203" width="1139.01" height="1290.52" filterUnits="userSpaceOnUse" color-interpolation-filters="sRGB">
<feFlood flood-opacity="0" result="BackgroundImageFix"/>
<feColorMatrix in="SourceAlpha" type="matrix" values="0 0 0 0 0 0 0 0 0 0 0 0 0 0 0 0 0 0 127 0" result="hardAlpha"/>
<feOffset dx="-6.76082" dy="6.76082"/>
<feGaussianBlur stdDeviation="4.53941"/>
<feComposite in2="hardAlpha" operator="out"/>
<feColorMatrix type="matrix" values="0 0 0 0 0 0 0 0 0 0 0 0 0 0 0 0 0 0 0.17 0"/>
<feBlend mode="normal" in2="BackgroundImageFix" result="effect1_dropShadow_3030_5784"/>
<feBlend mode="normal" in="SourceGraphic" in2="effect1_dropShadow_3030_5784" result="shape"/>
</filter>
</defs>
</svg>
