<svg width="395" height="449" viewBox="0 0 395 449" fill="none" xmlns="http://www.w3.org/2000/svg">
<g opacity="0.1">
<path d="M230.223 203.486C227.384 203.68 224.544 202.125 223.125 199.793L173.033 120.109C156.606 94.2604 148.291 73.0761 148.291 56.5563C148.291 39.0646 155.389 25.2657 169.382 15.1594C183.376 5.05314 202.642 0 227.181 0C252.328 0 272.608 5.05314 287.616 14.9651C302.42 24.877 309.924 38.2872 309.924 55.1958C309.924 65.8851 306.679 77.7406 300.392 90.9565C294.105 103.784 273.014 139.933 236.712 199.599C235.496 201.931 232.859 203.292 230.223 203.486Z" fill="#D9F0E1"/>
<path d="M229.817 244.883C227.18 244.883 224.544 246.244 223.124 248.576L172.83 328.649C156.403 354.497 148.088 375.682 148.088 392.201C148.088 409.499 155.186 423.492 169.179 433.598C183.173 443.705 202.439 448.758 226.978 448.758C252.125 448.758 272.405 443.705 287.413 433.793C302.217 423.881 309.721 410.471 309.721 393.562C309.721 382.873 306.476 371.017 300.189 357.801C293.902 344.974 272.811 308.63 236.307 248.77C235.293 246.438 232.656 244.883 229.817 244.883Z" fill="#D9F0E1"/>
<path d="M239.75 235.165C238.736 237.497 239.344 240.218 240.966 242.356C273.009 279.866 315.395 346.917 353.521 369.267C367.92 377.819 382.928 378.596 398.543 371.794C413.956 365.186 426.53 355.468 438.901 335.256C451.677 314.46 457.559 295.414 456.95 278.116C456.342 261.014 448.838 248.381 434.642 240.024C425.719 234.776 414.159 231.666 400.166 230.5C386.375 229.529 315.597 229.334 246.645 230.5C243.603 230.5 240.764 232.444 239.75 235.165Z" fill="#D9F0E1"/>
<path d="M239.555 213.592C240.771 215.536 243.002 216.896 245.436 216.896C314.794 218.062 386.383 217.868 400.173 216.896C414.167 215.73 425.524 212.62 434.65 207.373C448.846 199.21 456.35 186.383 456.958 169.28C457.566 151.983 451.685 132.936 438.909 112.141C426.538 91.9281 413.964 82.2105 398.551 75.6026C382.935 68.8003 367.928 69.772 353.529 78.1291C314.997 100.674 272.206 168.697 240.163 206.012C238.338 208.15 238.135 211.26 239.555 213.592Z" fill="#D9F0E1"/>
<path d="M217.243 234.582C216.026 232.055 213.593 230.5 210.754 230.5C141.598 229.334 70.6177 229.529 56.8272 230.5C42.8339 231.666 31.2742 234.776 22.3509 240.024C8.1548 248.186 0.651141 261.014 0.0427368 278.116C-0.565668 295.414 5.31558 314.46 18.0921 335.256C30.463 355.468 43.0367 365.186 58.4496 371.794C74.0653 378.596 89.0726 377.624 103.472 369.267C141.801 346.917 184.389 279.477 216.432 241.967C218.054 239.829 218.46 237.108 217.243 234.582Z" fill="#D9F0E1"/>
<path d="M216.635 213.592C215.418 215.729 212.984 216.896 210.348 217.09C141.395 218.256 70.6177 218.062 56.8272 217.09C42.8339 215.924 31.2742 212.814 22.3509 207.567C8.1548 199.21 0.853943 186.382 0.0427368 169.279C-0.565668 151.982 5.31558 132.936 18.0921 112.14C30.463 91.9276 43.0367 82.21 58.4496 75.6021C74.0653 68.7998 89.0726 69.7715 103.472 78.1287C141.801 100.479 184.187 167.53 216.026 205.04C216.229 205.234 216.229 205.429 216.432 205.429C216.432 205.623 218.46 209.705 216.635 213.592Z" fill="#D9F0E1"/>
</g>
</svg>
