<svg width="25" height="25" viewBox="0 0 25 25" fill="none" xmlns="http://www.w3.org/2000/svg">
<path d="M12.4069 10.9655C12.2539 10.976 12.1009 10.8922 12.0244 10.7665L9.325 6.47249C8.43977 5.07954 7.9917 3.93796 7.9917 3.04773C7.9917 2.10513 8.3742 1.36153 9.12828 0.816916C9.88236 0.272306 10.9206 0 12.2429 0C13.5981 0 14.691 0.272305 15.4997 0.806443C16.2975 1.34058 16.7018 2.06324 16.7018 2.97441C16.7018 3.55044 16.527 4.18931 16.1882 4.9015C15.8494 5.59274 14.7128 7.54077 12.7566 10.7561C12.691 10.8817 12.5489 10.9551 12.4069 10.9655Z" fill="white"/>
<path d="M12.3842 13.1948C12.2422 13.1948 12.1001 13.2681 12.0236 13.3938L9.31328 17.7088C8.42805 19.1018 7.97998 20.2433 7.97998 21.1336C7.97998 22.0657 8.36248 22.8198 9.11656 23.3644C9.87064 23.909 10.9089 24.1813 12.2312 24.1813C13.5864 24.1813 14.6792 23.909 15.488 23.3749C16.2858 22.8407 16.6901 22.1181 16.6901 21.2069C16.6901 20.6309 16.5153 19.992 16.1765 19.2798C15.8377 18.5886 14.7011 16.6301 12.7339 13.4043C12.6793 13.2786 12.5372 13.1948 12.3842 13.1948Z" fill="white"/>
<path d="M12.9208 12.6721C12.8661 12.7978 12.8989 12.9444 12.9863 13.0596C14.7131 15.0809 16.9971 18.6942 19.0517 19.8987C19.8277 20.3595 20.6364 20.4014 21.4779 20.0348C22.3085 19.6787 22.986 19.1551 23.6527 18.0658C24.3412 16.9452 24.6581 15.9188 24.6253 14.9867C24.5926 14.065 24.1882 13.3843 23.4232 12.9339C22.9423 12.6511 22.3194 12.4836 21.5653 12.4207C20.8222 12.3684 17.0081 12.3579 13.2923 12.4207C13.1284 12.4207 12.9754 12.5255 12.9208 12.6721Z" fill="white"/>
<path d="M12.9086 11.5099C12.9742 11.6147 13.0944 11.688 13.2255 11.688C16.9631 11.7508 20.8209 11.7403 21.5641 11.688C22.3182 11.6251 22.9302 11.4576 23.422 11.1748C24.187 10.7349 24.5913 10.0437 24.6241 9.12201C24.6569 8.18989 24.34 7.1635 23.6515 6.04286C22.9848 4.95364 22.3072 4.42998 21.4767 4.07388C20.6352 3.70732 19.8264 3.75969 19.0505 4.21004C16.9741 5.42494 14.6681 9.09059 12.9414 11.1015C12.843 11.2167 12.8321 11.3842 12.9086 11.5099Z" fill="white"/>
<path d="M11.7074 12.6407C11.6418 12.5045 11.5107 12.4207 11.3577 12.4207C7.63099 12.3579 3.80596 12.3684 3.06281 12.4207C2.30874 12.4836 1.6858 12.6511 1.20494 12.9339C0.439937 13.3738 0.0355773 14.065 0.0027913 14.9867C-0.0299947 15.9188 0.286936 16.9452 0.975441 18.0658C1.64209 19.1551 2.31967 19.6787 3.15024 20.0348C3.99175 20.4014 4.80047 20.349 5.5764 19.8987C7.64192 18.6942 9.93694 15.06 11.6637 13.0387C11.7511 12.9235 11.7729 12.7768 11.7074 12.6407Z" fill="white"/>
<path d="M11.6741 11.5099C11.6085 11.6251 11.4774 11.688 11.3353 11.6984C7.61958 11.7613 3.80547 11.7508 3.06233 11.6984C2.30825 11.6356 1.68532 11.468 1.20446 11.1852C0.439449 10.7349 0.0460176 10.0437 0.00230302 9.12201C-0.0304829 8.18989 0.286448 7.16351 0.974953 6.04286C1.6416 4.95364 2.31918 4.42998 3.14976 4.07388C3.99126 3.70732 4.79998 3.75969 5.57592 4.21004C7.64143 5.41447 9.92552 9.02775 11.6413 11.0491C11.6522 11.0596 11.6522 11.07 11.6632 11.07C11.6632 11.0805 11.7725 11.3005 11.6741 11.5099Z" fill="white"/>
</svg>
