<svg width="25" height="25" viewBox="0 0 25 25" fill="none" xmlns="http://www.w3.org/2000/svg">
<path d="M12.4064 10.9655C12.2534 10.976 12.1004 10.8922 12.0239 10.7665L9.32451 6.47249C8.43929 5.07954 7.99121 3.93796 7.99121 3.04773C7.99121 2.10513 8.37371 1.36153 9.12779 0.816916C9.88187 0.272306 10.9201 0 12.2425 0C13.5976 0 14.6905 0.272305 15.4992 0.806443C16.297 1.34058 16.7013 2.06324 16.7013 2.97441C16.7013 3.55044 16.5265 4.18931 16.1877 4.9015C15.8489 5.59274 14.7123 7.54077 12.7561 10.7561C12.6905 10.8817 12.5485 10.9551 12.4064 10.9655Z" fill="#034A1D"/>
<path d="M12.3847 13.1953C12.2426 13.1953 12.1006 13.2686 12.0241 13.3943L9.31376 17.7093C8.42854 19.1022 7.98047 20.2438 7.98047 21.1341C7.98047 22.0662 8.36297 22.8203 9.11705 23.3649C9.87113 23.9095 10.9093 24.1818 12.2317 24.1818C13.5869 24.1818 14.6797 23.9095 15.4885 23.3754C16.2862 22.8412 16.6906 22.1186 16.6906 21.2074C16.6906 20.6313 16.5157 19.9925 16.177 19.2803C15.8382 18.5891 14.7016 16.6306 12.7344 13.4048C12.6798 13.2791 12.5377 13.1953 12.3847 13.1953Z" fill="#034A1D"/>
<path d="M12.9212 12.6736C12.8666 12.7992 12.8994 12.9459 12.9868 13.0611C14.7135 15.0824 16.9976 18.6957 19.0522 19.9001C19.8282 20.3609 20.6369 20.4028 21.4784 20.0363C22.309 19.6802 22.9865 19.1565 23.6532 18.0673C24.3417 16.9467 24.6586 15.9203 24.6258 14.9882C24.5931 14.0665 24.1887 13.3857 23.4237 12.9354C22.9428 12.6526 22.3199 12.485 21.5658 12.4222C20.8227 12.3698 17.0086 12.3594 13.2928 12.4222C13.1289 12.4222 12.9759 12.5269 12.9212 12.6736Z" fill="#034A1D"/>
<path d="M12.9086 11.5104C12.9742 11.6151 13.0944 11.6885 13.2255 11.6885C16.9631 11.7513 20.8209 11.7408 21.5641 11.6885C22.3182 11.6256 22.9302 11.458 23.422 11.1753C24.187 10.7354 24.5913 10.0441 24.6241 9.1225C24.6569 8.19038 24.34 7.16399 23.6515 6.04335C22.9848 4.95413 22.3072 4.43046 21.4767 4.07437C20.6352 3.70781 19.8264 3.76017 19.0505 4.21053C16.9741 5.42543 14.6681 9.09108 12.9414 11.1019C12.843 11.2172 12.8321 11.3847 12.9086 11.5104Z" fill="#034A1D"/>
<path d="M11.7069 12.6421C11.6413 12.506 11.5102 12.4222 11.3572 12.4222C7.6305 12.3594 3.80547 12.3698 3.06233 12.4222C2.30825 12.485 1.68532 12.6526 1.20445 12.9354C0.439449 13.3753 0.035089 14.0665 0.00230302 14.9882C-0.0304829 15.9203 0.286448 16.9467 0.974953 18.0673C1.6416 19.1565 2.31918 19.6802 3.14975 20.0363C3.99126 20.4028 4.79998 20.3505 5.57592 19.9001C7.64143 18.6957 9.93645 15.0615 11.6632 13.0401C11.7506 12.9249 11.7725 12.7783 11.7069 12.6421Z" fill="#034A1D"/>
<path d="M11.6741 11.5104C11.6085 11.6256 11.4774 11.6885 11.3353 11.6989C7.61958 11.7618 3.80547 11.7513 3.06233 11.6989C2.30825 11.6361 1.68532 11.4685 1.20446 11.1857C0.439449 10.7354 0.0460176 10.0441 0.00230302 9.1225C-0.0304829 8.19038 0.286448 7.16399 0.974953 6.04335C1.6416 4.95413 2.31918 4.43047 3.14976 4.07437C3.99126 3.70781 4.79998 3.76017 5.57592 4.21053C7.64143 5.41495 9.92552 9.02824 11.6413 11.0496C11.6522 11.0601 11.6522 11.0705 11.6632 11.0705C11.6632 11.081 11.7725 11.3009 11.6741 11.5104Z" fill="#034A1D"/>
</svg>
