<svg width="114" height="114" viewBox="0 0 114 114" fill="none" xmlns="http://www.w3.org/2000/svg">
<circle cx="57" cy="57" r="56.75" stroke="#D9D9D9" stroke-width="0.5"/>
<g clip-path="url(#clip0_3278_16)">
<path d="M28.4904 37.1995C28.5604 37.2495 28.6304 37.2695 28.7104 37.2695C28.8204 37.2695 28.9204 37.2195 28.9904 37.1295C29.7804 36.1295 30.6304 35.1595 31.5304 34.2495C31.6704 34.1095 31.6704 33.8895 31.5304 33.7495C31.3904 33.6095 31.1704 33.6095 31.0304 33.7495C30.1104 34.6795 29.2404 35.6595 28.4404 36.6895C28.3204 36.8395 28.3404 37.0695 28.5004 37.1895L28.4904 37.1995Z" fill="white"/>
<path d="M34.1597 31.7702C34.2397 31.7702 34.3197 31.7502 34.3797 31.6902C35.3797 30.8902 36.4297 30.1402 37.5097 29.4602C37.6697 29.3502 37.7197 29.1402 37.6197 28.9702C37.5097 28.8102 37.2997 28.7602 37.1297 28.8602C36.0297 29.5602 34.9497 30.3202 33.9397 31.1302C33.7897 31.2502 33.7597 31.4702 33.8897 31.6302C33.9597 31.7202 34.0597 31.7702 34.1597 31.7702Z" fill="white"/>
<path d="M35.9997 85.0313C34.9597 84.2913 33.9497 83.4913 32.9997 82.6413C32.8597 82.5113 32.6297 82.5213 32.4997 82.6713C32.3697 82.8213 32.3797 83.0413 32.5297 83.1713C33.4997 84.0413 34.5297 84.8613 35.5997 85.6213C35.6597 85.6713 35.7297 85.6913 35.7997 85.6913C35.9097 85.6913 36.0197 85.6413 36.0897 85.5413C36.2097 85.3813 36.1697 85.1613 36.0097 85.0413L35.9997 85.0313Z" fill="white"/>
<path d="M42.7202 88.7112C41.5402 88.2312 40.3702 87.6712 39.2502 87.0612C39.0802 86.9712 38.8602 87.0312 38.7702 87.2012C38.6802 87.3712 38.7402 87.5912 38.9102 87.6812C40.0502 88.3112 41.2502 88.8712 42.4502 89.3612C42.4902 89.3812 42.5402 89.3812 42.5802 89.3812C42.7202 89.3812 42.8502 89.3012 42.9102 89.1612C42.9802 88.9812 42.8902 88.7712 42.7102 88.7012L42.7202 88.7112Z" fill="white"/>
<path d="M65.3002 89.6219C64.0802 90.0019 62.8302 90.3219 61.5802 90.5619C61.3902 90.6019 61.2602 90.7819 61.3002 90.9719C61.3302 91.1419 61.4802 91.2619 61.6502 91.2619C61.6702 91.2619 61.7002 91.2619 61.7202 91.2619C63.0002 91.0119 64.2802 90.6919 65.5202 90.3019C65.7102 90.2419 65.8102 90.0419 65.7502 89.8519C65.6902 89.6719 65.4902 89.5619 65.3002 89.6219Z" fill="white"/>
<path d="M50.11 90.7595C48.85 90.5595 47.59 90.2895 46.36 89.9495C46.17 89.8995 45.98 90.0095 45.93 90.1995C45.88 90.3895 45.99 90.5795 46.18 90.6295C47.43 90.9795 48.73 91.2495 50.02 91.4495C50.04 91.4495 50.06 91.4495 50.07 91.4495C50.24 91.4495 50.39 91.3295 50.42 91.1495C50.45 90.9595 50.31 90.7795 50.12 90.7495L50.11 90.7595Z" fill="white"/>
<path d="M57.77 91.0591C56.95 91.1191 56.12 91.1491 55.28 91.1491C54.83 91.1491 54.38 91.1391 53.93 91.1191C53.73 91.1191 53.57 91.2591 53.56 91.4591C53.55 91.6591 53.7 91.8191 53.9 91.8291C54.35 91.8491 54.82 91.8591 55.28 91.8591C56.12 91.8591 56.98 91.8291 57.82 91.7691C58.02 91.7491 58.16 91.5891 58.15 91.3891C58.13 91.1891 57.96 91.0491 57.77 91.0591Z" fill="white"/>
<path d="M27.9096 76.9021C27.7996 76.7421 27.5796 76.7021 27.4196 76.8121C27.2596 76.9221 27.2196 77.1421 27.3296 77.3021C28.0796 78.3721 28.8996 79.4021 29.7596 80.3821C29.8296 80.4621 29.9296 80.5021 30.0296 80.5021C30.1096 80.5021 30.1996 80.4721 30.2596 80.4121C30.4096 80.2821 30.4196 80.0621 30.2896 79.9121C29.4396 78.9521 28.6396 77.9421 27.9096 76.8921V76.9021Z" fill="white"/>
<path d="M88.9999 56.1211C88.7999 56.1211 88.6499 56.2911 88.6599 56.4911C88.6799 56.9111 88.6799 57.3311 88.6799 57.7511C88.6799 58.6111 88.6499 59.4811 88.5799 60.3311C88.5599 60.5311 88.7099 60.6911 88.8999 60.7111H88.9299C89.1099 60.7111 89.2699 60.5711 89.2799 60.3811C89.3499 59.5111 89.3799 58.6311 89.3799 57.7511C89.3799 57.3211 89.3799 56.8911 89.3599 56.4611C89.3599 56.2711 89.1899 56.1211 88.9899 56.1211H88.9999Z" fill="white"/>
<path d="M67.7697 26.7619C68.9497 27.2419 70.1197 27.7919 71.2397 28.4019C71.2897 28.4319 71.3497 28.4419 71.4097 28.4419C71.5297 28.4419 71.6597 28.3719 71.7197 28.2619C71.8097 28.0919 71.7497 27.8719 71.5797 27.7819C70.4397 27.1619 69.2397 26.5919 68.0297 26.1019C67.8497 26.0319 67.6397 26.1219 67.5697 26.3019C67.4997 26.4819 67.5897 26.6919 67.7697 26.7619Z" fill="white"/>
<path d="M88.4898 63.851C88.2998 63.811 88.1098 63.941 88.0798 64.131C87.8398 65.381 87.5198 66.631 87.1298 67.851C87.0698 68.041 87.1798 68.241 87.3598 68.301C87.3998 68.311 87.4298 68.321 87.4698 68.321C87.6198 68.321 87.7598 68.221 87.8098 68.071C88.1998 66.831 88.5298 65.551 88.7798 64.271C88.8198 64.081 88.6898 63.891 88.4998 63.861L88.4898 63.851Z" fill="white"/>
<path d="M85.2603 41.4707C85.1703 41.3007 84.9503 41.2407 84.7803 41.3307C84.6103 41.4207 84.5503 41.6407 84.6403 41.8107C85.2503 42.9307 85.8003 44.1007 86.2803 45.2807C86.3303 45.4207 86.4703 45.5007 86.6103 45.5007C86.6603 45.5007 86.7003 45.5007 86.7403 45.4807C86.9203 45.4107 87.0103 45.2007 86.9403 45.0207C86.4503 43.8107 85.8903 42.6207 85.2703 41.4707H85.2603Z" fill="white"/>
<path d="M86.2296 71.2693C86.0496 71.1893 85.8396 71.2693 85.7596 71.4493C85.2396 72.6093 84.6396 73.7593 83.9896 74.8593C83.8896 75.0293 83.9396 75.2493 84.1096 75.3393C84.1696 75.3793 84.2296 75.3893 84.2896 75.3893C84.4096 75.3893 84.5296 75.3293 84.5896 75.2193C85.2596 74.0993 85.8696 72.9293 86.3996 71.7393C86.4796 71.5593 86.3996 71.3493 86.2196 71.2693H86.2296Z" fill="white"/>
<path d="M74.4999 30.4389C75.5399 31.1689 76.5499 31.9789 77.5099 32.8289C77.5799 32.8889 77.6599 32.9189 77.7399 32.9189C77.8399 32.9189 77.9399 32.8789 78.0099 32.7989C78.1399 32.6589 78.1299 32.4289 77.9799 32.2989C77.0099 31.4289 75.9799 30.6089 74.9099 29.8589C74.7499 29.7489 74.5299 29.7889 74.4199 29.9489C74.3099 30.1089 74.3399 30.3289 74.4999 30.4389Z" fill="white"/>
<path d="M82.6099 38.5424C82.6799 38.6424 82.7899 38.6924 82.8999 38.6924C82.9699 38.6924 83.0399 38.6724 83.0999 38.6224C83.2599 38.5124 83.2999 38.2924 83.1899 38.1324C82.4399 37.0624 81.6199 36.0324 80.7499 35.0624C80.6199 34.9224 80.3899 34.9024 80.2499 35.0324C80.1099 35.1624 80.0899 35.3924 80.2199 35.5324C81.0699 36.4924 81.8799 37.5024 82.6099 38.5424Z" fill="white"/>
<path d="M88.3003 52.6708C88.3303 52.8508 88.4803 52.9708 88.6503 52.9708C88.6703 52.9708 88.6903 52.9708 88.7003 52.9708C88.8903 52.9408 89.0203 52.7608 89.0003 52.5708C88.8003 51.2808 88.5303 49.9908 88.1803 48.7308C88.1303 48.5408 87.9303 48.4308 87.7503 48.4808C87.5603 48.5308 87.4503 48.7308 87.5003 48.9108C87.8303 50.1408 88.1003 51.4108 88.2903 52.6608L88.3003 52.6708Z" fill="white"/>
<path d="M68.3902 60.2597H64.3202V58.1597C64.3202 57.6297 64.0302 57.1597 63.6002 56.9097V55.2797C63.6002 54.6697 63.1002 54.1797 62.5002 54.1797H59.4802C58.8702 54.1797 58.3802 54.6797 58.3802 55.2797V56.9097C57.9502 57.1597 57.6602 57.6297 57.6602 58.1597V75.1797C57.6602 75.9797 58.3202 76.6397 59.1202 76.6397H62.8602C63.6602 76.6397 64.3202 75.9897 64.3202 75.1797V68.5897C64.5502 68.6397 64.8002 68.6797 65.0502 68.6797C66.6602 68.6797 67.9902 67.4997 68.2302 65.9497H68.3902C71.1902 65.9497 73.4702 68.2297 73.4702 71.0297V74.2897H73.1402C72.8502 74.2897 72.5702 74.3997 72.3602 74.6097C72.3502 74.6197 72.3402 74.6297 72.3302 74.6497L70.0402 77.6697L66.7802 81.9797H56.7602C56.2802 81.9797 55.8402 82.1997 55.5502 82.5397C55.3102 82.8197 55.1602 83.1797 55.1602 83.5797V85.9597C55.1602 86.8397 55.8802 87.5597 56.7602 87.5597H80.2002C81.0802 87.5597 81.8002 86.8397 81.8002 85.9597V84.2997C81.8002 83.4797 81.1702 82.7997 80.3702 82.7097V75.3897C80.3702 74.7797 79.8702 74.2897 79.2702 74.2897H79.1502V71.0297C79.1502 69.5697 78.8502 68.1697 78.3302 66.8997C76.6902 63.0097 72.8502 60.2697 68.3802 60.2697L68.3902 60.2597ZM78.4402 74.2797H74.1702V71.0197C74.1702 67.8297 71.5802 65.2297 68.3802 65.2297H68.2402C68.1302 63.5597 66.7402 62.2297 65.0402 62.2297C64.7902 62.2297 64.5402 62.2597 64.3102 62.3197V60.9597H68.3802C73.9302 60.9597 78.4402 65.4697 78.4402 71.0197V74.2897V74.2797ZM79.6702 75.3797V83.0397C79.6702 83.2397 79.8302 83.3997 80.0302 83.3997H80.2102C80.7002 83.3997 81.1002 83.7997 81.1002 84.2897V85.9497C81.1002 86.4397 80.7002 86.8397 80.2102 86.8397H56.7702C56.2802 86.8397 55.8802 86.4397 55.8802 85.9497V83.5697C55.8802 83.0797 56.2802 82.6797 56.7702 82.6797H66.9602C67.0702 82.6797 67.1702 82.6297 67.2402 82.5397L72.8802 75.0897C72.9502 75.0197 73.0402 74.9897 73.1402 74.9897H79.2802C79.4902 74.9897 79.6702 75.1697 79.6702 75.3797ZM62.8502 75.9297H59.1102C58.7002 75.9297 58.3602 75.5897 58.3602 75.1797V58.1597C58.3602 57.7497 58.7002 57.4097 59.1102 57.4097H62.8502C63.2602 57.4097 63.6002 57.7497 63.6002 58.1597V62.5897C62.5502 63.1197 61.8302 64.1997 61.8302 65.4597C61.8302 66.7197 62.5602 67.7997 63.6002 68.3297V75.1797C63.6002 75.5897 63.2702 75.9297 62.8502 75.9297ZM59.4802 54.8797H62.5002C62.7202 54.8797 62.8902 55.0597 62.8902 55.2697V56.6997C62.8902 56.6997 62.8702 56.6997 62.8602 56.6997H59.1202C59.1202 56.6997 59.1002 56.6997 59.0902 56.6997V55.2697C59.0902 55.0597 59.2702 54.8797 59.4802 54.8797ZM62.5402 65.4597C62.5402 64.0797 63.6602 62.9497 65.0502 62.9497C66.4402 62.9497 67.5602 64.0697 67.5602 65.4597C67.5602 66.8497 66.4402 67.9697 65.0502 67.9697C63.6602 67.9697 62.5402 66.8497 62.5402 65.4597Z" fill="white"/>
<path d="M30.9801 52.6692H38.9101C39.1101 52.6692 39.2701 52.5092 39.2701 52.3092C39.2701 52.1092 39.1101 51.9492 38.9101 51.9492H30.9801C30.7801 51.9492 30.6201 52.1092 30.6201 52.3092C30.6201 52.5092 30.7801 52.6692 30.9801 52.6692Z" fill="white"/>
<path d="M38.2101 56.2305H30.9801C30.7801 56.2305 30.6201 56.3905 30.6201 56.5905C30.6201 56.7905 30.7801 56.9505 30.9801 56.9505H38.2101C38.4101 56.9505 38.5701 56.7905 38.5701 56.5905C38.5701 56.3905 38.4101 56.2305 38.2101 56.2305Z" fill="white"/>
<path d="M36.3801 60.5H30.9801C30.7801 60.5 30.6201 60.66 30.6201 60.86C30.6201 61.06 30.7801 61.22 30.9801 61.22H36.3801C36.5801 61.22 36.7401 61.06 36.7401 60.86C36.7401 60.66 36.5801 60.5 36.3801 60.5Z" fill="white"/>
<path d="M30.9801 65.4817H36.3801C36.5801 65.4817 36.7401 65.3217 36.7401 65.1217C36.7401 64.9217 36.5801 64.7617 36.3801 64.7617H30.9801C30.7801 64.7617 30.6201 64.9217 30.6201 65.1217C30.6201 65.3217 30.7801 65.4817 30.9801 65.4817Z" fill="white"/>
<path d="M30.9801 69.0391C30.7801 69.0391 30.6201 69.1991 30.6201 69.3991C30.6201 69.5991 30.7801 69.7591 30.9801 69.7591H38.9101C39.1101 69.7591 39.2701 69.5991 39.2701 69.3991C39.2701 69.1991 39.1101 69.0391 38.9101 69.0391H30.9801Z" fill="white"/>
<path d="M43.23 75.3816C43.23 76.1016 43.51 76.7716 44.02 77.2916C44.53 77.8016 45.2 78.0816 45.93 78.0816C46.66 78.0816 47.32 77.8016 47.84 77.2916C48.35 76.7816 48.63 76.1116 48.63 75.3816V70.5116C49.8 70.1116 50.9 69.4516 51.83 68.5216C53.4 66.9516 54.27 64.8616 54.27 62.6316C54.27 60.4016 53.4 58.3116 51.83 56.7416C50.6 55.5116 49.09 54.7516 47.51 54.4516V50.7916C47.51 50.7916 47.5 50.7016 47.49 50.6616C47.49 50.6616 47.45 50.5816 47.41 50.5516L38.57 41.7116C38.5 41.6416 38.41 41.6016 38.32 41.6016H24.57C23.7 41.6016 23 42.3016 23 43.1716V69.3916C23 70.2616 23.7 70.9616 24.57 70.9616H26.66V73.0516C26.66 73.9216 27.36 74.6216 28.23 74.6216H43.22V75.3716L43.23 75.3816ZM27.37 46.8316C27.37 46.3516 27.76 45.9716 28.23 45.9716H41.59V49.5816C41.59 50.4516 42.29 51.1516 43.16 51.1516H43.77C43.97 51.1516 44.13 50.9916 44.13 50.7916C44.13 50.5916 43.97 50.4316 43.77 50.4316H43.16C42.68 50.4316 42.3 50.0416 42.3 49.5716V46.4616L46.78 50.9416V54.3516C44.37 54.1016 41.87 54.9016 40.03 56.7416C36.78 59.9916 36.78 65.2716 40.03 68.5216C40.96 69.4516 42.06 70.1116 43.23 70.5116V73.9216H28.23C27.75 73.9216 27.37 73.5316 27.37 73.0616V46.8416V46.8316ZM23.71 43.1716C23.71 42.6916 24.1 42.3116 24.57 42.3116H38.14L41.09 45.2616H28.23C27.36 45.2616 26.66 45.9616 26.66 46.8316V70.2616H24.57C24.09 70.2616 23.71 69.8716 23.71 69.4016V43.1816V43.1716ZM44.52 76.7816C44.14 76.4016 43.94 75.9116 43.94 75.3816V70.7216C44.59 70.8816 45.26 70.9616 45.92 70.9616C46.58 70.9616 47.25 70.8816 47.9 70.7216V75.3816C47.9 75.9116 47.69 76.4116 47.32 76.7816C46.95 77.1516 46.45 77.3616 45.92 77.3616C45.39 77.3616 44.89 77.1516 44.52 76.7816ZM40.53 68.0116C37.56 65.0416 37.56 60.2116 40.53 57.2416C42.01 55.7616 43.97 55.0116 45.92 55.0116C47.87 55.0116 49.82 55.7516 51.31 57.2416C52.75 58.6816 53.54 60.5916 53.54 62.6316C53.54 64.6716 52.75 66.5816 51.31 68.0216C48.34 70.9916 43.51 70.9916 40.54 68.0216L40.53 68.0116Z" fill="white"/>
<path d="M45.9203 57.4991C48.7403 57.4991 51.0403 59.7991 51.0403 62.6191C51.0403 62.8191 51.2003 62.9791 51.4003 62.9791C51.6003 62.9791 51.7603 62.8191 51.7603 62.6191C51.7603 59.3991 49.1403 56.7891 45.9303 56.7891C45.7303 56.7891 45.5703 56.9491 45.5703 57.1491C45.5703 57.3491 45.7303 57.4991 45.9203 57.4991Z" fill="white"/>
<path d="M81.7301 55.4499C84.1501 52.6999 83.8801 48.4799 81.1301 46.0599L63.0501 30.1599C63.5301 29.5299 63.7701 28.7499 63.7201 27.9499C63.6701 27.0699 63.2701 26.2699 62.6101 25.6799C61.2501 24.4799 59.1601 24.6099 57.9601 25.9799L51.5801 33.2299L49.4701 35.6199C48.8901 36.2799 48.6001 37.1299 48.6501 38.0099C48.7101 38.8899 49.1001 39.6899 49.7601 40.2799C50.3701 40.8099 51.1301 41.0999 51.9301 41.0999C52.0001 41.0999 52.0701 41.0999 52.1401 41.0999C52.9401 41.0499 53.6801 40.7099 54.2501 40.1499L72.3301 56.0499C73.5601 57.1299 75.1001 57.7099 76.7201 57.7099C76.8601 57.7099 77.0101 57.7099 77.1501 57.6899C78.1901 57.6199 79.1701 57.3199 80.0401 56.8199C80.6601 56.4699 81.2301 56.0099 81.7201 55.4599L81.7301 55.4499ZM77.1101 56.9899C75.5201 57.0899 74.0001 56.5699 72.8001 55.5199L54.7301 39.6199L62.5801 30.6899L80.6501 46.5799C83.1101 48.7399 83.3501 52.5099 81.1901 54.9699C80.1401 56.1599 78.6901 56.8799 77.1101 56.9799V56.9899ZM49.3601 37.9799C49.3101 37.2899 49.5401 36.6199 50.0001 36.0999L58.4801 26.4599C58.9901 25.8799 59.7101 25.5799 60.4301 25.5799C61.0401 25.5799 61.6501 25.7899 62.1401 26.2199C62.6601 26.6799 62.9701 27.3099 63.0101 27.9999C63.0601 28.6899 62.8301 29.3599 62.3701 29.8799L53.8901 39.5199C53.4301 40.0399 52.8001 40.3499 52.1101 40.3999C51.4201 40.4499 50.7501 40.2199 50.2301 39.7599C49.7101 39.3099 49.4101 38.6699 49.3601 37.9799Z" fill="white"/>
<path d="M51.3601 27.3796C51.4301 27.4396 51.5101 27.4696 51.5901 27.4696C51.6901 27.4696 51.7901 27.4296 51.8601 27.3496C51.9901 27.1996 51.9701 26.9796 51.8301 26.8496C51.1501 26.2496 51.0801 25.1996 51.6801 24.5196L52.7801 23.2696C53.3801 22.5896 54.4301 22.5196 55.1101 23.1196C55.7901 23.7196 55.8601 24.7696 55.2601 25.4496C55.1301 25.5996 55.1501 25.8196 55.2901 25.9496C55.4401 26.0796 55.6601 26.0596 55.7901 25.9196C56.6501 24.9396 56.5601 23.4496 55.5801 22.5896C54.6001 21.7296 53.1101 21.8196 52.2501 22.7996L51.1501 24.0496C50.2901 25.0296 50.3801 26.5296 51.3601 27.3896V27.3796Z" fill="white"/>
<path d="M48.7702 33.831C48.9002 33.741 49.0202 33.631 49.1302 33.501C49.2602 33.351 49.2402 33.131 49.1002 33.001C48.9502 32.871 48.7302 32.891 48.6002 33.031C48.0002 33.711 46.9502 33.781 46.2702 33.181C45.5902 32.581 45.5202 31.531 46.1202 30.851L48.2002 28.481C49.0602 27.501 48.9702 26.011 47.9902 25.151C47.0102 24.291 45.5202 24.381 44.6602 25.361L43.7102 26.451C43.6002 26.571 43.4602 26.641 43.3002 26.651C43.1402 26.661 42.9902 26.611 42.8702 26.511C42.6202 26.301 42.6002 25.921 42.8202 25.681L43.3402 25.091C43.4702 24.941 43.4502 24.721 43.3102 24.591C43.1602 24.461 42.9402 24.481 42.8102 24.621L42.2902 25.211C41.8202 25.751 41.8702 26.571 42.4102 27.041C42.9502 27.511 43.7702 27.461 44.2402 26.921L45.1902 25.831C45.7902 25.151 46.8402 25.081 47.5202 25.681C47.8502 25.971 48.0502 26.381 48.0802 26.821C48.1102 27.261 47.9602 27.681 47.6702 28.021L45.5902 30.391C44.7302 31.371 44.8202 32.861 45.8002 33.721C46.2202 34.091 46.7302 34.281 47.2502 34.301C47.2902 34.301 47.3202 34.301 47.3602 34.301C47.8502 34.301 48.3502 34.141 48.7702 33.831Z" fill="white"/>
<path d="M79.2899 49.8513C79.3599 49.9113 79.4399 49.9413 79.5199 49.9413C79.6199 49.9413 79.7199 49.9013 79.7899 49.8213C79.9199 49.6713 79.8999 49.4513 79.7499 49.3213C77.6399 47.4813 75.6099 47.5313 73.6599 47.6913C73.5699 45.7313 73.3599 43.7213 71.2699 41.8513C69.1599 40.0113 67.1299 40.0613 65.1799 40.2213C65.0899 38.2613 64.8799 36.2513 62.7899 34.3913C62.6399 34.2613 62.4199 34.2713 62.2899 34.4213C62.1599 34.5713 62.1699 34.7913 62.3199 34.9213C62.8599 35.4013 63.2599 35.8913 63.5599 36.3913L60.4999 39.8713C59.9699 39.6413 59.4299 39.3013 58.8899 38.8313C58.7399 38.7013 58.5199 38.7213 58.3899 38.8713C58.2599 39.0213 58.2799 39.2413 58.4299 39.3713C60.5399 41.2113 62.5699 41.1613 64.5199 41.0013C64.6099 42.9613 64.8199 44.9713 66.9099 46.8413C69.0199 48.6813 71.0499 48.6313 72.9999 48.4713C73.0899 50.4313 73.2999 52.4413 75.3899 54.3013C75.4599 54.3613 75.5399 54.3913 75.6199 54.3913C75.7199 54.3913 75.8199 54.3513 75.8899 54.2713C76.0199 54.1213 76.0099 53.9013 75.8599 53.7713C75.3199 53.2913 74.9199 52.8013 74.6199 52.3013L77.6799 48.8213C78.2099 49.0513 78.7499 49.3813 79.2899 49.8613V49.8513ZM76.9599 48.5513L74.2699 51.6013C73.8299 50.5613 73.7499 49.4913 73.6999 48.3913C74.8099 48.3013 75.8799 48.2513 76.9599 48.5513ZM61.2199 40.1213L63.9099 37.0713C64.3499 38.1113 64.4299 39.1813 64.4799 40.2813C63.3699 40.3713 62.2999 40.4313 61.2199 40.1213ZM65.2099 40.9313C66.9799 40.7813 68.6799 40.7313 70.4599 42.1013C70.4599 42.1013 70.4599 42.1013 70.4499 42.1113L67.0499 45.9713C67.0499 45.9713 67.0499 45.9713 67.0499 45.9813C65.4699 44.3913 65.2999 42.7013 65.2199 40.9213L65.2099 40.9313ZM67.5699 46.4513L67.5899 46.4313L70.9899 42.5713C70.9899 42.5713 70.9899 42.5613 70.9999 42.5513C72.7099 44.1813 72.8899 45.9113 72.9699 47.7313C71.1499 47.8813 69.4099 47.9313 67.5799 46.4413L67.5699 46.4513Z" fill="white"/>
</g>
<defs>
<clipPath id="clip0_3278_16">
<rect width="66.39" height="69.86" fill="white" transform="translate(23 22)"/>
</clipPath>
</defs>
</svg>
