<svg width="19" height="19" viewBox="0 0 19 19" fill="none" xmlns="http://www.w3.org/2000/svg">
<path d="M9.57159 8.4593C9.45356 8.46738 9.33553 8.40275 9.27651 8.30579L7.19409 4.99317C6.51119 3.91859 6.16553 3.03792 6.16553 2.35115C6.16553 1.62399 6.46061 1.05034 7.04234 0.630206C7.62406 0.210069 8.425 0 9.44513 0C10.4906 0 11.3336 0.210069 11.9575 0.622126C12.573 1.03418 12.8849 1.59167 12.8849 2.2946C12.8849 2.73897 12.75 3.23182 12.4887 3.78124C12.2273 4.31449 11.3505 5.81728 9.84138 8.29771C9.79079 8.39466 9.68119 8.45122 9.57159 8.4593Z" fill="white"/>
<path d="M9.55437 10.1797C9.44477 10.1797 9.33517 10.2362 9.27615 10.3332L7.1853 13.662C6.5024 14.7366 6.15674 15.6172 6.15674 16.304C6.15674 17.0231 6.45182 17.6048 7.03355 18.0249C7.61528 18.4451 8.41621 18.6552 9.43634 18.6552C10.4818 18.6552 11.3248 18.4451 11.9487 18.033C12.5642 17.621 12.8761 17.0635 12.8761 16.3606C12.8761 15.9162 12.7412 15.4233 12.4799 14.8739C12.2185 14.3407 11.3417 12.8298 9.82416 10.3413C9.782 10.2443 9.6724 10.1797 9.55437 10.1797Z" fill="white"/>
<path d="M9.96787 9.77613C9.92572 9.87309 9.95101 9.9862 10.0185 10.0751C11.3505 11.6344 13.1126 14.4219 14.6976 15.351C15.2962 15.7065 15.9201 15.7389 16.5692 15.4561C17.21 15.1814 17.7327 14.7774 18.247 13.9371C18.7781 13.0726 19.0226 12.2808 18.9973 11.5617C18.972 10.8507 18.6601 10.3255 18.0699 9.97812C17.699 9.75998 17.2184 9.6307 16.6367 9.58222C16.0634 9.54183 13.121 9.53375 10.2545 9.58222C10.1281 9.58222 10.01 9.66302 9.96787 9.77613Z" fill="white"/>
<path d="M9.95816 8.8795C10.0087 8.96029 10.1015 9.01685 10.2027 9.01685C13.086 9.06533 16.0621 9.05725 16.6354 9.01685C17.2171 8.96837 17.6893 8.8391 18.0686 8.62095C18.6588 8.28161 18.9707 7.74836 18.996 7.03736C19.0213 6.31828 18.7768 5.52648 18.2457 4.66197C17.7314 3.82169 17.2087 3.41771 16.5679 3.14301C15.9188 2.86022 15.2949 2.90062 14.6963 3.24804C13.0944 4.18527 11.3155 7.01312 9.98346 8.56439C9.90758 8.65327 9.89915 8.78254 9.95816 8.8795Z" fill="white"/>
<path d="M9.03122 9.75165C8.98063 9.64662 8.87946 9.58198 8.76143 9.58198C5.88651 9.5335 2.93571 9.54158 2.36241 9.58198C1.78069 9.63046 1.30013 9.75973 0.92917 9.97788C0.339011 10.3172 0.0270692 10.8505 0.00177665 11.5615C-0.0235159 12.2806 0.220979 13.0724 0.752122 13.9369C1.2664 14.7771 1.78912 15.1811 2.42986 15.4558C3.07904 15.7386 3.70292 15.6982 4.30151 15.3508C5.89494 14.4216 7.66542 11.618 8.99749 10.0587C9.06494 9.9698 9.0818 9.85669 9.03122 9.75165Z" fill="white"/>
<path d="M9.00593 8.8795C8.95534 8.96837 8.85417 9.01685 8.74457 9.02493C5.87808 9.07341 2.93571 9.06533 2.36242 9.02493C1.78069 8.97645 1.30013 8.84718 0.929171 8.62903C0.339011 8.28161 0.0355001 7.74836 0.00177665 7.03736C-0.0235159 6.31828 0.220979 5.52648 0.752123 4.66197C1.2664 3.82169 1.78912 3.41771 2.42986 3.14301C3.07904 2.86022 3.70292 2.90062 4.30151 3.24804C5.89494 4.17719 7.65699 6.96464 8.98064 8.524C8.98907 8.53208 8.98907 8.54016 8.9975 8.54016C8.9975 8.54824 9.08181 8.71791 9.00593 8.8795Z" fill="white"/>
</svg>
