<svg preserveAspectRatio="none" width="100%" height="100%" overflow="visible" style="display: block;" viewBox="0 0 17.027 16.7201" fill="none" xmlns="http://www.w3.org/2000/svg">
<g id="Group">
<g id="Group_2">
<path id="Vector" d="M8.57802 7.58145C8.47223 7.58869 8.36645 7.53076 8.31356 7.44387L6.44724 4.47501C5.83521 3.51194 5.52541 2.72266 5.52541 2.10716C5.52541 1.45546 5.78987 0.941345 6.31123 0.564807C6.83259 0.188269 7.55041 0 8.46468 0C9.40161 0 10.1572 0.188269 10.7164 0.557566C11.2679 0.926863 11.5475 1.4265 11.5475 2.05648C11.5475 2.45474 11.4266 2.89645 11.1924 3.38884C10.9581 3.86676 10.1723 5.2136 8.81981 7.43663C8.77447 7.52352 8.67624 7.57421 8.57802 7.58145Z" fill="var(--fill-0, white)"/>
</g>
<g id="Group_3">
<path id="Vector_2" d="M8.56248 9.12421C8.46425 9.12421 8.36602 9.1749 8.31313 9.2618L6.43926 12.2451C5.82722 13.2082 5.51743 13.9975 5.51743 14.613C5.51743 15.2574 5.78189 15.7788 6.30325 16.1553C6.82461 16.5319 7.54243 16.7201 8.4567 16.7201C9.39363 16.7201 10.1492 16.5319 10.7084 16.1626C11.26 15.7933 11.5395 15.2936 11.5395 14.6637C11.5395 14.2654 11.4186 13.8237 11.1844 13.3313C10.9502 12.8534 10.1643 11.4993 8.80427 9.26904C8.76649 9.18214 8.66826 9.12421 8.56248 9.12421Z" fill="var(--fill-0, white)"/>
</g>
<g id="Group_4">
<path id="Vector_3" d="M8.93258 8.76132C8.8948 8.84822 8.91747 8.94959 8.97791 9.02925C10.1718 10.4268 11.7509 12.925 13.1715 13.7577C13.7079 14.0763 14.2671 14.1053 14.8489 13.8518C15.4231 13.6056 15.8916 13.2436 16.3525 12.4905C16.8285 11.7157 17.0477 11.0061 17.025 10.3616C17.0023 9.72439 16.7228 9.25372 16.1938 8.94235C15.8614 8.74684 15.4307 8.63098 14.9093 8.58754C14.3955 8.55133 11.7585 8.54409 9.18948 8.58754C9.07614 8.58754 8.97036 8.65995 8.93258 8.76132Z" fill="var(--fill-0, white)"/>
</g>
<g id="Group_5">
<path id="Vector_4" d="M8.92543 7.95859C8.97076 8.03101 9.05388 8.08169 9.14455 8.08169C11.7287 8.12514 14.3959 8.1179 14.9097 8.08169C15.4311 8.03825 15.8542 7.92239 16.1942 7.72688C16.7232 7.42275 17.0027 6.94484 17.0254 6.30762C17.0481 5.66316 16.8289 4.95353 16.3529 4.17873C15.892 3.42566 15.4235 3.0636 14.8493 2.8174C14.2675 2.56396 13.7083 2.60017 13.1719 2.91154C11.7362 3.75151 10.1419 6.2859 8.94809 7.67619C8.88009 7.75584 8.87253 7.8717 8.92543 7.95859Z" fill="var(--fill-0, white)"/>
</g>
<g id="Group_6">
<path id="Vector_5" d="M8.09405 8.7396C8.04871 8.64547 7.95804 8.58754 7.85226 8.58754C5.27568 8.54409 2.6311 8.55133 2.11729 8.58754C1.59593 8.63098 1.16524 8.74684 0.832781 8.94235C0.303865 9.24648 0.0242948 9.72439 0.00162692 10.3616C-0.0210409 11.0061 0.198082 11.7157 0.674106 12.4905C1.13502 13.2436 1.60349 13.6056 2.17774 13.8518C2.75955 14.1053 3.31869 14.0691 3.85516 13.7577C5.28323 12.925 6.86998 10.4123 8.06382 9.01476C8.12427 8.93511 8.13938 8.83374 8.09405 8.7396Z" fill="var(--fill-0, white)"/>
</g>
<path id="Vector_6" d="M8.07136 7.95851C8.02603 8.03816 7.93536 8.08161 7.83713 8.08885C5.26811 8.1323 2.63108 8.12506 2.11728 8.08885C1.59592 8.0454 1.16523 7.92955 0.832764 7.73404C0.303848 7.42267 0.0318334 6.94476 0.0016096 6.30754C-0.0210583 5.66308 0.198064 4.95345 0.674089 4.17865C1.135 3.42557 1.60347 3.06352 2.17772 2.81732C2.75953 2.56388 3.31867 2.60009 3.85514 2.91145C5.28322 3.74418 6.86241 6.24237 8.0487 7.6399C8.05625 7.64714 8.05625 7.65438 8.06381 7.65438C8.06381 7.66163 8.13937 7.81369 8.07136 7.95851Z" fill="var(--fill-0, white)"/>
</g>
</svg>
