<svg preserveAspectRatio="none" width="100%" height="100%" overflow="visible" style="display: block;" viewBox="0 0 17.0269 16.7194" fill="none" xmlns="http://www.w3.org/2000/svg">
<g id="Group">
<g id="Group_2">
<path id="Vector" d="M8.57802 7.58147C8.47224 7.58871 8.36646 7.53078 8.31356 7.44389L6.44725 4.47503C5.83521 3.51196 5.52542 2.72268 5.52542 2.10719C5.52542 1.45549 5.78988 0.941367 6.31124 0.564829C6.8326 0.188291 7.55041 2.18421e-05 8.46468 2.18421e-05C9.40162 2.18421e-05 10.1572 0.188291 10.7164 0.557588C11.2679 0.926885 11.5475 1.42652 11.5475 2.0565C11.5475 2.45476 11.4266 2.89647 11.1924 3.38886C10.9581 3.86678 10.1723 5.21362 8.81981 7.43665C8.77448 7.52354 8.67625 7.57423 8.57802 7.58147Z" fill="var(--fill-0, white)"/>
</g>
<g id="Group_3">
<path id="Vector_2" d="M8.56248 9.12351C8.46426 9.12351 8.36603 9.17419 8.31314 9.26109L6.43926 12.2444C5.82723 13.2075 5.51744 13.9968 5.51744 14.6123C5.51744 15.2567 5.78189 15.7781 6.30325 16.1546C6.82461 16.5312 7.54243 16.7194 8.4567 16.7194C9.39364 16.7194 10.1492 16.5312 10.7084 16.1619C11.26 15.7926 11.5395 15.2929 11.5395 14.663C11.5395 14.2647 11.4186 13.823 11.1844 13.3306C10.9502 12.8527 10.1643 11.4986 8.80427 9.26833C8.76649 9.18144 8.66827 9.12351 8.56248 9.12351Z" fill="var(--fill-0, white)"/>
</g>
<g id="Group_4">
<path id="Vector_3" d="M8.93258 8.76157C8.8948 8.84846 8.91747 8.94984 8.97791 9.02949C10.1718 10.427 11.7509 12.9252 13.1715 13.7579C13.7079 14.0765 14.2671 14.1055 14.8489 13.8521C15.4231 13.6059 15.8916 13.2438 16.3525 12.4907C16.8285 11.7159 17.0477 11.0063 17.025 10.3619C17.0023 9.72464 16.7228 9.25396 16.1938 8.9426C15.8614 8.74709 15.4307 8.63123 14.9093 8.58778C14.3955 8.55158 11.7585 8.54433 9.18948 8.58778C9.07614 8.58778 8.97036 8.66019 8.93258 8.76157Z" fill="var(--fill-0, white)"/>
</g>
<g id="Group_5">
<path id="Vector_4" d="M8.92536 7.95856C8.97069 8.03097 9.05381 8.08166 9.14448 8.08166C11.7286 8.1251 14.3959 8.11786 14.9097 8.08166C15.431 8.03821 15.8542 7.92235 16.1942 7.72684C16.7231 7.42271 17.0027 6.9448 17.0253 6.30758C17.048 5.66312 16.8289 4.95349 16.3529 4.17869C15.8919 3.42562 15.4235 3.06356 14.8492 2.81737C14.2674 2.56393 13.7083 2.60013 13.1718 2.9115C11.7362 3.75147 10.1419 6.28586 8.94802 7.67615C8.88002 7.75581 8.87246 7.87166 8.92536 7.95856Z" fill="var(--fill-0, white)"/>
</g>
<g id="Group_6">
<path id="Vector_5" d="M8.09405 8.73984C8.04871 8.64571 7.95804 8.58778 7.85226 8.58778C5.27568 8.54433 2.6311 8.55158 2.11729 8.58778C1.59593 8.63123 1.16524 8.74709 0.832781 8.9426C0.303865 9.24672 0.0242948 9.72464 0.00162692 10.3619C-0.0210409 11.0063 0.198082 11.7159 0.674106 12.4907C1.13502 13.2438 1.60349 13.6059 2.17774 13.8521C2.75955 14.1055 3.31869 14.0693 3.85516 13.7579C5.28323 12.9252 6.86998 10.4125 8.06382 9.01501C8.12427 8.93535 8.13938 8.83398 8.09405 8.73984Z" fill="var(--fill-0, white)"/>
</g>
<path id="Vector_6" d="M8.07136 7.95897C8.02603 8.03862 7.93536 8.08207 7.83713 8.08931C5.26811 8.13276 2.63108 8.12551 2.11728 8.08931C1.59592 8.04586 1.16523 7.93 0.832764 7.73449C0.303848 7.42313 0.0318334 6.94521 0.0016096 6.30799C-0.0210583 5.66353 0.198064 4.95391 0.674089 4.17911C1.135 3.42603 1.60347 3.06397 2.17772 2.81778C2.75953 2.56434 3.31867 2.60054 3.85514 2.91191C5.28322 3.74464 6.86241 6.24282 8.0487 7.64036C8.05625 7.6476 8.05625 7.65484 8.06381 7.65484C8.06381 7.66208 8.13937 7.81415 8.07136 7.95897Z" fill="var(--fill-0, white)"/>
</g>
</svg>
