<svg preserveAspectRatio="none" width="100%" height="100%" overflow="visible" style="display: block;" viewBox="0 0 17.0268 16.7199" fill="none" xmlns="http://www.w3.org/2000/svg">
<g id="Group">
<g id="Group_2">
<path id="Vector" d="M8.57772 7.58154C8.47193 7.58878 8.36615 7.53085 8.31326 7.44396L6.44694 4.4751C5.83491 3.51203 5.52511 2.72275 5.52511 2.10726C5.52511 1.45556 5.78957 0.941436 6.31093 0.564898C6.83229 0.18836 7.55011 9.1375e-05 8.46438 9.1375e-05C9.40131 9.1375e-05 10.1569 0.18836 10.716 0.557657C11.2676 0.926954 11.5472 1.42659 11.5472 2.05657C11.5472 2.45483 11.4263 2.89654 11.1921 3.38893C10.9578 3.86685 10.172 5.21369 8.81951 7.43672C8.77417 7.52361 8.67594 7.5743 8.57772 7.58154Z" fill="var(--fill-0, white)"/>
</g>
<g id="Group_3">
<path id="Vector_2" d="M8.5625 9.12394C8.46427 9.12394 8.36605 9.17462 8.31315 9.26152L6.43928 12.2449C5.82725 13.2079 5.51745 13.9972 5.51745 14.6127C5.51745 15.2572 5.78191 15.7785 6.30327 16.1551C6.82463 16.5316 7.54245 16.7199 8.45672 16.7199C9.39365 16.7199 10.1492 16.5316 10.7084 16.1623C11.26 15.793 11.5395 15.2934 11.5395 14.6634C11.5395 14.2651 11.4186 13.8234 11.1844 13.331C10.9502 12.8531 10.1644 11.499 8.80429 9.26876C8.76651 9.18186 8.66828 9.12394 8.5625 9.12394Z" fill="var(--fill-0, white)"/>
</g>
<g id="Group_4">
<path id="Vector_3" d="M8.93241 8.76102C8.89463 8.84791 8.9173 8.94929 8.97774 9.02894C10.1716 10.4265 11.7508 12.9247 13.1713 13.7574C13.7078 14.076 14.2669 14.105 14.8487 13.8515C15.423 13.6053 15.8914 13.2433 16.3524 12.4902C16.8284 11.7154 17.0475 11.0058 17.0248 10.3613C17.0022 9.72409 16.7226 9.25342 16.1937 8.94205C15.8612 8.74654 15.4305 8.63068 14.9092 8.58723C14.3954 8.55103 11.7583 8.54379 9.18931 8.58723C9.07597 8.58723 8.97019 8.65964 8.93241 8.76102Z" fill="var(--fill-0, white)"/>
</g>
<g id="Group_5">
<path id="Vector_4" d="M8.92519 7.95899C8.97052 8.0314 9.05364 8.08208 9.14431 8.08208C11.7284 8.12553 14.3957 8.11829 14.9095 8.08208C15.4309 8.03864 15.854 7.92278 16.194 7.72727C16.7229 7.42314 17.0025 6.94523 17.0252 6.30801C17.0478 5.66355 16.8287 4.95392 16.3527 4.17912C15.8918 3.42605 15.4233 3.06399 14.849 2.81779C14.2672 2.56435 13.7081 2.60056 13.1716 2.91193C11.736 3.7519 10.1417 6.28629 8.94785 7.67658C8.87985 7.75623 8.87229 7.87209 8.92519 7.95899Z" fill="var(--fill-0, white)"/>
</g>
<g id="Group_6">
<path id="Vector_5" d="M8.09406 8.7393C8.04873 8.64516 7.95806 8.58723 7.85227 8.58723C5.2757 8.54379 2.63111 8.55103 2.11731 8.58723C1.59595 8.63068 1.16526 8.74654 0.832798 8.94205C0.303882 9.24618 0.0243118 9.72409 0.00164391 10.3613C-0.0210239 11.0058 0.198099 11.7154 0.674123 12.4902C1.13504 13.2433 1.6035 13.6053 2.17776 13.8515C2.75956 14.105 3.3187 14.0688 3.85518 13.7574C5.28325 12.9247 6.87 10.412 8.06384 9.01446C8.12429 8.93481 8.1394 8.83343 8.09406 8.7393Z" fill="var(--fill-0, white)"/>
</g>
<path id="Vector_6" d="M8.07135 7.95894C8.02601 8.03859 7.93534 8.08204 7.83711 8.08928C5.26809 8.13273 2.63106 8.12548 2.11726 8.08928C1.5959 8.04583 1.16521 7.92997 0.832747 7.73446C0.30383 7.4231 0.0318161 6.94518 0.00159228 6.30796C-0.0210756 5.6635 0.198047 4.95388 0.674072 4.17908C1.13498 3.426 1.60345 3.06394 2.17771 2.81775C2.75951 2.56431 3.31865 2.60051 3.85513 2.91188C5.2832 3.74461 6.8624 6.24279 8.04868 7.64033C8.05624 7.64757 8.05624 7.65481 8.06379 7.65481C8.06379 7.66205 8.13935 7.81412 8.07135 7.95894Z" fill="var(--fill-0, white)"/>
</g>
</svg>
