<svg preserveAspectRatio="none" width="100%" height="100%" overflow="visible" style="display: block;" viewBox="0 0 17.027 16.7198" fill="none" xmlns="http://www.w3.org/2000/svg">
<g id="Group">
<g id="Group_2">
<path id="Vector" d="M8.57778 7.58163C8.472 7.58887 8.36621 7.53094 8.31332 7.44405L6.447 4.47519C5.83497 3.51212 5.52518 2.72284 5.52518 2.10735C5.52518 1.45565 5.78963 0.941528 6.311 0.56499C6.83236 0.188452 7.55017 0.000183267 8.46444 0.000183267C9.40138 0.000183267 10.157 0.188452 10.7161 0.557749C11.2677 0.927046 11.5473 1.42668 11.5473 2.05666C11.5473 2.45492 11.4264 2.89663 11.1921 3.38903C10.9579 3.86694 10.1721 5.21379 8.81957 7.43681C8.77423 7.5237 8.67601 7.57439 8.57778 7.58163Z" fill="var(--fill-0, white)"/>
</g>
<g id="Group_3">
<path id="Vector_2" d="M8.56246 9.12378C8.46423 9.12378 8.36601 9.17447 8.31311 9.26136L6.43924 12.2447C5.82721 13.2078 5.51741 13.9971 5.51741 14.6125C5.51741 15.257 5.78187 15.7784 6.30323 16.1549C6.82459 16.5314 7.54241 16.7197 8.45668 16.7197C9.39361 16.7197 10.1492 16.5314 10.7083 16.1621C11.2599 15.7929 11.5395 15.2932 11.5395 14.6632C11.5395 14.265 11.4186 13.8233 11.1844 13.3309C10.9501 12.853 10.1643 11.4989 8.80425 9.2686C8.76647 9.18171 8.66824 9.12378 8.56246 9.12378Z" fill="var(--fill-0, white)"/>
</g>
<g id="Group_4">
<path id="Vector_3" d="M8.93245 8.76078C8.89467 8.84768 8.91734 8.94905 8.97779 9.0287C10.1716 10.4262 11.7508 12.9244 13.1713 13.7572C13.7078 14.0758 14.267 14.1047 14.8488 13.8513C15.423 13.6051 15.8915 13.243 16.3524 12.49C16.8284 11.7152 17.0475 11.0055 17.0249 10.3611C17.0022 9.72385 16.7226 9.25318 16.1937 8.94181C15.8613 8.7463 15.4306 8.63044 14.9092 8.587C14.3954 8.55079 11.7584 8.54355 9.18935 8.587C9.07601 8.587 8.97023 8.65941 8.93245 8.76078Z" fill="var(--fill-0, white)"/>
</g>
<g id="Group_5">
<path id="Vector_4" d="M8.92523 7.95873C8.97056 8.03114 9.05368 8.08183 9.14435 8.08183C11.7285 8.12527 14.3957 8.11803 14.9095 8.08183C15.4309 8.03838 15.854 7.92252 16.1941 7.72701C16.723 7.42289 17.0025 6.94497 17.0252 6.30775C17.0479 5.6633 16.8287 4.95367 16.3527 4.17887C15.8918 3.42579 15.4233 3.06374 14.8491 2.81754C14.2673 2.5641 13.7081 2.6003 13.1717 2.91167C11.736 3.75164 10.1417 6.28603 8.9479 7.67633C8.87989 7.75598 8.87234 7.87184 8.92523 7.95873Z" fill="var(--fill-0, white)"/>
</g>
<g id="Group_6">
<path id="Vector_5" d="M8.09407 8.73906C8.04873 8.64492 7.95806 8.587 7.85228 8.587C5.2757 8.54355 2.63112 8.55079 2.11731 8.587C1.59595 8.63044 1.16526 8.7463 0.832802 8.94181C0.303885 9.24594 0.0243154 9.72385 0.00164753 10.3611C-0.0210203 11.0055 0.198102 11.7152 0.674127 12.49C1.13504 13.243 1.60351 13.6051 2.17776 13.8513C2.75957 14.1047 3.31871 14.0685 3.85518 13.7572C5.28325 12.9244 6.87 10.4118 8.06384 9.01422C8.12429 8.93457 8.1394 8.83319 8.09407 8.73906Z" fill="var(--fill-0, white)"/>
</g>
<path id="Vector_6" d="M8.07135 7.95905C8.02601 8.0387 7.93534 8.08215 7.83711 8.08939C5.26809 8.13283 2.63106 8.12559 2.11726 8.08939C1.5959 8.04594 1.16521 7.93008 0.832747 7.73457C0.30383 7.42321 0.0318161 6.94529 0.00159228 6.30807C-0.0210756 5.66361 0.198047 4.95399 0.674072 4.17919C1.13498 3.42611 1.60345 3.06405 2.17771 2.81786C2.75951 2.56442 3.31865 2.60062 3.85513 2.91199C5.2832 3.74472 6.8624 6.2429 8.04868 7.64044C8.05624 7.64768 8.05624 7.65492 8.06379 7.65492C8.06379 7.66216 8.13935 7.81423 8.07135 7.95905Z" fill="var(--fill-0, white)"/>
</g>
</svg>
