<svg preserveAspectRatio="none" width="100%" height="100%" overflow="visible" style="display: block;" viewBox="0 0 17.027 16.7214" fill="none" xmlns="http://www.w3.org/2000/svg">
<g id="Group">
<g id="Group_2">
<path id="Vector" d="M8.57772 7.58152C8.47194 7.58876 8.36615 7.53083 8.31326 7.44394L6.44694 4.47508C5.83491 3.51201 5.52512 2.72273 5.52512 2.10724C5.52512 1.45554 5.78957 0.941418 6.31093 0.56488C6.83229 0.188342 7.55011 7.28932e-05 8.46438 7.28932e-05C9.40132 7.28932e-05 10.1569 0.188342 10.7161 0.557639C11.2676 0.926936 11.5472 1.42657 11.5472 2.05655C11.5472 2.45481 11.4263 2.89652 11.1921 3.38891C10.9578 3.86683 10.172 5.21368 8.81951 7.4367C8.77417 7.52359 8.67595 7.57428 8.57772 7.58152Z" fill="var(--fill-0, white)"/>
</g>
<g id="Group_3">
<path id="Vector_2" d="M8.5625 9.12529C8.46427 9.12529 8.36605 9.17598 8.31315 9.26287L6.43928 12.2462C5.82725 13.2093 5.51745 13.9986 5.51745 14.6141C5.51745 15.2585 5.78191 15.7799 6.30327 16.1564C6.82463 16.533 7.54245 16.7212 8.45672 16.7212C9.39365 16.7212 10.1492 16.533 10.7084 16.1637C11.26 15.7944 11.5395 15.2947 11.5395 14.6647C11.5395 14.2665 11.4186 13.8248 11.1844 13.3324C10.9502 12.8545 10.1644 11.5004 8.80429 9.27011C8.76651 9.18322 8.66828 9.12529 8.5625 9.12529Z" fill="var(--fill-0, white)"/>
</g>
<g id="Group_4">
<path id="Vector_3" d="M8.93242 8.76251C8.89464 8.8494 8.91731 8.95078 8.97776 9.03043C10.1716 10.428 11.7508 12.9261 13.1713 13.7589C13.7078 14.0775 14.2669 14.1065 14.8487 13.853C15.423 13.6068 15.8915 13.2448 16.3524 12.4917C16.8284 11.7169 17.0475 11.0073 17.0248 10.3628C17.0022 9.72558 16.7226 9.2549 16.1937 8.94354C15.8612 8.74803 15.4305 8.63217 14.9092 8.58872C14.3954 8.55252 11.7583 8.54528 9.18933 8.58872C9.07599 8.58872 8.9702 8.66113 8.93242 8.76251Z" fill="var(--fill-0, white)"/>
</g>
<g id="Group_5">
<path id="Vector_4" d="M8.9254 7.95992C8.97074 8.03233 9.05386 8.08302 9.14453 8.08302C11.7287 8.12646 14.3959 8.11922 14.9097 8.08302C15.4311 8.03957 15.8542 7.92371 16.1942 7.7282C16.7231 7.42407 17.0027 6.94616 17.0254 6.30894C17.048 5.66448 16.8289 4.95485 16.3529 4.18006C15.892 3.42698 15.4235 3.06492 14.8493 2.81873C14.2675 2.56529 13.7083 2.60149 13.1718 2.91286C11.7362 3.75283 10.1419 6.28722 8.94807 7.67751C8.88007 7.75717 8.87251 7.87302 8.9254 7.95992Z" fill="var(--fill-0, white)"/>
</g>
<g id="Group_6">
<path id="Vector_5" d="M8.09403 8.74079C8.04869 8.64665 7.95802 8.58872 7.85224 8.58872C5.27566 8.54528 2.63108 8.55252 2.11727 8.58872C1.59591 8.63217 1.16522 8.74803 0.832762 8.94354C0.303846 9.24766 0.0242759 9.72558 0.00160805 10.3628C-0.0210598 11.0073 0.198063 11.7169 0.674087 12.4917C1.135 13.2448 1.60347 13.6068 2.17772 13.853C2.75953 14.1065 3.31867 14.0702 3.85514 13.7589C5.28322 12.9261 6.86996 10.4135 8.0638 9.01595C8.12425 8.9363 8.13936 8.83492 8.09403 8.74079Z" fill="var(--fill-0, white)"/>
</g>
<path id="Vector_6" d="M8.07135 7.95948C8.02601 8.03913 7.93534 8.08258 7.83711 8.08982C5.26809 8.13327 2.63106 8.12603 2.11726 8.08982C1.5959 8.04637 1.16521 7.93052 0.832747 7.73501C0.30383 7.42364 0.0318161 6.94573 0.00159228 6.30851C-0.0210756 5.66405 0.198047 4.95442 0.674072 4.17962C1.13498 3.42654 1.60345 3.06449 2.17771 2.81829C2.75951 2.56485 3.31865 2.60106 3.85513 2.91242C5.2832 3.74515 6.8624 6.24334 8.04868 7.64087C8.05624 7.64811 8.05624 7.65535 8.06379 7.65535C8.06379 7.6626 8.13935 7.81466 8.07135 7.95948Z" fill="var(--fill-0, white)"/>
</g>
</svg>
