<svg preserveAspectRatio="none" width="100%" height="100%" overflow="visible" style="display: block;" viewBox="0 0 17.0271 16.7199" fill="none" xmlns="http://www.w3.org/2000/svg">
<g id="Group">
<g id="Group_2">
<path id="Vector" d="M8.57801 7.58154C8.47223 7.58878 8.36645 7.53085 8.31355 7.44396L6.44724 4.4751C5.8352 3.51203 5.52541 2.72275 5.52541 2.10726C5.52541 1.45556 5.78987 0.941436 6.31123 0.564898C6.83259 0.18836 7.5504 9.1375e-05 8.46467 9.1375e-05C9.40161 9.1375e-05 10.1572 0.18836 10.7163 0.557657C11.2679 0.926954 11.5475 1.42659 11.5475 2.05657C11.5475 2.45483 11.4266 2.89654 11.1924 3.38893C10.9581 3.86685 10.1723 5.21369 8.8198 7.43672C8.77447 7.52361 8.67624 7.5743 8.57801 7.58154Z" fill="var(--fill-0, white)"/>
</g>
<g id="Group_3">
<path id="Vector_2" d="M8.56259 9.12394C8.46436 9.12394 8.36613 9.17462 8.31324 9.26152L6.43937 12.2449C5.82733 13.2079 5.51754 13.9972 5.51754 14.6127C5.51754 15.2572 5.782 15.7785 6.30336 16.1551C6.82472 16.5316 7.54253 16.7199 8.4568 16.7199C9.39374 16.7199 10.1493 16.5316 10.7085 16.1623C11.2601 15.793 11.5396 15.2934 11.5396 14.6634C11.5396 14.2651 11.4187 13.8234 11.1845 13.331C10.9503 12.8531 10.1644 11.499 8.80438 9.26876C8.7666 9.18186 8.66837 9.12394 8.56259 9.12394Z" fill="var(--fill-0, white)"/>
</g>
<g id="Group_4">
<path id="Vector_3" d="M8.93254 8.76102C8.89476 8.84791 8.91743 8.94929 8.97788 9.02894C10.1717 10.4265 11.7509 12.9247 13.1714 13.7574C13.7079 14.076 14.267 14.105 14.8489 13.8515C15.4231 13.6053 15.8916 13.2433 16.3525 12.4902C16.8285 11.7154 17.0476 11.0058 17.025 10.3613C17.0023 9.72409 16.7227 9.25342 16.1938 8.94205C15.8613 8.74654 15.4307 8.63068 14.9093 8.58723C14.3955 8.55103 11.7585 8.54379 9.18945 8.58723C9.07611 8.58723 8.97032 8.65964 8.93254 8.76102Z" fill="var(--fill-0, white)"/>
</g>
<g id="Group_5">
<path id="Vector_4" d="M8.92551 7.95899C8.97084 8.0314 9.05396 8.08208 9.14463 8.08208C11.7288 8.12553 14.396 8.11829 14.9098 8.08208C15.4312 8.03864 15.8543 7.92278 16.1943 7.72727C16.7232 7.42314 17.0028 6.94523 17.0255 6.30801C17.0482 5.66355 16.829 4.95392 16.353 4.17912C15.8921 3.42605 15.4236 3.06399 14.8494 2.81779C14.2676 2.56435 13.7084 2.60056 13.1719 2.91193C11.7363 3.7519 10.142 6.28629 8.94817 7.67658C8.88017 7.75623 8.87261 7.87209 8.92551 7.95899Z" fill="var(--fill-0, white)"/>
</g>
<g id="Group_6">
<path id="Vector_5" d="M8.09401 8.7393C8.04868 8.64516 7.958 8.58723 7.85222 8.58723C5.27564 8.54379 2.63106 8.55103 2.11726 8.58723C1.5959 8.63068 1.16521 8.74654 0.832747 8.94205C0.30383 9.24618 0.0242601 9.72409 0.00159228 10.3613C-0.0210756 11.0058 0.198047 11.7154 0.674072 12.4902C1.13498 13.2433 1.60345 13.6053 2.17771 13.8515C2.75951 14.105 3.31865 14.0688 3.85513 13.7574C5.2832 12.9247 6.86995 10.412 8.06379 9.01446C8.12424 8.93481 8.13935 8.83343 8.09401 8.7393Z" fill="var(--fill-0, white)"/>
</g>
<path id="Vector_6" d="M8.07136 7.95894C8.02603 8.03859 7.93536 8.08204 7.83713 8.08928C5.26811 8.13273 2.63108 8.12548 2.11727 8.08928C1.59591 8.04583 1.16522 7.92997 0.832763 7.73446C0.303846 7.4231 0.031832 6.94518 0.00160824 6.30796C-0.0210596 5.6635 0.198063 4.95388 0.674088 4.17908C1.135 3.426 1.60347 3.06394 2.17772 2.81775C2.75953 2.56431 3.31867 2.60051 3.85514 2.91188C5.28322 3.74461 6.86241 6.24279 8.0487 7.64033C8.05625 7.64757 8.05625 7.65481 8.06381 7.65481C8.06381 7.66205 8.13937 7.81412 8.07136 7.95894Z" fill="var(--fill-0, white)"/>
</g>
</svg>
