<svg preserveAspectRatio="none" width="100%" height="100%" overflow="visible" style="display: block;" viewBox="0 0 17.0268 16.7198" fill="none" xmlns="http://www.w3.org/2000/svg">
<g id="Group">
<g id="Group_2">
<path id="Vector" d="M8.57777 7.58163C8.47199 7.58887 8.3662 7.53094 8.31331 7.44405L6.44699 4.47519C5.83496 3.51212 5.52517 2.72284 5.52517 2.10734C5.52517 1.45564 5.78963 0.941524 6.31099 0.564986C6.83235 0.188448 7.55016 0.000178873 8.46443 0.000178873C9.40137 0.000178873 10.157 0.188448 10.7161 0.557745C11.2677 0.927042 11.5473 1.42668 11.5473 2.05666C11.5473 2.45492 11.4264 2.89663 11.1921 3.38902C10.9579 3.86693 10.1721 5.21378 8.81956 7.4368C8.77422 7.5237 8.676 7.57439 8.57777 7.58163Z" fill="var(--fill-0, white)"/>
</g>
<g id="Group_3">
<path id="Vector_2" d="M8.56255 9.12391C8.46432 9.12391 8.3661 9.17459 8.31321 9.26149L6.43933 12.2448C5.8273 13.2079 5.5175 13.9972 5.5175 14.6127C5.5175 15.2571 5.78196 15.7785 6.30332 16.155C6.82468 16.5316 7.5425 16.7198 8.45677 16.7198C9.39371 16.7198 10.1493 16.5316 10.7084 16.1623C11.26 15.793 11.5396 15.2933 11.5396 14.6634C11.5396 14.2651 11.4187 13.8234 11.1845 13.331C10.9502 12.8531 10.1644 11.499 8.80434 9.26873C8.76656 9.18183 8.66833 9.12391 8.56255 9.12391Z" fill="var(--fill-0, white)"/>
</g>
<g id="Group_4">
<path id="Vector_3" d="M8.93246 8.76099C8.89468 8.84788 8.91735 8.94926 8.9778 9.02891C10.1716 10.4264 11.7508 12.9246 13.1713 13.7574C13.7078 14.076 14.267 14.1049 14.8488 13.8515C15.423 13.6053 15.8915 13.2432 16.3524 12.4902C16.8284 11.7154 17.0475 11.0057 17.0249 10.3613C17.0022 9.72406 16.7226 9.25339 16.1937 8.94202C15.8613 8.74651 15.4306 8.63065 14.9092 8.5872C14.3954 8.551 11.7584 8.54376 9.18936 8.5872C9.07602 8.5872 8.97024 8.65961 8.93246 8.76099Z" fill="var(--fill-0, white)"/>
</g>
<g id="Group_5">
<path id="Vector_4" d="M8.92524 7.95896C8.97057 8.03137 9.05369 8.08205 9.14436 8.08205C11.7285 8.1255 14.3957 8.11826 14.9095 8.08205C15.4309 8.03861 15.854 7.92275 16.1941 7.72724C16.723 7.42311 17.0025 6.9452 17.0252 6.30798C17.0479 5.66352 16.8288 4.95389 16.3527 4.17909C15.8918 3.42602 15.4234 3.06396 14.8491 2.81776C14.2673 2.56433 13.7082 2.60053 13.1717 2.9119C11.7361 3.75187 10.1417 6.28626 8.94791 7.67655C8.8799 7.7562 8.87235 7.87206 8.92524 7.95896Z" fill="var(--fill-0, white)"/>
</g>
<g id="Group_6">
<path id="Vector_5" d="M8.09412 8.73927C8.04878 8.64513 7.95811 8.5872 7.85233 8.5872C5.27575 8.54376 2.63117 8.551 2.11736 8.5872C1.596 8.63065 1.16531 8.74651 0.83285 8.94202C0.303933 9.24614 0.0243634 9.72406 0.00169555 10.3613C-0.0209723 11.0057 0.19815 11.7154 0.674175 12.4902C1.13509 13.2432 1.60356 13.6053 2.17781 13.8515C2.75962 14.1049 3.31876 14.0687 3.85523 13.7574C5.2833 12.9246 6.87005 10.412 8.06389 9.01443C8.12434 8.93478 8.13945 8.8334 8.09412 8.73927Z" fill="var(--fill-0, white)"/>
</g>
<path id="Vector_6" d="M8.0714 7.95905C8.02606 8.0387 7.93539 8.08215 7.83716 8.08939C5.26814 8.13283 2.63111 8.12559 2.11731 8.08939C1.59595 8.04594 1.16526 7.93008 0.832798 7.73457C0.303882 7.4232 0.0318677 6.94529 0.00164391 6.30807C-0.0210239 5.66361 0.198099 4.95398 0.674123 4.17918C1.13504 3.42611 1.60351 3.06405 2.17776 2.81785C2.75957 2.56441 3.31871 2.60062 3.85518 2.91199C5.28325 3.74472 6.86245 6.2429 8.04873 7.64044C8.05629 7.64768 8.05629 7.65492 8.06384 7.65492C8.06384 7.66216 8.1394 7.81422 8.0714 7.95905Z" fill="var(--fill-0, white)"/>
</g>
</svg>
