<svg preserveAspectRatio="none" width="100%" height="100%" overflow="visible" style="display: block;" viewBox="0 0 17.0271 16.7198" fill="none" xmlns="http://www.w3.org/2000/svg">
<g id="Group">
<g id="Group_2">
<path id="Vector" d="M8.57807 7.58163C8.47228 7.58887 8.3665 7.53094 8.31361 7.44405L6.44729 4.47519C5.83526 3.51212 5.52546 2.72284 5.52546 2.10735C5.52546 1.45565 5.78992 0.941528 6.31128 0.56499C6.83264 0.188452 7.55046 0.000183267 8.46473 0.000183267C9.40166 0.000183267 10.1573 0.188452 10.7164 0.557749C11.268 0.927046 11.5476 1.42668 11.5476 2.05666C11.5476 2.45492 11.4267 2.89663 11.1924 3.38903C10.9582 3.86694 10.1724 5.21379 8.81986 7.43681C8.77452 7.5237 8.67629 7.57439 8.57807 7.58163Z" fill="var(--fill-0, white)"/>
</g>
<g id="Group_3">
<path id="Vector_2" d="M8.56255 9.12378C8.46432 9.12378 8.36609 9.17447 8.3132 9.26136L6.43932 12.2447C5.82729 13.2078 5.5175 13.9971 5.5175 14.6125C5.5175 15.257 5.78196 15.7784 6.30332 16.1549C6.82468 16.5314 7.54249 16.7197 8.45676 16.7197C9.3937 16.7197 10.1493 16.5314 10.7084 16.1621C11.26 15.7929 11.5396 15.2932 11.5396 14.6632C11.5396 14.265 11.4187 13.8233 11.1845 13.3309C10.9502 12.853 10.1644 11.4989 8.80434 9.2686C8.76656 9.18171 8.66833 9.12378 8.56255 9.12378Z" fill="var(--fill-0, white)"/>
</g>
<g id="Group_4">
<path id="Vector_3" d="M8.93258 8.76078C8.89481 8.84768 8.91747 8.94905 8.97792 9.0287C10.1718 10.4262 11.751 12.9244 13.1715 13.7572C13.7079 14.0758 14.2671 14.1047 14.8489 13.8513C15.4231 13.6051 15.8916 13.243 16.3525 12.49C16.8286 11.7152 17.0477 11.0055 17.025 10.3611C17.0023 9.72385 16.7228 9.25318 16.1939 8.94181C15.8614 8.7463 15.4307 8.63044 14.9093 8.587C14.3955 8.55079 11.7585 8.54355 9.18949 8.587C9.07615 8.587 8.97036 8.65941 8.93258 8.76078Z" fill="var(--fill-0, white)"/>
</g>
<g id="Group_5">
<path id="Vector_4" d="M8.92555 7.95873C8.97089 8.03114 9.054 8.08183 9.14467 8.08183C11.7288 8.12527 14.3961 8.11803 14.9099 8.08183C15.4312 8.03838 15.8544 7.92252 16.1944 7.72701C16.7233 7.42289 17.0029 6.94497 17.0255 6.30775C17.0482 5.6633 16.8291 4.95367 16.353 4.17887C15.8921 3.42579 15.4237 3.06374 14.8494 2.81754C14.2676 2.5641 13.7085 2.6003 13.172 2.91167C11.7364 3.75164 10.1421 6.28603 8.94822 7.67633C8.88022 7.75598 8.87266 7.87184 8.92555 7.95873Z" fill="var(--fill-0, white)"/>
</g>
<g id="Group_6">
<path id="Vector_5" d="M8.09401 8.73906C8.04868 8.64492 7.95801 8.587 7.85222 8.587C5.27564 8.54355 2.63106 8.55079 2.11726 8.587C1.5959 8.63044 1.16521 8.7463 0.832747 8.94181C0.30383 9.24594 0.0242604 9.72385 0.00159256 10.3611C-0.0210753 11.0055 0.198047 11.7152 0.674072 12.49C1.13498 13.243 1.60345 13.6051 2.17771 13.8513C2.75951 14.1047 3.31865 14.0685 3.85513 13.7572C5.2832 12.9244 6.86995 10.4118 8.06379 9.01422C8.12424 8.93457 8.13935 8.83319 8.09401 8.73906Z" fill="var(--fill-0, white)"/>
</g>
<path id="Vector_6" d="M8.07143 7.95905C8.02609 8.0387 7.93542 8.08215 7.83719 8.08939C5.26817 8.13283 2.63114 8.12559 2.11734 8.08939C1.59598 8.04594 1.16529 7.93008 0.832827 7.73457C0.30391 7.42321 0.0318962 6.94529 0.00167244 6.30807C-0.0209954 5.66361 0.198127 4.95399 0.674152 4.17919C1.13506 3.42611 1.60353 3.06405 2.17779 2.81786C2.75959 2.56442 3.31873 2.60062 3.85521 2.91199C5.28328 3.74472 6.86248 6.2429 8.04876 7.64044C8.05632 7.64768 8.05632 7.65492 8.06387 7.65492C8.06387 7.66216 8.13943 7.81423 8.07143 7.95905Z" fill="var(--fill-0, white)"/>
</g>
</svg>
