<svg preserveAspectRatio="none" width="100%" height="100%" overflow="visible" style="display: block;" viewBox="0 0 17.027 16.7214" fill="none" xmlns="http://www.w3.org/2000/svg">
<g id="Group">
<g id="Group_2">
<path id="Vector" d="M8.57812 7.58152C8.47234 7.58876 8.36655 7.53083 8.31366 7.44394L6.44734 4.47508C5.83531 3.51201 5.52552 2.72273 5.52552 2.10724C5.52552 1.45554 5.78997 0.941418 6.31134 0.56488C6.8327 0.188342 7.55051 7.28932e-05 8.46478 7.28932e-05C9.40172 7.28932e-05 10.1573 0.188342 10.7165 0.557639C11.268 0.926936 11.5476 1.42657 11.5476 2.05655C11.5476 2.45481 11.4267 2.89652 11.1925 3.38891C10.9582 3.86683 10.1724 5.21368 8.81991 7.4367C8.77457 7.52359 8.67635 7.57428 8.57812 7.58152Z" fill="var(--fill-0, white)"/>
</g>
<g id="Group_3">
<path id="Vector_2" d="M8.56263 9.12529C8.46441 9.12529 8.36618 9.17598 8.31329 9.26287L6.43941 12.2462C5.82738 13.2093 5.51758 13.9986 5.51758 14.6141C5.51758 15.2585 5.78204 15.7799 6.3034 16.1564C6.82476 16.533 7.54258 16.7212 8.45685 16.7212C9.39379 16.7212 10.1494 16.533 10.7085 16.1637C11.2601 15.7944 11.5397 15.2947 11.5397 14.6647C11.5397 14.2665 11.4188 13.8248 11.1845 13.3324C10.9503 12.8545 10.1645 11.5004 8.80442 9.27011C8.76664 9.18322 8.66842 9.12529 8.56263 9.12529Z" fill="var(--fill-0, white)"/>
</g>
<g id="Group_4">
<path id="Vector_3" d="M8.9326 8.76251C8.89482 8.8494 8.91749 8.95078 8.97794 9.03043C10.1718 10.428 11.751 12.9261 13.1715 13.7589C13.708 14.0775 14.2671 14.1065 14.8489 13.853C15.4232 13.6068 15.8916 13.2448 16.3525 12.4917C16.8286 11.7169 17.0477 11.0073 17.025 10.3628C17.0024 9.72558 16.7228 9.2549 16.1939 8.94354C15.8614 8.74803 15.4307 8.63217 14.9094 8.58872C14.3956 8.55252 11.7585 8.54528 9.1895 8.58872C9.07616 8.58872 8.97038 8.66113 8.9326 8.76251Z" fill="var(--fill-0, white)"/>
</g>
<g id="Group_5">
<path id="Vector_4" d="M8.92548 7.95992C8.97081 8.03233 9.05393 8.08302 9.1446 8.08302C11.7287 8.12646 14.396 8.11922 14.9098 8.08302C15.4311 8.03957 15.8543 7.92371 16.1943 7.7282C16.7232 7.42407 17.0028 6.94616 17.0255 6.30894C17.0481 5.66448 16.829 4.95485 16.353 4.18006C15.8921 3.42698 15.4236 3.06492 14.8493 2.81873C14.2675 2.56529 13.7084 2.60149 13.1719 2.91286C11.7363 3.75283 10.142 6.28722 8.94815 7.67751C8.88014 7.75717 8.87259 7.87302 8.92548 7.95992Z" fill="var(--fill-0, white)"/>
</g>
<g id="Group_6">
<path id="Vector_5" d="M8.09401 8.74079C8.04868 8.64665 7.95801 8.58872 7.85222 8.58872C5.27564 8.54528 2.63106 8.55252 2.11726 8.58872C1.5959 8.63217 1.16521 8.74803 0.832747 8.94354C0.303831 9.24766 0.0242607 9.72558 0.00159288 10.3628C-0.021075 11.0073 0.198047 11.7169 0.674072 12.4917C1.13498 13.2448 1.60345 13.6068 2.17771 13.853C2.75951 14.1065 3.31865 14.0702 3.85513 13.7589C5.2832 12.9261 6.86995 10.4135 8.06379 9.01595C8.12424 8.9363 8.13935 8.83492 8.09401 8.74079Z" fill="var(--fill-0, white)"/>
</g>
<path id="Vector_6" d="M8.07141 7.95948C8.02607 8.03913 7.9354 8.08258 7.83717 8.08982C5.26815 8.13327 2.63112 8.12603 2.11732 8.08982C1.59596 8.04637 1.16527 7.93052 0.832808 7.73501C0.303891 7.42364 0.0318772 6.94573 0.00165336 6.30851C-0.0210145 5.66405 0.198108 4.95442 0.674133 4.17962C1.13505 3.42654 1.60351 3.06449 2.17777 2.81829C2.75958 2.56485 3.31872 2.60106 3.85519 2.91242C5.28326 3.74515 6.86246 6.24334 8.04874 7.64087C8.0563 7.64811 8.0563 7.65535 8.06385 7.65535C8.06385 7.6626 8.13941 7.81466 8.07141 7.95948Z" fill="var(--fill-0, white)"/>
</g>
</svg>
