<svg preserveAspectRatio="none" width="100%" height="100%" overflow="visible" style="display: block;" viewBox="0 0 17.0268 16.72" fill="none" xmlns="http://www.w3.org/2000/svg">
<g id="Group">
<g id="Group_2">
<path id="Vector" d="M8.57783 7.58148C8.47204 7.58872 8.36626 7.5308 8.31337 7.4439L6.44705 4.47505C5.83502 3.51198 5.52522 2.7227 5.52522 2.1072C5.52522 1.4555 5.78968 0.941381 6.31104 0.564843C6.8324 0.188305 7.55022 3.58004e-05 8.46449 3.58004e-05C9.40143 3.58004e-05 10.157 0.188305 10.7162 0.557602C11.2677 0.926899 11.5473 1.42654 11.5473 2.05651C11.5473 2.45477 11.4264 2.89648 11.1922 3.38888C10.958 3.86679 10.1721 5.21364 8.81962 7.43666C8.77428 7.52355 8.67606 7.57424 8.57783 7.58148Z" fill="var(--fill-0, white)"/>
</g>
<g id="Group_3">
<path id="Vector_2" d="M8.56255 9.12409C8.46432 9.12409 8.3661 9.17478 8.31321 9.26168L6.43933 12.245C5.8273 13.2081 5.5175 13.9974 5.5175 14.6129C5.5175 15.2573 5.78196 15.7787 6.30332 16.1552C6.82468 16.5318 7.5425 16.72 8.45677 16.72C9.39371 16.72 10.1493 16.5318 10.7084 16.1625C11.26 15.7932 11.5396 15.2935 11.5396 14.6635C11.5396 14.2653 11.4187 13.8236 11.1845 13.3312C10.9502 12.8533 10.1644 11.4992 8.80434 9.26892C8.76656 9.18202 8.66833 9.12409 8.56255 9.12409Z" fill="var(--fill-0, white)"/>
</g>
<g id="Group_4">
<path id="Vector_3" d="M8.93246 8.76215C8.89468 8.84905 8.91735 8.95042 8.9778 9.03007C10.1716 10.4276 11.7508 12.9258 13.1713 13.7585C13.7078 14.0771 14.267 14.1061 14.8488 13.8527C15.423 13.6065 15.8915 13.2444 16.3524 12.4913C16.8284 11.7165 17.0475 11.0069 17.0249 10.3624C17.0022 9.72522 16.7226 9.25455 16.1937 8.94318C15.8613 8.74767 15.4306 8.63181 14.9092 8.58837C14.3954 8.55216 11.7584 8.54492 9.18936 8.58837C9.07602 8.58837 8.97024 8.66078 8.93246 8.76215Z" fill="var(--fill-0, white)"/>
</g>
<g id="Group_5">
<path id="Vector_4" d="M8.92524 7.95863C8.97057 8.03104 9.05369 8.08173 9.14436 8.08173C11.7285 8.12518 14.3957 8.11794 14.9095 8.08173C15.4309 8.03828 15.854 7.92243 16.1941 7.72692C16.723 7.42279 17.0025 6.94487 17.0252 6.30766C17.0479 5.6632 16.8288 4.95357 16.3527 4.17877C15.8918 3.42569 15.4234 3.06364 14.8491 2.81744C14.2673 2.564 13.7082 2.60021 13.1717 2.91157C11.7361 3.75154 10.1417 6.28593 8.94791 7.67623C8.8799 7.75588 8.87235 7.87174 8.92524 7.95863Z" fill="var(--fill-0, white)"/>
</g>
<g id="Group_6">
<path id="Vector_5" d="M8.09412 8.74043C8.04878 8.6463 7.95811 8.58837 7.85233 8.58837C5.27575 8.54492 2.63117 8.55216 2.11736 8.58837C1.596 8.63181 1.16531 8.74767 0.83285 8.94318C0.303933 9.24731 0.0243634 9.72522 0.00169555 10.3624C-0.0209723 11.0069 0.19815 11.7165 0.674175 12.4913C1.13509 13.2444 1.60356 13.6065 2.17781 13.8527C2.75962 14.1061 3.31876 14.0699 3.85523 13.7585C5.2833 12.9258 6.87005 10.4131 8.06389 9.01559C8.12434 8.93594 8.13945 8.83456 8.09412 8.74043Z" fill="var(--fill-0, white)"/>
</g>
<path id="Vector_6" d="M8.0714 7.95888C8.02606 8.03854 7.93539 8.08198 7.83716 8.08922C5.26814 8.13267 2.63111 8.12543 2.11731 8.08922C1.59595 8.04578 1.16526 7.92992 0.832798 7.73441C0.303882 7.42304 0.0318677 6.94513 0.00164391 6.30791C-0.0210239 5.66345 0.198099 4.95382 0.674123 4.17902C1.13504 3.42595 1.60351 3.06389 2.17776 2.81769C2.75957 2.56425 3.31871 2.60046 3.85518 2.91183C5.28325 3.74455 6.86245 6.24274 8.04873 7.64027C8.05629 7.64752 8.05629 7.65476 8.06384 7.65476C8.06384 7.662 8.1394 7.81406 8.0714 7.95888Z" fill="var(--fill-0, white)"/>
</g>
</svg>
