<svg preserveAspectRatio="none" width="100%" height="100%" overflow="visible" style="display: block;" viewBox="0 0 17.0271 16.72" fill="none" xmlns="http://www.w3.org/2000/svg">
<g id="Group">
<g id="Group_2">
<path id="Vector" d="M8.578 7.58148C8.47222 7.58872 8.36644 7.5308 8.31355 7.4439L6.44723 4.47505C5.8352 3.51198 5.5254 2.7227 5.5254 2.1072C5.5254 1.4555 5.78986 0.941381 6.31122 0.564843C6.83258 0.188305 7.5504 3.58004e-05 8.46467 3.58004e-05C9.4016 3.58004e-05 10.1572 0.188305 10.7163 0.557602C11.2679 0.926899 11.5475 1.42654 11.5475 2.05651C11.5475 2.45477 11.4266 2.89648 11.1924 3.38888C10.9581 3.86679 10.1723 5.21364 8.81979 7.43666C8.77446 7.52355 8.67623 7.57424 8.578 7.58148Z" fill="var(--fill-0, white)"/>
</g>
<g id="Group_3">
<path id="Vector_2" d="M8.56259 9.12409C8.46436 9.12409 8.36613 9.17478 8.31324 9.26168L6.43937 12.245C5.82733 13.2081 5.51754 13.9974 5.51754 14.6129C5.51754 15.2573 5.782 15.7787 6.30336 16.1552C6.82472 16.5318 7.54253 16.72 8.4568 16.72C9.39374 16.72 10.1493 16.5318 10.7085 16.1625C11.2601 15.7932 11.5396 15.2935 11.5396 14.6635C11.5396 14.2653 11.4187 13.8236 11.1845 13.3312C10.9503 12.8533 10.1644 11.4992 8.80438 9.26892C8.7666 9.18202 8.66837 9.12409 8.56259 9.12409Z" fill="var(--fill-0, white)"/>
</g>
<g id="Group_4">
<path id="Vector_3" d="M8.93254 8.76215C8.89476 8.84905 8.91743 8.95042 8.97788 9.03007C10.1717 10.4276 11.7509 12.9258 13.1714 13.7585C13.7079 14.0771 14.267 14.1061 14.8489 13.8527C15.4231 13.6065 15.8916 13.2444 16.3525 12.4913C16.8285 11.7165 17.0476 11.0069 17.025 10.3624C17.0023 9.72522 16.7227 9.25455 16.1938 8.94318C15.8613 8.74767 15.4307 8.63181 14.9093 8.58837C14.3955 8.55216 11.7585 8.54492 9.18945 8.58837C9.07611 8.58837 8.97032 8.66078 8.93254 8.76215Z" fill="var(--fill-0, white)"/>
</g>
<g id="Group_5">
<path id="Vector_4" d="M8.92546 7.95863C8.9708 8.03104 9.05391 8.08173 9.14458 8.08173C11.7287 8.12518 14.396 8.11794 14.9098 8.08173C15.4311 8.03828 15.8543 7.92243 16.1943 7.72692C16.7232 7.42279 17.0028 6.94487 17.0254 6.30766C17.0481 5.6632 16.829 4.95357 16.353 4.17877C15.892 3.42569 15.4236 3.06364 14.8493 2.81744C14.2675 2.564 13.7084 2.60021 13.1719 2.91157C11.7363 3.75154 10.142 6.28593 8.94813 7.67623C8.88012 7.75588 8.87257 7.87174 8.92546 7.95863Z" fill="var(--fill-0, white)"/>
</g>
<g id="Group_6">
<path id="Vector_5" d="M8.09401 8.74043C8.04868 8.6463 7.958 8.58837 7.85222 8.58837C5.27564 8.54492 2.63106 8.55216 2.11726 8.58837C1.5959 8.63181 1.16521 8.74767 0.832747 8.94318C0.30383 9.24731 0.0242601 9.72522 0.00159228 10.3624C-0.0210756 11.0069 0.198047 11.7165 0.674072 12.4913C1.13498 13.2444 1.60345 13.6065 2.17771 13.8527C2.75951 14.1061 3.31865 14.0699 3.85513 13.7585C5.2832 12.9258 6.86995 10.4131 8.06379 9.01559C8.12424 8.93594 8.13935 8.83456 8.09401 8.74043Z" fill="var(--fill-0, white)"/>
</g>
<path id="Vector_6" d="M8.07136 7.95888C8.02603 8.03854 7.93536 8.08198 7.83713 8.08922C5.26811 8.13267 2.63108 8.12543 2.11727 8.08922C1.59591 8.04578 1.16522 7.92992 0.832763 7.73441C0.303846 7.42304 0.031832 6.94513 0.00160824 6.30791C-0.0210596 5.66345 0.198063 4.95382 0.674088 4.17902C1.135 3.42595 1.60347 3.06389 2.17772 2.81769C2.75953 2.56425 3.31867 2.60046 3.85514 2.91183C5.28322 3.74455 6.86241 6.24274 8.0487 7.64027C8.05625 7.64752 8.05625 7.65476 8.06381 7.65476C8.06381 7.662 8.13937 7.81406 8.07136 7.95888Z" fill="var(--fill-0, white)"/>
</g>
</svg>
