<svg preserveAspectRatio="none" width="100%" height="100%" overflow="visible" style="display: block;" viewBox="0 0 32.0001 31.4243" fill="none" xmlns="http://www.w3.org/2000/svg">
<g id="Group">
<g id="Group_2">
<path id="Vector" d="M16.1213 14.2484C15.9225 14.262 15.7237 14.1531 15.6243 13.9898L12.1167 8.41025C10.9665 6.60029 10.3843 5.11693 10.3843 3.96019C10.3843 2.7354 10.8813 1.76918 11.8611 1.06152C12.841 0.353869 14.19 4.0913e-05 15.9083 4.0913e-05C17.6691 4.0913e-05 19.0892 0.353868 20.14 1.04791C21.1766 1.74196 21.702 2.68097 21.702 3.86493C21.702 4.61341 21.4748 5.44354 21.0346 6.36894C20.5944 7.26711 19.1176 9.79834 16.5757 13.9762C16.4905 14.1395 16.3059 14.2348 16.1213 14.2484Z" fill="var(--fill-0, #08A03F)"/>
</g>
<g id="Group_3">
<path id="Vector_2" d="M16.0919 17.1487C15.9073 17.1487 15.7227 17.2439 15.6233 17.4072L12.1016 23.0141C10.9514 24.824 10.3691 26.3074 10.3691 27.4641C10.3691 28.6753 10.8662 29.6551 11.846 30.3628C12.8258 31.0704 14.1749 31.4243 15.8931 31.4243C17.654 31.4243 19.074 31.0704 20.1248 30.3764C21.1615 29.6823 21.6869 28.7433 21.6869 27.5594C21.6869 26.8109 21.4597 25.9808 21.0195 25.0554C20.5793 24.1572 19.1024 21.6124 16.5463 17.4209C16.4753 17.2576 16.2907 17.1487 16.0919 17.1487Z" fill="var(--fill-0, #08A03F)"/>
</g>
<g id="Group_4">
<path id="Vector_3" d="M16.7873 16.4653C16.7163 16.6286 16.7589 16.8191 16.8725 16.9688C19.1162 19.5953 22.0841 24.2903 24.7537 25.8553C25.762 26.4541 26.8128 26.5086 27.9062 26.0322C28.9855 25.5695 29.8659 24.8891 30.7321 23.4738C31.6268 22.0177 32.0386 20.684 31.996 19.4728C31.9534 18.2753 31.428 17.3907 30.4339 16.8055C29.8091 16.4381 28.9997 16.2203 28.0198 16.1387C27.0542 16.0706 22.0983 16.057 17.2701 16.1387C17.0571 16.1387 16.8583 16.2748 16.7873 16.4653Z" fill="var(--fill-0, #08A03F)"/>
</g>
<g id="Group_5">
<path id="Vector_4" d="M16.7742 14.956C16.8594 15.0921 17.0156 15.1874 17.186 15.1874C22.0425 15.269 27.0553 15.2554 28.0209 15.1874C29.0007 15.1057 29.796 14.888 30.435 14.5206C31.429 13.949 31.9544 13.0508 31.997 11.8532C32.0396 10.6421 31.6278 9.3084 30.7332 7.85227C29.867 6.43696 28.9865 5.75652 27.9073 5.29382C26.8139 4.81752 25.763 4.88556 24.7548 5.47074C22.0567 7.04935 19.0604 11.8124 16.8168 14.4253C16.689 14.575 16.6748 14.7927 16.7742 14.956Z" fill="var(--fill-0, #08A03F)"/>
</g>
<g id="Group_6">
<path id="Vector_5" d="M15.2117 16.4258C15.1265 16.2489 14.9561 16.14 14.7573 16.14C9.9149 16.0584 4.94475 16.072 3.97912 16.14C2.99929 16.2217 2.18986 16.4394 1.56504 16.8069C0.57101 17.3784 0.0455938 18.2766 0.00299249 19.4742C-0.0396088 20.6854 0.372204 22.019 1.26683 23.4752C2.13306 24.8905 3.01349 25.5709 4.09272 26.0336C5.18615 26.5099 6.23699 26.4419 7.24522 25.8567C9.9291 24.2917 12.9112 19.5694 15.1549 16.943C15.2685 16.7933 15.2969 16.6027 15.2117 16.4258Z" fill="var(--fill-0, #08A03F)"/>
</g>
<path id="Vector_6" d="M15.1691 14.956C15.0839 15.1057 14.9135 15.1873 14.7289 15.2009C9.9007 15.2826 4.94475 15.269 3.97912 15.2009C2.99929 15.1193 2.18986 14.9015 1.56504 14.5341C0.57101 13.9489 0.0597943 13.0507 0.00299249 11.8532C-0.0396089 10.642 0.372204 9.30832 1.26683 7.85218C2.13306 6.43687 3.01349 5.75644 4.09272 5.29374C5.18616 4.81743 6.23699 4.88547 7.24522 5.47065C9.92911 7.03566 12.897 11.7307 15.1265 14.3572C15.1407 14.3708 15.1407 14.3844 15.1549 14.3844C15.1549 14.398 15.2969 14.6838 15.1691 14.956Z" fill="var(--fill-0, #08A03F)"/>
</g>
</svg>
