<svg preserveAspectRatio="none" width="100%" height="100%" overflow="visible" style="display: block;" viewBox="0 0 600 31.4243" fill="none" xmlns="http://www.w3.org/2000/svg">
<g id="Group 400">
<g id="Group" opacity="0.5">
<g id="Group_2">
<path id="Vector" d="M584.121 14.2484C583.922 14.262 583.724 14.1531 583.624 13.9898L580.117 8.41025C578.966 6.60029 578.384 5.11693 578.384 3.96019C578.384 2.7354 578.881 1.76918 579.861 1.06152C580.841 0.353869 582.19 4.0913e-05 583.908 4.0913e-05C585.669 4.0913e-05 587.089 0.353868 588.14 1.04791C589.177 1.74196 589.702 2.68097 589.702 3.86493C589.702 4.61341 589.475 5.44354 589.035 6.36894C588.594 7.26711 587.118 9.79834 584.576 13.9762C584.49 14.1395 584.306 14.2348 584.121 14.2484Z" fill="var(--fill-0, #08A03F)"/>
</g>
<g id="Group_3">
<path id="Vector_2" d="M584.092 17.1487C583.907 17.1487 583.723 17.2439 583.623 17.4072L580.102 23.0141C578.951 24.824 578.369 26.3074 578.369 27.4641C578.369 28.6753 578.866 29.6551 579.846 30.3628C580.826 31.0704 582.175 31.4243 583.893 31.4243C585.654 31.4243 587.074 31.0704 588.125 30.3764C589.161 29.6823 589.687 28.7433 589.687 27.5594C589.687 26.8109 589.46 25.9808 589.019 25.0554C588.579 24.1572 587.102 21.6124 584.546 17.4209C584.475 17.2576 584.291 17.1487 584.092 17.1487Z" fill="var(--fill-0, #08A03F)"/>
</g>
<g id="Group_4">
<path id="Vector_3" d="M584.787 16.4653C584.716 16.6286 584.759 16.8191 584.872 16.9688C587.116 19.5953 590.084 24.2903 592.754 25.8553C593.762 26.4541 594.813 26.5086 595.906 26.0322C596.985 25.5695 597.866 24.8891 598.732 23.4738C599.627 22.0177 600.039 20.684 599.996 19.4728C599.953 18.2753 599.428 17.3907 598.434 16.8055C597.809 16.4381 597 16.2203 596.02 16.1387C595.054 16.0706 590.098 16.057 585.27 16.1387C585.057 16.1387 584.858 16.2748 584.787 16.4653Z" fill="var(--fill-0, #08A03F)"/>
</g>
<g id="Group_5">
<path id="Vector_4" d="M584.774 14.956C584.859 15.0921 585.016 15.1874 585.186 15.1874C590.043 15.269 595.055 15.2554 596.021 15.1874C597.001 15.1057 597.796 14.888 598.435 14.5206C599.429 13.949 599.954 13.0508 599.997 11.8532C600.04 10.6421 599.628 9.3084 598.733 7.85227C597.867 6.43696 596.987 5.75652 595.907 5.29382C594.814 4.81752 593.763 4.88556 592.755 5.47074C590.057 7.04935 587.06 11.8124 584.817 14.4253C584.689 14.575 584.675 14.7927 584.774 14.956Z" fill="var(--fill-0, #08A03F)"/>
</g>
<g id="Group_6">
<path id="Vector_5" d="M583.212 16.4258C583.126 16.2489 582.956 16.14 582.757 16.14C577.915 16.0584 572.945 16.072 571.979 16.14C570.999 16.2217 570.19 16.4394 569.565 16.8069C568.571 17.3784 568.046 18.2766 568.003 19.4742C567.96 20.6854 568.372 22.019 569.267 23.4752C570.133 24.8905 571.013 25.5709 572.093 26.0336C573.186 26.5099 574.237 26.4419 575.245 25.8567C577.929 24.2917 580.911 19.5694 583.155 16.943C583.268 16.7933 583.297 16.6027 583.212 16.4258Z" fill="var(--fill-0, #08A03F)"/>
</g>
<path id="Vector_6" d="M583.169 14.956C583.084 15.1057 582.913 15.1873 582.729 15.2009C577.901 15.2826 572.945 15.269 571.979 15.2009C570.999 15.1193 570.19 14.9015 569.565 14.5341C568.571 13.9489 568.06 13.0507 568.003 11.8532C567.96 10.642 568.372 9.30832 569.267 7.85218C570.133 6.43687 571.013 5.75644 572.093 5.29374C573.186 4.81743 574.237 4.88547 575.245 5.47065C577.929 7.03566 580.897 11.7307 583.126 14.3572C583.141 14.3708 583.141 14.3844 583.155 14.3844C583.155 14.398 583.297 14.6838 583.169 14.956Z" fill="var(--fill-0, #08A03F)"/>
</g>
<line id="Line 20" opacity="0.5" y1="15.5002" x2="550" y2="15.5002" stroke="var(--stroke-0, #08A03F)"/>
</g>
</svg>
