<svg preserveAspectRatio="none" width="100%" height="100%" overflow="visible" style="display: block;" viewBox="0 0 30.9998 230" fill="none" xmlns="http://www.w3.org/2000/svg">
<g id="Petal">
<line id="Line 18" x1="13.3873" x2="13.3873" y2="90" stroke="var(--stroke-0, #08A03F)" stroke-width="0.774597"/>
<line id="Line 19" x1="13.3873" y1="140" x2="13.3873" y2="230" stroke="var(--stroke-0, #08A03F)" stroke-width="0.774597"/>
<g id="Group">
<g id="Group_2">
<path id="Vector" d="M15.6175 114.803C15.4249 114.816 15.2323 114.711 15.136 114.553L11.7381 109.147C10.6238 107.394 10.0598 105.957 10.0598 104.836C10.0598 103.65 10.5413 102.714 11.4905 102.028C12.4397 101.343 13.7466 101 15.4111 101C17.117 101 18.4926 101.343 19.5106 102.015C20.5149 102.688 21.0239 103.597 21.0239 104.744C21.0239 105.469 20.8038 106.273 20.3773 107.17C19.9508 108.04 18.5202 110.492 16.0577 114.54C15.9752 114.698 15.7963 114.79 15.6175 114.803Z" fill="var(--fill-0, #08A03F)"/>
</g>
<g id="Group_3">
<path id="Vector_2" d="M15.5889 117.611C15.41 117.611 15.2312 117.704 15.1349 117.862L11.7232 123.293C10.6089 125.047 10.0449 126.484 10.0449 127.604C10.0449 128.778 10.5264 129.727 11.4756 130.412C12.4248 131.098 13.7317 131.441 15.3963 131.441C17.1021 131.441 18.4778 131.098 19.4958 130.426C20.5 129.753 21.009 128.844 21.009 127.697C21.009 126.972 20.7889 126.167 20.3624 125.271C19.936 124.401 18.5053 121.936 16.0291 117.875C15.9603 117.717 15.7815 117.611 15.5889 117.611Z" fill="var(--fill-0, #08A03F)"/>
</g>
<g id="Group_4">
<path id="Vector_3" d="M16.2621 116.953C16.1934 117.111 16.2346 117.296 16.3447 117.441C18.5182 119.985 21.3934 124.533 23.9796 126.05C24.9564 126.63 25.9744 126.682 27.0336 126.221C28.0791 125.773 28.932 125.113 29.7712 123.742C30.6379 122.332 31.0368 121.04 30.9955 119.866C30.9543 118.706 30.4453 117.849 29.4823 117.283C28.877 116.927 28.0929 116.716 27.1437 116.637C26.2082 116.571 21.4071 116.557 16.7299 116.637C16.5235 116.637 16.3309 116.768 16.2621 116.953Z" fill="var(--fill-0, #08A03F)"/>
</g>
<g id="Group_5">
<path id="Vector_4" d="M16.2497 115.488C16.3323 115.619 16.4836 115.712 16.6487 115.712C21.3534 115.791 26.2095 115.778 27.145 115.712C28.0942 115.633 28.8646 115.422 29.4836 115.066C30.4466 114.512 30.9556 113.642 30.9969 112.482C31.0381 111.308 30.6392 110.016 29.7725 108.606C28.9334 107.235 28.0804 106.576 27.0349 106.127C25.9757 105.666 24.9577 105.732 23.981 106.299C21.3672 107.828 18.4645 112.442 16.291 114.973C16.1672 115.118 16.1534 115.329 16.2497 115.488Z" fill="var(--fill-0, #08A03F)"/>
</g>
<g id="Group_6">
<path id="Vector_5" d="M14.7363 116.913C14.6537 116.742 14.4887 116.637 14.2961 116.637C9.60505 116.557 4.79022 116.571 3.85476 116.637C2.90555 116.716 2.12143 116.927 1.51613 117.283C0.553165 117.836 0.044169 118.706 0.00289897 119.866C-0.038371 121.04 0.360572 122.332 1.22724 123.742C2.0664 125.113 2.91931 125.773 3.96482 126.221C5.02408 126.682 6.04207 126.616 7.0188 126.05C9.61881 124.533 12.5077 119.959 14.6813 117.414C14.7913 117.269 14.8188 117.085 14.7363 116.913Z" fill="var(--fill-0, #08A03F)"/>
</g>
<path id="Vector_6" d="M14.695 115.488C14.6125 115.633 14.4474 115.712 14.2686 115.725C9.5913 115.804 4.79022 115.791 3.85477 115.725C2.90556 115.646 2.12143 115.435 1.51613 115.079C0.553166 114.512 0.0579256 113.642 0.00289897 112.482C-0.038371 111.308 0.360572 110.016 1.22724 108.606C2.0664 107.235 2.91931 106.576 3.96482 106.127C5.02408 105.666 6.04208 105.732 7.0188 106.299C9.61881 107.815 12.494 112.363 14.6537 114.908C14.6675 114.921 14.6675 114.934 14.6813 114.934C14.6813 114.947 14.8188 115.224 14.695 115.488Z" fill="var(--fill-0, #08A03F)"/>
</g>
</g>
</svg>
