<svg preserveAspectRatio="none" width="100%" height="100%" overflow="visible" style="display: block;" viewBox="0 0 67 67" fill="none" xmlns="http://www.w3.org/2000/svg">
<g id="Frame 497">
<path id="Vector" d="M48.459 41.5693C48.5003 40.1926 47.4278 39.0428 46.0511 38.9912H44.8806C44.6434 38.1868 44.3237 37.4134 43.9215 36.6761L44.7517 35.8511C45.1848 35.4128 45.4272 34.8198 45.422 34.2011C45.4168 33.4947 45.1281 32.8192 44.6279 32.3242L43.5297 31.2311C42.5861 30.236 41.0186 30.1792 40.0079 31.1125L39.3376 31.7828L39.0592 31.5044C38.6828 31.0816 38.0279 31.0403 37.6051 31.4219C37.1823 31.7983 37.1411 32.4531 37.5226 32.8759C37.5587 32.912 37.5948 32.9481 37.6361 32.9842L38.6673 33.9845C39.0695 34.3867 39.7192 34.3867 40.1214 33.9845L41.5136 32.5924C41.7198 32.4738 41.9828 32.5253 42.1272 32.7161L43.2203 33.8092C43.3337 33.9175 43.4059 34.067 43.4111 34.2217C43.4111 34.2939 43.3904 34.3609 43.344 34.4125L41.9467 35.8047C41.6012 36.1501 41.5445 36.6864 41.8075 37.0937C42.4314 38.0631 42.88 39.1407 43.1275 40.2699C43.2306 40.7546 43.6637 41.0949 44.1587 41.0846H46.1284C46.2882 41.0846 46.4739 41.3063 46.4739 41.6002V43.1471C46.4739 43.4513 46.2934 43.6627 46.1284 43.6627H44.0865C43.5915 43.6524 43.1584 43.9927 43.0553 44.4774C42.8129 45.5911 42.3747 46.6533 41.7611 47.6124C41.4981 48.0197 41.5548 48.5559 41.9003 48.9014L43.3079 50.2936C43.3543 50.3451 43.3801 50.4122 43.375 50.4844C43.3698 50.6391 43.2976 50.7886 43.1842 50.8969L42.0911 51.99C41.8745 52.2065 41.5754 52.2272 41.4775 52.1137L40.0853 50.7216C39.745 50.3812 39.2087 50.3194 38.8014 50.5823C37.8268 51.2062 36.7492 51.6548 35.62 51.9023C35.1404 52.0106 34.8001 52.4386 34.8104 52.9336V54.9032C34.8104 55.0631 34.5887 55.2435 34.2948 55.2435H32.7479C32.454 55.2435 32.2323 55.0631 32.2323 54.9032V52.9336C32.2426 52.4386 31.9023 52.0106 31.4228 51.9023C30.2936 51.6548 29.2159 51.2062 28.2414 50.5823C27.834 50.3194 27.2978 50.3812 26.9575 50.7216L25.5653 52.1137C25.4519 52.2272 25.1683 52.2065 24.9569 51.99L23.8637 50.8969C23.7503 50.7886 23.6833 50.6391 23.6781 50.4844C23.6781 50.4122 23.6987 50.3451 23.7451 50.2936L25.1425 48.9014C25.4879 48.5559 25.5447 48.0197 25.2817 47.6124C24.6578 46.6378 24.2092 45.5654 23.9617 44.4361C23.8534 43.9566 23.4254 43.6163 22.9304 43.6266H20.9659C20.8009 43.6266 20.6204 43.4152 20.6204 43.111V41.5641C20.6204 41.2702 20.8009 41.0485 20.9659 41.0485H22.9356C23.4306 41.0588 23.8586 40.7185 23.9669 40.239C24.2092 39.1149 24.6475 38.0425 25.2611 37.0679C25.524 36.6606 25.4673 36.1243 25.1219 35.7789L23.7142 34.3867C23.6626 34.3248 23.6369 34.2475 23.6472 34.1701C23.6626 34.0258 23.7245 33.8866 23.8328 33.7834L24.9259 32.6955C25.1373 32.4841 25.4415 32.4583 25.5395 32.5717L26.9317 33.9639C27.3339 34.3661 27.9836 34.3661 28.3858 33.9639L29.3861 32.9842C29.7934 32.582 29.7986 31.9324 29.3964 31.525C28.9942 31.1177 28.3445 31.1125 27.9372 31.5147L27.6742 31.7725L27.0039 31.1022C25.9933 30.1741 24.4258 30.2257 23.4822 31.226L22.389 32.3191C21.925 32.778 21.6414 33.3916 21.6001 34.0464C21.5537 34.7115 21.7961 35.3664 22.2653 35.8459L23.0954 36.6709C22.6933 37.4082 22.3736 38.1817 22.1364 38.986H20.9659C19.5892 39.0376 18.5167 40.1874 18.5579 41.5641V43.111C18.5167 44.4877 19.5892 45.6375 20.9659 45.6891H22.1364C22.3736 46.4935 22.6984 47.2669 23.1006 48.0042L22.2704 48.8344C21.8373 49.2727 21.595 49.8656 21.6001 50.4844C21.6104 51.1908 21.894 51.8611 22.3942 52.3561L23.4873 53.4492C24.4309 54.4495 25.9984 54.501 27.009 53.5729L27.8392 52.7428C28.5765 53.145 29.3551 53.4698 30.1595 53.707V54.8723C30.2111 56.249 31.3609 57.3215 32.7376 57.2802H34.2845C35.6612 57.3215 36.8111 56.249 36.8626 54.8723V53.707C37.667 53.4698 38.4456 53.145 39.1829 52.7428L40.0131 53.5729C41.0237 54.5062 42.5964 54.4495 43.54 53.4492L44.6331 52.3561C45.1332 51.8611 45.422 51.1908 45.4323 50.4844C45.4375 49.8656 45.2003 49.2675 44.762 48.8292L43.9318 48.0042C44.334 47.2669 44.6537 46.4935 44.8909 45.6891H46.0614C47.4381 45.6375 48.5106 44.4877 48.4693 43.111V41.5693H48.459Z" fill="var(--fill-0, #034A1D)" stroke="var(--stroke-0, #CBFFDE)"/>
<path id="Vector_2" d="M28.8652 29.4057C29.4324 29.4057 29.8965 28.9417 29.8965 28.3745V27.3433H37.1152V28.3745C37.1152 28.9417 37.5793 29.4057 38.1465 29.4057C38.7137 29.4057 39.1777 28.9417 39.1777 28.3745V26.9823C39.1571 26.0233 38.3682 25.2602 37.4092 25.2756H29.6026C28.6435 25.2602 27.8546 26.0233 27.834 26.9823V28.3745C27.834 28.9417 28.2981 29.4057 28.8652 29.4057Z" fill="var(--fill-0, #034A1D)" stroke="var(--stroke-0, #CBFFDE)"/>
<path id="Vector_3" d="M30.9277 23.1873H36.084C36.6512 23.1873 37.1152 22.7232 37.1152 22.156C37.1152 21.5889 36.6512 21.1248 36.084 21.1248H34.5371V1.53124C34.5371 0.964058 34.0731 0.5 33.5059 0.5C32.9387 0.5 32.4746 0.964058 32.4746 1.53124V21.1248H30.9277C30.3606 21.1248 29.8965 21.5889 29.8965 22.156C29.8965 22.7232 30.3606 23.1873 30.9277 23.1873Z" fill="var(--fill-0, #034A1D)" stroke="var(--stroke-0, #CBFFDE)"/>
<path id="Vector_4" d="M21.1302 25.4457C21.1302 23.4554 20.5424 21.5115 19.4338 19.8615L15.6594 14.1897L15.4222 13.8391C14.9994 13.2461 14.3188 12.8904 13.5917 12.8749H8.11064C7.3836 12.8955 6.70298 13.2564 6.28017 13.8494C4.21767 16.9431 2.84095 19.0056 2.56251 19.3459C1.22189 21.0887 0.500013 23.2285 0.500013 25.4302C0.541263 31.0866 5.16126 35.6395 10.8177 35.5983C16.4638 35.6344 21.0786 31.0917 21.1302 25.4457ZM10.8177 33.5358C6.30595 33.577 2.61408 29.9574 2.56767 25.4457C2.56767 23.6977 3.14001 21.9962 4.2022 20.6092C4.61986 20.0575 6.78032 16.8606 7.98173 15.025C8.01782 14.9941 8.06423 14.9683 8.11064 14.9477H13.5711C13.6175 14.958 13.6639 14.9786 13.7052 15.0044L13.9424 15.355L17.7219 21.0268C18.5984 22.3314 19.0677 23.8731 19.0677 25.4457C19.0213 29.9574 15.3294 33.577 10.8177 33.5358Z" fill="var(--fill-0, #034A1D)" stroke="var(--stroke-0, #CBFFDE)"/>
<path id="Vector_5" d="M7.75594 11.8436H13.9434C14.5106 11.8436 14.9747 11.3796 14.9747 10.8124C14.9747 10.2452 14.5106 9.78116 13.9434 9.78116H7.75594C7.18876 9.78116 6.7247 10.2452 6.7247 10.8124C6.7247 11.3796 7.18876 11.8436 7.75594 11.8436Z" fill="var(--fill-0, #034A1D)" stroke="var(--stroke-0, #CBFFDE)"/>
<path id="Vector_6" d="M8.78719 8.74992H12.9122C13.4794 8.74992 13.9434 8.28586 13.9434 7.71868C13.9434 7.1515 13.4794 6.68744 12.9122 6.68744H11.85V1.53124C11.85 0.964058 11.3859 0.5 10.8188 0.5C10.2516 0.5 9.78751 0.964058 9.78751 1.53124V6.68744H8.78719C8.22001 6.68744 7.75594 7.1515 7.75594 7.71868C7.75594 8.28586 8.22001 8.74992 8.78719 8.74992Z" fill="var(--fill-0, #034A1D)" stroke="var(--stroke-0, #CBFFDE)"/>
<path id="Vector_7" d="M64.8088 19.8615L61.0344 14.1897L60.7972 13.8391C60.3744 13.2461 59.6938 12.8904 58.9667 12.8749H53.4856C52.7586 12.8955 52.078 13.2564 51.6552 13.8494C49.5927 16.9431 48.216 19.0056 47.9375 19.3459C46.5969 21.0887 45.8699 23.2285 45.875 25.4302C45.875 31.1278 50.4899 35.7426 56.1875 35.7426C61.8852 35.7426 66.5 31.1278 66.5 25.4302C66.5 23.4451 65.9122 21.5115 64.8088 19.8615ZM56.1927 33.5358C51.681 33.577 47.9891 29.9574 47.9427 25.4457C47.9427 23.6977 48.515 21.9962 49.5772 20.6092C49.9949 20.0575 52.1553 16.8606 53.3567 15.025C53.3928 14.9941 53.4392 14.9683 53.4856 14.9477H58.9461C58.9925 14.958 59.0389 14.9786 59.0802 15.0044L59.3174 15.355L63.0969 21.0268C63.9735 22.3314 64.4427 23.8731 64.4427 25.4457C64.3963 29.9574 60.7044 33.577 56.1927 33.5358Z" fill="var(--fill-0, #034A1D)" stroke="var(--stroke-0, #CBFFDE)"/>
<path id="Vector_8" d="M53.1309 11.8436H59.3184C59.8856 11.8436 60.3497 11.3796 60.3497 10.8124C60.3497 10.2452 59.8856 9.78116 59.3184 9.78116H53.1309C52.5637 9.78116 52.0997 10.2452 52.0997 10.8124C52.0997 11.3796 52.5637 11.8436 53.1309 11.8436Z" fill="var(--fill-0, #034A1D)" stroke="var(--stroke-0, #CBFFDE)"/>
<path id="Vector_9" d="M54.1622 8.74992H58.2872C58.8544 8.74992 59.3184 8.28586 59.3184 7.71868C59.3184 7.1515 58.8544 6.68744 58.2872 6.68744H57.225V1.53124C57.225 0.964058 56.7609 0.5 56.1937 0.5C55.6266 0.5 55.1625 0.964058 55.1625 1.53124V6.68744H54.1622C53.595 6.68744 53.1309 7.1515 53.1309 7.71868C53.1309 8.28586 53.595 8.74992 54.1622 8.74992Z" fill="var(--fill-0, #034A1D)" stroke="var(--stroke-0, #CBFFDE)"/>
<path id="Vector_10" d="M52.8612 52.9435C52.3559 52.6857 51.732 52.8868 51.4741 53.3972C51.402 53.5416 51.3246 53.686 51.2473 53.8304C50.974 54.3305 51.1596 54.9596 51.6598 55.2328C52.1599 55.5061 52.789 55.3205 53.0623 54.8152L53.3149 54.3357C53.5727 53.8304 53.3768 53.2065 52.8663 52.9486C52.8663 52.9486 52.8663 52.9486 52.8612 52.9486V52.9435Z" fill="var(--fill-0, #034A1D)" stroke="var(--stroke-0, #CBFFDE)"/>
<path id="Vector_11" d="M48.7312 57.4553L48.4012 57.8266C48.0196 58.2545 48.0557 58.9094 48.4785 59.2961C48.9014 59.6828 49.5614 59.6415 49.9481 59.2187L50.3039 58.8165C50.7112 58.4144 50.7112 57.7647 50.3142 57.3573C49.9171 56.95 49.2623 56.95 48.8549 57.347C48.8189 57.3831 48.7879 57.4192 48.757 57.4605H48.7312V57.4553Z" fill="var(--fill-0, #034A1D)" stroke="var(--stroke-0, #CBFFDE)"/>
<g id="Vector_12">
<path d="M54.3531 48.0093C53.8013 47.8753 53.2393 48.2156 53.1052 48.7673C53.1052 48.7776 53.1052 48.7879 53.1001 48.7982C53.064 48.9581 53.0279 49.1179 52.9918 49.2777C52.8629 49.8346 53.2084 50.3863 53.7652 50.5152C53.8477 50.5359 53.9302 50.5462 54.0127 50.5462C54.4871 50.5462 54.8996 50.2213 55.0131 49.7573C55.0543 49.582 55.0956 49.4067 55.1368 49.2417C55.2606 48.6848 54.9099 48.1331 54.3531 48.0093C54.3531 48.0093 54.3531 48.0093 54.3479 48.0093H54.3531Z" fill="var(--fill-0, #034A1D)"/>
<path d="M54.3531 48.0093C53.8013 47.8753 53.2393 48.2156 53.1052 48.7673C53.1052 48.7776 53.1052 48.7879 53.1001 48.7982C53.064 48.9581 53.0279 49.1179 52.9918 49.2777C52.8629 49.8346 53.2084 50.3863 53.7652 50.5152C53.8477 50.5359 53.9302 50.5462 54.0127 50.5462C54.4871 50.5462 54.8996 50.2213 55.0131 49.7573C55.0543 49.582 55.0956 49.4067 55.1368 49.2417C55.2606 48.6848 54.9099 48.1331 54.3531 48.0093ZM54.3531 48.0093C54.3531 48.0093 54.3531 48.0093 54.3479 48.0093H54.3531Z" stroke="var(--stroke-0, #CBFFDE)"/>
</g>
<path id="Vector_13" d="M40.8223 63.1376L40.3634 63.318C39.8272 63.5191 39.559 64.1121 39.7601 64.6483C39.9612 65.1846 40.5542 65.4527 41.0905 65.2516L41.6061 65.0557C42.132 64.8443 42.3898 64.241 42.1784 63.7099C41.967 63.184 41.3637 62.9262 40.8326 63.1427H40.8223V63.1376Z" fill="var(--fill-0, #034A1D)" stroke="var(--stroke-0, #CBFFDE)"/>
<path id="Vector_14" d="M31.235 64.313L30.7503 64.2408C30.1831 64.148 29.6417 64.5347 29.5489 65.1019C29.4561 65.6691 29.8428 66.2105 30.41 66.3033L30.9256 66.3858H31.07C31.6372 66.4219 32.1322 65.9939 32.1735 65.4267C32.2096 64.8595 31.7816 64.3646 31.2092 64.3233L31.235 64.313Z" fill="var(--fill-0, #034A1D)" stroke="var(--stroke-0, #CBFFDE)"/>
<path id="Vector_15" d="M26.4975 63.0601L26.0438 62.8745C25.5075 62.6837 24.9197 62.9621 24.7289 63.5035C24.5536 64.0037 24.7805 64.5502 25.2549 64.7771L25.7705 64.9833C26.3016 65.1896 26.8997 64.9318 27.1111 64.3955C27.3225 63.8593 27.0596 63.2663 26.5233 63.0549H26.4975V63.0601Z" fill="var(--fill-0, #034A1D)" stroke="var(--stroke-0, #CBFFDE)"/>
<path id="Vector_16" d="M22.1607 60.7451L21.7585 60.4564C21.2996 60.1212 20.6499 60.2243 20.3199 60.6833C19.9899 61.1422 20.0879 61.7918 20.5468 62.1218L20.985 62.4312C21.4543 62.756 22.0936 62.6375 22.4185 62.1734C22.7433 61.7042 22.6247 61.0648 22.1607 60.74V60.7451Z" fill="var(--fill-0, #034A1D)" stroke="var(--stroke-0, #CBFFDE)"/>
<path id="Vector_17" d="M36.0817 64.3904L35.6177 64.4368C35.0505 64.4575 34.607 64.9421 34.6277 65.5093C34.6483 66.0765 35.133 66.5199 35.7002 66.4993H35.7878L36.3498 66.4426C36.917 66.3704 37.3244 65.8496 37.247 65.2825C37.1748 64.7153 36.6541 64.3079 36.0869 64.3801V64.3904H36.0817Z" fill="var(--fill-0, #034A1D)" stroke="var(--stroke-0, #CBFFDE)"/>
<path id="Vector_18" d="M45.1136 60.7655L44.7114 61.0491C44.237 61.3636 44.1081 62.003 44.4278 62.4774C44.7475 62.9517 45.3817 63.0807 45.8561 62.761C45.8612 62.761 45.8716 62.7507 45.8767 62.7455L46.3202 62.4361C46.7739 62.0958 46.8667 61.4461 46.5264 60.9924C46.1964 60.5541 45.5777 60.451 45.1187 60.7604H45.1136V60.7655Z" fill="var(--fill-0, #034A1D)" stroke="var(--stroke-0, #CBFFDE)"/>
<path id="Vector_19" d="M15.459 53.0625C15.2167 52.5469 14.6031 52.3251 14.0874 52.5623C13.5718 52.7995 13.3501 53.4183 13.5873 53.9339C13.5976 53.9545 13.6079 53.97 13.6182 53.9906C13.7007 54.1504 13.7832 54.3103 13.8657 54.4701C14.1338 54.9703 14.7629 55.161 15.2631 54.8929C15.7632 54.6248 15.954 53.9957 15.6859 53.4956L15.459 53.0625Z" fill="var(--fill-0, #034A1D)" stroke="var(--stroke-0, #CBFFDE)"/>
<path id="Vector_20" d="M18.1653 57.1306C17.8405 56.6613 17.196 56.5479 16.7319 56.8728C16.2627 57.1976 16.1492 57.8421 16.4741 58.3062C16.5153 58.3681 16.5669 58.4248 16.6185 58.4763L16.9742 58.8837C17.3558 59.3116 18.0106 59.3477 18.4386 58.9662C18.8666 58.5846 18.9027 57.9298 18.5211 57.5018L18.1653 57.1306Z" fill="var(--fill-0, #034A1D)" stroke="var(--stroke-0, #CBFFDE)"/>
<path id="Vector_21" d="M13.9118 48.9425L13.8757 48.7827C13.7674 48.2258 13.2209 47.8597 12.664 47.9732C12.1071 48.0815 11.741 48.628 11.8545 49.1849C11.8545 49.2107 11.8648 49.2364 11.8699 49.2571L11.906 49.4169C12.0143 49.9738 12.5609 50.3399 13.1178 50.2264C13.6746 50.1182 14.0407 49.5716 13.9273 49.0147C13.9273 48.9889 13.917 48.9632 13.9118 48.9425Z" fill="var(--fill-0, #034A1D)" stroke="var(--stroke-0, #CBFFDE)"/>
<path id="Vector_22" d="M29.8965 42.3117C29.8965 44.3072 31.5104 45.9211 33.5059 45.9211C35.5013 45.9211 37.1152 44.3072 37.1152 42.3117C37.1152 40.3163 35.5013 38.7024 33.5059 38.7024C31.5104 38.7024 29.8965 40.3163 29.8965 42.3117ZM35.0527 42.3117C35.0527 43.1677 34.3618 43.8586 33.5059 43.8586C32.6499 43.8586 31.959 43.1677 31.959 42.3117C31.959 41.4558 32.6499 40.7649 33.5059 40.7649C34.3618 40.7649 35.0527 41.4558 35.0527 42.3117Z" fill="var(--fill-0, #034A1D)" stroke="var(--stroke-0, #CBFFDE)"/>
</g>
</svg>
