<svg preserveAspectRatio="none" width="100%" height="100%" overflow="visible" style="display: block;" viewBox="0 0 56 60" fill="none" xmlns="http://www.w3.org/2000/svg">
<path id="Vector" d="M9.07554 21.5519C9.0641 25.0546 10.0394 28.4891 11.89 31.4688C13.7406 34.4485 16.392 36.8565 19.5468 38.4147V41.8577H19.5096C18.3226 41.926 17.3988 42.9012 17.3988 44.0811C17.3988 45.2638 18.3226 46.239 19.5096 46.3073V49.105C18.3226 49.1732 17.3988 50.1484 17.3988 51.3312C17.3988 52.5111 18.3226 53.4863 19.5096 53.5545H21.6062C21.6062 57.1142 24.5093 60 28.0903 60C31.6713 60 34.5744 57.1142 34.5744 53.5545H36.671C37.5348 53.5574 38.3213 53.0655 38.6931 52.2893C39.065 51.516 38.9563 50.5977 38.41 49.9323C37.9924 49.412 37.3631 49.1078 36.6938 49.105V46.3073C37.2201 46.2988 37.7264 46.1111 38.1267 45.7756C38.8389 45.17 39.0935 44.1863 38.7703 43.3135C38.4442 42.4406 37.6091 41.8578 36.6709 41.8578H36.6337V38.4147C40.6809 36.3904 43.8672 32.9985 45.6202 28.8449C47.3706 24.6911 47.5709 20.054 46.1865 15.7662C44.8022 11.4788 41.9191 7.82541 38.0633 5.46282C34.2049 3.10015 29.626 2.18467 25.1522 2.88405C20.6759 3.58347 16.597 5.84661 13.6542 9.26975C10.7111 12.6929 9.09499 17.049 9.09785 21.5522L9.07554 21.5519ZM35.9075 49.1046H20.2506V46.3069H35.9075V49.1046ZM28.0816 58.8708C25.0727 58.8623 22.5815 56.5451 22.3698 53.5626H33.8106C33.6018 56.5536 31.0992 58.8737 28.0816 58.8708ZM38.1269 51.2881C38.1269 52.1013 37.4662 52.758 36.6482 52.758H19.51C18.7348 52.704 18.1371 52.0643 18.1371 51.2909C18.1371 50.5204 18.7349 49.8807 19.51 49.8239H36.6482C37.4634 49.8239 38.124 50.4778 38.1269 51.2881ZM38.1269 44.0409C38.124 44.4702 37.9353 44.8768 37.6092 45.1611C37.3375 45.3858 37 45.508 36.6482 45.5109H19.5099C18.7348 45.4568 18.137 44.8143 18.137 44.0438C18.137 43.2733 18.7348 42.6308 19.5099 42.5768H36.6482C37.0457 42.5768 37.4261 42.736 37.7064 43.0174C37.9839 43.3018 38.1355 43.6827 38.1269 44.0779L38.1269 44.0409ZM28.0816 3.41827C33.6247 3.41259 38.8701 5.91457 42.3313 10.2162C45.795 14.518 47.1021 20.1528 45.8808 25.5265C44.6595 30.9001 41.047 35.4318 36.0618 37.8373C35.9303 37.9027 35.8473 38.0335 35.8473 38.1785V41.8547L31.5999 41.8576V27.8523L33.7136 25.8422L33.7107 25.8451C33.8652 25.7001 33.8709 25.4584 33.7279 25.3049C33.582 25.1542 33.3389 25.1456 33.1844 25.2906L30.9563 27.4145H30.9592C30.8791 27.4827 30.8362 27.5822 30.8362 27.6874V41.8579H25.3217V27.6933C25.3246 27.5909 25.2817 27.4914 25.2073 27.4203L22.9792 25.2908C22.9077 25.2197 22.8104 25.1799 22.7103 25.1799C22.6073 25.1799 22.5101 25.2197 22.4386 25.2908C22.3671 25.3619 22.327 25.4585 22.327 25.5609C22.327 25.6604 22.3671 25.7571 22.4386 25.8281L24.5523 27.8382V41.858H20.3106V38.179C20.3106 38.034 20.2276 37.9032 20.096 37.8378C15.1107 35.4325 11.4954 30.9006 10.277 25.5241C9.0557 20.1505 10.3628 14.5154 13.8294 10.2138C17.2932 5.91208 22.5388 3.40968 28.0816 3.41827ZM4.85066 55.0787C6.13775 55.0787 7.3705 54.567 8.27435 53.6543H8.36588C10.6111 53.4496 12.8021 52.8469 14.8328 51.8717C14.9272 51.8347 14.9987 51.7608 15.0359 51.667C15.0731 51.576 15.0731 51.4708 15.033 51.3798C14.993 51.286 14.9157 51.2149 14.8214 51.178C14.727 51.141 14.6211 51.141 14.5296 51.1836C12.742 52.0195 10.8399 52.5797 8.88358 52.8498C10.0706 51.0045 9.84461 48.5964 8.34014 46.9985C6.83565 45.4007 4.43311 45.0196 2.50241 46.0717C0.571776 47.1265 -0.394966 49.347 0.151339 51.4652C0.7005 53.5862 2.62542 55.0674 4.82777 55.0646L4.85066 55.0787ZM4.85066 46.239C6.49243 46.239 7.97114 47.2199 8.60326 48.7268C9.23251 50.2337 8.89214 51.968 7.73376 53.128C6.57825 54.2852 4.83638 54.6377 3.31469 54.0236C1.79593 53.4067 0.797706 51.9424 0.783428 50.3105C0.774847 49.2329 1.20102 48.198 1.96471 47.4332C2.72841 46.6684 3.76662 46.239 4.85066 46.239ZM42.9112 3.7196H43.0485H43.0456C44.2755 3.24195 45.554 2.89794 46.8611 2.6961C46.0888 4.1831 46.1546 5.96006 47.0327 7.38446C47.9108 8.8117 49.4725 9.67886 51.1543 9.67318C51.6291 9.67318 52.1039 9.60494 52.5587 9.46847C51.9037 12.2832 50.8454 14.9899 49.4153 17.5032C49.318 17.688 49.3867 17.9154 49.5669 18.0206C49.6241 18.0491 49.687 18.0633 49.7499 18.0661C49.8929 18.0633 50.0216 17.9865 50.0874 17.8614C51.652 15.1348 52.7703 12.1808 53.3967 9.10469C54.6895 8.43654 55.6105 7.22538 55.9022 5.80666C56.194 4.3851 55.825 2.9123 54.8983 1.79498C53.9716 0.677664 52.5873 0.035047 51.1314 0.0464742C49.6756 0.0579014 48.3027 0.723148 47.3931 1.85474C45.8085 2.02249 44.2526 2.40916 42.771 3.00052C42.6766 3.03464 42.5994 3.10571 42.5593 3.19669C42.5164 3.28768 42.5136 3.39287 42.5508 3.4867C42.6108 3.62885 42.7538 3.71984 42.9083 3.71984L42.9112 3.7196ZM51.1457 0.808211C52.7932 0.81674 54.2719 1.80616 54.8955 3.32154C55.5162 4.83692 55.1586 6.57415 53.9888 7.72277C52.8189 8.87422 51.0685 9.20976 49.5497 8.57289C48.0338 7.93887 47.0527 6.45471 47.0671 4.81996C47.0871 2.59661 48.909 0.805372 51.1457 0.808211ZM9.33548 32.6516C9.50995 32.7681 9.55571 33.0013 9.4413 33.1747C7.48204 36.0292 5.8317 39.0771 4.51313 42.2728C4.46165 42.4206 4.3215 42.5201 4.16419 42.5173C4.11556 42.523 4.06694 42.523 4.01832 42.5173C3.82668 42.4349 3.7323 42.2188 3.8038 42.0226C5.13951 38.7729 6.81562 35.6738 8.80915 32.7738C8.92642 32.6032 9.16095 32.5606 9.33542 32.6743L9.33548 32.6516ZM51.4832 42.281C50.1646 39.0853 48.5143 36.0346 46.5551 33.1829C46.4607 33.0095 46.515 32.7962 46.6809 32.6882C46.8439 32.5801 47.0642 32.6143 47.1872 32.7649C49.1808 35.665 50.8568 38.7668 52.1925 42.0166C52.264 42.2099 52.1696 42.4289 51.978 42.5085C51.9294 42.517 51.8807 42.517 51.8321 42.5085C51.6862 42.517 51.5461 42.4374 51.4832 42.3038L51.4832 42.281ZM2.5991 9.09549C3.32845 12.5215 4.63268 15.8025 6.4518 18.7992C6.52044 18.9186 6.64915 18.9925 6.78644 18.9896C6.84936 18.9896 6.91229 18.9726 6.96949 18.9442C7.15255 18.8418 7.21833 18.6115 7.11537 18.4295C5.4364 15.6376 4.20078 12.6068 3.44572 9.44499C3.9005 9.58146 4.37242 9.6497 4.85011 9.6497C6.1372 9.6497 7.37281 9.14077 8.28237 8.23665C9.19193 7.32968 9.69818 6.0986 9.69247 4.81919C9.68961 4.06572 9.50655 3.32084 9.15761 2.64984C10.908 2.93131 12.6099 3.44021 14.2231 4.16806C14.2746 4.17659 14.326 4.17659 14.3747 4.16806C14.5291 4.16806 14.6664 4.07708 14.7265 3.94061C14.8066 3.74727 14.7179 3.52551 14.5291 3.44021C12.6585 2.57873 10.6621 2.01865 8.61706 1.77984C7.70751 0.659613 6.33746 0.0057148 4.89024 3.7585e-05C3.44294 -0.00564836 2.06718 0.634059 1.1462 1.74571C0.228079 2.85735 -0.143739 4.32163 0.142264 5.73184C0.425426 7.14488 1.33497 8.35326 2.61349 9.02702L2.5991 9.09549ZM4.85008 0.807483C6.49756 0.807483 7.97912 1.79692 8.60839 3.30946C9.23477 4.82484 8.88297 6.5649 7.71311 7.71636C6.54325 8.87065 4.78996 9.20903 3.2712 8.575C1.7553 7.93813 0.771346 6.45682 0.782842 4.81916C0.805723 2.60148 2.61623 0.813161 4.85008 0.807483ZM41.9873 51.8252C41.9501 51.9191 41.9501 52.0243 41.9901 52.1153C42.0302 52.2091 42.1045 52.283 42.1989 52.32C43.9208 53.0506 45.7485 53.4999 47.6161 53.6534H47.7077C49.3323 55.2768 51.8864 55.5298 53.8028 54.2561C55.7191 52.9852 56.4599 50.5429 55.5733 48.4277C54.6838 46.3152 52.4156 45.121 50.1589 45.5788C47.9022 46.0365 46.2862 48.0182 46.3034 50.3098C46.3034 51.2225 46.5694 52.1152 47.0671 52.88C45.4911 52.6781 43.9523 52.2687 42.4907 51.6603C42.3048 51.5721 42.0817 51.6433 41.9873 51.8252ZM51.14 46.2214V46.2242C52.7789 46.2271 54.2547 47.208 54.884 48.712C55.5132 50.2189 55.1729 51.9504 54.0202 53.1076C52.8647 54.2676 51.1257 54.623 49.6041 54.0089C48.0853 53.3976 47.0842 51.939 47.0671 50.3099C47.0585 49.2295 47.4847 48.1918 48.2512 47.427C49.0178 46.6622 50.0618 46.2357 51.1457 46.2386L51.14 46.2214Z" fill="var(--fill-0, #034A1D)"/>
</svg>
