<svg width="114" height="114" viewBox="0 0 114 114" fill="none" xmlns="http://www.w3.org/2000/svg">
<circle cx="57" cy="57" r="56.75" stroke="#034A1D" stroke-width="0.5"/>
<path d="M80.0045 55.175C80.3685 55.327 80.7635 55.425 81.1815 55.436L81.2735 55.437C83.0725 55.437 84.5215 54.027 84.5725 52.228C84.6055 50.986 83.9365 49.896 82.9065 49.305C84.0895 45.73 84.0215 42.473 82.4015 39.989C80.5375 37.13 76.9615 35.619 72.0585 35.619C70.7125 35.619 69.3025 35.734 67.8495 35.953C65.0445 29.839 61.0315 26 56.5785 26C54.9735 26 53.4265 26.51 51.9715 27.436C51.3915 26.921 50.6585 26.617 49.7925 26.594C47.9925 26.594 46.5435 28.004 46.4945 29.803C46.4695 30.716 46.8195 31.553 47.4045 32.168C46.6525 33.302 45.9555 34.57 45.3185 35.956C43.8595 35.735 42.4475 35.62 41.0975 35.62C36.1955 35.62 32.6185 37.131 30.7545 39.99C28.0445 44.147 29.6265 50.451 34.2735 56.827C29.6275 63.204 28.0445 69.51 30.7545 73.668C32.6185 76.527 36.1965 78.039 41.0995 78.039C42.4455 78.039 43.8535 77.924 45.3085 77.705C48.1115 83.819 52.1245 87.658 56.5785 87.658C61.0325 87.658 65.0475 83.817 67.8515 77.7C69.3025 77.92 70.7125 78.039 72.0565 78.039C72.0565 78.039 72.0565 78.039 72.0585 78.039C76.9585 78.039 80.5365 76.528 82.4015 73.668C85.1125 69.51 83.5295 63.203 78.8815 56.825C79.2825 56.272 79.6495 55.724 80.0045 55.175ZM83.5715 52.201C83.5365 53.455 82.4625 54.438 81.2085 54.438C79.9405 54.403 78.9375 53.342 78.9725 52.074C79.0075 50.821 80.0165 49.839 81.3335 49.839C81.3345 49.839 81.3355 49.839 81.3355 49.839C82.6035 49.873 83.6065 50.933 83.5715 52.201ZM72.0585 36.619C76.6055 36.619 79.8925 37.973 81.5635 40.535C83.0215 42.77 83.0895 45.703 82.0365 48.947C81.7915 48.886 81.5375 48.844 81.2715 48.837C79.4725 48.837 78.0235 50.246 77.9725 52.046C77.9435 53.107 78.4295 54.055 79.1935 54.681C78.9025 55.128 78.6055 55.575 78.2815 56.024C76.4015 53.578 74.0805 51.135 71.3835 48.81C70.7875 44.369 69.7095 40.324 68.2705 36.913C69.5845 36.722 70.8545 36.619 72.0585 36.619ZM64.4075 68.834C61.8535 70.499 59.2125 71.942 56.5805 73.139C54.9215 72.385 53.2605 71.527 51.6185 70.582C51.8475 70.147 51.9935 69.66 52.0095 69.132C52.0585 67.313 50.6195 65.792 48.7085 65.74C47.6465 65.74 46.7165 66.238 46.1145 67.01C44.9215 66.141 43.7835 65.247 42.7045 64.333C42.4045 61.934 42.2445 59.419 42.2445 56.828C42.2445 54.231 42.4075 51.714 42.7085 49.311C44.5555 47.748 46.5755 46.239 48.7485 44.822C51.3025 43.156 53.9445 41.713 56.5775 40.517C59.2105 41.713 61.8525 43.157 64.4055 44.822C66.5805 46.239 68.6025 47.75 70.4505 49.314C70.7515 51.715 70.9115 54.233 70.9115 56.828C70.9115 59.414 70.7515 61.924 70.4535 64.318C68.6015 65.889 66.5895 67.411 64.4075 68.834ZM70.2505 65.785C69.6385 69.825 68.6205 73.493 67.3025 76.59C64.2985 76.06 61.0755 75.067 57.8175 73.681C60.2055 72.543 62.6015 71.205 64.9535 69.672C66.8415 68.441 68.6035 67.134 70.2505 65.785ZM48.6465 71.34C47.3785 71.305 46.3755 70.245 46.4105 68.977C46.4455 67.723 47.4545 66.741 48.7715 66.741C48.7715 66.741 48.7725 66.741 48.7735 66.741C50.0415 66.776 51.0445 67.836 51.0095 69.104C50.9745 70.358 49.8995 71.34 48.6465 71.34ZM48.6185 72.34L48.7105 72.341C49.6165 72.341 50.4325 71.983 51.0265 71.399C52.4645 72.233 53.9095 72.996 55.3525 73.683C52.0865 75.072 48.8605 76.056 45.8515 76.585C44.5345 73.491 43.5185 69.828 42.9075 65.793C43.7785 66.506 44.6865 67.206 45.6275 67.889C45.5045 68.221 45.4215 68.574 45.4095 68.95C45.3605 70.768 46.7995 72.289 48.6185 72.34ZM41.5955 63.369C39.2095 61.24 37.1475 59.028 35.4665 56.825C37.1485 54.62 39.2125 52.406 41.6015 50.274C41.3725 52.388 41.2445 54.578 41.2445 56.828C41.2445 59.073 41.3675 61.26 41.5955 63.369ZM42.9095 47.855C43.5225 43.825 44.5355 40.163 45.8525 37.072C48.8585 37.601 52.0815 38.585 55.3465 39.971C52.9555 41.109 50.5555 42.449 48.2015 43.984C46.3195 45.212 44.5545 46.511 42.9095 47.855ZM57.8085 39.972C61.0735 38.585 64.2965 37.602 67.3045 37.072C68.6205 40.165 69.6365 43.826 70.2475 47.858C68.6025 46.513 66.8355 45.212 64.9525 43.984C62.5985 42.449 60.1985 41.11 57.8085 39.972ZM71.5605 50.279C73.9435 52.405 75.9995 54.613 77.6795 56.813C75.9995 59.019 73.9495 61.232 71.5625 63.365C71.7895 61.257 71.9125 59.071 71.9125 56.828C71.9115 54.581 71.7885 52.391 71.5605 50.279ZM49.8545 27.594C49.8555 27.594 49.8555 27.594 49.8565 27.594C50.4705 27.611 51.0415 27.866 51.4625 28.312C51.8855 28.758 52.1085 29.342 52.0915 29.957C52.0575 31.211 51.0475 32.194 49.7925 32.194C48.5245 32.159 47.4575 31.098 47.4935 29.83C47.5265 28.576 48.5365 27.594 49.8545 27.594ZM48.1495 32.738C48.6105 33.005 49.1315 33.177 49.7005 33.193L49.7925 33.194C51.5935 33.194 53.0415 31.784 53.0915 29.985C53.1095 29.343 52.9395 28.726 52.6125 28.189C53.8745 27.431 55.2005 27.001 56.5775 27.001C60.6185 27.001 64.2705 30.503 66.8785 36.119C63.5995 36.711 60.1085 37.827 56.5775 39.406C53.0485 37.829 49.5595 36.713 46.2825 36.12C46.8565 34.884 47.4815 33.753 48.1495 32.738ZM31.5925 40.535C33.2635 37.973 36.5505 36.619 41.0975 36.619C42.3035 36.619 43.5765 36.722 44.8945 36.913C43.4535 40.322 42.3745 44.365 41.7785 48.805C39.0785 51.132 36.7545 53.577 34.8735 56.025C30.5915 50.096 29.1235 44.322 31.5925 40.535ZM41.0995 77.037C36.5505 77.037 33.2635 75.683 31.5925 73.12C29.1225 69.332 30.5905 63.557 34.8725 57.626C36.7535 60.073 39.0745 62.516 41.7725 64.841C42.3685 69.284 43.4465 73.33 44.8865 76.743C43.5715 76.934 42.3025 77.037 41.0995 77.037ZM56.5775 86.656C52.5375 86.656 48.8855 83.154 46.2765 77.538C49.5575 76.946 53.0495 75.829 56.5815 74.25C60.1105 75.828 63.6005 76.946 66.8785 77.54C64.2705 83.155 60.6175 86.656 56.5775 86.656ZM81.5635 73.12C79.8925 75.682 76.6055 77.037 72.0585 77.037C72.0575 77.037 72.0565 77.037 72.0565 77.037C70.8535 77.037 69.5835 76.934 68.2695 76.743C69.7105 73.328 70.7895 69.278 71.3845 64.831C74.0815 62.504 76.3965 60.062 78.2735 57.614C82.5635 63.55 84.0345 69.33 81.5635 73.12Z" fill="#034A1D"/>
<path d="M57 62.3281C53.968 62.3281 51.5 59.8611 51.5 56.8281C51.5 53.7951 53.968 51.3281 57 51.3281C60.032 51.3281 62.5 53.7951 62.5 56.8281C62.5 59.8611 60.032 62.3281 57 62.3281ZM57 52.3281C54.519 52.3281 52.5 54.3471 52.5 56.8281C52.5 59.3091 54.519 61.3281 57 61.3281C59.481 61.3281 61.5 59.3091 61.5 56.8281C61.5 54.3471 59.481 52.3281 57 52.3281Z" fill="#034A1D"/>
</svg>
