<svg width="225" height="225" viewBox="0 0 225 225" fill="none" xmlns="http://www.w3.org/2000/svg">
<circle cx="112.097" cy="112.097" r="112.097" fill="#08A03F"/>
<path fill-rule="evenodd" clip-rule="evenodd" d="M164.708 162.99L168.99 172.093L162.724 170.131L159.679 175.982L156.296 166.49C157.416 165.891 158.379 164.996 159.191 163.844C159.567 163.311 160.112 163.084 160.751 163.193C162.153 163.432 163.479 163.375 164.705 162.988L164.708 162.99ZM146.155 163.844C145.779 163.311 145.235 163.084 144.595 163.193C143.212 163.429 141.902 163.377 140.689 163.003L136.413 172.122L142.676 170.152L145.728 176L149.094 166.514C147.956 165.914 146.978 165.011 146.155 163.844ZM171 145.782C171 147.558 170.217 148.786 168.815 149.788C167.309 150.866 166.593 152.603 166.902 154.438C167.189 156.144 166.88 157.57 165.632 158.826C164.385 160.081 162.969 160.392 161.274 160.104C159.452 159.793 157.724 160.513 156.653 162.029C155.658 163.44 154.438 164.229 152.674 164.229C150.91 164.229 149.69 163.44 148.694 162.029C147.623 160.513 145.898 159.793 144.074 160.104C142.38 160.392 140.963 160.081 139.715 158.826C138.468 157.57 138.159 156.145 138.446 154.438C138.755 152.604 138.039 150.866 136.533 149.788C135.131 148.786 134.348 147.558 134.348 145.782C134.348 144.006 135.131 142.778 136.533 141.776C138.039 140.698 138.755 138.961 138.446 137.125C138.159 135.42 138.468 133.994 139.715 132.738C140.963 131.482 142.379 131.172 144.074 131.46C145.896 131.771 147.623 131.051 148.694 129.534C149.69 128.123 150.91 127.335 152.674 127.335C154.438 127.335 155.658 128.123 156.653 129.534C157.724 131.051 159.45 131.771 161.274 131.46C162.968 131.172 164.385 131.482 165.632 132.738C166.88 133.994 167.189 135.419 166.902 137.125C166.593 138.96 167.309 140.698 168.815 141.776C170.217 142.778 171 144.006 171 145.782ZM161.497 145.782C161.497 140.89 157.534 136.901 152.674 136.901C147.814 136.901 143.851 140.89 143.851 145.782C143.851 150.674 147.814 154.663 152.674 154.663C157.534 154.663 161.497 150.674 161.497 145.782ZM78.4021 66.7477C80.5621 66.7477 82.3237 64.9745 82.3237 62.8003C82.3237 60.6261 80.5621 58.8529 78.4021 58.8529C76.2421 58.8529 74.4805 60.6261 74.4805 62.8003C74.4805 64.9745 76.2421 66.7477 78.4021 66.7477ZM87.5272 54.4685C89.2971 54.4685 90.7403 53.0158 90.7403 51.2342C90.7403 49.4527 89.2971 48 87.5272 48C85.7573 48 84.3141 49.4527 84.3141 51.2342C84.3141 53.0158 85.7573 54.4685 87.5272 54.4685ZM90.6176 59.4565H89.8857C89.0256 59.4565 88.3281 60.1586 88.3281 61.0244C88.3281 61.8902 89.0256 62.5922 89.8857 62.5922H90.6176V63.329C90.6176 64.1948 91.3151 64.8968 92.1752 64.8968C93.0354 64.8968 93.7329 64.1948 93.7329 63.329V62.5922H94.4648C95.3249 62.5922 96.0224 61.8902 96.0224 61.0244C96.0224 60.1586 95.3249 59.4565 94.4648 59.4565H93.7329V58.7197C93.7329 57.8539 93.0354 57.1519 92.1752 57.1519C91.3151 57.1519 90.6176 57.8539 90.6176 58.7197V59.4565ZM134.728 139.22C132.873 140.547 131.686 142.274 131.339 144.424H54V81.2234H73.2399V75.8511H72.6431C71.9153 75.8511 71.3198 75.2517 71.3198 74.5191V71.6844C71.3198 70.9518 71.9153 70.3524 72.6431 70.3524H91.2407C91.9685 70.3524 92.564 70.9518 92.564 71.6844V74.5191C92.564 75.2517 91.9685 75.8511 91.2407 75.8511H90.6438V81.2234H160.106V128.361C159.745 128.279 159.434 128.062 159.192 127.721C157.607 125.475 155.447 124.202 152.674 124.202C149.901 124.202 147.741 125.475 146.155 127.721C145.779 128.254 145.235 128.48 144.595 128.372C141.896 127.911 139.476 128.549 137.514 130.524C135.553 132.498 134.919 134.934 135.376 137.651C135.485 138.295 135.259 138.843 134.73 139.222L134.728 139.22ZM150.845 99.6812C150.845 98.8154 150.147 98.1133 149.287 98.1133H101.899C101.038 98.1133 100.341 98.8154 100.341 99.6812C100.341 100.547 101.038 101.249 101.899 101.249H149.289C150.149 101.249 150.845 100.547 150.845 99.6812ZM149.287 106.875H105.012C104.152 106.875 103.455 107.577 103.455 108.443C103.455 109.309 104.152 110.011 105.012 110.011H149.289C150.149 110.011 150.846 109.309 150.846 108.443C150.846 107.577 150.147 106.875 149.287 106.875ZM95.8239 90.9192C95.8239 91.785 96.5214 92.487 97.3815 92.487H149.287C150.147 92.487 150.845 91.785 150.845 90.9192C150.845 90.0534 150.147 89.3513 149.287 89.3513H97.3829C96.5228 89.3513 95.8239 90.0534 95.8239 90.9192ZM65.5387 108.388C66.5022 110.068 68.1563 111.029 70.0847 111.029H93.7963C95.7233 111.029 97.3788 110.068 98.3423 108.388C99.3058 106.707 99.3058 104.784 98.3423 103.104L87.5286 84.2509V75.6873H76.3538V84.2495L65.5401 103.103C64.5766 104.783 64.5766 106.706 65.5401 108.386L65.5387 108.388ZM128.599 134.729C128.599 133.863 127.901 133.161 127.041 133.161H64.8192C63.9591 133.161 63.2616 133.863 63.2616 134.729C63.2616 135.595 63.9591 136.297 64.8192 136.297H127.044C127.904 136.297 128.601 135.595 128.601 134.729H128.599ZM133.371 125.967C133.371 125.101 132.673 124.399 131.813 124.399H64.8192C63.9591 124.399 63.2616 125.101 63.2616 125.967C63.2616 126.833 63.9591 127.535 64.8192 127.535H131.817C132.677 127.535 133.375 126.833 133.375 125.967H133.371ZM149.286 118.773C150.146 118.773 150.843 118.071 150.843 117.205C150.843 116.339 150.146 115.637 149.286 115.637H64.8192C63.9591 115.637 63.2616 116.339 63.2616 117.205C63.2616 118.071 63.9591 118.773 64.8192 118.773H149.29H149.286ZM70.1592 104.458C70.9021 104.891 71.8519 104.636 72.2819 103.889L79.2678 91.7101C79.6978 90.9622 79.4442 90.0062 78.7026 89.5733C77.9596 89.1404 77.0099 89.3957 76.5798 90.1422L69.594 102.322C69.164 103.069 69.4176 104.025 70.1592 104.458ZM86.9097 105.21C88.5886 105.21 89.9574 103.833 89.9574 102.143C89.9574 100.453 88.5886 99.0748 86.9097 99.0748C85.2308 99.0748 83.862 100.453 83.862 102.143C83.862 103.833 85.2308 105.21 86.9097 105.21Z" fill="white"/>
</svg>
