<svg width="1920" height="25" viewBox="0 0 1920 25" fill="none" xmlns="http://www.w3.org/2000/svg">
<path d="M423.407 10.9655C423.254 10.976 423.101 10.8922 423.025 10.7665L420.325 6.47249C419.44 5.07954 418.992 3.93796 418.992 3.04773C418.992 2.10513 419.375 1.36153 420.129 0.816916C420.883 0.272306 421.921 0 423.243 0C424.599 0 425.691 0.272305 426.5 0.806443C427.298 1.34058 427.702 2.06324 427.702 2.97441C427.702 3.55044 427.527 4.18931 427.189 4.9015C426.85 5.59274 425.713 7.54077 423.757 10.7561C423.692 10.8817 423.549 10.9551 423.407 10.9655Z" fill="#034A1D"/>
<path d="M423.385 13.1953C423.243 13.1953 423.101 13.2686 423.024 13.3943L420.314 17.7093C419.429 19.1022 418.98 20.2438 418.98 21.1341C418.98 22.0662 419.363 22.8203 420.117 23.3649C420.871 23.9095 421.909 24.1818 423.232 24.1818C424.587 24.1818 425.68 23.9095 426.488 23.3754C427.286 22.8412 427.691 22.1186 427.691 21.2074C427.691 20.6313 427.516 19.9925 427.177 19.2803C426.838 18.5891 425.702 16.6306 423.734 13.4048C423.68 13.2791 423.538 13.1953 423.385 13.1953Z" fill="#034A1D"/>
<path d="M423.921 12.6736C423.866 12.7992 423.899 12.9459 423.987 13.0611C425.713 15.0824 427.998 18.6957 430.052 19.9001C430.828 20.3609 431.637 20.4028 432.478 20.0363C433.309 19.6802 433.986 19.1565 434.653 18.0673C435.342 16.9467 435.659 15.9203 435.626 14.9882C435.593 14.0665 435.189 13.3857 434.424 12.9354C433.943 12.6526 433.32 12.485 432.566 12.4222C431.823 12.3698 428.008 12.3594 424.293 12.4222C424.129 12.4222 423.976 12.5269 423.921 12.6736Z" fill="#034A1D"/>
<path d="M423.91 11.5104C423.975 11.6151 424.095 11.6885 424.227 11.6885C427.964 11.7513 431.822 11.7408 432.565 11.6885C433.319 11.6256 433.931 11.458 434.423 11.1753C435.188 10.7354 435.592 10.0441 435.625 9.1225C435.658 8.19038 435.341 7.16399 434.652 6.04335C433.986 4.95413 433.308 4.43046 432.478 4.07437C431.636 3.70781 430.827 3.76017 430.051 4.21053C427.975 5.42543 425.669 9.09108 423.942 11.1019C423.844 11.2172 423.833 11.3847 423.91 11.5104Z" fill="#034A1D"/>
<path d="M422.707 12.6421C422.641 12.506 422.51 12.4222 422.357 12.4222C418.631 12.3594 414.805 12.3698 414.062 12.4222C413.308 12.485 412.685 12.6526 412.204 12.9354C411.439 13.3753 411.035 14.0665 411.002 14.9882C410.97 15.9203 411.286 16.9467 411.975 18.0673C412.642 19.1565 413.319 19.6802 414.15 20.0363C414.991 20.4028 415.8 20.3505 416.576 19.9001C418.641 18.6957 420.936 15.0615 422.663 13.0401C422.751 12.9249 422.772 12.7783 422.707 12.6421Z" fill="#034A1D"/>
<path d="M422.674 11.5104C422.609 11.6256 422.477 11.6885 422.335 11.6989C418.62 11.7618 414.805 11.7513 414.062 11.6989C413.308 11.6361 412.685 11.4685 412.204 11.1857C411.439 10.7354 411.046 10.0441 411.002 9.1225C410.97 8.19038 411.286 7.16399 411.975 6.04335C412.642 4.95413 413.319 4.43047 414.15 4.07437C414.991 3.70781 415.8 3.76017 416.576 4.21053C418.641 5.41495 420.926 9.02824 422.641 11.0496C422.652 11.0601 422.652 11.0705 422.663 11.0705C422.663 11.081 422.772 11.3009 422.674 11.5104Z" fill="#034A1D"/>
<path d="M960.407 10.9655C960.254 10.976 960.101 10.8922 960.025 10.7665L957.325 6.47249C956.44 5.07954 955.992 3.93796 955.992 3.04773C955.992 2.10513 956.375 1.36153 957.129 0.816916C957.883 0.272306 958.921 0 960.243 0C961.599 0 962.691 0.272305 963.5 0.806443C964.298 1.34058 964.702 2.06324 964.702 2.97441C964.702 3.55044 964.527 4.18931 964.189 4.9015C963.85 5.59274 962.713 7.54077 960.757 10.7561C960.692 10.8817 960.549 10.9551 960.407 10.9655Z" fill="#034A1D"/>
<path d="M960.385 13.1953C960.243 13.1953 960.101 13.2686 960.024 13.3943L957.314 17.7093C956.429 19.1022 955.98 20.2438 955.98 21.1341C955.98 22.0662 956.363 22.8203 957.117 23.3649C957.871 23.9095 958.909 24.1818 960.232 24.1818C961.587 24.1818 962.68 23.9095 963.488 23.3754C964.286 22.8412 964.691 22.1186 964.691 21.2074C964.691 20.6313 964.516 19.9925 964.177 19.2803C963.838 18.5891 962.702 16.6306 960.734 13.4048C960.68 13.2791 960.538 13.1953 960.385 13.1953Z" fill="#034A1D"/>
<path d="M960.921 12.6736C960.867 12.7992 960.899 12.9459 960.987 13.0611C962.714 15.0824 964.998 18.6957 967.052 19.9001C967.828 20.3609 968.637 20.4028 969.478 20.0363C970.309 19.6802 970.987 19.1565 971.653 18.0673C972.342 16.9467 972.659 15.9203 972.626 14.9882C972.593 14.0665 972.189 13.3857 971.424 12.9354C970.943 12.6526 970.32 12.485 969.566 12.4222C968.823 12.3698 965.009 12.3594 961.293 12.4222C961.129 12.4222 960.976 12.5269 960.921 12.6736Z" fill="#034A1D"/>
<path d="M960.91 11.5104C960.975 11.6151 961.095 11.6885 961.227 11.6885C964.964 11.7513 968.822 11.7408 969.565 11.6885C970.319 11.6256 970.931 11.458 971.423 11.1753C972.188 10.7354 972.592 10.0441 972.625 9.1225C972.658 8.19038 972.341 7.16399 971.652 6.04335C970.986 4.95413 970.308 4.43046 969.478 4.07437C968.636 3.70781 967.827 3.76017 967.051 4.21053C964.975 5.42543 962.669 9.09108 960.942 11.1019C960.844 11.2172 960.833 11.3847 960.91 11.5104Z" fill="#034A1D"/>
<path d="M959.707 12.6421C959.641 12.506 959.51 12.4222 959.357 12.4222C955.631 12.3594 951.806 12.3698 951.062 12.4222C950.308 12.485 949.685 12.6526 949.205 12.9354C948.44 13.3753 948.035 14.0665 948.002 14.9882C947.97 15.9203 948.287 16.9467 948.975 18.0673C949.642 19.1565 950.319 19.6802 951.15 20.0363C951.991 20.4028 952.8 20.3505 953.576 19.9001C955.641 18.6957 957.937 15.0615 959.663 13.0401C959.751 12.9249 959.773 12.7783 959.707 12.6421Z" fill="#034A1D"/>
<path d="M959.674 11.5104C959.609 11.6256 959.477 11.6885 959.335 11.6989C955.62 11.7618 951.805 11.7513 951.062 11.6989C950.308 11.6361 949.685 11.4685 949.204 11.1857C948.439 10.7354 948.046 10.0441 948.002 9.1225C947.97 8.19038 948.286 7.16399 948.975 6.04335C949.642 4.95413 950.319 4.43047 951.15 4.07437C951.991 3.70781 952.8 3.76017 953.576 4.21053C955.641 5.41495 957.926 9.02824 959.641 11.0496C959.652 11.0601 959.652 11.0705 959.663 11.0705C959.663 11.081 959.772 11.3009 959.674 11.5104Z" fill="#034A1D"/>
<path d="M1497.41 10.9655C1497.25 10.976 1497.1 10.8922 1497.02 10.7665L1494.33 6.47249C1493.44 5.07954 1492.99 3.93796 1492.99 3.04773C1492.99 2.10513 1493.37 1.36153 1494.13 0.816916C1494.88 0.272306 1495.92 0 1497.24 0C1498.6 0 1499.69 0.272305 1500.5 0.806443C1501.3 1.34058 1501.7 2.06324 1501.7 2.97441C1501.7 3.55044 1501.53 4.18931 1501.19 4.9015C1500.85 5.59274 1499.71 7.54077 1497.76 10.7561C1497.69 10.8817 1497.55 10.9551 1497.41 10.9655Z" fill="#034A1D"/>
<path d="M1497.38 13.1953C1497.24 13.1953 1497.1 13.2686 1497.02 13.3943L1494.31 17.7093C1493.43 19.1022 1492.98 20.2438 1492.98 21.1341C1492.98 22.0662 1493.36 22.8203 1494.12 23.3649C1494.87 23.9095 1495.91 24.1818 1497.23 24.1818C1498.59 24.1818 1499.68 23.9095 1500.49 23.3754C1501.29 22.8412 1501.69 22.1186 1501.69 21.2074C1501.69 20.6313 1501.52 19.9925 1501.18 19.2803C1500.84 18.5891 1499.7 16.6306 1497.73 13.4048C1497.68 13.2791 1497.54 13.1953 1497.38 13.1953Z" fill="#034A1D"/>
<path d="M1497.92 12.6736C1497.87 12.7992 1497.9 12.9459 1497.99 13.0611C1499.71 15.0824 1502 18.6957 1504.05 19.9001C1504.83 20.3609 1505.64 20.4028 1506.48 20.0363C1507.31 19.6802 1507.99 19.1565 1508.65 18.0673C1509.34 16.9467 1509.66 15.9203 1509.63 14.9882C1509.59 14.0665 1509.19 13.3857 1508.42 12.9354C1507.94 12.6526 1507.32 12.485 1506.57 12.4222C1505.82 12.3698 1502.01 12.3594 1498.29 12.4222C1498.13 12.4222 1497.98 12.5269 1497.92 12.6736Z" fill="#034A1D"/>
<path d="M1497.91 11.5104C1497.98 11.6151 1498.1 11.6885 1498.23 11.6885C1501.96 11.7513 1505.82 11.7408 1506.57 11.6885C1507.32 11.6256 1507.93 11.458 1508.42 11.1753C1509.19 10.7354 1509.59 10.0441 1509.63 9.1225C1509.66 8.19038 1509.34 7.16399 1508.65 6.04335C1507.99 4.95413 1507.31 4.43046 1506.48 4.07437C1505.64 3.70781 1504.83 3.76017 1504.05 4.21053C1501.98 5.42543 1499.67 9.09108 1497.94 11.1019C1497.84 11.2172 1497.83 11.3847 1497.91 11.5104Z" fill="#034A1D"/>
<path d="M1496.71 12.6421C1496.64 12.506 1496.51 12.4222 1496.36 12.4222C1492.63 12.3594 1488.81 12.3698 1488.06 12.4222C1487.31 12.485 1486.69 12.6526 1486.2 12.9354C1485.44 13.3753 1485.04 14.0665 1485 14.9882C1484.97 15.9203 1485.29 16.9467 1485.98 18.0673C1486.64 19.1565 1487.32 19.6802 1488.15 20.0363C1488.99 20.4028 1489.8 20.3505 1490.58 19.9001C1492.64 18.6957 1494.94 15.0615 1496.66 13.0401C1496.75 12.9249 1496.77 12.7783 1496.71 12.6421Z" fill="#034A1D"/>
<path d="M1496.67 11.5104C1496.61 11.6256 1496.48 11.6885 1496.34 11.6989C1492.62 11.7618 1488.81 11.7513 1488.06 11.6989C1487.31 11.6361 1486.69 11.4685 1486.2 11.1857C1485.44 10.7354 1485.05 10.0441 1485 9.1225C1484.97 8.19038 1485.29 7.16399 1485.97 6.04335C1486.64 4.95413 1487.32 4.43047 1488.15 4.07437C1488.99 3.70781 1489.8 3.76017 1490.58 4.21053C1492.64 5.41495 1494.93 9.02824 1496.64 11.0496C1496.65 11.0601 1496.65 11.0705 1496.66 11.0705C1496.66 11.081 1496.77 11.3009 1496.67 11.5104Z" fill="#034A1D"/>
<path d="M0 12L397 12" stroke="#034A1D" stroke-width="0.5" stroke-linecap="round"/>
<path d="M450 12L934 12" stroke="#034A1D" stroke-width="0.5" stroke-linecap="round"/>
<path d="M987 12L1471 12" stroke="#034A1D" stroke-width="0.5" stroke-linecap="round"/>
<path d="M1524.5 12L1920 12" stroke="#034A1D" stroke-width="0.5" stroke-linecap="round"/>
</svg>
