<svg width="962" height="853" viewBox="0 0 962 853" fill="none" xmlns="http://www.w3.org/2000/svg">
<g style="mix-blend-mode:screen" opacity="0.3">
<path fill-rule="evenodd" clip-rule="evenodd" d="M417.022 55.6973C428.666 55.2201 439.619 60.7723 445.601 70.185L645.056 382.539C710.543 484.17 743.494 567.193 743.494 631.477C743.494 699.794 715.375 753.798 659.368 793.618C603.959 833.134 526.966 853 429.172 853C331.378 853 248.402 833.394 188.437 794.355C129.162 755.75 99.4326 703.134 99.4326 636.335C99.4326 594.086 112.088 547.673 137.446 496.402C162.251 446.216 246.239 304.288 390.929 70.4887C396.359 61.6832 406.207 56.0876 416.976 55.6538L417.022 55.6973Z" fill="#A4FAC3"/>
<path fill-rule="evenodd" clip-rule="evenodd" d="M379.739 16.0486C374.861 8.15415 365.933 3.2092 356.223 3.07908C80.0056 -1.2586 -205.186 -0.868239 -260.18 3.33928C-316.05 7.59012 -361.518 19.8657 -397.277 40.3828C-453.606 72.6549 -483.382 122.451 -486.143 189.468C-488.904 257.005 -465.019 331.699 -414.35 413.464C-365.292 492.929 -315.083 531.057 -253.83 556.91C-191.932 583.196 -132.197 579.856 -74.5324 546.629C79.0391 458.575 249.316 191.984 377.208 45.7615C384.571 37.3465 385.584 25.4613 379.739 16.0052L379.739 16.0486Z" fill="#A4FAC3"/>
<path fill-rule="evenodd" clip-rule="evenodd" d="M471.375 16.3551C464.61 26.6353 465.484 39.8651 473.63 49.2345C601.154 196.151 770.004 459.272 922.379 546.632C979.859 579.859 1039.64 583.199 1101.54 556.913C1162.75 531.017 1212.95 492.932 1262.15 413.467C1312.82 331.702 1336.7 257.008 1333.94 189.471C1331.18 122.411 1301.45 72.6578 1245.08 40.3857C1209.37 19.8687 1163.85 7.5931 1107.84 3.34218C1053.17 -0.821948 771.109 -1.21229 496.41 3.03854C486.194 3.21206 476.76 8.24374 471.375 16.3985L471.375 16.3551Z" fill="#A4FAC3"/>
</g>
</svg>
