<svg width="25" height="25" viewBox="0 0 25 25" fill="none" xmlns="http://www.w3.org/2000/svg">
<path d="M12.4074 10.9655C12.2544 10.976 12.1014 10.8922 12.0249 10.7665L9.32548 6.47249C8.44026 5.07954 7.99219 3.93796 7.99219 3.04773C7.99219 2.10513 8.37469 1.36153 9.12877 0.816916C9.88284 0.272306 10.9211 0 12.2434 0C13.5986 0 14.6915 0.272305 15.5002 0.806443C16.298 1.34058 16.7023 2.06324 16.7023 2.97441C16.7023 3.55044 16.5275 4.18931 16.1887 4.9015C15.8499 5.59274 14.7133 7.54077 12.7571 10.7561C12.6915 10.8817 12.5494 10.9551 12.4074 10.9655Z" fill="#034A1D"/>
<path d="M12.3847 13.1953C12.2426 13.1953 12.1006 13.2686 12.0241 13.3943L9.31376 17.7093C8.42854 19.1022 7.98047 20.2438 7.98047 21.1341C7.98047 22.0662 8.36297 22.8203 9.11705 23.3649C9.87113 23.9095 10.9093 24.1818 12.2317 24.1818C13.5869 24.1818 14.6797 23.9095 15.4885 23.3754C16.2862 22.8412 16.6906 22.1186 16.6906 21.2074C16.6906 20.6313 16.5157 19.9925 16.177 19.2803C15.8382 18.5891 14.7016 16.6306 12.7344 13.4048C12.6798 13.2791 12.5377 13.1953 12.3847 13.1953Z" fill="#034A1D"/>
<path d="M12.9211 12.6736C12.8665 12.7992 12.8993 12.9459 12.9867 13.0611C14.7134 15.0824 16.9975 18.6957 19.0521 19.9001C19.828 20.3609 20.6368 20.4028 21.4783 20.0363C22.3088 19.6802 22.9864 19.1565 23.6531 18.0673C24.3416 16.9467 24.6585 15.9203 24.6257 14.9882C24.5929 14.0665 24.1886 13.3857 23.4236 12.9354C22.9427 12.6526 22.3198 12.485 21.5657 12.4222C20.8225 12.3698 17.0084 12.3594 13.2927 12.4222C13.1288 12.4222 12.9758 12.5269 12.9211 12.6736Z" fill="#034A1D"/>
<path d="M12.9096 11.5104C12.9752 11.6151 13.0954 11.6885 13.2265 11.6885C16.9641 11.7513 20.8219 11.7408 21.5651 11.6885C22.3191 11.6256 22.9312 11.458 23.4229 11.1753C24.1879 10.7354 24.5923 10.0441 24.6251 9.1225C24.6579 8.19038 24.3409 7.16399 23.6524 6.04335C22.9858 4.95413 22.3082 4.43046 21.4776 4.07437C20.6361 3.70781 19.8274 3.76017 19.0515 4.21053C16.975 5.42543 14.6691 9.09108 12.9424 11.1019C12.844 11.2172 12.8331 11.3847 12.9096 11.5104Z" fill="#034A1D"/>
<path d="M11.7069 12.6421C11.6413 12.506 11.5102 12.4222 11.3572 12.4222C7.6305 12.3594 3.80547 12.3698 3.06233 12.4222C2.30825 12.485 1.68532 12.6526 1.20445 12.9354C0.439449 13.3753 0.035089 14.0665 0.00230302 14.9882C-0.0304829 15.9203 0.286448 16.9467 0.974953 18.0673C1.6416 19.1565 2.31918 19.6802 3.14975 20.0363C3.99126 20.4028 4.79998 20.3505 5.57592 19.9001C7.64143 18.6957 9.93645 15.0615 11.6632 13.0401C11.7506 12.9249 11.7725 12.7783 11.7069 12.6421Z" fill="#034A1D"/>
<path d="M11.6741 11.5104C11.6085 11.6256 11.4774 11.6885 11.3353 11.6989C7.61958 11.7618 3.80547 11.7513 3.06233 11.6989C2.30825 11.6361 1.68532 11.4685 1.20446 11.1857C0.439449 10.7354 0.0460176 10.0441 0.00230302 9.1225C-0.0304829 8.19038 0.286448 7.16399 0.974953 6.04335C1.6416 4.95413 2.31918 4.43047 3.14976 4.07437C3.99126 3.70781 4.79998 3.76017 5.57592 4.21053C7.64143 5.41495 9.92552 9.02824 11.6413 11.0496C11.6522 11.0601 11.6522 11.0705 11.6632 11.0705C11.6632 11.081 11.7725 11.3009 11.6741 11.5104Z" fill="#034A1D"/>
</svg>
