<svg width="718" height="680" viewBox="0 0 718 680" fill="none" xmlns="http://www.w3.org/2000/svg">
<g opacity="0.4">
<path d="M356.499 0.4375C394.972 0.437538 427.565 8.15221 451.092 23.4688C474.327 38.6016 485.954 59.1952 485.954 85.3506C485.954 101.389 481.3 118.985 471.945 138.396L471.025 140.279C461.57 159.409 430.238 212.457 376.466 299.493L371.191 308.022C369.163 311.312 365.499 313.429 361.466 313.648L361.451 313.635L361.267 313.642C356.828 313.823 352.665 311.706 350.396 308.138L350.396 308.137L271.825 185.092L271.824 185.09L270.625 183.22C245.637 144.055 233.116 112.063 233.116 87.2637C233.116 60.9133 243.782 40.0157 265.051 24.4844L266.072 23.749C287.799 8.25406 318.028 0.4375 356.499 0.4375Z" fill="#08A03F" stroke="#08A03F" stroke-width="0.875276"/>
<path d="M555.143 121.065C577.737 108.046 601.124 106.737 625.383 117.039L625.384 117.04C649.052 127.029 668.519 141.68 687.511 171.922L688.415 173.374C708.347 205.539 717.714 234.877 716.631 261.364C715.566 287.209 704.26 306.485 682.87 319.134L681.844 319.73C667.831 327.771 649.988 332.595 628.022 334.267C606.384 335.922 494.064 336.077 385.245 334.368H385.244C381.561 334.319 378.186 332.442 376.347 329.466L376.136 329.124C374.175 325.626 374.618 321.346 377.301 318.28V318.279C402.493 289.476 431.894 248.777 462.494 211.021C493.126 173.227 524.973 138.363 555.142 121.065H555.143Z" fill="#08A03F" stroke="#08A03F" stroke-width="0.875276"/>
<path d="M91.8066 117.039C116.066 106.737 139.471 108.047 161.992 121.066H161.993C191.926 138.227 223.516 172.682 253.93 210.134C284.311 247.546 313.537 287.974 338.654 316.911L338.655 316.912C341.639 320.345 342.041 325.14 339.739 328.969L339.509 329.318C337.472 332.404 333.892 334.319 330.004 334.385C221.784 336.06 110.697 335.905 89.1846 334.267C67.1644 332.595 49.3042 327.771 35.3096 319.731H35.3086C13.2363 307.095 1.60334 287.636 0.521484 261.364C-0.561463 234.877 8.80503 205.539 28.7373 173.374C48.0701 142.146 67.7793 127.205 91.8057 117.04L91.8066 117.039Z" fill="#08A03F" stroke="#08A03F" stroke-width="0.875276"/>
<path d="M356.499 679.562C394.972 679.562 427.565 671.848 451.092 656.531C474.327 641.398 485.954 620.805 485.954 594.649C485.954 578.611 481.3 561.015 471.945 541.604L471.025 539.721C461.57 520.591 430.238 467.543 376.466 380.507L371.191 371.978C369.163 368.688 365.499 366.571 361.466 366.352L361.451 366.365L361.267 366.358C356.828 366.177 352.665 368.294 350.396 371.862L350.396 371.863L271.825 494.908L271.824 494.91L270.625 496.78C245.637 535.945 233.116 567.937 233.116 592.736C233.116 619.087 243.782 639.984 265.051 655.516L266.072 656.251C287.799 671.746 318.028 679.562 356.499 679.562Z" fill="#08A03F" stroke="#08A03F" stroke-width="0.875276"/>
<path d="M555.143 558.934C577.737 571.953 601.124 573.263 625.383 562.961L625.384 562.96C649.052 552.97 668.519 538.32 687.511 508.078L688.415 506.626C708.347 474.461 717.714 445.123 716.631 418.636C715.566 392.791 704.26 373.514 682.87 360.866L681.844 360.269C667.831 352.229 649.988 347.405 628.022 345.733C606.384 344.078 494.064 343.923 385.245 345.632H385.244C381.561 345.681 378.186 347.558 376.347 350.534L376.136 350.876C374.175 354.374 374.618 358.654 377.301 361.72V361.721C402.493 390.523 431.894 431.223 462.494 468.978C493.126 506.773 524.973 541.637 555.142 558.934H555.143Z" fill="#08A03F" stroke="#08A03F" stroke-width="0.875276"/>
<path d="M91.8066 562.961C116.066 573.263 139.471 571.953 161.992 558.934H161.993C191.926 541.773 223.516 507.318 253.93 469.866C284.311 432.454 313.537 392.026 338.654 363.089L338.655 363.088C341.639 359.655 342.041 354.86 339.739 351.031L339.509 350.682C337.472 347.596 333.892 345.681 330.004 345.615C221.784 343.94 110.697 344.095 89.1846 345.733C67.1644 347.405 49.3042 352.229 35.3096 360.269H35.3086C13.2363 372.905 1.60334 392.364 0.521484 418.636C-0.561463 445.123 8.80503 474.461 28.7373 506.626C48.0701 537.854 67.7793 552.795 91.8057 562.96L91.8066 562.961Z" fill="#08A03F" stroke="#08A03F" stroke-width="0.875276"/>
</g>
</svg>
