<svg width="682" height="345" viewBox="0 0 682 345" fill="none" xmlns="http://www.w3.org/2000/svg">
<path d="M337.633 320.807C341.858 321.128 346.093 318.701 348.22 315.046L423.233 190.166C447.831 149.657 460.328 116.43 460.422 90.4847C460.521 63.0129 450.034 41.3026 429.262 25.3548C408.49 9.407 379.841 1.36717 343.315 1.23529C305.883 1.10014 275.668 8.92744 253.273 24.4141C231.18 39.9019 219.935 60.9233 219.839 87.4793C219.779 104.268 224.541 122.905 233.824 143.695C243.11 163.875 274.299 220.763 327.995 314.668C329.793 318.337 333.71 320.488 337.633 320.807Z" fill="#0BB752"/>
<path d="M323.692 336.619C321.87 339.665 318.542 341.789 314.92 341.776C211.673 343.235 105.114 342.545 84.5926 340.945C63.7702 339.038 46.8831 334.093 33.3287 325.803C12.2441 312.906 1.14762 292.72 0.338996 265.855C-0.468521 238.685 8.39373 208.803 27.5295 176.211C46.0582 144.532 64.8292 129.338 87.8088 119.042C111.091 108.443 133.424 110.05 154.81 123.253C212.037 158.868 275.346 265.932 322.83 324.711C325.535 328.079 325.819 332.963 323.692 336.619Z" fill="#0BB752"/>
<path d="M357.83 336.721C359.629 340.086 363.245 341.93 367.168 342.249C469.798 344.451 575.151 344.527 595.684 343.075C616.52 341.318 633.744 336.497 647.056 328.303C668.234 315.254 679.174 295.147 680.479 268.29C681.482 241.127 672.836 211.182 653.936 178.452C635.637 146.64 616.976 131.311 594.071 120.85C570.866 110.082 548.522 111.528 527.042 124.576C469.862 159.473 406.391 264.553 358.784 323.294C358.481 323.598 358.48 323.903 358.178 323.902C358.177 324.207 355.135 330.607 357.83 336.721Z" fill="#0BB752"/>
</svg>
