<svg width="1631" height="3829" viewBox="0 0 1631 3829" fill="none" xmlns="http://www.w3.org/2000/svg">
<path d="M1201.54 421.59C1154 419.153 1102.45 418.795 1047.54 418.795C782.668 418.795 649.543 131.295 764.543 88.2949C879.543 45.2949 929.543 224.295 740.543 253.795C551.543 283.295 463.043 144.295 401.543 0.294922" stroke="white" stroke-width="1.5"/>
<path d="M126.043 1246.56C231.721 1322.27 445.336 1333.12 540.043 1218.8C665.544 1067.29 911.043 970.795 1105.54 986.795C1300.04 1002.8 1567.04 859.295 1535.04 643.295C1520.92 547.942 1476.39 493.026 1408.04 461.428" stroke="white" stroke-width="1.5"/>
<path d="M980.543 2207.55C808.584 2160.69 640.839 2077.26 553.544 1954.79C342.544 1658.79 103.044 1752.29 161.544 1866.79C220.044 1981.29 575.044 1938.79 604.544 1576.29C634.044 1213.79 155.546 877.794 72.0448 1103.29C66.7939 1117.47 64.3789 1131.17 64.4549 1144.29" stroke="white" stroke-width="1.5"/>
<path d="M1107.54 2235.6C1107.88 2235.65 1108.21 2235.71 1108.54 2235.77" stroke="white"/>
<path d="M734.541 3828.29C689.539 3690.79 615.042 3638.79 414.54 3620.79C201.914 3601.71 116.404 3731.55 185.042 3767.79C460.543 3913.29 529.043 3445.29 609.542 3061.3C685.703 2697.99 1134.82 2741.03 1145.54 2847.29C1162.54 3015.79 828.542 2925.3 905.542 2736.3C982.542 2547.3 1519.04 2784.3 1583.04 2632.3C1647.04 2480.3 1388.04 2314.3 1377.54 2183.8C1359.12 1954.8 1594.54 2067.8 1520.04 2193.3C1484.04 2253.95 1306.36 2269.41 1108.54 2235.77" stroke="white"/>
<path d="M1591.92 2513.61C1592.25 2513.49 1592.48 2513.17 1592.52 2512.82L1594.01 2500.9C1594.51 2497.02 1594.34 2494.1 1593.48 2492.14C1592.57 2490.07 1591.06 2488.78 1588.96 2488.27C1586.86 2487.76 1584.43 2488.11 1581.67 2489.32C1578.85 2490.56 1576.83 2492.16 1575.66 2494.08C1574.51 2495.98 1574.36 2497.94 1575.24 2499.95C1575.8 2501.22 1576.78 2502.46 1578.17 2503.72C1579.55 2504.93 1583.8 2508.18 1590.98 2513.47C1591.24 2513.69 1591.61 2513.72 1591.92 2513.61Z" fill="white"/>
<path d="M1594.12 2518.5C1594.42 2518.37 1594.78 2518.4 1595.06 2518.61L1604.88 2525.62C1608.08 2527.88 1610.11 2529.98 1610.97 2531.94C1611.87 2534 1611.8 2536.01 1610.75 2537.89C1609.71 2539.78 1607.8 2541.33 1605.04 2542.54C1602.22 2543.78 1599.67 2544.18 1597.47 2543.75C1595.29 2543.3 1593.75 2542.08 1592.87 2540.07C1592.31 2538.8 1592.06 2537.24 1592.08 2535.36C1592.12 2533.53 1592.6 2528.18 1593.59 2519.28C1593.59 2518.95 1593.8 2518.64 1594.12 2518.5Z" fill="white"/>
<path d="M1592.5 2517.84C1592.73 2518.06 1592.81 2518.41 1592.74 2518.75C1591.08 2524.78 1589.81 2534.82 1586.68 2539.35C1585.51 2541.07 1583.86 2541.91 1581.75 2541.87C1579.68 2541.85 1577.76 2541.31 1575.32 2539.53C1572.8 2537.69 1571.15 2535.72 1570.31 2533.64C1569.49 2531.58 1569.68 2529.71 1570.84 2528.02C1571.57 2526.96 1572.71 2526.02 1574.22 2525.19C1575.72 2524.39 1583.67 2520.88 1591.48 2517.62C1591.82 2517.47 1592.24 2517.56 1592.5 2517.84Z" fill="white"/>
<path d="M1591.4 2515.27C1591.36 2515.56 1591.18 2515.83 1590.91 2515.95C1583.17 2519.51 1575.11 2523.01 1573.51 2523.58C1571.88 2524.13 1570.44 2524.32 1569.14 2524.15C1567.12 2523.88 1565.61 2522.73 1564.65 2520.73C1563.68 2518.71 1563.35 2516.16 1563.71 2513.06C1564.05 2510.05 1564.96 2508.28 1566.34 2506.74C1567.75 2505.16 1569.48 2504.54 1571.54 2504.82C1577.04 2505.59 1585.39 2511.55 1590.93 2514.4C1591.25 2514.56 1591.43 2514.92 1591.4 2515.27Z" fill="white"/>
<path d="M1595 2516.65C1595 2516.29 1595.2 2515.99 1595.52 2515.85C1603.23 2512.3 1611.22 2508.83 1612.82 2508.26C1614.45 2507.71 1615.92 2507.51 1617.19 2507.69C1619.21 2507.96 1620.72 2509.11 1621.68 2511.11C1622.65 2513.13 1622.98 2515.68 1622.62 2518.78C1622.28 2521.79 1621.38 2523.56 1619.99 2525.1C1618.59 2526.68 1616.85 2527.3 1614.79 2527.02C1609.32 2526.26 1601.03 2520.36 1595.47 2517.49C1595.18 2517.32 1594.99 2517.01 1595 2516.65Z" fill="white"/>
<path d="M1593.97 2514.14C1594.22 2514.33 1594.56 2514.35 1594.86 2514.24C1602.68 2510.98 1610.62 2507.47 1612.12 2506.67C1613.63 2505.84 1614.77 2504.91 1615.5 2503.84C1616.66 2502.15 1616.82 2500.27 1616.02 2498.2C1615.19 2496.12 1613.54 2494.15 1611.02 2492.31C1608.58 2490.53 1606.66 2489.99 1604.58 2489.97C1602.47 2489.93 1600.83 2490.79 1599.65 2492.49C1596.5 2497.03 1595.23 2507.07 1593.6 2513.09C1593.59 2513.12 1593.6 2513.15 1593.57 2513.16C1593.58 2513.18 1593.57 2513.76 1593.97 2514.14Z" fill="white"/>
<path d="M541.386 3374.22C541.568 3374.17 541.71 3374.01 541.744 3373.82L543.025 3367.47C543.452 3365.4 543.48 3363.82 543.097 3362.73C542.691 3361.58 541.928 3360.83 540.819 3360.47C539.71 3360.11 538.389 3360.2 536.856 3360.74C535.285 3361.29 534.135 3362.07 533.427 3363.05C532.732 3364.03 532.575 3365.08 532.967 3366.2C533.215 3366.9 533.692 3367.61 534.392 3368.34C535.082 3369.05 537.239 3370.97 540.891 3374.11C541.021 3374.23 541.217 3374.27 541.386 3374.22Z" fill="white"/>
<path d="M542.378 3376.94C542.543 3376.88 542.739 3376.91 542.882 3377.04L547.882 3381.21C549.508 3382.55 550.519 3383.77 550.902 3384.85C551.303 3385.99 551.184 3387.07 550.544 3388.05C549.904 3389.02 548.818 3389.78 547.285 3390.32C545.713 3390.87 544.329 3390.98 543.162 3390.66C542.007 3390.33 541.227 3389.61 540.835 3388.5C540.587 3387.79 540.514 3386.94 540.601 3385.93C540.696 3384.95 541.17 3382.09 542.063 3377.34C542.072 3377.16 542.201 3377 542.378 3376.94Z" fill="white"/>
<path d="M541.529 3376.52C541.647 3376.65 541.672 3376.84 541.62 3377.02C540.488 3380.2 539.395 3385.55 537.532 3387.86C536.831 3388.74 535.911 3389.12 534.777 3389.02C533.661 3388.92 532.65 3388.56 531.408 3387.49C530.128 3386.4 529.318 3385.28 528.955 3384.12C528.596 3382.98 528.772 3381.99 529.465 3381.12C529.901 3380.58 530.551 3380.12 531.399 3379.74C532.238 3379.37 536.655 3377.8 540.99 3376.36C541.181 3376.3 541.403 3376.36 541.529 3376.52Z" fill="white"/>
<path d="M541.04 3375.09C541.009 3375.24 540.901 3375.38 540.749 3375.44C536.443 3377.04 531.965 3378.6 531.081 3378.84C530.18 3379.07 529.398 3379.11 528.706 3378.97C527.63 3378.74 526.864 3378.06 526.429 3376.95C525.99 3375.82 525.915 3374.44 526.231 3372.78C526.535 3371.18 527.095 3370.26 527.905 3369.49C528.723 3368.7 529.683 3368.43 530.777 3368.67C533.707 3369.3 537.959 3372.85 540.826 3374.6C540.99 3374.7 541.075 3374.9 541.04 3375.09Z" fill="white"/>
<path d="M542.923 3375.98C542.94 3375.79 543.056 3375.63 543.234 3375.57C547.527 3373.97 551.967 3372.43 552.851 3372.19C553.752 3371.96 554.547 3371.91 555.226 3372.06C556.302 3372.28 557.069 3372.96 557.503 3374.08C557.943 3375.2 558.017 3376.59 557.701 3378.24C557.397 3379.85 556.837 3380.76 556.027 3381.54C555.209 3382.33 554.249 3382.6 553.156 3382.36C550.242 3381.73 546.017 3378.22 543.145 3376.45C542.994 3376.35 542.905 3376.18 542.923 3375.98Z" fill="white"/>
<path d="M542.473 3374.59C542.599 3374.7 542.778 3374.72 542.947 3374.68C547.282 3373.24 551.7 3371.67 552.539 3371.3C553.386 3370.92 554.036 3370.46 554.472 3369.92C555.165 3369.05 555.324 3368.05 554.978 3366.9C554.615 3365.75 553.805 3364.62 552.525 3363.53C551.283 3362.47 550.272 3362.11 549.156 3362.01C548.022 3361.91 547.107 3362.3 546.401 3363.17C544.525 3365.48 543.432 3370.84 542.313 3374.01C542.305 3374.03 542.309 3374.04 542.296 3374.04C542.301 3374.06 542.269 3374.37 542.473 3374.59Z" fill="white"/>
<path d="M1263.47 341.133C1253.27 345.608 1246.06 351.348 1241.9 358.154L1241.9 358.155C1237.83 364.895 1237.33 371.782 1240.43 378.859C1242.4 383.348 1245.89 387.804 1250.92 392.34C1255.89 396.728 1271.35 408.54 1297.54 427.815L1297.56 427.829L1297.57 427.844C1298.27 428.429 1299.32 428.546 1300.24 428.224C1301.14 427.901 1301.84 426.98 1301.95 425.98L1301.95 425.969L1307.37 382.536L1307.37 382.532L1307.53 381.222C1309.15 367.796 1308.47 357.751 1305.51 351.021C1302.29 343.666 1296.95 339.143 1289.54 337.346C1282.11 335.543 1273.43 336.766 1263.47 341.133Z" stroke="white" stroke-width="1.5"/>
<path d="M1308.79 447.435C1307.88 447.837 1307.3 448.724 1307.32 449.577L1307.32 449.627L1307.32 449.677C1303.71 482.1 1301.96 501.554 1301.82 508.194L1301.82 508.195C1301.75 514.971 1302.66 520.562 1304.63 525.052C1307.73 532.128 1313.14 536.42 1320.85 537.998C1328.68 539.547 1337.78 538.138 1347.99 533.661C1357.95 529.294 1364.72 523.741 1368.44 517.051C1372.13 510.385 1372.39 503.31 1369.2 496.038C1366.15 489.091 1358.87 481.526 1347.28 473.327L1347.27 473.325L1311.5 447.752L1311.49 447.746C1310.69 447.155 1309.63 447.068 1308.79 447.435Z" stroke="white" stroke-width="1.5"/>
<path d="M1299.17 444.246C1270.7 456.13 1241.78 468.911 1236.35 471.788C1230.91 474.769 1226.88 478.117 1224.3 481.857C1220.23 487.797 1219.56 494.339 1222.46 501.624C1225.43 509.04 1231.33 516.111 1240.43 522.748L1240.43 522.749C1249.21 529.176 1256.05 531.062 1263.45 531.147L1263.46 531.147C1270.9 531.278 1276.65 528.363 1280.78 522.297L1280.79 522.293L1281.31 521.517C1286.64 513.348 1290.48 500.591 1293.71 487.061C1297.03 473.195 1299.72 458.477 1302.72 447.498C1302.94 446.471 1302.7 445.474 1302.07 444.871L1302.06 444.857L1302.04 444.844C1301.33 444.077 1300.13 443.824 1299.18 444.24L1299.17 444.246Z" stroke="white" stroke-width="1.5"/>
<path d="M1226.13 397.64C1218.89 396.648 1212.81 398.834 1207.87 404.389L1207.87 404.393C1202.92 409.893 1199.67 416.201 1198.45 427.014L1198.45 427.014C1197.17 438.203 1198.37 447.339 1201.82 454.541C1205.21 461.619 1210.51 465.636 1217.6 466.578C1222.18 467.187 1227.3 466.519 1233.18 464.536C1238.97 462.491 1268.29 449.737 1296.49 436.773L1296.5 436.767C1297.22 436.45 1297.74 435.712 1297.84 434.887C1297.94 433.925 1297.42 432.921 1296.56 432.471C1286.45 427.283 1273.72 419.214 1261.15 412.174C1248.5 405.092 1236 399.03 1226.13 397.64Z" stroke="white" stroke-width="1.5"/>
<path d="M1376.87 410.169C1371.08 412.212 1342.01 424.858 1313.89 437.787L1313.88 437.793C1313 438.177 1312.46 439.01 1312.44 440.046C1312.43 441.066 1312.95 441.925 1313.8 442.431C1323.91 447.66 1336.6 455.688 1349.1 462.671C1361.29 469.484 1373.33 475.326 1382.99 476.925L1383.92 477.067C1391.15 478.058 1397.23 475.873 1402.17 470.318L1402.18 470.314L1402.63 469.796C1407.33 464.415 1410.41 458.167 1411.59 447.692L1411.59 447.691C1412.88 436.503 1411.68 427.367 1408.23 420.165C1404.84 413.088 1399.53 409.07 1392.45 408.129L1392.44 408.128C1387.95 407.485 1382.75 408.185 1376.87 410.169Z" stroke="white" stroke-width="1.5"/>
<path d="M1346.6 343.558C1339.17 343.428 1333.44 346.419 1329.27 352.413C1323.63 360.554 1319.62 373.706 1316.28 387.671C1312.96 401.548 1310.29 416.283 1307.33 427.243L1307.32 427.281L1307.32 427.284C1307.31 427.294 1307.31 427.309 1307.31 427.327C1307.3 427.351 1307.3 427.396 1307.28 427.452C1307.28 427.501 1307.29 427.556 1307.29 427.617C1307.31 427.825 1307.35 428.104 1307.43 428.415C1307.58 429.037 1307.88 429.74 1308.46 430.278C1309.1 430.766 1310.01 430.852 1310.94 430.535C1338.52 419.024 1366.51 406.675 1373.16 403.299L1373.74 403.001C1379.01 400.113 1382.96 396.881 1385.54 393.281L1385.79 392.931C1389.74 387.185 1390.38 380.82 1387.85 373.758L1387.59 373.073C1384.63 365.66 1378.72 358.591 1369.63 351.956L1369.63 351.956C1360.85 345.529 1354.01 343.644 1346.61 343.558L1346.6 343.558Z" stroke="white" stroke-width="1.5"/>
<path d="M1122.65 983.607C1123.1 983.449 1123.42 983.012 1123.47 982.545L1125.47 966.483C1126.15 961.26 1125.93 957.322 1124.77 954.682C1123.54 951.886 1121.5 950.152 1118.67 949.466C1115.84 948.781 1112.57 949.253 1108.85 950.882C1105.05 952.553 1102.33 954.707 1100.75 957.288C1099.2 959.856 1099 962.497 1100.19 965.2C1100.94 966.908 1102.26 968.588 1104.14 970.282C1105.99 971.915 1111.72 976.292 1121.4 983.417C1121.75 983.709 1122.24 983.751 1122.65 983.607Z" fill="white"/>
<path d="M1125.62 990.196C1126.02 990.021 1126.51 990.063 1126.89 990.342L1140.12 999.799C1144.42 1002.84 1147.16 1005.67 1148.32 1008.31C1149.53 1011.08 1149.44 1013.79 1148.03 1016.33C1146.62 1018.87 1144.05 1020.96 1140.33 1022.59C1136.52 1024.26 1133.1 1024.8 1130.13 1024.21C1127.19 1023.61 1125.12 1021.97 1123.93 1019.27C1123.18 1017.56 1122.84 1015.45 1122.87 1012.92C1122.92 1010.45 1123.57 1003.24 1124.91 991.248C1124.9 990.808 1125.19 990.385 1125.62 990.196Z" fill="white"/>
<path d="M1123.43 989.301C1123.75 989.607 1123.85 990.082 1123.75 990.531C1121.53 998.655 1119.81 1012.19 1115.6 1018.29C1114.02 1020.61 1111.8 1021.74 1108.95 1021.69C1106.16 1021.65 1103.57 1020.93 1100.28 1018.53C1096.89 1016.05 1094.66 1013.4 1093.54 1010.59C1092.44 1007.82 1092.69 1005.3 1094.25 1003.02C1095.24 1001.59 1096.77 1000.33 1098.81 999.211C1100.83 998.139 1111.54 993.407 1122.06 989.014C1122.52 988.812 1123.09 988.934 1123.43 989.301Z" fill="white"/>
<path d="M1121.95 985.839C1121.9 986.23 1121.66 986.596 1121.29 986.758C1110.87 991.551 1100.01 996.275 1097.85 997.035C1095.65 997.778 1093.71 998.036 1091.96 997.803C1089.24 997.441 1087.2 995.89 1085.91 993.196C1084.61 990.472 1084.17 987.038 1084.64 982.865C1085.1 978.813 1086.32 976.425 1088.2 974.345C1090.08 972.221 1092.43 971.379 1095.19 971.758C1102.61 972.802 1113.86 980.832 1121.33 984.668C1121.75 984.888 1122 985.372 1121.95 985.839Z" fill="white"/>
<path d="M1126.8 987.712C1126.81 987.227 1127.07 986.817 1127.5 986.628C1137.89 981.849 1148.65 977.165 1150.81 976.405C1153.01 975.662 1154.98 975.391 1156.7 975.637C1159.42 975.999 1161.46 977.55 1162.75 980.244C1164.05 982.968 1164.5 986.402 1164.02 990.575C1163.56 994.627 1162.34 997.015 1160.47 999.095C1158.58 1001.22 1156.24 1002.06 1153.47 1001.68C1146.1 1000.66 1134.92 992.705 1127.44 988.838C1127.04 988.604 1126.79 988.196 1126.8 987.712Z" fill="white"/>
<path d="M1125.42 984.316C1125.76 984.577 1126.21 984.602 1126.62 984.458C1137.15 980.064 1147.86 975.332 1149.88 974.261C1151.91 973.145 1153.45 971.88 1154.43 970.449C1156 968.17 1156.2 965.635 1155.13 962.848C1154.01 960.043 1151.78 957.39 1148.39 954.914C1145.1 952.506 1142.51 951.788 1139.72 951.755C1136.87 951.705 1134.67 952.857 1133.07 955.149C1128.83 961.267 1127.11 974.799 1124.92 982.909C1124.9 982.954 1124.91 982.985 1124.88 982.998C1124.9 983.029 1124.88 983.816 1125.42 984.316Z" fill="white"/>
<path d="M173.678 1783.06C173.884 1782.99 174.034 1782.78 174.058 1782.56L174.991 1775.08C175.306 1772.65 175.201 1770.82 174.662 1769.59C174.091 1768.29 173.14 1767.48 171.823 1767.16C170.507 1766.84 168.983 1767.06 167.252 1767.82C165.478 1768.6 164.213 1769.6 163.478 1770.8C162.757 1772 162.665 1773.23 163.217 1774.49C163.566 1775.28 164.182 1776.07 165.056 1776.85C165.918 1777.61 168.586 1779.65 173.093 1782.97C173.255 1783.11 173.486 1783.13 173.678 1783.06Z" fill="white"/>
<path d="M175.056 1786.13C175.242 1786.04 175.472 1786.06 175.648 1786.19L181.809 1790.6C183.811 1792.01 185.089 1793.33 185.628 1794.56C186.192 1795.85 186.148 1797.11 185.491 1798.29C184.834 1799.48 183.64 1800.45 181.909 1801.21C180.135 1801.99 178.54 1802.24 177.158 1801.97C175.79 1801.69 174.823 1800.92 174.272 1799.66C173.923 1798.87 173.765 1797.88 173.777 1796.71C173.802 1795.56 174.103 1792.2 174.725 1786.62C174.72 1786.41 174.855 1786.21 175.056 1786.13Z" fill="white"/>
<path d="M174.038 1785.71C174.186 1785.85 174.232 1786.07 174.187 1786.28C173.151 1790.06 172.349 1796.37 170.389 1799.21C169.653 1800.29 168.62 1800.81 167.296 1800.79C165.994 1800.77 164.79 1800.44 163.257 1799.32C161.678 1798.17 160.641 1796.93 160.12 1795.62C159.605 1794.33 159.722 1793.16 160.45 1792.1C160.908 1791.43 161.622 1790.84 162.571 1790.32C163.512 1789.82 168.498 1787.62 173.399 1785.58C173.614 1785.48 173.878 1785.54 174.038 1785.71Z" fill="white"/>
<path d="M173.35 1784.1C173.327 1784.28 173.214 1784.45 173.043 1784.53C168.189 1786.76 163.133 1788.96 162.128 1789.31C161.103 1789.66 160.201 1789.78 159.386 1789.67C158.118 1789.5 157.17 1788.78 156.569 1787.52C155.962 1786.26 155.755 1784.66 155.978 1782.71C156.191 1780.83 156.761 1779.71 157.632 1778.75C158.512 1777.76 159.602 1777.36 160.89 1777.54C164.344 1778.03 169.582 1781.77 173.059 1783.55C173.258 1783.66 173.374 1783.88 173.35 1784.1Z" fill="white"/>
<path d="M175.606 1784.97C175.609 1784.74 175.73 1784.55 175.931 1784.46C180.77 1782.24 185.783 1780.06 186.788 1779.7C187.813 1779.36 188.729 1779.23 189.53 1779.35C190.798 1779.51 191.746 1780.24 192.347 1781.49C192.954 1782.76 193.161 1784.36 192.938 1786.3C192.725 1788.19 192.155 1789.3 191.284 1790.27C190.404 1791.26 189.314 1791.65 188.026 1791.47C184.593 1791 179.388 1787.29 175.904 1785.49C175.72 1785.38 175.603 1785.19 175.606 1784.97Z" fill="white"/>
<path d="M174.967 1783.39C175.123 1783.51 175.333 1783.52 175.525 1783.45C180.427 1781.41 185.412 1779.2 186.353 1778.71C187.302 1778.19 188.016 1777.6 188.474 1776.93C189.203 1775.87 189.299 1774.69 188.798 1773.39C188.277 1772.09 187.24 1770.85 185.661 1769.7C184.128 1768.58 182.925 1768.24 181.622 1768.23C180.298 1768.2 179.272 1768.74 178.529 1769.81C176.554 1772.66 175.753 1778.96 174.731 1782.73C174.723 1782.75 174.73 1782.77 174.715 1782.77C174.722 1782.79 174.712 1783.16 174.967 1783.39Z" fill="white"/>
<path d="M29.0756 1231.67C32.1725 1237.19 35.7985 1240.91 39.8271 1242.87L39.8279 1242.87C43.8001 1244.76 47.6376 1244.66 51.3978 1242.56C53.7889 1241.21 56.0972 1239.01 58.3809 1235.92C60.5894 1232.86 66.4388 1223.42 75.9468 1207.43L75.9585 1207.41L75.9725 1207.39C76.1891 1207.07 76.2105 1206.6 76.0127 1206.17C75.8345 1205.79 75.3906 1205.51 74.9284 1205.51L74.917 1205.51L49.8954 1204.85L49.8924 1204.85L48.3989 1204.82C41.0665 1204.73 35.7021 1205.68 32.2284 1207.63C28.3071 1209.83 26.094 1213.04 25.5003 1217.25C24.9029 1221.49 26.0546 1226.29 29.0756 1231.67Z" stroke="white" stroke-width="1.5"/>
<path d="M87.04 1199.93C87.2636 1200.33 87.6822 1200.53 88.0231 1200.49L88.0722 1200.48L88.1221 1200.48C106.775 1200.72 117.927 1200.63 121.701 1200.34L121.702 1200.34C125.534 1200 128.617 1199.18 131.01 1197.84C134.769 1195.73 136.85 1192.51 137.308 1188.13C137.743 1183.68 136.458 1178.64 133.36 1173.12C130.339 1167.73 126.846 1164.25 122.917 1162.55C119.013 1160.86 115.077 1161.1 111.2 1163.27C107.495 1165.35 103.632 1169.86 99.6224 1176.9L99.6208 1176.9L87.0676 1198.69L87.0623 1198.7C86.8309 1199.09 86.8388 1199.57 87.04 1199.93Z" stroke="white" stroke-width="1.5"/>
<path d="M85.7665 1205.59C94.1237 1221.13 103.005 1236.86 104.938 1239.77C106.796 1242.5 108.756 1244.48 110.818 1245.73L111.232 1245.97C114.63 1247.84 118.158 1247.92 121.917 1246.09L122.282 1245.9C126.267 1243.84 129.922 1240.13 133.17 1234.62L133.17 1234.62C136.306 1229.32 136.977 1225.38 136.618 1221.24L136.618 1221.23C136.285 1217.1 134.365 1214.08 130.779 1212.12L130.775 1212.12L130.31 1211.87C125.419 1209.33 117.998 1207.86 110.112 1206.77C102.073 1205.67 93.5097 1204.95 87.0942 1203.86C86.5817 1203.8 86.1524 1203.97 85.93 1204.26L85.9172 1204.27L85.9052 1204.29C85.635 1204.59 85.5571 1205.05 85.6904 1205.42L85.7603 1205.58L85.7665 1205.59Z" stroke="white" stroke-width="1.5"/>
<path d="M63.3654 1249.93C63.2095 1254 64.7451 1257.24 68.0957 1259.67L68.0989 1259.68C71.4485 1262.14 75.1553 1263.62 81.3144 1263.71L81.3157 1263.71C87.5149 1263.81 92.4639 1262.7 96.2577 1260.52L96.6213 1260.3C100.377 1258.02 102.3 1254.88 102.435 1250.91C102.523 1248.33 101.874 1245.51 100.433 1242.31C98.9537 1239.14 90.0629 1223.18 81.1042 1207.85L81.0975 1207.84C80.9385 1207.56 80.6007 1207.36 80.2254 1207.35C79.8029 1207.34 79.3848 1207.62 79.2277 1208.01C76.8392 1214.05 72.943 1221.79 69.6518 1229.31C66.3268 1236.91 63.6021 1244.31 63.3654 1249.93Z" stroke="white" stroke-width="1.5"/>
<path d="M62.0337 1163.3C63.5131 1166.46 72.3274 1182.29 81.2604 1197.57L81.2671 1197.58C81.4692 1197.94 81.8496 1198.15 82.3236 1198.11C82.7794 1198.07 83.1398 1197.81 83.3356 1197.4C85.746 1191.35 89.6214 1183.64 92.8819 1176.17C96.0793 1168.85 98.7058 1161.72 99.0723 1156.2L99.1005 1155.67C99.2562 1151.6 97.7207 1148.36 94.3702 1145.93L94.3666 1145.93C91.0171 1143.46 87.311 1141.98 81.152 1141.89L81.1506 1141.89L80.5548 1141.89C74.4362 1141.86 69.5645 1143.05 65.8451 1145.3C62.0895 1147.58 60.1666 1150.73 60.0311 1154.69L60.0306 1154.7C59.9189 1157.22 60.5902 1160.09 62.0337 1163.3Z" stroke="white" stroke-width="1.5"/>
<path d="M25.8499 1184.36C26.1824 1188.49 28.1432 1191.49 31.6951 1193.48C36.5845 1196.2 44.2358 1197.74 52.3743 1198.86C60.4227 1199.96 69.0047 1200.67 75.4061 1201.74L75.4158 1201.74C75.4184 1201.74 75.4212 1201.74 75.4241 1201.74C75.4334 1201.74 75.4478 1201.75 75.4664 1201.75C75.4786 1201.75 75.4916 1201.75 75.5049 1201.74C75.6123 1201.72 75.7532 1201.69 75.9072 1201.63C76.2131 1201.52 76.5257 1201.35 76.7473 1201.07C76.9135 1200.79 76.9304 1200.39 76.7304 1199.95C68.3839 1184.43 59.5192 1168.73 57.5793 1165.8L57.5797 1165.8C55.5958 1162.9 53.498 1160.83 51.2821 1159.6C47.7848 1157.68 44.1187 1157.72 40.1869 1159.69C36.2013 1161.76 32.5468 1165.46 29.2986 1170.98L29.2982 1170.98C26.163 1176.28 25.49 1180.21 25.8488 1184.36L25.8499 1184.36Z" stroke="white" stroke-width="1.5"/>
<path d="M980.544 2257.03C984.234 2263.6 988.544 2268.12 993.338 2270.59L993.805 2270.82C998.721 2273.16 1003.48 2273.05 1008.14 2270.43C1011.1 2268.77 1013.95 2266.06 1016.76 2262.25C1019.47 2258.49 1026.64 2246.91 1038.3 2227.31L1038.31 2227.29L1038.32 2227.27C1038.63 2226.83 1038.65 2226.18 1038.39 2225.61C1038.14 2225.09 1037.53 2224.71 1036.91 2224.7L1036.91 2224.7L1036.9 2224.7L1006.22 2223.9L1006.22 2223.9L1005.29 2223.87C995.828 2223.66 988.915 2224.83 984.474 2227.32C979.623 2230.04 976.876 2234.02 976.141 2239.24C975.401 2244.49 976.829 2250.4 980.544 2257.03Z" stroke="white" stroke-width="1.5"/>
<path d="M1051.6 2218.12C1051.91 2218.66 1052.48 2218.94 1052.98 2218.88L1053.03 2218.88L1053.08 2218.88C1075.95 2219.17 1089.63 2219.06 1094.26 2218.7L1094.26 2218.7C1098.97 2218.29 1102.78 2217.28 1105.74 2215.62C1110.4 2213 1112.98 2209 1113.55 2203.59C1114.08 2198.08 1112.49 2191.87 1108.69 2185.08C1104.97 2178.45 1100.66 2174.15 1095.8 2172.05C1090.97 2169.95 1086.08 2170.25 1081.29 2172.94C1076.7 2175.52 1071.95 2181.07 1067.03 2189.71L1067.03 2189.72L1051.64 2216.43L1051.63 2216.44C1051.32 2216.97 1051.33 2217.62 1051.6 2218.12Z" stroke="white" stroke-width="1.5"/>
<path d="M1050.04 2225.05C1060.29 2244.1 1071.18 2263.39 1073.55 2266.97C1075.99 2270.54 1078.58 2273.1 1081.33 2274.62C1085.55 2276.94 1089.93 2277.03 1094.58 2274.77L1095.03 2274.54C1099.96 2271.99 1104.46 2267.42 1108.45 2260.64L1108.45 2260.64C1112.31 2254.11 1113.14 2249.26 1112.7 2244.14L1112.7 2244.13C1112.29 2239.01 1109.9 2235.26 1105.45 2232.83L1105.45 2232.83L1104.88 2232.52C1098.85 2229.38 1089.72 2227.58 1080.06 2226.25C1070.18 2224.89 1059.7 2224.02 1051.83 2222.68C1051.16 2222.61 1050.57 2222.83 1050.26 2223.23L1050.25 2223.24L1050.23 2223.26C1049.81 2223.74 1049.73 2224.49 1050.04 2225.04L1050.04 2225.05Z" stroke="white" stroke-width="1.5"/>
<path d="M1022.56 2279.33C1022.37 2284.37 1024.28 2288.39 1028.43 2291.41L1028.43 2291.41C1032.57 2294.46 1037.15 2296.28 1044.73 2296.39L1044.73 2296.39C1052.6 2296.52 1058.85 2295.06 1063.59 2292.19C1068.24 2289.37 1070.63 2285.46 1070.8 2280.54C1070.91 2277.34 1070.1 2273.85 1068.33 2269.91C1066.62 2266.26 1056.93 2248.83 1046.68 2231.19L1044.62 2227.66L1044.62 2227.65C1044.42 2227.29 1044.03 2227.04 1043.59 2226.97L1043.4 2226.96C1042.81 2226.95 1042.24 2227.33 1042.02 2227.87C1039.09 2235.28 1034.32 2244.75 1030.28 2253.98C1026.21 2263.29 1022.85 2272.39 1022.56 2279.33Z" stroke="white" stroke-width="1.5"/>
<path d="M1020.94 2173.19C1022.76 2177.08 1033.57 2196.49 1044.52 2215.22L1044.53 2215.24C1044.81 2215.74 1045.34 2216.02 1045.99 2215.97C1046.61 2215.92 1047.11 2215.55 1047.37 2214.99C1050.33 2207.58 1055.07 2198.15 1059.07 2188.98C1062.99 2180 1066.22 2171.23 1066.67 2164.43L1066.71 2163.78C1066.9 2158.73 1064.99 2154.71 1060.84 2151.69L1060.84 2151.69L1060.45 2151.41C1056.41 2148.53 1051.88 2146.82 1044.54 2146.71L1044.54 2146.71C1036.67 2146.59 1030.42 2148.04 1025.68 2150.92C1021.03 2153.73 1018.64 2157.64 1018.47 2162.57L1018.47 2162.57C1018.34 2165.71 1019.17 2169.25 1020.94 2173.19Z" stroke="white" stroke-width="1.5"/>
<path d="M976.569 2198.96C976.981 2204.08 979.419 2207.8 983.822 2210.27L983.822 2210.27C989.847 2213.62 999.258 2215.51 1009.23 2216.88C1019.12 2218.24 1029.61 2219.1 1037.46 2220.42L1037.48 2220.42C1037.48 2220.42 1037.49 2220.42 1037.5 2220.42C1037.52 2220.42 1037.54 2220.43 1037.57 2220.43C1037.59 2220.43 1037.62 2220.42 1037.65 2220.42C1037.78 2220.39 1037.96 2220.35 1038.16 2220.28C1038.56 2220.14 1038.98 2219.9 1039.28 2219.52C1039.52 2219.11 1039.53 2218.56 1039.27 2217.98C1029.67 2200.13 1019.5 2182.07 1016.31 2176.94L1015.77 2176.09C1013.33 2172.52 1010.74 2169.96 1008 2168.44C1003.79 2166.12 999.381 2166.1 994.684 2168.33L994.229 2168.55C989.31 2171.1 984.811 2175.67 980.82 2182.45L980.82 2182.45C976.959 2188.98 976.126 2193.83 976.569 2198.95L976.569 2198.96Z" stroke="white" stroke-width="1.5"/>
</svg>
