<svg width="1631" height="3880" viewBox="0 0 1631 3880" fill="none" xmlns="http://www.w3.org/2000/svg">
<path d="M1201.54 472.336C1154 469.899 1102.45 469.541 1047.54 469.541C782.668 469.541 649.543 182.041 764.543 139.041C879.543 96.041 929.543 275.041 740.543 304.541C551.543 334.041 463.043 195.041 401.543 51.041" stroke="white" stroke-width="1.5"/>
<path d="M126.043 1297.31C231.721 1373.01 445.336 1383.87 540.043 1269.54C665.544 1118.04 911.043 1021.54 1105.54 1037.54C1300.04 1053.54 1567.04 910.041 1535.04 694.041C1520.92 598.688 1476.39 543.772 1408.04 512.174" stroke="white" stroke-width="1.5"/>
<path d="M980.543 2258.29C808.584 2211.44 640.839 2128 553.544 2005.54C342.544 1709.54 103.044 1803.04 161.544 1917.54C220.044 2032.04 575.044 1989.54 604.544 1627.04C634.044 1264.54 155.546 928.54 72.0448 1154.04C66.7939 1168.22 64.3789 1181.92 64.4549 1195.04" stroke="white" stroke-width="1.5"/>
<path d="M1107.54 2286.34C1107.88 2286.4 1108.21 2286.46 1108.54 2286.51" stroke="white"/>
<path d="M734.541 3879.04C689.539 3741.54 615.042 3689.54 414.54 3671.54C201.914 3652.45 116.404 3782.29 185.042 3818.54C460.543 3964.04 529.043 3496.04 609.542 3112.04C685.703 2748.74 1134.82 2791.78 1145.54 2898.04C1162.54 3066.54 828.542 2976.04 905.542 2787.04C982.542 2598.04 1519.04 2835.04 1583.04 2683.04C1647.04 2531.04 1388.04 2365.04 1377.54 2234.54C1359.12 2005.54 1594.54 2118.54 1520.04 2244.04C1484.04 2304.7 1306.36 2320.15 1108.54 2286.52" stroke="white"/>
<path d="M1591.92 2564.36C1592.25 2564.24 1592.48 2563.92 1592.52 2563.57L1594.01 2551.65C1594.51 2547.77 1594.34 2544.85 1593.48 2542.89C1592.57 2540.82 1591.06 2539.53 1588.96 2539.02C1586.86 2538.51 1584.43 2538.86 1581.67 2540.07C1578.85 2541.31 1576.83 2542.91 1575.66 2544.82C1574.51 2546.73 1574.36 2548.69 1575.24 2550.7C1575.8 2551.96 1576.78 2553.21 1578.17 2554.47C1579.55 2555.68 1583.8 2558.93 1590.98 2564.22C1591.24 2564.43 1591.61 2564.46 1591.92 2564.36Z" fill="white"/>
<path d="M1594.12 2569.25C1594.42 2569.12 1594.78 2569.15 1595.06 2569.35L1604.88 2576.37C1608.08 2578.63 1610.11 2580.73 1610.97 2582.69C1611.87 2584.74 1611.8 2586.75 1610.75 2588.64C1609.71 2590.53 1607.8 2592.08 1605.04 2593.29C1602.22 2594.53 1599.67 2594.93 1597.47 2594.49C1595.29 2594.05 1593.75 2592.83 1592.87 2590.82C1592.31 2589.55 1592.06 2587.99 1592.08 2586.11C1592.12 2584.28 1592.6 2578.93 1593.59 2570.03C1593.59 2569.7 1593.8 2569.39 1594.12 2569.25Z" fill="white"/>
<path d="M1592.5 2568.58C1592.73 2568.81 1592.81 2569.16 1592.74 2569.5C1591.08 2575.53 1589.81 2585.57 1586.68 2590.1C1585.51 2591.82 1583.86 2592.65 1581.75 2592.62C1579.68 2592.59 1577.76 2592.06 1575.32 2590.27C1572.8 2588.44 1571.15 2586.47 1570.31 2584.38C1569.49 2582.33 1569.68 2580.46 1570.84 2578.77C1571.57 2577.7 1572.71 2576.77 1574.22 2575.94C1575.72 2575.14 1583.67 2571.63 1591.48 2568.37C1591.82 2568.22 1592.24 2568.31 1592.5 2568.58Z" fill="white"/>
<path d="M1591.4 2566.02C1591.36 2566.31 1591.18 2566.58 1590.91 2566.7C1583.17 2570.26 1575.11 2573.76 1573.51 2574.33C1571.88 2574.88 1570.44 2575.07 1569.14 2574.9C1567.12 2574.63 1565.61 2573.48 1564.65 2571.48C1563.68 2569.45 1563.35 2566.91 1563.71 2563.81C1564.05 2560.8 1564.96 2559.03 1566.34 2557.49C1567.75 2555.91 1569.48 2555.28 1571.54 2555.57C1577.04 2556.34 1585.39 2562.3 1590.93 2565.15C1591.25 2565.31 1591.43 2565.67 1591.4 2566.02Z" fill="white"/>
<path d="M1595 2567.4C1595 2567.04 1595.2 2566.74 1595.52 2566.6C1603.23 2563.05 1611.22 2559.57 1612.82 2559.01C1614.45 2558.46 1615.92 2558.26 1617.19 2558.44C1619.21 2558.71 1620.72 2559.86 1621.68 2561.86C1622.65 2563.88 1622.98 2566.43 1622.62 2569.53C1622.28 2572.53 1621.38 2574.31 1619.99 2575.85C1618.59 2577.43 1616.85 2578.05 1614.79 2577.77C1609.32 2577.01 1601.03 2571.11 1595.47 2568.24C1595.18 2568.06 1594.99 2567.76 1595 2567.4Z" fill="white"/>
<path d="M1593.97 2564.88C1594.22 2565.08 1594.56 2565.1 1594.86 2564.99C1602.68 2561.73 1610.62 2558.22 1612.12 2557.42C1613.63 2556.59 1614.77 2555.65 1615.5 2554.59C1616.66 2552.9 1616.82 2551.02 1616.02 2548.95C1615.19 2546.87 1613.54 2544.9 1611.02 2543.06C1608.58 2541.27 1606.66 2540.74 1604.58 2540.72C1602.47 2540.68 1600.83 2541.54 1599.65 2543.24C1596.5 2547.78 1595.23 2557.82 1593.6 2563.84C1593.59 2563.87 1593.6 2563.9 1593.57 2563.91C1593.58 2563.93 1593.57 2564.51 1593.97 2564.88Z" fill="white"/>
<path d="M541.386 3424.97C541.568 3424.92 541.71 3424.75 541.744 3424.57L543.025 3418.21C543.452 3416.15 543.48 3414.57 543.097 3413.48C542.691 3412.33 541.928 3411.57 540.819 3411.21C539.71 3410.85 538.389 3410.94 536.856 3411.48C535.285 3412.04 534.135 3412.82 533.427 3413.8C532.732 3414.78 532.575 3415.83 532.967 3416.94C533.215 3417.65 533.692 3418.36 534.392 3419.09C535.082 3419.8 537.239 3421.72 540.891 3424.85C541.021 3424.98 541.217 3425.01 541.386 3424.97Z" fill="white"/>
<path d="M542.378 3427.69C542.543 3427.63 542.739 3427.66 542.882 3427.78L547.882 3431.95C549.508 3433.3 550.519 3434.51 550.902 3435.6C551.303 3436.74 551.184 3437.82 550.544 3438.79C549.904 3439.77 548.818 3440.52 547.285 3441.06C545.713 3441.62 544.329 3441.73 543.162 3441.41C542.007 3441.08 541.227 3440.36 540.835 3439.24C540.587 3438.54 540.514 3437.69 540.601 3436.68C540.696 3435.69 541.17 3432.83 542.063 3428.08C542.072 3427.91 542.201 3427.75 542.378 3427.69Z" fill="white"/>
<path d="M541.529 3427.26C541.647 3427.4 541.672 3427.59 541.62 3427.76C540.488 3430.94 539.395 3436.29 537.532 3438.61C536.831 3439.49 535.911 3439.87 534.777 3439.76C533.661 3439.67 532.65 3439.3 531.408 3438.24C530.128 3437.15 529.318 3436.02 528.955 3434.87C528.596 3433.73 528.772 3432.73 529.465 3431.87C529.901 3431.33 530.551 3430.87 531.399 3430.48C532.238 3430.12 536.655 3428.55 540.99 3427.11C541.181 3427.04 541.403 3427.11 541.529 3427.26Z" fill="white"/>
<path d="M541.04 3425.84C541.009 3425.99 540.901 3426.13 540.749 3426.18C536.443 3427.78 531.965 3429.35 531.081 3429.58C530.18 3429.82 529.398 3429.86 528.706 3429.71C527.63 3429.49 526.864 3428.81 526.429 3427.69C525.99 3426.57 525.915 3425.18 526.231 3423.53C526.535 3421.93 527.095 3421.01 527.905 3420.23C528.723 3419.44 529.683 3419.18 530.777 3419.41C533.707 3420.05 537.959 3423.59 540.826 3425.35C540.99 3425.45 541.075 3425.65 541.04 3425.84Z" fill="white"/>
<path d="M542.923 3426.73C542.94 3426.54 543.056 3426.38 543.234 3426.32C547.527 3424.72 551.967 3423.17 552.851 3422.93C553.752 3422.7 554.547 3422.65 555.226 3422.8C556.302 3423.03 557.069 3423.71 557.503 3424.82C557.943 3425.95 558.017 3427.34 557.701 3428.99C557.397 3430.59 556.837 3431.51 556.027 3432.28C555.209 3433.08 554.249 3433.34 553.156 3433.11C550.242 3432.48 546.017 3428.97 543.145 3427.2C542.994 3427.09 542.905 3426.92 542.923 3426.73Z" fill="white"/>
<path d="M542.473 3425.33C542.599 3425.45 542.778 3425.47 542.947 3425.42C547.282 3423.99 551.7 3422.42 552.539 3422.05C553.386 3421.66 554.036 3421.21 554.472 3420.66C555.165 3419.8 555.324 3418.79 554.978 3417.65C554.615 3416.5 553.805 3415.37 552.525 3414.28C551.283 3413.22 550.272 3412.85 549.156 3412.76C548.022 3412.65 547.107 3413.05 546.401 3413.91C544.525 3416.23 543.432 3421.58 542.313 3424.75C542.305 3424.77 542.309 3424.78 542.296 3424.79C542.301 3424.8 542.269 3425.12 542.473 3425.33Z" fill="white"/>
<path d="M1263.47 391.879C1253.27 396.355 1246.06 402.094 1241.9 408.9L1241.9 408.901C1237.83 415.641 1237.33 422.528 1240.43 429.605C1242.4 434.094 1245.89 438.55 1250.92 443.087C1255.89 447.474 1271.35 459.286 1297.54 478.561L1297.56 478.575L1297.57 478.59C1298.27 479.175 1299.32 479.292 1300.24 478.97C1301.14 478.647 1301.84 477.726 1301.95 476.726L1301.95 476.715L1307.37 433.282L1307.37 433.278L1307.53 431.968C1309.15 418.542 1308.47 408.497 1305.51 401.767C1302.29 394.412 1296.95 389.889 1289.54 388.092C1282.11 386.289 1273.43 387.512 1263.47 391.879Z" stroke="white" stroke-width="1.5"/>
<path d="M1308.79 498.182C1307.88 498.583 1307.3 499.471 1307.32 500.323L1307.32 500.373L1307.32 500.423C1303.71 532.846 1301.96 552.3 1301.82 558.94L1301.82 558.941C1301.75 565.717 1302.66 571.308 1304.63 575.798C1307.73 582.874 1313.14 587.166 1320.85 588.744C1328.68 590.294 1337.78 588.884 1347.99 584.407C1357.95 580.04 1364.72 574.488 1368.44 567.797C1372.13 561.131 1372.39 554.056 1369.2 546.785C1366.15 539.837 1358.87 532.273 1347.28 524.073L1347.27 524.071L1311.5 498.499L1311.49 498.492C1310.69 497.901 1309.63 497.814 1308.79 498.182Z" stroke="white" stroke-width="1.5"/>
<path d="M1299.17 494.992C1270.7 506.876 1241.78 519.657 1236.35 522.534C1230.91 525.515 1226.88 528.863 1224.3 532.603C1220.23 538.543 1219.56 545.085 1222.46 552.37C1225.43 559.786 1231.33 566.857 1240.43 573.494L1240.43 573.495C1249.21 579.922 1256.05 581.808 1263.45 581.893L1263.46 581.893C1270.9 582.024 1276.65 579.11 1280.78 573.043L1280.79 573.039L1281.31 572.264C1286.64 564.094 1290.48 551.337 1293.71 537.807C1297.03 523.942 1299.72 509.223 1302.72 498.244C1302.94 497.217 1302.7 496.22 1302.07 495.617L1302.06 495.604L1302.04 495.59C1301.33 494.823 1300.13 494.571 1299.18 494.986L1299.17 494.992Z" stroke="white" stroke-width="1.5"/>
<path d="M1226.13 448.386C1218.89 447.394 1212.81 449.58 1207.87 455.135L1207.87 455.139C1202.92 460.639 1199.67 466.948 1198.45 477.76L1198.45 477.761C1197.17 488.949 1198.37 498.085 1201.82 505.287C1205.21 512.365 1210.51 516.382 1217.6 517.324C1222.18 517.933 1227.3 517.265 1233.18 515.282C1238.97 513.237 1268.29 500.483 1296.49 487.519L1296.5 487.513C1297.22 487.196 1297.74 486.458 1297.84 485.633C1297.94 484.671 1297.42 483.667 1296.56 483.217C1286.45 478.029 1273.72 469.961 1261.15 462.92C1248.5 455.838 1236 449.776 1226.13 448.386Z" stroke="white" stroke-width="1.5"/>
<path d="M1376.87 460.915C1371.08 462.958 1342.01 475.604 1313.89 488.533L1313.88 488.539C1313 488.923 1312.46 489.756 1312.44 490.792C1312.43 491.813 1312.95 492.672 1313.8 493.177C1323.91 498.406 1336.6 506.434 1349.1 513.417C1361.29 520.231 1373.33 526.072 1382.99 527.672L1383.92 527.813C1391.15 528.805 1397.23 526.619 1402.17 521.064L1402.18 521.06L1402.63 520.542C1407.33 515.162 1410.41 508.913 1411.59 498.439L1411.59 498.437C1412.88 487.249 1411.68 478.113 1408.23 470.912C1404.84 463.834 1399.53 459.817 1392.45 458.875L1392.44 458.874C1387.95 458.231 1382.75 458.931 1376.87 460.915Z" stroke="white" stroke-width="1.5"/>
<path d="M1346.6 394.304C1339.17 394.174 1333.44 397.166 1329.27 403.159C1323.63 411.301 1319.62 424.452 1316.28 438.417C1312.96 452.294 1310.29 467.03 1307.33 477.989L1307.32 478.027L1307.32 478.03C1307.31 478.04 1307.31 478.055 1307.31 478.073C1307.3 478.097 1307.3 478.142 1307.28 478.198C1307.28 478.247 1307.29 478.302 1307.29 478.363C1307.31 478.571 1307.35 478.85 1307.43 479.161C1307.58 479.783 1307.88 480.486 1308.46 481.024C1309.1 481.512 1310.01 481.598 1310.94 481.281C1338.52 469.77 1366.51 457.421 1373.16 454.046L1373.74 453.747C1379.01 450.859 1382.96 447.627 1385.54 444.027L1385.79 443.677C1389.74 437.931 1390.38 431.567 1387.85 424.505L1387.59 423.819C1384.63 416.406 1378.72 409.337 1369.63 402.702L1369.63 402.702C1360.85 396.275 1354.01 394.39 1346.61 394.304L1346.6 394.304Z" stroke="white" stroke-width="1.5"/>
<path d="M1122.65 1034.35C1123.1 1034.2 1123.42 1033.76 1123.47 1033.29L1125.47 1017.23C1126.15 1012.01 1125.93 1008.07 1124.77 1005.43C1123.54 1002.63 1121.5 1000.9 1118.67 1000.21C1115.84 999.527 1112.57 999.999 1108.85 1001.63C1105.05 1003.3 1102.33 1005.45 1100.75 1008.03C1099.2 1010.6 1099 1013.24 1100.19 1015.95C1100.94 1017.65 1102.26 1019.33 1104.14 1021.03C1105.99 1022.66 1111.72 1027.04 1121.4 1034.16C1121.75 1034.45 1122.24 1034.5 1122.65 1034.35Z" fill="white"/>
<path d="M1125.62 1040.94C1126.02 1040.77 1126.51 1040.81 1126.89 1041.09L1140.12 1050.54C1144.42 1053.59 1147.16 1056.42 1148.32 1059.06C1149.53 1061.82 1149.44 1064.53 1148.03 1067.08C1146.62 1069.62 1144.05 1071.71 1140.33 1073.34C1136.52 1075.01 1133.1 1075.55 1130.13 1074.96C1127.19 1074.36 1125.12 1072.71 1123.93 1070.01C1123.18 1068.3 1122.84 1066.19 1122.87 1063.66C1122.92 1061.2 1123.57 1053.99 1124.91 1041.99C1124.9 1041.55 1125.19 1041.13 1125.62 1040.94Z" fill="white"/>
<path d="M1123.43 1040.05C1123.75 1040.35 1123.85 1040.83 1123.75 1041.28C1121.53 1049.4 1119.81 1062.93 1115.6 1069.04C1114.02 1071.36 1111.8 1072.48 1108.95 1072.43C1106.16 1072.4 1103.57 1071.68 1100.28 1069.27C1096.89 1066.8 1094.66 1064.14 1093.54 1061.34C1092.44 1058.56 1092.69 1056.05 1094.25 1053.77C1095.24 1052.34 1096.77 1051.07 1098.81 1049.96C1100.83 1048.89 1111.54 1044.15 1122.06 1039.76C1122.52 1039.56 1123.09 1039.68 1123.43 1040.05Z" fill="white"/>
<path d="M1121.95 1036.59C1121.9 1036.98 1121.66 1037.34 1121.29 1037.5C1110.87 1042.3 1100.01 1047.02 1097.85 1047.78C1095.65 1048.52 1093.71 1048.78 1091.96 1048.55C1089.24 1048.19 1087.2 1046.64 1085.91 1043.94C1084.61 1041.22 1084.17 1037.78 1084.64 1033.61C1085.1 1029.56 1086.32 1027.17 1088.2 1025.09C1090.08 1022.97 1092.43 1022.13 1095.19 1022.5C1102.61 1023.55 1113.86 1031.58 1121.33 1035.41C1121.75 1035.63 1122 1036.12 1121.95 1036.59Z" fill="white"/>
<path d="M1126.8 1038.46C1126.81 1037.97 1127.07 1037.56 1127.5 1037.37C1137.89 1032.59 1148.65 1027.91 1150.81 1027.15C1153.01 1026.41 1154.98 1026.14 1156.7 1026.38C1159.42 1026.74 1161.46 1028.3 1162.75 1030.99C1164.05 1033.71 1164.5 1037.15 1164.02 1041.32C1163.56 1045.37 1162.34 1047.76 1160.47 1049.84C1158.58 1051.97 1156.24 1052.81 1153.47 1052.43C1146.1 1051.4 1134.92 1043.45 1127.44 1039.58C1127.04 1039.35 1126.79 1038.94 1126.8 1038.46Z" fill="white"/>
<path d="M1125.42 1035.06C1125.76 1035.32 1126.21 1035.35 1126.62 1035.2C1137.15 1030.81 1147.86 1026.08 1149.88 1025.01C1151.91 1023.89 1153.45 1022.63 1154.43 1021.2C1156 1018.92 1156.2 1016.38 1155.13 1013.59C1154.01 1010.79 1151.78 1008.14 1148.39 1005.66C1145.1 1003.25 1142.51 1002.53 1139.72 1002.5C1136.87 1002.45 1134.67 1003.6 1133.07 1005.9C1128.83 1012.01 1127.11 1025.55 1124.92 1033.66C1124.9 1033.7 1124.91 1033.73 1124.88 1033.74C1124.9 1033.78 1124.88 1034.56 1125.42 1035.06Z" fill="white"/>
<path d="M173.678 1833.8C173.884 1833.73 174.034 1833.53 174.058 1833.31L174.991 1825.83C175.306 1823.4 175.201 1821.57 174.662 1820.34C174.091 1819.03 173.14 1818.23 171.823 1817.91C170.507 1817.59 168.983 1817.81 167.252 1818.57C165.478 1819.34 164.213 1820.35 163.478 1821.55C162.757 1822.75 162.665 1823.98 163.217 1825.23C163.566 1826.03 164.182 1826.81 165.056 1827.6C165.918 1828.36 168.586 1830.4 173.093 1833.72C173.255 1833.85 173.486 1833.87 173.678 1833.8Z" fill="white"/>
<path d="M175.056 1836.87C175.242 1836.79 175.472 1836.81 175.648 1836.94L181.809 1841.34C183.811 1842.76 185.089 1844.08 185.628 1845.31C186.192 1846.59 186.148 1847.86 185.491 1849.04C184.834 1850.23 183.64 1851.2 181.909 1851.96C180.135 1852.73 178.54 1852.99 177.158 1852.71C175.79 1852.43 174.823 1851.67 174.272 1850.41C173.923 1849.61 173.765 1848.63 173.777 1847.45C173.802 1846.3 174.103 1842.95 174.725 1837.36C174.72 1837.16 174.855 1836.96 175.056 1836.87Z" fill="white"/>
<path d="M174.038 1836.46C174.186 1836.6 174.232 1836.82 174.187 1837.03C173.151 1840.81 172.349 1847.11 170.389 1849.95C169.653 1851.04 168.62 1851.56 167.296 1851.53C165.994 1851.52 164.79 1851.19 163.257 1850.06C161.678 1848.91 160.641 1847.68 160.12 1846.37C159.605 1845.08 159.722 1843.91 160.45 1842.84C160.908 1842.18 161.622 1841.59 162.571 1841.07C163.512 1840.57 168.498 1838.37 173.399 1836.32C173.614 1836.23 173.878 1836.28 174.038 1836.46Z" fill="white"/>
<path d="M173.35 1834.84C173.327 1835.03 173.214 1835.2 173.043 1835.27C168.189 1837.5 163.133 1839.7 162.128 1840.06C161.103 1840.4 160.201 1840.52 159.386 1840.41C158.118 1840.25 157.17 1839.52 156.569 1838.27C155.962 1837 155.755 1835.4 155.978 1833.46C156.191 1831.57 156.761 1830.46 157.632 1829.49C158.512 1828.5 159.602 1828.11 160.89 1828.29C164.344 1828.77 169.582 1832.51 173.059 1834.3C173.258 1834.4 173.374 1834.63 173.35 1834.84Z" fill="white"/>
<path d="M175.606 1835.72C175.609 1835.49 175.73 1835.3 175.931 1835.21C180.77 1832.99 185.783 1830.8 186.788 1830.45C187.813 1830.1 188.729 1829.98 189.53 1830.09C190.798 1830.26 191.746 1830.98 192.347 1832.24C192.954 1833.51 193.161 1835.11 192.938 1837.05C192.725 1838.94 192.155 1840.05 191.284 1841.02C190.404 1842 189.314 1842.4 188.026 1842.22C184.593 1841.74 179.388 1838.04 175.904 1836.24C175.72 1836.13 175.603 1835.94 175.606 1835.72Z" fill="white"/>
<path d="M174.967 1834.13C175.123 1834.26 175.333 1834.27 175.525 1834.2C180.427 1832.15 185.412 1829.95 186.353 1829.45C187.302 1828.93 188.016 1828.34 188.474 1827.68C189.203 1826.62 189.299 1825.44 188.798 1824.14C188.277 1822.83 187.24 1821.6 185.661 1820.44C184.128 1819.32 182.925 1818.99 181.622 1818.97C180.298 1818.95 179.272 1819.49 178.529 1820.55C176.554 1823.4 175.753 1829.7 174.731 1833.48C174.723 1833.5 174.73 1833.51 174.715 1833.52C174.722 1833.54 174.712 1833.9 174.967 1834.13Z" fill="white"/>
<path d="M29.0756 1282.42C32.1725 1287.94 35.7985 1291.66 39.8271 1293.61L39.8279 1293.61C43.8001 1295.5 47.6376 1295.41 51.3978 1293.3C53.7889 1291.96 56.0972 1289.76 58.3809 1286.67C60.5894 1283.61 66.4388 1274.16 75.9468 1258.18L75.9585 1258.16L75.9725 1258.14C76.1891 1257.82 76.2105 1257.34 76.0127 1256.92C75.8345 1256.54 75.3906 1256.26 74.9284 1256.25L74.917 1256.25L49.8954 1255.6L49.8924 1255.6L48.3989 1255.57C41.0665 1255.47 35.7021 1256.43 32.2284 1258.38C28.3071 1260.58 26.094 1263.78 25.5003 1268C24.9029 1272.23 26.0546 1277.03 29.0756 1282.42Z" stroke="white" stroke-width="1.5"/>
<path d="M87.04 1250.68C87.2636 1251.08 87.6822 1251.28 88.0231 1251.23L88.0722 1251.23L88.1221 1251.23C106.775 1251.47 117.927 1251.38 121.701 1251.09L121.702 1251.09C125.534 1250.75 128.617 1249.93 131.01 1248.59C134.769 1246.48 136.85 1243.25 137.308 1238.88C137.743 1234.42 136.458 1229.39 133.36 1223.86C130.339 1218.48 126.846 1214.99 122.917 1213.29C119.013 1211.6 115.077 1211.85 111.2 1214.02C107.495 1216.1 103.632 1220.6 99.6224 1227.65L99.6208 1227.65L87.0676 1249.44L87.0623 1249.45C86.8309 1249.84 86.8388 1250.32 87.04 1250.68Z" stroke="white" stroke-width="1.5"/>
<path d="M85.7665 1256.34C94.1237 1271.88 103.005 1287.6 104.938 1290.52C106.796 1293.24 108.756 1295.23 110.818 1296.47L111.232 1296.71C114.63 1298.59 118.158 1298.66 121.917 1296.83L122.282 1296.65C126.267 1294.59 129.922 1290.88 133.17 1285.37L133.17 1285.36C136.306 1280.06 136.977 1276.13 136.618 1271.99L136.618 1271.98C136.285 1267.84 134.365 1264.83 130.779 1262.87L130.775 1262.87L130.31 1262.62C125.419 1260.07 117.998 1258.6 110.112 1257.52C102.073 1256.41 93.5097 1255.7 87.0942 1254.6C86.5817 1254.55 86.1524 1254.72 85.93 1255L85.9172 1255.02L85.9052 1255.03C85.635 1255.34 85.5571 1255.8 85.6904 1256.17L85.7603 1256.32L85.7665 1256.34Z" stroke="white" stroke-width="1.5"/>
<path d="M63.3654 1300.68C63.2095 1304.75 64.7451 1307.98 68.0957 1310.42L68.0989 1310.42C71.4485 1312.89 75.1553 1314.37 81.3144 1314.46L81.3157 1314.46C87.5149 1314.56 92.4639 1313.44 96.2577 1311.26L96.6213 1311.05C100.377 1308.77 102.3 1305.62 102.435 1301.66C102.523 1299.08 101.874 1296.25 100.433 1293.05C98.9537 1289.89 90.0629 1273.93 81.1042 1258.6L81.0975 1258.59C80.9385 1258.3 80.6007 1258.1 80.2254 1258.09C79.8029 1258.09 79.3848 1258.37 79.2277 1258.76C76.8392 1264.8 72.943 1272.54 69.6518 1280.06C66.3268 1287.65 63.6021 1295.05 63.3654 1300.68Z" stroke="white" stroke-width="1.5"/>
<path d="M62.0337 1214.04C63.5131 1217.21 72.3274 1233.03 81.2604 1248.32L81.2671 1248.33C81.4692 1248.69 81.8496 1248.89 82.3236 1248.86C82.7794 1248.82 83.1398 1248.55 83.3356 1248.14C85.746 1242.1 89.6214 1234.39 92.8819 1226.92C96.0793 1219.6 98.7058 1212.47 99.0723 1206.94L99.1005 1206.41C99.2562 1202.35 97.7207 1199.11 94.3702 1196.67L94.3666 1196.67C91.0171 1194.2 87.311 1192.73 81.152 1192.64L81.1506 1192.64L80.5548 1192.63C74.4362 1192.61 69.5645 1193.8 65.8451 1196.05C62.0895 1198.32 60.1666 1201.47 60.0311 1205.44L60.0306 1205.44C59.9189 1207.97 60.5902 1210.84 62.0337 1214.04Z" stroke="white" stroke-width="1.5"/>
<path d="M25.8499 1235.11C26.1824 1239.24 28.1432 1242.23 31.6951 1244.22C36.5845 1246.94 44.2358 1248.48 52.3743 1249.6C60.4227 1250.71 69.0047 1251.41 75.4061 1252.49L75.4158 1252.49C75.4184 1252.49 75.4212 1252.49 75.4241 1252.49C75.4334 1252.49 75.4478 1252.49 75.4664 1252.5C75.4786 1252.49 75.4916 1252.49 75.5049 1252.49C75.6123 1252.47 75.7532 1252.43 75.9072 1252.38C76.2131 1252.27 76.5257 1252.09 76.7473 1251.81C76.9135 1251.53 76.9304 1251.13 76.7304 1250.69C68.3839 1235.17 59.5192 1219.48 57.5793 1216.55L57.5797 1216.55C55.5958 1213.64 53.498 1211.57 51.2821 1210.35C47.7848 1208.42 44.1187 1208.46 40.1869 1210.44C36.2013 1212.5 32.5468 1216.21 29.2986 1221.72L29.2982 1221.72C26.163 1227.03 25.49 1230.96 25.8488 1235.1L25.8499 1235.11Z" stroke="white" stroke-width="1.5"/>
<path d="M980.544 2307.77C984.234 2314.35 988.544 2318.87 993.338 2321.34L993.805 2321.57C998.721 2323.91 1003.48 2323.79 1008.14 2321.18C1011.1 2319.52 1013.95 2316.8 1016.76 2313C1019.47 2309.24 1026.64 2297.65 1038.3 2278.06L1038.31 2278.04L1038.32 2278.02C1038.63 2277.57 1038.65 2276.92 1038.39 2276.36C1038.14 2275.83 1037.53 2275.45 1036.91 2275.44L1036.91 2275.45L1036.9 2275.44L1006.22 2274.64L1006.22 2274.64L1005.29 2274.62C995.828 2274.41 988.915 2275.58 984.474 2278.07C979.623 2280.79 976.876 2284.76 976.141 2289.99C975.401 2295.23 976.829 2301.15 980.544 2307.77Z" stroke="white" stroke-width="1.5"/>
<path d="M1051.6 2268.86C1051.91 2269.4 1052.48 2269.69 1052.98 2269.63L1053.03 2269.62L1053.08 2269.62C1075.95 2269.92 1089.63 2269.8 1094.26 2269.45L1094.26 2269.45C1098.97 2269.04 1102.78 2268.02 1105.74 2266.36C1110.4 2263.75 1112.98 2259.75 1113.55 2254.33C1114.08 2248.82 1112.49 2242.61 1108.69 2235.82C1104.97 2229.2 1100.66 2224.9 1095.8 2222.79C1090.97 2220.7 1086.08 2221 1081.29 2223.69C1076.7 2226.26 1071.95 2231.82 1067.03 2240.46L1067.03 2240.46L1051.64 2267.18L1051.63 2267.18C1051.32 2267.71 1051.33 2268.37 1051.6 2268.86Z" stroke="white" stroke-width="1.5"/>
<path d="M1050.04 2275.8C1060.29 2294.85 1071.18 2314.14 1073.55 2317.72C1075.99 2321.29 1078.58 2323.85 1081.33 2325.36C1085.55 2327.69 1089.93 2327.78 1094.58 2325.51L1095.03 2325.29C1099.96 2322.74 1104.46 2318.17 1108.45 2311.39L1108.45 2311.39C1112.31 2304.86 1113.14 2300 1112.7 2294.89L1112.7 2294.88C1112.29 2289.75 1109.9 2286.01 1105.45 2283.58L1105.45 2283.57L1104.88 2283.27C1098.85 2280.13 1089.72 2278.33 1080.06 2277C1070.18 2275.64 1059.7 2274.77 1051.83 2273.42C1051.16 2273.35 1050.57 2273.57 1050.26 2273.98L1050.25 2273.99L1050.23 2274C1049.81 2274.49 1049.73 2275.24 1050.04 2275.78L1050.04 2275.8Z" stroke="white" stroke-width="1.5"/>
<path d="M1022.56 2330.07C1022.37 2335.12 1024.28 2339.14 1028.43 2342.16L1028.43 2342.16C1032.57 2345.21 1037.15 2347.03 1044.73 2347.14L1044.73 2347.14C1052.6 2347.26 1058.85 2345.8 1063.59 2342.93C1068.24 2340.12 1070.63 2336.21 1070.8 2331.28C1070.91 2328.09 1070.1 2324.6 1068.33 2320.66C1066.62 2317.01 1056.93 2299.58 1046.68 2281.93L1044.62 2278.4L1044.62 2278.39C1044.42 2278.04 1044.03 2277.78 1043.59 2277.72L1043.4 2277.7C1042.81 2277.7 1042.24 2278.08 1042.02 2278.62C1039.09 2286.03 1034.32 2295.49 1030.28 2304.73C1026.21 2314.04 1022.85 2323.14 1022.56 2330.07Z" stroke="white" stroke-width="1.5"/>
<path d="M1020.94 2223.94C1022.76 2227.83 1033.57 2247.24 1044.52 2265.97L1044.53 2265.98C1044.81 2266.48 1045.34 2266.77 1045.99 2266.71C1046.61 2266.66 1047.11 2266.29 1047.37 2265.73C1050.33 2258.32 1055.07 2248.89 1059.07 2239.72C1062.99 2230.75 1066.22 2221.98 1066.67 2215.17L1066.71 2214.52C1066.9 2209.48 1064.99 2205.46 1060.84 2202.44L1060.84 2202.44L1060.45 2202.15C1056.41 2199.28 1051.88 2197.57 1044.54 2197.46L1044.54 2197.46C1036.67 2197.33 1030.42 2198.79 1025.68 2201.66C1021.03 2204.48 1018.64 2208.39 1018.47 2213.31L1018.47 2213.32C1018.34 2216.45 1019.17 2219.99 1020.94 2223.94Z" stroke="white" stroke-width="1.5"/>
<path d="M976.569 2249.7C976.981 2254.82 979.419 2258.55 983.822 2261.01L983.822 2261.01C989.847 2264.37 999.258 2266.25 1009.23 2267.63C1019.12 2268.99 1029.61 2269.85 1037.46 2271.17L1037.48 2271.17C1037.48 2271.17 1037.49 2271.17 1037.5 2271.17C1037.52 2271.17 1037.54 2271.17 1037.57 2271.18C1037.59 2271.17 1037.62 2271.17 1037.65 2271.17C1037.78 2271.14 1037.96 2271.09 1038.16 2271.02C1038.56 2270.88 1038.98 2270.65 1039.28 2270.26C1039.52 2269.86 1039.53 2269.3 1039.27 2268.73C1029.67 2250.87 1019.5 2232.82 1016.31 2227.69L1015.77 2226.84C1013.33 2223.26 1010.74 2220.71 1008 2219.19C1003.79 2216.87 999.381 2216.85 994.684 2219.08L994.229 2219.3C989.31 2221.85 984.811 2226.42 980.82 2233.19L980.82 2233.2C976.959 2239.72 976.126 2244.58 976.569 2249.7L976.569 2249.7Z" stroke="white" stroke-width="1.5"/>
<path d="M399.815 47.8159C400.258 47.6584 400.58 47.2213 400.631 46.7543L402.634 30.6915C403.311 25.4692 403.086 21.5311 401.928 18.8908C400.703 16.0951 398.66 14.3611 395.832 13.6753C393.005 12.9895 389.732 13.4615 386.015 15.0914C382.206 16.7616 379.488 18.9163 377.909 21.4972C376.362 24.0647 376.165 26.7064 377.35 29.4089C378.099 31.1173 379.421 32.7966 381.3 34.4913C383.151 36.1239 388.879 40.5006 398.559 47.6257C398.907 47.9176 399.402 47.9599 399.815 47.8159Z" fill="white"/>
<path d="M402.776 54.403C403.176 54.2279 403.67 54.2702 404.049 54.5487L417.279 64.0059C421.579 67.0462 424.323 69.8797 425.481 72.52C426.693 75.2846 426.598 77.9925 425.187 80.5372C423.775 83.0819 421.211 85.1692 417.494 86.799C413.685 88.4693 410.259 89.0087 407.291 88.4213C404.354 87.8204 402.277 86.1755 401.093 83.473C400.343 81.7646 400.004 79.6542 400.03 77.1244C400.084 74.6567 400.731 67.4471 402.066 55.4553C402.056 55.0152 402.346 54.5916 402.776 54.403Z" fill="white"/>
<path d="M400.593 53.5103C400.91 53.8157 401.009 54.291 400.913 54.7405C398.688 62.8638 396.967 76.3956 392.758 82.5001C391.176 84.8233 388.957 85.9443 386.115 85.8943C383.317 85.8619 380.732 85.1439 377.441 82.735C374.049 80.26 371.823 77.6065 370.703 74.8015C369.596 72.0276 369.848 69.5101 371.412 67.2315C372.396 65.8002 373.929 64.5354 375.967 63.4196C377.988 62.3483 388.696 57.6162 399.222 53.2228C399.683 53.0208 400.249 53.1428 400.593 53.5103Z" fill="white"/>
<path d="M399.114 50.0479C399.066 50.4394 398.823 50.805 398.455 50.9666C388.03 55.7597 377.173 60.4835 375.016 61.2442C372.814 61.9872 370.876 62.2446 369.126 62.012C366.404 61.6503 364.368 60.0985 363.077 57.4055C361.773 54.6813 361.329 51.2465 361.807 47.0742C362.264 43.0221 363.488 40.6338 365.36 38.554C367.248 36.4296 369.59 35.5881 372.356 35.9675C379.773 37.0114 391.022 45.0411 398.491 48.8769C398.917 49.0974 399.166 49.5809 399.114 50.0479Z" fill="white"/>
<path d="M403.959 51.9208C403.966 51.4362 404.226 51.026 404.656 50.8374C415.049 46.0578 425.815 41.3744 427.972 40.6138C430.173 39.8707 432.142 39.5999 433.862 39.8459C436.584 40.2077 438.62 41.7594 439.91 44.4525C441.215 47.1767 441.659 50.6114 441.181 54.7837C440.723 58.8359 439.5 61.2241 437.628 63.304C435.739 65.4284 433.398 66.2698 430.631 65.8905C423.259 64.8641 412.082 56.9141 404.599 53.0473C404.204 52.8134 403.952 52.4054 403.959 51.9208Z" fill="white"/>
<path d="M402.585 48.5252C402.919 48.7861 403.369 48.8108 403.782 48.6667C414.309 44.2733 425.016 39.5413 427.037 38.47C429.075 37.3542 430.608 36.0894 431.592 34.658C433.157 32.3795 433.364 29.8444 432.288 27.057C431.168 24.252 428.942 21.5985 425.549 19.1235C422.259 16.7146 419.673 15.9966 416.876 15.9642C414.033 15.9142 411.828 17.0663 410.233 19.3584C405.993 25.4764 404.272 39.0082 402.078 47.118C402.061 47.1626 402.074 47.1936 402.044 47.2071C402.057 47.2382 402.036 48.0252 402.585 48.5252Z" fill="white"/>
</svg>
