<svg width="20" height="19" viewBox="0 0 20 19" fill="none" xmlns="http://www.w3.org/2000/svg">
<g opacity="0.2">
<path d="M9.66044 8.53808C9.54131 8.54624 9.42218 8.481 9.36261 8.38314L7.2608 5.03967C6.57154 3.95508 6.22266 3.06621 6.22266 2.37305C6.22266 1.63912 6.52048 1.06012 7.10763 0.636075C7.69478 0.212025 8.50317 0 9.5328 0C10.588 0 11.4389 0.212025 12.0686 0.62792C12.6898 1.04382 13.0046 1.6065 13.0046 2.31596C13.0046 2.76448 12.8685 3.26192 12.6047 3.81645C12.3409 4.35467 11.4559 5.87146 9.93274 8.37498C9.88168 8.47284 9.77106 8.52993 9.66044 8.53808Z" fill="white"/>
<path d="M9.64412 10.2773C9.5335 10.2773 9.42287 10.3344 9.36331 10.4323L7.25299 13.7921C6.56373 14.8767 6.21484 15.7655 6.21484 16.4587C6.21484 17.1845 6.51267 17.7716 7.09982 18.1957C7.68696 18.6197 8.49535 18.8317 9.52499 18.8317C10.5801 18.8317 11.4311 18.6197 12.0608 18.2038C12.682 17.7879 12.9968 17.2252 12.9968 16.5158C12.9968 16.0673 12.8607 15.5698 12.5969 15.0153C12.3331 14.4771 11.4481 12.9521 9.91642 10.4404C9.87387 10.3426 9.76325 10.2773 9.64412 10.2773Z" fill="white"/>
<path d="M10.0599 9.87005C10.0173 9.96791 10.0428 10.0821 10.1109 10.1718C11.4554 11.7457 13.2339 14.5591 14.8336 15.4969C15.4378 15.8557 16.0675 15.8883 16.7227 15.6029C17.3694 15.3256 17.897 14.9179 18.4161 14.0698C18.9522 13.1972 19.1989 12.398 19.1734 11.6723C19.1479 10.9546 18.833 10.4246 18.2374 10.0739C17.863 9.85374 17.3779 9.72326 16.7908 9.67433C16.2121 9.63356 13.2424 9.6254 10.3492 9.67433C10.2215 9.67433 10.1024 9.75588 10.0599 9.87005Z" fill="white"/>
<path d="M10.0528 8.96298C10.1038 9.04453 10.1974 9.10161 10.2995 9.10161C13.2097 9.15054 16.2135 9.14239 16.7922 9.10161C17.3793 9.05268 17.8559 8.92221 18.2388 8.70203C18.8344 8.35953 19.1493 7.82131 19.1748 7.10368C19.2003 6.37791 18.9536 5.57874 18.4175 4.70617C17.8984 3.85807 17.3708 3.45033 16.7241 3.17307C16.0689 2.88765 15.4392 2.92843 14.835 3.27908C13.2182 4.22504 11.4228 7.07922 10.0783 8.64494C10.0017 8.73465 9.9932 8.86512 10.0528 8.96298Z" fill="white"/>
<path d="M9.11532 9.84558C9.06426 9.73957 8.96215 9.67433 8.84302 9.67433C5.94133 9.6254 2.96305 9.63356 2.38441 9.67433C1.79727 9.72326 1.31223 9.85374 0.937823 10.0739C0.342168 10.4164 0.0273213 10.9546 0.0017932 11.6723C-0.0237349 12.398 0.223037 13.1972 0.759126 14.0698C1.2782 14.9179 1.80578 15.3256 2.45249 15.6029C3.10771 15.8883 3.7374 15.8475 4.34157 15.4969C5.94984 14.5591 7.7368 11.7293 9.08128 10.1555C9.14936 10.0658 9.16638 9.9516 9.11532 9.84558Z" fill="white"/>
<path d="M9.0898 8.96298C9.03874 9.05268 8.93663 9.10161 8.826 9.10977C5.93282 9.1587 2.96305 9.15054 2.38442 9.10977C1.79727 9.06084 1.31224 8.93036 0.937823 8.71018C0.342168 8.35953 0.0358307 7.82131 0.0017932 7.10369C-0.0237349 6.37791 0.223037 5.57874 0.759127 4.70617C1.2782 3.85807 1.80578 3.45033 2.45249 3.17307C3.10771 2.88765 3.7374 2.92843 4.34157 3.27908C5.94984 4.21688 7.7283 7.03029 9.06427 8.60417C9.07278 8.61233 9.07278 8.62048 9.08129 8.62048C9.08129 8.62863 9.16638 8.79989 9.0898 8.96298Z" fill="white"/>
</g>
</svg>
