<svg width="219" height="435" viewBox="0 0 219 435" fill="none" xmlns="http://www.w3.org/2000/svg">
<path d="M204.313 219.098C204.508 216.396 202.947 213.695 200.606 212.344L120.598 164.676C94.6437 149.044 73.3733 141.132 56.7862 141.132C39.2235 141.132 25.3684 147.886 15.2211 161.202C5.07368 174.518 6.16758e-07 192.852 8.95219e-07 216.203C1.18058e-06 240.134 5.07368 259.432 15.0259 273.713C24.9781 287.801 38.4429 294.942 55.4202 294.942C66.153 294.942 78.0567 291.854 91.3263 285.871C104.206 279.889 140.502 259.818 200.41 225.274C202.752 224.116 204.118 221.607 204.313 219.098Z" fill="#0AAC49"/>
<path d="M214.453 227.974C216.404 229.132 217.77 231.255 217.77 233.571C218.941 299.572 218.746 367.696 217.77 380.819C216.599 394.135 213.477 404.942 208.208 413.626C200.012 427.135 187.133 434.276 169.96 434.855C152.593 435.434 133.469 429.837 112.589 417.679C92.294 405.907 82.5369 393.942 75.9021 379.275C69.0722 364.415 70.0479 350.134 78.439 336.432C101.075 299.765 169.375 259.045 206.842 228.553C208.989 226.816 212.111 226.623 214.453 227.974Z" fill="#0AAC49"/>
<path d="M214.441 206.15C216.588 204.992 217.758 202.676 217.954 200.167C219.124 134.552 218.929 67.1998 217.954 54.0767C216.783 40.7607 213.66 29.7605 208.392 21.2691C200.001 7.76011 187.121 0.812614 169.949 0.0406698C152.581 -0.538288 133.457 5.05831 112.577 17.2164C92.2823 28.9886 82.5252 40.9537 75.8904 55.6206C69.0604 70.4806 70.0361 84.7615 78.4272 98.4635C100.869 134.938 168.192 175.272 205.855 205.571C206.05 205.764 206.245 205.764 206.245 205.957C206.44 205.957 210.538 207.887 214.441 206.15Z" fill="#0AAC49"/>
</svg>
