<svg width="1228" height="576" viewBox="0 0 1228 576" fill="none" xmlns="http://www.w3.org/2000/svg">
<g opacity="0.12">
<path fill-rule="evenodd" clip-rule="evenodd" d="M618.44 37.5547C610.588 37.2329 603.203 40.9768 599.168 47.3239L464.673 257.949C420.514 326.48 398.295 382.463 398.295 425.811C398.295 471.879 417.256 508.294 455.022 535.145C492.385 561.791 544.303 575.188 610.247 575.188C676.191 575.188 732.143 561.967 772.578 535.642C812.548 509.61 832.595 474.131 832.595 429.087C832.595 400.598 824.061 369.301 806.962 334.728C790.236 300.887 733.601 205.183 636.035 47.5287C632.373 41.5911 625.732 37.8179 618.471 37.5254L618.44 37.5547Z" fill="#08A03F"/>
<path fill-rule="evenodd" clip-rule="evenodd" d="M643.584 10.8223C646.873 5.49887 652.893 2.16443 659.441 2.07666C845.698 -0.848267 1038.01 -0.585022 1075.09 2.25217C1112.76 5.11859 1143.42 13.3962 1167.54 27.2311C1205.52 48.9927 1225.6 82.571 1227.46 127.761C1229.32 173.303 1213.22 223.67 1179.05 278.805C1145.97 332.39 1112.11 358.1 1070.81 375.533C1029.07 393.258 988.789 391.006 949.906 368.601C846.35 309.224 731.53 129.458 645.29 30.858C640.325 25.1837 639.642 17.1693 643.584 10.793V10.8223Z" fill="#08A03F"/>
<path fill-rule="evenodd" clip-rule="evenodd" d="M581.787 11.027C586.349 17.9591 585.759 26.8801 580.267 33.198C494.275 132.266 380.417 309.692 277.668 368.601C238.909 391.006 198.598 393.258 156.859 375.533C115.586 358.071 81.7292 332.39 48.5554 278.805C14.3886 223.67 -1.71725 173.302 0.144698 127.761C2.00665 82.5417 22.0537 48.9927 60.0685 27.2311C84.1497 13.3962 114.841 5.11859 152.607 2.25214C189.474 -0.555786 379.672 -0.819 564.905 2.04742C571.795 2.16443 578.156 5.55737 581.787 11.0562V11.027Z" fill="#08A03F"/>
</g>
</svg>
