<svg preserveAspectRatio="none" width="100%" height="100%" overflow="visible" style="display: block;" viewBox="0 0 236 243" fill="none" xmlns="http://www.w3.org/2000/svg">
<g id="Fill Petal " opacity="0.5">
<path id="Vector" fill-rule="evenodd" clip-rule="evenodd" d="M118.893 110.204C117.384 110.27 115.964 109.503 115.188 108.202L89.3323 65.0278C80.8429 50.9802 76.5713 39.5047 76.5713 30.6193C76.5713 21.1763 80.2165 13.7118 87.4769 8.20792C94.6598 2.74597 104.641 0 117.318 0C129.996 0 140.752 2.70999 148.526 8.106C156.21 13.442 160.064 20.7147 160.064 29.9478C160.064 35.7875 158.423 42.2027 155.136 49.2895C151.92 56.2264 141.032 75.8438 122.276 108.16C121.572 109.377 120.295 110.15 118.899 110.21L118.893 110.204Z" fill="var(--fill-0, #D9F0E1)"/>
<path id="Vector_2" fill-rule="evenodd" clip-rule="evenodd" d="M118.714 132.682C117.306 132.682 116.006 133.425 115.278 134.636L89.3323 177.972C80.8429 192.02 76.5713 203.489 76.5713 212.381C76.5713 221.8 80.2165 229.288 87.4769 234.792C94.6598 240.254 104.641 243 117.318 243C129.996 243 140.752 240.29 148.526 234.894C156.21 229.558 160.064 222.261 160.064 213.058C160.064 207.219 158.423 200.803 155.136 193.717C151.914 186.768 140.997 167.102 122.186 134.69C121.47 133.449 120.146 132.688 118.72 132.688L118.714 132.682Z" fill="var(--fill-0, #D9F0E1)"/>
<path id="Vector_3" fill-rule="evenodd" clip-rule="evenodd" d="M123.809 127.388C123.32 128.695 123.559 130.17 124.442 131.249C140.973 151.556 162.856 187.919 182.609 199.994C190.084 204.586 197.828 205.054 205.852 201.415C213.792 197.835 220.295 192.571 226.661 181.587C233.223 170.286 236.325 159.961 235.967 150.626C235.609 141.357 231.756 134.48 224.447 130.02C219.818 127.184 213.918 125.493 206.675 124.899C199.588 124.324 163.005 124.27 127.389 124.857C125.79 124.881 124.37 125.889 123.809 127.394V127.388Z" fill="var(--fill-0, #D9F0E1)"/>
<path id="Vector_4" fill-rule="evenodd" clip-rule="evenodd" d="M123.725 115.684C124.357 116.775 125.514 117.459 126.773 117.477C162.58 118.077 199.551 118.023 206.68 117.441C213.923 116.853 219.817 115.157 224.452 112.321C231.755 107.86 235.614 100.977 235.972 91.714C236.33 82.3789 233.234 72.0546 226.666 60.753C220.306 49.7691 213.797 44.499 205.857 40.9256C197.833 37.2923 190.089 37.754 182.614 42.3466C162.706 54.5176 140.632 91.3663 124.053 111.577C123.098 112.74 122.967 114.383 123.725 115.69V115.684Z" fill="var(--fill-0, #D9F0E1)"/>
<path id="Vector_5" fill-rule="evenodd" clip-rule="evenodd" d="M112.234 127.082C111.631 125.745 110.319 124.876 108.863 124.852C73.1693 124.258 36.4494 124.312 29.3441 124.893C22.0836 125.487 16.1834 127.178 11.5539 130.014C4.23971 134.48 0.385768 141.357 0.0278168 150.626C-0.330135 159.962 2.76615 170.286 9.34053 181.587C15.718 192.571 22.2268 197.841 30.1614 201.415C38.1855 205.054 45.9351 204.586 53.3865 199.994C73.1991 187.877 95.1594 151.322 111.709 131.051C112.622 129.936 112.824 128.395 112.234 127.082Z" fill="var(--fill-0, #D9F0E1)"/>
<path id="Vector_6" fill-rule="evenodd" clip-rule="evenodd" d="M111.846 115.642C112.723 114.221 112.61 112.393 111.554 111.098C95.0222 90.7907 73.1335 54.4216 53.3805 42.3466C45.9292 37.754 38.1795 37.2923 30.1554 40.9256C22.2208 44.505 15.7121 49.7691 9.33456 60.753C2.76615 72.0546 -0.330134 82.3789 0.0278176 91.714C0.385769 100.983 4.23972 107.86 11.5479 112.321C16.1774 115.157 22.0776 116.853 29.3381 117.441C36.4255 118.017 72.9903 118.07 108.601 117.483C109.925 117.459 111.148 116.763 111.846 115.636V115.642Z" fill="var(--fill-0, #D9F0E1)"/>
</g>
</svg>
