<svg preserveAspectRatio="none" width="100%" height="100%" overflow="visible" style="display: block;" viewBox="0 0 266 273" fill="none" xmlns="http://www.w3.org/2000/svg">
<g id="Fill Petal " opacity="0.5">
<path id="Vector" fill-rule="evenodd" clip-rule="evenodd" d="M134.007 123.81C132.305 123.884 130.705 123.022 129.831 121.56L100.688 73.056C91.1195 57.2741 86.305 44.3819 86.305 34.3995C86.305 23.7907 90.4135 15.4047 98.5969 9.22124C106.693 3.08497 117.942 0 132.231 0C146.52 0 158.644 3.04456 167.406 9.10674C176.067 15.1016 180.411 23.272 180.411 33.6451C180.411 40.2057 178.561 47.413 174.856 55.3746C171.232 63.1679 158.96 85.2073 137.819 121.513C137.026 122.88 135.587 123.749 134.013 123.817L134.007 123.81Z" fill="var(--fill-0, #D9F0E1)"/>
<path id="Vector_2" fill-rule="evenodd" clip-rule="evenodd" d="M133.805 149.062C132.218 149.062 130.752 149.897 129.932 151.258L100.688 199.944C91.1195 215.726 86.305 228.611 86.305 238.601C86.305 249.182 90.4135 257.595 98.5969 263.779C106.693 269.915 117.942 273 132.231 273C146.52 273 158.644 269.955 167.406 263.893C176.067 257.898 180.411 249.701 180.411 239.362C180.411 232.801 178.561 225.594 174.856 217.632C171.225 209.825 158.92 187.732 137.718 151.319C136.912 149.924 135.419 149.069 133.812 149.069L133.805 149.062Z" fill="var(--fill-0, #D9F0E1)"/>
<path id="Vector_3" fill-rule="evenodd" clip-rule="evenodd" d="M139.548 143.114C138.996 144.583 139.265 146.24 140.261 147.452C158.893 170.266 183.558 211.119 205.822 224.684C214.247 229.844 222.975 230.369 232.019 226.281C240.969 222.26 248.299 216.346 255.474 204.006C262.87 191.309 266.367 179.71 265.963 169.222C265.56 158.809 261.216 151.083 252.979 146.071C247.761 142.885 241.111 140.986 232.947 140.319C224.959 139.673 183.726 139.612 143.582 140.272C141.78 140.299 140.18 141.431 139.548 143.121V143.114Z" fill="var(--fill-0, #D9F0E1)"/>
<path id="Vector_4" fill-rule="evenodd" clip-rule="evenodd" d="M139.452 129.966C140.165 131.192 141.47 131.96 142.888 131.98C183.247 132.654 224.917 132.593 232.953 131.94C241.116 131.28 247.76 129.374 252.984 126.188C261.215 121.176 265.565 113.443 265.969 103.037C266.372 92.5492 262.882 80.9502 255.479 68.2533C248.311 55.9134 240.975 49.9927 232.025 45.9782C222.981 41.8963 214.253 42.415 205.827 47.5746C183.389 61.2481 158.509 102.646 139.822 125.352C138.746 126.659 138.598 128.505 139.452 129.973V129.966Z" fill="var(--fill-0, #D9F0E1)"/>
<path id="Vector_5" fill-rule="evenodd" clip-rule="evenodd" d="M126.501 142.771C125.822 141.269 124.342 140.292 122.702 140.265C82.4704 139.598 41.0828 139.659 33.0742 140.312C24.8908 140.979 18.2406 142.879 13.0226 146.065C4.77866 151.083 0.434807 158.809 0.0313528 169.222C-0.372101 179.71 3.11778 191.309 10.5279 204.006C17.7161 216.346 25.0522 222.266 33.9955 226.281C43.0395 230.369 51.7743 229.844 60.1729 224.684C82.5041 211.072 107.256 170.004 125.909 147.23C126.938 145.977 127.166 144.246 126.501 142.771Z" fill="var(--fill-0, #D9F0E1)"/>
<path id="Vector_6" fill-rule="evenodd" clip-rule="evenodd" d="M126.064 129.919C127.052 128.323 126.924 126.268 125.734 124.813C107.101 101.999 82.4301 61.1404 60.1662 47.5746C51.7676 42.415 43.0328 41.8963 33.9887 45.9782C25.0455 49.9994 17.7094 55.9134 10.5212 68.2533C3.11778 80.9502 -0.3721 92.5492 0.0313537 103.037C0.434808 113.45 4.77866 121.176 13.0158 126.188C18.2339 129.374 24.8841 131.28 33.0675 131.94C41.0559 132.586 82.2687 132.647 122.406 131.987C123.898 131.96 125.277 131.179 126.064 129.912V129.919Z" fill="var(--fill-0, #D9F0E1)"/>
</g>
</svg>
