<svg width="957" height="2520" viewBox="0 0 957 2520" fill="none" xmlns="http://www.w3.org/2000/svg">
<g opacity="0.05">
<path d="M949.914 1142.78C966.539 1143.87 983.165 1135.14 991.477 1122.05L1284.79 674.69C1380.98 529.571 1429.67 410.64 1429.67 317.894C1429.67 219.694 1388.11 142.224 1306.17 85.4862C1224.23 28.748 1111.42 0.378906 967.727 0.378906C820.475 0.378906 701.723 28.748 613.846 84.395C527.157 140.042 483.219 215.329 483.219 310.257C483.219 370.268 502.22 436.826 539.033 511.022C575.846 583.036 699.348 785.984 911.914 1120.96C919.039 1134.05 934.476 1141.69 949.914 1142.78Z" fill="#D9F0E1"/>
<path d="M952.291 1375.19C967.729 1375.19 983.167 1382.83 991.479 1395.92L1285.98 1845.46C1382.17 1990.58 1430.86 2109.51 1430.86 2202.26C1430.86 2299.37 1389.3 2377.93 1307.36 2434.66C1225.42 2491.4 1112.61 2519.77 968.916 2519.77C821.664 2519.77 702.912 2491.4 615.036 2435.76C528.347 2380.11 484.409 2304.82 484.409 2209.89C484.409 2149.88 503.409 2083.32 540.222 2009.13C577.035 1937.11 700.537 1733.07 914.291 1397.01C920.228 1383.92 935.666 1375.19 952.291 1375.19Z" fill="#D9F0E1"/>
<path d="M894.128 1320.63C900.066 1333.72 896.503 1349 887.003 1361C699.375 1571.59 451.184 1948.02 227.93 2073.5C143.616 2121.51 55.7397 2125.88 -35.6992 2087.69C-125.951 2050.59 -199.577 1996.03 -272.016 1882.56C-346.829 1765.81 -381.267 1658.88 -377.705 1561.77C-374.142 1465.75 -330.204 1394.83 -247.078 1347.91C-194.827 1318.45 -127.138 1300.99 -45.1994 1294.44C35.5519 1288.99 449.996 1287.9 853.753 1294.44C871.566 1294.44 888.191 1305.35 894.128 1320.63Z" fill="#D9F0E1"/>
<path d="M895.271 1199.52C888.146 1210.43 875.084 1218.07 860.833 1218.07C454.702 1224.61 35.5077 1223.52 -45.2436 1218.07C-127.182 1211.52 -193.683 1194.06 -247.122 1164.6C-330.248 1118.77 -374.186 1046.76 -377.749 950.741C-381.311 853.631 -346.873 746.702 -272.06 629.952C-199.621 516.476 -125.995 461.92 -35.7434 424.822C55.6955 386.633 143.572 392.088 227.886 439.006C453.514 565.576 704.081 947.468 891.709 1156.96C902.396 1168.96 903.584 1186.42 895.271 1199.52Z" fill="#D9F0E1"/>
</g>
</svg>
