<svg width="218" height="413" viewBox="0 0 218 413" fill="none" xmlns="http://www.w3.org/2000/svg">
<g opacity="0.1">
<path d="M-0.834961 0.4375C22.473 0.437564 42.1996 5.11213 56.4277 14.375C70.4711 23.5214 77.4883 35.9562 77.4883 51.7529C77.4882 61.7571 74.4912 72.7758 68.4541 84.9824H68.4531C62.9092 96.199 44.9432 126.678 14.2383 176.465L7.92676 186.68C6.73975 188.604 4.60177 189.852 2.2373 190.003L2.23242 189.998L2.04883 190.006C-0.584907 190.114 -3.04985 188.857 -4.39062 186.747L-52.0322 112.139L-52.0332 112.137L-53.4756 109.876C-68.1449 86.6493 -75.4765 67.6615 -75.4766 52.9131C-75.4766 36.7382 -68.83 23.9712 -55.5664 14.541L-55.5654 14.54C-42.4307 5.17289 -24.1409 0.4375 -0.834961 0.4375Z" fill="#08A03F" stroke="#08A03F" stroke-width="0.875276"/>
<path d="M119.697 73.5586C133.35 65.6919 147.474 64.9001 162.135 71.126L162.136 71.127C176.681 77.266 188.604 86.3118 200.275 105.217V105.218C212.35 124.703 218.013 142.458 217.358 158.473C216.715 174.087 209.89 185.722 196.972 193.36L196.352 193.721C187.884 198.579 177.092 201.501 163.79 202.513H163.789C150.677 203.516 82.5823 203.609 16.5967 202.573H16.5957C14.4186 202.544 12.4275 201.435 11.3447 199.683L11.2178 199.478C10.0673 197.421 10.3285 194.907 11.9062 193.104C27.1825 175.638 45.0236 150.942 63.5674 128.062C81.8519 105.503 100.833 84.69 118.84 74.0576L119.697 73.5586Z" fill="#08A03F" stroke="#08A03F" stroke-width="0.875276"/>
<path d="M-0.834961 411.883C22.473 411.883 42.1996 407.208 56.4277 397.945C70.4711 388.799 77.4883 376.364 77.4883 360.567C77.4882 350.563 74.4912 339.545 68.4541 327.338H68.4531C62.9092 316.121 44.9432 285.643 14.2383 235.855L7.92676 225.641C6.73975 223.716 4.60177 222.468 2.2373 222.317L2.23242 222.322L2.04883 222.314C-0.584907 222.207 -3.04985 223.464 -4.39062 225.573L-52.0322 300.182L-52.0332 300.184L-53.4756 302.444C-68.1449 325.671 -75.4765 344.659 -75.4766 359.407C-75.4766 375.582 -68.83 388.349 -55.5664 397.779L-55.5654 397.78C-42.4307 407.147 -24.1409 411.883 -0.834961 411.883Z" fill="#08A03F" stroke="#08A03F" stroke-width="0.875276"/>
<path d="M119.697 338.762C133.35 346.628 147.474 347.42 162.135 341.194L162.136 341.193C176.681 335.054 188.604 326.009 200.275 307.104V307.103C212.35 287.617 218.013 269.862 217.358 253.848C216.715 238.233 209.89 226.599 196.972 218.96L196.352 218.6C187.884 213.741 177.092 210.82 163.79 209.808H163.789C150.677 208.805 82.5823 208.711 16.5967 209.747H16.5957C14.4186 209.776 12.4275 210.885 11.3447 212.638L11.2178 212.843C10.0673 214.899 10.3285 217.414 11.9062 219.217C27.1825 236.682 45.0236 261.378 63.5674 284.258C81.8519 306.818 100.833 327.63 118.84 338.263L119.697 338.762Z" fill="#08A03F" stroke="#08A03F" stroke-width="0.875276"/>
</g>
</svg>
