<svg preserveAspectRatio="none" width="100%" height="100%" overflow="visible" style="display: block;" viewBox="0 0 18.9991 18.6552" fill="none" xmlns="http://www.w3.org/2000/svg">
<g id="Group">
<g id="Group_2">
<path id="Vector" d="M9.57135 8.4593C9.45332 8.46738 9.33529 8.40275 9.27627 8.30579L7.19385 4.99317C6.51095 3.91859 6.16529 3.03792 6.16529 2.35115C6.16529 1.62399 6.46037 1.05034 7.0421 0.630207C7.62383 0.21007 8.42476 1.46032e-06 9.44489 1.46032e-06C10.4903 1.46032e-06 11.3334 0.21007 11.9573 0.622128C12.5727 1.03419 12.8847 1.59168 12.8847 2.2946C12.8847 2.73897 12.7498 3.23183 12.4884 3.78124C12.2271 4.31449 11.3503 5.81729 9.84114 8.29771C9.79055 8.39467 9.68095 8.45122 9.57135 8.4593Z" fill="var(--fill-0, #08A03F)"/>
</g>
<g id="Group_3">
<path id="Vector_2" d="M9.55437 10.1797C9.44477 10.1797 9.33517 10.2362 9.27615 10.3332L7.1853 13.662C6.5024 14.7366 6.15674 15.6172 6.15674 16.304C6.15674 17.0231 6.45182 17.6048 7.03355 18.0249C7.61528 18.4451 8.41621 18.6552 9.43634 18.6552C10.4818 18.6552 11.3248 18.4451 11.9487 18.033C12.5642 17.621 12.8761 17.0635 12.8761 16.3606C12.8761 15.9162 12.7412 15.4233 12.4799 14.8739C12.2185 14.3407 11.3417 12.8298 9.82416 10.3413C9.782 10.2443 9.6724 10.1797 9.55437 10.1797Z" fill="var(--fill-0, #08A03F)"/>
</g>
<g id="Group_4">
<path id="Vector_3" d="M9.96787 9.77613C9.92572 9.87309 9.95101 9.9862 10.0185 10.0751C11.3505 11.6344 13.1126 14.4219 14.6976 15.351C15.2962 15.7065 15.9201 15.7389 16.5692 15.4561C17.21 15.1814 17.7327 14.7774 18.247 13.9371C18.7781 13.0726 19.0226 12.2808 18.9973 11.5617C18.972 10.8507 18.6601 10.3255 18.0699 9.97812C17.699 9.75998 17.2184 9.6307 16.6367 9.58222C16.0634 9.54183 13.121 9.53375 10.2545 9.58222C10.1281 9.58222 10.01 9.66302 9.96787 9.77613Z" fill="var(--fill-0, #08A03F)"/>
</g>
<g id="Group_5">
<path id="Vector_4" d="M9.95822 8.87962C10.0088 8.96041 10.1015 9.01697 10.2027 9.01697C13.0861 9.06545 16.0622 9.05737 16.6355 9.01697C17.2172 8.96849 17.6893 8.83922 18.0687 8.62107C18.6589 8.28173 18.9708 7.74848 18.9961 7.03748C19.0214 6.3184 18.7769 5.5266 18.2457 4.66209C17.7315 3.82181 17.2088 3.41783 16.568 3.14313C15.9188 2.86034 15.295 2.90074 14.6964 3.24816C13.0945 4.18539 11.3156 7.01324 9.98351 8.56451C9.90764 8.65339 9.89921 8.78266 9.95822 8.87962Z" fill="var(--fill-0, #08A03F)"/>
</g>
<g id="Group_6">
<path id="Vector_5" d="M9.03133 9.7517C8.98074 9.64666 8.87957 9.58202 8.76154 9.58202C5.88662 9.53355 2.93582 9.54163 2.36252 9.58202C1.78079 9.6305 1.30024 9.75978 0.929279 9.97792C0.33912 10.3173 0.0271781 10.8505 0.00188552 11.5615C-0.023407 12.2806 0.221088 13.0724 0.752231 13.9369C1.26651 14.7772 1.78923 15.1812 2.42997 15.4559C3.07915 15.7387 3.70303 15.6983 4.30162 15.3508C5.89505 14.4217 7.66553 11.6181 8.9976 10.0587C9.06505 9.96984 9.08191 9.85673 9.03133 9.7517Z" fill="var(--fill-0, #08A03F)"/>
</g>
<path id="Vector_6" d="M9.00596 8.87956C8.95537 8.96843 8.8542 9.01691 8.7446 9.02499C5.87811 9.07347 2.93574 9.06539 2.36245 9.02499C1.78072 8.97651 1.30016 8.84724 0.929201 8.62909C0.339041 8.28167 0.0355306 7.74842 0.00180717 7.03742C-0.0234854 6.31834 0.221009 5.52654 0.752153 4.66203C1.26644 3.82175 1.78915 3.41777 2.42989 3.14307C3.07907 2.86028 3.70295 2.90068 4.30154 3.2481C5.89497 4.17725 7.65702 6.9647 8.98067 8.52406C8.9891 8.53214 8.9891 8.54022 8.99753 8.54022C8.99753 8.5483 9.08184 8.71797 9.00596 8.87956Z" fill="var(--fill-0, #08A03F)"/>
</g>
</svg>
