<svg preserveAspectRatio="none" width="100%" height="100%" overflow="visible" style="display: block;" viewBox="0 0 792.972 380.124" fill="none" xmlns="http://www.w3.org/2000/svg">
<g id="Group" opacity="0.1">
<g id="Group_2">
<path id="Vector" d="M398.782 26.3574C394.208 26.3574 389.633 28.7181 387.169 32.765L299.897 171.709C271.393 216.562 256.965 253.321 256.965 281.986C256.965 312.001 269.281 336.282 293.563 353.819C317.844 371.355 351.275 380.124 393.856 380.124C437.492 380.124 472.682 371.355 498.723 354.156C524.412 336.957 537.433 313.687 537.433 284.347C537.433 265.799 531.802 245.227 520.893 222.295C509.984 200.037 473.386 136.973 410.043 33.1023C408.284 29.0554 403.709 26.3574 398.782 26.3574Z" fill="var(--fill-0, #078133)"/>
</g>
<g id="Group_3">
<path id="Vector_2" d="M416.009 9.48778C414.249 13.5347 415.305 18.256 418.12 21.9657C473.721 87.0533 547.269 203.402 613.427 242.184C638.412 257.023 664.453 258.372 691.55 246.568C718.294 235.102 740.112 218.24 761.579 183.167C783.749 147.082 793.954 114.033 792.898 84.0181C791.842 54.3409 778.822 32.4202 754.189 17.9188C738.705 8.8133 718.646 3.41743 694.365 1.39398C670.435 -0.292224 547.621 -0.629465 427.973 1.39398C422.695 1.39398 417.768 4.7664 416.009 9.48778Z" fill="var(--fill-0, #078133)"/>
</g>
<g id="Group_4">
<path id="Vector_3" d="M376.963 8.49167C374.852 4.10753 370.629 1.40961 365.703 1.40961C245.703 -0.61384 122.537 -0.276599 98.6073 1.40961C74.3259 3.43306 54.2674 8.82892 38.7836 17.9344C14.1503 32.0986 1.12987 54.3565 0.0741575 84.0338C-0.981555 114.048 9.22366 147.098 31.3936 183.183C52.8598 218.256 74.6778 235.118 101.423 246.584C128.519 258.388 154.56 256.701 179.545 242.2C246.055 203.417 319.955 86.3944 375.556 21.3069C378.371 17.5972 379.075 12.8758 376.963 8.49167Z" fill="var(--fill-0, #078133)"/>
</g>
</g>
</svg>
