<svg width="31" height="31" viewBox="0 0 31 31" fill="none" xmlns="http://www.w3.org/2000/svg">
<path d="M15.6182 13.8031C15.4256 13.8163 15.2331 13.7108 15.1368 13.5526L11.7389 8.14738C10.6246 6.39398 10.0605 4.95698 10.0605 3.83639C10.0605 2.64988 10.542 1.71385 11.4912 1.02831C12.4405 0.34277 13.7473 0 15.4119 0C17.1177 0 18.4934 0.34277 19.5114 1.01513C20.5156 1.68748 21.0246 2.59714 21.0246 3.7441C21.0246 4.46919 20.8045 5.27339 20.378 6.16986C19.9516 7.03997 18.5209 9.49209 16.0585 13.5394C15.9759 13.6976 15.7971 13.7899 15.6182 13.8031Z" fill="white"/>
<path d="M15.5889 16.6113C15.41 16.6113 15.2312 16.7036 15.1349 16.8618L11.7232 22.2934C10.6089 24.0468 10.0449 25.4838 10.0449 26.6044C10.0449 27.7777 10.5264 28.7269 11.4756 29.4125C12.4248 30.098 13.7317 30.4408 15.3963 30.4408C17.1021 30.4408 18.4778 30.098 19.4958 29.4257C20.5 28.7533 21.009 27.8436 21.009 26.6967C21.009 25.9716 20.7889 25.1674 20.3624 24.2709C19.936 23.4008 18.5053 20.9355 16.0291 16.875C15.9603 16.7168 15.7815 16.6113 15.5889 16.6113Z" fill="white"/>
<path d="M16.2621 15.9529C16.1934 16.1111 16.2346 16.2957 16.3447 16.4407C18.5182 18.9851 21.3934 23.5334 23.9796 25.0495C24.9564 25.6296 25.9744 25.6823 27.0336 25.2209C28.0791 24.7727 28.932 24.1135 29.7712 22.7424C30.6379 21.3318 31.0368 20.0398 30.9955 18.8665C30.9543 17.7063 30.4453 16.8494 29.4823 16.2825C28.877 15.9266 28.0929 15.7156 27.1437 15.6365C26.2082 15.5706 21.4071 15.5574 16.7299 15.6365C16.5235 15.6365 16.3309 15.7684 16.2621 15.9529Z" fill="white"/>
<path d="M16.2507 14.4876C16.3332 14.6194 16.4846 14.7117 16.6496 14.7117C21.3544 14.7908 26.2105 14.7776 27.146 14.7117C28.0952 14.6326 28.8656 14.4217 29.4846 14.0657C30.4476 13.512 30.9566 12.6419 30.9978 11.4817C31.0391 10.3084 30.6402 9.01644 29.7735 7.60581C28.9343 6.23473 28.0814 5.57556 27.0359 5.12732C25.9767 4.6659 24.9587 4.73181 23.9819 5.2987C21.3682 6.82799 18.4655 11.4422 16.292 13.9734C16.1682 14.1184 16.1544 14.3294 16.2507 14.4876Z" fill="white"/>
<path d="M14.7363 15.9134C14.6537 15.742 14.4887 15.6365 14.2961 15.6365C9.60505 15.5574 4.79022 15.5706 3.85476 15.6365C2.90555 15.7156 2.12143 15.9266 1.51613 16.2825C0.553165 16.8362 0.044169 17.7063 0.00289897 18.8665C-0.038371 20.0398 0.360572 21.3318 1.22724 22.7424C2.0664 24.1135 2.91931 24.7727 3.96482 25.2209C5.02408 25.6823 6.04207 25.6164 7.0188 25.0495C9.61881 23.5334 12.5077 18.9588 14.6813 16.4143C14.7913 16.2693 14.8188 16.0848 14.7363 15.9134Z" fill="white"/>
<path d="M14.695 14.4876C14.6125 14.6326 14.4474 14.7117 14.2686 14.7249C9.5913 14.804 4.79022 14.7908 3.85477 14.7249C2.90556 14.6458 2.12143 14.4348 1.51613 14.0789C0.553166 13.512 0.0579256 12.6419 0.00289897 11.4818C-0.038371 10.3084 0.360572 9.01644 1.22724 7.60581C2.0664 6.23473 2.91931 5.57556 3.96482 5.12732C5.02408 4.6659 6.04208 4.73181 7.0188 5.2987C9.61881 6.8148 12.494 11.3631 14.6537 13.9075C14.6675 13.9207 14.6675 13.9339 14.6813 13.9339C14.6813 13.9471 14.8188 14.2239 14.695 14.4876Z" fill="white"/>
</svg>
