<svg preserveAspectRatio="none" width="100%" height="100%" overflow="visible" style="display: block;" viewBox="0 0 1530.75 767.003" fill="none" xmlns="http://www.w3.org/2000/svg">
<g id="Petal 4" style="mix-blend-mode:plus-lighter" opacity="0.03">
<path id="Vector" fill-rule="evenodd" clip-rule="evenodd" d="M770.019 53.3711C760.887 53.3711 752.451 58.1804 747.73 66.0148L579.437 346.348C524.372 437.22 496.665 511.415 496.665 568.932C496.665 629.862 520.309 678.304 567.403 713.908C613.994 749.24 678.733 767.003 760.964 767.003C843.195 767.003 912.965 749.473 963.387 714.567C1013.23 680.049 1038.23 632.848 1038.23 573.314C1038.23 535.538 1027.58 494.039 1006.26 448.196C985.367 403.245 914.551 276.032 792.541 66.3639C787.897 58.3355 779.306 53.4099 770.058 53.4099L770.019 53.3711Z" fill="var(--fill-0, #08A03F)"/>
<path id="Vector_2" fill-rule="evenodd" clip-rule="evenodd" d="M803.071 19.1241C799.898 27.5791 801.446 37.12 807.173 44.1012C914.402 175.464 1056.34 410.691 1184.47 488.803C1232.95 518.512 1283.18 521.537 1335.23 497.995C1386.73 474.84 1428.91 440.788 1470.2 369.735C1512.77 296.626 1532.89 229.84 1530.57 169.452C1528.25 109.492 1503.25 65.006 1455.85 36.1504C1425.82 17.8054 1387.55 6.86824 1340.57 3.02859C1294.6 -0.694709 1057.31 -1.0438 826.289 2.75707C815.918 2.91221 806.708 9.42797 803.071 19.1628V19.1241Z" fill="var(--fill-0, #08A03F)"/>
<path id="Vector_3" fill-rule="evenodd" clip-rule="evenodd" d="M727.989 17.1475C724.081 8.49854 715.568 2.8748 706.126 2.71966C474.603 -1.11999 236.424 -0.770961 190.336 2.99112C143.242 6.83078 104.971 17.768 74.9426 36.113C27.5004 65.0074 2.50224 109.493 0.18043 169.454C-2.14138 229.841 17.9422 296.628 60.5861 369.736C101.953 440.789 144.171 474.881 195.638 497.996C247.685 521.538 297.952 518.513 346.284 488.804C474.796 410.421 617.239 173.953 724.584 42.8227C730.505 35.6088 731.82 25.6412 727.989 17.1475Z" fill="var(--fill-0, #08A03F)"/>
</g>
</svg>
