<svg preserveAspectRatio="none" width="100%" height="100%" overflow="visible" style="display: block;" viewBox="0 0 1530.75 751.249" fill="none" xmlns="http://www.w3.org/2000/svg">
<g id="Petal 4" opacity="0.03">
<path id="Vector" fill-rule="evenodd" clip-rule="evenodd" d="M770.019 52.2746C760.887 52.2746 752.451 56.985 747.73 64.6586L579.437 339.234C524.372 428.24 496.665 500.91 496.665 557.246C496.665 616.925 520.309 664.371 567.403 699.244C613.994 733.851 678.733 751.249 760.964 751.249C843.195 751.249 912.965 734.079 963.387 699.89C1013.23 666.081 1038.23 619.85 1038.23 561.539C1038.23 524.538 1027.58 483.892 1006.26 438.99C985.367 394.962 914.551 270.362 792.541 65.0004C787.897 57.137 779.306 52.3125 770.058 52.3125L770.019 52.2746Z" fill="var(--fill-0, #08A03F)"/>
<path id="Vector_2" fill-rule="evenodd" clip-rule="evenodd" d="M803.071 18.7309C799.898 27.0122 801.446 36.3572 807.173 43.195C914.402 171.86 1056.34 402.255 1184.47 478.763C1232.95 507.861 1283.18 510.824 1335.23 487.766C1386.73 465.087 1428.91 431.734 1470.2 362.14C1512.77 290.533 1532.89 225.118 1530.57 165.971C1528.25 107.242 1503.25 63.6704 1455.85 35.4075C1425.82 17.4393 1387.55 6.7268 1340.57 2.96601C1294.6 -0.680816 1057.31 -1.02273 826.289 2.70007C815.918 2.85202 806.708 9.23395 803.071 18.7689V18.7309Z" fill="var(--fill-0, #08A03F)"/>
<path id="Vector_3" fill-rule="evenodd" clip-rule="evenodd" d="M727.989 16.7953C724.081 8.32399 715.568 2.81575 706.126 2.6638C474.603 -1.09699 236.424 -0.755126 190.336 2.92969C143.242 6.69048 104.971 17.4031 74.9426 35.3713C27.5004 63.6722 2.50224 107.244 0.18043 165.973C-2.14138 225.12 17.9422 290.535 60.5861 362.142C101.953 431.736 144.171 465.127 195.638 487.768C247.685 510.826 297.952 507.863 346.284 478.765C474.796 401.991 617.239 170.38 724.584 41.9431C730.505 34.8774 731.82 25.1146 727.989 16.7953Z" fill="var(--fill-0, #08A03F)"/>
</g>
</svg>
